<svg width="80" height="60" viewBox="0 0 76 87" fill="none" xmlns="http://www.w3.org/2000/svg">
<path d="M5.49805 82H2.5293L2.54883 80.4668H5.49805C6.51367 80.4668 7.36003 80.2552 8.03711 79.832C8.71419 79.4023 9.22201 78.8034 9.56055 78.0352C9.9056 77.2604 10.0781 76.3555 10.0781 75.3203V74.4512C10.0781 73.6374 9.98047 72.9147 9.78516 72.2832C9.58984 71.6452 9.30339 71.1081 8.92578 70.6719C8.54818 70.2292 8.08594 69.8939 7.53906 69.666C6.9987 69.4382 6.37695 69.3242 5.67383 69.3242H2.4707V67.7812H5.67383C6.60482 67.7812 7.45443 67.9375 8.22266 68.25C8.99089 68.556 9.65169 69.002 10.2051 69.5879C10.765 70.1673 11.1947 70.8704 11.4941 71.6973C11.7936 72.5176 11.9434 73.4421 11.9434 74.4707V75.3203C11.9434 76.349 11.7936 77.2767 11.4941 78.1035C11.1947 78.9238 10.7617 79.6237 10.1953 80.2031C9.63542 80.7826 8.95833 81.2285 8.16406 81.541C7.3763 81.847 6.48763 82 5.49805 82ZM3.53516 67.7812V82H1.65039V67.7812H3.53516ZM16.3086 73.0938V82H14.502V71.4336H16.2598L16.3086 73.0938ZM19.6094 71.375L19.5996 73.0547C19.4499 73.0221 19.3066 73.0026 19.1699 72.9961C19.0397 72.9831 18.89 72.9766 18.7207 72.9766C18.304 72.9766 17.9362 73.0417 17.6172 73.1719C17.2982 73.3021 17.028 73.4844 16.8066 73.7188C16.5853 73.9531 16.4095 74.2331 16.2793 74.5586C16.1556 74.8776 16.0742 75.2292 16.0352 75.6133L15.5273 75.9062C15.5273 75.2682 15.5892 74.6693 15.7129 74.1094C15.8431 73.5495 16.0417 73.0547 16.3086 72.625C16.5755 72.1888 16.9141 71.8503 17.3242 71.6094C17.7409 71.362 18.2357 71.2383 18.8086 71.2383C18.9388 71.2383 19.0885 71.2546 19.2578 71.2871C19.4271 71.3132 19.5443 71.3424 19.6094 71.375ZM20.6055 76.834V76.6094C20.6055 75.8477 20.7161 75.1413 20.9375 74.4902C21.1589 73.8327 21.4779 73.263 21.8945 72.7812C22.3112 72.293 22.8158 71.9154 23.4082 71.6484C24.0007 71.375 24.6647 71.2383 25.4004 71.2383C26.1426 71.2383 26.8099 71.375 27.4023 71.6484C28.0013 71.9154 28.5091 72.293 28.9258 72.7812C29.349 73.263 29.6712 73.8327 29.8926 74.4902C30.1139 75.1413 30.2246 75.8477 30.2246 76.6094V76.834C30.2246 77.5957 30.1139 78.3021 29.8926 78.9531C29.6712 79.6042 29.349 80.1738 28.9258 80.6621C28.5091 81.1439 28.0046 81.5215 27.4121 81.7949C26.8262 82.0618 26.1621 82.1953 25.4199 82.1953C24.6777 82.1953 24.0104 82.0618 23.418 81.7949C22.8255 81.5215 22.3177 81.1439 21.8945 80.6621C21.4779 80.1738 21.1589 79.6042 20.9375 78.9531C20.7161 78.3021 20.6055 77.5957 20.6055 76.834ZM22.4121 76.6094V76.834C22.4121 77.3613 22.474 77.8594 22.5977 78.3281C22.7214 78.7904 22.9069 79.2005 23.1543 79.5586C23.4082 79.9167 23.724 80.1999 24.1016 80.4082C24.4792 80.61 24.9186 80.7109 25.4199 80.7109C25.9147 80.7109 26.3477 80.61 26.7188 80.4082C27.0964 80.1999 27.4089 79.9167 27.6562 79.5586C27.9036 79.2005 28.0892 78.7904 28.2129 78.3281C28.3431 77.8594 28.4082 77.3613 28.4082 76.834V76.6094C28.4082 76.0885 28.3431 75.597 28.2129 75.1348C28.0892 74.666 27.9004 74.2526 27.6465 73.8945C27.3991 73.5299 27.0866 73.2435 26.709 73.0352C26.3379 72.8268 25.9017 72.7227 25.4004 72.7227C24.9056 72.7227 24.4694 72.8268 24.0918 73.0352C23.7207 73.2435 23.4082 73.5299 23.1543 73.8945C22.9069 74.2526 22.7214 74.666 22.5977 75.1348C22.474 75.597 22.4121 76.0885 22.4121 76.6094ZM34.2969 73.4648V86.0625H32.4805V71.4336H34.1406L34.2969 73.4648ZM41.416 76.6289V76.834C41.416 77.6022 41.3249 78.3151 41.1426 78.9727C40.9603 79.6237 40.6934 80.1901 40.3418 80.6719C39.9967 81.1536 39.5703 81.528 39.0625 81.7949C38.5547 82.0618 37.972 82.1953 37.3145 82.1953C36.6439 82.1953 36.0514 82.0846 35.5371 81.8633C35.0228 81.6419 34.5866 81.3197 34.2285 80.8965C33.8704 80.4733 33.584 79.9655 33.3691 79.373C33.1608 78.7806 33.0176 78.1133 32.9395 77.3711V76.2773C33.0176 75.4961 33.1641 74.7962 33.3789 74.1777C33.5938 73.5592 33.877 73.0319 34.2285 72.5957C34.5866 72.153 35.0195 71.8177 35.5273 71.5898C36.0352 71.3555 36.6211 71.2383 37.2852 71.2383C37.9492 71.2383 38.5384 71.3685 39.0527 71.6289C39.5671 71.8828 40 72.2474 40.3516 72.7227C40.7031 73.1979 40.9668 73.7676 41.1426 74.4316C41.3249 75.0892 41.416 75.8216 41.416 76.6289ZM39.5996 76.834V76.6289C39.5996 76.1016 39.5443 75.6068 39.4336 75.1445C39.3229 74.6758 39.1504 74.2656 38.916 73.9141C38.6882 73.556 38.3952 73.276 38.0371 73.0742C37.679 72.8659 37.2526 72.7617 36.7578 72.7617C36.3021 72.7617 35.9049 72.8398 35.5664 72.9961C35.2344 73.1523 34.9512 73.3639 34.7168 73.6309C34.4824 73.8913 34.2904 74.1908 34.1406 74.5293C33.9974 74.8613 33.89 75.2064 33.8184 75.5645V78.0938C33.9486 78.5495 34.1309 78.9792 34.3652 79.3828C34.5996 79.7799 34.9121 80.1022 35.3027 80.3496C35.6934 80.5905 36.1849 80.7109 36.7773 80.7109C37.2656 80.7109 37.6855 80.61 38.0371 80.4082C38.3952 80.1999 38.6882 79.9167 38.916 79.5586C39.1504 79.2005 39.3229 78.7904 39.4336 78.3281C39.5443 77.8594 39.5996 77.3613 39.5996 76.834ZM45.5273 73.4648V86.0625H43.7109V71.4336H45.3711L45.5273 73.4648ZM52.6465 76.6289V76.834C52.6465 77.6022 52.5553 78.3151 52.373 78.9727C52.1908 79.6237 51.9238 80.1901 51.5723 80.6719C51.2272 81.1536 50.8008 81.528 50.293 81.7949C49.7852 82.0618 49.2025 82.1953 48.5449 82.1953C47.8743 82.1953 47.2819 82.0846 46.7676 81.8633C46.2533 81.6419 45.8171 81.3197 45.459 80.8965C45.1009 80.4733 44.8145 79.9655 44.5996 79.373C44.3913 78.7806 44.248 78.1133 44.1699 77.3711V76.2773C44.248 75.4961 44.3945 74.7962 44.6094 74.1777C44.8242 73.5592 45.1074 73.0319 45.459 72.5957C45.8171 72.153 46.25 71.8177 46.7578 71.5898C47.2656 71.3555 47.8516 71.2383 48.5156 71.2383C49.1797 71.2383 49.7689 71.3685 50.2832 71.6289C50.7975 71.8828 51.2305 72.2474 51.582 72.7227C51.9336 73.1979 52.1973 73.7676 52.373 74.4316C52.5553 75.0892 52.6465 75.8216 52.6465 76.6289ZM50.8301 76.834V76.6289C50.8301 76.1016 50.7747 75.6068 50.6641 75.1445C50.5534 74.6758 50.3809 74.2656 50.1465 73.9141C49.9186 73.556 49.6257 73.276 49.2676 73.0742C48.9095 72.8659 48.4831 72.7617 47.9883 72.7617C47.5326 72.7617 47.1354 72.8398 46.7969 72.9961C46.4648 73.1523 46.1816 73.3639 45.9473 73.6309C45.7129 73.8913 45.5208 74.1908 45.3711 74.5293C45.2279 74.8613 45.1204 75.2064 45.0488 75.5645V78.0938C45.179 78.5495 45.3613 78.9792 45.5957 79.3828C45.8301 79.7799 46.1426 80.1022 46.5332 80.3496C46.9238 80.5905 47.4154 80.7109 48.0078 80.7109C48.4961 80.7109 48.916 80.61 49.2676 80.4082C49.6257 80.1999 49.9186 79.9167 50.1465 79.5586C50.3809 79.2005 50.5534 78.7904 50.6641 78.3281C50.7747 77.8594 50.8301 77.3613 50.8301 76.834ZM59.3359 82.1953C58.6003 82.1953 57.9329 82.0716 57.334 81.8242C56.7415 81.5703 56.2305 81.2155 55.8008 80.7598C55.3776 80.304 55.0521 79.7637 54.8242 79.1387C54.5964 78.5137 54.4824 77.8301 54.4824 77.0879V76.6777C54.4824 75.8184 54.6094 75.0534 54.8633 74.3828C55.1172 73.7057 55.4622 73.1328 55.8984 72.6641C56.3346 72.1953 56.8294 71.8405 57.3828 71.5996C57.9362 71.3587 58.5091 71.2383 59.1016 71.2383C59.8568 71.2383 60.5078 71.3685 61.0547 71.6289C61.6081 71.8893 62.0605 72.2539 62.4121 72.7227C62.7637 73.1849 63.0241 73.7318 63.1934 74.3633C63.3626 74.9883 63.4473 75.6719 63.4473 76.4141V77.2246H55.5566V75.75H61.6406V75.6133C61.6146 75.1445 61.5169 74.6888 61.3477 74.2461C61.1849 73.8034 60.9245 73.4388 60.5664 73.1523C60.2083 72.8659 59.7201 72.7227 59.1016 72.7227C58.6914 72.7227 58.3138 72.8105 57.9688 72.9863C57.6237 73.1556 57.3275 73.4095 57.0801 73.748C56.8327 74.0866 56.6406 74.5 56.5039 74.9883C56.3672 75.4766 56.2988 76.0397 56.2988 76.6777V77.0879C56.2988 77.5892 56.3672 78.0612 56.5039 78.5039C56.6471 78.9401 56.8522 79.3242 57.1191 79.6562C57.3926 79.9883 57.7214 80.2487 58.1055 80.4375C58.4961 80.6263 58.9388 80.7207 59.4336 80.7207C60.0716 80.7207 60.612 80.5905 61.0547 80.3301C61.4974 80.0697 61.8848 79.7214 62.2168 79.2852L63.3105 80.1543C63.0827 80.4993 62.793 80.8281 62.4414 81.1406C62.0898 81.4531 61.6569 81.707 61.1426 81.9023C60.6348 82.0977 60.0326 82.1953 59.3359 82.1953ZM72.2168 79.9492V67H74.0332V82H72.373L72.2168 79.9492ZM65.1074 76.834V76.6289C65.1074 75.8216 65.2051 75.0892 65.4004 74.4316C65.6022 73.7676 65.8854 73.1979 66.25 72.7227C66.6211 72.2474 67.0605 71.8828 67.5684 71.6289C68.0827 71.3685 68.6556 71.2383 69.2871 71.2383C69.9512 71.2383 70.5306 71.3555 71.0254 71.5898C71.5267 71.8177 71.9499 72.153 72.2949 72.5957C72.6465 73.0319 72.9232 73.5592 73.125 74.1777C73.3268 74.7962 73.4668 75.4961 73.5449 76.2773V77.1758C73.4733 77.9505 73.3333 78.6471 73.125 79.2656C72.9232 79.8841 72.6465 80.4115 72.2949 80.8477C71.9499 81.2839 71.5267 81.6191 71.0254 81.8535C70.5241 82.0814 69.9382 82.1953 69.2676 82.1953C68.6491 82.1953 68.0827 82.0618 67.5684 81.7949C67.0605 81.528 66.6211 81.1536 66.25 80.6719C65.8854 80.1901 65.6022 79.6237 65.4004 78.9727C65.2051 78.3151 65.1074 77.6022 65.1074 76.834ZM66.9238 76.6289V76.834C66.9238 77.3613 66.9759 77.8561 67.0801 78.3184C67.1908 78.7806 67.36 79.1875 67.5879 79.5391C67.8158 79.8906 68.1055 80.1673 68.457 80.3691C68.8086 80.5645 69.2285 80.6621 69.7168 80.6621C70.3158 80.6621 70.8073 80.5352 71.1914 80.2812C71.582 80.0273 71.8945 79.6921 72.1289 79.2754C72.3633 78.8587 72.5456 78.4062 72.6758 77.918V75.5645C72.5977 75.2064 72.4837 74.8613 72.334 74.5293C72.1908 74.1908 72.002 73.8913 71.7676 73.6309C71.5397 73.3639 71.2565 73.1523 70.918 72.9961C70.5859 72.8398 70.1921 72.7617 69.7363 72.7617C69.2415 72.7617 68.8151 72.8659 68.457 73.0742C68.1055 73.276 67.8158 73.556 67.5879 73.9141C67.36 74.2656 67.1908 74.6758 67.0801 75.1445C66.9759 75.6068 66.9238 76.1016 66.9238 76.6289Z" fill="#5E647B"/>
<g clip-path="url(#clip0_5402_30252)">
<path fill-rule="evenodd" clip-rule="evenodd" d="M38 0C42.7468 0 47.3869 1.40758 51.3337 4.04473C55.2805 6.68188 58.3566 10.4302 60.1731 14.8156C61.9896 19.201 62.4649 24.0266 61.5388 28.6822C60.6128 33.3377 58.327 37.6141 54.9706 40.9706C51.6141 44.327 47.3377 46.6128 42.6822 47.5388C38.0266 48.4649 33.201 47.9896 28.8156 46.1731C24.4302 44.3566 20.6819 41.2805 18.0447 37.3337C15.4076 33.3869 14 28.7468 14 24C14 17.6348 16.5286 11.5303 21.0294 7.02944C25.5303 2.52856 31.6348 0 38 0Z" fill="#8B8B8B"/>
<path fill-rule="evenodd" clip-rule="evenodd" d="M27.8203 19.4216C26.9766 18.5896 26.2969 18.0662 27.3555 17.0388L30.7695 13.7068C31.8516 12.613 32.4844 12.6677 33.5039 13.7068L38.0937 18.3044L42.668 13.7302C43.5039 12.8826 44.0234 12.2029 45.0508 13.2615L48.375 16.6755C49.4687 17.7576 49.4141 18.3943 48.375 19.4099L43.793 23.9998L48.375 28.5974C49.4102 29.6052 49.4648 30.2419 48.375 31.3318L45.0391 34.7458C44.0117 35.8044 43.4766 35.1365 42.6562 34.281L38.0937 29.6873L33.4922 34.3005C32.4844 35.3318 31.8516 35.3865 30.7578 34.3005L27.3437 30.9685C26.2852 29.9412 26.9531 29.406 27.8086 28.5857L32.3984 23.9998L27.8203 19.4216Z" fill="white"/>
</g>
<defs>
<clipPath id="clip0_5402_30252">
<rect width="48" height="48" fill="white" transform="translate(14)"/>
</clipPath>
</defs>
</svg>
