<svg width="55" height="20" viewBox="0 0 55 20" fill="none" xmlns="http://www.w3.org/2000/svg">
<g clip-path="url(#clip0_5402_27189)">
<path d="M11.5636 6.11864H2.89526C2.65534 6.11864 2.46094 5.92424 2.46094 5.68432C2.46094 5.4444 2.65534 5.25 2.89526 5.25H11.5636C11.8035 5.25 11.9979 5.4444 11.9979 5.68432C11.9979 5.92424 11.8035 6.11864 11.5636 6.11864Z" fill="#F6976D"/>
<path d="M9.4944 8.06395H2.89526C2.65534 8.06395 2.46094 7.86955 2.46094 7.62963C2.46094 7.38971 2.65534 7.19531 2.89526 7.19531H9.4944C9.73426 7.19531 9.92872 7.38971 9.92872 7.62963C9.92872 7.86955 9.7342 8.06395 9.4944 8.06395Z" fill="#F6976D"/>
<path d="M5.07941 13.9038H2.89526C2.65534 13.9038 2.46094 13.7094 2.46094 13.4695C2.46094 13.2296 2.65534 13.0352 2.89526 13.0352H5.07941C5.31927 13.0352 5.51373 13.2296 5.51373 13.4695C5.51373 13.7093 5.31921 13.9038 5.07941 13.9038Z" fill="#F6976D"/>
<path d="M4.1326 15.853H2.89526C2.65534 15.853 2.46094 15.6586 2.46094 15.4187C2.46094 15.1788 2.65534 14.9844 2.89526 14.9844H4.1326C4.37246 14.9844 4.56692 15.1788 4.56692 15.4187C4.56692 15.6586 4.37246 15.853 4.1326 15.853Z" fill="#F6976D"/>
<path d="M19.3088 2.01419L18.3181 1.27545C18.0686 1.08944 17.7619 1.0115 17.4539 1.05661C17.1461 1.10149 16.8741 1.26352 16.6882 1.51293C16.6881 1.51305 16.688 1.51322 16.6879 1.51334L14.2319 4.84195V1.53627C14.2319 1.29635 14.0375 1.10195 13.7976 1.10195H11.9978V0.434318C11.9978 0.194401 11.8033 0 11.5635 0C11.3236 0 11.1292 0.194401 11.1292 0.434318V1.10195H9.83061V0.434318C9.83061 0.194401 9.63621 0 9.39629 0C9.15643 0 8.96197 0.194401 8.96197 0.434318V1.10195H7.66354V0.434318C7.66354 0.194401 7.46913 0 7.22922 0C6.9893 0 6.7949 0.194401 6.7949 0.434318V1.10195H5.49652V0.434318C5.49652 0.194401 5.30206 0 5.0622 0C4.82228 0 4.62788 0.194401 4.62788 0.434318V1.10195H3.32945V0.434318C3.32945 0.194401 3.13499 0 2.89513 0C2.65521 0 2.46081 0.194401 2.46081 0.434318V1.10195H0.660881C0.421021 1.10195 0.226562 1.29635 0.226562 1.53627V19.5657C0.226562 19.8056 0.421021 20 0.660881 20H13.7977C14.0376 20 14.232 19.8056 14.232 19.5657V10.8949L19.5461 3.64445C19.5462 3.64433 19.5463 3.64428 19.5464 3.64416C19.9302 3.12929 19.8237 2.39813 19.3088 2.01419ZM13.3633 19.1314H1.0952V1.97059H2.46081V2.63811C2.46081 2.87802 2.65521 3.07242 2.89513 3.07242C3.13499 3.07242 3.32945 2.87802 3.32945 2.63811V1.97059H4.62788V2.63811C4.62788 2.87802 4.82228 3.07242 5.0622 3.07242C5.30206 3.07242 5.49652 2.87802 5.49652 2.63811V1.97059H6.79496V2.63811C6.79496 2.87802 6.98936 3.07242 7.22928 3.07242C7.46919 3.07242 7.66359 2.87802 7.66359 2.63811V1.97059H8.96203V2.63811C8.96203 2.87802 9.15649 3.07242 9.39635 3.07242C9.63627 3.07242 9.83067 2.87802 9.83067 2.63811V1.97059H11.1292V2.63811C11.1292 2.87802 11.3236 3.07242 11.5635 3.07242C11.8034 3.07242 11.9979 2.87802 11.9979 2.63811V1.97059H13.3634V6.03384L11.0984 9.1417H2.89513C2.65521 9.1417 2.46081 9.3361 2.46081 9.57602C2.46081 9.81594 2.65521 10.0103 2.89513 10.0103H10.4653C10.4653 10.0103 7.99593 13.3988 7.99547 13.3995C7.99547 13.3995 7.99559 13.3995 7.9957 13.3995C7.96767 13.4384 7.94532 13.4824 7.93113 13.531L6.93799 16.9285H2.89513C2.65521 16.9285 2.46081 17.1229 2.46081 17.3628C2.46081 17.6027 2.65521 17.7971 2.89513 17.7971C2.89513 17.7971 7.26813 17.7968 7.27045 17.7968C7.27045 17.7967 7.27039 17.7967 7.27033 17.7967C7.34984 17.7954 7.42923 17.7728 7.49913 17.7276L10.7455 15.6296C10.7901 15.6008 10.8272 15.5648 10.8573 15.5246C10.8584 15.5232 13.3634 12.0867 13.3634 12.0867V19.1314H13.3633ZM8.58939 14.3748L9.74896 15.2395L8.00769 16.3648L8.58939 14.3748ZM10.4173 14.6543L8.9519 13.5616L15.8018 4.16268L17.2672 5.25536L10.4173 14.6543ZM17.7827 4.55617L16.3172 3.46348L16.7849 2.83633L18.2503 3.92913L17.7827 4.55617ZM18.8499 3.12489C18.8498 3.12501 18.8497 3.12518 18.8497 3.1253L18.7695 3.23272L17.3041 2.13991L17.3842 2.03255C17.3843 2.03243 17.3844 2.03232 17.3846 2.0322C17.4318 1.96879 17.501 1.92756 17.5792 1.91615C17.6575 1.9048 17.7354 1.92461 17.7987 1.9718L18.7895 2.71055C18.9204 2.80813 18.9475 2.99402 18.8499 3.12489Z" fill="#F6976D"/>
</g>
<path d="M21.176 15V6.6H22.34L27.476 13.476L27.284 13.584C27.252 13.384 27.224 13.168 27.2 12.936C27.176 12.696 27.152 12.444 27.128 12.18C27.112 11.908 27.096 11.624 27.08 11.328C27.072 11.024 27.064 10.708 27.056 10.38C27.048 10.052 27.044 9.712 27.044 9.36V6.6H28.34V15H27.152L22.1 8.376L22.232 8.208C22.272 8.696 22.304 9.112 22.328 9.456C22.36 9.792 22.384 10.08 22.4 10.32C22.424 10.552 22.44 10.744 22.448 10.896C22.456 11.04 22.46 11.16 22.46 11.256C22.468 11.352 22.472 11.436 22.472 11.508V15H21.176ZM33.2116 15.12C32.5956 15.12 32.0436 14.98 31.5556 14.7C31.0756 14.412 30.6956 14.024 30.4156 13.536C30.1356 13.04 29.9956 12.476 29.9956 11.844C29.9956 11.212 30.1356 10.652 30.4156 10.164C30.6956 9.668 31.0756 9.28 31.5556 9C32.0436 8.712 32.5956 8.568 33.2116 8.568C33.8196 8.568 34.3636 8.712 34.8436 9C35.3316 9.28 35.7156 9.668 35.9956 10.164C36.2756 10.652 36.4156 11.212 36.4156 11.844C36.4156 12.476 36.2756 13.04 35.9956 13.536C35.7156 14.024 35.3316 14.412 34.8436 14.7C34.3636 14.98 33.8196 15.12 33.2116 15.12ZM33.2116 13.992C33.5876 13.992 33.9236 13.9 34.2196 13.716C34.5156 13.524 34.7476 13.268 34.9156 12.948C35.0836 12.62 35.1636 12.252 35.1556 11.844C35.1636 11.428 35.0836 11.06 34.9156 10.74C34.7476 10.412 34.5156 10.156 34.2196 9.972C33.9236 9.788 33.5876 9.696 33.2116 9.696C32.8356 9.696 32.4956 9.792 32.1916 9.984C31.8956 10.168 31.6636 10.424 31.4956 10.752C31.3276 11.072 31.2476 11.436 31.2556 11.844C31.2476 12.252 31.3276 12.62 31.4956 12.948C31.6636 13.268 31.8956 13.524 32.1916 13.716C32.4956 13.9 32.8356 13.992 33.2116 13.992ZM38.5424 15V7.092H39.7784V15H38.5424ZM37.2344 9.9V8.7H41.2424V9.9H37.2344ZM45.2493 15.12C44.6013 15.12 44.0253 14.984 43.5213 14.712C43.0253 14.432 42.6333 14.052 42.3453 13.572C42.0653 13.092 41.9253 12.54 41.9253 11.916C41.9253 11.42 42.0053 10.968 42.1653 10.56C42.3253 10.152 42.5453 9.8 42.8253 9.504C43.1133 9.2 43.4533 8.968 43.8453 8.808C44.2453 8.64 44.6773 8.556 45.1413 8.556C45.5493 8.556 45.9293 8.636 46.2813 8.796C46.6333 8.948 46.9373 9.16 47.1933 9.432C47.4573 9.704 47.6573 10.028 47.7933 10.404C47.9373 10.772 48.0053 11.176 47.9973 11.616L47.9853 12.144H42.8373L42.5613 11.16H46.9173L46.7373 11.364V11.076C46.7133 10.812 46.6253 10.576 46.4733 10.368C46.3213 10.16 46.1293 9.996 45.8973 9.876C45.6653 9.756 45.4133 9.696 45.1413 9.696C44.7093 9.696 44.3453 9.78 44.0493 9.948C43.7533 10.108 43.5293 10.348 43.3773 10.668C43.2253 10.98 43.1493 11.368 43.1493 11.832C43.1493 12.272 43.2413 12.656 43.4253 12.984C43.6093 13.304 43.8693 13.552 44.2053 13.728C44.5413 13.904 44.9293 13.992 45.3693 13.992C45.6813 13.992 45.9693 13.94 46.2333 13.836C46.5053 13.732 46.7973 13.544 47.1093 13.272L47.7333 14.148C47.5413 14.34 47.3053 14.508 47.0253 14.652C46.7533 14.796 46.4613 14.912 46.1493 15C45.8453 15.08 45.5453 15.12 45.2493 15.12ZM51.4406 15.12C50.9126 15.12 50.4366 15.028 50.0126 14.844C49.5886 14.66 49.2366 14.388 48.9566 14.028L49.7966 13.308C50.0366 13.588 50.2966 13.792 50.5766 13.92C50.8646 14.04 51.1886 14.1 51.5486 14.1C51.6926 14.1 51.8246 14.084 51.9446 14.052C52.0726 14.012 52.1806 13.956 52.2686 13.884C52.3646 13.812 52.4366 13.728 52.4846 13.632C52.5326 13.528 52.5566 13.416 52.5566 13.296C52.5566 13.088 52.4806 12.92 52.3286 12.792C52.2486 12.736 52.1206 12.676 51.9446 12.612C51.7766 12.54 51.5566 12.468 51.2846 12.396C50.8206 12.276 50.4406 12.14 50.1446 11.988C49.8486 11.836 49.6206 11.664 49.4606 11.472C49.3406 11.32 49.2526 11.156 49.1966 10.98C49.1406 10.796 49.1126 10.596 49.1126 10.38C49.1126 10.116 49.1686 9.876 49.2806 9.66C49.4006 9.436 49.5606 9.244 49.7606 9.084C49.9686 8.916 50.2086 8.788 50.4806 8.7C50.7606 8.612 51.0566 8.568 51.3686 8.568C51.6646 8.568 51.9566 8.608 52.2446 8.688C52.5406 8.768 52.8126 8.884 53.0606 9.036C53.3086 9.188 53.5166 9.368 53.6846 9.576L52.9766 10.356C52.8246 10.204 52.6566 10.072 52.4726 9.96C52.2966 9.84 52.1166 9.748 51.9326 9.684C51.7486 9.62 51.5806 9.588 51.4286 9.588C51.2606 9.588 51.1086 9.604 50.9726 9.636C50.8366 9.668 50.7206 9.716 50.6246 9.78C50.5366 9.844 50.4686 9.924 50.4206 10.02C50.3726 10.116 50.3486 10.224 50.3486 10.344C50.3566 10.448 50.3806 10.548 50.4206 10.644C50.4686 10.732 50.5326 10.808 50.6126 10.872C50.7006 10.936 50.8326 11.004 51.0086 11.076C51.1846 11.148 51.4086 11.216 51.6806 11.28C52.0806 11.384 52.4086 11.5 52.6646 11.628C52.9286 11.748 53.1366 11.888 53.2886 12.048C53.4486 12.2 53.5606 12.376 53.6246 12.576C53.6886 12.776 53.7206 13 53.7206 13.248C53.7206 13.608 53.6166 13.932 53.4086 14.22C53.2086 14.5 52.9366 14.72 52.5926 14.88C52.2486 15.04 51.8646 15.12 51.4406 15.12Z" fill="#F6976D"/>
<defs>
<clipPath id="clip0_5402_27189">
<rect width="20" height="20" fill="white"/>
</clipPath>
</defs>
</svg>
