<svg width="20" height="20" viewBox="0 0 20 20" fill="none" xmlns="http://www.w3.org/2000/svg">
<g clip-path="url(#clip0_5402_30699)">
<path d="M14.6848 2.50543L15.574 2.3022C15.8577 2.23748 16.0351 1.95499 15.9702 1.6713C15.9055 1.38775 15.623 1.21014 15.3395 1.27512L13.1922 1.76564C12.9086 1.83049 12.7311 2.11298 12.796 2.39654L13.2865 4.54383C13.3423 4.78802 13.5594 4.95335 13.7996 4.95335C13.8384 4.95335 13.8779 4.94908 13.9174 4.94001C14.201 4.87529 14.3784 4.5928 14.3136 4.30911L14.1021 3.38318C16.4497 4.97724 17.7401 7.73968 17.4215 10.5973C17.194 12.6389 16.1851 14.4695 14.5805 15.7521C13.2039 16.8526 11.5305 17.4367 9.79348 17.4365C9.50592 17.4365 9.2165 17.4205 8.92653 17.3882C8.63711 17.3559 8.3769 17.5644 8.34461 17.8534C8.31232 18.1425 8.52061 18.403 8.80978 18.4353C9.13964 18.4721 9.46843 18.4903 9.79549 18.4903C11.7704 18.4902 13.6732 17.8262 15.2383 16.575C17.0625 15.1167 18.2098 13.0352 18.4686 10.714C18.8313 7.46106 17.3601 4.31659 14.6848 2.50543Z" fill="#263238"/>
<path d="M6.18009 14.8424C6.11537 14.5588 5.83288 14.3814 5.54919 14.4462C5.26564 14.5111 5.0883 14.7934 5.15302 15.0771L5.37586 16.0527C3.07845 14.4508 1.82066 11.7183 2.1357 8.89304C2.36322 6.85144 3.37215 5.02079 4.97674 3.73818C6.58121 2.45557 8.58919 1.87472 10.6307 2.1021C10.92 2.13479 11.1803 1.92609 11.2126 1.63693C11.2447 1.34777 11.0366 1.0873 10.7474 1.055C8.42613 0.796133 6.14313 1.45679 4.31876 2.91527C2.49452 4.37362 1.34735 6.45512 1.08861 8.77629C0.732066 11.9737 2.14745 15.0664 4.73669 16.8912L3.89256 17.084C3.609 17.1487 3.43153 17.4312 3.49638 17.7149C3.55215 17.959 3.76912 18.1245 4.00945 18.1245C4.04828 18.1245 4.08778 18.1202 4.12727 18.1111L6.27443 17.6206C6.55812 17.5557 6.73546 17.2732 6.67061 16.9897L6.18009 14.8424Z" fill="#263238"/>
<path d="M14.3769 6.17969H5.24299C4.95209 6.17969 4.71631 6.41547 4.71631 6.7065V12.7829C4.71631 13.0738 4.95209 13.3097 5.24299 13.3097H14.3769C14.6677 13.3097 14.9037 13.0738 14.9037 12.7829V6.7065C14.9037 6.41547 14.6679 6.17969 14.3769 6.17969ZM13.0156 7.23318L9.80992 10.1512L6.60433 7.23318H13.0156ZM5.76981 12.2561V7.89824L9.45537 11.253C9.55585 11.3444 9.68289 11.3902 9.80992 11.3902C9.93695 11.3902 10.064 11.3444 10.1645 11.253L13.85 7.89824V12.2561H5.76981Z" fill="#263238"/>
</g>
<defs>
<clipPath id="clip0_5402_30699">
<rect width="17.49" height="17.49" fill="white" transform="translate(1 1)"/>
</clipPath>
</defs>
</svg>
