<svg width="70" height="72" viewBox="0 0 70 72" fill="none" xmlns="http://www.w3.org/2000/svg">
<path d="M54.5014 59.7809L57.8887 56.582L41.6827 39.36L38.2954 42.5589L54.5014 59.7809Z" fill="#DBDBDB"/>
<path d="M64.3548 72.0009L69.4802 67.1595L56.4657 53.3262L51.3403 58.1676L64.3548 72.0009Z" fill="#C7C7C7"/>
<g opacity="0.1">
<path d="M42.6411 13.227C45.4583 17.2297 46.8027 22.0871 46.4452 26.9715C46.0877 31.8559 44.0505 36.465 40.6808 40.0133C37.311 43.5615 32.8173 45.8293 27.9654 46.4301C23.1136 47.0309 18.2039 45.9276 14.0731 43.3082C9.94229 40.6888 6.84607 36.7154 5.31212 32.0652C3.77816 27.415 3.9014 22.3758 5.66084 17.8064C7.42027 13.2371 10.707 9.42033 14.9609 7.00671C19.2148 4.59309 24.1725 3.73197 28.9892 4.57009C34.5046 5.53097 39.4142 8.64429 42.6411 13.227Z" fill="white"/>
</g>
<path d="M49.8929 18.7601C48.2508 12.7127 44.4379 7.48549 39.1856 4.08088C33.9333 0.676258 27.6112 -0.666073 21.4317 0.311303C15.2523 1.28868 9.65058 4.51696 5.70078 9.37704C1.75099 14.2371 -0.268806 20.3869 0.0287606 26.6469C0.326327 32.907 2.92031 38.8366 7.31322 43.2987C11.7061 47.7608 17.5888 50.4413 23.8329 50.826C30.0771 51.2107 36.2432 49.2726 41.1489 45.3834C46.0545 41.4942 49.3543 35.9277 50.4153 29.7514C51.0419 26.0932 50.8636 22.3421 49.8929 18.7601ZM13.2057 8.11427C17.1956 5.30605 22.0338 3.97027 26.8964 4.33443C31.7591 4.69859 36.3453 6.74017 39.8741 10.1115C43.4028 13.4828 45.6558 17.9753 46.2494 22.8238C46.843 27.6724 45.7404 32.5772 43.1294 36.7028C40.5184 40.8284 36.5606 43.9197 31.9299 45.4502C27.2992 46.9807 22.2822 46.8558 17.7331 45.0966C13.1841 43.3375 9.38446 40.053 6.98138 35.8025C4.57829 31.552 3.72037 26.5984 4.55372 21.7853C5.02401 19.0474 6.03064 16.4298 7.51557 14.0834C9.00051 11.737 10.9344 9.70834 13.2057 8.11427Z" fill="#EBEBEB"/>
<path d="M10.5674 34.6914C9.32425 32.7919 8.49303 30.6522 8.12752 28.4106C7.92779 27.2758 7.84029 26.124 7.86629 24.9719C7.89893 23.8074 8.04415 22.6488 8.29992 21.5123C8.84989 19.2345 9.86574 17.0958 11.2832 15.2316C12.6833 13.3901 14.4123 11.8249 16.3824 10.6152C14.8173 12.2149 13.417 13.9684 12.2027 15.8492C11.6259 16.7756 11.1245 17.747 10.7032 18.754C10.2737 19.7445 9.9379 20.7731 9.70013 21.8263C9.21357 23.9335 9.0567 26.1035 9.23513 28.2588C9.42179 30.4485 9.86905 32.608 10.5674 34.6914Z" fill="#EBEBEB"/>
</svg>
