<svg width="80" height="60" viewBox="0 0 109 86" fill="none" xmlns="http://www.w3.org/2000/svg">
<path d="M12.5879 67.7812V82H10.6934L3.53516 71.0332V82H1.65039V67.7812H3.53516L10.7227 78.7773V67.7812H12.5879ZM15.1758 76.834V76.6094C15.1758 75.8477 15.2865 75.1413 15.5078 74.4902C15.7292 73.8327 16.0482 73.263 16.4648 72.7812C16.8815 72.293 17.3861 71.9154 17.9785 71.6484C18.571 71.375 19.235 71.2383 19.9707 71.2383C20.7129 71.2383 21.3802 71.375 21.9727 71.6484C22.5716 71.9154 23.0794 72.293 23.4961 72.7812C23.9193 73.263 24.2415 73.8327 24.4629 74.4902C24.6842 75.1413 24.7949 75.8477 24.7949 76.6094V76.834C24.7949 77.5957 24.6842 78.3021 24.4629 78.9531C24.2415 79.6042 23.9193 80.1738 23.4961 80.6621C23.0794 81.1439 22.5749 81.5215 21.9824 81.7949C21.3965 82.0618 20.7324 82.1953 19.9902 82.1953C19.248 82.1953 18.5807 82.0618 17.9883 81.7949C17.3958 81.5215 16.888 81.1439 16.4648 80.6621C16.0482 80.1738 15.7292 79.6042 15.5078 78.9531C15.2865 78.3021 15.1758 77.5957 15.1758 76.834ZM16.9824 76.6094V76.834C16.9824 77.3613 17.0443 77.8594 17.168 78.3281C17.2917 78.7904 17.4772 79.2005 17.7246 79.5586C17.9785 79.9167 18.2943 80.1999 18.6719 80.4082C19.0495 80.61 19.4889 80.7109 19.9902 80.7109C20.485 80.7109 20.918 80.61 21.2891 80.4082C21.6667 80.1999 21.9792 79.9167 22.2266 79.5586C22.474 79.2005 22.6595 78.7904 22.7832 78.3281C22.9134 77.8594 22.9785 77.3613 22.9785 76.834V76.6094C22.9785 76.0885 22.9134 75.597 22.7832 75.1348C22.6595 74.666 22.4707 74.2526 22.2168 73.8945C21.9694 73.5299 21.6569 73.2435 21.2793 73.0352C20.9082 72.8268 20.472 72.7227 19.9707 72.7227C19.4759 72.7227 19.0397 72.8268 18.6621 73.0352C18.291 73.2435 17.9785 73.5299 17.7246 73.8945C17.4772 74.2526 17.2917 74.666 17.168 75.1348C17.0443 75.597 16.9824 76.0885 16.9824 76.6094ZM31.4844 71.4336V72.8203H25.7715V71.4336H31.4844ZM27.7051 68.8652H29.5117V79.3828C29.5117 79.7409 29.5671 80.0111 29.6777 80.1934C29.7884 80.3757 29.9316 80.4961 30.1074 80.5547C30.2832 80.6133 30.472 80.6426 30.6738 80.6426C30.8236 80.6426 30.9798 80.6296 31.1426 80.6035C31.3118 80.571 31.4388 80.5449 31.5234 80.5254L31.5332 82C31.39 82.0456 31.2012 82.0879 30.9668 82.127C30.7389 82.1725 30.4622 82.1953 30.1367 82.1953C29.694 82.1953 29.2871 82.1074 28.916 81.9316C28.5449 81.7559 28.2487 81.4629 28.0273 81.0527C27.8125 80.6361 27.7051 80.0762 27.7051 79.373V68.8652ZM42.9492 82.1953C42.2135 82.1953 41.5462 82.0716 40.9473 81.8242C40.3548 81.5703 39.8438 81.2155 39.4141 80.7598C38.9909 80.304 38.6654 79.7637 38.4375 79.1387C38.2096 78.5137 38.0957 77.8301 38.0957 77.0879V76.6777C38.0957 75.8184 38.2227 75.0534 38.4766 74.3828C38.7305 73.7057 39.0755 73.1328 39.5117 72.6641C39.9479 72.1953 40.4427 71.8405 40.9961 71.5996C41.5495 71.3587 42.1224 71.2383 42.7148 71.2383C43.4701 71.2383 44.1211 71.3685 44.668 71.6289C45.2214 71.8893 45.6738 72.2539 46.0254 72.7227C46.377 73.1849 46.6374 73.7318 46.8066 74.3633C46.9759 74.9883 47.0605 75.6719 47.0605 76.4141V77.2246H39.1699V75.75H45.2539V75.6133C45.2279 75.1445 45.1302 74.6888 44.9609 74.2461C44.7982 73.8034 44.5378 73.4388 44.1797 73.1523C43.8216 72.8659 43.3333 72.7227 42.7148 72.7227C42.3047 72.7227 41.9271 72.8105 41.582 72.9863C41.237 73.1556 40.9408 73.4095 40.6934 73.748C40.446 74.0866 40.2539 74.5 40.1172 74.9883C39.9805 75.4766 39.9121 76.0397 39.9121 76.6777V77.0879C39.9121 77.5892 39.9805 78.0612 40.1172 78.5039C40.2604 78.9401 40.4655 79.3242 40.7324 79.6562C41.0059 79.9883 41.3346 80.2487 41.7188 80.4375C42.1094 80.6263 42.5521 80.7207 43.0469 80.7207C43.6849 80.7207 44.2253 80.5905 44.668 80.3301C45.1107 80.0697 45.498 79.7214 45.8301 79.2852L46.9238 80.1543C46.696 80.4993 46.4062 80.8281 46.0547 81.1406C45.7031 81.4531 45.2702 81.707 44.7559 81.9023C44.248 82.0977 43.6458 82.1953 42.9492 82.1953ZM50.9766 73.6895V82H49.1699V71.4336H50.8789L50.9766 73.6895ZM50.5469 76.3164L49.7949 76.2871C49.8014 75.5645 49.9089 74.8971 50.1172 74.2852C50.3255 73.6667 50.6185 73.1296 50.9961 72.6738C51.3737 72.2181 51.8229 71.8665 52.3438 71.6191C52.8711 71.3652 53.4538 71.2383 54.0918 71.2383C54.6126 71.2383 55.0814 71.3099 55.498 71.4531C55.9147 71.5898 56.2695 71.8112 56.5625 72.1172C56.862 72.4232 57.0898 72.8203 57.2461 73.3086C57.4023 73.7904 57.4805 74.3796 57.4805 75.0762V82H55.6641V75.0566C55.6641 74.5033 55.5827 74.0605 55.4199 73.7285C55.2572 73.39 55.0195 73.1458 54.707 72.9961C54.3945 72.8398 54.0104 72.7617 53.5547 72.7617C53.1055 72.7617 52.6953 72.8561 52.3242 73.0449C51.9596 73.2337 51.6439 73.4941 51.377 73.8262C51.1165 74.1582 50.9115 74.5391 50.7617 74.9688C50.6185 75.3919 50.5469 75.8411 50.5469 76.3164ZM62.0312 73.0938V82H60.2246V71.4336H61.9824L62.0312 73.0938ZM65.332 71.375L65.3223 73.0547C65.1725 73.0221 65.0293 73.0026 64.8926 72.9961C64.7624 72.9831 64.6126 72.9766 64.4434 72.9766C64.0267 72.9766 63.6589 73.0417 63.3398 73.1719C63.0208 73.3021 62.7507 73.4844 62.5293 73.7188C62.3079 73.9531 62.1322 74.2331 62.002 74.5586C61.8783 74.8776 61.7969 75.2292 61.7578 75.6133L61.25 75.9062C61.25 75.2682 61.3118 74.6693 61.4355 74.1094C61.5658 73.5495 61.7643 73.0547 62.0312 72.625C62.2982 72.1888 62.6367 71.8503 63.0469 71.6094C63.4635 71.362 63.9583 71.2383 64.5312 71.2383C64.6615 71.2383 64.8112 71.2546 64.9805 71.2871C65.1497 71.3132 65.2669 71.3424 65.332 71.375ZM66.3281 76.834V76.6094C66.3281 75.8477 66.4388 75.1413 66.6602 74.4902C66.8815 73.8327 67.2005 73.263 67.6172 72.7812C68.0339 72.293 68.5384 71.9154 69.1309 71.6484C69.7233 71.375 70.3874 71.2383 71.123 71.2383C71.8652 71.2383 72.5326 71.375 73.125 71.6484C73.724 71.9154 74.2318 72.293 74.6484 72.7812C75.0716 73.263 75.3939 73.8327 75.6152 74.4902C75.8366 75.1413 75.9473 75.8477 75.9473 76.6094V76.834C75.9473 77.5957 75.8366 78.3021 75.6152 78.9531C75.3939 79.6042 75.0716 80.1738 74.6484 80.6621C74.2318 81.1439 73.7272 81.5215 73.1348 81.7949C72.5488 82.0618 71.8848 82.1953 71.1426 82.1953C70.4004 82.1953 69.7331 82.0618 69.1406 81.7949C68.5482 81.5215 68.0404 81.1439 67.6172 80.6621C67.2005 80.1738 66.8815 79.6042 66.6602 78.9531C66.4388 78.3021 66.3281 77.5957 66.3281 76.834ZM68.1348 76.6094V76.834C68.1348 77.3613 68.1966 77.8594 68.3203 78.3281C68.444 78.7904 68.6296 79.2005 68.877 79.5586C69.1309 79.9167 69.4466 80.1999 69.8242 80.4082C70.2018 80.61 70.6413 80.7109 71.1426 80.7109C71.6374 80.7109 72.0703 80.61 72.4414 80.4082C72.819 80.1999 73.1315 79.9167 73.3789 79.5586C73.6263 79.2005 73.8118 78.7904 73.9355 78.3281C74.0658 77.8594 74.1309 77.3613 74.1309 76.834V76.6094C74.1309 76.0885 74.0658 75.597 73.9355 75.1348C73.8118 74.666 73.623 74.2526 73.3691 73.8945C73.1217 73.5299 72.8092 73.2435 72.4316 73.0352C72.0605 72.8268 71.6243 72.7227 71.123 72.7227C70.6283 72.7227 70.1921 72.8268 69.8145 73.0352C69.4434 73.2435 69.1309 73.5299 68.877 73.8945C68.6296 74.2526 68.444 74.666 68.3203 75.1348C68.1966 75.597 68.1348 76.0885 68.1348 76.6094ZM80.1758 67V82H78.3594V67H80.1758ZM85.0391 67V82H83.2227V67H85.0391ZM92.3242 82.1953C91.5885 82.1953 90.9212 82.0716 90.3223 81.8242C89.7298 81.5703 89.2188 81.2155 88.7891 80.7598C88.3659 80.304 88.0404 79.7637 87.8125 79.1387C87.5846 78.5137 87.4707 77.8301 87.4707 77.0879V76.6777C87.4707 75.8184 87.5977 75.0534 87.8516 74.3828C88.1055 73.7057 88.4505 73.1328 88.8867 72.6641C89.3229 72.1953 89.8177 71.8405 90.3711 71.5996C90.9245 71.3587 91.4974 71.2383 92.0898 71.2383C92.8451 71.2383 93.4961 71.3685 94.043 71.6289C94.5964 71.8893 95.0488 72.2539 95.4004 72.7227C95.752 73.1849 96.0124 73.7318 96.1816 74.3633C96.3509 74.9883 96.4355 75.6719 96.4355 76.4141V77.2246H88.5449V75.75H94.6289V75.6133C94.6029 75.1445 94.5052 74.6888 94.3359 74.2461C94.1732 73.8034 93.9128 73.4388 93.5547 73.1523C93.1966 72.8659 92.7083 72.7227 92.0898 72.7227C91.6797 72.7227 91.3021 72.8105 90.957 72.9863C90.612 73.1556 90.3158 73.4095 90.0684 73.748C89.821 74.0866 89.6289 74.5 89.4922 74.9883C89.3555 75.4766 89.2871 76.0397 89.2871 76.6777V77.0879C89.2871 77.5892 89.3555 78.0612 89.4922 78.5039C89.6354 78.9401 89.8405 79.3242 90.1074 79.6562C90.3809 79.9883 90.7096 80.2487 91.0938 80.4375C91.4844 80.6263 91.9271 80.7207 92.4219 80.7207C93.0599 80.7207 93.6003 80.5905 94.043 80.3301C94.4857 80.0697 94.873 79.7214 95.2051 79.2852L96.2988 80.1543C96.071 80.4993 95.7812 80.8281 95.4297 81.1406C95.0781 81.4531 94.6452 81.707 94.1309 81.9023C93.623 82.0977 93.0208 82.1953 92.3242 82.1953ZM105.205 79.9492V67H107.021V82H105.361L105.205 79.9492ZM98.0957 76.834V76.6289C98.0957 75.8216 98.1934 75.0892 98.3887 74.4316C98.5905 73.7676 98.8737 73.1979 99.2383 72.7227C99.6094 72.2474 100.049 71.8828 100.557 71.6289C101.071 71.3685 101.644 71.2383 102.275 71.2383C102.939 71.2383 103.519 71.3555 104.014 71.5898C104.515 71.8177 104.938 72.153 105.283 72.5957C105.635 73.0319 105.911 73.5592 106.113 74.1777C106.315 74.7962 106.455 75.4961 106.533 76.2773V77.1758C106.462 77.9505 106.322 78.6471 106.113 79.2656C105.911 79.8841 105.635 80.4115 105.283 80.8477C104.938 81.2839 104.515 81.6191 104.014 81.8535C103.512 82.0814 102.926 82.1953 102.256 82.1953C101.637 82.1953 101.071 82.0618 100.557 81.7949C100.049 81.528 99.6094 81.1536 99.2383 80.6719C98.8737 80.1901 98.5905 79.6237 98.3887 78.9727C98.1934 78.3151 98.0957 77.6022 98.0957 76.834ZM99.9121 76.6289V76.834C99.9121 77.3613 99.9642 77.8561 100.068 78.3184C100.179 78.7806 100.348 79.1875 100.576 79.5391C100.804 79.8906 101.094 80.1673 101.445 80.3691C101.797 80.5645 102.217 80.6621 102.705 80.6621C103.304 80.6621 103.796 80.5352 104.18 80.2812C104.57 80.0273 104.883 79.6921 105.117 79.2754C105.352 78.8587 105.534 78.4062 105.664 77.918V75.5645C105.586 75.2064 105.472 74.8613 105.322 74.5293C105.179 74.1908 104.99 73.8913 104.756 73.6309C104.528 73.3639 104.245 73.1523 103.906 72.9961C103.574 72.8398 103.18 72.7617 102.725 72.7617C102.23 72.7617 101.803 72.8659 101.445 73.0742C101.094 73.276 100.804 73.556 100.576 73.9141C100.348 74.2656 100.179 74.6758 100.068 75.1445C99.9642 75.6068 99.9121 76.1016 99.9121 76.6289Z" fill="#5E647B"/>
<g clip-path="url(#clip0_5402_29838)">
<path fill-rule="evenodd" clip-rule="evenodd" d="M54 0C58.7468 0 63.3869 1.40758 67.3337 4.04473C71.2805 6.68188 74.3566 10.4302 76.1731 14.8156C77.9896 19.201 78.4649 24.0266 77.5388 28.6822C76.6128 33.3377 74.327 37.6141 70.9706 40.9706C67.6141 44.327 63.3377 46.6128 58.6822 47.5388C54.0266 48.4649 49.201 47.9896 44.8156 46.1731C40.4302 44.3566 36.6819 41.2805 34.0447 37.3337C31.4076 33.3869 30 28.7468 30 24C30 17.6348 32.5286 11.5303 37.0294 7.02944C41.5303 2.52856 47.6348 0 54 0Z" fill="#D9D9D9"/>
<path fill-rule="evenodd" clip-rule="evenodd" d="M43.8203 19.4216C42.9766 18.5896 42.2969 18.0662 43.3555 17.0388L46.7695 13.7068C47.8516 12.613 48.4844 12.6677 49.5039 13.7068L54.0937 18.3044L58.668 13.7302C59.5039 12.8826 60.0234 12.2029 61.0508 13.2615L64.375 16.6755C65.4687 17.7576 65.4141 18.3943 64.375 19.4099L59.793 23.9998L64.375 28.5974C65.4102 29.6052 65.4648 30.2419 64.375 31.3318L61.0391 34.7458C60.0117 35.8044 59.4766 35.1365 58.6562 34.281L54.0937 29.6873L49.4922 34.3005C48.4844 35.3318 47.8516 35.3865 46.7578 34.3005L43.3437 30.9685C42.2852 29.9412 42.9531 29.406 43.8086 28.5857L48.3984 23.9998L43.8203 19.4216Z" fill="white"/>
</g>
<defs>
<clipPath id="clip0_5402_29838">
<rect width="48" height="48" fill="white" transform="translate(30)"/>
</clipPath>
</defs>
</svg>
