<svg xmlns="http://www.w3.org/2000/svg" width="56" height="24" viewBox="0 0 56 24" fill="none">
    <path d="M34.3438 7.71875L28.9375 18H27.3672L33.5547 6.625H34.5625L34.3438 7.71875ZM35.6406 18L33.7578 7.54688L33.9062 6.625H34.8438L37.0859 18H35.6406ZM36.1641 13.7891L35.9453 15.0234H29.7344L29.9531 13.7891H36.1641ZM43.8438 16.2734L45.625 6H47.0469L44.9609 18H43.6719L43.8438 16.2734ZM38.75 13.9297L38.7656 13.7656C38.8333 13.2448 38.9583 12.724 39.1406 12.2031C39.3281 11.6823 39.5807 11.2057 39.8984 10.7734C40.2161 10.3411 40.6016 9.9974 41.0547 9.74219C41.5078 9.48698 42.0365 9.36719 42.6406 9.38281C43.1823 9.39844 43.6354 9.52604 44 9.76562C44.3646 10.0052 44.651 10.3229 44.8594 10.7188C45.0729 11.1094 45.2161 11.5391 45.2891 12.0078C45.3672 12.4766 45.3906 12.9479 45.3594 13.4219L45.2734 14.1406C45.1849 14.6458 45.0391 15.1406 44.8359 15.625C44.6328 16.1094 44.3698 16.5469 44.0469 16.9375C43.7292 17.3229 43.3464 17.6276 42.8984 17.8516C42.4557 18.0755 41.9479 18.1797 41.375 18.1641C40.8229 18.1432 40.3646 18 40 17.7344C39.6406 17.4688 39.3594 17.1276 39.1562 16.7109C38.9583 16.2891 38.8281 15.8359 38.7656 15.3516C38.7083 14.862 38.7031 14.388 38.75 13.9297ZM40.2031 13.75L40.1875 13.9141C40.151 14.2266 40.138 14.5573 40.1484 14.9062C40.1641 15.25 40.224 15.5755 40.3281 15.8828C40.4323 16.1849 40.6016 16.4349 40.8359 16.6328C41.0703 16.8255 41.388 16.9297 41.7891 16.9453C42.2161 16.9557 42.612 16.8594 42.9766 16.6562C43.3411 16.4531 43.6536 16.1823 43.9141 15.8438C44.1745 15.5052 44.362 15.138 44.4766 14.7422L44.7812 12.8438C44.7969 12.5573 44.763 12.2839 44.6797 12.0234C44.5964 11.7578 44.4714 11.5208 44.3047 11.3125C44.1432 11.1042 43.9427 10.9375 43.7031 10.8125C43.4688 10.6823 43.2057 10.6146 42.9141 10.6094C42.4766 10.5938 42.099 10.6797 41.7812 10.8672C41.4635 11.0495 41.1953 11.2969 40.9766 11.6094C40.763 11.9167 40.5938 12.2578 40.4688 12.6328C40.3438 13.0078 40.2552 13.3802 40.2031 13.75ZM52.5938 16.2734L54.375 6H55.7969L53.7109 18H52.4219L52.5938 16.2734ZM47.5 13.9297L47.5156 13.7656C47.5833 13.2448 47.7083 12.724 47.8906 12.2031C48.0781 11.6823 48.3307 11.2057 48.6484 10.7734C48.9661 10.3411 49.3516 9.9974 49.8047 9.74219C50.2578 9.48698 50.7865 9.36719 51.3906 9.38281C51.9323 9.39844 52.3854 9.52604 52.75 9.76562C53.1146 10.0052 53.401 10.3229 53.6094 10.7188C53.8229 11.1094 53.9661 11.5391 54.0391 12.0078C54.1172 12.4766 54.1406 12.9479 54.1094 13.4219L54.0234 14.1406C53.9349 14.6458 53.7891 15.1406 53.5859 15.625C53.3828 16.1094 53.1198 16.5469 52.7969 16.9375C52.4792 17.3229 52.0964 17.6276 51.6484 17.8516C51.2057 18.0755 50.6979 18.1797 50.125 18.1641C49.5729 18.1432 49.1146 18 48.75 17.7344C48.3906 17.4688 48.1094 17.1276 47.9062 16.7109C47.7083 16.2891 47.5781 15.8359 47.5156 15.3516C47.4583 14.862 47.4531 14.388 47.5 13.9297ZM48.9531 13.75L48.9375 13.9141C48.901 14.2266 48.888 14.5573 48.8984 14.9062C48.9141 15.25 48.974 15.5755 49.0781 15.8828C49.1823 16.1849 49.3516 16.4349 49.5859 16.6328C49.8203 16.8255 50.138 16.9297 50.5391 16.9453C50.9661 16.9557 51.362 16.8594 51.7266 16.6562C52.0911 16.4531 52.4036 16.1823 52.6641 15.8438C52.9245 15.5052 53.112 15.138 53.2266 14.7422L53.5312 12.8438C53.5469 12.5573 53.513 12.2839 53.4297 12.0234C53.3464 11.7578 53.2214 11.5208 53.0547 11.3125C52.8932 11.1042 52.6927 10.9375 52.4531 10.8125C52.2188 10.6823 51.9557 10.6146 51.6641 10.6094C51.2266 10.5938 50.849 10.6797 50.5312 10.8672C50.2135 11.0495 49.9453 11.2969 49.7266 11.6094C49.513 11.9167 49.3438 12.2578 49.2188 12.6328C49.0938 13.0078 49.0052 13.3802 48.9531 13.75Z" fill="#2A5578"/>
    <path d="M12 1.5C6.20156 1.5 1.5 6.20156 1.5 12C1.5 17.7984 6.20156 22.5 12 22.5C17.7984 22.5 22.5 17.7984 22.5 12C22.5 6.20156 17.7984 1.5 12 1.5ZM16.5 12.5625C16.5 12.6656 16.4156 12.75 16.3125 12.75H12.75V16.3125C12.75 16.4156 12.6656 16.5 12.5625 16.5H11.4375C11.3344 16.5 11.25 16.4156 11.25 16.3125V12.75H7.6875C7.58437 12.75 7.5 12.6656 7.5 12.5625V11.4375C7.5 11.3344 7.58437 11.25 7.6875 11.25H11.25V7.6875C11.25 7.58437 11.3344 7.5 11.4375 7.5H12.5625C12.6656 7.5 12.75 7.58437 12.75 7.6875V11.25H16.3125C16.4156 11.25 16.5 11.3344 16.5 11.4375V12.5625Z" fill="#2A5578"/>
</svg>
