<svg width="328" height="328" viewBox="0 0 328 328" fill="none" xmlns="http://www.w3.org/2000/svg">
<path d="M66.6037 283.642C120.691 311.909 208.392 311.909 262.479 283.642C316.566 255.374 316.566 209.514 262.479 181.266C208.392 153.019 120.691 152.993 66.6037 181.266C12.5165 209.54 12.5165 255.368 66.6037 283.642Z" fill="#F5F5F5"/>
<path d="M161.284 253.8L163.777 255.236C164.217 255.459 164.704 255.576 165.197 255.576C165.691 255.576 166.177 255.459 166.617 255.236L233.057 216.873C233.228 216.815 233.377 216.705 233.483 216.558C233.588 216.411 233.645 216.234 233.645 216.053C233.645 215.873 233.588 215.696 233.483 215.549C233.377 215.402 233.228 215.292 233.057 215.233L230.571 213.797C230.131 213.574 229.644 213.458 229.151 213.458C228.657 213.458 228.171 213.574 227.73 213.797L161.284 252.16C161.113 252.218 160.964 252.328 160.859 252.475C160.753 252.622 160.696 252.799 160.696 252.98C160.696 253.161 160.753 253.337 160.859 253.484C160.964 253.631 161.113 253.742 161.284 253.8Z" fill="#E0E0E0"/>
<path d="M269.537 248.401C261.311 252.802 247.968 252.802 239.742 248.401C231.516 243.999 231.516 236.868 239.742 232.466C247.968 228.065 261.311 228.065 269.537 232.466C277.764 236.868 277.764 244.032 269.537 248.401Z" fill="#E0E0E0"/>
<path d="M264.44 222.056C264.44 222.056 265.201 215.385 268.52 210.209C271.84 205.033 276.392 201.805 280.643 201.471C284.894 201.136 288.332 205.046 283.786 207.729C279.24 210.412 271.151 213.161 267.432 223.211L264.44 222.056Z" fill="#F3C262"/>
<path opacity="0.1" d="M264.44 222.056C264.44 222.056 265.201 215.385 268.52 210.209C271.84 205.033 276.392 201.805 280.643 201.471C284.894 201.136 288.332 205.046 283.786 207.729C279.24 210.412 271.151 213.161 267.432 223.211L264.44 222.056Z" fill="#111B23"/>
<path d="M265.68 220.324H265.634C265.606 220.314 265.581 220.297 265.559 220.276C265.538 220.256 265.521 220.231 265.509 220.203C265.498 220.176 265.492 220.146 265.492 220.116C265.492 220.086 265.498 220.057 265.509 220.029C269.996 208.976 278.538 204.357 282.428 203.465C282.457 203.458 282.486 203.457 282.516 203.462C282.545 203.466 282.573 203.477 282.598 203.492C282.624 203.508 282.646 203.528 282.663 203.552C282.681 203.576 282.693 203.604 282.7 203.632C282.707 203.661 282.708 203.691 282.703 203.721C282.699 203.75 282.688 203.778 282.673 203.803C282.657 203.828 282.637 203.85 282.613 203.868C282.589 203.885 282.561 203.898 282.533 203.905C278.721 204.784 270.344 209.317 265.929 220.2C265.907 220.245 265.871 220.282 265.826 220.304C265.781 220.327 265.729 220.334 265.68 220.324Z" fill="white"/>
<path d="M288.41 220.455C288.023 221.321 287.098 221.767 286.193 222.128C285.288 222.489 284.356 222.863 283.877 223.689C282.92 225.342 284.494 227.678 283.464 229.292C283.223 229.614 282.919 229.884 282.57 230.085C282.222 230.287 281.837 230.417 281.437 230.466C280.781 230.59 280.125 230.584 279.469 230.643C279.153 230.636 278.838 230.612 278.524 230.571C277.603 230.365 276.64 230.466 275.782 230.859C274.47 231.601 274.057 233.267 273.257 234.546C272.763 235.305 272.11 235.947 271.343 236.429C270.576 236.91 269.714 237.219 268.816 237.334C268.051 237.49 267.258 237.438 266.52 237.183L266.395 237.105C266.311 237.017 266.233 236.925 266.159 236.829V236.79C265.923 235.93 266.303 235.032 266.323 234.166C266.326 234.113 266.326 234.061 266.323 234.008C266.29 232.972 266.257 231.948 266.238 230.918C266.185 229.023 266.165 227.12 266.179 225.224C266.179 223.998 266.041 222.646 266.566 221.485C267.143 220.213 268.58 220.173 269.117 218.933C269.334 218.428 269.452 217.897 269.662 217.392C269.988 216.652 270.511 216.015 271.173 215.553C271.836 215.09 272.614 214.818 273.421 214.768C275.927 214.643 278.17 216.67 280.676 216.486C281.32 216.396 281.96 216.274 282.592 216.119C284.619 215.739 286.967 216.316 288.109 218.035C288.351 218.383 288.505 218.786 288.558 219.208C288.61 219.629 288.56 220.057 288.41 220.455Z" fill="#F3C262"/>
<path d="M265.896 232.827C265.869 232.821 265.843 232.808 265.821 232.791C265.798 232.774 265.779 232.753 265.765 232.728C265.751 232.704 265.742 232.677 265.739 232.649C265.735 232.621 265.738 232.592 265.746 232.565C269.203 219.576 282.887 217.7 286.082 217.93C286.11 217.931 286.137 217.939 286.163 217.951C286.188 217.964 286.21 217.981 286.229 218.003C286.247 218.024 286.261 218.049 286.27 218.076C286.278 218.103 286.281 218.131 286.278 218.159C286.278 218.187 286.271 218.215 286.259 218.24C286.248 218.265 286.231 218.288 286.21 218.306C286.189 218.325 286.164 218.339 286.138 218.347C286.111 218.356 286.083 218.359 286.055 218.356C282.92 218.133 269.537 219.97 266.152 232.677C266.137 232.73 266.102 232.775 266.054 232.803C266.007 232.831 265.95 232.84 265.896 232.827Z" fill="white"/>
<path d="M281.103 226.248C281.06 226.24 281.021 226.22 280.991 226.189C279.726 225.094 278.236 224.292 276.626 223.838C275.016 223.385 273.326 223.292 271.676 223.565C271.648 223.57 271.62 223.569 271.593 223.562C271.565 223.556 271.54 223.544 271.517 223.528C271.495 223.511 271.475 223.49 271.461 223.466C271.447 223.442 271.437 223.416 271.433 223.388C271.426 223.332 271.441 223.274 271.475 223.229C271.509 223.183 271.56 223.153 271.617 223.145C273.332 222.862 275.089 222.961 276.761 223.435C278.434 223.909 279.981 224.746 281.293 225.887C281.323 225.92 281.342 225.962 281.348 226.006C281.354 226.05 281.346 226.095 281.325 226.135C281.304 226.174 281.272 226.207 281.232 226.227C281.192 226.247 281.147 226.255 281.103 226.248Z" fill="white"/>
<path d="M174.706 160.32V166.88L61.5 232.224L58.0166 234.192C57.2258 233.655 56.5726 232.939 56.1099 232.103C55.6472 231.266 55.388 230.333 55.3533 229.377V119.333C55.3609 119.137 55.4173 118.945 55.5173 118.776C55.6158 118.602 55.7554 118.456 55.924 118.349L81.7245 103.451C82.0394 103.274 83.8762 104.042 84.1779 104.225L84.3747 104.337C84.5453 104.446 84.698 104.581 84.8274 104.737C84.9718 104.895 85.0834 105.08 85.1553 105.282L87.4907 112.025L171.459 61.9988C171.631 61.9188 171.819 61.8774 172.01 61.8774C172.2 61.8774 172.388 61.9188 172.561 61.9988L174.122 62.904C174.288 63.0083 174.426 63.1527 174.522 63.3239C174.625 63.4944 174.682 63.6889 174.686 63.888V160.32H174.706Z" fill="#263238"/>
<path d="M174.706 166.854L58.0166 234.192V120.212L84.8274 104.737C84.9718 104.895 85.0834 105.08 85.1554 105.282L87.4907 112.025L87.9368 113.305L174.529 63.3042C174.632 63.4747 174.688 63.6692 174.693 63.8684L174.706 166.854Z" fill="#37474F"/>
<path d="M84.8274 104.737L58.0166 120.212L55.5173 118.776C55.6158 118.602 55.7554 118.456 55.924 118.349L81.7245 103.452C81.898 103.362 82.0903 103.316 82.2854 103.316C82.4804 103.316 82.6727 103.362 82.8462 103.452L84.3747 104.331C84.5458 104.442 84.6985 104.579 84.8274 104.737Z" fill="#455A64"/>
<path d="M174.535 63.3042L87.9434 113.305L87.4973 112.025L171.465 61.9988C171.638 61.9188 171.826 61.8774 172.016 61.8774C172.207 61.8774 172.395 61.9188 172.567 61.9988L174.129 62.904C174.295 63.002 174.435 63.1394 174.535 63.3042Z" fill="#455A64"/>
<path d="M93.867 187.859C93.5069 187.616 93.2092 187.292 92.9983 186.912C92.7874 186.533 92.6693 186.108 92.6534 185.674V77.2639C92.6794 76.8147 92.8119 76.3781 93.04 75.9902C93.2682 75.6024 93.5854 75.2744 93.9654 75.0335L158.004 38.1007C158.377 37.8667 158.806 37.7386 159.246 37.7304C159.686 37.7222 160.12 37.834 160.501 38.054C160.882 38.2739 161.196 38.5936 161.41 38.9786C161.623 39.3637 161.727 39.7995 161.711 40.2393V148.65C161.684 149.099 161.551 149.535 161.323 149.923C161.095 150.31 160.778 150.639 160.399 150.88L96.3664 187.813C95.9829 188.017 95.5566 188.128 95.1222 188.136C94.6879 188.144 94.2578 188.049 93.867 187.859Z" fill="#FAFAFA"/>
<path d="M96.3664 187.813L160.405 150.88C160.784 150.639 161.101 150.31 161.329 149.923C161.557 149.535 161.69 149.099 161.717 148.65V40.2393C161.717 39.4193 161.14 39.0847 160.405 39.4914L96.3598 76.4308C95.9805 76.6725 95.6638 77.0006 95.4358 77.3883C95.2077 77.776 95.0748 78.2122 95.0478 78.6612V187.072C95.0741 187.892 95.6514 188.226 96.3664 187.813Z" fill="#F0F0F0"/>
<path d="M103.379 80.7342L151.739 52.8148C152.363 52.454 152.874 52.7427 152.874 53.4708V53.9235C152.852 54.3173 152.738 54.7005 152.541 55.0423C152.343 55.384 152.069 55.6749 151.739 55.8915L103.379 83.8108C102.723 84.1716 102.244 83.8764 102.244 83.1548V82.7022C102.265 82.3081 102.379 81.9245 102.576 81.5826C102.774 81.2407 103.049 80.95 103.379 80.7342Z" fill="#E0E0E0"/>
<path d="M103.379 88.4161L151.739 60.4968C152.363 60.136 152.874 60.4312 152.874 61.1528V61.6054C152.853 61.9995 152.739 62.3831 152.542 62.725C152.345 63.0669 152.07 63.3576 151.739 63.5734L103.379 91.4928C102.723 91.8536 102.244 91.5584 102.244 90.8368V90.3841C102.266 89.9902 102.381 89.6071 102.578 89.2653C102.775 88.9236 103.049 88.6327 103.379 88.4161Z" fill="#E0E0E0"/>
<path d="M103.379 96.0978L151.739 68.1784C152.363 67.8176 152.874 68.1128 152.874 68.8344V69.287C152.853 69.6812 152.739 70.0647 152.542 70.4066C152.345 70.7486 152.07 71.0392 151.739 71.255L103.379 99.1744C102.723 99.5418 102.244 99.2466 102.244 98.5184V98.0658C102.266 97.6719 102.381 97.2887 102.578 96.947C102.775 96.6052 103.049 96.3144 103.379 96.0978Z" fill="#E0E0E0"/>
<path d="M103.379 103.779L151.739 75.8665C152.363 75.4992 152.874 75.7944 152.874 76.5225V76.9752C152.851 77.3689 152.737 77.7519 152.54 78.0936C152.343 78.4353 152.069 78.7262 151.739 78.9432L103.379 106.863C102.723 107.223 102.244 106.928 102.244 106.207V105.747C102.267 105.354 102.381 104.971 102.579 104.629C102.776 104.287 103.05 103.996 103.379 103.779Z" fill="#E0E0E0"/>
<path d="M103.379 111.468L151.739 83.5482C152.363 83.1874 152.874 83.4761 152.874 84.2042V84.6569C152.852 85.0508 152.738 85.4339 152.541 85.7757C152.343 86.1174 152.069 86.4083 151.739 86.6249L103.379 114.544C102.723 114.905 102.244 114.61 102.244 113.888V113.436C102.265 113.041 102.379 112.658 102.576 112.316C102.774 111.974 103.049 111.683 103.379 111.468Z" fill="#E0E0E0"/>
<path d="M103.379 119.209L151.739 91.2894C152.363 90.922 152.874 91.2172 152.874 91.9454V92.398C152.851 92.7918 152.737 93.1748 152.54 93.5164C152.343 93.8581 152.069 94.1491 151.739 94.366L103.379 122.285C102.723 122.646 102.244 122.351 102.244 121.629V121.177C102.265 120.783 102.379 120.399 102.576 120.057C102.774 119.715 103.049 119.425 103.379 119.209Z" fill="#E0E0E0"/>
<path d="M103.379 126.89L151.739 98.9711C152.363 98.6103 152.874 98.8989 152.874 99.6271V100.08C152.852 100.474 152.738 100.857 152.541 101.199C152.343 101.54 152.069 101.831 151.739 102.048L103.379 129.967C102.723 130.328 102.244 130.033 102.244 129.311V128.858C102.265 128.464 102.379 128.081 102.576 127.739C102.774 127.397 103.049 127.106 103.379 126.89Z" fill="#E0E0E0"/>
<path d="M103.379 134.572L151.739 106.653C152.363 106.292 152.874 106.587 152.874 107.309V107.761C152.853 108.155 152.739 108.539 152.542 108.881C152.345 109.223 152.07 109.513 151.739 109.729L103.379 137.649C102.723 138.009 102.244 137.721 102.244 136.993V136.54C102.266 136.146 102.381 135.763 102.578 135.421C102.775 135.079 103.049 134.788 103.379 134.572Z" fill="#E0E0E0"/>
<path d="M103.379 142.254L151.739 114.335C152.363 113.974 152.874 114.269 152.874 114.991V115.456C152.853 115.851 152.739 116.234 152.542 116.576C152.345 116.918 152.07 117.209 151.739 117.424L103.379 145.344C102.723 145.711 102.244 145.416 102.244 144.688V144.235C102.265 143.839 102.379 143.454 102.576 143.109C102.773 142.765 103.048 142.472 103.379 142.254Z" fill="#E0E0E0"/>
<path d="M103.379 149.942L151.739 122.016C152.363 121.649 152.874 121.944 152.874 122.672V123.125C152.851 123.519 152.737 123.902 152.54 124.243C152.343 124.585 152.069 124.876 151.739 125.093L103.379 153.012C102.723 153.373 102.244 153.078 102.244 152.356V151.904C102.266 151.511 102.381 151.129 102.578 150.788C102.775 150.447 103.049 150.158 103.379 149.942Z" fill="#E0E0E0"/>
<path d="M103.379 157.657L151.739 129.737C152.363 129.377 152.874 129.672 152.874 130.393V130.846C152.852 131.24 152.738 131.623 152.541 131.965C152.343 132.307 152.069 132.598 151.739 132.814L103.379 160.72C102.723 161.081 102.244 160.786 102.244 160.064V159.612C102.267 159.22 102.382 158.839 102.579 158.499C102.776 158.16 103.05 157.871 103.379 157.657Z" fill="#E0E0E0"/>
<path d="M103.379 165.312L151.739 137.393C152.363 137.032 152.874 137.327 152.874 138.049V138.501C152.853 138.896 152.739 139.279 152.542 139.621C152.345 139.963 152.07 140.254 151.739 140.469L103.379 168.389C102.723 168.75 102.244 168.461 102.244 167.733V167.28C102.266 166.886 102.381 166.503 102.578 166.161C102.775 165.82 103.049 165.529 103.379 165.312Z" fill="#E0E0E0"/>
<path d="M103.379 173.02L151.739 145.101C152.363 144.74 152.874 145.035 152.874 145.757V146.216C152.851 146.61 152.737 146.993 152.54 147.334C152.343 147.676 152.069 147.967 151.739 148.184L103.379 176.097C102.723 176.464 102.244 176.169 102.244 175.441V174.988C102.267 174.594 102.381 174.211 102.579 173.87C102.776 173.528 103.05 173.237 103.379 173.02Z" fill="#E0E0E0"/>
<path d="M96.1958 187.899C95.8216 188.098 95.4015 188.194 94.978 188.179C94.5545 188.163 94.1425 188.036 93.7838 187.811C93.425 187.585 93.1322 187.269 92.9348 186.894C92.7375 186.519 92.6427 186.098 92.66 185.675V77.2707C92.6759 76.8218 92.8045 76.3842 93.0339 75.998L95.4546 77.3953C95.2218 77.778 95.0908 78.2138 95.0741 78.6614V187.072C95.0741 187.826 95.5661 188.167 96.1958 187.899Z" fill="#E0E0E0"/>
<path d="M102.933 193.002C102.573 192.759 102.275 192.435 102.064 192.055C101.853 191.676 101.735 191.252 101.719 190.818V82.407C101.745 81.9577 101.878 81.5211 102.106 81.1333C102.334 80.7454 102.651 80.4175 103.031 80.1766L167.07 43.2438C167.443 43.0097 167.872 42.8817 168.312 42.8735C168.752 42.8652 169.186 42.9771 169.567 43.197C169.948 43.417 170.262 43.7366 170.475 44.1217C170.689 44.5067 170.793 44.9426 170.776 45.3823V153.793C170.75 154.242 170.617 154.678 170.389 155.066C170.16 155.453 169.844 155.782 169.464 156.023L105.426 192.956C105.043 193.159 104.618 193.269 104.185 193.277C103.752 193.285 103.323 193.191 102.933 193.002Z" fill="#FAFAFA"/>
<path d="M105.432 192.956L169.471 156.023C169.85 155.782 170.167 155.453 170.395 155.066C170.623 154.678 170.756 154.242 170.783 153.793V45.3823C170.783 44.5623 170.206 44.2278 169.471 44.6345L105.426 81.5738C105.046 81.8156 104.73 82.1437 104.502 82.5314C104.274 82.9191 104.141 83.3553 104.114 83.8042V192.208C104.14 193.035 104.717 193.369 105.432 192.956Z" fill="#F0F0F0"/>
<path d="M112.445 85.8773L160.805 57.9579C161.461 57.5971 161.94 57.8857 161.94 58.6139V59.0403C161.918 59.4342 161.804 59.8174 161.606 60.1591C161.409 60.5009 161.135 60.7917 160.805 61.0083L112.445 88.9539C111.789 89.3147 111.31 89.0195 111.31 88.2979V87.8453C111.331 87.4511 111.445 87.0676 111.642 86.7257C111.84 86.3838 112.115 86.0931 112.445 85.8773Z" fill="#E0E0E0"/>
<path d="M112.445 93.5592L160.805 65.6398C161.461 65.279 161.94 65.5742 161.94 66.2958V66.7485C161.919 67.1426 161.805 67.5261 161.608 67.8681C161.411 68.21 161.136 68.5006 160.805 68.7165L112.445 96.6358C111.789 96.9966 111.31 96.708 111.31 95.9798V95.5272C111.332 95.1333 111.447 94.7501 111.644 94.4084C111.841 94.0666 112.115 93.7758 112.445 93.5592Z" fill="#E0E0E0"/>
<path d="M112.445 101.241L160.805 73.3215C161.461 72.9607 161.94 73.2559 161.94 73.9775V74.4301C161.919 74.8242 161.805 75.2078 161.608 75.5497C161.411 75.8916 161.136 76.1823 160.805 76.3981L112.445 104.304C111.789 104.672 111.31 104.377 111.31 103.648V103.196C111.334 102.804 111.45 102.424 111.647 102.084C111.844 101.745 112.117 101.456 112.445 101.241Z" fill="#E0E0E0"/>
<path d="M112.445 108.929L160.805 81.0096C161.461 80.6422 161.94 80.9374 161.94 81.6656V82.1183C161.917 82.512 161.803 82.895 161.606 83.2367C161.409 83.5783 161.135 83.8693 160.805 84.0862L112.445 112.006C111.789 112.366 111.31 112.071 111.31 111.35V110.897C111.331 110.503 111.445 110.119 111.642 109.777C111.84 109.435 112.115 109.145 112.445 108.929Z" fill="#E0E0E0"/>
<path d="M112.445 116.611L160.805 88.6913C161.461 88.3305 161.94 88.6191 161.94 89.3473V89.7999C161.918 90.1938 161.804 90.577 161.606 90.9187C161.409 91.2605 161.135 91.5513 160.805 91.7679L112.445 119.687C111.789 120.048 111.31 119.753 111.31 119.031V118.579C111.331 118.185 111.445 117.801 111.642 117.459C111.84 117.117 112.115 116.826 112.445 116.611Z" fill="#E0E0E0"/>
<path d="M112.445 124.352L160.805 96.4325C161.461 96.0651 161.94 96.3603 161.94 97.0885V97.5411C161.917 97.9349 161.803 98.3178 161.606 98.6595C161.409 99.0012 161.135 99.2921 160.805 99.5091L112.445 127.428C111.789 127.789 111.31 127.494 111.31 126.772V126.32C111.331 125.926 111.445 125.542 111.642 125.2C111.84 124.858 112.115 124.568 112.445 124.352Z" fill="#E0E0E0"/>
<path d="M112.445 132.034L160.805 104.114C161.461 103.753 161.94 104.042 161.94 104.77V105.223C161.918 105.617 161.804 106 161.606 106.342C161.409 106.683 161.135 106.974 160.805 107.191L112.445 135.136C111.789 135.497 111.31 135.202 111.31 134.48V134.028C111.327 133.629 111.439 133.24 111.637 132.894C111.834 132.547 112.111 132.252 112.445 132.034Z" fill="#E0E0E0"/>
<path d="M112.445 139.728L160.805 111.809C161.461 111.448 161.94 111.743 161.94 112.465V112.917C161.919 113.312 161.805 113.695 161.608 114.037C161.411 114.379 161.136 114.67 160.805 114.885L112.445 142.805C111.789 143.166 111.31 142.877 111.31 142.149V141.696C111.332 141.302 111.447 140.919 111.644 140.577C111.841 140.236 112.115 139.945 112.445 139.728Z" fill="#E0E0E0"/>
<path d="M112.445 147.397L160.805 119.478C161.461 119.117 161.94 119.412 161.94 120.134V120.586C161.919 120.98 161.805 121.364 161.608 121.706C161.411 122.048 161.136 122.339 160.805 122.554L112.445 150.474C111.789 150.841 111.31 150.546 111.31 149.818V149.365C111.333 148.971 111.447 148.588 111.644 148.247C111.841 147.905 112.116 147.614 112.445 147.397Z" fill="#E0E0E0"/>
<path d="M112.445 155.085L160.805 127.166C161.461 126.798 161.94 127.094 161.94 127.822V128.274C161.917 128.668 161.803 129.051 161.606 129.393C161.409 129.735 161.135 130.026 160.805 130.242L112.445 158.162C111.789 158.523 111.31 158.227 111.31 157.506V157.053C111.331 156.659 111.445 156.276 111.642 155.934C111.84 155.592 112.115 155.301 112.445 155.085Z" fill="#E0E0E0"/>
<path d="M112.445 162.8L160.805 134.881C161.461 134.52 161.94 134.815 161.94 135.537V135.989C161.919 136.383 161.805 136.767 161.608 137.109C161.411 137.451 161.136 137.741 160.805 137.957L112.445 165.877C111.789 166.237 111.31 165.942 111.31 165.221V164.768C111.331 164.374 111.445 163.99 111.642 163.648C111.84 163.306 112.115 163.016 112.445 162.8Z" fill="#E0E0E0"/>
<path d="M112.445 170.482L160.805 142.562C161.461 142.201 161.94 142.497 161.94 143.218V143.664C161.919 144.058 161.805 144.442 161.608 144.784C161.411 145.126 161.136 145.416 160.805 145.632L112.445 173.552C111.789 173.912 111.31 173.624 111.31 172.896V172.443C111.333 172.05 111.448 171.668 111.645 171.328C111.842 170.987 112.116 170.698 112.445 170.482Z" fill="#E0E0E0"/>
<path d="M112.445 178.163L160.805 150.224C161.461 149.863 161.94 150.159 161.94 150.88V151.339C161.917 151.733 161.803 152.116 161.606 152.458C161.409 152.8 161.135 153.091 160.805 153.307L112.445 181.22C111.789 181.588 111.31 181.292 111.31 180.564V180.112C111.336 179.721 111.452 179.342 111.649 179.004C111.846 178.666 112.118 178.378 112.445 178.163Z" fill="#E0E0E0"/>
<path d="M105.262 193.042C104.888 193.241 104.467 193.337 104.044 193.322C103.62 193.306 103.208 193.179 102.85 192.954C102.491 192.728 102.198 192.412 102.001 192.037C101.803 191.662 101.709 191.241 101.726 190.818V82.4137C101.742 81.9649 101.87 81.5272 102.1 81.1411L104.52 82.5384C104.288 82.921 104.157 83.3569 104.14 83.8045V192.208C104.14 192.969 104.632 193.311 105.262 193.042Z" fill="#E0E0E0"/>
<path d="M198.538 76.7525L179.829 157.768L178.104 165.221C177.532 167.209 176.263 168.926 174.529 170.055L63.5205 234.12C62.7134 234.558 61.8143 234.799 60.8965 234.822C59.8991 234.892 58.9021 234.683 58.0166 234.219L58.5874 231.746L58.6464 231.503L59.2696 228.794L61.9854 217.038L79.1858 142.556C79.2092 142.46 79.2444 142.367 79.2907 142.28C79.3366 142.195 79.3891 142.11 79.4416 142.031V141.992C79.5604 141.831 79.707 141.693 79.8746 141.585L174.699 86.8549L195.449 74.8763C195.625 74.7859 195.821 74.7388 196.019 74.7388C196.218 74.7388 196.413 74.7859 196.59 74.8763L198.119 75.7553C198.28 75.8605 198.407 76.0117 198.481 76.1895C198.556 76.3672 198.576 76.5633 198.538 76.7525Z" fill="#37474F"/>
<path d="M198.558 76.5622C198.558 76.3326 198.374 76.2605 198.119 76.4113L82.5642 143.127C82.3939 143.232 82.2466 143.37 82.1312 143.533L79.4678 141.992C79.5866 141.831 79.7333 141.693 79.9008 141.585L195.449 74.8763C195.625 74.7859 195.821 74.7388 196.019 74.7388C196.218 74.7388 196.413 74.7859 196.59 74.8763L198.119 75.7553C198.252 75.8435 198.362 75.9632 198.439 76.1039C198.516 76.2446 198.557 76.402 198.558 76.5622Z" fill="#455A64"/>
<path d="M82.1312 143.533C82.0562 143.634 81.9903 143.742 81.9344 143.854C81.8994 143.931 81.8709 144.01 81.8491 144.091L65.4032 215.319L61.9395 230.328L61.5 232.224L60.8965 234.848C59.8991 234.918 58.9021 234.709 58.0166 234.245L58.5874 231.771L58.6464 231.529L59.2696 228.819L61.9854 217.064L79.1858 142.582C79.2092 142.486 79.2444 142.393 79.2907 142.306C79.3366 142.221 79.3891 142.136 79.4416 142.057V142.018L82.1312 143.533Z" fill="#263238"/>
<path d="M62.0838 227.343C62.2214 227.422 62.3301 227.543 62.3939 227.689C62.4576 227.834 62.4731 227.996 62.4381 228.15L61.5 232.224L61.008 234.251C60.9682 234.42 60.8702 234.57 60.7311 234.675C60.592 234.779 60.4207 234.831 60.247 234.822C59.4595 234.804 58.6878 234.597 57.997 234.218C57.2061 233.681 56.5529 232.965 56.0902 232.129C55.6275 231.292 55.3683 230.359 55.3336 229.403V224.733C55.3293 224.601 55.3605 224.471 55.4239 224.355C55.4872 224.24 55.5805 224.144 55.6938 224.077C55.8071 224.009 55.9363 223.974 56.068 223.974C56.1997 223.974 56.3289 224.01 56.4422 224.077L57.6296 224.733C57.7428 224.8 57.8364 224.896 57.9008 225.012C57.9653 225.127 57.9984 225.257 57.997 225.389V227.711C57.9897 227.896 58.0529 228.078 58.1738 228.218C58.2947 228.359 58.4645 228.449 58.6489 228.47C58.8333 228.49 59.0188 228.441 59.168 228.33C59.3172 228.22 59.4191 228.057 59.4533 227.875L59.6501 227.015C59.6767 226.903 59.7291 226.799 59.8031 226.711C59.8771 226.622 59.9706 226.553 60.0763 226.507C60.182 226.461 60.2969 226.44 60.412 226.447C60.527 226.453 60.639 226.486 60.739 226.543L62.0838 227.343Z" fill="#263238"/>
<path d="M86.592 210.032L80.2747 206.384L80.2091 206.345C77.0669 204.567 72.757 204.83 67.9878 207.585C63.5205 210.157 59.4598 214.453 56.3832 219.393C52.8342 225.113 50.6038 231.739 50.6038 237.676C50.6038 243.212 52.5718 247.102 55.6747 248.92L62.0904 252.58C65.2589 254.6 69.7328 254.423 74.6922 251.557C84.296 246.013 92.0827 232.533 92.0827 221.44C92.0827 215.719 89.9704 211.744 86.592 210.032Z" fill="#F3C262"/>
<path opacity="0.1" d="M61.9658 252.56L55.6747 248.965C52.539 247.148 50.6038 243.258 50.6038 237.721C50.6038 231.785 52.8342 225.166 56.3832 219.445L63.0941 223.316C59.5451 229.036 57.3213 235.649 57.3213 241.579C57.3016 246.866 59.0728 250.651 61.9658 252.56Z" fill="#111B23"/>
<path opacity="0.4" d="M86.4608 209.96C83.3645 208.457 79.2448 208.838 74.6922 211.455C70.1395 214.073 66.1642 218.337 63.0744 223.309L56.3635 219.439C59.4336 214.466 63.5074 210.176 67.9682 207.631C72.7373 204.876 77.0472 204.613 80.1894 206.384L80.255 206.424L86.4608 209.96Z" fill="white"/>
<path d="M77.0931 233.32V239.44C77.0932 239.752 77.0213 240.059 76.8832 240.339C76.7876 240.605 76.6109 240.834 76.3781 240.995L73.0259 242.93C72.951 242.985 72.8588 243.012 72.766 243.005C72.6733 242.997 72.5862 242.957 72.5208 242.891C72.4441 242.801 72.386 242.696 72.35 242.584C72.3139 242.471 72.3006 242.353 72.3109 242.235V236.141L68.1846 238.515C68.1111 238.573 68.019 238.601 67.9258 238.595C67.8327 238.589 67.745 238.549 67.6795 238.482C67.6028 238.392 67.5447 238.288 67.5087 238.175C67.4727 238.063 67.4594 237.944 67.4696 237.826V233.694C67.4734 233.38 67.545 233.071 67.6795 232.788C67.7851 232.538 67.9605 232.324 68.1846 232.172L72.3109 229.79V223.696C72.3147 223.383 72.3863 223.074 72.5208 222.791C72.624 222.54 72.7999 222.325 73.0259 222.174L76.3781 220.206C76.4527 220.151 76.5442 220.125 76.6366 220.131C76.729 220.137 76.8163 220.175 76.8832 220.239C76.9605 220.329 77.019 220.433 77.0551 220.546C77.0911 220.658 77.1041 220.777 77.0931 220.895V226.976L81.1931 224.615C81.2667 224.557 81.3588 224.529 81.4519 224.535C81.5451 224.541 81.6327 224.581 81.6982 224.647C81.7749 224.737 81.833 224.842 81.869 224.954C81.9051 225.067 81.9184 225.186 81.9082 225.303V229.436C81.9043 229.75 81.8327 230.058 81.6982 230.341C81.5927 230.591 81.4173 230.805 81.1931 230.958L77.0931 233.32Z" fill="white"/>
<path d="M245.711 138.541L238.043 138.324C237.531 137.885 229.482 128.799 229.482 128.799C229.482 128.799 226.582 133.391 226.536 133.66C226.491 133.929 234.408 142.444 235.215 143.303C235.437 143.589 235.72 143.819 236.044 143.979C236.368 144.138 236.724 144.221 237.085 144.222C239.164 144.347 246.925 144.878 246.925 144.878L245.711 138.541Z" fill="#B16668"/>
<path d="M163.862 253.682C163.504 253.438 163.208 253.113 162.998 252.734C162.788 252.354 162.671 251.931 162.655 251.498V149.568C162.682 149.119 162.815 148.683 163.043 148.295C163.271 147.908 163.588 147.58 163.967 147.338L228.006 110.399C228.39 110.197 228.816 110.089 229.25 110.081C229.684 110.073 230.114 110.166 230.505 110.353C230.865 110.597 231.161 110.923 231.371 111.304C231.581 111.684 231.698 112.109 231.712 112.544V214.466C231.686 214.917 231.554 215.354 231.326 215.743C231.098 216.132 230.781 216.461 230.4 216.703L166.362 253.636C165.978 253.839 165.551 253.949 165.117 253.956C164.683 253.964 164.253 253.87 163.862 253.682Z" fill="#F3C262"/>
<path opacity="0.15" d="M166.001 253.78L166.132 253.741C166.105 253.761 166.073 253.774 166.04 253.78C165.963 253.812 165.884 253.838 165.804 253.859H165.673C165.575 253.881 165.477 253.896 165.378 253.905C165.264 253.912 165.15 253.912 165.036 253.905C164.628 253.914 164.224 253.819 163.862 253.629C163.599 253.46 163.375 253.237 163.206 252.973C162.879 252.527 162.694 251.992 162.675 251.438V149.568C162.674 149.346 162.707 149.125 162.773 148.912C162.806 148.803 162.845 148.695 162.891 148.591C162.937 148.483 162.99 148.377 163.049 148.276L165.463 149.673L165.404 149.772C165.207 150.13 165.097 150.53 165.082 150.939V252.895C165.081 253.026 165.099 253.156 165.135 253.282C165.177 253.435 165.264 253.572 165.384 253.675C165.463 253.734 165.552 253.776 165.647 253.8H165.797C165.856 253.81 165.916 253.81 165.975 253.8C165.985 253.797 165.995 253.79 166.001 253.78Z" fill="#111B23"/>
<path opacity="0.3" d="M231.666 112.268C231.561 111.612 231.01 111.395 230.4 111.763L166.355 148.696C165.977 148.938 165.664 149.269 165.443 149.66L163.029 148.256C163.244 147.863 163.559 147.532 163.941 147.298L227.98 110.359C228.364 110.158 228.79 110.049 229.224 110.041C229.658 110.033 230.087 110.126 230.479 110.313C230.806 110.535 231.081 110.824 231.286 111.161C231.491 111.498 231.62 111.876 231.666 112.268Z" fill="white"/>
<path d="M173.381 153.006L221.728 125.086C222.384 124.719 222.863 125.014 222.863 125.742V126.195C222.841 126.589 222.727 126.972 222.53 127.314C222.333 127.656 222.058 127.947 221.728 128.163L173.368 156.082C172.712 156.443 172.233 156.148 172.233 155.426V154.974C172.255 154.578 172.371 154.194 172.57 153.852C172.77 153.51 173.048 153.22 173.381 153.006Z" fill="#FAFAFA"/>
<path d="M173.381 162.406L221.728 134.48C222.384 134.113 222.863 134.408 222.863 135.136V135.589C222.842 135.983 222.728 136.367 222.531 136.709C222.334 137.051 222.059 137.342 221.728 137.557L173.368 165.476C172.712 165.837 172.233 165.542 172.233 164.82V164.368C172.256 163.973 172.372 163.59 172.572 163.249C172.771 162.908 173.048 162.62 173.381 162.406Z" fill="#FAFAFA"/>
<path d="M173.381 171.806L221.728 143.887C222.384 143.526 222.863 143.815 222.863 144.543V144.976C222.842 145.37 222.728 145.754 222.531 146.096C222.334 146.438 222.059 146.729 221.728 146.944L173.368 174.863C172.712 175.224 172.233 174.929 172.233 174.207V173.755C172.258 173.363 172.375 172.982 172.575 172.644C172.774 172.305 173.05 172.019 173.381 171.806Z" fill="#FAFAFA"/>
<path d="M173.381 181.207L221.728 153.287C222.384 152.927 222.863 153.215 222.863 153.943V154.396C222.842 154.79 222.728 155.174 222.531 155.516C222.334 155.858 222.059 156.149 221.728 156.364L173.368 184.284C172.712 184.644 172.233 184.349 172.233 183.628V183.175C172.255 182.779 172.371 182.395 172.57 182.053C172.77 181.711 173.048 181.421 173.381 181.207Z" fill="#FAFAFA"/>
<path d="M173.381 190.608L221.728 162.688C222.384 162.328 222.863 162.616 222.863 163.344V163.797C222.842 164.191 222.728 164.575 222.531 164.917C222.334 165.259 222.059 165.55 221.728 165.765L173.368 193.684C172.712 194.045 172.233 193.75 172.233 193.028V192.576C172.255 192.18 172.371 191.796 172.57 191.454C172.77 191.112 173.048 190.822 173.381 190.608Z" fill="#FAFAFA"/>
<path d="M173.381 200.008L221.728 172.089C222.384 171.728 222.863 172.017 222.863 172.745V173.184C222.842 173.579 222.728 173.962 222.531 174.304C222.334 174.646 222.059 174.937 221.728 175.152L173.368 203.072C172.712 203.432 172.233 203.137 172.233 202.416V201.963C172.257 201.57 172.374 201.188 172.573 200.848C172.773 200.509 173.049 200.221 173.381 200.008Z" fill="#FAFAFA"/>
<path d="M173.381 209.409L221.728 181.489C222.384 181.128 222.863 181.417 222.863 182.145V182.598C222.842 182.992 222.728 183.376 222.531 183.718C222.334 184.06 222.059 184.35 221.728 184.566L173.368 212.485C172.712 212.846 172.233 212.551 172.233 211.829V211.377C172.255 210.981 172.371 210.597 172.57 210.254C172.77 209.912 173.048 209.622 173.381 209.409Z" fill="#FAFAFA"/>
<path d="M173.381 218.809L221.728 190.896C222.384 190.535 222.863 190.831 222.863 191.552V192.005C222.842 192.399 222.728 192.783 222.531 193.125C222.334 193.467 222.059 193.757 221.728 193.973L173.368 221.892C172.712 222.253 172.233 221.958 172.233 221.236V220.784C172.254 220.387 172.369 220.001 172.569 219.658C172.768 219.315 173.047 219.024 173.381 218.809Z" fill="#FAFAFA"/>
<path d="M173.381 228.21L221.728 200.29C222.384 199.929 222.863 200.225 222.863 200.946V201.392C222.843 201.787 222.729 202.171 222.532 202.513C222.335 202.855 222.059 203.145 221.728 203.36L173.368 231.28C172.712 231.64 172.233 231.345 172.233 230.624V230.171C172.256 229.777 172.372 229.394 172.572 229.053C172.771 228.712 173.048 228.423 173.381 228.21Z" fill="#FAFAFA"/>
<path d="M173.381 237.61L221.728 209.691C222.384 209.33 222.863 209.625 222.863 210.347V210.799C222.843 211.194 222.729 211.578 222.532 211.92C222.335 212.262 222.059 212.552 221.728 212.767L173.374 240.687C172.718 241.047 172.239 240.752 172.239 240.031V239.578C172.261 239.183 172.376 238.799 172.575 238.457C172.773 238.115 173.049 237.825 173.381 237.61Z" fill="#FAFAFA"/>
<path d="M247.135 137.209H256.24C259.361 137.209 262.355 135.969 264.562 133.762C266.769 131.555 268.009 128.562 268.009 125.44C268.009 122.672 266.909 120.018 264.952 118.06C262.995 116.103 260.34 115.003 257.572 115.003C254.804 115.003 252.149 116.103 250.192 118.06C248.234 120.018 247.135 122.672 247.135 125.44V137.209Z" fill="#263238"/>
<path d="M265.68 119.117L268.206 117.759C268.127 117.587 268.015 117.433 267.875 117.306C267.735 117.179 267.571 117.082 267.392 117.02C267.214 116.959 267.024 116.935 266.836 116.949C266.648 116.963 266.464 117.015 266.297 117.103C265.95 117.29 265.692 117.607 265.576 117.983C265.461 118.36 265.498 118.767 265.68 119.117Z" fill="#263238"/>
<path d="M265.503 119.392L268.192 120.396C268.267 120.223 268.305 120.036 268.306 119.848C268.306 119.66 268.268 119.473 268.195 119.3C268.121 119.126 268.013 118.97 267.878 118.839C267.742 118.708 267.581 118.606 267.405 118.539C267.039 118.411 266.638 118.428 266.284 118.587C265.93 118.745 265.651 119.034 265.503 119.392Z" fill="#263238"/>
<path d="M256.496 145.888L243.816 145.343C242.72 143.802 242.72 139.728 243.875 138.416L257.906 138.796L256.496 145.888Z" fill="#F3C262"/>
<path d="M248.788 224.556C248.866 225.404 248.901 226.256 248.893 227.108V232.1H253.216V229.174C253.218 227.855 253.328 226.539 253.544 225.238L248.788 224.556Z" fill="#B16668"/>
<path d="M248.886 229.961V229.338C248.768 230.282 246.066 233.838 244.347 235.406C242.976 236.659 241.106 238.102 240.627 239.499C240.148 240.897 242.838 241.52 244.609 241.343C246.33 241.129 247.914 240.299 249.07 239.007C249.786 238.107 250.429 237.15 250.992 236.147C251.517 235.439 253.879 233.982 254.167 233.156C254.249 232.388 254.164 231.611 253.918 230.879C253.715 230.112 253.498 229.266 253.262 229.338V229.81C252.643 230.295 251.877 230.555 251.091 230.545C250.428 230.571 248.886 230.446 248.886 229.961Z" fill="#263238"/>
<path d="M253.216 229.81C252.597 230.295 251.831 230.555 251.045 230.545C250.389 230.545 248.867 230.447 248.867 229.961V229.338C248.749 230.283 246.046 233.838 244.327 235.406C243.999 235.708 243.638 236.016 243.278 236.337C242.549 237.151 242.759 237.859 244.472 238.004C246.184 238.148 247.692 237.118 248.991 235.524C250.29 233.93 253.216 229.81 253.216 229.81Z" fill="#B16668"/>
<path d="M262.059 231.916C262.144 232.966 262.144 234.061 262.164 234.54V239.532H266.507V236.606C266.506 235.288 266.614 233.971 266.828 232.67L262.059 231.916Z" fill="#B16668"/>
<path d="M262.157 237.387V236.764C262.033 237.708 259.336 241.264 257.611 242.832C256.24 244.085 254.371 245.528 253.898 246.918C253.426 248.309 256.102 248.946 257.88 248.768C259.599 248.555 261.181 247.725 262.334 246.433C263.052 245.532 263.697 244.576 264.263 243.573C264.788 242.864 267.149 241.408 267.432 240.581C267.52 239.814 267.435 239.036 267.182 238.305C266.985 237.538 266.762 236.691 266.526 236.764V237.236C265.907 237.721 265.141 237.98 264.355 237.971C263.712 237.997 262.151 237.872 262.157 237.387Z" fill="#263238"/>
<path d="M266.5 237.236C265.881 237.721 265.115 237.98 264.329 237.971C263.673 237.971 262.151 237.872 262.157 237.387V236.764C262.033 237.708 259.336 241.264 257.611 242.832C257.283 243.133 256.955 243.442 256.568 243.763C255.84 244.577 256.05 245.285 257.762 245.429C259.474 245.574 260.976 244.544 262.275 242.95C263.574 241.356 266.5 237.236 266.5 237.236Z" fill="#B16668"/>
<path d="M248.788 226.615C247.856 218.96 246.335 205.722 245.888 202.829C245.475 200.152 246.512 177.245 247.148 169.95L269.78 168.736C271.499 176.11 269.819 186.055 269.236 192.267C268.658 198.309 267.924 205.387 267.924 205.387C267.924 205.387 269.688 211.547 269.236 216.447C268.934 219.537 267.55 228.859 266.894 232.847C266.122 233.238 265.267 233.437 264.403 233.425C263.538 233.414 262.689 233.193 261.928 232.782C262 233.628 261.121 222.456 260.616 217.943C259.894 211.678 259.619 207.112 258.976 203.452C258.169 198.86 257.893 181.004 257.893 181.004L255.269 201.294C255.553 203.469 255.691 205.66 255.683 207.854C255.683 212.387 254.01 222.686 253.485 226.536C252.35 227.343 250.041 227.586 248.788 226.615Z" fill="#455A64"/>
<path d="M257.887 180.991C257.887 180.991 253.747 179.541 251.392 177.376C252.577 179.219 254.257 180.69 256.24 181.62L256.28 193.494L257.887 180.991Z" fill="#37474F"/>
<path d="M261.18 138.901C261.18 138.901 267.327 139.61 268.061 139.938C264.316 144.038 268.304 147.436 268.304 147.436L265.45 159.992C267.91 163.134 269.314 165.561 269.905 169.307C267.281 173.951 252.475 174.594 247.05 171.137C247.522 164.663 248.578 160.025 248.224 158.076C245.646 150.126 246.446 148.459 246.689 146.642C247.161 143.093 250.684 140.003 252.698 138.705H254.574L261.18 138.901Z" fill="#F0F0F0"/>
<path d="M250.592 120.114C249.49 120.77 248.125 123.538 248.263 129.35C248.375 134.277 249.975 135.49 250.776 135.845C251.576 136.199 253.124 135.982 254.626 135.727V138.685C254.626 138.685 252.547 141.099 252.658 142.457C252.77 143.815 255.656 144.13 257.605 142.805C259.01 141.715 260.221 140.395 261.186 138.902L261.154 132.105C261.154 132.105 262.033 132.965 263.535 131.653C264.775 130.57 265.188 128.74 264.191 127.763C263.942 127.529 263.642 127.358 263.315 127.263C262.988 127.168 262.643 127.152 262.308 127.216C261.974 127.28 261.659 127.423 261.39 127.632C261.121 127.841 260.905 128.11 260.76 128.419C260.76 128.419 259.927 126.103 256.463 124.968C253.36 123.984 251.661 122.797 250.592 120.114Z" fill="#B16668"/>
<path d="M254.069 128.11C254.068 128.273 254.127 128.429 254.235 128.55C254.343 128.672 254.491 128.749 254.653 128.766C254.82 128.767 254.981 128.703 255.103 128.588C255.225 128.474 255.299 128.317 255.309 128.15C255.321 128.064 255.315 127.977 255.291 127.893C255.267 127.81 255.226 127.732 255.171 127.666C255.116 127.599 255.047 127.545 254.97 127.506C254.892 127.467 254.808 127.445 254.721 127.441C254.635 127.437 254.548 127.451 254.467 127.482C254.386 127.513 254.313 127.561 254.252 127.622C254.19 127.683 254.142 127.756 254.111 127.837C254.079 127.918 254.065 128.004 254.069 128.091V128.11Z" fill="#263238"/>
<path d="M253.905 132.289L252.468 132.748C252.494 132.844 252.538 132.934 252.6 133.012C252.661 133.091 252.737 133.156 252.824 133.203C252.912 133.251 253.007 133.281 253.106 133.291C253.205 133.3 253.305 133.29 253.4 133.26C253.593 133.195 253.754 133.058 253.849 132.877C253.943 132.695 253.963 132.485 253.905 132.289Z" fill="#9A4A4D"/>
<path d="M248.991 126.208L250.244 125.342C250.192 125.257 250.123 125.184 250.041 125.127C249.959 125.07 249.867 125.03 249.769 125.01C249.672 124.99 249.571 124.99 249.473 125.009C249.376 125.029 249.283 125.069 249.201 125.126C249.036 125.246 248.922 125.424 248.883 125.625C248.844 125.826 248.883 126.035 248.991 126.208Z" fill="#263238"/>
<path d="M255.873 126.667L254.62 125.801C254.672 125.716 254.742 125.643 254.823 125.586C254.905 125.529 254.997 125.489 255.095 125.469C255.192 125.449 255.293 125.449 255.391 125.468C255.488 125.488 255.581 125.528 255.663 125.585C255.829 125.705 255.943 125.883 255.982 126.084C256.021 126.285 255.982 126.494 255.873 126.667Z" fill="#263238"/>
<path d="M249.28 127.664C249.279 127.827 249.338 127.983 249.446 128.104C249.554 128.226 249.703 128.303 249.864 128.32C250.03 128.321 250.19 128.258 250.312 128.145C250.434 128.031 250.508 127.876 250.52 127.71C250.532 127.624 250.526 127.537 250.502 127.454C250.478 127.371 250.438 127.293 250.382 127.226C250.327 127.16 250.258 127.105 250.181 127.067C250.103 127.028 250.019 127.006 249.932 127.002C249.846 126.998 249.759 127.012 249.678 127.043C249.598 127.074 249.524 127.121 249.463 127.183C249.401 127.244 249.354 127.317 249.322 127.398C249.291 127.478 249.276 127.565 249.28 127.651V127.664Z" fill="#263238"/>
<path d="M252.199 127.31L252.101 131.036L250.139 130.433L252.199 127.31Z" fill="#9A4A4D"/>
<path d="M254.6 135.727C256.181 135.523 259.441 134.585 259.953 133.299C259.748 133.951 259.347 134.523 258.805 134.939C257.834 135.772 254.6 136.717 254.6 136.717V135.727Z" fill="#9A4A4D"/>
<path d="M266.723 154.383L261.482 162.039L265.45 159.992L266.723 154.383Z" fill="#E0E0E0"/>
<path d="M264.296 141.611L251.996 154.331C251.996 154.331 239.919 153.143 235.819 151.969C234.507 151.595 233.484 149.824 233.195 148.335C233.158 147.944 233 147.575 232.742 147.28C232.484 146.984 232.14 146.777 231.758 146.688V149.673C231.653 150.427 231.286 150.814 230.21 150.841C226.064 150.933 224.142 149.673 223.65 151.923C223.329 153.36 223.952 154.993 226.687 155.748C230.532 156.797 232.657 156.272 234.992 156.856C236.796 157.302 249.385 159.697 251.858 160.235C253.17 160.523 254.161 160.431 255.584 159.028C257.008 157.624 267.648 147.653 267.648 147.653C270.928 144.373 269.957 141.007 268.133 140.004C266.992 139.38 265.746 140.115 264.296 141.611Z" fill="#B16668"/>
<path d="M268.061 139.938C268.855 140.259 269.826 141.106 269.905 143.297C269.983 145.488 268.363 147.482 266.454 149.765C264.545 152.048 263.968 152.651 263.968 152.651C263.968 152.651 259.14 150.893 258.32 147.305C258.32 147.305 261.96 143.447 263.049 142.214C264.138 140.981 266.146 139.072 268.061 139.938Z" fill="#F3C262"/>
<path d="M243.133 56.9278L247.692 59.5518C247.667 59.3516 247.653 59.1501 247.653 58.9483V57.6363C247.653 55.2878 249.306 54.3563 251.34 55.5108C252.214 56.0504 252.964 56.7706 253.537 57.6231C253.872 54.6646 256.161 53.5691 259.008 55.1894C262.052 56.954 264.525 61.2311 264.525 64.7473V66.7153C264.546 67.5046 264.384 68.2879 264.053 69.0047L267.845 71.1892C268.439 71.5783 268.934 72.1015 269.29 72.7168C269.645 73.332 269.851 74.0222 269.892 74.7316C269.892 76.0436 268.973 76.5684 267.845 75.9124L243.133 61.6641C242.538 61.2762 242.042 60.7532 241.686 60.1377C241.331 59.5222 241.125 58.8315 241.087 58.1217C241.087 56.8031 242.005 56.2718 243.133 56.9278Z" fill="#EBEBEB"/>
<path d="M223.617 70.1919L227.055 72.1599C227.055 72.0025 227.055 71.8516 227.055 71.7007V70.7036C227.055 68.9324 228.301 68.2108 229.836 69.103C230.499 69.5066 231.066 70.0507 231.496 70.6971C231.745 68.4667 233.464 67.6335 235.622 68.8603C236.836 69.6495 237.846 70.7146 238.57 71.9687C239.294 73.2228 239.711 74.6302 239.788 76.0763V77.5654C239.802 78.1621 239.681 78.7543 239.433 79.2972L242.294 80.9438C242.743 81.2376 243.116 81.633 243.384 82.0979C243.652 82.5629 243.806 83.0844 243.835 83.6203C243.835 84.6043 243.146 85.0044 242.294 84.5124L223.644 73.7409C223.194 73.4489 222.819 73.0549 222.55 72.591C222.281 72.1272 222.125 71.6064 222.095 71.071C222.069 70.1198 222.764 69.7196 223.617 70.1919Z" fill="#EBEBEB"/>
</svg>
