<svg xmlns="http://www.w3.org/2000/svg" width="24" height="24" viewBox="0 0 23 22" fill="none">
    <path d="M15.5 3C15.5 1.9 16.4 1 17.5 1C18.6 1 19.5 1.9 19.5 3C19.5 4.1 18.6 5 17.5 5C16.4 5 15.5 4.1 15.5 3ZM20.28 6.58C19.4031 6.19739 18.4567 5.99993 17.5 6C16.83 6 16.19 6.1 15.58 6.28C16.16 6.83 16.5 7.6 16.5 8.43V9H21.5V8.43C21.5 7.62 21.02 6.9 20.28 6.58ZM5.5 5C6.6 5 7.5 4.1 7.5 3C7.5 1.9 6.6 1 5.5 1C4.4 1 3.5 1.9 3.5 3C3.5 4.1 4.4 5 5.5 5ZM7.42 6.28C6.81 6.1 6.17 6 5.5 6C4.51 6 3.57 6.21 2.72 6.58C2.35771 6.73485 2.04892 6.99277 1.83202 7.32168C1.61511 7.6506 1.49966 8.036 1.5 8.43V9H6.5V8.43C6.5 7.6 6.84 6.83 7.42 6.28ZM9.5 3C9.5 1.9 10.4 1 11.5 1C12.6 1 13.5 1.9 13.5 3C13.5 4.1 12.6 5 11.5 5C10.4 5 9.5 4.1 9.5 3ZM15.5 9H7.5V8.43C7.5 7.62 7.98 6.9 8.72 6.58C9.59685 6.19731 10.5433 5.99978 11.5 5.99978C12.4567 5.99978 13.4031 6.19731 14.28 6.58C14.6423 6.73485 14.9511 6.99277 15.168 7.32168C15.3849 7.6506 15.5003 8.036 15.5 8.43V9ZM14.5 15C14.5 13.9 15.4 13 16.5 13C17.6 13 18.5 13.9 18.5 15C18.5 16.1 17.6 17 16.5 17C15.4 17 14.5 16.1 14.5 15ZM20.5 21H12.5V20.43C12.5 19.62 12.98 18.9 13.72 18.58C14.5969 18.1973 15.5433 17.9998 16.5 17.9998C17.4567 17.9998 18.4031 18.1973 19.28 18.58C19.6423 18.7349 19.9511 18.9928 20.168 19.3217C20.3849 19.6506 20.5003 20.036 20.5 20.43V21ZM4.5 15C4.5 13.9 5.4 13 6.5 13C7.6 13 8.5 13.9 8.5 15C8.5 16.1 7.6 17 6.5 17C5.4 17 4.5 16.1 4.5 15ZM10.5 21H2.5V20.43C2.5 19.62 2.98 18.9 3.72 18.58C4.59685 18.1973 5.54328 17.9998 6.5 17.9998C7.45673 17.9998 8.40315 18.1973 9.28 18.58C9.64229 18.7349 9.95108 18.9928 10.168 19.3217C10.3849 19.6506 10.5003 20.036 10.5 20.43V21ZM12.25 12V10H10.75V12H8.5L11.5 15L14.5 12H12.25Z" stroke="#2A5578" stroke-width="1.5"/>
</svg>
