<svg xmlns="http://www.w3.org/2000/svg" width="24" height="24" viewBox="0 0 27 28" fill="none">
    <path d="M18.8333 3.33317C18.8333 1.8665 20.0333 0.666504 21.5 0.666504C22.9667 0.666504 24.1667 1.8665 24.1667 3.33317C24.1667 4.79984 22.9667 5.99984 21.5 5.99984C20.0333 5.99984 18.8333 4.79984 18.8333 3.33317ZM25.2067 8.1065C24.0375 7.59635 22.7756 7.33308 21.5 7.33317C20.6067 7.33317 19.7533 7.4665 18.94 7.7065C19.7133 8.43984 20.1667 9.4665 20.1667 10.5732V11.3332H26.8333V10.5732C26.8333 9.49317 26.1933 8.53317 25.2067 8.1065ZM5.50001 5.99984C6.96667 5.99984 8.16667 4.79984 8.16667 3.33317C8.16667 1.8665 6.96667 0.666504 5.50001 0.666504C4.03334 0.666504 2.83334 1.8665 2.83334 3.33317C2.83334 4.79984 4.03334 5.99984 5.50001 5.99984ZM8.06001 7.7065C7.24667 7.4665 6.39334 7.33317 5.50001 7.33317C4.18001 7.33317 2.92667 7.61317 1.79334 8.1065C1.31029 8.31297 0.89857 8.65686 0.609363 9.09541C0.320155 9.53397 0.166214 10.0478 0.166673 10.5732V11.3332H6.83334V10.5732C6.83334 9.4665 7.28667 8.43984 8.06001 7.7065ZM10.8333 3.33317C10.8333 1.8665 12.0333 0.666504 13.5 0.666504C14.9667 0.666504 16.1667 1.8665 16.1667 3.33317C16.1667 4.79984 14.9667 5.99984 13.5 5.99984C12.0333 5.99984 10.8333 4.79984 10.8333 3.33317ZM18.8333 11.3332H8.16667V10.5732C8.16667 9.49317 8.80667 8.53317 9.79334 8.1065C10.9625 7.59625 12.2244 7.33288 13.5 7.33288C14.7756 7.33288 16.0375 7.59625 17.2067 8.1065C17.6897 8.31297 18.1014 8.65686 18.3906 9.09541C18.6799 9.53397 18.8338 10.0478 18.8333 10.5732V11.3332ZM17.5 19.3332C17.5 17.8665 18.7 16.6665 20.1667 16.6665C21.6333 16.6665 22.8333 17.8665 22.8333 19.3332C22.8333 20.7998 21.6333 21.9998 20.1667 21.9998C18.7 21.9998 17.5 20.7998 17.5 19.3332ZM25.5 27.3332H14.8333V26.5732C14.8333 25.4932 15.4733 24.5332 16.46 24.1065C17.6291 23.5962 18.891 23.3329 20.1667 23.3329C21.4423 23.3329 22.7042 23.5962 23.8733 24.1065C24.3564 24.313 24.7681 24.6569 25.0573 25.0954C25.3465 25.534 25.5005 26.0478 25.5 26.5732V27.3332ZM4.16667 19.3332C4.16667 17.8665 5.36667 16.6665 6.83334 16.6665C8.30001 16.6665 9.50001 17.8665 9.50001 19.3332C9.50001 20.7998 8.30001 21.9998 6.83334 21.9998C5.36667 21.9998 4.16667 20.7998 4.16667 19.3332ZM12.1667 27.3332H1.50001V26.5732C1.50001 25.4932 2.14001 24.5332 3.12667 24.1065C4.29581 23.5962 5.55771 23.3329 6.83334 23.3329C8.10897 23.3329 9.37087 23.5962 10.54 24.1065C11.0231 24.313 11.4348 24.6569 11.724 25.0954C12.0132 25.534 12.1671 26.0478 12.1667 26.5732V27.3332ZM14.5 15.3332V12.6665H12.5V15.3332H9.50001L13.5 19.3332L17.5 15.3332H14.5Z" fill="#2A5578"/>
</svg>
