<svg width="32" height="32" viewBox="0 0 32 32" fill="none" xmlns="http://www.w3.org/2000/svg">
<g clip-path="url(#clip0_875_29695)">
<circle cx="16" cy="16" r="16" fill="#2A5578" fill-opacity="0.1"/>
<g clip-path="url(#clip1_875_29695)">
<path d="M13.7671 11.6461C14.0684 11.6461 14.3244 11.5394 14.5377 11.3274C14.7497 11.1154 14.8564 10.8581 14.8564 10.5568C14.8564 10.2554 14.7497 9.99942 14.5377 9.78608C14.3244 9.57542 14.0684 9.46875 13.7671 9.46875C13.4657 9.46875 13.2097 9.57542 12.9964 9.78742C12.7831 9.99942 12.6777 10.2568 12.6777 10.5581C12.6777 10.8594 12.7844 11.1154 12.9964 11.3288C13.2097 11.5408 13.4657 11.6461 13.7671 11.6461Z" fill="#2A5578"/>
<path d="M14.5364 21.6278C13.5978 21.6278 12.8018 21.2958 12.1458 20.6318C11.4911 19.9678 11.1644 19.1572 11.1644 18.2012C11.1644 17.1745 11.5631 16.3158 12.3591 15.6252L12.2791 14.5625C11.6778 14.9532 11.1951 15.4705 10.8324 16.1172C10.4698 16.7638 10.2871 17.4585 10.2871 18.2012C10.2871 19.4052 10.7031 20.4278 11.5351 21.2692C12.3671 22.1105 13.3671 22.5305 14.5364 22.5305C15.3684 22.5305 16.1431 22.2692 16.8604 21.7465C17.5778 21.2238 18.1044 20.5732 18.4404 19.7945L17.8031 18.9185C17.6431 19.6972 17.2591 20.3438 16.6484 20.8572C16.0378 21.3705 15.3338 21.6278 14.5364 21.6278Z" fill="#2A5578"/>
<path d="M21.1761 19.5343H20.6188L18.4414 16.533C18.1401 16.0023 17.7774 15.7356 17.3521 15.7356H14.9081V14.6463H17.0854C17.4748 14.6463 17.6694 14.509 17.6694 14.2343C17.6694 13.9596 17.4748 13.8223 17.0854 13.8223H14.9081V12.7356C14.8721 12.1863 14.5094 11.921 13.8188 11.9383C13.2694 11.9556 12.9961 12.221 12.9961 12.7356V16.533C13.0494 17.0823 13.4121 17.3556 14.0854 17.3556H17.3521L19.2641 19.7996L19.7948 20.6223H21.1761C21.3174 20.6223 21.4414 20.569 21.5481 20.4623C21.6548 20.3556 21.7081 20.2276 21.7081 20.077C21.7081 19.9263 21.6548 19.7983 21.5481 19.6916C21.4414 19.5876 21.3174 19.5343 21.1761 19.5343Z" fill="#2A5578"/>
</g>
</g>
<defs>
<clipPath id="clip0_875_29695">
<rect width="32" height="32" fill="white"/>
</clipPath>
<clipPath id="clip1_875_29695">
<rect width="13.3333" height="13.3333" fill="white" transform="translate(9.33203 9.33594)"/>
</clipPath>
</defs>
</svg>
