<svg width="52" height="43" viewBox="0 0 52 43" fill="none" xmlns="http://www.w3.org/2000/svg">
<path d="M26.5 1C26.5 0.723858 26.2761 0.5 26 0.5C25.7239 0.5 25.5 0.723858 25.5 1H26.5ZM25.5 9.5C25.5 9.77614 25.7239 10 26 10C26.2761 10 26.5 9.77614 26.5 9.5H25.5ZM26.5 34.5C26.5 34.2239 26.2761 34 26 34C25.7239 34 25.5 34.2239 25.5 34.5H26.5ZM23.7799 38C23.5038 38 23.3085 38.3382 23.4466 38.5774L25.6667 42.4226C25.8047 42.6618 26.1953 42.6618 26.3333 42.4226L28.5534 38.5774C28.6915 38.3382 28.4962 38 28.2201 38H23.7799ZM25.5 1V9.5H26.5V1H25.5ZM25.5 34.5V38.5H26.5V34.5H25.5Z" fill="#68A395"/>
<path d="M7.41975 25.5H5.77203L8.28268 18.2273H10.2642L12.7713 25.5H11.1236L9.30186 19.8892H9.24504L7.41975 25.5ZM7.31677 22.6413H11.2088V23.8416H7.31677V22.6413ZM13.5083 27.5455V20.0455H14.9997V20.9616H15.0672C15.1335 20.8149 15.2294 20.6657 15.3549 20.5142C15.4827 20.3603 15.6484 20.2325 15.852 20.1307C16.058 20.0265 16.3137 19.9744 16.6191 19.9744C17.0168 19.9744 17.3837 20.0786 17.7199 20.2869C18.0561 20.4929 18.3248 20.8042 18.526 21.2209C18.7273 21.6352 18.8279 22.1548 18.8279 22.7798C18.8279 23.3883 18.7296 23.902 18.5331 24.321C18.339 24.7377 18.0738 25.0537 17.7377 25.2692C17.4039 25.4822 17.0298 25.5888 16.6155 25.5888C16.3219 25.5888 16.0722 25.5402 15.8662 25.4432C15.6626 25.3461 15.4957 25.2242 15.3655 25.0774C15.2353 24.9283 15.1359 24.7779 15.0672 24.6264H15.021V27.5455H13.5083ZM14.9891 22.7727C14.9891 23.0971 15.0341 23.38 15.124 23.6214C15.214 23.8629 15.3442 24.0511 15.5147 24.1861C15.6851 24.3187 15.8923 24.3849 16.1361 24.3849C16.3823 24.3849 16.5906 24.3175 16.7611 24.1825C16.9316 24.0452 17.0606 23.8558 17.1482 23.6143C17.2381 23.3705 17.2831 23.09 17.2831 22.7727C17.2831 22.4579 17.2393 22.1809 17.1517 21.9418C17.0641 21.7027 16.9351 21.5156 16.7647 21.3807C16.5942 21.2457 16.3847 21.1783 16.1361 21.1783C15.8899 21.1783 15.6816 21.2434 15.5111 21.3736C15.343 21.5038 15.214 21.6884 15.124 21.9276C15.0341 22.1667 14.9891 22.4484 14.9891 22.7727ZM19.7264 27.5455V20.0455H21.2179V20.9616H21.2853C21.3516 20.8149 21.4475 20.6657 21.573 20.5142C21.7008 20.3603 21.8665 20.2325 22.0701 20.1307C22.2761 20.0265 22.5318 19.9744 22.8372 19.9744C23.2349 19.9744 23.6019 20.0786 23.938 20.2869C24.2742 20.4929 24.5429 20.8042 24.7441 21.2209C24.9454 21.6352 25.046 22.1548 25.046 22.7798C25.046 23.3883 24.9477 23.902 24.7512 24.321C24.5571 24.7377 24.292 25.0537 23.9558 25.2692C23.622 25.4822 23.2479 25.5888 22.8336 25.5888C22.5401 25.5888 22.2903 25.5402 22.0843 25.4432C21.8807 25.3461 21.7138 25.2242 21.5836 25.0774C21.4534 24.9283 21.354 24.7779 21.2853 24.6264H21.2392V27.5455H19.7264ZM21.2072 22.7727C21.2072 23.0971 21.2522 23.38 21.3422 23.6214C21.4321 23.8629 21.5623 24.0511 21.7328 24.1861C21.9032 24.3187 22.1104 24.3849 22.3542 24.3849C22.6004 24.3849 22.8088 24.3175 22.9792 24.1825C23.1497 24.0452 23.2787 23.8558 23.3663 23.6143C23.4563 23.3705 23.5012 23.09 23.5012 22.7727C23.5012 22.4579 23.4574 22.1809 23.3699 21.9418C23.2823 21.7027 23.1532 21.5156 22.9828 21.3807C22.8123 21.2457 22.6028 21.1783 22.3542 21.1783C22.108 21.1783 21.8997 21.2434 21.7292 21.3736C21.5611 21.5038 21.4321 21.6884 21.3422 21.9276C21.2522 22.1667 21.2072 22.4484 21.2072 22.7727ZM25.9445 25.5V20.0455H27.4111V20.9972H27.468C27.5674 20.6586 27.7343 20.4029 27.9687 20.2301C28.203 20.0549 28.4729 19.9673 28.7783 19.9673C28.8541 19.9673 28.9358 19.9721 29.0233 19.9815C29.1109 19.991 29.1879 20.004 29.2542 20.0206V21.3629C29.1832 21.3416 29.0849 21.3227 28.9594 21.3061C28.834 21.2895 28.7191 21.2812 28.615 21.2812C28.3924 21.2812 28.1936 21.3298 28.0184 21.4268C27.8456 21.5215 27.7082 21.6541 27.6064 21.8246C27.507 21.995 27.4573 22.1915 27.4573 22.4141V25.5H25.9445ZM32.1369 25.6065C31.5853 25.6065 31.1082 25.4893 30.7058 25.255C30.3057 25.0182 29.9967 24.6892 29.7789 24.2678C29.5611 23.844 29.4522 23.3527 29.4522 22.794C29.4522 22.2306 29.5611 21.7382 29.7789 21.3168C29.9967 20.893 30.3057 20.5639 30.7058 20.3295C31.1082 20.0928 31.5853 19.9744 32.1369 19.9744C32.6885 19.9744 33.1644 20.0928 33.5644 20.3295C33.9669 20.5639 34.277 20.893 34.4948 21.3168C34.7126 21.7382 34.8216 22.2306 34.8216 22.794C34.8216 23.3527 34.7126 23.844 34.4948 24.2678C34.277 24.6892 33.9669 25.0182 33.5644 25.255C33.1644 25.4893 32.6885 25.6065 32.1369 25.6065ZM32.144 24.4347C32.3949 24.4347 32.6045 24.3636 32.7725 24.2216C32.9406 24.0772 33.0673 23.8807 33.1525 23.6321C33.2401 23.3835 33.2839 23.1006 33.2839 22.7834C33.2839 22.4661 33.2401 22.1832 33.1525 21.9347C33.0673 21.6861 32.9406 21.4896 32.7725 21.3452C32.6045 21.2008 32.3949 21.1286 32.144 21.1286C31.8907 21.1286 31.6776 21.2008 31.5048 21.3452C31.3343 21.4896 31.2053 21.6861 31.1177 21.9347C31.0325 22.1832 30.9899 22.4661 30.9899 22.7834C30.9899 23.1006 31.0325 23.3835 31.1177 23.6321C31.2053 23.8807 31.3343 24.0772 31.5048 24.2216C31.6776 24.3636 31.8907 24.4347 32.144 24.4347ZM40.6047 20.0455L38.6977 25.5H36.9932L35.0862 20.0455H36.6842L37.817 23.9482H37.8738L39.0031 20.0455H40.6047ZM43.5788 25.6065C43.0177 25.6065 42.5348 25.4929 42.13 25.2656C41.7275 25.036 41.4174 24.7116 41.1996 24.2926C40.9818 23.8712 40.8729 23.3729 40.8729 22.7976C40.8729 22.2365 40.9818 21.7441 41.1996 21.3203C41.4174 20.8965 41.7239 20.5663 42.1193 20.3295C42.517 20.0928 42.9834 19.9744 43.5185 19.9744C43.8783 19.9744 44.2133 20.0324 44.5234 20.1484C44.8359 20.2621 45.1082 20.4337 45.3402 20.6634C45.5746 20.893 45.7569 21.1818 45.8871 21.5298C46.0173 21.8755 46.0824 22.2803 46.0824 22.7443V23.1598H41.4766V22.2223H44.6584C44.6584 22.0045 44.611 21.8116 44.5163 21.6435C44.4216 21.4754 44.2902 21.344 44.1221 21.2493C43.9564 21.1522 43.7635 21.1037 43.5433 21.1037C43.3137 21.1037 43.1101 21.157 42.9325 21.2635C42.7573 21.3677 42.62 21.5085 42.5206 21.6861C42.4212 21.8613 42.3703 22.0566 42.3679 22.272V23.1634C42.3679 23.4332 42.4176 23.6664 42.517 23.8629C42.6188 24.0594 42.7621 24.2109 42.9467 24.3175C43.1314 24.424 43.3504 24.4773 43.6037 24.4773C43.7718 24.4773 43.9257 24.4536 44.0653 24.4062C44.205 24.3589 44.3246 24.2879 44.424 24.1932C44.5234 24.0985 44.5992 23.9825 44.6513 23.8452L46.0504 23.9375C45.9794 24.2737 45.8338 24.5672 45.6136 24.8182C45.3958 25.0668 45.1141 25.2609 44.7685 25.4006C44.4252 25.5379 44.0286 25.6065 43.5788 25.6065Z" fill="#68A395"/>
</svg>
