<svg width="318" height="228" viewBox="0 0 318 228" fill="none" xmlns="http://www.w3.org/2000/svg">
<g clip-path="url(#clip0_2463_46423)">
<path d="M206.191 85.6616V109.382C206.227 111.417 207.064 113.357 208.52 114.781C209.977 116.205 211.937 116.998 213.975 116.989H299.122C300.145 116.991 301.159 116.792 302.105 116.403C303.051 116.013 303.91 115.441 304.635 114.72C305.359 113.998 305.934 113.141 306.327 112.198C306.719 111.254 306.921 110.242 306.922 109.221V89.1693L317.523 78.0435L213.986 77.7207C212.95 77.7241 211.925 77.933 210.971 78.3352C210.017 78.7374 209.152 79.325 208.427 80.0637C207.702 80.8025 207.131 81.6778 206.747 82.6387C206.363 83.5997 206.174 84.6272 206.191 85.6616Z" fill="#F5F5F5"/>
<path d="M294.35 92.0963L217.057 91.7359L217.067 89.3633L294.355 89.7237L294.35 92.0963Z" fill="#E0E0E0"/>
<path d="M294.35 99.903L217.057 99.5425L217.067 97.1699L294.355 97.5304L294.35 99.903Z" fill="#E0E0E0"/>
<path d="M263.77 104.984L263.759 107.356L294.339 107.506L294.35 105.133L263.77 104.984Z" fill="#E0E0E0"/>
<path d="M61.0049 206.588C72.9148 198.276 75.6135 182.852 75.1449 168.982C75.0641 166.669 75.3173 164.226 74.2184 162.198C73.1195 160.17 70.5447 158.776 68.4654 159.755C66.7471 160.562 65.9983 162.564 65.0341 164.215C63.7483 166.422 61.8641 168.219 59.599 169.402C58.123 170.166 56.2969 170.634 54.8425 169.832C52.8387 168.729 52.6071 165.969 52.6178 163.667L52.6987 150.798C52.6987 148.495 52.6986 146.144 52.0038 143.96C51.3089 141.775 49.7037 139.747 47.5113 139.118C45.3189 138.488 42.6094 139.763 42.1246 142.018C41.9307 142.954 42.1246 143.927 42.0546 144.885C41.9846 145.843 41.5483 146.897 40.6379 147.166C39.7276 147.435 38.7957 146.784 38.1062 146.09C35.7253 143.766 34.1146 140.775 32.6064 137.794C31.0981 134.814 29.6329 131.769 27.4729 129.235C25.3128 126.701 22.3286 124.689 19.0266 124.5C15.7246 124.312 12.2071 126.351 11.3775 129.59C10.548 132.829 12.4549 136.126 14.4964 138.736C17.5558 142.641 21.1645 146.084 25.2105 148.958C25.9377 149.496 26.7241 150.034 27.0043 150.878C27.4998 152.417 26.0454 153.94 24.5318 154.445C22.8134 155.016 20.9443 154.838 19.1451 155.048C17.346 155.258 15.3744 156.054 14.7227 157.738C13.7746 160.089 15.7461 162.58 17.6853 164.194C21.5701 167.432 25.9831 169.98 30.7318 171.726C32.4232 172.345 34.2116 172.888 35.5798 174.077C36.948 175.266 37.7722 177.337 36.948 178.957C36.1239 180.576 34.0015 181.109 32.2239 180.77C30.4463 180.431 28.8626 179.479 27.1658 178.844C23.9985 177.649 19.91 177.865 17.8792 180.603C16.5487 182.4 16.4302 184.907 17.1036 187.059C17.7769 189.211 19.1451 191.046 20.5995 192.746C25.6737 198.696 32.1754 203.506 39.5229 206.029C46.8703 208.552 53.679 209.257 60.9833 206.599" fill="#F5F5F5"/>
<path d="M61.1832 216.864C60.5377 210.435 59.275 204.082 57.4125 197.894C55.1098 190.34 52.3724 182.925 49.214 175.686C48.3916 173.752 47.5764 171.848 46.7684 169.972C45.9604 168.1 45.1524 166.244 44.2636 164.474C42.5386 161.083 40.627 157.791 38.5376 154.612C36.5607 151.562 34.5784 148.737 32.6985 146.112C30.8185 143.486 29.0194 141.081 27.3118 138.951C24.5917 135.579 21.607 132.429 18.3861 129.53C17.2495 128.503 16.3392 127.734 15.6928 127.222L14.9656 126.636C14.8893 126.567 14.8063 126.506 14.7178 126.453C14.7854 126.531 14.8592 126.603 14.9386 126.668L15.6227 127.282C16.226 127.82 17.1202 128.6 18.2353 129.643C21.4048 132.582 24.3488 135.755 27.0425 139.134C28.7554 141.286 30.5384 143.68 32.4022 146.311C34.266 148.942 36.2375 151.766 38.1983 154.816C40.2728 157.99 42.1717 161.275 43.8866 164.657C44.7754 166.416 45.5672 168.256 46.3752 170.133L48.8208 175.842C51.9707 183.068 54.7132 190.464 57.0354 197.996C58.9047 204.159 60.1906 210.483 60.8761 216.886" fill="#E0E0E0"/>
<path d="M44.1446 164.457C44.2581 164.141 44.334 163.812 44.3709 163.478C44.4948 162.843 44.6348 161.913 44.7964 160.788C45.125 158.496 45.4644 155.317 45.8307 151.809C46.197 148.301 46.5794 145.132 46.9403 142.851C47.1181 141.711 47.2689 140.791 47.382 140.161C47.4622 139.835 47.5056 139.502 47.5113 139.166C47.3794 139.475 47.2819 139.798 47.2204 140.129C47.0588 140.753 46.8595 141.673 46.644 142.819C46.2077 145.095 45.7714 148.269 45.4105 151.787L44.5002 160.772C44.387 161.848 44.2847 162.763 44.2093 163.494C44.1547 163.812 44.133 164.135 44.1446 164.457Z" fill="#E0E0E0"/>
<path d="M14.5127 158.916C14.9001 159.002 15.2954 159.049 15.6924 159.055C16.4519 159.125 17.5562 159.217 18.9244 159.373C21.6177 159.669 25.3884 160.201 29.4715 160.987C33.5546 161.772 37.2444 162.628 39.8839 163.327C41.2036 163.672 42.2702 163.973 43.0082 164.183C43.3833 164.31 43.7691 164.404 44.1609 164.462C43.8161 164.283 43.4554 164.135 43.0836 164.021C42.3564 163.768 41.306 163.419 39.9862 163.037C37.3629 162.262 33.6838 161.347 29.5738 160.567C26.0716 159.892 22.5368 159.398 18.9836 159.088C17.6208 158.969 16.5111 158.921 15.7516 158.91C15.3394 158.872 14.9245 158.874 14.5127 158.916Z" fill="#E0E0E0"/>
<path d="M57.0566 197.351C57.1375 197.24 57.2044 197.118 57.2559 196.991C57.396 196.7 57.563 196.345 57.7623 195.915C58.1986 194.979 58.7965 193.617 59.5076 191.917C60.9404 188.528 62.7665 183.783 64.7111 178.521C66.6557 173.26 68.4387 168.498 69.7961 165.071L71.4121 161.031C71.5845 160.59 71.7245 160.224 71.843 159.955C71.9063 159.83 71.9482 159.695 71.9669 159.557C71.8855 159.67 71.8185 159.793 71.7676 159.922C71.6276 160.208 71.4606 160.563 71.2613 160.998C70.825 161.935 70.227 163.296 69.516 164.996C68.0831 168.385 66.2571 173.13 64.3125 178.397C62.3679 183.664 60.5849 188.415 59.2275 191.847C58.5595 193.51 58.0155 194.876 57.6115 195.888C57.4391 196.329 57.299 196.695 57.1805 196.991C57.1217 197.104 57.0799 197.226 57.0566 197.351Z" fill="#E0E0E0"/>
<path d="M17.6582 184.676C17.7829 184.743 17.9148 184.795 18.0514 184.832L19.1934 185.219L23.4112 186.58C26.9717 187.737 31.8682 189.383 37.2818 191.213C42.6954 193.042 47.6135 194.65 51.201 195.732C52.9894 196.27 54.433 196.695 55.4564 196.964L56.6253 197.27C56.7601 197.313 56.8993 197.34 57.0401 197.351C56.9166 197.281 56.7844 197.226 56.6469 197.19L55.5049 196.808L51.2872 195.441C47.7266 194.29 42.8247 192.638 37.4165 190.809C32.0083 188.98 27.0849 187.371 23.4973 186.29C21.709 185.752 20.2654 185.327 19.2419 185.058L18.0891 184.74C17.9497 184.697 17.8043 184.675 17.6582 184.676Z" fill="#E0E0E0"/>
<path d="M88.4823 61.113V79.4965C88.4823 81.0937 87.8474 82.6255 86.7172 83.7553C85.5869 84.8852 84.0538 85.5207 82.4546 85.5221H16.4572C14.8581 85.5207 13.3249 84.8852 12.1946 83.7553C11.0644 82.6255 10.4295 81.0937 10.4295 79.4965V63.9644L2.21484 55.3564L82.4385 55.0821C83.2323 55.0799 84.0187 55.2344 84.7526 55.5367C85.4865 55.839 86.1534 56.283 86.715 56.8434C87.2765 57.4038 87.7217 58.0695 88.025 58.8022C88.3283 59.5349 88.4837 60.3202 88.4823 61.113Z" fill="#E0E0E0"/>
<path d="M20.1577 66.2296L80.0467 65.9552L80.0413 64.1152L20.1523 64.3896L20.1577 66.2296Z" fill="#FAFAFA"/>
<path d="M20.1577 72.2765L80.0467 72.0021L80.0413 70.1621L20.1523 70.4419L20.1577 72.2765Z" fill="#FAFAFA"/>
<path d="M43.8402 76.2246L20.1445 76.3402L20.1535 78.1802L43.8492 78.0645L43.8402 76.2246Z" fill="#FAFAFA"/>
<path d="M55.7773 95.0382V221.468C55.7773 224.9 58.5628 227.682 61.9989 227.682H249.078C252.514 227.682 255.299 224.9 255.299 221.468V95.0382C255.299 91.6063 252.514 88.8242 249.078 88.8242H61.9989C58.5628 88.8242 55.7773 91.6063 55.7773 95.0382Z" fill="#111B23"/>
<path d="M69.4268 93.2031V223.308H236.053V93.2031H69.4268Z" fill="white"/>
<path d="M250.482 159.491C251.156 156.628 249.378 153.761 246.511 153.088C243.644 152.414 240.773 154.19 240.099 157.053C239.425 159.917 241.203 162.784 244.07 163.457C246.937 164.13 249.808 162.355 250.482 159.491Z" fill="#2A5578"/>
<path d="M61.5195 137.998V178.51C61.5195 178.872 61.8138 179.166 62.1767 179.166H63.0655C63.4284 179.166 63.7227 178.872 63.7227 178.51V137.998C63.7227 137.636 63.4284 137.342 63.0655 137.342H62.1767C61.8138 137.342 61.5195 137.636 61.5195 137.998Z" fill="#2A5578"/>
<path d="M184.815 120.454C184.815 120.535 170.346 120.6 152.495 120.6C134.643 120.6 120.175 120.535 120.175 120.454C120.175 120.374 134.638 120.314 152.495 120.314C170.352 120.314 184.815 120.379 184.815 120.454Z" fill="#111B23"/>
<path d="M168.924 116.581C168.924 116.662 161.781 116.726 152.969 116.726C144.156 116.726 137.008 116.662 137.008 116.581C137.008 116.5 144.151 116.436 152.969 116.436C161.786 116.436 168.924 116.5 168.924 116.581Z" fill="#111B23"/>
<path d="M177.731 157.678C177.731 157.678 177.731 157.554 177.699 157.307L177.629 156.231C177.629 155.994 177.602 155.725 177.586 155.435C177.57 155.144 177.489 154.827 177.441 154.482C177.392 154.138 177.327 153.767 177.263 153.374C177.185 152.953 177.087 152.537 176.967 152.126C176.433 149.994 175.579 147.955 174.435 146.079C172.941 143.576 170.979 141.384 168.655 139.623L167.669 138.896C167.324 138.671 166.964 138.461 166.592 138.24C166.22 138.02 165.875 137.777 165.482 137.6L164.303 137.035L163.705 136.75L163.074 136.524L161.792 136.056C161.361 135.911 160.904 135.819 160.456 135.701C160.006 135.566 159.547 135.462 159.083 135.389C158.135 135.212 157.175 135.1 156.212 135.055C155.722 135.055 155.226 134.991 154.73 135.001L153.228 135.077C152.974 135.077 152.721 135.077 152.468 135.125L151.708 135.243C151.208 135.324 150.69 135.383 150.184 135.491C149.156 135.717 148.144 136.014 147.157 136.379C146.141 136.743 145.151 137.177 144.194 137.675C143.715 137.939 143.257 138.24 142.783 138.52C142.551 138.671 142.303 138.794 142.083 138.961L141.415 139.461C140.51 140.133 139.65 140.862 138.84 141.646L137.687 142.915L137.396 143.238L137.132 143.582L136.593 144.276L136.055 144.97L135.597 145.718L135.139 146.472L134.913 146.848L134.719 147.241L133.949 148.855L133.335 150.533C131.772 155.174 131.772 160.198 133.335 164.839C133.545 165.377 133.749 165.958 133.954 166.517C134.159 167.077 134.466 167.593 134.724 168.131L134.918 168.53L135.144 168.906L135.602 169.654L136.06 170.402L136.599 171.101L137.138 171.795L137.396 172.139L137.687 172.457L138.84 173.727C139.649 174.512 140.509 175.243 141.415 175.916L142.088 176.411C142.309 176.583 142.557 176.707 142.788 176.858C143.262 177.138 143.72 177.439 144.199 177.702C146.095 178.682 148.108 179.416 150.189 179.887C150.696 179.994 151.213 180.053 151.719 180.134L152.473 180.253C152.727 180.285 152.98 180.285 153.233 180.301L154.736 180.376C155.231 180.376 155.727 180.339 156.217 180.322C157.181 180.278 158.14 180.166 159.088 179.989C159.552 179.913 160.011 179.809 160.462 179.677C160.914 179.559 161.367 179.462 161.803 179.322L163.08 178.854L163.71 178.628L164.308 178.343L165.488 177.778C165.868 177.584 166.239 177.37 166.597 177.138C166.958 176.917 167.324 176.707 167.675 176.481L168.655 175.749C170.981 173.989 172.945 171.797 174.44 169.293C175.584 167.408 176.436 165.36 176.967 163.219C177.086 162.811 177.185 162.396 177.263 161.977C177.327 161.584 177.387 161.213 177.441 160.868C177.494 160.524 177.554 160.207 177.586 159.916C177.618 159.626 177.618 159.378 177.629 159.12C177.661 158.652 177.683 158.291 177.699 158.044C177.715 157.796 177.731 157.673 177.731 157.673C177.731 157.673 177.731 157.796 177.731 158.044C177.731 158.291 177.705 158.657 177.688 159.12C177.688 159.362 177.688 159.658 177.656 159.922C177.624 160.185 177.57 160.535 177.527 160.879C177.484 161.223 177.419 161.6 177.36 161.998C177.286 162.419 177.19 162.835 177.074 163.246C176.562 165.401 175.721 167.464 174.58 169.363C173.088 171.89 171.119 174.104 168.784 175.884L167.793 176.626C167.448 176.858 167.082 177.068 166.716 177.294C166.349 177.519 165.994 177.762 165.595 177.939L164.41 178.515L163.807 178.821L163.171 179.053L161.884 179.526C161.442 179.677 160.984 179.768 160.532 179.892C160.075 180.027 159.611 180.135 159.142 180.215C158.183 180.394 157.213 180.507 156.239 180.554C155.748 180.554 155.248 180.624 154.747 180.618L153.228 180.543C152.969 180.543 152.689 180.543 152.457 180.495L151.692 180.376C151.181 180.296 150.658 180.236 150.146 180.129C149.106 179.897 148.083 179.599 147.081 179.236C146.055 178.867 145.054 178.431 144.086 177.928C143.596 177.665 143.133 177.358 142.653 177.073C142.408 176.937 142.171 176.788 141.942 176.626L141.264 176.121C140.347 175.444 139.476 174.707 138.657 173.915L137.488 172.629L137.191 172.306L136.927 171.957L136.389 171.257L135.85 170.547L135.387 169.794L134.924 169.035L134.692 168.653L134.498 168.25L133.717 166.636C133.507 166.071 133.302 165.501 133.092 164.936C131.512 160.237 131.512 155.151 133.092 150.453L133.717 148.753L134.498 147.139L134.697 146.735L134.929 146.353L135.392 145.595L135.856 144.841L136.394 144.137L136.933 143.432L137.197 143.082L137.488 142.759C137.881 142.334 138.269 141.904 138.657 141.479C139.477 140.686 140.348 139.948 141.264 139.268L141.942 138.762C142.169 138.595 142.416 138.466 142.653 138.315C143.133 138.036 143.602 137.729 144.086 137.465C145.054 136.963 146.055 136.526 147.081 136.158C148.083 135.795 149.106 135.496 150.146 135.265C150.658 135.157 151.181 135.098 151.692 135.017L152.457 134.899C152.71 134.867 152.969 134.867 153.222 134.851L154.741 134.775C155.248 134.775 155.743 134.818 156.239 134.84C157.213 134.886 158.183 135 159.142 135.179C159.611 135.26 160.075 135.366 160.532 135.496C160.984 135.625 161.442 135.717 161.879 135.862L163.171 136.336L163.807 136.572L164.41 136.863L165.601 137.433C165.999 137.616 166.349 137.874 166.716 138.084C167.082 138.294 167.448 138.52 167.793 138.751L168.784 139.494C171.118 141.27 173.087 143.481 174.58 146.003C175.721 147.898 176.563 149.955 177.08 152.104C177.177 152.551 177.322 152.96 177.365 153.358C177.408 153.756 177.478 154.127 177.532 154.477C177.586 154.827 177.634 155.139 177.661 155.435C177.688 155.73 177.661 155.973 177.694 156.231C177.694 156.704 177.726 157.065 177.737 157.307C177.748 157.549 177.731 157.678 177.731 157.678Z" fill="#F3C262"/>
<path d="M236.053 93.2031H69.4268V101.504H236.053V93.2031Z" fill="#E0E0E0"/>
<path d="M74.8034 97.1264C74.8034 97.3488 74.7374 97.5662 74.6137 97.7511C74.4899 97.936 74.3141 98.0801 74.1084 98.1652C73.9027 98.2503 73.6763 98.2726 73.4579 98.2292C73.2396 98.1858 73.039 98.0787 72.8815 97.9215C72.7241 97.7642 72.6168 97.5639 72.5734 97.3457C72.53 97.1276 72.5522 96.9015 72.6375 96.6961C72.7227 96.4906 72.867 96.315 73.0521 96.1915C73.2372 96.0679 73.4549 96.002 73.6776 96.002C73.9762 96.002 74.2625 96.1204 74.4736 96.3313C74.6848 96.5422 74.8034 96.8282 74.8034 97.1264Z" fill="white"/>
<path d="M78.5417 97.1264C78.5417 97.3488 78.4756 97.5662 78.3519 97.7511C78.2282 97.936 78.0524 98.0801 77.8467 98.1652C77.641 98.2503 77.4146 98.2726 77.1962 98.2292C76.9778 98.1858 76.7772 98.0787 76.6198 97.9215C76.4623 97.7642 76.3551 97.5639 76.3117 97.3457C76.2682 97.1276 76.2905 96.9015 76.3757 96.6961C76.4609 96.4906 76.6052 96.315 76.7904 96.1915C76.9755 96.0679 77.1932 96.002 77.4159 96.002C77.7144 96.002 78.0008 96.1204 78.2119 96.3313C78.4231 96.5422 78.5417 96.8282 78.5417 97.1264Z" fill="white"/>
<path d="M82.2848 97.1264C82.2848 97.3488 82.2188 97.5662 82.0951 97.7511C81.9714 97.936 81.7956 98.0801 81.5898 98.1652C81.3841 98.2503 81.1578 98.2726 80.9394 98.2292C80.721 98.1858 80.5204 98.0787 80.3629 97.9215C80.2055 97.7642 80.0983 97.5639 80.0548 97.3457C80.0114 97.1276 80.0337 96.9015 80.1189 96.6961C80.2041 96.4906 80.3484 96.315 80.5335 96.1915C80.7187 96.0679 80.9364 96.002 81.159 96.002C81.4572 96.0034 81.7427 96.1223 81.9535 96.3329C82.1643 96.5434 82.2834 96.8286 82.2848 97.1264Z" fill="white"/>
<path d="M217.674 127.001C217.674 127.082 188.763 127.146 153.104 127.146C117.444 127.146 88.5283 127.082 88.5283 127.001C88.5283 126.92 117.439 126.861 153.104 126.861C188.769 126.861 217.674 126.926 217.674 127.001Z" fill="#E0E0E0"/>
<path d="M217.674 130.202C217.674 130.277 188.763 130.342 153.104 130.342C117.444 130.342 88.5283 130.277 88.5283 130.202C88.5283 130.127 117.439 130.057 153.104 130.057C188.769 130.057 217.674 130.121 217.674 130.202Z" fill="#E0E0E0"/>
<path d="M132.941 89.7011C132.941 89.7011 131.804 87.124 131.589 86.5591C131.013 85.0151 127.28 74.6693 128.179 73.1091C132.311 65.8623 135.516 60.7351 143.666 60.7351L158.064 60.6383C158.064 60.6383 171.704 57.8622 181.319 88.851L132.941 89.7011Z" fill="#2A5578"/>
<path d="M102.571 92.2943L121.425 88.2377L143.585 76.6008L143.666 60.7137C140.343 59.7991 133.97 62.1017 122.524 67.9282L105.507 76.703C104.145 77.4044 102.96 78.4072 102.044 79.6349C101.128 80.8626 100.505 82.2829 100.222 83.7876C99.9391 85.2922 100.003 86.8416 100.411 88.3176C100.818 89.7936 101.557 91.1574 102.571 92.305V92.2943Z" fill="#2A5578"/>
<path d="M144.997 123.047C144.722 122.154 144.911 121.578 146.215 122.019C149.091 122.983 151.66 122.665 152.285 122.111C152.91 121.557 152.339 120.497 151.402 120.578C150.378 120.575 149.36 120.434 148.375 120.158C147.575 119.968 146.812 119.646 146.118 119.206C145.514 118.824 144.997 118.463 144.539 118.13C144.539 118.13 141.884 116.214 141.054 114.676L131.956 118.566L133.421 123.117C133.595 123.915 133.968 124.656 134.506 125.271C135.044 125.886 135.729 126.356 136.497 126.636C139.099 127.48 143.236 127.174 143.236 127.174C143.995 126.679 146.92 130.907 147.809 132.397C148.698 133.888 149.748 134.076 150.093 133.167C150.325 132.543 147.723 127.911 146.818 126.453C146.087 125.384 145.477 124.238 144.997 123.036" fill="#B77153"/>
<path d="M138.834 127.172C138.834 127.205 138.608 127.172 138.296 127.043C137.892 126.838 137.559 126.515 137.342 126.118C137.119 125.724 137.016 125.273 137.046 124.821C137.078 124.477 137.186 124.283 137.218 124.283C137.178 124.867 137.309 125.45 137.596 125.961C137.884 126.471 138.314 126.887 138.834 127.156V127.172Z" fill="#995037"/>
<path d="M141.721 127.308C141.721 127.34 141.506 127.308 141.215 127.163C140.837 126.951 140.529 126.635 140.326 126.253C140.118 125.874 140.021 125.443 140.046 125.011C140.078 124.682 140.17 124.473 140.207 124.51C140.224 125.067 140.35 125.616 140.579 126.124C140.881 126.587 141.269 126.989 141.721 127.308Z" fill="#995037"/>
<path d="M102.032 91.6652C102.032 91.6652 130.916 124.817 130.878 124.268C130.84 123.719 143.806 114.046 143.806 114.046L115.51 80.3672L102.032 91.6652Z" fill="#2A5578"/>
<path d="M119.55 85.166C119.55 85.166 119.625 85.2252 119.755 85.3597L120.293 85.9623L122.232 88.2003C123.848 90.0941 126.095 92.7303 128.551 95.6516C131.007 98.573 133.221 101.231 134.81 103.184L136.679 105.481L137.18 106.116C137.288 106.261 137.347 106.342 137.337 106.347C137.262 106.291 137.195 106.226 137.137 106.153L136.599 105.551C136.108 105.013 135.457 104.233 134.659 103.313C133.043 101.419 130.792 98.7828 128.335 95.8615C125.879 92.9401 123.671 90.2824 122.076 88.3295L120.207 86.0322C120.008 85.7793 119.841 85.5695 119.711 85.3974C119.649 85.3269 119.594 85.2492 119.55 85.166Z" fill="#111B23"/>
<path d="M170.643 88.9747C170.838 88.2725 170.953 87.5507 170.987 86.8227C171.005 85.9607 170.848 85.104 170.523 84.3049C170.199 83.5058 169.716 82.7809 169.102 82.1744C168.402 81.4373 167.648 80.8025 167.039 80.1354C166.482 79.5547 166.043 78.8713 165.746 78.1233C165.543 77.6109 165.462 77.0583 165.509 76.5093C165.52 76.3092 165.571 76.1134 165.66 75.9336C165.564 76.645 165.658 77.3691 165.935 78.0318C166.25 78.7407 166.69 79.3875 167.233 79.9417C167.836 80.5819 168.59 81.206 169.307 81.9592C170.006 82.6605 170.538 83.51 170.864 84.4448C171.122 85.2061 171.233 86.0093 171.192 86.812C171.167 87.3513 171.064 87.8841 170.885 88.3937C170.837 88.5994 170.755 88.7958 170.643 88.9747Z" fill="#111B23"/>
<path d="M131.686 63.4749C131.686 63.4749 131.832 63.3996 132.107 63.2759C132.381 63.1521 132.807 62.9961 133.356 62.8239C134.03 62.6168 134.723 62.4762 135.425 62.4043C136.363 62.3026 137.312 62.3904 138.215 62.6625C139.31 63.0101 140.293 63.6413 141.065 64.4917C141.941 65.4865 142.539 66.6946 142.799 67.9941C143.125 69.4043 143.218 70.8581 143.074 72.2981C142.902 73.8447 142.347 75.3241 141.458 76.6021C140.519 77.8387 139.346 78.8789 138.005 79.6633C136.739 80.4596 135.468 81.1052 134.261 81.74L127.846 85.1079L123.536 87.3514L122.351 87.9485C122.216 88.0255 122.074 88.0886 121.926 88.1368C122.053 88.0474 122.186 87.9665 122.324 87.8947L123.483 87.2491L127.792 84.925L134.17 81.5087C135.371 80.8685 136.648 80.2121 137.892 79.4212C139.199 78.6535 140.344 77.6394 141.264 76.4353C142.123 75.1897 142.657 73.7488 142.815 72.2443C142.956 70.841 142.87 69.4243 142.562 68.0479C142.326 66.799 141.769 65.6329 140.946 64.6639C140.21 63.8328 139.265 63.2126 138.21 62.867C137.34 62.5942 136.425 62.4936 135.516 62.5711C134.822 62.6303 134.135 62.7545 133.464 62.9423C132.925 63.0983 132.489 63.2382 132.204 63.3404C132.037 63.406 131.864 63.4512 131.686 63.4749Z" fill="#111B23"/>
<path d="M122.729 88.2067C122.632 88.2336 122.395 86.3022 121.113 84.36C119.831 82.4178 118.193 81.3956 118.258 81.3203C118.652 81.4759 119.016 81.6979 119.335 81.9767C120.934 83.24 122.07 84.995 122.567 86.9693C122.692 87.3694 122.747 87.788 122.729 88.2067Z" fill="#111B23"/>
<path d="M165.175 84.6017C164.976 84.6758 164.771 84.7316 164.561 84.7684C163.961 84.884 163.348 84.9112 162.74 84.8491C161.774 84.7493 160.841 84.4429 160.004 83.9507C158.89 83.288 158.007 82.2978 157.478 81.1154C156.824 79.6784 156.7 78.0566 157.128 76.537C157.369 75.6755 157.909 74.9279 158.652 74.4281C159.058 74.1592 159.552 74.0571 160.031 74.1429C160.513 74.2544 160.938 74.5374 161.227 74.9392C161.759 75.7862 162.094 76.742 162.206 77.7358C162.317 78.7295 162.204 79.7357 161.873 80.6796C161.551 81.6897 160.998 82.6108 160.257 83.3696C159.48 84.1452 158.512 84.702 157.451 84.9836C156.405 85.2719 155.303 85.2908 154.248 85.0387C153.193 84.7865 152.219 84.2716 151.418 83.5418C150.703 82.8399 150.167 81.9777 149.853 81.027C149.539 80.0763 149.457 79.0645 149.613 78.0757C149.75 77.1548 150.121 76.2842 150.691 75.5471C150.975 75.187 151.345 74.9039 151.768 74.724C152.192 74.5488 152.669 74.5488 153.093 74.724C153.476 74.9029 153.806 75.1769 154.052 75.5198C154.298 75.8627 154.452 76.263 154.499 76.6823C154.558 77.4401 154.407 78.1997 154.063 78.8773C153.491 80.0273 152.713 81.063 151.768 81.9332C151.061 82.5892 150.269 83.1483 149.414 83.5956C148.876 83.8804 148.313 84.1163 147.733 84.3004C147.539 84.3649 147.383 84.3972 147.281 84.4241C147.229 84.4418 147.174 84.4527 147.119 84.4564C147.166 84.4292 147.217 84.4092 147.27 84.3972C147.372 84.3596 147.523 84.3165 147.717 84.2412C148.284 84.0378 148.833 83.7895 149.36 83.4988C150.196 83.0382 150.969 82.4723 151.66 81.8148C152.576 80.9506 153.328 79.9281 153.879 78.7966C154.199 78.1498 154.337 77.4282 154.278 76.7092C154.232 76.3312 154.091 75.971 153.868 75.6623C153.644 75.3537 153.346 75.1067 153.001 74.9446C152.636 74.7939 152.225 74.7939 151.859 74.9446C151.478 75.1102 151.144 75.3692 150.89 75.6978C150.341 76.4 149.985 77.2323 149.856 78.1134C149.709 79.0583 149.79 80.0245 150.091 80.932C150.393 81.8395 150.907 82.6622 151.59 83.332C152.359 84.0208 153.289 84.5047 154.295 84.7388C155.3 84.973 156.349 84.9499 157.343 84.6716C158.359 84.4179 159.289 83.8979 160.036 83.1652C160.751 82.4466 161.287 81.5716 161.604 80.6097C161.911 79.6795 162.019 78.6953 161.922 77.7206C161.881 77.2493 161.781 76.7848 161.625 76.338C161.496 75.8993 161.292 75.4862 161.022 75.1167C160.77 74.7636 160.399 74.5133 159.977 74.4119C159.563 74.3365 159.136 74.4253 158.787 74.6594C158.089 75.1143 157.577 75.8031 157.343 76.6016C156.92 78.0671 157.027 79.6346 157.645 81.0293C158.148 82.1844 158.997 83.1559 160.074 83.8108C160.886 84.3064 161.796 84.6219 162.74 84.7362C163.554 84.8268 164.377 84.7813 165.175 84.6017Z" fill="#FAFAFA"/>
<path d="M167.352 52.3211C166.738 51.575 166.299 50.7021 166.064 49.7656C165.968 49.4643 165.956 49.1422 166.032 48.8349C166.071 48.6804 166.16 48.5433 166.286 48.4458C166.412 48.3482 166.567 48.2958 166.727 48.2969C167.05 48.2969 167.265 48.6251 167.443 48.8995C167.97 49.6912 168.414 50.5349 168.768 51.4173C168.873 51.6585 168.926 51.9186 168.925 52.1813C168.923 52.3124 168.888 52.4411 168.823 52.555C168.758 52.6689 168.665 52.7644 168.553 52.8322C168.42 52.8896 168.275 52.9099 168.131 52.891C167.988 52.872 167.853 52.8145 167.739 52.7246C167.523 52.5411 167.341 52.3207 167.201 52.0737" fill="#995037"/>
<path d="M168.736 51.7234L167.314 48.7429C167.153 48.4579 167.052 48.143 167.017 47.8175C167.004 47.6541 167.04 47.4903 167.122 47.348C167.204 47.2058 167.327 47.0918 167.475 47.0213C167.613 46.9818 167.758 46.9799 167.897 47.0159C168.035 47.0519 168.161 47.1243 168.262 47.2257C168.465 47.4264 168.627 47.6637 168.741 47.9251L169.415 49.2325C169.614 49.5789 169.763 49.9521 169.856 50.3407C169.902 50.5365 169.906 50.7398 169.868 50.9372C169.83 51.1347 169.751 51.3219 169.635 51.4867C169.512 51.6459 169.338 51.7579 169.142 51.804C168.945 51.85 168.739 51.8273 168.558 51.7395" fill="#995037"/>
<path d="M162.406 60.9402C162.406 60.9402 160.424 58.3739 160.251 57.0236C160.079 55.6732 161.733 53.2576 165.293 52.7196C166.593 52.5833 167.845 52.1567 168.956 51.4714C169.175 51.3231 169.336 51.104 169.411 50.8511C169.487 50.5983 169.473 50.3271 169.371 50.0834C168.902 48.9482 168.062 46.8554 168.127 46.5595C168.294 45.8332 168.768 45.8493 169.996 47.6355C171.224 49.4216 172.652 51.2616 172.377 52.0901C172.102 52.9186 167.76 55.4849 167.76 55.4849L168.946 57.3948L162.406 60.9402Z" fill="#B77153"/>
<path d="M174.182 87.3229L160.516 60.5789L169.317 55.6562L187.804 84.9235C187.804 84.9235 188.779 86.7957 190.142 88.9853H174.645" fill="#2A5578"/>
<path d="M169.194 55.6562C169.194 55.6562 169.145 55.6994 169.043 55.7639L168.58 56.0436L166.813 57.0713L160.457 60.6866L160.505 60.5252C161.836 63.2152 163.565 66.3624 165.305 69.768C167.896 74.7983 170.153 79.4089 171.715 82.7661C172.501 84.4446 173.126 85.8112 173.552 86.7527C173.751 87.21 173.913 87.5704 174.031 87.8286C174.095 87.9521 174.146 88.082 174.182 88.2161C174.101 88.1015 174.033 87.9788 173.977 87.8502C173.848 87.5812 173.67 87.2262 173.439 86.7743L171.521 82.8253C169.905 79.4951 167.632 74.9006 165.057 69.8703C163.317 66.4701 161.599 63.3335 160.29 60.6112L160.241 60.5037L160.344 60.4445L166.748 56.9206L168.553 55.9468L169.032 55.6993C169.084 55.6778 169.138 55.6634 169.194 55.6562Z" fill="#111B23"/>
<path d="M132.942 89.7018C131.762 87.784 130.986 85.6457 130.663 83.418C130.749 83.418 131.121 84.849 131.74 86.576C132.36 88.303 133.017 89.6642 132.942 89.7018Z" fill="#111B23"/>
<path d="M163.042 50.2778C164.128 50.7176 165.328 50.7918 166.46 50.4892C167.592 50.1865 168.594 49.5235 169.314 48.6006C170.035 47.6778 170.434 46.5454 170.453 45.3753C170.471 44.2051 170.106 43.061 169.415 42.1163C172.501 41.3362 174.424 37.7801 173.799 34.6597C173.174 31.5393 170.39 29.1075 167.276 28.435C166.086 28.1499 164.841 28.1814 163.667 28.5265C163.083 28.7054 162.543 29.0028 162.079 29.3999C161.616 29.7971 161.239 30.2854 160.974 30.8345" fill="#111B23"/>
<path d="M162.606 43.3052C162.606 43.3374 162.207 43.4128 161.555 43.7517C160.638 44.239 159.912 45.0196 159.492 45.9683C159.184 46.6626 159.054 47.4228 159.114 48.1801C159.174 48.9373 159.422 49.6676 159.837 50.3045C160.073 50.6723 160.364 51.0025 160.699 51.2837C161.042 51.582 161.432 51.8235 161.851 51.9993C162.735 52.3815 163.718 52.4723 164.656 52.2585C165.595 52.0447 166.441 51.5373 167.071 50.8103C167.372 50.4683 167.617 50.0817 167.798 49.6643C167.976 49.2658 168.094 48.8435 168.148 48.4108C168.226 47.7785 168.172 47.1369 167.989 46.5266C167.806 45.9163 167.498 45.3505 167.085 44.8651C166.672 44.3797 166.163 43.9852 165.589 43.7065C165.016 43.4278 164.39 43.271 163.753 43.246C163.015 43.2191 162.611 43.3374 162.606 43.2998C162.698 43.26 162.796 43.2328 162.896 43.2191C163.178 43.159 163.465 43.1301 163.753 43.133C164.666 43.135 165.559 43.4014 166.324 43.8998C167.089 44.3982 167.693 45.1073 168.062 45.9414C168.41 46.7246 168.538 47.5873 168.434 48.4377C168.387 48.8973 168.265 49.3461 168.073 49.7665C167.887 50.2126 167.628 50.6252 167.308 50.9878C166.641 51.763 165.743 52.3042 164.745 52.5317C163.747 52.7593 162.703 52.6613 161.765 52.2521C161.321 52.0614 160.91 51.8018 160.548 51.4828C160.194 51.1856 159.889 50.8353 159.643 50.4444C159.184 49.7212 158.926 48.8896 158.894 48.0342C158.864 47.1277 159.097 46.2318 159.564 45.454C160.031 44.6763 160.713 44.0497 161.528 43.6495C161.787 43.5192 162.06 43.4199 162.342 43.3536C162.427 43.3275 162.516 43.3113 162.606 43.3052Z" fill="#F3C262"/>
<path d="M164.943 34.8255C166.067 34.7617 167.142 34.3418 168.01 33.6267C168.879 32.9115 169.497 31.9385 169.775 30.8487C170.052 29.759 169.975 28.6093 169.553 27.5665C169.132 26.5238 168.389 25.6423 167.432 25.0501C167.895 23.752 167.939 22.3411 167.555 21.0172C167.171 19.6934 166.381 18.5235 165.295 17.6733C164.209 16.823 162.882 16.3355 161.504 16.2796C160.125 16.2238 158.763 16.6024 157.612 17.362C156.737 15.8116 155.407 14.566 153.801 13.7928C152.196 13.0197 150.392 12.756 148.632 13.0372C146.872 13.3184 145.241 14.1311 143.957 15.3659C142.674 16.6008 141.799 18.1986 141.452 19.9444C139.874 19.293 138.136 19.135 136.466 19.4915C134.796 19.848 133.274 20.7021 132.101 21.9409C130.928 23.1798 130.158 24.745 129.895 26.4299C129.631 28.1147 129.886 29.8397 130.625 31.3769C128.898 31.5239 127.3 32.3501 126.182 33.6739C125.065 34.9976 124.52 36.7104 124.667 38.4355C124.814 40.1606 125.642 41.7566 126.967 42.8725C128.292 43.9884 130.007 44.5327 131.734 44.3858C131.385 45.5241 131.398 46.7424 131.771 47.8731C132.145 49.0038 132.859 49.9911 133.818 50.6992C134.776 51.4072 135.93 51.8011 137.122 51.8267C138.314 51.8522 139.484 51.5081 140.472 50.8418C141.103 51.8575 142.01 52.6733 143.087 53.1938C144.165 53.7143 145.368 53.9183 146.557 53.7818C147.746 53.6453 148.872 53.1741 149.803 52.4231C150.734 51.672 151.432 50.6721 151.816 49.5398" fill="#111B23"/>
<path d="M158.458 60.0689C158.571 57.4489 158.711 55.0763 158.711 55.0763C158.711 55.0763 164.577 54.3392 164.83 48.362C165.084 42.3849 164.486 28.6228 164.486 28.6228L153.712 23.4473L142.099 32.7869L143.919 60.2249C144.047 62.126 144.915 63.9015 146.338 65.1707C147.761 66.4399 149.625 67.1018 151.531 67.0145C153.344 66.9277 155.06 66.1673 156.342 64.8824C157.623 63.5975 158.378 61.8808 158.458 60.0689Z" fill="#B77153"/>
<path d="M164.2 38.8549C164.103 38.9571 163.543 38.4891 162.74 38.4568C161.937 38.4245 161.34 38.8334 161.259 38.7258C161.178 38.6182 161.313 38.4944 161.571 38.3008C161.919 38.058 162.338 37.9386 162.762 37.9618C163.186 37.9791 163.594 38.1361 163.92 38.4084C164.162 38.6236 164.243 38.8119 164.2 38.8549Z" fill="#111B23"/>
<path d="M155.302 38.8549C155.205 38.9571 154.65 38.4891 153.842 38.4568C153.034 38.4245 152.447 38.8334 152.36 38.7258C152.274 38.6182 152.414 38.4944 152.673 38.3008C153.02 38.058 153.44 37.9386 153.863 37.9618C154.288 37.9791 154.695 38.1361 155.021 38.4084C155.264 38.6236 155.345 38.8119 155.302 38.8549Z" fill="#111B23"/>
<path d="M158.317 44.8863C158.742 44.7598 159.183 44.6928 159.626 44.6872C159.831 44.6872 160.025 44.6334 160.063 44.4882C160.084 44.2621 160.041 44.0345 159.939 43.8318C159.752 43.2938 159.558 42.7289 159.357 42.1371C158.549 39.7215 157.973 37.7417 158.064 37.7094C158.156 37.6771 158.878 39.6085 159.68 42.0134L160.219 43.7188C160.34 43.9907 160.372 44.2939 160.31 44.585C160.279 44.6585 160.232 44.7241 160.173 44.7771C160.113 44.8301 160.042 44.8693 159.966 44.8917C159.853 44.9211 159.737 44.9338 159.621 44.9293C159.186 44.973 158.748 44.9585 158.317 44.8863Z" fill="#111B23"/>
<path d="M158.711 55.0804C155.931 55.0077 153.233 54.1251 150.949 52.541C150.949 52.541 152.775 56.8934 158.609 56.5491L158.711 55.0804Z" fill="#995037"/>
<path d="M150.384 23.7809C149.449 25.1281 148.958 26.7323 148.977 28.371C148.996 30.0098 149.526 31.602 150.492 32.9269C151.364 34.0674 152.679 34.9982 154.117 34.9444C155.555 34.8906 156.945 33.5348 156.638 32.1306C156.498 32.5714 156.463 33.0387 156.536 33.4953C156.608 33.952 156.787 34.3853 157.057 34.7609C157.327 35.1364 157.681 35.4438 158.091 35.6585C158.501 35.8732 158.956 35.9894 159.419 35.9977C159.882 36.006 160.34 35.9062 160.757 35.7063C161.175 35.5064 161.54 35.212 161.823 34.8463C162.107 34.4807 162.301 34.0541 162.39 33.6003C162.479 33.1466 162.461 32.6783 162.337 32.2329C162.449 32.8782 162.677 33.4979 163.01 34.0621C163.181 34.3435 163.425 34.5733 163.716 34.7269C164.007 34.8804 164.335 34.9519 164.664 34.9336C165.563 34.8153 166.086 33.8576 166.28 32.9592C166.559 31.6226 166.495 30.2374 166.095 28.932C165.695 27.6266 164.971 26.4432 163.991 25.4917C162.995 24.56 161.816 23.8457 160.529 23.3946C159.241 22.9435 157.874 22.7654 156.514 22.8717C153.778 23.1122 151.197 24.2467 149.172 26.0997" fill="#111B23"/>
<path d="M151.143 25.8887C151.902 27.5832 152.312 29.4127 152.35 31.2687C152.382 33.1349 151.687 34.9407 150.411 36.3044C149.765 36.9682 148.944 37.4353 148.043 37.6515C147.141 37.8677 146.197 37.824 145.32 37.5256C145.556 38.3266 145.612 39.1698 145.484 39.9948C145.355 40.8198 145.045 41.6063 144.577 42.2977C143.575 43.6265 141.603 44.2614 140.144 43.4598C138.818 42.7388 138.247 41.1356 138.064 39.64C137.844 37.8246 138.035 35.9831 138.621 34.2509C139.208 32.5186 140.175 30.9398 141.453 29.6303C142.731 28.3209 144.287 27.3143 146.006 26.6844C147.725 26.0546 149.563 25.8176 151.386 25.9909" fill="#111B23"/>
<path d="M143.742 40.1296C142.944 39.6346 141.856 40.0381 141.221 40.7321C140.72 41.2808 140.411 41.9766 140.339 42.7153C140.268 43.4541 140.437 44.1962 140.823 44.8307C141.208 45.4652 141.789 45.9581 142.478 46.2356C143.168 46.5131 143.928 46.5604 144.647 46.3704" fill="#B77153"/>
<path d="M143.558 44.5788C143.558 44.6111 143.294 44.6487 142.879 44.5358C142.605 44.4647 142.351 44.3304 142.137 44.1435C141.924 43.9567 141.757 43.7225 141.651 43.4598C141.542 43.1476 141.554 42.8062 141.683 42.5021C141.792 42.2654 141.964 42.0627 142.179 41.9157C142.551 41.6736 142.831 41.679 142.836 41.7113C142.842 41.7435 142.594 41.8242 142.298 42.0771C142.109 42.2275 141.972 42.4319 141.903 42.6628C141.835 42.8936 141.839 43.1398 141.915 43.3683C142.009 43.5957 142.149 43.8014 142.326 43.9726C142.503 44.1438 142.713 44.2769 142.944 44.3636C143.337 44.4981 143.563 44.5358 143.558 44.5788Z" fill="#995037"/>
<path d="M155.797 36.3651C155.722 36.5964 154.844 36.5104 153.804 36.5588C152.764 36.6072 151.897 36.7363 151.806 36.5104C151.714 36.2844 152.56 35.741 153.772 35.698C154.984 35.6549 155.878 36.1445 155.797 36.3651Z" fill="#111B23"/>
<path d="M164.178 36.198C164.087 36.2787 163.909 36.198 163.699 36.1711C163.459 36.1135 163.211 36.0989 162.966 36.1281C162.654 36.1281 162.309 36.2141 162.045 36.2088C161.781 36.2034 161.598 36.1496 161.566 36.0312C161.533 35.9129 161.652 35.773 161.873 35.6223C162.18 35.4265 162.529 35.305 162.891 35.2673C163.103 35.2397 163.318 35.2623 163.519 35.3334C163.72 35.4044 163.902 35.5218 164.049 35.6761C164.248 35.9182 164.265 36.1227 164.178 36.198Z" fill="#111B23"/>
<path d="M156.922 46.4132C157.144 46.2699 157.394 46.1764 157.656 46.1392C157.917 46.1021 158.183 46.1221 158.436 46.198C158.686 46.2843 158.898 46.4554 159.035 46.6814C159.171 46.9075 159.225 47.1743 159.185 47.4354C159.111 47.7157 158.939 47.9602 158.7 48.1241C158.526 48.2589 158.324 48.3555 158.11 48.4074C157.896 48.4593 157.673 48.4654 157.456 48.4253C157.238 48.3821 157.037 48.2807 156.873 48.1319C156.708 47.9832 156.588 47.7926 156.524 47.5807C156.47 47.3663 156.489 47.1402 156.578 46.9378C156.667 46.7354 156.82 46.5679 157.014 46.4616" fill="#995037"/>
<path d="M159.864 47.0546C159.864 47.0546 159.67 47.2214 159.288 47.3021C158.778 47.4077 158.249 47.3571 157.769 47.1568C157.29 46.9548 156.881 46.616 156.594 46.183C156.379 45.8548 156.336 45.6127 156.368 45.5966C156.4 45.5805 156.519 45.7849 156.756 46.0647C157.062 46.4219 157.445 46.7051 157.876 46.8932C158.314 47.068 158.786 47.1398 159.255 47.103C159.622 47.0761 159.848 47.0115 159.864 47.0546Z" fill="#111B23"/>
<path d="M147.717 49.906C147.679 49.906 147.717 49.4864 147.512 48.7762C147.241 47.777 146.641 46.8978 145.81 46.2799C145.243 45.8538 144.585 45.5664 143.887 45.4406C143.087 45.2987 142.264 45.3692 141.501 45.6451C141.089 45.7936 140.702 46.0041 140.353 46.2691C139.985 46.5359 139.663 46.8612 139.4 47.2322C138.83 48.0064 138.522 48.9423 138.522 49.9033C138.522 50.8644 138.83 51.8003 139.4 52.5745C139.663 52.9454 139.985 53.2708 140.353 53.5375C140.702 53.8026 141.089 54.013 141.501 54.1616C142.1 54.3786 142.738 54.4688 143.374 54.4265C144.01 54.3842 144.63 54.2104 145.196 53.916C145.761 53.6216 146.259 53.213 146.657 52.7163C147.056 52.2196 147.347 51.6455 147.512 51.0304C147.701 50.3203 147.679 49.9006 147.717 49.906C147.725 50.0045 147.725 50.1034 147.717 50.2019C147.716 50.4901 147.682 50.7772 147.614 51.0573C147.373 52.1036 146.775 53.0335 145.923 53.6882C145.336 54.146 144.65 54.4593 143.919 54.6028C143.077 54.7644 142.206 54.6975 141.398 54.4091C140.961 54.2557 140.551 54.0362 140.181 53.7581C139.788 53.4765 139.445 53.1331 139.163 52.7413C138.551 51.9212 138.221 50.9259 138.221 49.9033C138.221 48.8807 138.551 47.8854 139.163 47.0654C139.445 46.6735 139.788 46.3301 140.181 46.0486C140.551 45.7705 140.961 45.5509 141.398 45.3976C142.152 45.125 142.962 45.0481 143.754 45.1742C144.545 45.3003 145.292 45.6252 145.923 46.1185C146.775 46.7732 147.373 47.7031 147.614 48.7493C147.682 49.0295 147.716 49.3166 147.717 49.6047C147.725 49.705 147.725 49.8058 147.717 49.906Z" fill="#F3C262"/>
<path d="M164.174 23.1562C164.226 23.1598 164.277 23.1725 164.324 23.1939C164.465 23.2492 164.593 23.3315 164.701 23.4361C164.905 23.6382 165.055 23.8873 165.139 24.1614C165.222 24.4354 165.237 24.7259 165.181 25.007C165.067 25.4339 164.829 25.8178 164.497 26.1106C164.166 26.4034 163.755 26.5921 163.317 26.6532C162.209 26.7862 161.089 26.519 160.161 25.9L159.051 25.2598L160.268 25.6579C160.478 25.732 160.665 25.8575 160.813 26.0231C160.961 26.1886 161.064 26.3887 161.114 26.6048C161.172 26.8198 161.187 27.0444 161.158 27.2652C161.128 27.486 161.055 27.6986 160.942 27.8906C160.695 28.277 160.309 28.5542 159.864 28.6654C159.415 28.7784 158.944 28.7674 158.501 28.6332C157.51 28.2473 156.681 27.5332 156.153 26.6103L155.334 25.4912L156.325 26.4543C156.582 26.7189 156.766 27.0448 156.86 27.4009C156.955 27.757 156.956 28.1312 156.864 28.4879C156.792 28.8139 156.647 29.1192 156.44 29.3811C156.233 29.643 155.969 29.8544 155.668 29.9996C155.174 30.2338 154.624 30.3233 154.082 30.2575C153.539 30.1918 153.026 29.9738 152.603 29.6285C152.044 29.1749 151.632 28.5665 151.418 27.8799C151.361 27.704 151.318 27.5242 151.289 27.3419C151.283 27.2775 151.283 27.2126 151.289 27.1482C151.316 27.1482 151.348 27.4065 151.52 27.8531C151.759 28.4885 152.167 29.0466 152.7 29.467C153.101 29.7756 153.579 29.9668 154.083 30.019C154.586 30.0713 155.094 29.9826 155.55 29.7629C155.815 29.6303 156.048 29.4395 156.23 29.2048C156.412 28.9701 156.538 28.6975 156.6 28.4072C156.678 28.0959 156.677 27.7697 156.595 27.4592C156.513 27.1487 156.353 26.8641 156.131 26.6318L156.341 26.4543C156.836 27.3179 157.609 27.989 158.534 28.3587C158.912 28.4983 159.324 28.5142 159.711 28.4039C160.099 28.2936 160.441 28.063 160.688 27.7454C161.076 27.1105 160.845 26.1315 160.187 25.9109L160.295 25.6687C161.165 26.2657 162.218 26.538 163.269 26.438C163.675 26.39 164.058 26.2235 164.37 25.9595C164.683 25.6955 164.91 25.3455 165.025 24.9532C165.081 24.6939 165.076 24.425 165.009 24.1681C164.943 23.9112 164.817 23.6734 164.642 23.4737C164.501 23.3467 164.344 23.24 164.174 23.1562Z" fill="#2A5578"/>
<path d="M149.802 32.7712C149.802 32.7712 149.802 32.8088 149.732 32.8734C149.654 32.9692 149.569 33.0591 149.479 33.1424C149.13 33.4589 148.722 33.7023 148.277 33.8579C147.581 34.0999 146.826 34.1112 146.123 33.8902C145.657 33.7446 145.226 33.5059 144.855 33.1887C144.485 32.8715 144.183 32.4823 143.968 32.0449L144.194 32.0126C144.107 32.5574 143.891 33.0736 143.565 33.5188C143.238 33.9639 142.811 34.3252 142.317 34.5728C141.823 34.8205 141.278 34.9474 140.726 34.943C140.173 34.9387 139.63 34.8033 139.14 34.5479C138.65 34.2926 138.228 33.9247 137.909 33.4745C137.59 33.0243 137.382 32.5047 137.303 31.9586C137.225 31.4125 137.277 30.8555 137.456 30.3336C137.635 29.8117 137.936 29.3398 138.334 28.9568L138.522 29.1558C137.886 29.6835 137.086 29.9744 136.26 29.979C135.509 29.9935 134.771 29.7918 134.132 29.3979C133.561 29.044 133.115 28.5212 132.855 27.9023C132.644 27.3748 132.554 26.8067 132.591 26.2399C132.637 25.4344 132.947 24.6665 133.475 24.0556C133.659 23.8377 133.882 23.6553 134.132 23.5176C134.132 23.5176 133.89 23.7005 133.55 24.1255C133.068 24.7426 132.793 25.4955 132.764 26.2775C132.741 26.8158 132.839 27.3524 133.049 27.8485C133.301 28.4187 133.722 28.8977 134.256 29.2204C134.856 29.5881 135.55 29.775 136.254 29.7584C137.018 29.7477 137.754 29.4783 138.344 28.9944L138.527 29.1935C138.069 29.6628 137.76 30.2567 137.638 30.9007C137.517 31.5448 137.588 32.2104 137.843 32.8142C138.156 33.4734 138.679 34.0101 139.33 34.3402C139.982 34.6703 140.724 34.7751 141.442 34.638C142.07 34.4902 142.642 34.1643 143.089 33.6995C143.536 33.2347 143.84 32.6508 143.963 32.018L144.022 31.6414L144.189 31.9857C144.385 32.3968 144.661 32.7646 145.002 33.0676C145.342 33.3707 145.74 33.6028 146.171 33.7503C146.844 33.9739 147.572 33.9739 148.245 33.7503C148.68 33.6165 149.086 33.401 149.441 33.1155C149.699 32.8895 149.802 32.7604 149.802 32.7712Z" fill="#2A5578"/>
<path d="M139.142 42.3352C139.006 42.4595 138.847 42.5547 138.673 42.615C138.202 42.8109 137.69 42.8903 137.181 42.8463C136.394 42.7882 135.659 42.4299 135.129 41.8456C134.795 41.476 134.548 41.036 134.407 40.5583C134.266 40.0805 134.235 39.5772 134.315 39.0857L134.563 39.1933C134.031 39.8968 133.339 40.4631 132.543 40.845C131.93 41.1359 131.256 41.2778 130.577 41.2592C129.944 41.2415 129.325 41.0717 128.773 40.7643C128.295 40.5186 127.887 40.1567 127.587 39.7119C127.286 39.2671 127.103 38.7538 127.054 38.2195C126.99 37.5046 127.181 36.7901 127.593 36.202C127.709 36.0488 127.845 35.9113 127.997 35.7931C128.047 35.7467 128.105 35.7102 128.169 35.6855C128.169 35.6855 127.959 35.8685 127.684 36.2666C127.324 36.8444 127.168 37.5266 127.243 38.2034C127.299 38.7031 127.48 39.1806 127.77 39.5916C128.06 40.0026 128.449 40.3338 128.902 40.5544C129.442 40.8401 130.043 40.9934 130.655 41.0019C131.266 41.0103 131.871 40.8735 132.419 40.6029C133.174 40.2434 133.833 39.7106 134.342 39.048L134.692 38.5961L134.59 39.1341C134.514 39.5857 134.538 40.0484 134.662 40.4893C134.786 40.9302 135.006 41.3383 135.307 41.6842C135.793 42.239 136.469 42.5921 137.203 42.6742C137.687 42.7309 138.178 42.6813 138.641 42.5289C138.964 42.4159 139.131 42.3191 139.142 42.3352Z" fill="#2A5578"/>
<path d="M169.646 30.6836C169.777 30.9982 169.818 31.3425 169.765 31.6789C169.701 32.5062 169.352 33.2859 168.778 33.8852C168.203 34.4846 167.439 34.8665 166.614 34.9661C166.281 35.0364 165.935 35.0102 165.617 34.8908C165.617 34.8423 166 34.8908 166.581 34.767C167.342 34.6239 168.038 34.2465 168.572 33.6877C169.106 33.129 169.452 32.417 169.56 31.652C169.657 31.0656 169.598 30.689 169.646 30.6836Z" fill="#2A5578"/>
<path d="M172.964 36.3164C173.037 36.4417 173.083 36.581 173.099 36.7253C173.163 37.1212 173.124 37.527 172.986 37.9035C172.887 38.1968 172.716 38.4606 172.488 38.6703C172.26 38.88 171.983 39.0289 171.682 39.1032C171.321 39.1771 170.946 39.1434 170.605 39.0064C170.413 38.934 170.238 38.8231 170.091 38.6806C169.943 38.5381 169.827 38.367 169.748 38.1779L170.017 38.0864C170.067 38.2615 170.09 38.4427 170.087 38.6244C170.072 39.04 169.935 39.4421 169.695 39.782C169.455 40.1219 169.122 40.3851 168.735 40.5397C168.39 40.6662 168.014 40.6831 167.658 40.5881C167.358 40.5023 167.082 40.3497 166.85 40.1416C166.508 39.8518 166.278 39.4525 166.198 39.0118C166.15 38.7051 166.198 38.533 166.198 38.5383C166.198 38.5437 166.198 38.7051 166.29 38.9903C166.408 39.3828 166.643 39.73 166.963 39.9856C167.188 40.1782 167.46 40.3081 167.751 40.3619C168.043 40.4158 168.343 40.3917 168.622 40.2922C168.954 40.1517 169.239 39.9198 169.445 39.6236C169.65 39.3273 169.766 38.9789 169.78 38.619C169.783 38.4698 169.763 38.321 169.721 38.1779L169.996 38.0864C170.141 38.3766 170.378 38.6104 170.671 38.7507C170.963 38.891 171.295 38.9299 171.612 38.8611C171.876 38.8003 172.121 38.6758 172.326 38.4986C172.53 38.3213 172.688 38.0967 172.786 37.8443C172.929 37.5043 172.993 37.1366 172.975 36.7683C172.964 36.467 172.915 36.3218 172.964 36.3164Z" fill="#2A5578"/>
<path d="M156.513 44.3203C156.551 44.3203 156.573 44.4441 156.513 44.627C156.44 44.8632 156.299 45.0726 156.107 45.2295C155.916 45.3863 155.682 45.4836 155.436 45.5093C155.248 45.5093 155.134 45.477 155.14 45.4394C155.145 45.4017 155.555 45.321 155.921 45.0036C156.287 44.6862 156.433 44.3203 156.513 44.3203Z" fill="#111B23"/>
<path d="M114.76 162.062H100.3L102.148 151.594H116.609L114.76 162.062Z" fill="#F3C262"/>
<path d="M107.45 150.508H102.341L102.148 151.593H107.552L107.45 150.508Z" fill="#F3C262"/>
<g opacity="0.2">
<path d="M114.76 162.062H100.3L102.148 151.594H116.609L114.76 162.062Z" fill="#111B23"/>
<path d="M107.449 150.508H102.34L102.147 151.593H107.551L107.449 150.508Z" fill="#111B23"/>
</g>
<path d="M106.853 151.467H102.675L102.786 150.836H106.965L106.853 151.467Z" fill="white"/>
<path d="M114.015 150.545L100.58 151.196L101.088 161.65L114.523 160.998L114.015 150.545Z" fill="#EBEBEB"/>
<path d="M103.904 160.369L103.695 156.286L103.508 152.203L103.716 156.284L103.904 160.369Z" fill="#C7C7C7"/>
<path d="M104.238 160.35L104.029 156.27L103.842 152.188L104.05 156.268L104.238 160.35Z" fill="#C7C7C7"/>
<path d="M104.572 160.338L104.363 156.255L104.176 152.172L104.384 156.253L104.572 160.338Z" fill="#C7C7C7"/>
<path d="M104.905 160.321L104.696 156.237L104.509 152.154L104.717 156.235L104.905 160.321Z" fill="#C7C7C7"/>
<path d="M105.239 160.305L105.03 156.222L104.843 152.139L105.051 156.22L105.239 160.305Z" fill="#C7C7C7"/>
<path d="M105.572 160.289L105.363 156.206L105.176 152.123L105.382 156.206L105.572 160.289Z" fill="#C7C7C7"/>
<path d="M105.905 160.272L105.697 156.189L105.507 152.105L105.715 156.186L105.905 160.272Z" fill="#C7C7C7"/>
<path d="M106.239 160.256L106.031 156.173L105.841 152.09L106.049 156.173L106.239 160.256Z" fill="#C7C7C7"/>
<path d="M106.57 160.241L106.361 156.157L106.174 152.074L106.382 156.155L106.57 160.241Z" fill="#C7C7C7"/>
<path d="M106.904 160.225L106.695 156.142L106.508 152.059L106.716 156.142L106.904 160.225Z" fill="#C7C7C7"/>
<path d="M107.238 160.207L107.029 156.124L106.842 152.041L107.05 156.122L107.238 160.207Z" fill="#C7C7C7"/>
<path d="M107.571 160.192L107.362 156.109L107.175 152.025L107.383 156.109L107.571 160.192Z" fill="#C7C7C7"/>
<path d="M107.905 160.176L107.696 156.093L107.509 152.01L107.717 156.093L107.905 160.176Z" fill="#C7C7C7"/>
<path d="M108.238 160.158L108.029 156.075L107.842 151.992L108.05 156.075L108.238 160.158Z" fill="#C7C7C7"/>
<path d="M108.572 160.143L108.363 156.06L108.176 151.977L108.384 156.06L108.572 160.143Z" fill="#C7C7C7"/>
<path d="M107.485 158.707L107.515 159.326L108.914 159.258L108.884 158.639L107.485 158.707Z" fill="#F3C262"/>
<path d="M106.682 157.596L106.712 158.215L108.857 158.111L108.826 157.492L106.682 157.596Z" fill="#F3C262"/>
<path d="M105.796 156.488L105.826 157.107L108.808 156.963L108.778 156.344L105.796 156.488Z" fill="#F3C262"/>
<path d="M105.381 155.357L105.411 155.977L108.752 155.815L108.722 155.195L105.381 155.357Z" fill="#F3C262"/>
<path d="M104.694 154.241L104.724 154.86L108.703 154.668L108.673 154.049L104.694 154.241Z" fill="#F3C262"/>
<path d="M104.004 153.123L104.034 153.742L108.645 153.519L108.615 152.9L104.004 153.123Z" fill="#F3C262"/>
<path d="M103.659 160.16L104.982 160.079L106.304 160.003C107.185 159.955 108.066 159.909 108.95 159.864L108.912 159.906L108.813 157.918L108.723 155.933L108.639 153.946L108.565 151.959L108.683 153.944L108.792 155.929L108.894 157.914L108.989 159.901V159.94H108.95C108.067 159.982 107.187 160.023 106.304 160.058L104.982 160.111L103.659 160.16Z" fill="#C7C7C7"/>
<path d="M109.169 158.626L109.199 159.245L109.255 159.242L109.225 158.623L109.169 158.626Z" fill="#C7C7C7"/>
<path d="M109.113 157.479L109.144 158.099L109.199 158.096L109.169 157.477L109.113 157.479Z" fill="#C7C7C7"/>
<path d="M109.055 156.327L109.085 156.946L109.14 156.944L109.11 156.324L109.055 156.327Z" fill="#C7C7C7"/>
<path d="M108.994 155.181L109.024 155.8L109.08 155.797L109.05 155.178L108.994 155.181Z" fill="#C7C7C7"/>
<path d="M108.94 154.03L108.97 154.649L109.025 154.647L108.995 154.027L108.94 154.03Z" fill="#C7C7C7"/>
<path d="M108.884 152.884L108.914 153.503L108.97 153.5L108.939 152.881L108.884 152.884Z" fill="#C7C7C7"/>
<path d="M107.698 159.251C107.678 158.948 107.64 158.647 107.585 158.348C107.531 158.051 107.463 157.756 107.381 157.465C107.219 156.883 106.99 156.323 106.697 155.794C106.41 155.263 106.045 154.778 105.613 154.355L105.535 154.277L105.449 154.2L105.28 154.05C105.162 153.958 105.048 153.858 104.921 153.777C104.673 153.604 104.413 153.449 104.143 153.314C104.701 153.562 105.214 153.901 105.66 154.318C105.883 154.527 106.089 154.755 106.274 154.999C106.458 155.236 106.625 155.488 106.772 155.75C107.065 156.286 107.291 156.857 107.443 157.448C107.601 158.037 107.686 158.642 107.698 159.251Z" fill="#111B23"/>
<path d="M104.559 153.107L104.585 153.193L104.168 153.318L104.323 153.725L104.24 153.757L104.05 153.262L104.559 153.107Z" fill="#111B23"/>
<path d="M111.397 160.181L110.983 151.666L110.639 151.683L111.053 160.198L111.397 160.181Z" fill="#DBDBDB"/>
<path d="M112.268 160.14L112.035 155.346L111.69 155.362L111.924 160.157L112.268 160.14Z" fill="#DBDBDB"/>
<path d="M102.785 158.734L102.552 153.939L102.207 153.956L102.44 158.751L102.785 158.734Z" fill="#DBDBDB"/>
<path d="M114.789 162.062H100.328L97.5186 152.461H111.979L114.789 162.062Z" fill="#F3C262"/>
<path d="M102.336 151.469H97.2266L97.5184 152.461H102.92L102.336 151.469Z" fill="#F3C262"/>
<path d="M310.423 227.685C310.423 227.766 240.935 227.825 155.222 227.825C69.5096 227.825 0 227.782 0 227.685C0 227.588 69.488 227.545 155.222 227.545C240.956 227.545 310.423 227.609 310.423 227.685Z" fill="#111B23"/>
<path d="M284.905 198.617C283.559 200.532 280.946 199.897 279.734 198.73C278.522 197.562 278.011 195.862 277.542 194.243C276.465 190.547 275.387 186.668 276.195 182.902C276.387 181.76 276.89 180.693 277.65 179.819C278.032 179.387 278.521 179.063 279.069 178.881C279.617 178.698 280.203 178.664 280.768 178.781C282.088 179.125 282.923 180.395 283.5 181.643C285.248 185.262 286.168 189.224 286.193 193.242C286.193 195.114 285.977 197.073 284.922 198.622" fill="#F3C262"/>
<g opacity="0.2">
<path d="M284.905 198.617C283.559 200.532 280.946 199.897 279.734 198.73C278.522 197.562 278.011 195.862 277.542 194.243C276.465 190.547 275.387 186.668 276.195 182.902C276.387 181.76 276.89 180.693 277.65 179.819C278.032 179.387 278.521 179.063 279.069 178.881C279.617 178.698 280.203 178.664 280.768 178.781C282.088 179.125 282.923 180.395 283.5 181.643C285.248 185.262 286.168 189.224 286.193 193.242C286.193 195.114 285.977 197.073 284.922 198.622" fill="#111B23"/>
</g>
<path d="M279.869 208.333C277.61 207.271 275.068 206.961 272.619 207.451C271.31 207.672 269.925 208.064 269.047 209.065C268.169 210.066 267.97 211.782 269.01 212.627C269.67 213.074 270.467 213.276 271.261 213.197C273.174 213.197 275.296 212.842 276.82 213.988C277.693 214.644 278.275 215.736 279.314 216.059C279.833 216.174 280.376 216.119 280.861 215.902C281.346 215.685 281.748 215.317 282.008 214.854C282.504 213.896 282.614 212.786 282.315 211.75C282.198 211.031 281.917 210.348 281.492 209.755C281.068 209.163 280.513 208.676 279.869 208.333Z" fill="#F3C262"/>
<path d="M288.601 201.366C287.136 199.639 286.861 197.116 287.523 194.947C288.26 192.792 289.578 190.882 291.332 189.427C293.321 187.657 295.638 186.292 298.151 185.409C299.123 185.007 300.171 184.823 301.222 184.871C301.744 184.903 302.251 185.061 302.698 185.332C303.146 185.603 303.521 185.978 303.791 186.425C304.513 187.792 303.823 189.449 303.08 190.805C301.765 193.202 300.263 195.492 298.588 197.654C297.246 199.386 295.706 201.091 293.659 201.871C291.612 202.652 289.49 202.56 288.401 201.145" fill="#F3C262"/>
<path d="M285.008 227.551C284.935 227.266 284.894 226.973 284.884 226.679C284.824 226.05 284.744 225.248 284.652 224.301C284.532 223.131 284.353 221.967 284.113 220.815C283.8 219.41 283.375 218.032 282.842 216.694C282.321 215.359 281.612 214.106 280.736 212.971C280.024 212.046 279.115 211.29 278.075 210.76C277.37 210.41 276.613 210.174 275.834 210.06C275.541 210.05 275.251 210.008 274.967 209.937C275.26 209.901 275.557 209.901 275.85 209.937C276.659 209.999 277.451 210.205 278.188 210.545C279.283 211.064 280.243 211.828 280.994 212.777C281.905 213.929 282.64 215.209 283.176 216.576C283.716 217.932 284.138 219.332 284.437 220.761C284.664 221.929 284.818 223.109 284.9 224.296C284.975 225.307 285.008 226.125 285.018 226.69C285.045 226.977 285.041 227.265 285.008 227.551Z" fill="#111B23"/>
<path d="M284.83 225.72C284.817 225.586 284.817 225.451 284.83 225.317C284.83 225.016 284.83 224.628 284.83 224.16C284.83 223.159 284.83 221.707 284.776 219.91C284.69 216.322 284.377 211.372 283.779 205.922C283.181 200.472 282.379 195.582 281.657 192.068C281.485 191.186 281.312 190.395 281.118 189.701C280.924 189.007 280.833 188.405 280.704 187.92C280.574 187.436 280.504 187.092 280.434 186.796C280.391 186.666 280.368 186.53 280.364 186.393C280.424 186.515 280.471 186.643 280.504 186.775L280.838 187.883C280.989 188.362 281.14 188.959 281.318 189.653C281.495 190.347 281.689 191.132 281.856 192.015C282.848 196.595 283.595 201.225 284.092 205.884C284.69 211.34 284.959 216.305 284.981 219.899C284.981 221.696 284.981 223.154 284.921 224.16C284.889 224.628 284.868 225.01 284.846 225.317C284.862 225.451 284.856 225.588 284.83 225.72Z" fill="#111B23"/>
<path d="M284.809 216.144C284.776 215.741 284.776 215.336 284.809 214.933C284.857 214.159 284.965 213.034 285.181 211.662C285.45 210.053 285.81 208.46 286.258 206.89C286.785 204.965 287.448 203.079 288.24 201.247C289.626 197.878 291.612 194.789 294.101 192.128C294.535 191.673 294.998 191.245 295.485 190.847C295.695 190.67 295.884 190.492 296.072 190.352L296.611 189.981C296.933 189.738 297.273 189.521 297.629 189.33C296.46 190.255 295.346 191.249 294.295 192.305C291.882 194.995 289.949 198.077 288.579 201.419C287.787 203.236 287.116 205.103 286.57 207.009C286.032 208.763 285.703 210.377 285.439 211.732C285.175 213.088 285.046 214.202 284.954 214.96C284.938 215.358 284.889 215.754 284.809 216.144Z" fill="#111B23"/>
<path d="M95.6124 0.00177367C95.4877 0.0245684 95.3618 0.0407312 95.2354 0.0501937L94.158 0.141655C93.5636 0.181805 92.973 0.266326 92.3912 0.394513C92.0411 0.469833 91.6586 0.502114 91.2708 0.620474C90.8829 0.738834 90.4628 0.857193 90.0265 0.980933C87.9017 1.66212 85.9008 2.68128 84.1011 3.99911C81.7359 5.7633 79.767 8.00286 78.3212 10.5735C76.1048 14.562 75.149 19.1271 75.5794 23.6684C75.6118 24.1634 75.7195 24.6529 75.7895 25.1533C75.8563 25.6563 75.9571 26.1541 76.0912 26.6435C76.5662 28.6959 77.347 30.6654 78.4074 32.4862C80.6642 36.4264 84.1512 39.5199 88.3351 41.2933C90.5394 42.2125 92.8958 42.7142 95.2839 42.7728C97.7433 42.8701 100.198 42.4825 102.507 41.6322L103.213 41.3632L103.305 41.3309L103.391 41.3686L113.625 46.415L113.329 46.6787L110.065 36.9462L110.027 36.8225L110.113 36.731C112.557 34.2207 114.356 31.1563 115.355 27.8002C116.253 24.7336 116.481 21.5099 116.023 18.3476C115.291 13.0769 112.65 8.25694 108.6 4.80073C107.065 3.54452 105.372 2.49538 103.563 1.68034C102.197 1.11124 100.777 0.682224 99.3239 0.399895L97.7402 0.152415L96.5713 0.0824745L95.8548 0.0340544C95.7733 0.0333247 95.6921 0.024312 95.6124 0.00715482C95.693 -0.00238494 95.7743 -0.00238494 95.8548 0.00715482H96.5713L97.7509 0.0394335L99.3669 0.260013C100.843 0.51882 102.287 0.931761 103.676 1.49203C105.517 2.29271 107.24 3.33877 108.799 4.60167C110.691 6.18792 112.299 8.08352 113.555 10.2076C115.022 12.6867 115.99 15.428 116.405 18.2776C116.884 21.4915 116.664 24.7707 115.759 27.8917C114.753 31.3154 112.928 34.4432 110.442 37.0054L110.48 36.7902C111.557 39.9106 112.634 43.1655 113.755 46.5173L113.922 47.0068L113.458 46.7809L103.224 41.7398H103.402L102.68 42.0142C100.318 42.8797 97.808 43.2691 95.2946 43.1601C92.8546 43.1012 90.4469 42.5885 88.195 41.6484C83.9295 39.8311 80.3779 36.6676 78.0842 32.6422C77.0086 30.7978 76.2151 28.8031 75.7303 26.7242C75.5943 26.2265 75.4953 25.7194 75.434 25.2071C75.364 24.7014 75.2508 24.2064 75.2239 23.7007C75.1319 22.7136 75.1067 21.7214 75.1485 20.7309C75.2044 18.8538 75.492 16.9908 76.005 15.1841C76.4977 13.5257 77.1809 11.9297 78.0411 10.4282C79.5269 7.82824 81.5461 5.57131 83.9665 3.80543C85.7914 2.48989 87.8205 1.48296 89.9726 0.824915L91.2385 0.480593C91.61 0.393294 91.9858 0.325059 92.3643 0.276155C92.9517 0.15593 93.5481 0.0839548 94.1473 0.060954L95.2515 0.00715482L95.6124 0.00177367Z" fill="#111B23"/>
<path d="M100.428 18.7666H98.9357L95.6283 14.2743L95.596 11.2992C95.596 11.2992 93.2905 11.1862 93.6029 15.0652C93.9153 18.9442 93.6029 17.965 93.6029 17.965C93.6029 17.965 88.7118 18.0403 88.3078 18.4707C88.0169 18.7827 87.9361 23.6409 87.92 26.2717C87.8904 26.917 88.0811 27.5532 88.4608 28.0761C88.8405 28.599 89.3867 28.9776 90.01 29.15C90.1863 29.1932 90.3672 29.2149 90.5487 29.2146C91.7714 29.2146 97.9931 28.1386 97.9931 28.1386L100.573 28.1063L100.428 18.7666Z" fill="#F3C262"/>
<path d="M104.689 17.9004L103.886 28.0955L101.333 28.1278L101.22 18.1479L104.689 17.9004Z" fill="#F3C262"/>
<path d="M162.427 164.324L148.219 168.038L143.449 149.821L153.998 147.065L157.657 146.107L158.566 149.579L162.427 164.324Z" fill="#68A395"/>
<path d="M145.759 152.974L157.334 149.952L157.212 149.484L145.636 152.506L145.759 152.974Z" fill="#111B23"/>
<path d="M146.066 154.158L157.641 151.136L157.518 150.668L145.943 153.69L146.066 154.158Z" fill="#111B23"/>
<path d="M146.376 155.338L157.951 152.315L157.829 151.848L146.254 154.87L146.376 155.338Z" fill="#111B23"/>
<path d="M146.687 156.519L158.262 153.497L158.139 153.029L146.564 156.051L146.687 156.519Z" fill="#111B23"/>
<path d="M146.993 157.703L158.568 154.681L158.446 154.213L146.871 157.235L146.993 157.703Z" fill="#111B23"/>
<path d="M147.307 158.882L158.882 155.86L158.759 155.393L147.184 158.415L147.307 158.882Z" fill="#111B23"/>
<path d="M147.613 160.06L159.188 157.038L159.066 156.57L147.491 159.592L147.613 160.06Z" fill="#111B23"/>
<path d="M147.849 161.008L159.454 158.021L159.333 157.551L147.728 160.539L147.849 161.008Z" fill="#111B23"/>
<path d="M148.234 162.424L159.809 159.401L159.686 158.934L148.111 161.956L148.234 162.424Z" fill="#111B23"/>
<path d="M148.54 163.601L160.115 160.579L159.993 160.111L148.418 163.133L148.54 163.601Z" fill="#111B23"/>
<path d="M148.784 164.536L160.389 161.549L160.268 161.08L148.663 164.067L148.784 164.536Z" fill="#111B23"/>
<path d="M149.16 165.963L160.735 162.94L160.613 162.473L149.038 165.495L149.16 165.963Z" fill="#111B23"/>
<path d="M166.201 169.581L151.536 170.399L150.484 151.6L161.371 150.992L165.347 154.365L166.201 169.581Z" fill="#68A395"/>
<path d="M161.372 150.992L165.348 154.365L161.574 154.575L161.372 150.992Z" fill="#111B23"/>
<path d="M152.117 155.155L160.27 154.7L160.243 154.217L152.09 154.673L152.117 155.155Z" fill="#111B23"/>
<path d="M152.185 156.374L160.338 155.919L160.311 155.436L152.158 155.891L152.185 156.374Z" fill="#111B23"/>
<path d="M152.255 157.59L160.407 157.135L160.38 156.652L152.228 157.107L152.255 157.59Z" fill="#111B23"/>
<path d="M152.322 158.81L164.268 158.143L164.241 157.66L152.295 158.327L152.322 158.81Z" fill="#111B23"/>
<path d="M152.391 160.026L164.336 159.359L164.309 158.877L152.364 159.544L152.391 160.026Z" fill="#111B23"/>
<path d="M152.46 161.248L164.405 160.581L164.378 160.098L152.433 160.765L152.46 161.248Z" fill="#111B23"/>
<path d="M152.528 162.466L164.474 161.799L164.447 161.316L152.501 161.983L152.528 162.466Z" fill="#111B23"/>
<path d="M152.597 163.683L164.542 163.016L164.515 162.533L152.57 163.2L152.597 163.683Z" fill="#111B23"/>
<path d="M152.665 164.903L164.61 164.236L164.583 163.754L152.638 164.421L152.665 164.903Z" fill="#111B23"/>
<path d="M152.733 166.123L164.679 165.456L164.652 164.973L152.706 165.64L152.733 166.123Z" fill="#111B23"/>
<path d="M152.803 167.343L164.748 166.676L164.721 166.193L152.776 166.86L152.803 167.343Z" fill="#111B23"/>
<path d="M152.871 168.56L164.816 167.893L164.789 167.41L152.844 168.077L152.871 168.56Z" fill="#111B23"/>
<path d="M199.93 168.631H215.291V154.1H199.93V168.631Z" fill="#111B23"/>
<path d="M198.456 158.707H212.139V154.881H198.456V158.707Z" fill="#37474F"/>
<path d="M215.761 154.877H212.139V158.703H215.761V154.877Z" fill="#2A5578"/>
<path d="M204.902 155.834H211.438V155.51H204.902V155.834Z" fill="#2A5578"/>
<path d="M204.902 156.392H211.438V156.068H204.902V156.392Z" fill="#2A5578"/>
<path d="M204.902 156.953H211.438V156.629H204.902V156.953Z" fill="#2A5578"/>
<path d="M204.902 157.511H211.438V157.188H204.902V157.511Z" fill="#2A5578"/>
<path d="M204.902 158.072H211.438V157.748H204.902V158.072Z" fill="#2A5578"/>
<path d="M203.182 155.831C203.181 155.895 203.2 155.957 203.235 156.01C203.27 156.063 203.32 156.105 203.379 156.13C203.438 156.154 203.502 156.161 203.565 156.149C203.628 156.137 203.685 156.106 203.73 156.061C203.776 156.017 203.807 155.959 203.819 155.897C203.832 155.834 203.826 155.77 203.801 155.711C203.777 155.652 203.736 155.602 203.683 155.566C203.63 155.531 203.567 155.512 203.504 155.512C203.419 155.512 203.337 155.545 203.277 155.605C203.216 155.665 203.182 155.746 203.182 155.831Z" fill="#F3C262"/>
<path d="M202.125 155.831C202.125 155.895 202.143 155.957 202.178 156.01C202.213 156.064 202.264 156.105 202.323 156.13C202.382 156.155 202.447 156.161 202.509 156.149C202.572 156.136 202.629 156.106 202.675 156.061C202.72 156.016 202.75 155.958 202.763 155.895C202.775 155.833 202.769 155.768 202.744 155.709C202.719 155.65 202.678 155.6 202.624 155.565C202.571 155.53 202.509 155.511 202.445 155.512C202.36 155.512 202.279 155.545 202.219 155.605C202.159 155.665 202.125 155.746 202.125 155.831Z" fill="#111B23"/>
<path d="M201.068 155.831C201.068 155.894 201.087 155.956 201.122 156.008C201.157 156.061 201.207 156.102 201.266 156.126C201.324 156.15 201.388 156.156 201.45 156.144C201.512 156.132 201.569 156.101 201.614 156.057C201.659 156.012 201.689 155.955 201.702 155.893C201.714 155.831 201.708 155.767 201.683 155.709C201.659 155.65 201.618 155.601 201.566 155.566C201.513 155.53 201.451 155.512 201.388 155.512C201.303 155.512 201.222 155.545 201.162 155.605C201.102 155.665 201.068 155.746 201.068 155.831Z" fill="#F3C262"/>
<path d="M200.01 155.831C200.009 155.895 200.028 155.957 200.063 156.01C200.098 156.063 200.148 156.105 200.207 156.13C200.266 156.154 200.331 156.161 200.393 156.149C200.456 156.137 200.513 156.106 200.559 156.061C200.604 156.017 200.635 155.959 200.647 155.897C200.66 155.834 200.654 155.77 200.629 155.711C200.605 155.652 200.564 155.602 200.511 155.566C200.458 155.531 200.396 155.512 200.332 155.512C200.247 155.512 200.165 155.545 200.105 155.605C200.045 155.665 200.01 155.746 200.01 155.831Z" fill="#F3C262"/>
<path d="M198.944 155.831C198.944 155.895 198.962 155.957 198.998 156.01C199.033 156.064 199.083 156.105 199.142 156.13C199.201 156.155 199.266 156.161 199.329 156.149C199.391 156.136 199.449 156.106 199.494 156.061C199.539 156.016 199.57 155.958 199.582 155.895C199.595 155.833 199.588 155.768 199.563 155.709C199.539 155.65 199.497 155.6 199.444 155.565C199.39 155.53 199.328 155.511 199.264 155.512C199.179 155.512 199.098 155.545 199.038 155.605C198.978 155.665 198.944 155.746 198.944 155.831Z" fill="#F3C262"/>
<path d="M203.182 156.79C203.181 156.854 203.2 156.916 203.235 156.969C203.27 157.022 203.32 157.064 203.379 157.089C203.438 157.113 203.502 157.12 203.565 157.108C203.628 157.096 203.685 157.065 203.73 157.02C203.776 156.976 203.807 156.918 203.819 156.856C203.832 156.793 203.826 156.729 203.801 156.67C203.777 156.611 203.736 156.56 203.683 156.525C203.63 156.49 203.567 156.471 203.504 156.471C203.419 156.471 203.337 156.504 203.277 156.564C203.216 156.624 203.182 156.705 203.182 156.79Z" fill="#F3C262"/>
<path d="M202.125 156.79C202.125 156.854 202.143 156.916 202.178 156.969C202.213 157.023 202.264 157.064 202.323 157.089C202.382 157.114 202.447 157.12 202.509 157.108C202.572 157.095 202.629 157.065 202.675 157.02C202.72 156.975 202.75 156.917 202.763 156.854C202.775 156.792 202.769 156.727 202.744 156.668C202.719 156.609 202.678 156.559 202.624 156.524C202.571 156.489 202.509 156.47 202.445 156.471C202.36 156.471 202.279 156.504 202.219 156.564C202.159 156.624 202.125 156.705 202.125 156.79Z" fill="white"/>
<path d="M201.068 156.79C201.068 156.853 201.087 156.915 201.122 156.967C201.157 157.02 201.207 157.061 201.266 157.085C201.324 157.109 201.388 157.115 201.45 157.103C201.512 157.091 201.569 157.06 201.614 157.016C201.659 156.971 201.689 156.914 201.702 156.852C201.714 156.79 201.708 156.726 201.683 156.668C201.659 156.609 201.618 156.56 201.566 156.525C201.513 156.489 201.451 156.471 201.388 156.471C201.303 156.471 201.222 156.504 201.162 156.564C201.102 156.624 201.068 156.705 201.068 156.79Z" fill="#F3C262"/>
<path d="M200.01 156.79C200.01 156.854 200.029 156.916 200.064 156.969C200.099 157.022 200.149 157.063 200.208 157.087C200.267 157.112 200.331 157.118 200.394 157.106C200.456 157.094 200.513 157.063 200.559 157.019C200.604 156.974 200.635 156.917 200.647 156.854C200.66 156.792 200.654 156.728 200.63 156.669C200.606 156.61 200.565 156.56 200.512 156.524C200.46 156.488 200.398 156.469 200.334 156.469C200.292 156.468 200.249 156.477 200.21 156.493C200.171 156.509 200.135 156.532 200.105 156.562C200.075 156.592 200.051 156.628 200.034 156.667C200.018 156.706 200.01 156.748 200.01 156.79Z" fill="white"/>
<path d="M198.944 156.79C198.944 156.854 198.962 156.916 198.998 156.969C199.033 157.023 199.083 157.064 199.142 157.089C199.201 157.114 199.266 157.12 199.329 157.108C199.391 157.095 199.449 157.065 199.494 157.02C199.539 156.975 199.57 156.917 199.582 156.854C199.595 156.792 199.588 156.727 199.563 156.668C199.539 156.609 199.497 156.559 199.444 156.524C199.39 156.489 199.328 156.47 199.264 156.471C199.179 156.471 199.098 156.504 199.038 156.564C198.978 156.624 198.944 156.705 198.944 156.79Z" fill="#F3C262"/>
<path d="M203.182 157.753C203.182 157.817 203.201 157.879 203.236 157.932C203.271 157.985 203.322 158.026 203.38 158.05C203.439 158.075 203.504 158.081 203.566 158.069C203.629 158.056 203.686 158.026 203.731 157.981C203.776 157.936 203.807 157.878 203.819 157.816C203.832 157.754 203.825 157.689 203.801 157.63C203.777 157.571 203.735 157.521 203.682 157.486C203.63 157.451 203.567 157.432 203.504 157.432C203.461 157.431 203.419 157.439 203.38 157.455C203.341 157.472 203.305 157.495 203.275 157.525C203.245 157.555 203.222 157.591 203.206 157.63C203.189 157.669 203.181 157.711 203.182 157.753Z" fill="white"/>
<path d="M202.125 157.753C202.125 157.817 202.144 157.879 202.179 157.932C202.215 157.985 202.265 158.026 202.324 158.051C202.383 158.075 202.448 158.081 202.511 158.068C202.573 158.056 202.631 158.025 202.675 157.98C202.72 157.935 202.751 157.877 202.763 157.815C202.775 157.752 202.768 157.687 202.744 157.629C202.719 157.57 202.677 157.52 202.624 157.485C202.571 157.45 202.508 157.431 202.445 157.432C202.402 157.432 202.361 157.44 202.322 157.456C202.283 157.472 202.248 157.496 202.218 157.526C202.188 157.556 202.165 157.591 202.149 157.63C202.133 157.669 202.125 157.711 202.125 157.753Z" fill="#F3C262"/>
<path d="M201.068 157.753C201.069 157.816 201.088 157.878 201.123 157.93C201.159 157.982 201.209 158.023 201.267 158.046C201.326 158.07 201.39 158.076 201.452 158.064C201.514 158.051 201.57 158.021 201.615 157.976C201.659 157.931 201.69 157.874 201.702 157.812C201.714 157.75 201.707 157.686 201.683 157.628C201.659 157.57 201.618 157.52 201.565 157.485C201.513 157.45 201.451 157.432 201.388 157.432C201.346 157.432 201.304 157.44 201.265 157.456C201.226 157.472 201.191 157.496 201.161 157.526C201.131 157.556 201.108 157.591 201.092 157.63C201.076 157.669 201.068 157.711 201.068 157.753Z" fill="#F3C262"/>
<path d="M200.01 157.753C200.01 157.817 200.029 157.879 200.064 157.932C200.099 157.985 200.15 158.026 200.209 158.05C200.267 158.075 200.332 158.081 200.395 158.069C200.457 158.056 200.514 158.026 200.559 157.981C200.604 157.936 200.635 157.878 200.648 157.816C200.66 157.754 200.654 157.689 200.629 157.63C200.605 157.571 200.564 157.521 200.511 157.486C200.458 157.451 200.395 157.432 200.332 157.432C200.289 157.431 200.247 157.439 200.208 157.455C200.169 157.472 200.133 157.495 200.103 157.525C200.073 157.555 200.05 157.591 200.034 157.63C200.018 157.669 200.009 157.711 200.01 157.753Z" fill="#F3C262"/>
<path d="M198.944 157.753C198.944 157.817 198.963 157.879 198.999 157.932C199.034 157.985 199.085 158.026 199.144 158.051C199.203 158.075 199.267 158.081 199.33 158.068C199.392 158.056 199.45 158.025 199.495 157.98C199.54 157.935 199.57 157.877 199.582 157.815C199.595 157.752 199.588 157.687 199.563 157.629C199.538 157.57 199.497 157.52 199.443 157.485C199.39 157.45 199.328 157.431 199.264 157.432C199.222 157.432 199.18 157.44 199.141 157.456C199.102 157.472 199.067 157.496 199.037 157.526C199.007 157.556 198.984 157.591 198.968 157.63C198.952 157.669 198.944 157.711 198.944 157.753Z" fill="#111B23"/>
<path d="M204.246 158.073H204.432V155.51H204.246V158.073Z" fill="#111B23"/>
<path d="M198.456 163.016H212.139V159.189H198.456V163.016Z" fill="#37474F"/>
<path d="M215.761 159.189H212.139V163.016H215.761V159.189Z" fill="#2A5578"/>
<path d="M204.902 160.144H211.438V159.82H204.902V160.144Z" fill="#2A5578"/>
<path d="M204.902 160.705H211.438V160.381H204.902V160.705Z" fill="#2A5578"/>
<path d="M204.902 161.265H211.438V160.941H204.902V161.265Z" fill="#2A5578"/>
<path d="M204.902 161.824H211.438V161.5H204.902V161.824Z" fill="#2A5578"/>
<path d="M204.902 162.385H211.438V162.061H204.902V162.385Z" fill="#2A5578"/>
<path d="M203.182 160.144C203.182 160.207 203.201 160.27 203.236 160.322C203.271 160.375 203.322 160.417 203.38 160.441C203.439 160.465 203.504 160.472 203.566 160.459C203.629 160.447 203.686 160.416 203.731 160.371C203.776 160.326 203.807 160.269 203.819 160.207C203.832 160.144 203.825 160.08 203.801 160.021C203.777 159.962 203.735 159.912 203.682 159.876C203.63 159.841 203.567 159.822 203.504 159.822C203.461 159.822 203.419 159.83 203.38 159.846C203.341 159.862 203.305 159.886 203.275 159.916C203.245 159.946 203.222 159.981 203.206 160.02C203.189 160.06 203.181 160.102 203.182 160.144Z" fill="#F3C262"/>
<path d="M202.125 160.144C202.125 160.208 202.144 160.27 202.179 160.323C202.215 160.376 202.265 160.417 202.324 160.441C202.383 160.465 202.448 160.472 202.511 160.459C202.573 160.446 202.631 160.416 202.675 160.37C202.72 160.325 202.751 160.268 202.763 160.205C202.775 160.143 202.768 160.078 202.744 160.019C202.719 159.96 202.677 159.91 202.624 159.875C202.571 159.84 202.508 159.822 202.445 159.822C202.402 159.822 202.361 159.831 202.322 159.847C202.283 159.863 202.248 159.887 202.218 159.917C202.188 159.946 202.165 159.982 202.149 160.021C202.133 160.06 202.125 160.102 202.125 160.144Z" fill="white"/>
<path d="M201.068 160.144C201.069 160.207 201.088 160.268 201.123 160.321C201.159 160.373 201.209 160.413 201.267 160.437C201.326 160.461 201.39 160.467 201.452 160.454C201.514 160.442 201.57 160.411 201.615 160.366C201.659 160.322 201.69 160.265 201.702 160.203C201.714 160.141 201.707 160.077 201.683 160.019C201.659 159.961 201.618 159.911 201.565 159.876C201.513 159.841 201.451 159.822 201.388 159.822C201.346 159.822 201.304 159.831 201.265 159.847C201.226 159.863 201.191 159.887 201.161 159.917C201.131 159.946 201.108 159.982 201.092 160.021C201.076 160.06 201.068 160.102 201.068 160.144Z" fill="#F3C262"/>
<path d="M200.01 160.144C200.01 160.207 200.029 160.27 200.064 160.322C200.099 160.375 200.15 160.417 200.209 160.441C200.267 160.465 200.332 160.472 200.395 160.459C200.457 160.447 200.514 160.416 200.559 160.371C200.604 160.326 200.635 160.269 200.648 160.207C200.66 160.144 200.654 160.08 200.629 160.021C200.605 159.962 200.564 159.912 200.511 159.876C200.458 159.841 200.395 159.822 200.332 159.822C200.289 159.822 200.247 159.83 200.208 159.846C200.169 159.862 200.133 159.886 200.103 159.916C200.073 159.946 200.05 159.981 200.034 160.02C200.018 160.06 200.009 160.102 200.01 160.144Z" fill="#F3C262"/>
<path d="M198.944 160.144C198.944 160.208 198.963 160.27 198.999 160.323C199.034 160.376 199.085 160.417 199.144 160.441C199.203 160.465 199.267 160.472 199.33 160.459C199.392 160.446 199.45 160.416 199.495 160.37C199.54 160.325 199.57 160.268 199.582 160.205C199.595 160.143 199.588 160.078 199.563 160.019C199.538 159.96 199.497 159.91 199.443 159.875C199.39 159.84 199.328 159.822 199.264 159.822C199.222 159.822 199.18 159.831 199.141 159.847C199.102 159.863 199.067 159.887 199.037 159.917C199.007 159.946 198.984 159.982 198.968 160.021C198.952 160.06 198.944 160.102 198.944 160.144Z" fill="#F3C262"/>
<path d="M203.182 161.097C203.181 161.16 203.2 161.223 203.235 161.276C203.27 161.329 203.32 161.371 203.379 161.395C203.438 161.42 203.502 161.427 203.565 161.415C203.628 161.402 203.685 161.372 203.73 161.327C203.776 161.282 203.807 161.225 203.819 161.162C203.832 161.1 203.826 161.035 203.801 160.976C203.777 160.917 203.736 160.867 203.683 160.832C203.63 160.796 203.567 160.777 203.504 160.777C203.419 160.777 203.337 160.811 203.277 160.871C203.216 160.931 203.182 161.012 203.182 161.097Z" fill="white"/>
<path d="M202.125 161.097C202.125 161.16 202.143 161.223 202.178 161.276C202.213 161.329 202.264 161.371 202.323 161.396C202.382 161.42 202.447 161.427 202.509 161.414C202.572 161.402 202.629 161.371 202.675 161.326C202.72 161.281 202.75 161.224 202.763 161.161C202.775 161.098 202.769 161.034 202.744 160.975C202.719 160.916 202.678 160.866 202.624 160.831C202.571 160.795 202.509 160.777 202.445 160.777C202.36 160.777 202.279 160.811 202.219 160.871C202.159 160.931 202.125 161.012 202.125 161.097Z" fill="#111B23"/>
<path d="M201.068 161.097C201.068 161.16 201.087 161.221 201.122 161.274C201.157 161.326 201.207 161.367 201.266 161.392C201.324 161.416 201.388 161.422 201.45 161.41C201.512 161.397 201.569 161.367 201.614 161.322C201.659 161.278 201.689 161.221 201.702 161.159C201.714 161.097 201.708 161.033 201.683 160.974C201.659 160.916 201.618 160.866 201.566 160.831C201.513 160.796 201.451 160.777 201.388 160.777C201.303 160.777 201.222 160.811 201.162 160.871C201.102 160.931 201.068 161.012 201.068 161.097Z" fill="#F3C262"/>
<path d="M200.01 161.097C200.009 161.16 200.028 161.223 200.063 161.276C200.098 161.329 200.148 161.371 200.207 161.395C200.266 161.42 200.331 161.427 200.393 161.415C200.456 161.402 200.513 161.372 200.559 161.327C200.604 161.282 200.635 161.225 200.647 161.162C200.66 161.1 200.654 161.035 200.629 160.976C200.605 160.917 200.564 160.867 200.511 160.832C200.458 160.796 200.396 160.777 200.332 160.777C200.247 160.777 200.165 160.811 200.105 160.871C200.045 160.931 200.01 161.012 200.01 161.097Z" fill="#111B23"/>
<path d="M198.944 161.097C198.944 161.16 198.962 161.223 198.998 161.276C199.033 161.329 199.083 161.371 199.142 161.396C199.201 161.42 199.266 161.427 199.329 161.414C199.391 161.402 199.449 161.371 199.494 161.326C199.539 161.281 199.57 161.224 199.582 161.161C199.595 161.098 199.588 161.034 199.563 160.975C199.539 160.916 199.497 160.866 199.444 160.831C199.39 160.795 199.328 160.777 199.264 160.777C199.179 160.777 199.098 160.811 199.038 160.871C198.978 160.931 198.944 161.012 198.944 161.097Z" fill="white"/>
<path d="M203.182 162.063C203.181 162.127 203.2 162.189 203.235 162.243C203.27 162.296 203.32 162.337 203.379 162.362C203.438 162.387 203.502 162.394 203.565 162.381C203.628 162.369 203.685 162.339 203.73 162.294C203.776 162.249 203.807 162.192 203.819 162.129C203.832 162.067 203.826 162.002 203.801 161.943C203.777 161.884 203.736 161.834 203.683 161.799C203.63 161.763 203.567 161.744 203.504 161.744C203.419 161.744 203.337 161.778 203.277 161.838C203.216 161.897 203.182 161.979 203.182 162.063Z" fill="#F3C262"/>
<path d="M202.125 162.063C202.125 162.127 202.143 162.19 202.178 162.243C202.213 162.296 202.264 162.338 202.323 162.362C202.382 162.387 202.447 162.394 202.509 162.381C202.572 162.369 202.629 162.338 202.675 162.293C202.72 162.248 202.75 162.19 202.763 162.128C202.775 162.065 202.769 162 202.744 161.942C202.719 161.883 202.678 161.833 202.624 161.797C202.571 161.762 202.509 161.744 202.445 161.744C202.36 161.744 202.279 161.778 202.219 161.838C202.159 161.898 202.125 161.979 202.125 162.063Z" fill="#F3C262"/>
<path d="M201.068 162.063C201.068 162.127 201.087 162.188 201.122 162.241C201.157 162.293 201.207 162.334 201.266 162.358C201.324 162.383 201.388 162.389 201.45 162.377C201.512 162.364 201.569 162.334 201.614 162.289C201.659 162.244 201.689 162.188 201.702 162.126C201.714 162.064 201.708 162 201.683 161.941C201.659 161.883 201.618 161.833 201.566 161.798C201.513 161.763 201.451 161.744 201.388 161.744C201.303 161.744 201.222 161.778 201.162 161.838C201.102 161.898 201.068 161.979 201.068 162.063Z" fill="#F3C262"/>
<path d="M200.01 162.063C200.009 162.127 200.028 162.189 200.063 162.242C200.098 162.296 200.148 162.337 200.206 162.362C200.265 162.387 200.33 162.393 200.392 162.382C200.455 162.37 200.512 162.339 200.558 162.295C200.603 162.25 200.634 162.193 200.647 162.131C200.66 162.068 200.654 162.004 200.63 161.945C200.606 161.886 200.565 161.835 200.513 161.8C200.46 161.764 200.398 161.745 200.334 161.744C200.292 161.744 200.25 161.752 200.211 161.768C200.171 161.784 200.136 161.807 200.106 161.837C200.076 161.866 200.052 161.902 200.035 161.941C200.019 161.979 200.01 162.021 200.01 162.063Z" fill="#F3C262"/>
<path d="M198.944 162.063C198.944 162.127 198.962 162.19 198.998 162.243C199.033 162.296 199.083 162.338 199.142 162.362C199.201 162.387 199.266 162.394 199.329 162.381C199.391 162.369 199.449 162.338 199.494 162.293C199.539 162.248 199.57 162.19 199.582 162.128C199.595 162.065 199.588 162 199.563 161.942C199.539 161.883 199.497 161.833 199.444 161.797C199.39 161.762 199.328 161.744 199.264 161.744C199.179 161.744 199.098 161.778 199.038 161.838C198.978 161.898 198.944 161.979 198.944 162.063Z" fill="#F3C262"/>
<path d="M204.246 162.385H204.432V159.822H204.246V162.385Z" fill="#111B23"/>
<path d="M198.456 167.326H212.139V163.5H198.456V167.326Z" fill="#37474F"/>
<path d="M215.761 163.502H212.139V167.328H215.761V163.502Z" fill="#2A5578"/>
<path d="M204.902 164.455H211.438V164.131H204.902V164.455Z" fill="#2A5578"/>
<path d="M204.902 165.015H211.438V164.691H204.902V165.015Z" fill="#2A5578"/>
<path d="M204.902 165.574H211.438V165.25H204.902V165.574Z" fill="#2A5578"/>
<path d="M204.902 166.135H211.438V165.811H204.902V166.135Z" fill="#2A5578"/>
<path d="M204.902 166.695H211.438V166.371H204.902V166.695Z" fill="#2A5578"/>
<path d="M203.182 164.452C203.181 164.516 203.2 164.578 203.235 164.631C203.27 164.685 203.32 164.726 203.379 164.751C203.438 164.775 203.502 164.782 203.565 164.77C203.628 164.758 203.685 164.727 203.73 164.683C203.776 164.638 203.807 164.58 203.819 164.518C203.832 164.456 203.826 164.391 203.801 164.332C203.777 164.273 203.736 164.223 203.683 164.187C203.63 164.152 203.567 164.133 203.504 164.133C203.419 164.133 203.337 164.166 203.277 164.226C203.216 164.286 203.182 164.367 203.182 164.452Z" fill="white"/>
<path d="M202.125 164.452C202.125 164.516 202.143 164.578 202.178 164.632C202.213 164.685 202.264 164.726 202.323 164.751C202.382 164.776 202.447 164.782 202.509 164.77C202.572 164.758 202.629 164.727 202.675 164.682C202.72 164.637 202.75 164.579 202.763 164.517C202.775 164.454 202.769 164.389 202.744 164.33C202.719 164.271 202.678 164.221 202.624 164.186C202.571 164.151 202.509 164.132 202.445 164.133C202.36 164.133 202.279 164.166 202.219 164.226C202.159 164.286 202.125 164.367 202.125 164.452Z" fill="#F3C262"/>
<path d="M201.068 164.452C201.068 164.515 201.087 164.577 201.122 164.629C201.157 164.682 201.207 164.723 201.266 164.747C201.324 164.771 201.388 164.777 201.45 164.765C201.512 164.753 201.569 164.722 201.614 164.678C201.659 164.633 201.689 164.576 201.702 164.514C201.714 164.452 201.708 164.388 201.683 164.33C201.659 164.272 201.618 164.222 201.566 164.187C201.513 164.152 201.451 164.133 201.388 164.133C201.303 164.133 201.222 164.166 201.162 164.226C201.102 164.286 201.068 164.367 201.068 164.452Z" fill="#F3C262"/>
<path d="M200.01 164.452C200.009 164.516 200.028 164.578 200.063 164.631C200.098 164.685 200.148 164.726 200.207 164.751C200.266 164.775 200.331 164.782 200.393 164.77C200.456 164.758 200.513 164.727 200.559 164.683C200.604 164.638 200.635 164.58 200.647 164.518C200.66 164.456 200.654 164.391 200.629 164.332C200.605 164.273 200.564 164.223 200.511 164.187C200.458 164.152 200.396 164.133 200.332 164.133C200.247 164.133 200.165 164.166 200.105 164.226C200.045 164.286 200.01 164.367 200.01 164.452Z" fill="#F3C262"/>
<path d="M198.944 164.452C198.944 164.516 198.962 164.578 198.998 164.632C199.033 164.685 199.083 164.726 199.142 164.751C199.201 164.776 199.266 164.782 199.329 164.77C199.391 164.758 199.449 164.727 199.494 164.682C199.539 164.637 199.57 164.579 199.582 164.517C199.595 164.454 199.588 164.389 199.563 164.33C199.539 164.271 199.497 164.221 199.444 164.186C199.39 164.151 199.328 164.132 199.264 164.133C199.179 164.133 199.098 164.166 199.038 164.226C198.978 164.286 198.944 164.367 198.944 164.452Z" fill="#F3C262"/>
<path d="M203.182 165.415C203.182 165.479 203.201 165.541 203.236 165.594C203.271 165.647 203.322 165.688 203.38 165.712C203.439 165.737 203.504 165.743 203.566 165.731C203.629 165.718 203.686 165.688 203.731 165.643C203.776 165.598 203.807 165.54 203.819 165.478C203.832 165.416 203.825 165.351 203.801 165.292C203.777 165.234 203.735 165.183 203.682 165.148C203.63 165.113 203.567 165.094 203.504 165.094C203.461 165.093 203.419 165.102 203.38 165.118C203.341 165.134 203.305 165.157 203.275 165.187C203.245 165.217 203.222 165.253 203.206 165.292C203.189 165.331 203.181 165.373 203.182 165.415Z" fill="#111B23"/>
<path d="M202.125 165.415C202.125 165.479 202.144 165.541 202.179 165.594C202.215 165.647 202.265 165.688 202.324 165.713C202.383 165.737 202.448 165.743 202.511 165.731C202.573 165.718 202.631 165.687 202.675 165.642C202.72 165.597 202.751 165.539 202.763 165.477C202.775 165.414 202.768 165.349 202.744 165.291C202.719 165.232 202.677 165.182 202.624 165.147C202.571 165.112 202.508 165.093 202.445 165.094C202.402 165.094 202.361 165.102 202.322 165.118C202.283 165.134 202.248 165.158 202.218 165.188C202.188 165.218 202.165 165.253 202.149 165.292C202.133 165.331 202.125 165.373 202.125 165.415Z" fill="#F3C262"/>
<path d="M201.068 165.415C201.069 165.478 201.088 165.54 201.123 165.592C201.159 165.644 201.209 165.685 201.267 165.709C201.326 165.732 201.39 165.738 201.452 165.726C201.514 165.713 201.57 165.683 201.615 165.638C201.659 165.593 201.69 165.536 201.702 165.474C201.714 165.413 201.707 165.348 201.683 165.29C201.659 165.232 201.618 165.182 201.565 165.147C201.513 165.112 201.451 165.094 201.388 165.094C201.346 165.094 201.304 165.102 201.265 165.118C201.226 165.134 201.191 165.158 201.161 165.188C201.131 165.218 201.108 165.253 201.092 165.292C201.076 165.331 201.068 165.373 201.068 165.415Z" fill="white"/>
<path d="M200.01 165.415C200.01 165.479 200.029 165.541 200.064 165.594C200.099 165.647 200.15 165.688 200.209 165.712C200.267 165.737 200.332 165.743 200.395 165.731C200.457 165.718 200.514 165.688 200.559 165.643C200.604 165.598 200.635 165.54 200.648 165.478C200.66 165.416 200.654 165.351 200.629 165.292C200.605 165.234 200.564 165.183 200.511 165.148C200.458 165.113 200.395 165.094 200.332 165.094C200.289 165.093 200.247 165.102 200.208 165.118C200.169 165.134 200.133 165.157 200.103 165.187C200.073 165.217 200.05 165.253 200.034 165.292C200.018 165.331 200.009 165.373 200.01 165.415Z" fill="#111B23"/>
<path d="M198.944 165.415C198.944 165.479 198.963 165.541 198.999 165.594C199.034 165.647 199.085 165.688 199.144 165.713C199.203 165.737 199.267 165.743 199.33 165.731C199.392 165.718 199.45 165.687 199.495 165.642C199.54 165.597 199.57 165.539 199.582 165.477C199.595 165.414 199.588 165.349 199.563 165.291C199.538 165.232 199.497 165.182 199.443 165.147C199.39 165.112 199.328 165.093 199.264 165.094C199.222 165.094 199.18 165.102 199.141 165.118C199.102 165.134 199.067 165.158 199.037 165.188C199.007 165.218 198.984 165.253 198.968 165.292C198.952 165.331 198.944 165.373 198.944 165.415Z" fill="#F3C262"/>
<path d="M203.182 166.376C203.181 166.44 203.2 166.502 203.235 166.555C203.27 166.608 203.32 166.65 203.379 166.675C203.438 166.699 203.502 166.706 203.565 166.694C203.628 166.682 203.685 166.651 203.73 166.606C203.776 166.562 203.807 166.504 203.819 166.442C203.832 166.379 203.826 166.315 203.801 166.256C203.777 166.197 203.736 166.146 203.683 166.111C203.63 166.076 203.567 166.057 203.504 166.057C203.461 166.056 203.42 166.064 203.381 166.08C203.342 166.096 203.306 166.12 203.276 166.149C203.246 166.179 203.222 166.214 203.206 166.253C203.19 166.292 203.182 166.334 203.182 166.376Z" fill="#F3C262"/>
<path d="M202.125 166.376C202.125 166.44 202.143 166.502 202.178 166.555C202.213 166.609 202.264 166.65 202.323 166.675C202.382 166.699 202.447 166.706 202.509 166.694C202.572 166.681 202.629 166.651 202.675 166.606C202.72 166.56 202.75 166.503 202.763 166.44C202.775 166.378 202.769 166.313 202.744 166.254C202.719 166.195 202.678 166.145 202.624 166.11C202.571 166.075 202.509 166.056 202.445 166.057C202.36 166.057 202.279 166.09 202.219 166.15C202.159 166.21 202.125 166.291 202.125 166.376Z" fill="#111B23"/>
<path d="M201.068 166.376C201.068 166.439 201.087 166.501 201.122 166.553C201.157 166.606 201.207 166.647 201.266 166.671C201.324 166.695 201.388 166.701 201.45 166.689C201.512 166.677 201.569 166.646 201.614 166.602C201.659 166.557 201.689 166.5 201.702 166.438C201.714 166.376 201.708 166.312 201.683 166.254C201.659 166.195 201.618 166.146 201.566 166.11C201.513 166.075 201.451 166.057 201.388 166.057C201.303 166.057 201.222 166.09 201.162 166.15C201.102 166.21 201.068 166.291 201.068 166.376Z" fill="#F3C262"/>
<path d="M200.01 166.376C200.009 166.44 200.028 166.502 200.063 166.555C200.098 166.608 200.148 166.65 200.207 166.675C200.266 166.699 200.331 166.706 200.393 166.694C200.456 166.682 200.513 166.651 200.559 166.606C200.604 166.562 200.635 166.504 200.647 166.442C200.66 166.379 200.654 166.315 200.629 166.256C200.605 166.197 200.564 166.146 200.511 166.111C200.458 166.076 200.396 166.057 200.332 166.057C200.29 166.056 200.248 166.064 200.209 166.08C200.17 166.096 200.134 166.12 200.104 166.149C200.074 166.179 200.051 166.214 200.034 166.253C200.018 166.292 200.01 166.334 200.01 166.376Z" fill="#F3C262"/>
<path d="M198.944 166.376C198.944 166.44 198.962 166.502 198.998 166.555C199.033 166.609 199.083 166.65 199.142 166.675C199.201 166.699 199.266 166.706 199.329 166.694C199.391 166.681 199.449 166.651 199.494 166.606C199.539 166.56 199.57 166.503 199.582 166.44C199.595 166.378 199.588 166.313 199.563 166.254C199.539 166.195 199.497 166.145 199.444 166.11C199.39 166.075 199.328 166.056 199.264 166.057C199.179 166.057 199.098 166.09 199.038 166.15C198.978 166.21 198.944 166.291 198.944 166.376Z" fill="white"/>
<path d="M204.246 166.696H204.432V164.133H204.246V166.696Z" fill="#111B23"/>
<path d="M190.374 144.676H190.143V145.138H190.374V144.676Z" fill="#F3C262"/>
<path d="M190.793 148.615H190.562V147.745H190.793V148.615ZM190.793 146.878H190.562V146.008H190.793V146.878Z" fill="#F3C262"/>
<path d="M191.141 150.065H190.562V149.486H190.793V149.833H191.141V150.065Z" fill="#F3C262"/>
<path d="M201.388 150.063H200.533V149.832H201.388V150.063ZM199.68 150.063H198.826V149.832H199.68V150.063ZM197.971 150.063H197.119V149.832H197.973L197.971 150.063ZM196.264 150.063H195.409V149.832H196.264V150.063ZM194.557 150.063H193.702V149.832H194.557V150.063ZM192.85 150.063H191.995V149.832H192.85V150.063Z" fill="#F3C262"/>
<path d="M190.561 144.675H189.707V144.443H190.561V144.675ZM188.854 144.675H188V144.443H188.854V144.675ZM187.145 144.675H186.293V144.443H187.147L187.145 144.675ZM185.438 144.675H184.583V144.443H185.438V144.675ZM183.731 144.675H182.876V144.443H183.731V144.675ZM182.024 144.675H181.169V144.443H182.024V144.675Z" fill="#F3C262"/>
<path d="M180.751 144.675H179.896V144.443H180.751V144.675ZM179.044 144.675H178.189V144.443H179.044V144.675ZM177.334 144.675H176.482V144.443H177.336L177.334 144.675ZM175.627 144.675H174.772V144.443H175.627V144.675Z" fill="#F3C262"/>
<path d="M202.4 150.41H202.169V150.063H201.821V149.832H202.4V150.41Z" fill="#F3C262"/>
<path d="M202.401 151.051H202.169V151.692H202.401V151.051Z" fill="#F3C262"/>
<path d="M202.401 152.33H202.169V152.793H202.401V152.33Z" fill="#F3C262"/>
<path d="M201.85 152.767C201.85 152.853 201.875 152.937 201.923 153.009C201.971 153.08 202.039 153.136 202.118 153.169C202.198 153.202 202.286 153.21 202.37 153.194C202.454 153.177 202.532 153.135 202.593 153.074C202.654 153.014 202.695 152.936 202.712 152.852C202.729 152.767 202.72 152.68 202.687 152.601C202.654 152.521 202.599 152.453 202.527 152.405C202.455 152.358 202.371 152.332 202.285 152.332C202.17 152.332 202.059 152.378 201.977 152.459C201.895 152.541 201.85 152.652 201.85 152.767Z" fill="#F3C262"/>
<path d="M121.045 144.793H121.252V145.256H121.045V144.793Z" fill="#F3C262"/>
<path d="M121.045 148.732H121.252V147.862H121.045V148.732ZM121.045 146.995H121.252V146.125H121.045V146.995Z" fill="#F3C262"/>
<path d="M120.735 150.18H121.252V149.602H121.045V149.949H120.735V150.18Z" fill="#F3C262"/>
<path d="M111.591 150.181H112.354V149.949H111.591V150.181ZM113.115 150.181H113.877V149.949H113.115V150.181ZM114.64 150.181H115.401V149.949H114.638L114.64 150.181ZM116.163 150.181H116.926V149.949H116.163V150.181ZM117.687 150.181H118.449V149.949H117.687V150.181ZM119.21 150.181H119.973V149.949H119.21V150.181Z" fill="#F3C262"/>
<path d="M121.253 144.792H122.015V144.561H121.253V144.792ZM122.776 144.792H123.539V144.561H122.776V144.792ZM124.301 144.792H125.062V144.561H124.299L124.301 144.792ZM125.824 144.792H126.587V144.561H125.824V144.792ZM127.348 144.792H128.11V144.561H127.348V144.792ZM128.871 144.792H129.634V144.561H128.871V144.792Z" fill="#F3C262"/>
<path d="M129.633 144.792H130.396V144.561H129.633V144.792ZM131.157 144.792H131.919V144.561H131.157V144.792ZM132.682 144.792H133.443V144.561H132.68L132.682 144.792ZM134.205 144.792H134.968V144.561H134.205V144.792Z" fill="#F3C262"/>
<path d="M110.314 150.528H110.521V150.181H110.831V149.949H110.314V150.528Z" fill="#F3C262"/>
<path d="M110.314 151.168H110.521V151.809H110.314V151.168Z" fill="#F3C262"/>
<path d="M110.314 152.447H110.521V152.91H110.314V152.447Z" fill="#F3C262"/>
</g>
<defs>
<clipPath id="clip0_2463_46423">
<rect width="318" height="228" fill="white"/>
</clipPath>
</defs>
</svg>
