<svg width="339" height="339" viewBox="0 0 339 339" fill="none" xmlns="http://www.w3.org/2000/svg">
<path d="M339 259.268H0V259.437H339V259.268Z" fill="#EBEBEB"/>
<path d="M88.3913 265.722H35.5684V265.891H88.3913V265.722Z" fill="#EBEBEB"/>
<path d="M305.032 270.882H279.336V271.051H305.032V270.882Z" fill="#EBEBEB"/>
<path d="M102.079 272.021H89.0684V272.19H102.079V272.021Z" fill="#EBEBEB"/>
<path d="M166.353 263.885H137.07V264.054H166.353V263.885Z" fill="#EBEBEB"/>
<path d="M176.68 263.885H172.389V264.054H176.68V263.885Z" fill="#EBEBEB"/>
<path d="M251.463 268.021H222.16V268.19H251.463V268.021Z" fill="#EBEBEB"/>
<path d="M160.686 229.028H29.7709C28.7453 229.027 27.7623 228.618 27.0378 227.892C26.3132 227.166 25.9062 226.183 25.9063 225.157V41.1275C25.9152 40.1078 26.3261 39.1328 27.0497 38.4143C27.7733 37.6958 28.7511 37.2918 29.7709 37.29H160.686C161.713 37.29 162.697 37.6979 163.423 38.4239C164.149 39.15 164.557 40.1347 164.557 41.1614V225.157C164.557 226.184 164.149 227.169 163.423 227.895C162.697 228.621 161.713 229.028 160.686 229.028ZM29.7709 37.4256C28.7902 37.4274 27.8504 37.8182 27.1576 38.5123C26.4648 39.2063 26.0757 40.1469 26.0758 41.1275V225.157C26.0757 226.138 26.4648 227.078 27.1576 227.772C27.8504 228.466 28.7902 228.857 29.7709 228.859H160.686C161.667 228.857 162.608 228.467 163.302 227.773C163.995 227.079 164.386 226.138 164.388 225.157V41.1275C164.386 40.1463 163.995 39.2057 163.302 38.5119C162.608 37.818 161.667 37.4274 160.686 37.4256H29.7709Z" fill="#EBEBEB"/>
<path d="M307.344 229.028H176.422C175.396 229.027 174.412 228.618 173.687 227.893C172.961 227.167 172.553 226.183 172.551 225.157V41.1275C172.561 40.1072 172.974 39.1322 173.699 38.4139C174.423 37.6956 175.402 37.2918 176.422 37.29H307.344C308.363 37.2936 309.339 37.6984 310.061 38.4167C310.783 39.135 311.193 40.109 311.202 41.1275V225.157C311.202 226.181 310.796 227.164 310.073 227.89C309.35 228.615 308.368 229.025 307.344 229.028ZM176.422 37.4256C175.441 37.4274 174.5 37.818 173.807 38.5119C173.113 39.2057 172.722 40.1463 172.72 41.1275V225.157C172.722 226.138 173.113 227.079 173.807 227.773C174.5 228.467 175.441 228.857 176.422 228.859H307.344C308.325 228.857 309.266 228.467 309.96 227.773C310.653 227.079 311.044 226.138 311.046 225.157V41.1275C311.044 40.1463 310.653 39.2057 309.96 38.5119C309.266 37.818 308.325 37.4274 307.344 37.4256H176.422Z" fill="#EBEBEB"/>
<path d="M90.0855 243.768H56.7685C56.0501 243.768 55.356 243.508 54.8131 243.038C54.2703 242.567 53.9151 241.917 53.8125 241.206L45.4731 184.206C45.4107 183.781 45.4407 183.347 45.561 182.935C45.6814 182.522 45.8892 182.141 46.1704 181.816C46.4516 181.491 46.7995 181.23 47.1905 181.052C47.5814 180.874 48.0062 180.782 48.4359 180.782H81.7461C82.4639 180.781 83.1579 181.039 83.7009 181.509C84.2439 181.978 84.5994 182.628 84.7021 183.338L93.0415 240.345C93.1038 240.769 93.074 241.202 92.954 241.614C92.8341 242.026 92.6268 242.408 92.3464 242.732C92.066 243.057 91.7189 243.318 91.3288 243.497C90.9386 243.675 90.5146 243.768 90.0855 243.768Z" fill="#F0F0F0"/>
<path d="M60.7356 243.768H45.0264C44.3075 243.769 43.6126 243.51 43.0695 243.039C42.5264 242.568 42.1716 241.917 42.0703 241.206L33.7309 184.206C33.6686 183.782 33.6984 183.349 33.8184 182.936C33.9383 182.524 34.1456 182.143 34.426 181.818C34.7065 181.493 35.0535 181.233 35.4437 181.054C35.8338 180.875 36.2578 180.783 36.687 180.782H52.3962C53.1144 180.783 53.8086 181.041 54.3524 181.51C54.8962 181.979 55.2535 182.628 55.3591 183.338L63.6917 240.345C63.754 240.769 63.7241 241.202 63.6042 241.614C63.4842 242.026 63.277 242.408 62.9966 242.732C62.7161 243.057 62.369 243.318 61.9789 243.497C61.5888 243.675 61.1647 243.768 60.7356 243.768Z" fill="#FAFAFA"/>
<path d="M259.552 166.334H97.6325C93.517 166.334 89.9033 169.419 89.5507 173.222L85.4827 217.231C85.1301 221.035 88.1947 224.12 92.2627 224.12H254.169C258.285 224.12 261.898 221.035 262.251 217.231L266.319 173.222C266.712 169.419 263.668 166.334 259.552 166.334Z" fill="#E0E0E0"/>
<path d="M248.562 166.334H86.6559C82.5404 166.334 78.9267 169.419 78.5741 173.222L74.5061 217.231C74.1536 221.035 77.2181 224.12 81.2861 224.12H243.193C247.308 224.12 250.928 221.035 251.274 217.231L255.342 173.222C255.722 169.419 252.678 166.334 248.562 166.334Z" fill="#E6E6E6"/>
<path d="M136.955 238.893V223.218C136.955 220.525 134.773 218.343 132.08 218.343H71.0942C68.4019 218.343 66.2193 220.525 66.2193 223.218V238.893C66.2193 241.585 68.4019 243.768 71.0942 243.768H132.08C134.773 243.768 136.955 241.585 136.955 238.893Z" fill="#EBEBEB"/>
<path d="M234.492 239.307V222.804C234.492 220.34 232.495 218.343 230.031 218.343H158.855C156.391 218.343 154.393 220.34 154.393 222.804V239.307C154.393 241.77 156.391 243.768 158.855 243.768H230.031C232.495 243.768 234.492 241.77 234.492 239.307Z" fill="#E0E0E0"/>
<path d="M217.049 239.3V222.797C217.049 220.333 215.051 218.336 212.588 218.336H141.411C138.947 218.336 136.95 220.333 136.95 222.797V239.3C136.95 241.764 138.947 243.761 141.411 243.761H212.588C215.051 243.761 217.049 241.764 217.049 239.3Z" fill="#EBEBEB"/>
<path d="M259.111 243.768H234.33C233.913 243.777 233.499 243.686 233.125 243.502C232.75 243.319 232.425 243.048 232.177 242.712C231.929 242.376 231.766 241.986 231.7 241.574C231.635 241.162 231.669 240.74 231.801 240.344L247.395 183.338C247.599 182.617 248.029 181.981 248.62 181.521C249.212 181.061 249.934 180.802 250.683 180.782H275.464C275.881 180.774 276.293 180.865 276.667 181.05C277.04 181.234 277.365 181.505 277.612 181.841C277.859 182.176 278.022 182.566 278.087 182.978C278.152 183.389 278.118 183.81 277.986 184.206L262.392 241.205C262.191 241.927 261.764 242.565 261.173 243.027C260.583 243.488 259.86 243.748 259.111 243.768Z" fill="#F0F0F0"/>
<path d="M238.29 243.768H222.581C222.164 243.776 221.752 243.684 221.378 243.5C221.004 243.316 220.68 243.045 220.433 242.709C220.186 242.374 220.023 241.984 219.958 241.572C219.893 241.161 219.927 240.74 220.059 240.344L235.653 183.338C235.856 182.617 236.285 181.98 236.877 181.52C237.469 181.06 238.192 180.801 238.941 180.782H254.657C255.074 180.773 255.487 180.864 255.862 181.047C256.237 181.231 256.562 181.502 256.809 181.838C257.057 182.174 257.221 182.564 257.286 182.976C257.352 183.388 257.317 183.81 257.186 184.206L241.592 241.205C241.388 241.929 240.957 242.569 240.363 243.03C239.768 243.491 239.042 243.75 238.29 243.768Z" fill="#FAFAFA"/>
<path d="M225.151 259.268H222.764L217.049 243.769H222.961L225.151 259.268Z" fill="#E0E0E0"/>
<path d="M255.403 259.268H253.016L247.301 243.769H253.206L255.403 259.268Z" fill="#E0E0E0"/>
<path d="M83.4414 259.268H85.828L91.5367 243.769H85.6313L83.4414 259.268Z" fill="#E0E0E0"/>
<path d="M53.1895 259.268H55.576L61.2848 243.769H55.3862L53.1895 259.268Z" fill="#E0E0E0"/>
<path d="M259.897 66.2207H79.1016V130.705H259.897V66.2207Z" fill="#E0E0E0"/>
<path d="M258.237 66.2207H77.4414V130.705H258.237V66.2207Z" fill="#F0F0F0"/>
<path d="M252.82 125.281V71.6445L82.8728 71.6445V125.281H252.82Z" fill="#FAFAFA"/>
<path d="M167.846 114.541C176.728 114.541 183.928 107.341 183.928 98.4591C183.928 89.5772 176.728 82.377 167.846 82.377C158.964 82.377 151.764 89.5772 151.764 98.4591C151.764 107.341 158.964 114.541 167.846 114.541Z" fill="#F0F0F0"/>
<path d="M110.453 125.281L121.721 71.6445H146.577L135.315 125.281H110.453Z" fill="white"/>
<path d="M145.805 125.281L157.073 71.6445H169.501L158.239 125.281H145.805Z" fill="white"/>
<path d="M221.699 125.281L232.968 71.6445H245.395L234.134 125.281H221.699Z" fill="white"/>
<path d="M299.866 170.693C295.648 188.999 305.968 207.861 301.744 226.14L297.567 225.964L293.391 225.794C300.394 207.624 292.896 188.857 299.866 170.693Z" fill="#F0F0F0"/>
<path d="M289.052 178.619C292.51 196.098 281.418 213.577 284.876 231.056H293.236C286.991 213.57 295.297 196.098 289.052 178.619Z" fill="#F0F0F0"/>
<path d="M296.774 164.076C291.242 182.714 301.52 202.831 295.988 221.469L291.445 221.042L286.902 220.621C295.465 202.275 288.211 182.443 296.774 164.076Z" fill="#E6E6E6"/>
<path d="M304.917 190.932C306.701 201.007 296.781 208.933 298.537 219.014L301.927 219.631L305.317 220.248C301.249 209.76 308.945 201.42 304.917 190.932Z" fill="#E6E6E6"/>
<path d="M294.944 264.352C307.544 264.352 317.758 252.914 317.758 238.805C317.758 224.696 307.544 213.258 294.944 213.258C282.343 213.258 272.129 224.696 272.129 238.805C272.129 252.914 282.343 264.352 294.944 264.352Z" fill="#E0E0E0"/>
<path d="M169.5 289.886C242.102 289.886 300.958 286.45 300.958 282.211C300.958 277.972 242.102 274.536 169.5 274.536C96.8985 274.536 38.043 277.972 38.043 282.211C38.043 286.45 96.8985 289.886 169.5 289.886Z" fill="#F5F5F5"/>
<path d="M260.217 186.173H113.701C113.331 186.173 112.965 186.098 112.626 185.952C112.286 185.806 111.98 185.592 111.726 185.324C111.472 185.055 111.276 184.738 111.149 184.39C111.022 184.043 110.968 183.674 110.989 183.305L115.938 93.4763C115.991 92.7051 116.332 91.9819 116.894 91.4505C117.455 90.9191 118.196 90.6185 118.969 90.6084H265.485C265.854 90.6078 266.22 90.6828 266.56 90.8287C266.9 90.9746 267.206 91.1885 267.46 91.457C267.714 91.7256 267.91 92.0433 268.037 92.3906C268.164 92.7378 268.218 93.1073 268.197 93.4763L263.261 183.305C263.211 184.079 262.869 184.806 262.304 185.339C261.739 185.871 260.993 186.169 260.217 186.173Z" fill="#263238"/>
<path d="M198.58 105.884H184.417C183.307 105.897 182.206 105.681 181.183 105.249C180.161 104.817 179.239 104.178 178.475 103.373C177.711 102.568 177.121 101.613 176.744 100.569C176.366 99.5253 176.209 98.4146 176.281 97.3069L176.423 94.6898C176.574 92.4564 177.561 90.3618 179.187 88.8228C180.812 87.2838 182.958 86.4132 185.196 86.3843H199.353C200.463 86.3718 201.563 86.5885 202.585 87.0209C203.607 87.4533 204.529 88.092 205.293 88.8972C206.056 89.7023 206.646 90.6564 207.024 91.6999C207.402 92.7433 207.56 93.8535 207.489 94.961L207.347 97.5781C207.192 99.8093 206.206 101.901 204.582 103.439C202.958 104.977 200.816 105.85 198.58 105.884Z" fill="#263238"/>
<path d="M211.475 279.377H206.939L194.443 88.3848H198.986L211.475 279.377Z" fill="#263238"/>
<path d="M177.412 279.377H181.955L194.443 88.3848H189.908L177.412 279.377Z" fill="#263238"/>
<path d="M259.437 186.173H112.922C112.552 186.173 112.186 186.098 111.846 185.952C111.507 185.806 111.201 185.592 110.947 185.324C110.693 185.055 110.496 184.738 110.369 184.39C110.243 184.043 110.188 183.674 110.21 183.305L115.139 93.4763C115.191 92.7051 115.532 91.9819 116.094 91.4505C116.655 90.9191 117.396 90.6185 118.169 90.6084H264.685C265.055 90.6078 265.421 90.6828 265.76 90.8287C266.1 90.9746 266.406 91.1885 266.66 91.457C266.914 91.7256 267.11 92.0433 267.237 92.3906C267.364 92.7378 267.418 93.1073 267.397 93.4763L262.461 183.305C262.412 184.076 262.073 184.8 261.512 185.332C260.951 185.864 260.21 186.164 259.437 186.173Z" fill="#F3C262"/>
<path opacity="0.4" d="M115.26 183.419C114.964 183.423 114.67 183.365 114.397 183.249C114.124 183.134 113.878 182.963 113.674 182.748C113.471 182.533 113.314 182.278 113.213 181.999C113.113 181.72 113.071 181.423 113.091 181.128L117.789 95.6521C117.828 95.0362 118.099 94.4579 118.547 94.0329C118.994 93.608 119.586 93.3678 120.203 93.3605H262.386C262.683 93.357 262.976 93.4149 263.249 93.5305C263.522 93.646 263.768 93.8168 263.972 94.032C264.176 94.2472 264.333 94.5022 264.433 94.781C264.534 95.0598 264.576 95.3564 264.556 95.6521L259.857 181.128C259.818 181.745 259.546 182.324 259.097 182.749C258.648 183.174 258.055 183.414 257.437 183.419H115.26Z" fill="#263238"/>
<path opacity="0.1" d="M258.319 138.116H215.503C215.251 138.119 215.002 138.07 214.77 137.972C214.538 137.874 214.328 137.729 214.155 137.547C213.982 137.364 213.848 137.147 213.763 136.91C213.678 136.673 213.642 136.421 213.659 136.17L215.795 97.2594C215.797 97.2241 215.791 97.1889 215.779 97.1556C215.767 97.1224 215.749 97.092 215.725 97.0661C215.701 97.0401 215.672 97.0193 215.64 97.0048C215.607 96.9902 215.573 96.9823 215.537 96.9814C215.463 96.983 215.391 97.0124 215.337 97.0638C215.283 97.1153 215.251 97.185 215.246 97.2594L213.11 136.17C213.075 136.689 212.846 137.177 212.47 137.537C212.094 137.897 211.597 138.103 211.076 138.116H166.586C166.334 138.119 166.084 138.07 165.852 137.972C165.62 137.874 165.411 137.729 165.237 137.547C165.064 137.364 164.931 137.147 164.845 136.91C164.76 136.673 164.725 136.421 164.741 136.17L166.877 97.2594C166.879 97.2241 166.874 97.1889 166.862 97.1556C166.85 97.1224 166.831 97.092 166.807 97.0661C166.783 97.0401 166.754 97.0193 166.722 97.0048C166.69 96.9902 166.655 96.9823 166.619 96.9814C166.545 96.983 166.474 97.0124 166.42 97.0638C166.366 97.1153 166.333 97.185 166.328 97.2594L164.192 136.17C164.157 136.689 163.929 137.177 163.552 137.537C163.176 137.897 162.679 138.103 162.158 138.116H119.329C119.254 138.116 119.182 138.144 119.128 138.196C119.073 138.248 119.041 138.319 119.037 138.394C119.036 138.429 119.041 138.464 119.053 138.496C119.065 138.529 119.084 138.559 119.108 138.585C119.132 138.61 119.161 138.63 119.193 138.644C119.225 138.658 119.26 138.665 119.295 138.665H162.09C162.343 138.662 162.593 138.712 162.825 138.811C163.057 138.91 163.266 139.055 163.439 139.238C163.612 139.422 163.746 139.639 163.831 139.876C163.916 140.114 163.951 140.366 163.935 140.618L161.799 179.521C161.795 179.557 161.799 179.593 161.81 179.627C161.821 179.661 161.84 179.693 161.864 179.719C161.889 179.745 161.919 179.766 161.952 179.78C161.985 179.794 162.021 179.8 162.057 179.799C162.131 179.798 162.202 179.768 162.256 179.717C162.31 179.665 162.343 179.596 162.348 179.521L164.484 140.618C164.516 140.096 164.743 139.606 165.12 139.244C165.497 138.883 165.996 138.676 166.518 138.665H210.988C211.245 138.654 211.502 138.697 211.741 138.792C211.98 138.887 212.197 139.031 212.377 139.215C212.557 139.4 212.696 139.62 212.784 139.861C212.873 140.103 212.91 140.361 212.893 140.618L210.757 179.521C210.753 179.557 210.757 179.593 210.769 179.627C210.78 179.661 210.798 179.693 210.823 179.719C210.847 179.745 210.877 179.766 210.91 179.78C210.943 179.794 210.979 179.8 211.015 179.799C211.089 179.798 211.161 179.768 211.215 179.717C211.269 179.665 211.301 179.596 211.306 179.521L213.442 140.618C213.474 140.096 213.701 139.606 214.078 139.244C214.455 138.883 214.954 138.676 215.476 138.665H258.272C258.345 138.664 258.415 138.635 258.469 138.585C258.523 138.535 258.556 138.467 258.563 138.394C258.566 138.359 258.562 138.325 258.551 138.292C258.54 138.259 258.523 138.229 258.5 138.203C258.477 138.177 258.449 138.156 258.418 138.141C258.387 138.126 258.353 138.117 258.319 138.116Z" fill="white"/>
<path opacity="0.4" d="M188.519 104.032H171.332L170.369 121.518L187.536 121.979L188.519 104.032Z" fill="#263238"/>
<path d="M186.661 121.227L169.406 120.386C170.357 114.481 170.957 108.524 171.203 102.548L188.553 103.389C188.275 109.367 187.643 115.323 186.661 121.227Z" fill="white"/>
<path opacity="0.4" d="M209.246 115.715L192.031 117.03L192.411 134.455L209.632 133.6L209.246 115.715Z" fill="#263238"/>
<path d="M208.697 132.922L191.354 133.403C191.853 127.469 191.998 121.51 191.787 115.558L209.226 115.063C209.404 121.022 209.228 126.985 208.697 132.922Z" fill="#F3C262"/>
<path opacity="0.4" d="M158.977 147.506L127.247 146.299L124.393 174.524L156.055 176.477L158.977 147.506Z" fill="#263238"/>
<path d="M154.476 175.202L122.719 172.619C124.829 163.146 126.302 153.542 127.126 143.872L159.073 146.448C158.192 156.126 156.656 165.733 154.476 175.202Z" fill="white"/>
<g style="mix-blend-mode:multiply" opacity="0.3">
<path d="M126.319 107.985C126.088 107.987 125.859 107.94 125.647 107.85C125.434 107.759 125.242 107.626 125.083 107.458C124.925 107.29 124.802 107.091 124.723 106.874C124.644 106.657 124.61 106.426 124.624 106.195C124.66 105.715 124.874 105.266 125.224 104.936C125.574 104.606 126.035 104.419 126.516 104.412C126.747 104.411 126.975 104.457 127.187 104.548C127.4 104.638 127.591 104.772 127.749 104.94C127.908 105.108 128.03 105.306 128.108 105.524C128.186 105.741 128.219 105.972 128.204 106.202C128.17 106.681 127.958 107.13 127.609 107.461C127.26 107.791 126.8 107.978 126.319 107.985Z" fill="#263238"/>
<path opacity="0.8" d="M154.355 107.985H132.34C132.109 107.987 131.881 107.94 131.669 107.85C131.456 107.759 131.265 107.625 131.107 107.457C130.948 107.29 130.826 107.091 130.748 106.874C130.67 106.656 130.637 106.426 130.652 106.195C130.683 105.714 130.894 105.263 131.243 104.931C131.593 104.599 132.055 104.411 132.537 104.405H154.585C154.816 104.404 155.045 104.45 155.258 104.541C155.47 104.631 155.662 104.765 155.821 104.933C155.98 105.1 156.103 105.299 156.182 105.516C156.261 105.733 156.294 105.965 156.28 106.195C156.246 106.682 156.028 107.138 155.671 107.47C155.313 107.802 154.843 107.986 154.355 107.985Z" fill="#263238"/>
<path d="M125.892 115.789C125.66 115.791 125.431 115.746 125.218 115.655C125.005 115.565 124.813 115.432 124.654 115.264C124.495 115.096 124.372 114.897 124.293 114.679C124.215 114.461 124.182 114.23 124.197 113.999C124.23 113.514 124.445 113.059 124.8 112.727C125.155 112.395 125.623 112.21 126.109 112.209C126.34 112.208 126.568 112.254 126.78 112.345C126.993 112.435 127.184 112.569 127.342 112.737C127.501 112.905 127.623 113.103 127.701 113.321C127.779 113.538 127.812 113.769 127.797 113.999C127.765 114.483 127.55 114.936 127.196 115.269C126.843 115.601 126.377 115.787 125.892 115.789Z" fill="#263238"/>
<path opacity="0.8" d="M157.826 115.789H131.913C131.682 115.79 131.453 115.744 131.24 115.653C131.028 115.563 130.836 115.429 130.677 115.261C130.518 115.094 130.396 114.895 130.317 114.678C130.238 114.461 130.204 114.23 130.218 113.999C130.252 113.518 130.465 113.067 130.815 112.736C131.166 112.404 131.627 112.216 132.11 112.209H158.023C158.254 112.208 158.483 112.254 158.695 112.344C158.908 112.435 159.099 112.569 159.258 112.736C159.417 112.904 159.54 113.103 159.619 113.32C159.698 113.537 159.732 113.768 159.718 113.999C159.684 114.48 159.471 114.931 159.12 115.262C158.77 115.594 158.308 115.782 157.826 115.789Z" fill="#263238"/>
<path d="M125.432 123.586C125.201 123.588 124.973 123.543 124.761 123.453C124.549 123.363 124.357 123.23 124.199 123.063C124.04 122.895 123.918 122.697 123.84 122.48C123.762 122.263 123.729 122.033 123.744 121.803C123.774 121.322 123.986 120.87 124.335 120.538C124.685 120.206 125.147 120.019 125.629 120.013C125.86 120.01 126.089 120.056 126.302 120.146C126.515 120.237 126.707 120.37 126.867 120.538C127.026 120.706 127.148 120.905 127.227 121.123C127.306 121.34 127.339 121.572 127.324 121.803C127.29 122.283 127.076 122.733 126.726 123.063C126.375 123.394 125.914 123.58 125.432 123.586Z" fill="#263238"/>
<path opacity="0.8" d="M144.096 123.586H131.479C131.248 123.588 131.02 123.543 130.808 123.453C130.595 123.363 130.404 123.23 130.246 123.063C130.087 122.895 129.965 122.697 129.887 122.48C129.808 122.263 129.776 122.033 129.791 121.803C129.821 121.322 130.033 120.87 130.382 120.538C130.732 120.206 131.194 120.019 131.675 120.013H144.293C144.524 120.01 144.753 120.056 144.966 120.146C145.179 120.237 145.37 120.37 145.529 120.538C145.687 120.706 145.809 120.906 145.887 121.123C145.965 121.341 145.997 121.572 145.981 121.803C145.949 122.282 145.737 122.732 145.388 123.063C145.038 123.393 144.577 123.58 144.096 123.586Z" fill="#263238"/>
<path opacity="0.8" d="M155.778 131.389H143.16C142.93 131.391 142.701 131.345 142.489 131.254C142.277 131.163 142.085 131.03 141.927 130.862C141.769 130.694 141.647 130.495 141.568 130.278C141.49 130.061 141.457 129.83 141.472 129.6C141.505 129.119 141.716 128.668 142.065 128.337C142.415 128.005 142.876 127.817 143.357 127.81H155.975C156.205 127.808 156.434 127.854 156.646 127.945C156.859 128.036 157.05 128.169 157.208 128.337C157.367 128.505 157.489 128.704 157.567 128.921C157.645 129.138 157.678 129.369 157.663 129.6C157.631 130.08 157.419 130.531 157.07 130.862C156.721 131.194 156.26 131.382 155.778 131.389Z" fill="#263238"/>
<path d="M125.032 131.389C124.801 131.391 124.572 131.345 124.36 131.254C124.148 131.163 123.956 131.03 123.798 130.862C123.64 130.694 123.518 130.495 123.439 130.278C123.361 130.061 123.328 129.83 123.343 129.6C123.376 129.119 123.587 128.668 123.937 128.337C124.286 128.005 124.747 127.817 125.228 127.81C125.459 127.808 125.688 127.854 125.9 127.945C126.112 128.036 126.303 128.169 126.462 128.337C126.62 128.505 126.742 128.704 126.82 128.921C126.899 129.138 126.931 129.369 126.916 129.6C126.884 130.08 126.672 130.531 126.323 130.862C125.974 131.194 125.513 131.382 125.032 131.389Z" fill="#263238"/>
<path opacity="0.8" d="M136.877 131.389H131.053C130.822 131.391 130.594 131.345 130.381 131.254C130.169 131.163 129.978 131.03 129.82 130.862C129.661 130.694 129.539 130.495 129.461 130.278C129.383 130.061 129.35 129.83 129.365 129.6C129.397 129.119 129.609 128.668 129.958 128.337C130.307 128.005 130.768 127.817 131.25 127.81H137.074C137.305 127.807 137.534 127.853 137.747 127.943C137.96 128.033 138.153 128.167 138.312 128.335C138.471 128.503 138.593 128.702 138.672 128.92C138.751 129.137 138.784 129.369 138.769 129.6C138.736 130.081 138.524 130.533 138.173 130.865C137.822 131.196 137.36 131.384 136.877 131.389Z" fill="#263238"/>
</g>
<path d="M179.766 154.604H171.23L170.057 175.968H178.593L179.766 154.604Z" fill="#F3C262"/>
<path d="M192.722 159.012H184.179L183.25 175.969H191.786L192.722 159.012Z" fill="#F3C262"/>
<path d="M206.534 147.635H197.998L196.445 175.968H204.981L206.534 147.635Z" fill="#F3C262"/>
<path d="M173.135 166.659C172.288 166.659 171.434 166.66 170.572 166.592C168.801 166.562 167.05 166.208 165.406 165.548C165.273 165.487 165.168 165.376 165.116 165.239C165.064 165.102 165.068 164.949 165.128 164.815C165.158 164.749 165.201 164.69 165.254 164.64C165.307 164.591 165.37 164.552 165.438 164.527C165.506 164.502 165.578 164.49 165.651 164.493C165.723 164.496 165.795 164.513 165.86 164.544C167.373 165.143 168.98 165.464 170.606 165.493C180.851 166.022 189.821 163.351 198.852 157.1C201.67 155.141 204.15 152.737 206.195 149.981C206.233 149.917 206.285 149.861 206.346 149.818C206.407 149.775 206.476 149.744 206.55 149.729C206.623 149.713 206.698 149.713 206.772 149.727C206.845 149.742 206.915 149.772 206.976 149.814C207.038 149.857 207.09 149.912 207.13 149.975C207.169 150.039 207.196 150.109 207.207 150.183C207.218 150.257 207.214 150.333 207.195 150.405C207.176 150.478 207.142 150.546 207.096 150.604C204.992 153.468 202.423 155.959 199.496 157.974C191.021 163.88 182.58 166.659 173.135 166.659Z" fill="white"/>
<path d="M208.391 154.198C208.301 154.198 208.212 154.176 208.132 154.133C208.052 154.091 207.984 154.029 207.934 153.954C207.883 153.879 207.853 153.793 207.844 153.703C207.835 153.613 207.848 153.522 207.883 153.438C208.659 151.559 208.825 149.484 208.357 147.506C206.216 148.948 203.93 150.161 201.537 151.126C201.469 151.156 201.397 151.172 201.323 151.173C201.25 151.174 201.177 151.161 201.109 151.133C201.041 151.106 200.979 151.065 200.927 151.013C200.875 150.961 200.834 150.899 200.806 150.831C200.778 150.763 200.765 150.69 200.766 150.616C200.767 150.543 200.782 150.47 200.812 150.403C200.842 150.336 200.884 150.275 200.938 150.225C200.991 150.174 201.054 150.135 201.123 150.109C203.677 149.077 206.105 147.756 208.357 146.17C208.428 146.123 208.508 146.093 208.592 146.081C208.676 146.07 208.762 146.078 208.842 146.105C208.923 146.132 208.996 146.176 209.057 146.236C209.117 146.295 209.163 146.368 209.191 146.448C209.98 148.874 209.877 151.502 208.9 153.859C208.858 153.959 208.788 154.045 208.697 154.105C208.606 154.166 208.5 154.198 208.391 154.198Z" fill="white"/>
<path d="M253.349 133.139H221.591C221.329 133.141 221.068 133.089 220.827 132.987C220.585 132.884 220.367 132.732 220.187 132.541C220.007 132.35 219.868 132.124 219.78 131.877C219.691 131.63 219.655 131.367 219.672 131.105L221.15 104.256C221.186 103.72 221.422 103.218 221.812 102.849C222.201 102.479 222.715 102.27 223.252 102.263H255.016C255.278 102.261 255.538 102.314 255.779 102.417C256.019 102.52 256.236 102.672 256.416 102.863C256.595 103.054 256.733 103.28 256.822 103.526C256.91 103.773 256.946 104.035 256.928 104.297L255.45 131.146C255.415 131.681 255.179 132.184 254.789 132.553C254.4 132.922 253.885 133.132 253.349 133.139ZM223.252 102.819C222.854 102.823 222.473 102.978 222.185 103.252C221.897 103.527 221.724 103.9 221.7 104.297L220.222 131.146C220.209 131.331 220.236 131.517 220.298 131.692C220.361 131.866 220.459 132.026 220.586 132.162C220.713 132.297 220.867 132.405 221.037 132.479C221.208 132.552 221.392 132.59 221.578 132.59H253.335C253.733 132.585 254.114 132.43 254.402 132.156C254.69 131.882 254.864 131.509 254.888 131.112L256.366 104.263C256.379 104.076 256.353 103.889 256.29 103.713C256.227 103.536 256.128 103.375 256 103.239C255.871 103.104 255.716 102.998 255.545 102.925C255.374 102.853 255.189 102.817 255.003 102.819H223.252Z" fill="#F3C262"/>
<path d="M256.352 109.972H221.096C221.031 109.961 220.971 109.928 220.928 109.878C220.885 109.827 220.861 109.763 220.861 109.697C220.861 109.631 220.885 109.567 220.928 109.516C220.971 109.466 221.031 109.433 221.096 109.422H256.352C256.392 109.416 256.432 109.418 256.471 109.429C256.51 109.44 256.545 109.46 256.576 109.486C256.606 109.512 256.631 109.544 256.648 109.581C256.665 109.617 256.673 109.657 256.673 109.697C256.673 109.737 256.665 109.777 256.648 109.813C256.631 109.85 256.606 109.882 256.576 109.908C256.545 109.934 256.51 109.954 256.471 109.964C256.432 109.975 256.392 109.978 256.352 109.972Z" fill="#F3C262"/>
<path d="M228.174 133.139C228.101 133.134 228.034 133.1 227.986 133.046C227.938 132.991 227.913 132.92 227.916 132.848L229.164 109.68C229.166 109.644 229.175 109.609 229.19 109.576C229.206 109.543 229.228 109.514 229.255 109.49C229.282 109.466 229.314 109.448 229.349 109.436C229.383 109.424 229.419 109.42 229.455 109.423C229.528 109.428 229.596 109.461 229.644 109.516C229.692 109.57 229.717 109.642 229.713 109.714L228.445 132.888C228.439 132.956 228.407 133.019 228.357 133.065C228.307 133.111 228.242 133.138 228.174 133.139Z" fill="#F3C262"/>
<path d="M252.318 112.724H233.192C233.126 112.714 233.067 112.681 233.024 112.63C232.981 112.58 232.957 112.516 232.957 112.45C232.957 112.384 232.981 112.32 233.024 112.269C233.067 112.219 233.126 112.186 233.192 112.175H252.318C252.358 112.169 252.398 112.171 252.437 112.182C252.476 112.193 252.511 112.212 252.542 112.239C252.573 112.265 252.597 112.297 252.614 112.334C252.631 112.37 252.639 112.41 252.639 112.45C252.639 112.49 252.631 112.53 252.614 112.566C252.597 112.603 252.573 112.635 252.542 112.661C252.511 112.687 252.476 112.706 252.437 112.717C252.398 112.728 252.358 112.731 252.318 112.724Z" fill="#F3C262"/>
<path d="M249.437 116.101H233.009C232.969 116.108 232.929 116.105 232.89 116.094C232.851 116.083 232.815 116.064 232.785 116.038C232.754 116.012 232.73 115.98 232.713 115.943C232.696 115.907 232.688 115.867 232.688 115.827C232.688 115.787 232.696 115.747 232.713 115.71C232.73 115.674 232.754 115.642 232.785 115.615C232.815 115.589 232.851 115.57 232.89 115.559C232.929 115.548 232.969 115.546 233.009 115.552H249.437C249.476 115.546 249.517 115.548 249.556 115.559C249.594 115.57 249.63 115.589 249.661 115.615C249.691 115.642 249.716 115.674 249.732 115.71C249.749 115.747 249.758 115.787 249.758 115.827C249.758 115.867 249.749 115.907 249.732 115.943C249.716 115.98 249.691 116.012 249.661 116.038C249.63 116.064 249.594 116.083 249.556 116.094C249.517 116.105 249.476 116.108 249.437 116.101Z" fill="#F3C262"/>
<path d="M242.379 119.586H232.819C232.78 119.592 232.739 119.59 232.7 119.579C232.662 119.568 232.626 119.549 232.595 119.522C232.565 119.496 232.54 119.464 232.524 119.428C232.507 119.391 232.498 119.351 232.498 119.311C232.498 119.271 232.507 119.231 232.524 119.195C232.54 119.158 232.565 119.126 232.595 119.1C232.626 119.074 232.662 119.055 232.7 119.044C232.739 119.033 232.78 119.03 232.819 119.037H242.379C242.419 119.03 242.459 119.033 242.498 119.044C242.537 119.055 242.572 119.074 242.603 119.1C242.634 119.126 242.658 119.158 242.675 119.195C242.692 119.231 242.7 119.271 242.7 119.311C242.7 119.351 242.692 119.391 242.675 119.428C242.658 119.464 242.634 119.496 242.603 119.522C242.572 119.549 242.537 119.568 242.498 119.579C242.459 119.59 242.419 119.592 242.379 119.586Z" fill="#F3C262"/>
<path d="M244.115 126.393H232.446C232.407 126.4 232.366 126.397 232.327 126.386C232.289 126.375 232.253 126.356 232.222 126.33C232.192 126.304 232.167 126.272 232.151 126.235C232.134 126.199 232.125 126.159 232.125 126.119C232.125 126.079 232.134 126.039 232.151 126.002C232.167 125.966 232.192 125.934 232.222 125.907C232.253 125.881 232.289 125.862 232.327 125.851C232.366 125.84 232.407 125.838 232.446 125.844H244.115C244.154 125.838 244.195 125.84 244.234 125.851C244.272 125.862 244.308 125.881 244.339 125.907C244.369 125.934 244.394 125.966 244.41 126.002C244.427 126.039 244.436 126.079 244.436 126.119C244.436 126.159 244.427 126.199 244.41 126.235C244.394 126.272 244.369 126.304 244.339 126.33C244.308 126.356 244.272 126.375 244.234 126.386C244.195 126.397 244.154 126.4 244.115 126.393Z" fill="#F3C262"/>
<path d="M241.817 129.878H232.25C232.185 129.868 232.125 129.835 232.082 129.784C232.039 129.734 232.016 129.67 232.016 129.604C232.016 129.537 232.039 129.473 232.082 129.423C232.125 129.373 232.185 129.339 232.25 129.329H241.817C241.882 129.339 241.942 129.373 241.985 129.423C242.028 129.473 242.052 129.537 242.052 129.604C242.052 129.67 242.028 129.734 241.985 129.784C241.942 129.835 241.882 129.868 241.817 129.878Z" fill="#F3C262"/>
<path d="M247.41 129.878H244.352C244.313 129.884 244.272 129.882 244.234 129.871C244.195 129.86 244.159 129.841 244.129 129.814C244.098 129.788 244.074 129.756 244.057 129.72C244.04 129.683 244.031 129.643 244.031 129.603C244.031 129.563 244.04 129.523 244.057 129.487C244.074 129.45 244.098 129.418 244.129 129.392C244.159 129.366 244.195 129.347 244.234 129.336C244.272 129.325 244.313 129.322 244.352 129.329H247.41C247.45 129.322 247.491 129.325 247.529 129.336C247.568 129.347 247.604 129.366 247.634 129.392C247.665 129.418 247.689 129.45 247.706 129.487C247.723 129.523 247.732 129.563 247.732 129.603C247.732 129.643 247.723 129.683 247.706 129.72C247.689 129.756 247.665 129.788 247.634 129.814C247.604 129.841 247.568 129.86 247.529 129.871C247.491 129.882 247.45 129.884 247.41 129.878Z" fill="#F3C262"/>
<path d="M250.542 122.969H232.63C232.556 122.969 232.485 122.94 232.433 122.888C232.381 122.835 232.352 122.765 232.352 122.691C232.352 122.617 232.381 122.547 232.433 122.495C232.485 122.442 232.556 122.413 232.63 122.413H250.542C250.616 122.413 250.687 122.442 250.739 122.495C250.791 122.547 250.82 122.617 250.82 122.691C250.82 122.765 250.791 122.835 250.739 122.888C250.687 122.94 250.616 122.969 250.542 122.969Z" fill="#F3C262"/>
<path d="M233.843 172.212C229.694 172.212 226.297 170.985 224.188 168.707C221.931 166.273 220.995 162.442 221.619 158.198C221.841 155.843 222.718 153.597 224.149 151.713C225.581 149.83 227.511 148.384 229.721 147.54C232.308 146.372 235.12 145.786 237.959 145.824C240.797 145.861 243.593 146.521 246.149 147.757C248.379 148.876 249.776 150.293 250.305 151.967C250.349 152.107 250.336 152.258 250.269 152.387C250.235 152.452 250.189 152.509 250.134 152.555C250.079 152.602 250.015 152.637 249.946 152.659C249.806 152.703 249.655 152.69 249.525 152.622C249.396 152.555 249.298 152.439 249.254 152.299C248.82 150.943 247.607 149.723 245.654 148.74C243.244 147.577 240.608 146.957 237.933 146.923C235.257 146.889 232.607 147.442 230.168 148.543C228.129 149.314 226.347 150.644 225.028 152.38C223.709 154.116 222.906 156.189 222.71 158.361C222.134 162.273 222.968 165.771 224.995 167.954C227.809 170.999 232.453 171.216 235.002 171.08C239.708 170.816 243.749 169.175 246.393 166.456C249.485 163.27 250.352 158.51 248.427 155.378C248.185 154.926 247.846 154.534 247.434 154.23C247.023 153.925 246.549 153.715 246.047 153.615C245.908 153.594 245.782 153.52 245.695 153.409C245.609 153.298 245.569 153.158 245.582 153.017C245.596 152.877 245.664 152.748 245.77 152.656C245.877 152.564 246.015 152.516 246.156 152.523C246.829 152.628 247.47 152.887 248.026 153.282C248.583 153.676 249.04 154.194 249.363 154.795C251.559 158.347 250.63 163.683 247.2 167.222C244.359 170.144 240.06 171.9 235.077 172.178C234.65 172.212 234.243 172.212 233.843 172.212Z" fill="white"/>
<path d="M93.1044 114.812L91.145 118.202L89.233 121.68C87.9719 124.006 86.7651 126.352 85.6667 128.704C85.1175 129.891 84.5955 131.064 84.1209 132.243L84.0327 132.46V132.508C84.0092 132.537 83.9887 132.569 83.9717 132.603C83.9361 132.666 83.9044 132.732 83.8768 132.799C83.8339 133.055 83.8621 133.318 83.9582 133.559C84.3338 134.484 84.8892 135.325 85.5921 136.033C86.4225 136.924 87.3079 137.762 88.2431 138.542L86.6498 141.932C85.9027 141.726 85.1709 141.467 84.4599 141.159C83.7601 140.85 83.0808 140.497 82.4259 140.101C80.9032 139.219 79.5968 138.007 78.602 136.555C77.9902 135.621 77.5835 134.567 77.4087 133.464C77.3273 132.852 77.3273 132.232 77.4087 131.62C77.4358 131.315 77.488 131.014 77.5646 130.718L77.6731 130.277L77.7545 130.006C78.1952 128.65 78.6426 127.247 79.1715 125.938C80.202 123.28 81.3682 120.704 82.6293 118.202C83.2666 116.954 83.9175 115.714 84.609 114.493C85.3006 113.273 85.965 112.08 86.7786 110.846L93.1044 114.812Z" fill="#FFC3BD"/>
<path d="M86.5126 138.176L90.0721 137.247L90.2755 142.997C90.2755 142.997 87.4889 143.41 85.7871 141.708L86.5126 138.176Z" fill="#FFC3BD"/>
<path d="M95.1234 136.277L94.3165 141.328L90.2757 142.996L90.0723 137.247L95.1234 136.277Z" fill="#FFC3BD"/>
<path d="M109.837 87.7057C109.918 88.0989 110.189 88.3837 110.447 88.3227C110.705 88.2617 110.854 87.9091 110.773 87.5159C110.691 87.1226 110.42 86.8379 110.162 86.8989C109.905 86.9599 109.783 87.3125 109.837 87.7057Z" fill="#263238"/>
<path d="M110.176 88.3838C110.889 89.4909 111.752 90.4946 112.739 91.367C112.51 91.6139 112.23 91.8076 111.918 91.9341C111.607 92.0607 111.271 92.117 110.935 92.0992L110.176 88.3838Z" fill="#ED847E"/>
<path d="M107.973 85.8139C107.914 85.812 107.858 85.7877 107.817 85.7461C107.794 85.7246 107.777 85.6988 107.764 85.6702C107.752 85.6417 107.746 85.611 107.746 85.5799C107.746 85.5489 107.752 85.5182 107.764 85.4897C107.777 85.4611 107.794 85.4353 107.817 85.4138C108.067 85.1291 108.384 84.9094 108.738 84.7736C109.092 84.6378 109.474 84.5899 109.851 84.6341C109.881 84.639 109.91 84.65 109.937 84.6664C109.963 84.6828 109.985 84.7043 110.003 84.7296C110.021 84.7548 110.033 84.7834 110.04 84.8136C110.046 84.8438 110.046 84.875 110.041 84.9053C110.031 84.9673 109.996 85.0228 109.946 85.0597C109.895 85.0965 109.831 85.1117 109.769 85.102C109.475 85.0748 109.178 85.1178 108.904 85.2274C108.629 85.337 108.384 85.5101 108.19 85.7325C108.164 85.764 108.13 85.7881 108.092 85.8024C108.054 85.8167 108.013 85.8207 107.973 85.8139Z" fill="#263238"/>
<path d="M98.6421 93.2383C99.3608 96.8859 100.073 103.564 97.5234 105.991C97.5234 105.991 98.5201 109.687 105.287 109.687C112.745 109.687 108.846 105.991 108.846 105.991C104.778 105.022 104.887 102.012 105.598 99.1776L98.6421 93.2383Z" fill="#FFC3BD"/>
<path d="M96.0522 106.669C95.5098 105.659 94.9063 104.5 96.1471 104.134C97.5031 103.734 106.276 102.995 108.853 103.747C108.06 105.151 109.395 106.88 109.395 106.88L96.0522 106.669Z" fill="#263238"/>
<path d="M73.998 276.543C74.199 276.614 74.4122 276.645 74.6252 276.633C74.8381 276.621 75.0467 276.568 75.2387 276.475C75.313 276.407 75.364 276.317 75.3847 276.219C75.4053 276.12 75.3946 276.018 75.354 275.926C75.3312 275.849 75.2922 275.779 75.2395 275.719C75.1868 275.66 75.1218 275.612 75.0489 275.58C74.3709 275.261 72.8318 275.892 72.764 275.919C72.7426 275.926 72.7238 275.94 72.7104 275.958C72.6971 275.976 72.6897 275.998 72.6895 276.021C72.6896 276.043 72.696 276.065 72.708 276.084C72.72 276.104 72.737 276.119 72.7573 276.129C73.1551 276.31 73.571 276.449 73.998 276.543ZM74.8048 275.749C74.8536 275.758 74.9013 275.772 74.9472 275.79C74.9894 275.809 75.0269 275.838 75.0573 275.873C75.0878 275.908 75.1103 275.949 75.1235 275.994C75.1913 276.21 75.1235 276.272 75.0828 276.299C74.8184 276.522 73.8217 276.299 73.1234 276.034C73.6555 275.815 74.2301 275.717 74.8048 275.749Z" fill="#F3C262"/>
<path d="M72.7842 276.143H72.8385C73.4012 275.98 74.6081 275.126 74.6216 274.563C74.624 274.474 74.5956 274.387 74.5412 274.316C74.4869 274.246 74.4099 274.197 74.3233 274.176C74.2384 274.146 74.1479 274.134 74.0579 274.141C73.9679 274.148 73.8804 274.174 73.8012 274.217C73.1232 274.563 72.7097 275.939 72.6961 276C72.6866 276.018 72.6816 276.038 72.6816 276.058C72.6816 276.078 72.6866 276.098 72.6961 276.115L72.7842 276.143ZM74.1945 274.38H74.2419C74.3911 274.434 74.3911 274.502 74.3911 274.536C74.3911 274.868 73.5843 275.539 73.0351 275.81C73.1933 275.263 73.5094 274.775 73.9436 274.407C74.0225 274.372 74.1101 274.363 74.1945 274.38Z" fill="#F3C262"/>
<path d="M110.772 277.377C111.41 277.377 112.027 277.289 112.237 277.004C112.289 276.928 112.317 276.838 112.317 276.746C112.317 276.654 112.289 276.564 112.237 276.489C112.197 276.419 112.143 276.359 112.079 276.311C112.015 276.264 111.942 276.229 111.864 276.211C111.037 275.987 109.294 276.977 109.22 277.024C109.198 277.036 109.181 277.054 109.171 277.076C109.162 277.098 109.159 277.123 109.165 277.146C109.169 277.169 109.179 277.19 109.195 277.207C109.211 277.224 109.231 277.236 109.253 277.241C109.755 277.329 110.263 277.374 110.772 277.377ZM111.559 276.414C111.635 276.403 111.713 276.403 111.789 276.414C111.837 276.423 111.882 276.443 111.922 276.471C111.962 276.499 111.995 276.535 112.02 276.577C112.101 276.726 112.074 276.8 112.02 276.841C111.789 277.16 110.528 277.167 109.606 277.038C110.21 276.705 110.873 276.493 111.559 276.414Z" fill="#F3C262"/>
<path d="M109.267 277.241H109.315C109.918 276.97 111.105 275.885 111.017 275.329C111.017 275.193 110.901 275.031 110.576 274.997C110.455 274.983 110.333 274.994 110.216 275.029C110.1 275.064 109.991 275.122 109.898 275.2C109.267 275.722 109.132 277.065 109.125 277.119C109.125 277.14 109.131 277.161 109.14 277.179C109.149 277.198 109.163 277.215 109.179 277.227C109.192 277.235 109.207 277.241 109.222 277.243C109.237 277.245 109.253 277.245 109.267 277.241ZM110.481 275.207H110.549C110.766 275.207 110.779 275.309 110.779 275.336C110.834 275.675 110.027 276.522 109.423 276.888C109.482 276.319 109.719 275.783 110.101 275.356C110.218 275.263 110.365 275.215 110.515 275.221L110.481 275.207Z" fill="#F3C262"/>
<path d="M103.789 277.125H108.772L109.267 265.586H104.284L103.789 277.125Z" fill="#FFC3BD"/>
<path d="M67.2305 274.821L72.0985 275.871L76.9869 265.132L72.1188 264.074L67.2305 274.821Z" fill="#FFC3BD"/>
<path d="M72.5465 275.383L67.1225 274.196C67.0265 274.177 66.9267 274.19 66.8393 274.234C66.7519 274.279 66.6821 274.351 66.6412 274.44L64.7428 278.563C64.6965 278.663 64.6737 278.772 64.6759 278.882C64.6782 278.992 64.7055 279.1 64.7558 279.198C64.8062 279.296 64.8782 279.382 64.9663 279.448C65.0545 279.514 65.1566 279.559 65.2648 279.58C67.1836 279.959 68.1328 280.047 70.5397 280.57C72.0177 280.888 75.3603 281.702 77.401 282.149C79.4418 282.597 80.113 280.624 79.3537 280.264C75.7806 278.63 74.289 277.193 73.3195 275.851C73.1312 275.602 72.8545 275.434 72.5465 275.383Z" fill="#263238"/>
<path d="M108.739 276.549H103.315C103.216 276.548 103.121 276.582 103.044 276.643C102.968 276.705 102.915 276.792 102.894 276.888L101.911 281.315C101.887 281.422 101.886 281.532 101.911 281.639C101.935 281.745 101.984 281.845 102.052 281.93C102.121 282.015 102.208 282.083 102.307 282.129C102.406 282.175 102.514 282.198 102.623 282.197C104.589 282.197 107.423 282.054 109.891 282.054C112.773 282.054 115.261 282.21 118.644 282.21C120.678 282.21 121.261 280.142 120.4 279.952C116.509 279.105 113.322 279.01 109.959 276.935C109.596 276.695 109.174 276.561 108.739 276.549Z" fill="#263238"/>
<path d="M88.6016 107.123C83.937 108.195 80.0859 120.114 80.0859 120.114L89.4966 127.253C91.9216 124.666 93.6339 121.493 94.4663 118.046C96.0393 111.802 93.3747 106.025 88.6016 107.123Z" fill="#F3C262"/>
<path opacity="0.2" d="M88.6016 107.123C83.937 108.195 80.0859 120.114 80.0859 120.114L89.4966 127.253C91.9216 124.666 93.6339 121.493 94.4663 118.046C96.0393 111.802 93.3747 106.025 88.6016 107.123Z" fill="#FAFAFA"/>
<path opacity="0.2" d="M92.6025 115.884C90.0667 118.392 89.2125 122.962 89.043 126.935L89.4565 127.254C91.885 124.668 93.5999 121.495 94.4331 118.047C94.528 117.674 94.6093 117.301 94.6771 116.935L92.6025 115.884Z" fill="black"/>
<path d="M116.508 107.375C116.508 107.375 121.81 113.362 116.8 150.428H90.1746C89.9916 146.36 92.5612 126.386 88.6152 107.117C91.5621 106.551 94.5424 106.175 97.5377 105.992C101.309 105.775 105.089 105.775 108.86 105.992C111.442 106.253 113.999 106.716 116.508 107.375Z" fill="#F3C262"/>
<path opacity="0.2" d="M116.508 107.375C116.508 107.375 121.81 113.362 116.8 150.428H90.1746C89.9916 146.36 92.5612 126.386 88.6152 107.117C91.5621 106.551 94.5424 106.175 97.5377 105.992C101.309 105.775 105.089 105.775 108.86 105.992C111.442 106.253 113.999 106.716 116.508 107.375Z" fill="#FAFAFA"/>
<path opacity="0.2" d="M118.835 118.704L118.733 118.616L112.678 120.067C112.332 124.135 116.543 129.057 118.712 131.295C118.981 127.103 119.021 122.9 118.835 118.704Z" fill="black"/>
<path opacity="0.2" d="M109.266 265.593L109.009 271.539H104.025L104.283 265.593H109.266Z" fill="black"/>
<path opacity="0.2" d="M72.112 264.074L76.9868 265.132L74.4647 270.671L69.5898 269.613L72.112 264.074Z" fill="black"/>
<path d="M96.5608 89.5363C97.8354 94.3162 98.3439 97.1706 101.307 99.1571C105.734 102.147 111.253 98.7164 111.429 93.6586C111.585 89.1024 109.463 82.058 104.337 81.0952C103.208 80.8751 102.041 80.9477 100.948 81.3063C99.8544 81.6649 98.8711 82.2974 98.0914 83.1437C97.3118 83.9899 96.7618 85.0217 96.4939 86.1407C96.2259 87.2597 96.249 88.4287 96.5608 89.5363Z" fill="#FFC3BD"/>
<path d="M98.7513 97.3269C100.785 98.4863 108.182 94.6149 106.664 88.7163C106.664 88.7163 109.484 85.3263 109.165 81.5838C108.847 77.8412 106.277 76.4174 103.545 77.2242C101.138 77.9022 101.206 79.2582 101.206 79.2582C101.206 79.2582 89.822 80.6142 92.2561 85.2314C87.6185 90.2689 96.2156 95.876 98.7513 97.3269Z" fill="#263238"/>
<path d="M92.574 85.597C92.574 85.597 91.218 83.2512 89.2383 84.5665C90.1739 84.5801 91.6926 84.7495 92.574 85.597Z" fill="#263238"/>
<path d="M108.799 84.0717C108.799 84.0717 111.281 78.4714 107.443 76.668C108.158 77.7464 108.646 78.9585 108.88 80.231C109.113 81.5035 109.085 82.81 108.799 84.0717Z" fill="#263238"/>
<path d="M104.685 89.7395C105.015 90.9274 105.73 91.9719 106.719 92.7092C108.014 93.6719 108.983 92.7092 108.895 91.2583C108.807 89.9362 108.034 87.8683 106.603 87.4547C105.173 87.0411 104.312 88.3022 104.685 89.7395Z" fill="#FFC3BD"/>
<path d="M107.355 150.428C107.355 150.428 101.701 188.484 98.5957 202.722C95.2057 218.316 76.9743 270.006 76.9743 270.006L68.0586 268.074C68.0586 268.074 80.805 225.97 83.6526 204.139C85.8425 187.372 90.1614 150.4 90.1614 150.4L107.355 150.428Z" fill="#263238"/>
<path d="M79.1086 267.057C79.1493 267.057 77.4475 270.284 77.4475 270.284L67.4199 268.108L68.2606 265.098L79.1086 267.057Z" fill="#F3C262"/>
<path opacity="0.3" d="M103.782 163.988C97.2465 165.269 97.9381 189.644 98.7246 202.18C100.609 193.318 103.369 176.267 105.254 164.164C104.798 163.94 104.279 163.877 103.782 163.988Z" fill="black"/>
<path d="M116.8 150.428C116.8 150.428 117.478 187.67 116.949 202.857C116.386 218.655 110.847 270.386 110.847 270.386H102.426C102.426 270.386 102.121 219.577 101.748 204.064C101.342 187.114 99.3008 150.428 99.3008 150.428H116.8Z" fill="#263238"/>
<path opacity="0.4" d="M163.642 124.176H146.455L145.492 141.655L162.659 142.116L163.642 124.176Z" fill="#263238"/>
<path d="M154.586 135.423L137.371 133.294C138.756 127.502 139.79 121.631 140.47 115.714L157.786 117.843C157.073 123.762 156.004 129.633 154.586 135.423Z" fill="#F3C262"/>
<path d="M112.488 267.023C112.529 267.023 112.014 270.529 112.014 270.529H101.749L101.471 267.403L112.488 267.023Z" fill="#F3C262"/>
<path d="M118.963 111.917C119.729 113.11 120.604 114.453 121.478 115.687C122.353 116.921 123.255 118.182 124.19 119.382C125.972 121.76 127.959 123.976 130.13 126.006C130.64 126.484 131.174 126.937 131.73 127.362L132.137 127.667C132.06 127.634 131.98 127.606 131.899 127.586C131.723 127.586 131.635 127.586 131.682 127.586C132.071 127.6 132.457 127.511 132.801 127.328C133.395 127.076 133.968 126.779 134.516 126.44C137.049 124.781 139.452 122.931 141.703 120.907L144.612 123.253C142.849 126.216 140.65 128.897 138.089 131.206C137.37 131.849 136.591 132.424 135.764 132.921C134.72 133.573 133.556 134.006 132.34 134.196C131.471 134.31 130.587 134.234 129.75 133.972C129.286 133.827 128.842 133.624 128.428 133.369L127.845 132.996C127.065 132.494 126.326 131.959 125.628 131.409C122.93 129.23 120.471 126.771 118.292 124.074C117.227 122.758 116.197 121.429 115.241 120.046C114.285 118.663 113.37 117.334 112.475 115.761L118.963 111.917Z" fill="#FFC3BD"/>
<path d="M109.158 114.907C107.565 121.586 119.647 128.128 119.647 128.128L127.498 118.935C125.144 115.456 122.458 112.213 119.478 109.253C114.013 103.985 110.392 109.836 109.158 114.907Z" fill="#F3C262"/>
<path opacity="0.2" d="M109.158 114.907C107.565 121.586 119.647 128.128 119.647 128.128L127.498 118.935C125.144 115.456 122.458 112.213 119.478 109.253C114.013 103.985 110.392 109.836 109.158 114.907Z" fill="#FAFAFA"/>
<path d="M140.875 122.298L142.733 116.345L147.608 118.779C147.608 118.779 146.896 123.118 143.343 123.871L140.875 122.298Z" fill="#FFC3BD"/>
<path d="M144.686 114.697L149.079 115.911L147.608 118.779L142.727 116.345L144.686 114.697Z" fill="#FFC3BD"/>
</svg>
