<svg width="13" height="12" viewBox="0 0 13 12" fill="none" xmlns="http://www.w3.org/2000/svg">
<path d="M7.37333 4.01333L7.98667 4.62667L1.94667 10.6667H1.33333V10.0533L7.37333 4.01333ZM9.77333 0C9.60667 0 9.43333 0.0666666 9.30667 0.193333L8.08667 1.41333L10.5867 3.91333L11.8067 2.69333C11.8685 2.63166 11.9175 2.5584 11.951 2.47775C11.9844 2.3971 12.0016 2.31065 12.0016 2.22333C12.0016 2.13602 11.9844 2.04957 11.951 1.96892C11.9175 1.88827 11.8685 1.81501 11.8067 1.75333L10.2467 0.193333C10.1133 0.06 9.94667 0 9.77333 0ZM7.37333 2.12667L0 9.5V12H2.5L9.87333 4.62667L7.37333 2.12667Z" fill="#263238"/>
</svg>
