<svg width="321" height="321" viewBox="0 0 321 321" fill="none" xmlns="http://www.w3.org/2000/svg">
<path d="M173.699 31.7919C173.699 31.7919 128.117 26.2257 92.5438 59.3979C56.9706 92.57 47.4177 144.745 38.5645 186.784C29.7113 228.822 49.1703 265.178 84.8398 275.733C120.509 286.287 135.75 255.471 179.618 244.275C223.486 233.078 236.872 236.744 267.572 203.424C298.273 170.104 290.851 109.378 251.522 72.0581C212.193 34.7386 173.699 31.7919 173.699 31.7919Z" fill="#F6976D"/>
<path opacity="0.7" d="M173.699 31.7919C173.699 31.7919 128.117 26.2257 92.5438 59.3979C56.9706 92.57 47.4177 144.745 38.5645 186.784C29.7113 228.822 49.1703 265.178 84.8398 275.733C120.509 286.287 135.75 255.471 179.618 244.275C223.486 233.078 236.872 236.744 267.572 203.424C298.273 170.104 290.851 109.378 251.522 72.0581C212.193 34.7386 173.699 31.7919 173.699 31.7919Z" fill="white"/>
<path d="M42.5195 236.114C61.3494 230.336 100.974 218.883 122.84 218.023C152.218 216.861 201.89 240.005 232.866 244.049C263.843 248.094 284.675 246.945 284.675 246.945" stroke="#263238" stroke-width="1.20355" stroke-linecap="round" stroke-linejoin="round"/>
<path d="M32.043 239.42C32.043 239.42 33.6736 238.888 36.537 237.982" stroke="#263238" stroke-width="1.20355" stroke-linecap="round" stroke-linejoin="round"/>
<path d="M276.311 203.366C265.485 200.786 254.366 199.648 243.242 199.983C220.265 200.811 195.426 204.111 164.661 208.399C133.896 212.688 90.1313 188.973 60.3489 197.774C30.5665 206.576 32.8263 209.221 32.8263 209.221" stroke="#263238" stroke-width="1.20355" stroke-linecap="round" stroke-linejoin="round"/>
<path d="M284.778 205.754C284.778 205.754 283.623 205.337 281.523 204.733" stroke="#263238" stroke-width="1.20355" stroke-linecap="round" stroke-linejoin="round"/>
<path d="M184.324 58.743C183.967 57.286 183.132 55.9909 181.952 55.0649C180.771 54.139 179.315 53.6357 177.815 53.6357C176.314 53.6357 174.858 54.139 173.677 55.0649C172.497 55.9909 171.662 57.286 171.305 58.743H184.324Z" stroke="#263238" stroke-width="1.20355" stroke-linecap="round" stroke-linejoin="round"/>
<path d="M250.097 58.7429C249.703 57.084 248.807 55.5866 247.532 54.4542C246.257 53.3217 244.665 52.609 242.971 52.4128C243.188 51.2353 243.298 50.0406 243.299 48.8433C243.293 43.9776 241.467 39.2901 238.179 35.7028C234.892 32.1154 230.382 29.8878 225.535 29.458C220.688 29.0283 215.856 30.4274 211.989 33.3803C208.122 36.3333 205.499 40.6262 204.637 45.415C202.56 43.789 200.021 42.8651 197.385 42.7767C194.748 42.6883 192.152 43.4399 189.971 44.923C187.79 46.4061 186.137 48.5441 185.25 51.0281C184.363 53.5122 184.288 56.2138 185.037 58.7429H250.097Z" stroke="#263238" stroke-width="1.20355" stroke-linecap="round" stroke-linejoin="round"/>
<path d="M68.47 74.3752C68.2899 73.6341 67.866 72.9751 67.2664 72.5038C66.6669 72.0326 65.9263 71.7764 65.1637 71.7764C64.4011 71.7764 63.6606 72.0326 63.061 72.5038C62.4614 72.9751 62.0376 73.6341 61.8574 74.3752H68.47Z" stroke="#263238" stroke-width="1.20355" stroke-linecap="round" stroke-linejoin="round"/>
<path d="M101.861 74.3759C101.659 73.5344 101.203 72.7752 100.555 72.2011C99.9077 71.627 99.0994 71.2656 98.2397 71.1659C98.5091 69.8737 98.5171 68.5405 98.2633 67.2451C98.0095 65.9497 97.4991 64.7182 96.762 63.6231C96.0249 62.528 95.0762 61.5915 93.9716 60.8687C92.867 60.1459 91.6289 59.6515 90.3303 59.4146C89.0317 59.1776 87.6988 59.203 86.4102 59.4891C85.1215 59.7753 83.9032 60.3164 82.8268 61.0806C81.7505 61.8449 80.8381 62.8168 80.1432 63.9391C79.4483 65.0615 78.985 66.3115 78.7807 67.6157C77.7262 66.7905 76.4368 66.3218 75.0986 66.277C73.7604 66.2323 72.4425 66.614 71.3353 67.3669C70.2281 68.1198 69.3887 69.205 68.9384 70.466C68.488 71.7269 68.45 73.0984 68.8297 74.3823L101.861 74.3759Z" stroke="#263238" stroke-width="1.20355" stroke-linecap="round" stroke-linejoin="round"/>
<path d="M98.4972 84.8274C98.3809 84.362 98.1124 83.9489 97.7343 83.6538C97.3563 83.3586 96.8904 83.1982 96.4107 83.1982C95.9311 83.1982 95.4652 83.3586 95.0871 83.6538C94.7091 83.9489 94.4405 84.362 94.3242 84.8274H98.4972Z" stroke="#263238" stroke-width="1.20355" stroke-linecap="round" stroke-linejoin="round"/>
<path d="M119.574 84.8277C119.446 84.2967 119.158 83.8178 118.749 83.4552C118.341 83.0925 117.831 82.8635 117.289 82.7989C117.359 82.4221 117.393 82.0395 117.391 81.6562C117.393 80.0956 116.809 78.591 115.756 77.4393C114.703 76.2876 113.257 75.5723 111.702 75.4345C110.148 75.2967 108.598 75.7464 107.358 76.6949C106.119 77.6434 105.28 79.0218 105.007 80.5584C104.341 80.0403 103.528 79.7466 102.684 79.7195C101.841 79.6923 101.01 79.9332 100.312 80.4074C99.6138 80.8816 99.0839 81.5648 98.7982 82.359C98.5125 83.1531 98.4858 84.0174 98.7219 84.8277H119.574Z" stroke="#263238" stroke-width="1.20355" stroke-linecap="round" stroke-linejoin="round"/>
<path d="M220.42 259.971H219.778C209.615 250.617 181.489 243.921 148.381 243.921C106.715 243.921 72.9395 254.572 72.9395 267.675C72.9395 280.778 106.715 291.429 148.381 291.429C176.102 291.429 200.332 286.717 213.448 279.693C215.701 279.802 218.025 279.86 220.4 279.86C241.548 279.86 258.696 275.366 258.696 269.896C258.696 264.426 241.567 259.971 220.42 259.971Z" fill="#F6976D"/>
<path opacity="0.5" d="M220.42 259.971H219.778C209.615 250.617 181.489 243.921 148.381 243.921C106.715 243.921 72.9395 254.572 72.9395 267.675C72.9395 280.778 106.715 291.429 148.381 291.429C176.102 291.429 200.332 286.717 213.448 279.693C215.701 279.802 218.025 279.86 220.4 279.86C241.548 279.86 258.696 275.366 258.696 269.896C258.696 264.426 241.567 259.971 220.42 259.971Z" fill="white"/>
<path d="M197.095 164.069C197.095 164.069 199.245 182.989 209.132 187.721C219.019 192.452 224.617 185.153 224.617 178.476C224.617 171.799 235.794 165.578 243.967 165.578C252.14 165.578 254.502 176.543 251.029 185.57C247.556 194.596 243.319 205.35 227.211 210.512C211.103 215.673 201.627 208.791 201.627 208.791C201.627 208.791 203.996 213.523 201.627 214.165C199.258 214.807 192.601 207.501 192.601 207.501C192.601 207.501 195.612 213.953 192.171 211.802C188.729 209.651 185.076 196.965 185.076 196.965C185.076 196.965 185.288 201.459 182.508 201.909C179.729 202.358 178.207 192.664 178.207 192.664L196.055 159.774L197.095 164.069Z" fill="white"/>
<path d="M235.531 196.381C234.168 196.381 232.862 196.922 231.899 197.885C230.936 198.848 230.395 200.155 230.395 201.517C230.395 202.879 230.936 204.185 231.899 205.149C232.862 206.112 234.168 206.653 235.531 206.653H235.774C237.413 205.657 238.956 204.511 240.384 203.231C240.578 202.678 240.677 202.096 240.679 201.51C240.679 200.835 240.545 200.167 240.285 199.544C240.026 198.921 239.646 198.355 239.168 197.878C238.69 197.402 238.123 197.024 237.498 196.768C236.874 196.511 236.206 196.379 235.531 196.381Z" fill="#F6976D"/>
<path d="M224.232 181.583C222.794 187.123 217.504 191.714 209.151 187.721C208.788 187.545 208.435 187.35 208.092 187.136C207.616 188.935 207.637 190.83 208.154 192.618C208.671 194.406 209.664 196.02 211.027 197.287C212.39 198.555 214.071 199.428 215.892 199.814C217.713 200.2 219.604 200.084 221.364 199.478C223.124 198.873 224.686 197.801 225.884 196.376C227.082 194.952 227.87 193.228 228.165 191.391C228.459 189.553 228.249 187.67 227.556 185.942C226.863 184.215 225.715 182.708 224.232 181.583Z" fill="#F6976D"/>
<path d="M204.85 210.178C204.865 209.232 204.694 208.293 204.346 207.413C203.998 206.533 203.48 205.73 202.822 205.051C202.164 204.371 201.378 203.828 200.51 203.452C199.642 203.076 198.708 202.875 197.762 202.859C196.816 202.844 195.877 203.015 194.997 203.363C194.117 203.711 193.314 204.229 192.635 204.887C191.955 205.546 191.412 206.331 191.036 207.199C190.66 208.067 190.459 209.001 190.443 209.947C190.892 210.673 191.479 211.303 192.17 211.802C195.611 213.953 192.6 207.501 192.6 207.501C192.6 207.501 199.264 214.813 201.627 214.165C203.99 213.517 201.627 208.791 201.627 208.791C202.634 209.458 203.71 210.013 204.837 210.448C204.837 210.358 204.85 210.268 204.85 210.178Z" fill="#F6976D"/>
<path opacity="0.2" d="M249.995 175.388C246.06 180.395 239.621 201.492 223.173 206.146C206.725 210.801 191.715 200.066 191.715 200.066C191.715 200.066 194.219 197.563 199.226 188.979C200.619 186.588 201.809 184.084 202.783 181.493C198.289 174.207 197.127 164.069 197.127 164.069L196.055 159.774L178.207 192.664C178.207 192.664 179.716 202.339 182.508 201.909C185.301 201.479 185.076 196.965 185.076 196.965C185.076 196.965 188.729 209.651 192.171 211.802C195.612 213.953 192.601 207.501 192.601 207.501C192.601 207.501 199.265 214.813 201.627 214.165C203.99 213.516 201.627 208.791 201.627 208.791C201.627 208.791 211.09 215.673 227.211 210.512C243.332 205.35 247.639 194.603 251.08 185.57C252.395 182.155 252.862 178.471 252.441 174.836C251.369 174.585 250.515 174.72 249.995 175.388Z" fill="black"/>
<path d="M197.095 164.069C197.095 164.069 199.245 182.989 209.132 187.721C219.019 192.452 224.617 185.153 224.617 178.476C224.617 171.799 235.794 165.578 243.967 165.578C252.14 165.578 254.502 176.543 251.029 185.57C247.556 194.596 243.319 205.35 227.211 210.512C211.103 215.673 201.627 208.791 201.627 208.791C201.627 208.791 203.996 213.523 201.627 214.165C199.258 214.807 192.601 207.501 192.601 207.501C192.601 207.501 195.612 213.953 192.171 211.802C188.729 209.651 185.076 196.965 185.076 196.965C185.076 196.965 185.288 201.459 182.508 201.909C179.729 202.358 178.207 192.664 178.207 192.664L196.055 159.774L197.095 164.069Z" stroke="#263238" stroke-width="1.20355" stroke-linecap="round" stroke-linejoin="round"/>
<path d="M246.029 192.234C245.348 192.234 244.695 191.963 244.213 191.482C243.731 191 243.461 190.347 243.461 189.666V149.22H248.597V189.666C248.597 190.347 248.326 191 247.845 191.482C247.363 191.963 246.71 192.234 246.029 192.234Z" fill="white" stroke="#263238" stroke-width="1.20355" stroke-linecap="round" stroke-linejoin="round"/>
<path d="M281.731 83.0166H210.783V152.243H281.731V83.0166Z" fill="#263238" stroke="#263238" stroke-width="1.20355" stroke-linecap="round" stroke-linejoin="round"/>
<path d="M244.719 178.078C244.719 178.078 253.816 173.096 257.597 176.357C261.379 179.619 259.825 184.774 256.91 185.987C253.996 187.201 247.64 188.735 244.205 187.534C240.77 186.334 237.849 181.339 244.719 178.078Z" fill="white" stroke="#263238" stroke-width="1.20355" stroke-linecap="round" stroke-linejoin="round"/>
<path d="M240.75 164.929C240.75 164.929 252.146 158.695 256.877 162.785C261.609 166.874 259.67 173.314 256.017 174.822C252.364 176.331 244.409 178.264 240.108 176.748C235.807 175.233 232.16 169.019 240.75 164.929Z" fill="white" stroke="#263238" stroke-width="1.20355" stroke-linecap="round" stroke-linejoin="round"/>
<path d="M225.279 182.328C225.279 182.328 222.917 170.29 227 163.19C231.083 156.089 241.188 160.622 244.418 168.14C247.647 175.658 245.702 183.612 239.468 183.612C233.234 183.612 232.162 173.719 232.162 173.719" fill="white"/>
<path d="M225.279 182.328C225.279 182.328 222.917 170.29 227 163.19C231.083 156.089 241.188 160.622 244.418 168.14C247.647 175.658 245.702 183.612 239.468 183.612C233.234 183.612 232.162 173.719 232.162 173.719" stroke="#263238" stroke-width="1.20355" stroke-linecap="round" stroke-linejoin="round"/>
<path d="M242.594 180.826C242.594 180.826 243.236 184.928 241.503 187.843C241.355 188.097 241.12 188.289 240.842 188.384C240.564 188.48 240.261 188.472 239.988 188.363V188.363C239.786 188.284 239.609 188.152 239.476 187.982C239.343 187.811 239.258 187.608 239.23 187.393C239.07 186.109 238.627 183.477 237.593 181.75C237.331 181.315 237.193 180.817 237.193 180.309C237.193 179.801 237.331 179.303 237.593 178.868C237.769 178.575 238.007 178.325 238.292 178.137C238.576 177.948 238.899 177.825 239.236 177.776C241.561 177.385 242.395 178.322 242.594 180.826Z" fill="white" stroke="#263238" stroke-width="1.20355" stroke-linecap="round" stroke-linejoin="round"/>
<path d="M130.577 199.925V245.346C130.577 245.346 117.274 254.886 111.253 257.39C105.231 259.894 95.6905 253.878 89.9189 258.674C84.1473 263.47 86.1568 270.924 93.1802 271.694C93.1802 271.694 93.1802 275.713 96.6984 277.472C97.7926 277.982 98.9779 278.267 100.184 278.311C101.39 278.355 102.593 278.157 103.722 277.729C103.722 277.729 104.223 283.751 111.503 283.25C118.783 282.749 120.536 276.971 124.548 271.2C128.561 265.428 131.078 260.157 137.099 259.406C143.121 258.655 146.884 257.397 146.884 250.123C146.884 245.629 142.39 245.353 141.87 240.839C141.35 236.326 141.87 201.677 141.87 201.677L130.577 199.925Z" fill="white"/>
<path d="M135.655 250.746C137.474 250.746 138.948 249.272 138.948 247.453C138.948 245.634 137.474 244.159 135.655 244.159C133.836 244.159 132.361 245.634 132.361 247.453C132.361 249.272 133.836 250.746 135.655 250.746Z" fill="#F6976D"/>
<path d="M135.244 210.576C135.244 210.224 135.174 209.876 135.04 209.551C134.905 209.226 134.708 208.931 134.459 208.683C134.211 208.434 133.916 208.237 133.591 208.102C133.266 207.968 132.918 207.898 132.566 207.898C132.189 207.899 131.817 207.98 131.473 208.136C131.13 208.292 130.824 208.52 130.576 208.804V212.348C130.824 212.632 131.13 212.859 131.473 213.015C131.817 213.171 132.189 213.252 132.566 213.253C133.276 213.253 133.957 212.971 134.459 212.469C134.961 211.967 135.244 211.286 135.244 210.576V210.576Z" fill="#F6976D"/>
<path d="M139.77 223.152C138.705 223.194 137.699 223.647 136.961 224.414C136.223 225.182 135.811 226.206 135.811 227.271C135.811 228.336 136.223 229.359 136.961 230.127C137.699 230.895 138.705 231.347 139.77 231.389C140.424 231.386 141.067 231.223 141.644 230.914C141.644 228.648 141.644 226.157 141.644 223.627C141.067 223.321 140.424 223.158 139.77 223.152Z" fill="#F6976D"/>
<path opacity="0.2" d="M146.884 250.117C146.884 245.623 142.39 245.346 141.87 240.833C141.35 236.32 141.87 201.671 141.87 201.671L130.577 199.912V214.492C132.952 215.988 136.04 217.387 139.128 217.214V243.318C139.128 243.318 141.279 249.038 139.847 253.686C138.416 258.334 127.328 258.334 123.752 262.629C120.176 266.924 117.673 275.861 114.122 279.796C112.941 281.082 111.624 282.236 110.193 283.237C110.638 283.263 111.084 283.263 111.529 283.237C118.803 282.73 120.562 276.959 124.574 271.187C128.587 265.415 131.103 260.145 137.125 259.393C143.147 258.642 146.884 257.39 146.884 250.117Z" fill="black"/>
<path d="M130.577 199.925V245.346C130.577 245.346 117.274 254.886 111.253 257.39C105.231 259.894 95.6905 253.878 89.9189 258.674C84.1473 263.47 86.1568 270.924 93.1802 271.694C93.1802 271.694 93.1802 275.713 96.6984 277.472C97.7926 277.982 98.9779 278.267 100.184 278.311C101.39 278.355 102.593 278.157 103.722 277.729C103.722 277.729 104.223 283.751 111.503 283.25C118.783 282.749 120.536 276.971 124.548 271.2C128.561 265.428 131.078 260.157 137.099 259.406C143.121 258.655 146.884 257.397 146.884 250.123C146.884 245.629 142.39 245.353 141.87 240.839C141.35 236.326 141.87 201.677 141.87 201.677L130.577 199.925Z" stroke="#263238" stroke-width="1.20355" stroke-linecap="round" stroke-linejoin="round"/>
<path d="M103.723 277.722C103.723 277.722 103.473 268.933 114.278 265.146" stroke="#263238" stroke-width="1.20355" stroke-linecap="round" stroke-linejoin="round"/>
<path d="M93.1816 271.694C93.1816 271.694 93.1816 264.671 104.982 261.91" stroke="#263238" stroke-width="1.20355" stroke-linecap="round" stroke-linejoin="round"/>
<path d="M104.852 276.291C104.852 276.291 101.366 278.544 100.358 281.761C100.269 282.044 100.284 282.35 100.402 282.622C100.52 282.894 100.732 283.115 101 283.244C101.193 283.341 101.409 283.385 101.625 283.371C101.841 283.356 102.048 283.283 102.226 283.16C103.273 282.454 105.558 281.016 107.536 280.65C108.038 280.555 108.505 280.326 108.887 279.987C109.269 279.648 109.552 279.211 109.706 278.724C109.803 278.402 109.829 278.063 109.781 277.73C109.733 277.398 109.613 277.079 109.43 276.798C108.12 274.776 106.862 274.776 104.852 276.291Z" fill="white" stroke="#263238" stroke-width="1.20355" stroke-linecap="round" stroke-linejoin="round"/>
<path d="M94.4716 272.002C94.4716 272.002 90.9855 274.262 89.9455 277.472C89.8546 277.755 89.8695 278.061 89.9876 278.334C90.1057 278.607 90.3189 278.827 90.5875 278.955V278.955C90.7804 279.052 90.9956 279.095 91.211 279.082C91.4264 279.068 91.6344 278.998 91.8137 278.878C92.8602 278.165 95.1457 276.733 97.123 276.361C97.6254 276.267 98.0927 276.038 98.4749 275.699C98.8571 275.359 99.1399 274.923 99.293 274.435C99.3902 274.113 99.4159 273.774 99.3682 273.441C99.3205 273.109 99.2006 272.791 99.0169 272.509C97.7329 270.5 96.481 270.5 94.4716 272.002Z" fill="white" stroke="#263238" stroke-width="1.20355" stroke-linecap="round" stroke-linejoin="round"/>
<path d="M86.1895 264.863C86.1895 264.863 82.7034 267.116 81.657 270.333C81.5675 270.616 81.5831 270.922 81.7011 271.194C81.819 271.466 82.0313 271.687 82.299 271.816C82.4925 271.911 82.7079 271.954 82.9234 271.94C83.1388 271.925 83.3465 271.853 83.5252 271.732C84.5717 271.02 86.8636 269.588 88.8345 269.216C89.3374 269.123 89.8054 268.894 90.1878 268.555C90.5703 268.215 90.8527 267.778 91.0045 267.29C91.103 266.968 91.1294 266.629 91.0817 266.296C91.0339 265.963 90.9133 265.644 90.7285 265.364C89.4509 263.354 88.1925 263.354 86.1895 264.863Z" fill="white" stroke="#263238" stroke-width="1.20355" stroke-linecap="round" stroke-linejoin="round"/>
<path d="M170.132 199.925V245.346C170.132 245.346 183.434 254.886 189.456 257.39C195.478 259.894 205.011 253.878 210.783 258.674C216.555 263.47 214.552 270.969 207.522 271.72C207.522 271.72 207.522 275.739 204.01 277.498C202.914 278.007 201.728 278.292 200.521 278.336C199.314 278.38 198.11 278.183 196.98 277.754C196.98 277.754 196.479 283.776 189.205 283.276C181.932 282.775 180.166 276.997 176.154 271.225C172.141 265.454 169.631 260.183 163.609 259.432C157.587 258.681 153.818 257.422 153.818 250.148C153.818 245.654 158.312 245.378 158.839 240.865C159.365 236.352 158.839 201.703 158.839 201.703L170.132 199.925Z" fill="white"/>
<path d="M164.899 244.98C166.718 244.98 168.192 243.506 168.192 241.687C168.192 239.868 166.718 238.394 164.899 238.394C163.08 238.394 161.605 239.868 161.605 241.687C161.605 243.506 163.08 244.98 164.899 244.98Z" fill="#F6976D"/>
<path d="M159.043 219.351C159.543 219.664 160.119 219.836 160.708 219.85C161.298 219.864 161.881 219.719 162.396 219.431C162.91 219.142 163.338 218.721 163.635 218.211C163.931 217.701 164.085 217.12 164.08 216.531C164.075 215.941 163.912 215.363 163.607 214.857C163.303 214.352 162.868 213.938 162.349 213.658C161.83 213.378 161.245 213.243 160.655 213.266C160.066 213.29 159.493 213.471 158.998 213.792C159.011 215.57 159.03 217.445 159.043 219.351Z" fill="#F6976D"/>
<path d="M170.131 223.749C169.093 224.04 168.18 224.661 167.529 225.52C166.878 226.378 166.525 227.426 166.525 228.503C166.525 229.58 166.878 230.628 167.529 231.486C168.18 232.345 169.093 232.966 170.131 233.257V223.749Z" fill="#F6976D"/>
<path opacity="0.2" d="M158.857 201.684C158.857 201.684 158.954 208.264 159.018 216.058C162.28 216.415 165.576 216.329 168.815 215.801C168.815 215.801 167.024 242.618 167.383 246.194C167.743 249.77 183.831 259.072 188.486 260.144C193.14 261.217 201.281 260.645 205.646 263.001C208.317 264.446 209.595 268.253 210.179 271.007C214.975 268.888 215.771 262.751 210.821 258.649C205.043 253.878 195.516 259.9 189.494 257.365C183.472 254.829 170.131 245.346 170.131 245.346V199.925L158.857 201.684Z" fill="black"/>
<path d="M170.132 199.925V245.346C170.132 245.346 183.434 254.886 189.456 257.39C195.478 259.894 205.011 253.878 210.783 258.674C216.555 263.47 214.552 270.969 207.522 271.72C207.522 271.72 207.522 275.739 204.01 277.498C202.914 278.007 201.728 278.292 200.521 278.336C199.314 278.38 198.11 278.183 196.98 277.754C196.98 277.754 196.479 283.776 189.205 283.276C181.932 282.775 180.166 276.997 176.154 271.225C172.141 265.454 169.631 260.183 163.609 259.432C157.587 258.681 153.818 257.422 153.818 250.148C153.818 245.654 158.312 245.378 158.839 240.865C159.365 236.352 158.839 201.703 158.839 201.703L170.132 199.925Z" stroke="#263238" stroke-width="1.20355" stroke-linecap="round" stroke-linejoin="round"/>
<path d="M196.998 277.722C196.998 277.722 197.248 268.933 186.463 265.171" stroke="#263238" stroke-width="1.20355" stroke-linecap="round" stroke-linejoin="round"/>
<path d="M207.54 271.694C207.54 271.694 207.54 264.671 195.746 261.91" stroke="#263238" stroke-width="1.20355" stroke-linecap="round" stroke-linejoin="round"/>
<path d="M195.868 276.291C195.868 276.291 199.354 278.544 200.394 281.761C200.485 282.04 200.473 282.342 200.362 282.614C200.25 282.886 200.045 283.109 199.785 283.244C199.592 283.341 199.376 283.385 199.16 283.371C198.944 283.356 198.736 283.283 198.558 283.16C197.512 282.454 195.22 281.016 193.249 280.65C192.746 280.557 192.278 280.329 191.896 279.989C191.513 279.65 191.231 279.212 191.079 278.724C190.981 278.403 190.954 278.064 191.001 277.731C191.047 277.398 191.166 277.08 191.349 276.798C192.601 274.776 193.885 274.776 195.868 276.291Z" fill="white" stroke="#263238" stroke-width="1.20355" stroke-linecap="round" stroke-linejoin="round"/>
<path d="M206.249 272.002C206.249 272.002 209.735 274.262 210.775 277.472C210.868 277.751 210.858 278.054 210.746 278.327C210.634 278.599 210.428 278.822 210.165 278.955V278.955C209.972 279.052 209.757 279.096 209.542 279.083C209.326 279.069 209.118 278.998 208.939 278.878C207.893 278.165 205.601 276.733 203.63 276.361C203.126 276.269 202.658 276.041 202.276 275.701C201.893 275.362 201.611 274.924 201.46 274.435C201.361 274.113 201.335 273.774 201.382 273.441C201.43 273.108 201.551 272.79 201.736 272.509C202.988 270.5 204.24 270.5 206.249 272.002Z" fill="white" stroke="#263238" stroke-width="1.20355" stroke-linecap="round" stroke-linejoin="round"/>
<path d="M214.538 264.863C214.538 264.863 218.024 267.116 219.064 270.333C219.152 270.616 219.136 270.921 219.018 271.193C218.9 271.465 218.689 271.686 218.422 271.816V271.816C218.227 271.912 218.011 271.955 217.794 271.94C217.578 271.926 217.369 271.854 217.189 271.732C216.143 271.02 213.857 269.588 211.88 269.216C211.377 269.124 210.91 268.895 210.528 268.556C210.146 268.216 209.866 267.778 209.716 267.29C209.616 266.968 209.589 266.629 209.635 266.296C209.682 265.963 209.802 265.645 209.986 265.364C211.276 263.354 212.503 263.354 214.538 264.863Z" fill="white" stroke="#263238" stroke-width="1.20355" stroke-linecap="round" stroke-linejoin="round"/>
<path d="M86.4914 224.166C86.4914 224.166 86.3566 218.626 87.8461 216.873C89.3355 215.121 91.0561 223.223 90.9469 224.301C90.8378 225.38 88.9246 227.267 86.4914 224.166Z" fill="white" stroke="#263238" stroke-width="1.20355" stroke-linecap="round" stroke-linejoin="round"/>
<path d="M96.218 222.272C96.218 222.272 96.0832 216.738 97.5662 214.986C99.0493 213.233 100.808 221.329 100.674 222.407C100.539 223.486 98.6448 225.38 96.218 222.272Z" fill="white" stroke="#263238" stroke-width="1.20355" stroke-linecap="round" stroke-linejoin="round"/>
<path d="M85.6768 229.745C85.6768 229.745 83.9177 221.708 88.1934 221.2C92.4692 220.693 95.9873 235.78 95.9873 235.78C95.9873 235.78 92.9699 219.692 98.2472 219.191C103.524 218.69 104.025 233.771 104.025 235.029C104.025 236.287 99.5312 241.815 92.7131 243.324C85.8951 244.832 85.6768 229.745 85.6768 229.745Z" fill="white" stroke="#263238" stroke-width="1.20355" stroke-linecap="round" stroke-linejoin="round"/>
<path d="M80.1477 227.949C80.1477 227.949 80.0129 222.408 81.4959 220.655C82.9789 218.903 84.738 227.005 84.6032 228.083C84.4684 229.162 82.5745 231.056 80.1477 227.949Z" fill="white" stroke="#263238" stroke-width="1.20355" stroke-linecap="round" stroke-linejoin="round"/>
<path d="M106.04 155.101C106.04 155.101 99.7549 160.378 96.2368 171.433C92.7186 182.488 91.4603 187.522 94.9528 186.77C98.4452 186.019 99.7293 181.744 99.7293 181.744C99.7293 181.744 95.4535 194.308 97.7198 195.315C99.9861 196.323 102.997 194.031 102.997 194.031C102.997 194.031 102.015 205.119 104.005 208.387C105.995 211.654 106.766 211.654 106.766 211.654V231.762C106.766 231.762 100.737 230.253 95.7103 232.763C90.6835 235.274 90.1763 239.049 90.1763 239.049C90.1763 239.049 87.9165 226.985 82.8896 225.226C77.8627 223.467 77.8627 234.522 80.6233 240.808C83.3839 247.093 91.9354 249.86 92.6929 249.86C93.4505 249.86 91.1842 251.869 91.1842 251.869L97.9702 250.11C97.9702 250.11 94.7024 253.879 96.9622 253.879C99.2221 253.879 106.573 250.11 106.573 250.11C106.573 250.11 104.063 253.128 107.074 253.128C110.085 253.128 114.367 248.634 114.367 248.634C114.367 248.634 114.367 250.893 117.127 248.133C119.888 245.372 125.929 245.867 127.181 229.515C128.433 213.163 127.181 192.568 127.181 192.568C127.181 192.568 121.121 144.289 106.04 155.101Z" fill="white"/>
<path d="M123.059 195.679C124.712 191.717 122.841 187.164 118.878 185.51C114.915 183.857 110.362 185.729 108.709 189.691C107.055 193.654 108.927 198.207 112.89 199.86C116.852 201.514 121.405 199.642 123.059 195.679Z" fill="#F6976D"/>
<path d="M103.477 243.741C101.563 243.748 99.7191 244.46 98.2976 245.742C96.8761 247.024 95.9773 248.785 95.7734 250.688L98.0204 250.11C98.0204 250.11 94.7527 253.878 97.0125 253.878C99.2723 253.878 106.572 250.11 106.572 250.11C106.572 250.11 104.062 253.127 107.073 253.127C108.389 253.127 109.936 252.267 111.271 251.298C111.216 249.27 110.37 247.344 108.913 245.932C107.457 244.52 105.506 243.734 103.477 243.741Z" fill="#F6976D"/>
<path d="M126.416 227.965C128.462 222.983 126.081 217.285 121.098 215.24C116.116 213.195 110.419 215.575 108.374 220.558C106.328 225.54 108.709 231.237 113.691 233.283C118.674 235.328 124.371 232.947 126.416 227.965Z" fill="#F6976D"/>
<path d="M94.9791 186.771C98.0286 186.129 99.3768 182.822 99.6849 181.956C98.8002 184.604 98.0671 187.3 97.4893 190.032C99.1985 189.355 100.632 188.126 101.562 186.541C102.492 184.955 102.865 183.104 102.621 181.282C102.378 179.46 101.532 177.772 100.218 176.486C98.9038 175.2 97.1976 174.391 95.3707 174.188C92.5395 183.317 91.7691 187.464 94.9791 186.771Z" fill="#F6976D"/>
<path opacity="0.2" d="M106.04 155.101C106.04 155.101 102.753 157.874 99.6198 163.588C99.652 170.703 101.054 177.745 103.748 184.331C110.9 201.138 120.555 205.786 120.555 205.786C120.555 205.786 122.7 225.81 118.764 236.538C115.06 246.65 104.371 251.041 91.1582 249.423C91.6609 249.625 92.184 249.771 92.7183 249.86C93.4694 249.86 91.2096 251.869 91.2096 251.869L97.9955 250.11C97.9955 250.11 94.7277 253.879 96.9876 253.879C99.2474 253.879 106.573 250.11 106.573 250.11C106.573 250.11 104.062 253.128 107.073 253.128C110.084 253.128 114.366 248.634 114.366 248.634C114.366 248.634 114.366 250.893 117.127 248.133C119.888 245.372 125.929 245.867 127.181 229.515C128.433 213.163 127.181 192.568 127.181 192.568C127.181 192.568 121.12 144.289 106.04 155.101Z" fill="black"/>
<path d="M106.04 155.101C106.04 155.101 99.7549 160.378 96.2368 171.433C92.7186 182.488 91.4603 187.522 94.9528 186.77C98.4452 186.019 99.7293 181.744 99.7293 181.744C99.7293 181.744 95.4535 194.308 97.7198 195.315C99.9861 196.323 102.997 194.031 102.997 194.031C102.997 194.031 102.015 205.119 104.005 208.387C105.995 211.654 106.766 211.654 106.766 211.654V231.762C106.766 231.762 100.737 230.253 95.7103 232.763C90.6835 235.274 90.1763 239.049 90.1763 239.049C90.1763 239.049 87.9165 226.985 82.8896 225.226C77.8627 223.467 77.8627 234.522 80.6233 240.808C83.3839 247.093 91.9354 249.86 92.6929 249.86C93.4505 249.86 91.1842 251.869 91.1842 251.869L97.9702 250.11C97.9702 250.11 94.7024 253.879 96.9622 253.879C99.2221 253.879 106.573 250.11 106.573 250.11C106.573 250.11 104.063 253.128 107.074 253.128C110.085 253.128 114.367 248.634 114.367 248.634C114.367 248.634 114.367 250.893 117.127 248.133C119.888 245.372 125.929 245.867 127.181 229.515C128.433 213.163 127.181 192.568 127.181 192.568C127.181 192.568 121.121 144.289 106.04 155.101Z" stroke="#263238" stroke-width="1.20355" stroke-linecap="round" stroke-linejoin="round"/>
<path d="M110.155 130.184C110.155 130.184 102.965 141.239 89.9708 144.559C76.9768 147.878 65.639 146.774 65.9151 147.602C66.1912 148.43 70.6145 151.197 70.6145 151.197C70.6145 151.197 66.4672 150.914 67.0258 152.301C67.5843 153.688 71.4491 160.044 84.4432 163.356C97.4373 166.669 105.456 149.534 107.94 142.068C110.425 134.601 112.351 129.074 110.155 130.184Z" fill="white"/>
<path d="M71.4629 147.088C71.6238 148.978 72.1847 150.812 73.1083 152.469C74.032 154.126 75.2974 155.567 76.8205 156.697C78.3436 157.828 80.0897 158.621 81.9429 159.026C83.796 159.43 85.714 159.435 87.5695 159.042C89.4249 158.648 91.1756 157.865 92.7052 156.743C94.2348 155.622 95.5085 154.188 96.4417 152.537C97.375 150.885 97.9464 149.054 98.1182 147.165C98.29 145.277 98.0582 143.373 97.4382 141.58C95.0843 142.883 92.5758 143.883 89.9718 144.559C83.9053 146.035 77.703 146.883 71.4629 147.088V147.088Z" fill="#F6976D"/>
<path d="M110.155 130.184C110.155 130.184 102.965 141.239 89.9708 144.559C76.9768 147.878 65.639 146.774 65.9151 147.602C66.1912 148.43 70.6145 151.197 70.6145 151.197C70.6145 151.197 66.4672 150.914 67.0258 152.301C67.5843 153.688 71.4491 160.044 84.4432 163.356C97.4373 166.669 105.456 149.534 107.94 142.068C110.425 134.601 112.351 129.074 110.155 130.184Z" stroke="#263238" stroke-width="1.20355" stroke-linecap="round" stroke-linejoin="round"/>
<path d="M190.931 129.106C190.931 129.106 198.121 140.167 211.115 143.486C224.109 146.806 235.447 145.695 235.171 146.523C234.895 147.351 230.465 150.118 230.465 150.118C230.465 150.118 234.612 149.842 234.06 151.222C233.508 152.603 229.637 158.965 216.643 162.284C203.649 165.603 195.63 148.462 193.146 140.995C190.661 133.529 188.748 128.001 190.931 129.106Z" fill="white"/>
<path d="M219.231 145.092C218.189 147.73 218.178 150.664 219.201 153.31C220.224 155.956 222.206 158.119 224.752 159.37C231.365 156.115 233.65 152.269 234.061 151.229C234.613 149.849 230.466 150.125 230.466 150.125C230.466 150.125 234.896 147.358 235.172 146.53C235.384 145.875 228.476 146.414 219.231 145.092Z" fill="#F6976D"/>
<path opacity="0.2" d="M207.078 150.356C207.393 147.711 206.892 144.533 206.231 141.785C200.11 138.969 194.835 134.597 190.932 129.106C188.723 128.001 190.656 133.529 193.147 140.995C195.638 148.462 203.65 165.603 216.644 162.284C207.258 162.425 206.365 156.436 207.078 150.356Z" fill="black"/>
<path d="M190.931 129.106C190.931 129.106 198.121 140.167 211.115 143.486C224.109 146.806 235.447 145.695 235.171 146.523C234.895 147.351 230.465 150.118 230.465 150.118C230.465 150.118 234.612 149.842 234.06 151.222C233.508 152.603 229.637 158.965 216.643 162.284C203.649 165.603 195.63 148.462 193.146 140.995C190.661 133.529 188.748 128.001 190.931 129.106Z" stroke="#263238" stroke-width="1.20355" stroke-linecap="round" stroke-linejoin="round"/>
<path d="M121.763 115.803C121.763 115.803 112.916 117.466 108.217 115.803C103.518 114.141 106.837 110.828 104.898 108.343C102.959 105.859 97.1939 110.269 96.6033 118.294C96.0126 126.319 105.174 130.736 114.579 131.564L125.635 115.803H121.763Z" fill="#F6976D" stroke="#263238" stroke-width="1.20355" stroke-linecap="round" stroke-linejoin="round"/>
<path d="M111.163 116.414C110.195 116.329 109.238 116.135 108.313 115.836C106.309 117.15 104.722 119.008 103.738 121.193C102.755 123.378 102.415 125.798 102.76 128.169C103.45 128.564 104.161 128.919 104.891 129.234C104.455 127.52 103.216 120.375 111.163 116.414Z" fill="#263238"/>
<path d="M105.539 111.829C101.482 112.747 98.548 114.397 96.7697 116.824C96.6991 117.299 96.6413 117.787 96.6028 118.294C96.5296 119.344 96.6338 120.399 96.9109 121.414C97.0595 120.392 97.4109 119.41 97.9445 118.525C99.3377 116.259 101.951 114.673 105.732 113.768C105.538 113.141 105.472 112.482 105.539 111.829V111.829Z" fill="#263238"/>
<path d="M181.256 115.803C181.256 115.803 190.109 117.466 194.809 115.803C199.508 114.141 196.189 110.828 198.121 108.343C200.054 105.859 205.864 110.269 206.416 118.294C206.968 126.319 197.845 130.736 188.44 131.564L177.385 115.803H181.256Z" fill="#F6976D" stroke="#263238" stroke-width="1.20355" stroke-linecap="round" stroke-linejoin="round"/>
<path d="M191.863 116.414C192.832 116.329 193.788 116.135 194.714 115.836C196.718 117.15 198.305 119.008 199.288 121.193C200.272 123.378 200.612 125.798 200.267 128.169C199.577 128.564 198.865 128.919 198.136 129.234C198.566 127.52 199.811 120.375 191.863 116.414Z" fill="#263238"/>
<path d="M197.488 111.829C201.539 112.747 204.479 114.397 206.257 116.824C206.328 117.299 206.386 117.787 206.418 118.294C206.493 119.344 206.391 120.398 206.116 121.414C205.967 120.392 205.616 119.41 205.082 118.525C203.689 116.259 201.07 114.673 197.295 113.768C197.489 113.141 197.555 112.482 197.488 111.829V111.829Z" fill="#263238"/>
<path d="M151.289 208.739C177.314 208.739 198.412 184.96 198.412 155.626C198.412 126.293 177.314 102.514 151.289 102.514C125.264 102.514 104.166 126.293 104.166 155.626C104.166 184.96 125.264 208.739 151.289 208.739Z" fill="white"/>
<path d="M128.653 115.649C129.824 115.651 130.978 115.359 132.008 114.799C133.037 114.239 133.909 113.43 134.544 112.445C135.179 111.46 135.556 110.331 135.64 109.162C135.725 107.993 135.514 106.822 135.028 105.756C130.729 107.549 126.73 109.989 123.17 112.991C123.824 113.819 124.657 114.488 125.607 114.948C126.556 115.408 127.597 115.648 128.653 115.649V115.649Z" fill="#F6976D"/>
<path d="M128.24 191.437C128.24 185.749 124.183 181.165 119.182 181.165C117.766 181.191 116.378 181.563 115.138 182.248C113.898 182.933 112.845 183.91 112.068 185.094C115.343 190.679 119.653 195.588 124.767 199.558C125.884 198.525 126.771 197.267 127.369 195.868C127.968 194.469 128.265 192.959 128.24 191.437V191.437Z" fill="#F6976D"/>
<path d="M154.602 206.261C158.013 206.261 160.778 203.864 160.778 200.907C160.778 197.95 158.013 195.553 154.602 195.553C151.191 195.553 148.426 197.95 148.426 200.907C148.426 203.864 151.191 206.261 154.602 206.261Z" fill="#F6976D"/>
<path d="M123.298 150.658C123.298 141.188 116.814 133.452 108.66 132.971C105.672 140.149 104.144 147.851 104.166 155.627C104.167 159.841 104.612 164.044 105.495 168.165C106.273 168.302 107.061 168.37 107.851 168.371C116.384 168.371 123.298 160.442 123.298 150.658Z" fill="#F6976D"/>
<path d="M194.494 171.173C195.806 168.024 194.317 164.408 191.169 163.097C188.02 161.785 184.404 163.274 183.092 166.422C181.78 169.571 183.269 173.187 186.418 174.498C189.566 175.81 193.182 174.321 194.494 171.173Z" fill="#F6976D"/>
<path d="M191.67 179.901C191.672 180.599 191.873 181.283 192.248 181.872C193.171 180.047 193.997 178.174 194.719 176.261C193.865 176.414 193.092 176.863 192.535 177.528C191.977 178.193 191.671 179.033 191.67 179.901V179.901Z" fill="#F6976D"/>
<path d="M189.455 186.751C187.225 185.745 184.744 185.435 182.335 185.863C179.927 186.291 177.704 187.435 175.957 189.148C174.21 190.86 173.02 193.06 172.545 195.459C172.069 197.859 172.328 200.346 173.29 202.595C179.829 198.633 185.362 193.21 189.455 186.751V186.751Z" fill="#F6976D"/>
<path d="M186.547 120.406C184.585 122.598 183.291 125.306 182.819 128.21C182.347 131.114 182.716 134.093 183.883 136.794C185.049 139.494 186.965 141.805 189.403 143.451C191.841 145.098 194.7 146.012 197.641 146.086C196.181 136.724 192.363 127.887 186.547 120.406Z" fill="#F6976D"/>
<path opacity="0.2" d="M177.194 111.277C180.404 115.958 185.302 124.875 188.82 139.628C194.547 163.588 189.892 173.596 189.892 173.596L187.036 166.444C187.036 166.444 188.108 175.387 184.898 180.755C181.688 186.122 179.338 190.275 178.182 192.664C177.027 195.052 177.027 189.332 177.027 189.332C177.027 189.332 174.369 197.004 172.302 197.819C170.234 198.634 164.155 201.851 164.155 201.851L164.508 197.562C164.508 197.562 155.571 201.138 150.564 201.138C145.556 201.138 133.037 199.706 126.245 195.411C122.393 192.978 116.794 189.036 112.686 186.09C121.205 199.783 135.31 208.739 151.276 208.739C177.296 208.739 198.399 184.985 198.399 155.627C198.412 137.092 189.982 120.779 177.194 111.277Z" fill="black"/>
<path d="M151.289 208.739C177.314 208.739 198.412 184.96 198.412 155.626C198.412 126.293 177.314 102.514 151.289 102.514C125.264 102.514 104.166 126.293 104.166 155.626C104.166 184.96 125.264 208.739 151.289 208.739Z" stroke="#263238" stroke-width="1.20355" stroke-linecap="round" stroke-linejoin="round"/>
<path d="M148.265 104.825C148.265 104.825 148.015 104.074 143.739 102.565C139.463 101.057 134.693 103.066 137.204 101.057C139.714 99.0473 148.265 98.797 149.774 100.306C151.283 101.814 144.997 98.0394 144.997 95.5292C144.997 93.019 152.291 94.2452 154.55 96.2803C155.749 97.2732 156.769 98.4629 157.568 99.7985C157.568 99.7985 157.317 90.5023 161.837 88.2425C166.357 85.9826 169.881 90.5087 167.872 93.019C165.862 95.5292 161.587 99.8049 161.587 99.8049C161.587 99.8049 171.891 96.0364 171.39 100.312C170.889 104.588 160.579 104.806 160.579 104.806" fill="white"/>
<path d="M148.265 104.825C148.265 104.825 148.015 104.074 143.739 102.565C139.463 101.057 134.693 103.066 137.204 101.057C139.714 99.0473 148.265 98.797 149.774 100.306C151.283 101.814 144.997 98.0394 144.997 95.5292C144.997 93.019 152.291 94.2452 154.55 96.2803C155.749 97.2732 156.769 98.4629 157.568 99.7985C157.568 99.7985 157.317 90.5023 161.837 88.2425C166.357 85.9826 169.881 90.5087 167.872 93.019C165.862 95.5292 161.587 99.8049 161.587 99.8049C161.587 99.8049 171.891 96.0364 171.39 100.312C170.889 104.588 160.579 104.806 160.579 104.806" stroke="#263238" stroke-width="1.20355" stroke-linecap="round" stroke-linejoin="round"/>
<path d="M152.412 155.164C159.698 155.164 165.605 149.033 165.605 141.47C165.605 133.907 159.698 127.776 152.412 127.776C145.125 127.776 139.219 133.907 139.219 141.47C139.219 149.033 145.125 155.164 152.412 155.164Z" fill="#263238" stroke="#263238" stroke-width="1.20355" stroke-linecap="round" stroke-linejoin="round"/>
<path d="M152.412 153.334C159.698 153.334 165.605 147.428 165.605 140.141C165.605 132.855 159.698 126.948 152.412 126.948C145.125 126.948 139.219 132.855 139.219 140.141C139.219 147.428 145.125 153.334 152.412 153.334Z" fill="#F6976D" stroke="#263238" stroke-width="1.20355" stroke-linecap="round" stroke-linejoin="round"/>
<path d="M155.07 146.521C158.595 145.052 160.261 141.004 158.792 137.479C157.322 133.954 153.274 132.288 149.749 133.757C146.224 135.227 144.558 139.275 146.028 142.8C147.497 146.325 151.545 147.991 155.07 146.521Z" fill="#263238" stroke="#263238" stroke-width="1.20355" stroke-linecap="round" stroke-linejoin="round"/>
<path d="M136.451 116.137C136.451 116.137 129.164 117.421 128.157 120.413C127.149 123.405 132.651 123.931 132.651 123.931C132.651 123.931 126.115 129.459 129.132 131.468C132.15 133.478 137.928 125.941 137.928 125.941C137.928 125.941 144.714 131.218 151.75 131.218C158.786 131.218 165.829 125.69 165.829 125.69C165.829 125.69 171.857 132.476 174.124 131.218C176.39 129.96 170.13 121.922 170.13 121.922C170.13 121.922 175.908 123.206 171.138 118.654C169.852 117.358 168.234 116.438 166.462 115.994C164.69 115.551 162.831 115.6 161.085 116.137" fill="white"/>
<path d="M136.451 116.137C136.451 116.137 129.164 117.421 128.157 120.413C127.149 123.405 132.651 123.931 132.651 123.931C132.651 123.931 126.115 129.459 129.132 131.468C132.15 133.478 137.928 125.941 137.928 125.941C137.928 125.941 144.714 131.218 151.75 131.218C158.786 131.218 165.829 125.69 165.829 125.69C165.829 125.69 171.857 132.476 174.124 131.218C176.39 129.96 170.13 121.922 170.13 121.922C170.13 121.922 175.908 123.206 171.138 118.654C169.852 117.358 168.234 116.438 166.462 115.994C164.69 115.551 162.831 115.6 161.085 116.137" stroke="#263238" stroke-width="1.20355" stroke-linecap="round" stroke-linejoin="round"/>
<path d="M134.179 156.86C130.782 158.997 127.872 161.823 125.634 165.155C121.609 170.933 122.867 174.451 124.876 174.701C126.886 174.951 133.672 166.156 133.672 166.156C133.672 166.156 130.404 174.451 134.429 173.95C138.455 173.449 143.225 164.147 143.225 164.147C143.225 164.147 142.974 169.925 145.992 169.674C149.009 169.424 152.527 159.37 152.527 159.37C152.527 159.37 154.286 169.424 157.304 169.424C160.321 169.424 160.565 163.139 160.565 163.139C160.565 163.139 164.09 174.2 167.101 171.94C170.112 169.681 168.109 162.388 168.109 162.388C168.109 162.388 170.876 177.218 174.644 174.451C178.413 171.684 172.885 159.877 168.866 155.602" stroke="#263238" stroke-width="1.20355" stroke-linecap="round" stroke-linejoin="round"/>
<path d="M136.067 170.186C136.774 170.186 137.468 170.377 138.076 170.738C138.684 171.1 139.183 171.619 139.521 172.241C139.707 172.568 143.469 179.161 150.955 179.161C158.441 179.161 164.212 172.003 164.263 171.933C164.915 171.146 165.846 170.643 166.862 170.531C167.877 170.418 168.896 170.705 169.704 171.33C170.512 171.955 171.045 172.87 171.19 173.881C171.336 174.892 171.083 175.92 170.484 176.748C170.157 177.165 162.382 187.02 150.955 187.02C138.673 187.02 132.844 176.427 132.606 175.971C132.289 175.372 132.132 174.702 132.15 174.025C132.168 173.348 132.36 172.687 132.708 172.106C133.056 171.525 133.548 171.044 134.136 170.709C134.725 170.373 135.39 170.196 136.067 170.193V170.186Z" fill="#263238"/>
<path d="M166.988 179.072L160.998 176.999L161.685 183.387C163.6 182.139 165.377 180.693 166.988 179.072V179.072Z" fill="white"/>
<path d="M140.437 184.117L140.867 176.997L134.999 178.037C136.453 180.358 138.292 182.414 140.437 184.117Z" fill="white"/>
<path d="M136.515 175.463L140.367 173.537C140.054 173.126 139.765 172.697 139.5 172.253C139.163 171.631 138.664 171.112 138.056 170.751C137.448 170.389 136.754 170.198 136.047 170.198C135.666 170.202 135.287 170.261 134.923 170.372L136.515 175.463Z" fill="white"/>
<path d="M164.262 171.933C163.859 172.415 163.431 172.876 162.978 173.313L167.915 175.971L169.199 170.867C168.382 170.436 167.44 170.306 166.537 170.501C165.634 170.696 164.829 171.203 164.262 171.933V171.933Z" fill="white"/>
<path d="M136.067 170.186C136.774 170.186 137.468 170.377 138.076 170.738C138.684 171.1 139.183 171.619 139.521 172.241C139.707 172.568 143.469 179.161 150.955 179.161C158.441 179.161 164.212 172.003 164.263 171.933C164.915 171.146 165.846 170.643 166.862 170.531C167.877 170.418 168.896 170.705 169.704 171.33C170.512 171.955 171.045 172.87 171.19 173.881C171.336 174.892 171.083 175.92 170.484 176.748C170.157 177.165 162.382 187.02 150.955 187.02C138.673 187.02 132.844 176.427 132.606 175.971C132.289 175.372 132.132 174.702 132.15 174.025C132.168 173.348 132.36 172.687 132.708 172.106C133.056 171.525 133.548 171.044 134.136 170.709C134.725 170.373 135.39 170.196 136.067 170.193V170.186Z" stroke="#263238" stroke-width="1.20355" stroke-linecap="round" stroke-linejoin="round"/>
<path d="M150.583 136.463C150.583 137.225 150.357 137.97 149.934 138.603C149.51 139.237 148.909 139.731 148.205 140.022C147.501 140.314 146.727 140.39 145.979 140.241C145.232 140.093 144.546 139.726 144.007 139.187C143.468 138.648 143.102 137.962 142.953 137.215C142.804 136.468 142.881 135.693 143.172 134.989C143.464 134.285 143.957 133.684 144.591 133.261C145.224 132.837 145.969 132.611 146.731 132.611C147.753 132.611 148.732 133.017 149.455 133.74C150.177 134.462 150.583 135.442 150.583 136.463V136.463Z" fill="white"/>
<g clip-path="url(#clip0_1833_16326)">
<path d="M223.845 120.567C222.9 120.567 222.025 120.394 221.22 120.047C220.428 119.701 219.732 119.219 219.132 118.603C218.544 117.974 218.084 117.242 217.752 116.407C217.433 115.56 217.273 114.635 217.273 113.634C217.273 112.632 217.433 111.714 217.752 110.88C218.084 110.032 218.544 109.3 219.132 108.684C219.732 108.055 220.428 107.567 221.22 107.22C222.025 106.874 222.9 106.7 223.845 106.7C224.79 106.7 225.658 106.874 226.45 107.22C227.255 107.567 227.951 108.055 228.538 108.684C229.139 109.313 229.599 110.051 229.918 110.899C230.25 111.733 230.416 112.645 230.416 113.634C230.416 114.622 230.25 115.541 229.918 116.388C229.599 117.223 229.139 117.954 228.538 118.584C227.951 119.213 227.255 119.701 226.45 120.047C225.658 120.394 224.79 120.567 223.845 120.567ZM223.845 118.545C224.496 118.545 225.09 118.423 225.626 118.179C226.176 117.935 226.648 117.595 227.044 117.158C227.44 116.709 227.746 116.189 227.964 115.598C228.194 114.995 228.309 114.34 228.309 113.634C228.309 112.928 228.194 112.279 227.964 111.689C227.746 111.085 227.44 110.565 227.044 110.128C226.648 109.679 226.176 109.332 225.626 109.088C225.09 108.844 224.496 108.722 223.845 108.722C223.193 108.722 222.593 108.844 222.044 109.088C221.507 109.332 221.035 109.673 220.626 110.109C220.23 110.546 219.924 111.066 219.707 111.669C219.489 112.26 219.381 112.915 219.381 113.634C219.381 114.34 219.489 114.995 219.707 115.598C219.924 116.202 220.23 116.722 220.626 117.158C221.035 117.595 221.507 117.935 222.044 118.179C222.593 118.423 223.193 118.545 223.845 118.545ZM237.24 120.567C236.257 120.567 235.376 120.343 234.597 119.893C233.83 119.431 233.224 118.808 232.777 118.025C232.33 117.229 232.106 116.324 232.106 115.309C232.106 114.295 232.33 113.396 232.777 112.613C233.224 111.817 233.83 111.194 234.597 110.745C235.376 110.283 236.257 110.051 237.24 110.051C238.211 110.051 239.08 110.283 239.846 110.745C240.625 111.194 241.238 111.817 241.685 112.613C242.132 113.396 242.356 114.295 242.356 115.309C242.356 116.324 242.132 117.229 241.685 118.025C241.238 118.808 240.625 119.431 239.846 119.893C239.08 120.343 238.211 120.567 237.24 120.567ZM237.24 118.757C237.841 118.757 238.377 118.609 238.85 118.314C239.322 118.006 239.693 117.595 239.961 117.081C240.229 116.555 240.357 115.964 240.344 115.309C240.357 114.642 240.229 114.051 239.961 113.537C239.693 113.011 239.322 112.6 238.85 112.305C238.377 112.01 237.841 111.862 237.24 111.862C236.64 111.862 236.097 112.016 235.612 112.324C235.14 112.619 234.769 113.03 234.501 113.557C234.233 114.07 234.105 114.655 234.118 115.309C234.105 115.964 234.233 116.555 234.501 117.081C234.769 117.595 235.14 118.006 235.612 118.314C236.097 118.609 236.64 118.757 237.24 118.757ZM244.506 124.612V110.263H246.498V112.574L246.192 112.401C246.268 112.016 246.486 111.65 246.843 111.303C247.201 110.944 247.635 110.655 248.146 110.437C248.67 110.206 249.206 110.09 249.755 110.09C250.662 110.09 251.467 110.315 252.169 110.764C252.872 111.213 253.427 111.83 253.836 112.613C254.245 113.396 254.449 114.295 254.449 115.309C254.449 116.311 254.245 117.21 253.836 118.006C253.44 118.789 252.891 119.412 252.188 119.874C251.486 120.323 250.694 120.548 249.813 120.548C249.225 120.548 248.657 120.433 248.108 120.201C247.558 119.958 247.092 119.649 246.709 119.277C246.326 118.905 246.09 118.519 246 118.121L246.498 117.852V124.612H244.506ZM249.487 118.718C250.075 118.718 250.598 118.571 251.058 118.275C251.518 117.98 251.882 117.576 252.15 117.062C252.418 116.549 252.552 115.964 252.552 115.309C252.552 114.655 252.418 114.077 252.15 113.576C251.895 113.062 251.537 112.658 251.077 112.363C250.617 112.067 250.087 111.92 249.487 111.92C248.887 111.92 248.357 112.067 247.897 112.363C247.437 112.645 247.073 113.043 246.805 113.557C246.537 114.07 246.403 114.655 246.403 115.309C246.403 115.964 246.537 116.549 246.805 117.062C247.073 117.576 247.437 117.98 247.897 118.275C248.357 118.571 248.887 118.718 249.487 118.718ZM259.945 120.567C259.102 120.567 258.342 120.42 257.665 120.124C256.988 119.829 256.426 119.393 255.979 118.815L257.32 117.659C257.703 118.109 258.118 118.436 258.565 118.641C259.025 118.834 259.542 118.93 260.117 118.93C260.347 118.93 260.558 118.905 260.749 118.853C260.954 118.789 261.126 118.699 261.267 118.584C261.42 118.468 261.535 118.333 261.611 118.179C261.688 118.012 261.726 117.832 261.726 117.64C261.726 117.306 261.605 117.036 261.362 116.831C261.235 116.741 261.03 116.645 260.749 116.542C260.481 116.426 260.13 116.311 259.696 116.195C258.955 116.003 258.348 115.784 257.876 115.541C257.403 115.297 257.039 115.021 256.784 114.712C256.592 114.468 256.451 114.205 256.362 113.923C256.273 113.627 256.228 113.306 256.228 112.96C256.228 112.536 256.317 112.151 256.496 111.804C256.688 111.445 256.943 111.136 257.263 110.88C257.595 110.61 257.978 110.405 258.412 110.263C258.859 110.122 259.332 110.051 259.83 110.051C260.302 110.051 260.768 110.116 261.228 110.244C261.701 110.372 262.135 110.559 262.531 110.803C262.927 111.047 263.259 111.335 263.527 111.669L262.397 112.921C262.154 112.677 261.886 112.465 261.592 112.286C261.311 112.093 261.024 111.945 260.73 111.843C260.436 111.74 260.168 111.689 259.925 111.689C259.657 111.689 259.415 111.714 259.197 111.766C258.98 111.817 258.795 111.894 258.642 111.997C258.501 112.099 258.393 112.228 258.316 112.382C258.24 112.536 258.201 112.709 258.201 112.902C258.214 113.069 258.252 113.229 258.316 113.383C258.393 113.525 258.495 113.647 258.623 113.749C258.763 113.852 258.974 113.961 259.255 114.077C259.536 114.192 259.894 114.301 260.328 114.404C260.966 114.571 261.49 114.757 261.899 114.963C262.32 115.155 262.652 115.38 262.895 115.637C263.15 115.881 263.329 116.163 263.431 116.484C263.534 116.805 263.585 117.165 263.585 117.563C263.585 118.141 263.419 118.661 263.087 119.123C262.767 119.572 262.333 119.925 261.784 120.182C261.235 120.439 260.622 120.567 259.945 120.567ZM266.564 120.587C266.143 120.587 265.817 120.465 265.587 120.221C265.357 119.964 265.242 119.604 265.242 119.142C265.242 118.718 265.364 118.372 265.606 118.102C265.849 117.832 266.168 117.698 266.564 117.698C266.986 117.698 267.311 117.826 267.541 118.083C267.771 118.327 267.886 118.68 267.886 119.142C267.886 119.566 267.765 119.913 267.522 120.182C267.279 120.452 266.96 120.587 266.564 120.587ZM270.923 120.587C270.502 120.587 270.176 120.465 269.946 120.221C269.716 119.964 269.601 119.604 269.601 119.142C269.601 118.718 269.723 118.372 269.965 118.102C270.208 117.832 270.527 117.698 270.923 117.698C271.345 117.698 271.67 117.826 271.9 118.083C272.13 118.327 272.245 118.68 272.245 119.142C272.245 119.566 272.124 119.913 271.881 120.182C271.639 120.452 271.319 120.587 270.923 120.587ZM275.283 120.587C274.861 120.587 274.535 120.465 274.305 120.221C274.076 119.964 273.961 119.604 273.961 119.142C273.961 118.718 274.082 118.372 274.325 118.102C274.567 117.832 274.887 117.698 275.283 117.698C275.704 117.698 276.03 117.826 276.26 118.083C276.489 118.327 276.604 118.68 276.604 119.142C276.604 119.566 276.483 119.913 276.24 120.182C275.998 120.452 275.678 120.587 275.283 120.587Z" fill="white"/>
</g>
<defs>
<clipPath id="clip0_1833_16326">
<rect width="60.348" height="19.26" fill="white" transform="translate(216.354 105.93)"/>
</clipPath>
</defs>
</svg>
