<svg width="28" height="36" viewBox="0 0 28 36" fill="none" xmlns="http://www.w3.org/2000/svg">
<path d="M27.3828 9.27344L18.9766 0.867188C18.7422 0.632813 18.4258 0.5 18.0938 0.5H1.5C0.808594 0.5 0.25 1.05859 0.25 1.75V34.25C0.25 34.9414 0.808594 35.5 1.5 35.5H26.5C27.1914 35.5 27.75 34.9414 27.75 34.25V10.1602C27.75 9.82812 27.6172 9.50781 27.3828 9.27344ZM24.8672 10.7344H17.5156V3.38281L24.8672 10.7344ZM24.9375 32.6875H3.0625V3.3125H14.8594V11.75C14.8594 12.1851 15.0322 12.6024 15.3399 12.9101C15.6476 13.2178 16.0649 13.3906 16.5 13.3906H24.9375V32.6875ZM14.082 20.6602L11.668 16.6602C11.582 16.5195 11.4297 16.4336 11.2656 16.4336H9.76562C9.67578 16.4336 9.58984 16.457 9.51562 16.5078C9.29688 16.6445 9.23047 16.9336 9.37109 17.1562L12.5859 22.25L9.32812 27.4375C9.28386 27.5086 9.25941 27.5903 9.2573 27.6741C9.25519 27.7579 9.2755 27.8407 9.31613 27.914C9.35675 27.9872 9.41622 28.0484 9.48838 28.0909C9.56054 28.1335 9.64277 28.1561 9.72656 28.1562H11.0742C11.2383 28.1562 11.3867 28.0703 11.4727 27.9336L13.9219 23.9688L16.3555 27.9297C16.4414 28.0703 16.5938 28.1523 16.7539 28.1523H18.2188C18.3086 28.1523 18.3945 28.125 18.4727 28.0781C18.6914 27.9375 18.7539 27.6484 18.6133 27.4297L15.332 22.3359L18.6641 17.1602C18.7092 17.0892 18.7344 17.0075 18.7372 16.9235C18.74 16.8395 18.7203 16.7562 18.68 16.6824C18.6397 16.6087 18.5804 16.547 18.5082 16.5039C18.436 16.4609 18.3536 16.4379 18.2695 16.4375H16.875C16.7109 16.4375 16.5586 16.5234 16.4727 16.6641L14.082 20.6602Z" fill="black"/>
</svg>
