<svg width="140" height="80" viewBox="0 0 140 80" fill="none" xmlns="http://www.w3.org/2000/svg">
<g clip-path="url(#clip0_947_27472)">
<path d="M70 80C108.66 80 140 62.0914 140 40C140 17.9086 108.66 0 70 0C31.3401 0 0 17.9086 0 40C0 62.0914 31.3401 80 70 80Z" fill="#D4DDE4"/>
<path d="M50.7933 26.3514L38.8794 32.2764C36.9852 33.2158 35.5151 34.8232 34.7587 36.7819C34.0024 38.7406 34.0146 40.9086 34.793 42.8589L40.5236 57.3619C41.2968 59.3104 42.7767 60.9033 44.6739 61.829C46.571 62.7547 48.7489 62.9466 50.7814 62.3672L63.5889 58.712C64.7246 58.3896 65.7798 57.8359 66.6868 57.0865C67.5938 56.337 68.3326 55.4083 68.8558 54.3598C69.3791 53.3114 69.6752 52.1663 69.7253 50.998C69.7754 49.8297 69.5783 48.6639 69.1467 47.5753L62.5047 30.8202C62.0767 29.7304 61.4235 28.741 60.5869 27.9154C59.7504 27.0897 58.7489 26.446 57.6465 26.0253C56.5442 25.6047 55.3652 25.4164 54.1851 25.4726C53.0051 25.5287 51.8498 25.8281 50.7933 26.3514ZM48.8216 51.2541C47.8704 51.6232 46.83 51.7047 45.832 51.4885C44.834 51.2722 43.9232 50.7679 43.2149 50.0393C42.5065 49.3106 42.0324 48.3905 41.8526 47.3952C41.6727 46.3998 41.7952 45.3741 42.2045 44.4477C42.6137 43.5212 43.2914 42.7357 44.1519 42.1905C45.0123 41.6454 46.0167 41.365 47.0382 41.3849C48.0596 41.4048 49.0522 41.724 49.8903 42.3023C50.7283 42.8805 51.3743 43.6918 51.7464 44.6334C51.997 45.2596 52.1202 45.9286 52.1087 46.602C52.0972 47.2754 51.9513 47.9399 51.6796 48.5573C51.4078 49.1747 51.0153 49.7329 50.5249 50.1998C50.0344 50.6666 49.4556 51.033 48.8216 51.2777V51.2541Z" fill="#413C7D" fill-opacity="0.1"/>
<path d="M50.7933 26.3514L38.8794 32.2764C36.9852 33.2158 35.5151 34.8232 34.7587 36.7819C34.0024 38.7406 34.0146 40.9086 34.793 42.8589L40.5236 57.3619C41.2968 59.3104 42.7767 60.9033 44.6739 61.829C46.571 62.7547 48.7489 62.9466 50.7814 62.3672L63.5889 58.712C64.7246 58.3896 65.7798 57.8359 66.6868 57.0865C67.5938 56.337 68.3326 55.4083 68.8558 54.3598C69.3791 53.3114 69.6752 52.1663 69.7253 50.998C69.7754 49.8297 69.5783 48.6639 69.1467 47.5753L62.5047 30.8202C62.0767 29.7304 61.4235 28.741 60.5869 27.9154C59.7504 27.0897 58.7489 26.446 57.6465 26.0253C56.5442 25.6047 55.3652 25.4164 54.1851 25.4726C53.0051 25.5287 51.8498 25.8281 50.7933 26.3514ZM48.8216 51.2541C47.8704 51.6232 46.83 51.7047 45.832 51.4885C44.834 51.2722 43.9232 50.7679 43.2149 50.0393C42.5065 49.3106 42.0324 48.3905 41.8526 47.3952C41.6727 46.3998 41.7952 45.3741 42.2045 44.4477C42.6137 43.5212 43.2914 42.7357 44.1519 42.1905C45.0123 41.6454 46.0167 41.365 47.0382 41.3849C48.0596 41.4048 49.0522 41.724 49.8903 42.3023C50.7283 42.8805 51.3743 43.6918 51.7464 44.6334C51.997 45.2596 52.1202 45.9286 52.1087 46.602C52.0972 47.2754 51.9513 47.9399 51.6796 48.5573C51.4078 49.1747 51.0153 49.7329 50.5249 50.1998C50.0344 50.6666 49.4556 51.033 48.8216 51.2777V51.2541Z" fill="#413C7D" fill-opacity="0.1"/>
<path opacity="0.1" d="M69.1473 47.5753L62.5053 30.8202C62.0772 29.7304 61.4241 28.741 60.5875 27.9154C59.7509 27.0897 58.7495 26.446 57.6471 26.0253C56.5448 25.6047 55.3658 25.4164 54.1857 25.4726C53.0057 25.5287 51.8504 25.8281 50.7939 26.3514L47.3329 28.1201L45.0097 29.2992L38.886 32.3472C37.0075 33.2844 35.5483 34.8794 34.7919 36.8221C34.0356 38.7649 34.0362 40.9165 34.7936 42.8589L40.5241 57.3619C41.2974 59.3104 42.7773 60.9033 44.6745 61.829C46.5716 62.7547 48.7495 62.9466 50.782 62.3672L63.5954 58.712C64.6095 58.4226 65.5594 57.9466 66.3952 57.3088C67.0232 56.8407 67.579 56.2846 68.0453 55.6581C68.91 54.5156 69.4652 53.1732 69.6581 51.7585C69.851 50.3438 69.6751 48.9038 69.1473 47.5753ZM48.8222 51.2659C47.8715 51.6334 46.832 51.7139 45.8351 51.4971C44.8382 51.2804 43.9286 50.7762 43.221 50.0482C42.5135 49.3202 42.0397 48.401 41.8596 47.4067C41.6795 46.4124 41.8011 45.3876 42.2091 44.4617C42.6171 43.5357 43.2931 42.7502 44.1518 42.2042C45.0106 41.6583 46.0135 41.3764 47.034 41.3941C48.0545 41.4119 49.0468 41.7285 49.8857 42.3039C50.7245 42.8794 51.3722 43.688 51.747 44.6276C51.9986 45.254 52.1224 45.9236 52.1114 46.5976C52.1003 47.2717 51.9547 47.9369 51.6829 48.555C51.411 49.1731 51.0183 49.7319 50.5273 50.1992C50.0364 50.6664 49.4569 51.033 48.8222 51.2777V51.2659Z" fill="white"/>
<path d="M50.9123 27.4823L39.743 33.0359C37.9711 33.9163 36.5955 35.4202 35.8858 37.2524C35.1761 39.0847 35.1836 41.1133 35.9068 42.9403L41.2978 56.5354C42.0184 58.3673 43.4046 59.8665 45.1844 60.7391C46.9642 61.6116 49.0093 61.7945 50.9183 61.2519L62.9275 57.8207C63.9907 57.5172 64.9782 56.9976 65.8269 56.2949C66.6756 55.5922 67.3668 54.7219 67.8562 53.7398C68.3457 52.7576 68.6227 51.6852 68.6695 50.591C68.7162 49.4969 68.5318 48.4051 68.1279 47.3856L61.9029 31.6563C61.4994 30.6351 60.8851 29.7085 60.0992 28.9356C59.3133 28.1627 58.3731 27.5606 57.3388 27.1678C56.3044 26.7749 55.1986 26.6 54.092 26.6542C52.9855 26.7083 51.9025 26.9904 50.9123 27.4823ZM42.1258 48.3819C41.7535 47.4407 41.6714 46.4114 41.8901 45.424C42.1088 44.4367 42.6183 43.5356 43.3543 42.8349C44.0903 42.1341 45.0197 41.665 46.0251 41.4869C47.0304 41.3088 48.0665 41.4297 49.0025 41.8344C49.9384 42.239 50.7321 42.9091 51.2832 43.7601C51.8343 44.6111 52.1181 45.6047 52.0988 46.6153C52.0794 47.6259 51.7577 48.6082 51.1743 49.4379C50.591 50.2675 49.7722 50.9074 48.8214 51.2766C48.1899 51.5227 47.5154 51.643 46.8368 51.6307C46.1581 51.6183 45.4886 51.4735 44.8666 51.2046C44.2446 50.9357 43.6823 50.548 43.212 50.0636C42.7417 49.5792 42.3726 49.0077 42.1258 48.3819Z" fill="#413C7D" fill-opacity="0.1"/>
<path opacity="0.1" d="M50.9123 27.4823L39.743 33.0359C37.9711 33.9163 36.5955 35.4202 35.8858 37.2524C35.1761 39.0847 35.1836 41.1133 35.9068 42.9403L41.2978 56.5354C42.0184 58.3673 43.4046 59.8665 45.1844 60.7391C46.9642 61.6116 49.0093 61.7945 50.9183 61.2519L62.9275 57.8207C63.9907 57.5172 64.9782 56.9976 65.8269 56.2949C66.6756 55.5922 67.3668 54.7219 67.8562 53.7398C68.3457 52.7576 68.6227 51.6852 68.6695 50.591C68.7162 49.4969 68.5318 48.4051 68.1279 47.3856L61.9029 31.6563C61.4994 30.6351 60.8851 29.7085 60.0992 28.9356C59.3133 28.1627 58.3731 27.5606 57.3388 27.1678C56.3044 26.7749 55.1986 26.6 54.092 26.6542C52.9855 26.7083 51.9025 26.9904 50.9123 27.4823ZM42.1258 48.3819C41.7535 47.4407 41.6714 46.4114 41.8901 45.424C42.1088 44.4367 42.6183 43.5356 43.3543 42.8349C44.0903 42.1341 45.0197 41.665 46.0251 41.4869C47.0304 41.3088 48.0665 41.4297 49.0025 41.8344C49.9384 42.239 50.7321 42.9091 51.2832 43.7601C51.8343 44.6111 52.1181 45.6047 52.0988 46.6153C52.0794 47.6259 51.7577 48.6082 51.1743 49.4379C50.591 50.2675 49.7722 50.9074 48.8214 51.2766C48.1899 51.5227 47.5154 51.643 46.8368 51.6307C46.1581 51.6183 45.4886 51.4735 44.8666 51.2046C44.2446 50.9357 43.6823 50.548 43.212 50.0636C42.7417 49.5792 42.3726 49.0077 42.1258 48.3819Z" fill="#413C7D" fill-opacity="0.1"/>
<path d="M106.42 22.2237L106.08 22.8132L105.889 23.1552L105.347 24.1279L105.574 26.6217C105.586 26.7272 105.574 26.8341 105.538 26.9342C105.501 27.0427 105.441 27.142 105.362 27.2254C105.283 27.3089 105.186 27.3744 105.079 27.4176L100.373 29.2393C100.266 29.2817 100.15 29.2995 100.034 29.2914C99.9187 29.2832 99.8065 29.2493 99.7061 29.1922C99.6396 29.1592 99.5792 29.1154 99.5274 29.0625L96.8646 26.38L93.076 27.848L93.6241 29.2334L89.8414 30.6955L90.7409 32.9771L87.959 34.056C87.8478 34.0986 87.7288 34.1175 87.6097 34.1114C87.4906 34.1053 87.3741 34.0744 87.268 34.0206C87.1954 33.9864 87.129 33.9406 87.0714 33.885L85.469 32.3935L81.6804 33.8555L82.5858 36.1371L78.6066 37.6817L79.5121 39.9692C79.5477 40.0582 79.5651 40.1533 79.5634 40.249C79.5617 40.3447 79.5408 40.4391 79.5021 40.5268C79.4633 40.6145 79.4074 40.6937 79.3375 40.7599C79.2677 40.8261 79.1853 40.878 79.0951 40.9125L68.1998 45.1337L63.47 33.1952L102.893 17.9199L103.489 18.2324L105.484 19.2523C105.748 19.3816 105.982 19.5623 106.172 19.7837C106.363 20.005 106.507 20.2623 106.594 20.54C106.681 20.8178 106.711 21.1102 106.681 21.3995C106.651 21.6889 106.562 21.9693 106.42 22.2237Z" fill="#413C7D" fill-opacity="0.1"/>
<g opacity="0.1">
<path d="M106.42 22.2237L106.08 22.8132L105.889 23.1552L105.347 24.1279L105.574 26.6217C105.586 26.7272 105.574 26.8341 105.538 26.9342C105.501 27.0427 105.441 27.142 105.362 27.2254C105.283 27.3089 105.186 27.3744 105.079 27.4176L100.373 29.2393C100.266 29.2817 100.15 29.2995 100.034 29.2914C99.9187 29.2832 99.8065 29.2493 99.7061 29.1922C99.6396 29.1592 99.5792 29.1154 99.5274 29.0625L96.8646 26.38L93.076 27.848L93.6241 29.2334L89.8414 30.6955L90.7409 32.9771L87.959 34.056C87.8478 34.0986 87.7288 34.1175 87.6097 34.1114C87.4906 34.1053 87.3741 34.0744 87.268 34.0206C87.1954 33.9864 87.129 33.9406 87.0714 33.885L85.469 32.3935L81.6804 33.8555L82.5858 36.1371L78.6066 37.6817L79.5121 39.9692C79.5477 40.0582 79.5651 40.1533 79.5634 40.249C79.5617 40.3447 79.5408 40.4391 79.5021 40.5268C79.4633 40.6145 79.4074 40.6937 79.3375 40.7599C79.2677 40.8261 79.1853 40.878 79.0951 40.9125L68.1998 45.1337L63.47 33.1952L102.893 17.9199L103.489 18.2324L105.484 19.2523C105.748 19.3816 105.982 19.5623 106.172 19.7837C106.363 20.005 106.507 20.2623 106.594 20.54C106.681 20.8178 106.711 21.1102 106.681 21.3995C106.651 21.6889 106.562 21.9693 106.42 22.2237Z" fill="white"/>
</g>
<path d="M106.265 20.8794L64.1134 37.21L62.8862 34.1443L103.072 18.5742L105.073 19.5883C105.836 19.9774 106.271 20.337 106.265 20.8794Z" fill="#413C7D" fill-opacity="0.1"/>
<path opacity="0.1" d="M106.265 20.8794L64.1134 37.21L62.8862 34.1443L103.072 18.5742L105.073 19.5883C105.836 19.9774 106.271 20.337 106.265 20.8794Z" fill="black"/>
<path d="M105.454 23.1797L105.049 24.0876C105.046 24.1032 105.046 24.1192 105.049 24.1348L105.281 26.5991C105.297 26.6869 105.297 26.7766 105.281 26.8644C105.278 26.8792 105.27 26.8928 105.26 26.9041C105.249 26.9154 105.236 26.924 105.222 26.9293L100.105 28.9219C100.092 28.9292 100.078 28.933 100.063 28.933C100.049 28.933 100.034 28.9292 100.021 28.9219C99.9704 28.8916 99.9242 28.8538 99.8844 28.8099L96.9536 25.8975C96.9387 25.8874 96.9211 25.882 96.903 25.882C96.8849 25.882 96.8672 25.8874 96.8523 25.8975L92.6825 27.5129C92.6596 27.5233 92.6414 27.5417 92.6315 27.5646C92.6216 27.5875 92.6207 27.6132 92.6289 27.6367L93.1233 28.8807C93.1281 28.8923 93.1305 28.9047 93.1305 28.9172C93.1304 28.9298 93.1278 28.9422 93.1228 28.9537C93.1178 28.9652 93.1105 28.9757 93.1014 28.9844C93.0923 28.9931 93.0815 28.9999 93.0697 29.0045L89.5253 30.384C89.5135 30.3886 89.5027 30.3954 89.4936 30.4041C89.4845 30.4128 89.4772 30.4233 89.4722 30.4348C89.4672 30.4463 89.4646 30.4587 89.4645 30.4713C89.4644 30.4838 89.4669 30.4962 89.4717 30.5078L90.3235 32.6479C90.3293 32.6594 90.3325 32.672 90.3328 32.6848C90.3332 32.6976 90.3307 32.7103 90.3256 32.7221C90.3205 32.7339 90.3129 32.7444 90.3033 32.753C90.2937 32.7615 90.2823 32.7679 90.2699 32.7717L87.6727 33.7858C87.66 33.793 87.6456 33.7968 87.631 33.7968C87.6163 33.7968 87.602 33.793 87.5893 33.7858C87.5348 33.7552 87.4848 33.7175 87.4404 33.6737L85.5341 31.9405C85.5197 31.9322 85.5032 31.9278 85.4865 31.9278C85.4698 31.9278 85.4533 31.9322 85.4388 31.9405L81.3107 33.5499C81.2983 33.5537 81.2869 33.5601 81.2773 33.5687C81.2677 33.5773 81.26 33.5878 81.2549 33.5996C81.2498 33.6114 81.2474 33.6241 81.2478 33.6369C81.2481 33.6497 81.2513 33.6623 81.2571 33.6737L82.1268 35.8669C82.1325 35.8784 82.1357 35.8909 82.1361 35.9037C82.1364 35.9165 82.134 35.9293 82.1289 35.941C82.1238 35.9528 82.1162 35.9634 82.1065 35.9719C82.0969 35.9805 82.0855 35.9869 82.0732 35.9907L66.2217 42.1633C66.1988 42.1711 66.1737 42.17 66.1515 42.1602C66.1294 42.1503 66.1119 42.1324 66.1026 42.1102L64.4704 38.1426C64.4622 38.119 64.4631 38.0933 64.473 38.0704C64.4829 38.0475 64.5011 38.0291 64.524 38.0187L105.829 21.9298C105.847 21.9232 105.867 21.922 105.885 21.9265C105.904 21.9309 105.921 21.9407 105.933 21.9547C105.946 21.9687 105.955 21.9861 105.957 22.0048C105.96 22.0235 105.957 22.0426 105.949 22.0595L105.454 23.1797Z" fill="#413C7D" fill-opacity="0.1"/>
<path opacity="0.1" d="M105.454 23.1797L105.049 24.0876C105.046 24.1032 105.046 24.1192 105.049 24.1348L105.281 26.5991C105.297 26.6869 105.297 26.7766 105.281 26.8644C105.278 26.8792 105.27 26.8928 105.26 26.9041C105.249 26.9154 105.236 26.924 105.222 26.9293L100.105 28.9219C100.092 28.9292 100.078 28.933 100.063 28.933C100.049 28.933 100.034 28.9292 100.021 28.9219C99.9704 28.8916 99.9242 28.8538 99.8844 28.8099L96.9536 25.8975C96.9387 25.8874 96.9211 25.882 96.903 25.882C96.8849 25.882 96.8672 25.8874 96.8523 25.8975L92.6825 27.5129C92.6596 27.5233 92.6414 27.5417 92.6315 27.5646C92.6216 27.5875 92.6207 27.6132 92.6289 27.6367L93.1233 28.8807C93.1281 28.8923 93.1305 28.9047 93.1305 28.9172C93.1304 28.9298 93.1278 28.9422 93.1228 28.9537C93.1178 28.9652 93.1105 28.9757 93.1014 28.9844C93.0923 28.9931 93.0815 28.9999 93.0697 29.0045L89.5253 30.384C89.5135 30.3886 89.5027 30.3954 89.4936 30.4041C89.4845 30.4128 89.4772 30.4233 89.4722 30.4348C89.4672 30.4463 89.4646 30.4587 89.4645 30.4713C89.4644 30.4838 89.4669 30.4962 89.4717 30.5078L90.3235 32.6479C90.3293 32.6594 90.3325 32.672 90.3328 32.6848C90.3332 32.6976 90.3307 32.7103 90.3256 32.7221C90.3205 32.7339 90.3129 32.7444 90.3033 32.753C90.2937 32.7615 90.2823 32.7679 90.2699 32.7717L87.6727 33.7858C87.66 33.793 87.6456 33.7968 87.631 33.7968C87.6163 33.7968 87.602 33.793 87.5893 33.7858C87.5348 33.7552 87.4848 33.7175 87.4404 33.6737L85.5341 31.9405C85.5197 31.9322 85.5032 31.9278 85.4865 31.9278C85.4698 31.9278 85.4533 31.9322 85.4388 31.9405L81.3107 33.5499C81.2983 33.5537 81.2869 33.5601 81.2773 33.5687C81.2677 33.5773 81.26 33.5878 81.2549 33.5996C81.2498 33.6114 81.2474 33.6241 81.2478 33.6369C81.2481 33.6497 81.2513 33.6623 81.2571 33.6737L82.1268 35.8669C82.1325 35.8784 82.1357 35.8909 82.1361 35.9037C82.1364 35.9165 82.134 35.9293 82.1289 35.941C82.1238 35.9528 82.1162 35.9634 82.1065 35.9719C82.0969 35.9805 82.0855 35.9869 82.0732 35.9907L66.2217 42.1633C66.1988 42.1711 66.1737 42.17 66.1515 42.1602C66.1294 42.1503 66.1119 42.1324 66.1026 42.1102L64.4704 38.1426C64.4622 38.119 64.4631 38.0933 64.473 38.0704C64.4829 38.0475 64.5011 38.0291 64.524 38.0187L105.829 21.9298C105.847 21.9232 105.867 21.922 105.885 21.9265C105.904 21.9309 105.921 21.9407 105.933 21.9547C105.946 21.9687 105.955 21.9861 105.957 22.0048C105.96 22.0235 105.957 22.0426 105.949 22.0595L105.454 23.1797Z" fill="black"/>
<path opacity="0.3" d="M44.7353 40.5003C43.5438 40.9637 42.5179 41.7662 41.7871 42.8064C41.0563 43.8467 40.6535 45.078 40.6296 46.3447C40.6056 47.6115 40.9615 48.8568 41.6525 49.9234C42.3434 50.99 43.3382 51.83 44.5113 52.3372C45.6844 52.8444 46.9831 52.9961 48.2433 52.7731C49.5035 52.5501 50.6686 51.9624 51.5914 51.0843C52.5142 50.2063 53.1534 49.0771 53.428 47.8397C53.7027 46.6022 53.6006 45.312 53.1346 44.1319C52.826 43.3462 52.3635 42.6286 51.7737 42.0203C51.1839 41.4121 50.4785 40.9252 49.6979 40.5877C48.9173 40.2502 48.0771 40.0688 47.2254 40.0537C46.3737 40.0387 45.5275 40.1905 44.7353 40.5003ZM48.8218 51.2891C47.8706 51.6581 46.8302 51.7397 45.8322 51.5234C44.8342 51.3072 43.9234 50.8029 43.215 50.0742C42.5067 49.3456 42.0326 48.4255 41.8527 47.4301C41.6729 46.4348 41.7953 45.4091 42.2046 44.4826C42.6139 43.5562 43.2916 42.7707 44.152 42.2255C45.0124 41.6803 46.0169 41.4 47.0384 41.4199C48.0598 41.4397 49.0523 41.759 49.8904 42.3373C50.7285 42.9155 51.3745 43.7268 51.7466 44.6684C52.2416 45.9289 52.2117 47.3321 51.6635 48.5708C51.1153 49.8095 50.0935 50.7827 48.8218 51.2773V51.2891Z" fill="white"/>
<path opacity="0.1" d="M68.0513 55.6518C67.5872 56.2782 67.0334 56.8343 66.4072 57.3026L45.0039 29.2458C45.0039 29.2458 46.8923 28.3084 47.3212 28.0254C47.3245 28.0566 47.3347 28.0868 47.3509 28.1138C48.2683 30.077 65.0907 51.7018 68.0513 55.6518Z" fill="white"/>
<path opacity="0.1" d="M64.9473 58.1872C64.8162 58.2462 58.5793 60.1268 58.5793 60.1268L51.6276 51.0183C52.6766 49.9806 53.3338 48.618 53.4895 47.1583C53.6452 45.6985 53.2898 44.2301 52.4828 42.9986C51.6758 41.7671 50.466 40.8471 49.0558 40.3924C47.6457 39.9377 46.1205 39.9759 44.7354 40.5006C44.4478 40.6071 44.1706 40.7393 43.9073 40.8956L37.7598 32.8364C37.7598 32.8364 43.1627 30.2896 43.7584 29.8887C43.9192 31.0265 64.9473 57.9514 64.9473 58.1872Z" fill="white"/>
<path opacity="0.1" d="M35.9072 25.349C35.9072 25.3135 35.9072 25.2957 35.9072 25.2898C36.0316 25.2542 36.0138 25.2779 35.9072 25.349Z" fill="white"/>
<path d="M49.7875 25.3553L37.8736 31.2803C35.9794 32.2197 34.5092 33.8271 33.7529 35.7858C32.9965 37.7445 33.0087 39.9125 33.7871 41.8628L39.5177 56.3658C40.2909 58.3143 41.7709 59.9072 43.668 60.8329C45.5652 61.7586 47.743 61.9505 49.7756 61.3711L62.583 57.7159C63.7188 57.3935 64.774 56.8398 65.681 56.0904C66.588 55.3409 67.3267 54.4122 67.85 53.3638C68.3732 52.3153 68.6694 51.1702 68.7195 50.0019C68.7696 48.8336 68.5725 47.6678 68.1408 46.5792L61.4988 29.8241C61.0708 28.7343 60.4176 27.7449 59.581 26.9193C58.7445 26.0936 57.743 25.4499 56.6407 25.0292C55.5383 24.6086 54.3594 24.4203 53.1793 24.4765C51.9992 24.5326 50.844 24.832 49.7875 25.3553ZM47.8157 50.258C46.8646 50.6271 45.8242 50.7086 44.8262 50.4924C43.8282 50.2761 42.9174 49.7718 42.209 49.0432C41.5007 48.3146 41.0266 47.3944 40.8467 46.3991C40.6669 45.4037 40.7893 44.378 41.1986 43.4516C41.6079 42.5251 42.2856 41.7396 43.146 41.1945C44.0064 40.6493 45.0109 40.3689 46.0323 40.3888C47.0538 40.4087 48.0463 40.7279 48.8844 41.3062C49.7225 41.8844 50.3684 42.6957 50.7406 43.6374C50.9912 44.2635 51.1143 44.9325 51.1028 45.6059C51.0913 46.2793 50.9455 46.9438 50.6737 47.5612C50.4019 48.1786 50.0095 48.7368 49.519 49.2037C49.0286 49.6705 48.4497 50.0369 47.8157 50.2816V50.258Z" fill="#2A5578"/>
<path d="M49.7875 25.3553L37.8736 31.2803C35.9794 32.2197 34.5092 33.8271 33.7529 35.7858C32.9965 37.7445 33.0087 39.9125 33.7871 41.8628L39.5177 56.3658C40.2909 58.3143 41.7709 59.9072 43.668 60.8329C45.5652 61.7586 47.743 61.9505 49.7756 61.3711L62.583 57.7159C63.7188 57.3935 64.774 56.8398 65.681 56.0904C66.588 55.3409 67.3267 54.4122 67.85 53.3638C68.3732 52.3153 68.6694 51.1702 68.7195 50.0019C68.7696 48.8336 68.5725 47.6678 68.1408 46.5792L61.4988 29.8241C61.0708 28.7343 60.4176 27.7449 59.581 26.9193C58.7445 26.0936 57.743 25.4499 56.6407 25.0292C55.5383 24.6086 54.3594 24.4203 53.1793 24.4765C51.9992 24.5326 50.844 24.832 49.7875 25.3553ZM47.8157 50.258C46.8646 50.6271 45.8242 50.7086 44.8262 50.4924C43.8282 50.2761 42.9174 49.7718 42.209 49.0432C41.5007 48.3146 41.0266 47.3944 40.8467 46.3991C40.6669 45.4037 40.7893 44.378 41.1986 43.4516C41.6079 42.5251 42.2856 41.7396 43.146 41.1945C44.0064 40.6493 45.0109 40.3689 46.0323 40.3888C47.0538 40.4087 48.0463 40.7279 48.8844 41.3062C49.7225 41.8844 50.3684 42.6957 50.7406 43.6374C50.9912 44.2635 51.1143 44.9325 51.1028 45.6059C51.0913 46.2793 50.9455 46.9438 50.6737 47.5612C50.4019 48.1786 50.0095 48.7368 49.519 49.2037C49.0286 49.6705 48.4497 50.0369 47.8157 50.2816V50.258Z" fill="#2A5578"/>
<path opacity="0.1" d="M68.1409 46.5792L61.4989 29.8241C61.0709 28.7343 60.4177 27.7449 59.5812 26.9193C58.7446 26.0936 57.7431 25.4499 56.6408 25.0292C55.5384 24.6086 54.3595 24.4203 53.1794 24.4765C51.9993 24.5326 50.8441 24.832 49.7876 25.3553L46.3266 27.124L44.0034 28.3031L37.8796 31.3511C36.0012 32.2883 34.5419 33.8833 33.7856 35.826C33.0292 37.7688 33.0298 39.9205 33.7872 41.8628L39.5178 56.3658C40.291 58.3143 41.771 59.9072 43.6681 60.8329C45.5653 61.7586 47.7431 61.9505 49.7757 61.3711L62.5891 57.7159C63.6032 57.4265 64.553 56.9505 65.3888 56.3127C66.0168 55.8446 66.5727 55.2885 67.0389 54.662C67.9037 53.5195 68.4589 52.1771 68.6518 50.7624C68.8446 49.3477 68.6688 47.9077 68.1409 46.5792ZM47.8158 50.2698C46.8651 50.6373 45.8257 50.7178 44.8288 50.501C43.8319 50.2843 42.9223 49.7801 42.2147 49.0521C41.5071 48.3241 41.0334 47.4049 40.8533 46.4106C40.6732 45.4163 40.7948 44.3915 41.2028 43.4656C41.6107 42.5396 42.2868 41.7541 43.1455 41.2081C44.0042 40.6622 45.0072 40.3803 46.0277 40.398C47.0482 40.4158 48.0405 40.7324 48.8793 41.3079C49.7181 41.8833 50.3659 42.6919 50.7407 43.6315C50.9922 44.2579 51.116 44.9275 51.105 45.6015C51.094 46.2756 50.9484 46.9408 50.6765 47.5589C50.4047 48.177 50.0119 48.7358 49.521 49.2031C49.03 49.6703 48.4505 50.0369 47.8158 50.2816V50.2698Z" fill="white"/>
<path d="M49.9065 26.4862L38.7372 32.0398C36.9653 32.9203 35.5896 34.4241 34.8799 36.2563C34.1702 38.0886 34.1777 40.1172 34.9009 41.9443L40.292 55.5393C41.0125 57.3712 42.3987 58.8704 44.1785 59.743C45.9584 60.6155 48.0034 60.7984 49.9124 60.2558L61.9216 56.8246C62.9848 56.5211 63.9724 56.0015 64.821 55.2988C65.6697 54.5961 66.3609 53.7258 66.8504 52.7437C67.3398 51.7615 67.6168 50.6891 67.6636 49.5949C67.7104 48.5008 67.5259 47.409 67.1221 46.3895L60.8971 30.6602C60.4936 29.639 59.8792 28.7124 59.0934 27.9395C58.3075 27.1666 57.3673 26.5645 56.3329 26.1717C55.2985 25.7788 54.1927 25.6039 53.0862 25.6581C51.9796 25.7122 50.8966 25.9943 49.9065 26.4862ZM41.12 47.3858C40.7476 46.4446 40.6656 45.4153 40.8842 44.4279C41.1029 43.4406 41.6124 42.5395 42.3485 41.8388C43.0845 41.138 44.0139 40.6689 45.0192 40.4908C46.0246 40.3127 47.0607 40.4336 47.9966 40.8383C48.9325 41.2429 49.7262 41.913 50.2773 42.764C50.8285 43.615 51.1123 44.6086 51.0929 45.6192C51.0735 46.6298 50.7518 47.6121 50.1685 48.4418C49.5851 49.2714 48.7663 49.9113 47.8156 50.2805C47.184 50.5266 46.5096 50.6469 45.8309 50.6346C45.1522 50.6222 44.4827 50.4774 43.8607 50.2085C43.2387 49.9396 42.6764 49.5519 42.2061 49.0675C41.7358 48.5831 41.3667 48.0116 41.12 47.3858Z" fill="#2A5578"/>
<path opacity="0.1" d="M49.9065 26.4862L38.7372 32.0398C36.9653 32.9203 35.5896 34.4241 34.8799 36.2563C34.1702 38.0886 34.1777 40.1172 34.9009 41.9443L40.292 55.5393C41.0125 57.3712 42.3987 58.8704 44.1785 59.743C45.9584 60.6155 48.0034 60.7984 49.9124 60.2558L61.9216 56.8246C62.9848 56.5211 63.9724 56.0015 64.821 55.2988C65.6697 54.5961 66.3609 53.7258 66.8504 52.7437C67.3398 51.7615 67.6168 50.6891 67.6636 49.5949C67.7104 48.5008 67.5259 47.409 67.1221 46.3895L60.8971 30.6602C60.4936 29.639 59.8792 28.7124 59.0934 27.9395C58.3075 27.1666 57.3673 26.5645 56.3329 26.1717C55.2985 25.7788 54.1927 25.6039 53.0862 25.6581C51.9796 25.7122 50.8966 25.9943 49.9065 26.4862ZM41.12 47.3858C40.7476 46.4446 40.6656 45.4153 40.8842 44.4279C41.1029 43.4406 41.6124 42.5395 42.3485 41.8388C43.0845 41.138 44.0139 40.6689 45.0192 40.4908C46.0246 40.3127 47.0607 40.4336 47.9966 40.8383C48.9325 41.2429 49.7262 41.913 50.2773 42.764C50.8285 43.615 51.1123 44.6086 51.0929 45.6192C51.0735 46.6298 50.7518 47.6121 50.1685 48.4418C49.5851 49.2714 48.7663 49.9113 47.8156 50.2805C47.184 50.5266 46.5096 50.6469 45.8309 50.6346C45.1522 50.6222 44.4827 50.4774 43.8607 50.2085C43.2387 49.9396 42.6764 49.5519 42.2061 49.0675C41.7358 48.5831 41.3667 48.0116 41.12 47.3858Z" fill="#2A5578"/>
<path d="M105.414 21.2276L105.074 21.8171L104.884 22.1591L104.341 23.1318L104.568 25.6256C104.58 25.7311 104.568 25.838 104.532 25.9381C104.495 26.0466 104.435 26.1459 104.356 26.2293C104.277 26.3128 104.18 26.3783 104.073 26.4215L99.3674 28.2432C99.2598 28.2857 99.1439 28.3034 99.0284 28.2953C98.9129 28.2871 98.8007 28.2532 98.7003 28.1961C98.6337 28.1631 98.5733 28.1193 98.5215 28.0664L95.8588 25.3839L92.0702 26.8519L92.6182 28.2374L88.8355 29.6994L89.735 31.981L86.9531 33.0599C86.842 33.1025 86.7229 33.1214 86.6038 33.1153C86.4847 33.1092 86.3683 33.0783 86.2621 33.0245C86.1895 32.9903 86.1231 32.9445 86.0656 32.8889L84.4631 31.3974L80.6745 32.8594L81.58 35.141L77.6007 36.6856L78.5062 38.9731C78.5418 39.0621 78.5592 39.1572 78.5575 39.2529C78.5558 39.3486 78.535 39.443 78.4962 39.5307C78.4574 39.6184 78.4015 39.6976 78.3317 39.7638C78.2618 39.83 78.1794 39.8819 78.0892 39.9164L67.1939 44.1376L62.4641 32.1992L101.887 16.9238L102.483 17.2363L104.478 18.2562C104.742 18.3855 104.976 18.5663 105.167 18.7876C105.357 19.0089 105.501 19.2662 105.588 19.5439C105.676 19.8217 105.705 20.1141 105.675 20.4034C105.645 20.6928 105.556 20.9732 105.414 21.2276Z" fill="#2A5578"/>
<g opacity="0.1">
<path d="M105.414 21.2276L105.074 21.8171L104.884 22.1591L104.341 23.1318L104.568 25.6256C104.58 25.7311 104.568 25.838 104.532 25.9381C104.495 26.0466 104.435 26.1459 104.356 26.2293C104.277 26.3128 104.18 26.3783 104.073 26.4215L99.3674 28.2432C99.2598 28.2857 99.1439 28.3034 99.0284 28.2953C98.9129 28.2871 98.8007 28.2532 98.7003 28.1961C98.6337 28.1631 98.5733 28.1193 98.5215 28.0664L95.8588 25.3839L92.0702 26.8519L92.6182 28.2374L88.8355 29.6994L89.735 31.981L86.9531 33.0599C86.842 33.1025 86.7229 33.1214 86.6038 33.1153C86.4847 33.1092 86.3683 33.0783 86.2621 33.0245C86.1895 32.9903 86.1231 32.9445 86.0656 32.8889L84.4631 31.3974L80.6745 32.8594L81.58 35.141L77.6007 36.6856L78.5062 38.9731C78.5418 39.0621 78.5592 39.1572 78.5575 39.2529C78.5558 39.3486 78.535 39.443 78.4962 39.5307C78.4574 39.6184 78.4015 39.6976 78.3317 39.7638C78.2618 39.83 78.1794 39.8819 78.0892 39.9164L67.1939 44.1376L62.4641 32.1992L101.887 16.9238L102.483 17.2363L104.478 18.2562C104.742 18.3855 104.976 18.5663 105.167 18.7876C105.357 19.0089 105.501 19.2662 105.588 19.5439C105.676 19.8217 105.705 20.1141 105.675 20.4034C105.645 20.6928 105.556 20.9732 105.414 21.2276Z" fill="white"/>
</g>
<path d="M105.259 19.8833L63.1075 36.2139L61.8804 33.1482L102.066 17.5781L104.067 18.5922C104.83 18.9813 105.265 19.3409 105.259 19.8833Z" fill="#2A5578"/>
<path opacity="0.1" d="M105.259 19.8833L63.1075 36.2139L61.8804 33.1482L102.066 17.5781L104.067 18.5922C104.83 18.9813 105.265 19.3409 105.259 19.8833Z" fill="black"/>
<path d="M104.448 22.1836L104.043 23.0915C104.04 23.1071 104.04 23.1231 104.043 23.1387L104.276 25.603C104.291 25.6908 104.291 25.7805 104.276 25.8683C104.272 25.8831 104.264 25.8967 104.254 25.908C104.243 25.9193 104.23 25.9279 104.216 25.9332L99.099 27.9259C99.0863 27.9331 99.0719 27.9369 99.0573 27.9369C99.0427 27.9369 99.0283 27.9331 99.0156 27.9259C98.9645 27.8955 98.9183 27.8577 98.8786 27.8138L95.9478 24.9014C95.9329 24.8913 95.9152 24.8859 95.8971 24.8859C95.879 24.8859 95.8614 24.8913 95.8465 24.9014L91.6766 26.5168C91.6537 26.5272 91.6356 26.5456 91.6257 26.5685C91.6158 26.5914 91.6148 26.6171 91.623 26.6406L92.1174 27.8846C92.1223 27.8962 92.1247 27.9086 92.1246 27.9212C92.1245 27.9337 92.1219 27.9461 92.1169 27.9576C92.1119 27.9692 92.1046 27.9796 92.0955 27.9883C92.0864 27.997 92.0756 28.0038 92.0638 28.0084L88.5194 29.3879C88.5076 29.3925 88.4969 29.3993 88.4877 29.408C88.4786 29.4168 88.4714 29.4272 88.4664 29.4387C88.4614 29.4502 88.4587 29.4626 88.4587 29.4752C88.4586 29.4877 88.461 29.5002 88.4658 29.5118L89.3177 31.6518C89.3234 31.6633 89.3266 31.6759 89.327 31.6887C89.3273 31.7015 89.3249 31.7142 89.3198 31.726C89.3147 31.7378 89.307 31.7483 89.2974 31.7569C89.2878 31.7654 89.2764 31.7718 89.2641 31.7756L86.6668 32.7897C86.6541 32.7969 86.6398 32.8007 86.6251 32.8007C86.6105 32.8007 86.5961 32.7969 86.5834 32.7897C86.529 32.7591 86.4789 32.7214 86.4345 32.6776L84.5283 30.9444C84.5138 30.9361 84.4974 30.9317 84.4806 30.9317C84.4639 30.9317 84.4475 30.9361 84.433 30.9444L80.3048 32.5538C80.2924 32.5576 80.281 32.564 80.2714 32.5726C80.2618 32.5812 80.2542 32.5917 80.2491 32.6035C80.244 32.6153 80.2415 32.628 80.2419 32.6408C80.2423 32.6536 80.2454 32.6662 80.2512 32.6776L81.1209 34.8708C81.1267 34.8823 81.1298 34.8948 81.1302 34.9076C81.1306 34.9204 81.1281 34.9332 81.123 34.9449C81.1179 34.9567 81.1103 34.9673 81.1007 34.9758C81.0911 34.9844 81.0797 34.9908 81.0673 34.9946L65.2159 41.1672C65.1929 41.1751 65.1678 41.1739 65.1457 41.1641C65.1235 41.1542 65.106 41.1363 65.0967 41.1142L63.4645 37.1465C63.4563 37.1229 63.4573 37.0972 63.4672 37.0743C63.4771 37.0514 63.4952 37.033 63.5181 37.0227L104.824 20.9338C104.841 20.9271 104.861 20.9259 104.879 20.9304C104.898 20.9348 104.915 20.9446 104.928 20.9586C104.94 20.9726 104.949 20.99 104.951 21.0087C104.954 21.0274 104.951 21.0465 104.943 21.0635L104.448 22.1836Z" fill="#2A5578"/>
<path opacity="0.1" d="M104.448 22.1836L104.043 23.0915C104.04 23.1071 104.04 23.1231 104.043 23.1387L104.276 25.603C104.291 25.6908 104.291 25.7805 104.276 25.8683C104.272 25.8831 104.264 25.8967 104.254 25.908C104.243 25.9193 104.23 25.9279 104.216 25.9332L99.099 27.9259C99.0863 27.9331 99.0719 27.9369 99.0573 27.9369C99.0427 27.9369 99.0283 27.9331 99.0156 27.9259C98.9645 27.8955 98.9183 27.8577 98.8786 27.8138L95.9478 24.9014C95.9329 24.8913 95.9152 24.8859 95.8971 24.8859C95.879 24.8859 95.8614 24.8913 95.8465 24.9014L91.6766 26.5168C91.6537 26.5272 91.6356 26.5456 91.6257 26.5685C91.6158 26.5914 91.6148 26.6171 91.623 26.6406L92.1174 27.8846C92.1223 27.8962 92.1247 27.9086 92.1246 27.9212C92.1245 27.9337 92.1219 27.9461 92.1169 27.9576C92.1119 27.9692 92.1046 27.9796 92.0955 27.9883C92.0864 27.997 92.0756 28.0038 92.0638 28.0084L88.5194 29.3879C88.5076 29.3925 88.4969 29.3993 88.4877 29.408C88.4786 29.4168 88.4714 29.4272 88.4664 29.4387C88.4614 29.4502 88.4587 29.4626 88.4587 29.4752C88.4586 29.4877 88.461 29.5002 88.4658 29.5118L89.3177 31.6518C89.3234 31.6633 89.3266 31.6759 89.327 31.6887C89.3273 31.7015 89.3249 31.7142 89.3198 31.726C89.3147 31.7378 89.307 31.7483 89.2974 31.7569C89.2878 31.7654 89.2764 31.7718 89.2641 31.7756L86.6668 32.7897C86.6541 32.7969 86.6398 32.8007 86.6251 32.8007C86.6105 32.8007 86.5961 32.7969 86.5834 32.7897C86.529 32.7591 86.4789 32.7214 86.4345 32.6776L84.5283 30.9444C84.5138 30.9361 84.4974 30.9317 84.4806 30.9317C84.4639 30.9317 84.4475 30.9361 84.433 30.9444L80.3048 32.5538C80.2924 32.5576 80.281 32.564 80.2714 32.5726C80.2618 32.5812 80.2542 32.5917 80.2491 32.6035C80.244 32.6153 80.2415 32.628 80.2419 32.6408C80.2423 32.6536 80.2454 32.6662 80.2512 32.6776L81.1209 34.8708C81.1267 34.8823 81.1298 34.8948 81.1302 34.9076C81.1306 34.9204 81.1281 34.9332 81.123 34.9449C81.1179 34.9567 81.1103 34.9673 81.1007 34.9758C81.0911 34.9844 81.0797 34.9908 81.0673 34.9946L65.2159 41.1672C65.1929 41.1751 65.1678 41.1739 65.1457 41.1641C65.1235 41.1542 65.106 41.1363 65.0967 41.1142L63.4645 37.1465C63.4563 37.1229 63.4573 37.0972 63.4672 37.0743C63.4771 37.0514 63.4952 37.033 63.5181 37.0227L104.824 20.9338C104.841 20.9271 104.861 20.9259 104.879 20.9304C104.898 20.9348 104.915 20.9446 104.928 20.9586C104.94 20.9726 104.949 20.99 104.951 21.0087C104.954 21.0274 104.951 21.0465 104.943 21.0635L104.448 22.1836Z" fill="black"/>
<path opacity="0.3" d="M43.7294 39.5042C42.538 39.9676 41.512 40.7701 40.7813 41.8104C40.0505 42.8506 39.6477 44.0819 39.6237 45.3486C39.5997 46.6154 39.9557 47.8607 40.6466 48.9273C41.3375 49.9939 42.3324 50.8339 43.5055 51.3411C44.6786 51.8483 45.9772 52 47.2374 51.777C48.4976 51.554 49.6627 50.9663 50.5855 50.0882C51.5084 49.2102 52.1475 48.081 52.4222 46.8436C52.6968 45.6061 52.5947 44.3159 52.1287 43.1358C51.8201 42.3501 51.3576 41.6325 50.7678 41.0242C50.1781 40.416 49.4726 39.9291 48.692 39.5916C47.9115 39.2541 47.0712 39.0727 46.2196 39.0577C45.3679 39.0427 44.5216 39.1944 43.7294 39.5042ZM47.8159 50.293C46.8647 50.662 45.8243 50.7436 44.8263 50.5273C43.8283 50.3111 42.9175 49.8068 42.2092 49.0781C41.5008 48.3495 41.0267 47.4294 40.8469 46.434C40.667 45.4387 40.7895 44.413 41.1988 43.4865C41.608 42.5601 42.2857 41.7746 43.1462 41.2294C44.0066 40.6842 45.011 40.4039 46.0325 40.4238C47.0539 40.4436 48.0465 40.7629 48.8846 41.3412C49.7227 41.9194 50.3686 42.7307 50.7408 43.6723C51.2357 44.9328 51.2059 46.336 50.6577 47.5747C50.1095 48.8134 49.0876 49.7866 47.8159 50.2812V50.293Z" fill="white"/>
<path opacity="0.1" d="M67.0455 54.6558C66.5814 55.2821 66.0275 55.8382 65.4014 56.3065L43.998 28.2497C43.998 28.2497 45.8864 27.3123 46.3153 27.0293C46.3187 27.0606 46.3288 27.0907 46.3451 27.1177C47.2625 29.0809 64.0849 50.7057 67.0455 54.6558Z" fill="white"/>
<path opacity="0.1" d="M63.9414 57.1911C63.8104 57.2501 57.5734 59.1308 57.5734 59.1308L50.6217 50.0222C51.6707 48.9845 52.328 47.6219 52.4837 46.1622C52.6393 44.7024 52.284 43.234 51.4769 42.0025C50.6699 40.771 49.4602 39.851 48.05 39.3963C46.6398 38.9416 45.1146 38.9798 43.7295 39.5045C43.4419 39.611 43.1648 39.7432 42.9015 39.8995L36.7539 31.8403C36.7539 31.8403 42.1569 29.2935 42.7526 28.8926C42.9134 30.0304 63.9414 56.9553 63.9414 57.1911Z" fill="white"/>
<path opacity="0.1" d="M34.9014 24.3529C34.9014 24.3174 34.9014 24.2996 34.9014 24.2937C35.0257 24.2581 35.008 24.2818 34.9014 24.3529Z" fill="white"/>
</g>
<defs>
<clipPath id="clip0_947_27472">
<rect width="140" height="80" fill="white"/>
</clipPath>
</defs>
</svg>
