<svg width="32" height="32" viewBox="0 0 32 32" fill="none" xmlns="http://www.w3.org/2000/svg">
<g clip-path="url(#clip0_875_29642)">
<circle cx="16" cy="16" r="16" fill="#F6976D" fill-opacity="0.1"/>
<path d="M18.2231 11.5486C18.2231 10.9375 18.7231 10.4375 19.3342 10.4375C19.9453 10.4375 20.4453 10.9375 20.4453 11.5486C20.4453 12.1597 19.9453 12.6597 19.3342 12.6597C18.7231 12.6597 18.2231 12.1597 18.2231 11.5486ZM20.8786 13.5375C20.3915 13.3249 19.8657 13.2152 19.3342 13.2153C18.962 13.2153 18.6064 13.2708 18.2675 13.3708C18.5898 13.6764 18.7786 14.1042 18.7786 14.5653V14.8819H21.5564V14.5653C21.5564 14.1153 21.2898 13.7153 20.8786 13.5375ZM12.6675 12.6597C13.2786 12.6597 13.7786 12.1597 13.7786 11.5486C13.7786 10.9375 13.2786 10.4375 12.6675 10.4375C12.0564 10.4375 11.5564 10.9375 11.5564 11.5486C11.5564 12.1597 12.0564 12.6597 12.6675 12.6597ZM13.7342 13.3708C13.3953 13.2708 13.0398 13.2153 12.6675 13.2153C12.1175 13.2153 11.5953 13.3319 11.1231 13.5375C10.9218 13.6235 10.7503 13.7668 10.6298 13.9495C10.5093 14.1323 10.4451 14.3464 10.4453 14.5653V14.8819H13.2231V14.5653C13.2231 14.1042 13.412 13.6764 13.7342 13.3708ZM14.8898 11.5486C14.8898 10.9375 15.3898 10.4375 16.0009 10.4375C16.612 10.4375 17.112 10.9375 17.112 11.5486C17.112 12.1597 16.612 12.6597 16.0009 12.6597C15.3898 12.6597 14.8898 12.1597 14.8898 11.5486ZM18.2231 14.8819H13.7786V14.5653C13.7786 14.1153 14.0453 13.7153 14.4564 13.5375C14.9436 13.3249 15.4694 13.2152 16.0009 13.2152C16.5324 13.2152 17.0582 13.3249 17.5453 13.5375C17.7466 13.6235 17.9181 13.7668 18.0386 13.9495C18.1591 14.1323 18.2233 14.3464 18.2231 14.5653V14.8819ZM17.6675 18.2153C17.6675 17.6042 18.1675 17.1042 18.7786 17.1042C19.3898 17.1042 19.8898 17.6042 19.8898 18.2153C19.8898 18.8264 19.3898 19.3264 18.7786 19.3264C18.1675 19.3264 17.6675 18.8264 17.6675 18.2153ZM21.0009 21.5486H16.5564V21.2319C16.5564 20.7819 16.8231 20.3819 17.2342 20.2042C17.7213 19.9916 18.2471 19.8818 18.7786 19.8818C19.3102 19.8818 19.8359 19.9916 20.3231 20.2042C20.5244 20.2902 20.6959 20.4335 20.8164 20.6162C20.9369 20.7989 21.0011 21.0131 21.0009 21.2319V21.5486ZM12.112 18.2153C12.112 17.6042 12.612 17.1042 13.2231 17.1042C13.8342 17.1042 14.3342 17.6042 14.3342 18.2153C14.3342 18.8264 13.8342 19.3264 13.2231 19.3264C12.612 19.3264 12.112 18.8264 12.112 18.2153ZM15.4453 21.5486H11.0009V21.2319C11.0009 20.7819 11.2675 20.3819 11.6786 20.2042C12.1658 19.9916 12.6916 19.8818 13.2231 19.8818C13.7546 19.8818 14.2804 19.9916 14.7675 20.2042C14.9688 20.2902 15.1404 20.4335 15.2609 20.6162C15.3814 20.7989 15.4455 21.0131 15.4453 21.2319V21.5486ZM16.4175 16.5486V15.4375H15.5842V16.5486H14.3342L16.0009 18.2153L17.6675 16.5486H16.4175Z" stroke="#F6976D" stroke-width="0.8"/>
</g>
<defs>
<clipPath id="clip0_875_29642">
<rect width="32" height="32" fill="white"/>
</clipPath>
</defs>
</svg>
