<svg width="11" height="11" viewBox="0 0 11 11" fill="none" xmlns="http://www.w3.org/2000/svg">
<path fill-rule="evenodd" clip-rule="evenodd" d="M1.76168 10.5648V10.9271H7.06017V10.5648H5.31194V0.362304H6.11881C6.5671 0.362304 6.94364 0.512059 7.24844 0.811561C7.56225 1.1014 7.80431 1.48786 7.97463 1.97094C8.14495 2.45401 8.23465 2.98055 8.24359 3.55058H8.71427V0H0V3.55058H0.470678C0.479641 2.99988 0.564813 2.48782 0.726189 2.01441C0.887564 1.541 1.11618 1.15454 1.41203 0.855038C1.70789 0.545869 2.0665 0.381629 2.48787 0.362304H3.50991V10.5648H1.76168ZM6.84206 8.6439V9.39321H8.477V11H9.34843V9.39321H11V8.6439H9.34843V6.97883H8.477V8.6439H6.84206Z" fill="#8B8B8B"/>
</svg>
