<svg width="28" height="36" viewBox="0 0 28 36" fill="none" xmlns="http://www.w3.org/2000/svg">
<path d="M15.6055 17.8867L12.5664 21.7617L10.9609 19.7148C10.9317 19.6775 10.8944 19.6473 10.8517 19.6265C10.8091 19.6057 10.7623 19.5949 10.7148 19.5949C10.6674 19.5949 10.6206 19.6057 10.578 19.6265C10.5353 19.6473 10.498 19.6775 10.4688 19.7148L6.57031 24.6836C6.53425 24.7297 6.51187 24.7849 6.50573 24.8431C6.4996 24.9013 6.50996 24.96 6.53563 25.0126C6.56131 25.0651 6.60125 25.1094 6.6509 25.1404C6.70055 25.1713 6.75791 25.1876 6.81641 25.1875H21.1875C21.4492 25.1875 21.5938 24.8867 21.4336 24.6836L16.1016 17.8867C16.0719 17.8493 16.0342 17.8191 15.9913 17.7983C15.9483 17.7775 15.9012 17.7667 15.8535 17.7667C15.8058 17.7667 15.7587 17.7775 15.7157 17.7983C15.6728 17.8191 15.6351 17.8493 15.6055 17.8867ZM8.0625 15.2656C8.0625 15.68 8.22712 16.0775 8.52015 16.3705C8.81317 16.6635 9.2106 16.8281 9.625 16.8281C10.0394 16.8281 10.4368 16.6635 10.7299 16.3705C11.0229 16.0775 11.1875 15.68 11.1875 15.2656C11.1875 14.8512 11.0229 14.4538 10.7299 14.1608C10.4368 13.8677 10.0394 13.7031 9.625 13.7031C9.2106 13.7031 8.81317 13.8677 8.52015 14.1608C8.22712 14.4538 8.0625 14.8512 8.0625 15.2656ZM27.3828 9.27344L18.9766 0.867188C18.7422 0.632813 18.4258 0.5 18.0938 0.5H1.5C0.808594 0.5 0.25 1.05859 0.25 1.75V34.25C0.25 34.9414 0.808594 35.5 1.5 35.5H26.5C27.1914 35.5 27.75 34.9414 27.75 34.25V10.1602C27.75 9.82812 27.6172 9.50781 27.3828 9.27344ZM24.8672 10.7344H17.5156V3.38281L24.8672 10.7344ZM24.9375 32.6875H3.0625V3.3125H14.8594V11.75C14.8594 12.1851 15.0322 12.6024 15.3399 12.9101C15.6476 13.2178 16.0649 13.3906 16.5 13.3906H24.9375V32.6875Z" fill="black"/>
</svg>
