<svg width="195" height="81" viewBox="0 0 195 81" fill="none" xmlns="http://www.w3.org/2000/svg">
<g clip-path="url(#clip0_160_10323)">
<path d="M16.1542 16.2845V80.1198L0 65.138V0L16.1542 16.2845Z" fill="#2A5578"/>
<path d="M40.7087 40.3856L23.9083 23.4497V45.5966L41.3548 63.1839L80.7712 23.4497V0L40.7087 40.3856Z" fill="#2A5578"/>
<path d="M80.7712 36.4773L66.0855 49.5049V80.7712L80.7712 67.7436V36.4773Z" fill="#2A5578"/>
<path d="M88.5137 63.4141V47.4297C88.5566 45.4531 89.502 43.498 91.3496 41.5645C93.584 39.2871 96.291 38.127 99.4707 38.084V43.1758C97.4082 43.1758 95.7969 44.0781 94.6367 45.8828C94.1641 46.6562 93.9277 47.3652 93.9277 48.0098V52.3926H108.365V48.0098C108.365 46.0762 107.377 44.6582 105.4 43.7559C104.498 43.3262 103.574 43.1113 102.629 43.1113V38.084C105.594 38.084 108.236 39.1367 110.557 41.2422C112.49 43.0898 113.479 45.1309 113.521 47.3652V57.6133H93.9277V63.4141C93.9277 64.6172 94.6152 65.7344 95.9902 66.7656C97.1074 67.5391 98.2891 67.9258 99.5352 67.9258V72.9531C95.625 72.9531 92.5527 71.3633 90.3184 68.1836C89.1152 66.5078 88.5137 64.918 88.5137 63.4141ZM102.629 72.9531V67.8613C105.207 67.8613 107.141 66.7441 108.43 64.5098C108.688 64.0371 108.881 63.5859 109.01 63.1562L113.586 64.832C112.812 67.7969 111.051 70.0312 108.301 71.5352C106.539 72.4805 104.648 72.9531 102.629 72.9531ZM118.678 63.4141V47.4297C118.721 45.4531 119.666 43.498 121.514 41.5645C123.748 39.2871 126.455 38.127 129.635 38.084V43.1758C127.572 43.1758 125.961 44.0781 124.801 45.8828C124.328 46.6562 124.092 47.3652 124.092 48.0098V52.3926H138.529V48.0098C138.529 46.0762 137.541 44.6582 135.564 43.7559C134.662 43.3262 133.738 43.1113 132.793 43.1113V38.084C135.758 38.084 138.4 39.1367 140.721 41.2422C142.654 43.0898 143.643 45.1309 143.686 47.3652V57.6133H124.092V63.4141C124.092 64.6172 124.779 65.7344 126.154 66.7656C127.271 67.5391 128.453 67.9258 129.699 67.9258V72.9531C125.789 72.9531 122.717 71.3633 120.482 68.1836C119.279 66.5078 118.678 64.918 118.678 63.4141ZM132.793 72.9531V67.8613C135.371 67.8613 137.305 66.7441 138.594 64.5098C138.852 64.0371 139.045 63.5859 139.174 63.1562L143.75 64.832C142.977 67.7969 141.215 70.0312 138.465 71.5352C136.703 72.4805 134.812 72.9531 132.793 72.9531ZM147.424 43.6914V38.4707H151.678V27.3203H157.156V38.4707H161.281V43.7559H157.156V62.2539C157.156 65.3047 158.402 67.002 160.895 67.3457C161.367 67.4316 161.84 67.4746 162.312 67.4746H163.215L164.439 72.9531H162.119C156.834 72.9102 153.59 70.9336 152.387 67.0234C151.957 65.5625 151.742 63.7578 151.742 61.6094L151.678 43.6914H147.424ZM167.404 72.9531V27.4492H172.947V72.9531H167.404ZM174.559 55.4863L187.707 38.1484H194.217L180.939 55.4863L194.281 72.9531H187.836L174.559 55.4863Z" fill="#2A5578"/>
</g>
<defs>
<clipPath id="clip0_160_10323">
<rect width="195" height="81" fill="white"/>
</clipPath>
</defs>
</svg>
