<svg width="164" height="40" viewBox="0 0 164 40" fill="none" xmlns="http://www.w3.org/2000/svg">
<g clip-path="url(#clip0_3442_74849)">
<path d="M61.2047 40C57.9797 40 55.1776 39.3689 52.7987 38.1067C50.4914 36.914 48.5704 35.1231 47.2496 32.9333C45.9058 30.6546 45.2224 28.0653 45.2717 25.44C45.2474 23.3995 45.6202 21.3729 46.3705 19.4667C47.0644 17.7112 48.1101 16.1069 49.4473 14.7467C50.7731 13.4081 52.3734 12.3543 54.1448 11.6533C56.0378 10.9099 58.0639 10.5383 60.1059 10.56C62.0385 10.537 63.9554 10.9001 65.7374 11.6267C67.4075 12.3164 68.9131 13.3332 70.1602 14.6133C71.4212 15.9193 72.3935 17.4621 73.0171 19.1467C73.6891 20.9754 73.9877 22.9137 73.8962 24.8533L73.8412 27.1467H50.601L49.3374 22.3467H66.6989L65.7649 23.36V22.2933C65.7047 21.4425 65.4107 20.6229 64.9133 19.92C64.4163 19.2255 63.745 18.6656 62.9628 18.2933C62.1074 17.8908 61.1663 17.6898 60.2158 17.7067C58.9446 17.6694 57.6854 17.9543 56.5622 18.5333C55.5596 19.0788 54.7612 19.9192 54.2821 20.9333C53.734 22.151 53.4713 23.4717 53.5129 24.8C53.4763 26.2231 53.8269 27.6304 54.5293 28.88C55.2174 30.0465 56.2512 30.985 57.4962 31.5733C58.9437 32.2452 60.5348 32.5742 62.1387 32.5333C63.2707 32.5512 64.3968 32.3706 65.4627 32C66.6015 31.5489 67.6659 30.938 68.6218 30.1867L72.7424 35.84C71.646 36.7746 70.4267 37.5637 69.1163 38.1867C67.8635 38.7814 66.5458 39.2376 65.188 39.5467C63.8824 39.8448 62.5459 39.9969 61.2047 40Z" fill="#2A5578"/>
<path d="M93.4003 40C90.1753 40 87.3733 39.3689 84.9943 38.1067C82.687 36.914 80.7661 35.1231 79.4452 32.9333C78.1015 30.6546 77.418 28.0653 77.4673 25.44C77.443 23.3995 77.8158 21.3729 78.5662 19.4667C79.26 17.7112 80.3057 16.1069 81.6429 14.7467C82.9687 13.4081 84.569 12.3543 86.3404 11.6533C88.2334 10.9099 90.2595 10.5383 92.3015 10.56C94.2342 10.537 96.151 10.9001 97.933 11.6267C99.6031 12.3164 101.109 13.3332 102.356 14.6133C103.617 15.9193 104.589 17.4621 105.213 19.1467C105.885 20.9754 106.183 22.9137 106.092 24.8533L106.037 27.1467H82.7966L81.533 22.3467H98.8945L97.9605 23.36V22.2933C97.9004 21.4425 97.6063 20.6229 97.1089 19.92C96.6119 19.2255 95.9406 18.6656 95.1585 18.2933C94.303 17.8908 93.3619 17.6898 92.4114 17.7067C91.1402 17.6694 89.881 17.9543 88.7578 18.5333C87.7552 19.0788 86.9568 19.9192 86.4777 20.9333C85.9296 22.151 85.6669 23.4717 85.7085 24.8C85.6719 26.2231 86.0225 27.6304 86.725 28.88C87.413 30.0465 88.4468 30.985 89.6918 31.5733C91.1393 32.2452 92.7304 32.5742 94.3343 32.5333C95.4664 32.5512 96.5924 32.3706 97.6583 32C98.7971 31.5489 99.8615 30.938 100.817 30.1867L104.938 35.84C103.842 36.7746 102.622 37.5637 101.312 38.1867C100.059 38.7814 98.7414 39.2376 97.3836 39.5467C96.078 39.8448 94.7416 39.9969 93.4003 40Z" fill="#2A5578"/>
<path d="M108.949 18.6133V11.1467H128.563V18.6133H108.949ZM114.113 39.4667V4H122.904V39.4667H114.113Z" fill="#2A5578"/>
<path d="M133.562 39.4667V0H142.353V39.4667H133.562ZM142.023 31.1467L138.782 24.7467L152.407 11.1467H164L142.023 31.1467ZM153.341 39.4667L143.067 26.56L149.276 21.8667L163.725 39.4667H153.341Z" fill="#2A5578"/>
<path d="M29.5035 33.8987V39.4667H38.5689V20.248L29.5035 33.8987Z" fill="#2A5578"/>
<path d="M8.68074 17.1387L17.3615 30.4H20.9876L29.943 16.928C29.943 16.96 29.943 16.9947 29.943 17.0267L38.5688 4V2.13333H30.5474L19.3723 19.544L8.35109 2.13333H0V39.4667H9.06533V27.84C9.06533 24.3911 8.98291 21.4133 8.81809 18.9067C8.77963 18.3147 8.73385 17.7253 8.68074 17.1387Z" fill="#2A5578"/>
</g>
<defs>
<clipPath id="clip0_3442_74849">
<rect width="164" height="40" fill="white"/>
</clipPath>
</defs>
</svg>
