<svg width="82" height="20" viewBox="0 0 82 20" fill="none" xmlns="http://www.w3.org/2000/svg">
<path d="M30.6025 19.9998C28.99 19.9998 27.589 19.6843 26.3995 19.0531C25.2459 18.4568 24.2854 17.5613 23.625 16.4665C22.9531 15.3271 22.6113 14.0324 22.636 12.7198C22.6239 11.6996 22.8103 10.6863 23.1854 9.73314C23.5323 8.85543 24.0552 8.05328 24.7238 7.37314C25.3867 6.70385 26.1868 6.17696 27.0725 5.82648C28.0191 5.45476 29.0321 5.26896 30.0531 5.27981C31.0194 5.26831 31.9779 5.44984 32.8688 5.81314C33.7039 6.15804 34.4567 6.66641 35.0802 7.30648C35.7108 7.95948 36.1969 8.73087 36.5087 9.57315C36.8447 10.4875 36.994 11.4567 36.9482 12.4265L36.9208 13.5731H25.3007L24.6688 11.1731H33.3496L32.8826 11.6798V11.1465C32.8525 10.7211 32.7055 10.3113 32.4568 9.95981C32.2083 9.61255 31.8727 9.3326 31.4816 9.14648C31.0539 8.9452 30.5833 8.8447 30.108 8.85314C29.4725 8.8345 28.8428 8.97696 28.2812 9.26648C27.7799 9.53923 27.3808 9.9594 27.1412 10.4665C26.8672 11.0753 26.7358 11.7357 26.7566 12.3998C26.7383 13.1114 26.9136 13.815 27.2648 14.4398C27.6088 15.0231 28.1257 15.4923 28.7482 15.7865C29.472 16.1224 30.2675 16.2869 31.0695 16.2665C31.6355 16.2754 32.1986 16.1851 32.7315 15.9998C33.3009 15.7743 33.8331 15.4688 34.3111 15.0931L36.3714 17.9198C35.8232 18.3871 35.2135 18.7817 34.5583 19.0931C33.9319 19.3905 33.273 19.6186 32.5941 19.7731C31.9413 19.9222 31.2731 19.9982 30.6025 19.9998V19.9998Z" fill="#2A5578"/>
<path d="M46.7002 19.9998C45.0876 19.9998 43.6866 19.6843 42.4972 19.0531C41.3435 18.4568 40.383 17.5613 39.7226 16.4665C39.0507 15.3271 38.709 14.0324 38.7337 12.7198C38.7215 11.6996 38.9079 10.6863 39.2831 9.73314C39.63 8.85543 40.1529 8.05328 40.8214 7.37314C41.4844 6.70385 42.2845 6.17696 43.1702 5.82648C44.1167 5.45476 45.1298 5.26896 46.1508 5.27981C47.1171 5.26831 48.0755 5.44984 48.9665 5.81314C49.8016 6.15804 50.5544 6.66641 51.1779 7.30648C51.8084 7.95948 52.2945 8.73087 52.6064 9.57315C52.9424 10.4875 53.0917 11.4567 53.0459 12.4265L53.0184 13.5731H41.3983L40.7665 11.1731H49.4472L48.9802 11.6798V11.1465C48.9502 10.7211 48.8031 10.3113 48.5544 9.95981C48.306 9.61255 47.9703 9.3326 47.5792 9.14648C47.1515 8.9452 46.6809 8.8447 46.2057 8.85314C45.5701 8.8345 44.9405 8.97696 44.3789 9.26648C43.8776 9.53923 43.4784 9.9594 43.2389 10.4665C42.9648 11.0753 42.8335 11.7357 42.8543 12.3998C42.836 13.1114 43.0113 13.815 43.3625 14.4398C43.7065 15.0231 44.2234 15.4923 44.8459 15.7865C45.5697 16.1224 46.3652 16.2869 47.1672 16.2665C47.7332 16.2754 48.2962 16.1851 48.8291 15.9998C49.3986 15.7743 49.9308 15.4688 50.4087 15.0931L52.469 17.9198C51.9208 18.3871 51.3111 18.7817 50.6559 19.0931C50.0295 19.3905 49.3707 19.6186 48.6918 19.7731C48.039 19.9222 47.3708 19.9982 46.7002 19.9998V19.9998Z" fill="#2A5578"/>
<path d="M54.4746 9.30667V5.57333H64.2816V9.30667H54.4746ZM57.0569 19.7333V2H61.4522V19.7333H57.0569Z" fill="#2A5578"/>
<path d="M66.7812 19.7333V0H71.1766V19.7333H66.7812ZM71.0117 15.5733L69.391 12.3733L76.2037 5.57333H82L71.0117 15.5733ZM76.6707 19.7333L71.5337 13.28L74.6379 10.9333L81.8627 19.7333H76.6707Z" fill="#2A5578"/>
<path d="M14.752 16.9484V19.7324H19.2846V10.123L14.752 16.9484Z" fill="#2A5578"/>
<path d="M4.34037 8.56907L8.68074 15.1997H10.4938L14.9715 8.46374C14.9715 8.47974 14.9715 8.49707 14.9715 8.51307L19.2844 1.99974V1.06641H15.2737L9.68616 9.77174L4.17554 1.06641H0V19.7331H4.53266V13.9197C4.53266 12.1953 4.49146 10.7064 4.40904 9.45307C4.38982 9.15707 4.36692 8.86241 4.34037 8.56907Z" fill="#2A5578"/>
</svg>
