<svg width="16" height="16" viewBox="0 0 16 16" fill="none" xmlns="http://www.w3.org/2000/svg">
<path d="M14.6185 16L15.3247 15.2938L12.9494 12.9185C13.3664 12.3563 13.6135 11.6608 13.6135 10.9087C13.6135 9.5549 12.8134 8.38471 11.6614 7.84546V3.62166L8.03979 0H0.675293V14.8146H11.6614V13.9719C11.8674 13.8755 12.0623 13.759 12.2432 13.6247L14.6185 16ZM8.33229 1.70495L9.95648 3.32913H8.33229V1.70495ZM1.67403 0.998739H7.33355V4.32787H10.6627V7.55569C10.5221 7.53778 10.3787 7.52856 10.2334 7.52856C9.19477 7.52856 8.26425 7.99953 7.64369 8.73897H2.83923V9.73771H7.06243C6.9272 10.1027 6.85319 10.4972 6.85319 10.9087C6.85319 10.9626 6.85459 11.0161 6.85709 11.0694H2.83923V12.0681H7.05807C7.32756 12.8039 7.84604 13.4205 8.51077 13.8159H1.67403V0.998739ZM10.2334 13.2902C8.92025 13.2902 7.85193 12.2218 7.85193 10.9087C7.85193 9.59562 8.92022 8.5273 10.2334 8.5273C11.5465 8.5273 12.6148 9.59558 12.6148 10.9087C12.6148 12.2219 11.5465 13.2902 10.2334 13.2902Z" fill="#263238"/>
</svg>
