<svg width="328" height="328" viewBox="0 0 328 328" fill="none" xmlns="http://www.w3.org/2000/svg">
<path d="M66.6037 283.641C120.691 311.908 208.392 311.908 262.479 283.641C316.566 255.374 316.566 209.513 262.479 181.266C208.392 153.018 120.691 152.992 66.6037 181.266C12.5165 209.539 12.5165 255.367 66.6037 283.641Z" fill="#F5F5F5"/>
<path d="M161.284 253.8L163.777 255.237C164.217 255.46 164.704 255.576 165.197 255.576C165.691 255.576 166.177 255.46 166.617 255.237L233.057 216.874C233.229 216.816 233.377 216.705 233.483 216.558C233.588 216.411 233.645 216.235 233.645 216.054C233.645 215.873 233.588 215.697 233.483 215.55C233.377 215.402 233.229 215.292 233.057 215.234L230.571 213.797C230.131 213.574 229.644 213.458 229.151 213.458C228.657 213.458 228.171 213.574 227.73 213.797L161.284 252.16C161.113 252.218 160.964 252.329 160.859 252.476C160.753 252.623 160.697 252.799 160.697 252.98C160.697 253.161 160.753 253.338 160.859 253.485C160.964 253.632 161.113 253.742 161.284 253.8Z" fill="#E0E0E0"/>
<path d="M269.537 248.402C261.311 252.803 247.968 252.803 239.742 248.402C231.516 244 231.516 236.869 239.742 232.467C247.968 228.066 261.311 228.066 269.537 232.467C277.764 236.869 277.764 244.033 269.537 248.402Z" fill="#E0E0E0"/>
<path d="M264.44 222.056C264.44 222.056 265.201 215.384 268.521 210.208C271.84 205.032 276.393 201.805 280.643 201.47C284.894 201.136 288.332 205.046 283.786 207.729C279.24 210.412 271.151 213.16 267.432 223.21L264.44 222.056Z" fill="#F3C262"/>
<path opacity="0.1" d="M264.44 222.056C264.44 222.056 265.201 215.384 268.521 210.208C271.84 205.032 276.393 201.805 280.643 201.47C284.894 201.136 288.332 205.046 283.786 207.729C279.24 210.412 271.151 213.16 267.432 223.21L264.44 222.056Z" fill="#111B23"/>
<path d="M265.68 220.323H265.634C265.606 220.313 265.581 220.296 265.559 220.275C265.538 220.255 265.521 220.23 265.509 220.202C265.498 220.175 265.492 220.145 265.492 220.115C265.492 220.085 265.498 220.056 265.509 220.028C269.996 208.975 278.538 204.356 282.428 203.464C282.457 203.457 282.486 203.456 282.516 203.461C282.545 203.466 282.573 203.476 282.598 203.491C282.624 203.507 282.646 203.527 282.663 203.551C282.681 203.575 282.693 203.603 282.7 203.631C282.707 203.66 282.708 203.69 282.703 203.72C282.699 203.749 282.688 203.777 282.673 203.802C282.657 203.828 282.637 203.849 282.613 203.867C282.589 203.884 282.562 203.897 282.533 203.904C278.721 204.783 270.344 209.316 265.929 220.199C265.907 220.244 265.871 220.281 265.826 220.303C265.781 220.326 265.729 220.333 265.68 220.323Z" fill="white"/>
<path d="M288.41 220.455C288.023 221.321 287.098 221.767 286.193 222.128C285.288 222.488 284.356 222.862 283.877 223.689C282.92 225.342 284.494 227.677 283.464 229.291C283.223 229.613 282.919 229.883 282.57 230.085C282.222 230.287 281.837 230.416 281.437 230.465C280.781 230.59 280.125 230.583 279.469 230.642C279.153 230.635 278.838 230.611 278.525 230.57C277.604 230.364 276.64 230.466 275.782 230.859C274.47 231.6 274.057 233.266 273.257 234.546C272.763 235.305 272.11 235.947 271.343 236.428C270.576 236.91 269.714 237.219 268.816 237.334C268.051 237.49 267.258 237.438 266.52 237.183L266.395 237.104C266.312 237.016 266.233 236.924 266.159 236.829V236.789C265.923 235.93 266.303 235.031 266.323 234.165C266.326 234.113 266.326 234.06 266.323 234.008C266.29 232.971 266.257 231.948 266.238 230.918C266.185 229.022 266.165 227.12 266.179 225.224C266.179 223.997 266.041 222.646 266.566 221.485C267.143 220.212 268.58 220.173 269.117 218.933C269.334 218.428 269.452 217.896 269.662 217.391C269.988 216.651 270.511 216.015 271.173 215.552C271.836 215.089 272.614 214.818 273.421 214.767C275.927 214.643 278.17 216.67 280.676 216.486C281.32 216.396 281.96 216.273 282.592 216.119C284.619 215.738 286.967 216.315 288.109 218.034C288.351 218.383 288.505 218.786 288.558 219.207C288.611 219.629 288.56 220.057 288.41 220.455Z" fill="#F3C262"/>
<path d="M265.897 232.827C265.869 232.821 265.843 232.808 265.821 232.791C265.798 232.774 265.779 232.753 265.765 232.728C265.751 232.704 265.742 232.677 265.739 232.649C265.735 232.621 265.738 232.592 265.746 232.565C269.203 219.576 282.887 217.7 286.082 217.93C286.11 217.931 286.137 217.939 286.163 217.951C286.188 217.964 286.211 217.981 286.229 218.003C286.247 218.024 286.261 218.049 286.27 218.076C286.278 218.103 286.281 218.131 286.278 218.159C286.278 218.187 286.271 218.215 286.259 218.24C286.248 218.265 286.231 218.288 286.21 218.306C286.189 218.325 286.164 218.339 286.138 218.347C286.111 218.356 286.083 218.359 286.055 218.356C282.92 218.133 269.537 219.97 266.152 232.677C266.137 232.73 266.102 232.775 266.054 232.803C266.007 232.831 265.95 232.84 265.897 232.827Z" fill="white"/>
<path d="M281.103 226.247C281.06 226.239 281.021 226.219 280.991 226.188C279.726 225.094 278.236 224.291 276.626 223.837C275.016 223.384 273.326 223.291 271.676 223.564C271.648 223.569 271.62 223.568 271.593 223.561C271.566 223.555 271.54 223.543 271.517 223.527C271.495 223.51 271.475 223.489 271.461 223.465C271.447 223.441 271.437 223.415 271.433 223.387C271.426 223.331 271.441 223.273 271.475 223.228C271.51 223.182 271.56 223.152 271.617 223.144C273.332 222.861 275.089 222.96 276.761 223.434C278.434 223.908 279.981 224.745 281.293 225.886C281.323 225.919 281.342 225.961 281.348 226.005C281.354 226.049 281.346 226.094 281.325 226.134C281.304 226.173 281.272 226.206 281.232 226.226C281.192 226.246 281.147 226.254 281.103 226.247Z" fill="white"/>
<path d="M174.706 160.32V166.88L61.5 232.224L58.0166 234.192C57.2258 233.655 56.5726 232.939 56.1099 232.102C55.6472 231.266 55.388 230.332 55.3533 229.377V119.333C55.3609 119.136 55.4173 118.944 55.5173 118.775C55.6158 118.602 55.7554 118.455 55.924 118.349L81.7245 103.451C82.0394 103.274 83.8762 104.041 84.1779 104.225L84.3747 104.337C84.5453 104.446 84.698 104.581 84.8274 104.737C84.9718 104.895 85.0834 105.08 85.1553 105.281L87.4907 112.025L171.459 61.9983C171.631 61.9184 171.819 61.877 172.01 61.877C172.2 61.877 172.388 61.9184 172.561 61.9983L174.122 62.9036C174.288 63.0078 174.426 63.1522 174.522 63.3234C174.625 63.4939 174.682 63.6884 174.686 63.8876V160.32H174.706Z" fill="#263238"/>
<path d="M174.706 166.853L58.0167 234.192V120.212L84.8274 104.737C84.9719 104.895 85.0834 105.08 85.1554 105.281L87.4908 112.025L87.9369 113.304L174.529 63.3037C174.632 63.4742 174.688 63.6687 174.693 63.8679L174.706 166.853Z" fill="#37474F"/>
<path d="M84.8274 104.737L58.0167 120.212L55.5173 118.775C55.6158 118.602 55.7555 118.455 55.9241 118.349L81.7245 103.451C81.898 103.362 82.0903 103.315 82.2854 103.315C82.4805 103.315 82.6728 103.362 82.8463 103.451L84.3748 104.33C84.5458 104.441 84.6985 104.579 84.8274 104.737Z" fill="#455A64"/>
<path d="M174.535 63.3037L87.9434 113.304L87.4973 112.025L171.465 61.9983C171.638 61.9184 171.826 61.877 172.016 61.877C172.207 61.877 172.395 61.9184 172.567 61.9983L174.129 62.9036C174.295 63.0015 174.435 63.1389 174.535 63.3037Z" fill="#455A64"/>
<path d="M93.867 187.858C93.5069 187.616 93.2092 187.291 92.9983 186.912C92.7874 186.532 92.6693 186.108 92.6534 185.674V77.2634C92.6794 76.8142 92.8119 76.3776 93.04 75.9897C93.2682 75.6019 93.5854 75.2739 93.9654 75.033L158.004 38.1002C158.377 37.8662 158.806 37.7382 159.246 37.7299C159.686 37.7217 160.12 37.8335 160.501 38.0535C160.882 38.2734 161.196 38.5931 161.41 38.9781C161.623 39.3632 161.727 39.799 161.711 40.2388V148.649C161.684 149.098 161.551 149.535 161.323 149.922C161.095 150.31 160.778 150.638 160.399 150.88L96.3664 187.813C95.9829 188.017 95.5566 188.127 95.1222 188.135C94.6879 188.143 94.2578 188.048 93.867 187.858Z" fill="#FAFAFA"/>
<path d="M96.3664 187.813L160.405 150.88C160.784 150.639 161.101 150.31 161.329 149.923C161.557 149.535 161.69 149.099 161.717 148.65V40.2393C161.717 39.4193 161.14 39.0847 160.405 39.4914L96.3599 76.4308C95.9805 76.6725 95.6639 77.0006 95.4358 77.3883C95.2078 77.776 95.0748 78.2122 95.0479 78.6612V187.072C95.0741 187.892 95.6514 188.226 96.3664 187.813Z" fill="#F0F0F0"/>
<path d="M103.379 80.7337L151.739 52.8143C152.363 52.4535 152.874 52.7422 152.874 53.4703V53.923C152.852 54.3169 152.738 54.7 152.541 55.0418C152.343 55.3835 152.069 55.6744 151.739 55.891L103.379 83.8103C102.723 84.1711 102.244 83.8759 102.244 83.1543V82.7017C102.265 82.3076 102.379 81.924 102.576 81.5821C102.774 81.2402 103.049 80.9495 103.379 80.7337Z" fill="#E0E0E0"/>
<path d="M103.379 88.4151L151.739 60.4958C152.363 60.135 152.874 60.4302 152.874 61.1518V61.6044C152.853 61.9985 152.739 62.3821 152.542 62.724C152.345 63.0659 152.07 63.3566 151.739 63.5724L103.379 91.4918C102.723 91.8526 102.244 91.5574 102.244 90.8358V90.3831C102.266 89.9893 102.381 89.6061 102.578 89.2643C102.775 88.9226 103.049 88.6317 103.379 88.4151Z" fill="#E0E0E0"/>
<path d="M103.379 96.0968L151.739 68.1774C152.363 67.8166 152.874 68.1118 152.874 68.8334V69.2861C152.853 69.6802 152.739 70.0637 152.542 70.4057C152.345 70.7476 152.07 71.0382 151.739 71.2541L103.379 99.1734C102.723 99.5408 102.244 99.2456 102.244 98.5174V98.0648C102.266 97.6709 102.381 97.2877 102.578 96.946C102.775 96.6042 103.049 96.3134 103.379 96.0968Z" fill="#E0E0E0"/>
<path d="M103.379 103.779L151.739 75.8661C152.363 75.4987 152.874 75.7939 152.874 76.5221V76.9747C152.851 77.3684 152.737 77.7514 152.54 78.0931C152.343 78.4348 152.069 78.7257 151.739 78.9427L103.379 106.862C102.723 107.223 102.244 106.928 102.244 106.206V105.747C102.267 105.353 102.381 104.97 102.578 104.628C102.776 104.287 103.05 103.996 103.379 103.779Z" fill="#E0E0E0"/>
<path d="M103.379 111.467L151.739 83.5477C152.363 83.1869 152.874 83.4756 152.874 84.2037V84.6564C152.852 85.0503 152.738 85.4334 152.541 85.7752C152.343 86.1169 152.069 86.4078 151.739 86.6244L103.379 114.544C102.723 114.905 102.244 114.609 102.244 113.888V113.435C102.265 113.041 102.379 112.657 102.576 112.316C102.774 111.974 103.049 111.683 103.379 111.467Z" fill="#E0E0E0"/>
<path d="M103.379 119.208L151.739 91.2889C152.363 90.9215 152.874 91.2167 152.874 91.9449V92.3975C152.851 92.7913 152.737 93.1743 152.54 93.516C152.343 93.8576 152.069 94.1486 151.739 94.3655L103.379 122.285C102.723 122.646 102.244 122.351 102.244 121.629V121.176C102.265 120.782 102.379 120.399 102.576 120.057C102.774 119.715 103.049 119.424 103.379 119.208Z" fill="#E0E0E0"/>
<path d="M103.379 126.89L151.739 98.9706C152.363 98.6098 152.874 98.8984 152.874 99.6266V100.079C152.852 100.473 152.738 100.856 152.541 101.198C152.343 101.54 152.069 101.831 151.739 102.047L103.379 129.967C102.723 130.327 102.244 130.032 102.244 129.311V128.858C102.265 128.464 102.379 128.08 102.576 127.738C102.774 127.396 103.049 127.106 103.379 126.89Z" fill="#E0E0E0"/>
<path d="M103.379 134.571L151.739 106.652C152.363 106.291 152.874 106.586 152.874 107.308V107.761C152.853 108.155 152.739 108.538 152.542 108.88C152.345 109.222 152.07 109.513 151.739 109.729L103.379 137.648C102.723 138.009 102.244 137.72 102.244 136.992V136.539C102.266 136.146 102.381 135.762 102.578 135.421C102.775 135.079 103.049 134.788 103.379 134.571Z" fill="#E0E0E0"/>
<path d="M103.379 142.253L151.739 114.334C152.363 113.973 152.874 114.268 152.874 114.99V115.455C152.853 115.85 152.739 116.233 152.542 116.575C152.345 116.917 152.07 117.208 151.739 117.423L103.379 145.343C102.723 145.71 102.244 145.415 102.244 144.687V144.234C102.265 143.838 102.379 143.453 102.576 143.108C102.773 142.764 103.048 142.471 103.379 142.253Z" fill="#E0E0E0"/>
<path d="M103.379 149.941L151.739 122.015C152.363 121.648 152.874 121.943 152.874 122.671V123.124C152.851 123.518 152.737 123.901 152.54 124.243C152.343 124.584 152.069 124.875 151.739 125.092L103.379 153.011C102.723 153.372 102.244 153.077 102.244 152.355V151.903C102.266 151.51 102.381 151.128 102.578 150.787C102.775 150.446 103.049 150.157 103.379 149.941Z" fill="#E0E0E0"/>
<path d="M103.379 157.656L151.739 129.737C152.363 129.376 152.874 129.671 152.874 130.393V130.846C152.852 131.24 152.738 131.623 152.541 131.964C152.343 132.306 152.069 132.597 151.739 132.814L103.379 160.72C102.723 161.081 102.244 160.785 102.244 160.064V159.611C102.267 159.219 102.382 158.838 102.579 158.499C102.776 158.159 103.05 157.871 103.379 157.656Z" fill="#E0E0E0"/>
<path d="M103.379 165.312L151.739 137.392C152.363 137.031 152.874 137.327 152.874 138.048V138.501C152.853 138.895 152.739 139.279 152.542 139.621C152.345 139.962 152.07 140.253 151.739 140.469L103.379 168.388C102.723 168.749 102.244 168.46 102.244 167.732V167.28C102.266 166.886 102.381 166.503 102.578 166.161C102.775 165.819 103.049 165.528 103.379 165.312Z" fill="#E0E0E0"/>
<path d="M103.379 173.02L151.739 145.1C152.363 144.739 152.874 145.035 152.874 145.756V146.215C152.851 146.609 152.737 146.992 152.54 147.334C152.343 147.676 152.069 147.966 151.739 148.183L103.379 176.096C102.723 176.464 102.244 176.168 102.244 175.44V174.988C102.267 174.594 102.381 174.211 102.578 173.869C102.776 173.528 103.05 173.237 103.379 173.02Z" fill="#E0E0E0"/>
<path d="M96.1958 187.898C95.8216 188.097 95.4015 188.193 94.978 188.178C94.5544 188.162 94.1425 188.035 93.7837 187.81C93.425 187.584 93.1321 187.268 92.9348 186.893C92.7375 186.518 92.6427 186.097 92.66 185.674V77.2697C92.6758 76.8208 92.8044 76.3832 93.0339 75.9971L95.4545 77.3944C95.2217 77.777 95.0907 78.2129 95.074 78.6604V187.071C95.074 187.825 95.566 188.167 96.1958 187.898Z" fill="#E0E0E0"/>
<path d="M102.933 193.001C102.573 192.758 102.275 192.434 102.064 192.054C101.853 191.675 101.735 191.251 101.719 190.817V82.406C101.745 81.9568 101.878 81.5202 102.106 81.1323C102.334 80.7445 102.651 80.4165 103.031 80.1756L167.07 43.2428C167.443 43.0088 167.872 42.8807 168.312 42.8725C168.752 42.8643 169.186 42.9761 169.567 43.1961C169.948 43.416 170.262 43.7357 170.475 44.1207C170.689 44.5057 170.793 44.9416 170.776 45.3814V153.792C170.75 154.241 170.617 154.677 170.389 155.065C170.16 155.452 169.844 155.781 169.464 156.022L105.426 192.955C105.043 193.158 104.618 193.268 104.185 193.276C103.752 193.284 103.323 193.19 102.933 193.001Z" fill="#FAFAFA"/>
<path d="M105.432 192.956L169.471 156.023C169.85 155.781 170.167 155.453 170.395 155.065C170.623 154.678 170.756 154.241 170.783 153.792V45.3818C170.783 44.5618 170.206 44.2273 169.471 44.634L105.426 81.5734C105.046 81.8151 104.73 82.1432 104.502 82.5309C104.274 82.9186 104.141 83.3548 104.114 83.8038V192.208C104.14 193.034 104.717 193.369 105.432 192.956Z" fill="#F0F0F0"/>
<path d="M112.445 85.8763L160.805 57.9569C161.461 57.5961 161.94 57.8848 161.94 58.6129V59.0393C161.918 59.4332 161.804 59.8164 161.606 60.1581C161.409 60.4999 161.135 60.7907 160.805 61.0073L112.445 88.9529C111.789 89.3137 111.31 89.0185 111.31 88.2969V87.8443C111.331 87.4502 111.445 87.0666 111.642 86.7247C111.84 86.3828 112.114 86.0921 112.445 85.8763Z" fill="#E0E0E0"/>
<path d="M112.445 93.5577L160.805 65.6384C161.461 65.2776 161.94 65.5728 161.94 66.2944V66.747C161.919 67.1411 161.805 67.5247 161.608 67.8666C161.411 68.2085 161.136 68.4992 160.805 68.715L112.445 96.6344C111.789 96.9952 111.31 96.7065 111.31 95.9784V95.5257C111.332 95.1318 111.447 94.7487 111.644 94.4069C111.841 94.0652 112.115 93.7743 112.445 93.5577Z" fill="#E0E0E0"/>
<path d="M112.445 101.239L160.805 73.32C161.461 72.9592 161.94 73.2544 161.94 73.976V74.4286C161.919 74.8228 161.805 75.2063 161.608 75.5482C161.411 75.8902 161.136 76.1808 160.805 76.3966L112.445 104.303C111.789 104.67 111.31 104.375 111.31 103.647V103.194C111.334 102.803 111.45 102.422 111.647 102.083C111.844 101.743 112.117 101.455 112.445 101.239Z" fill="#E0E0E0"/>
<path d="M112.445 108.928L160.805 81.0086C161.461 80.6413 161.94 80.9365 161.94 81.6646V82.1173C161.917 82.511 161.803 82.894 161.606 83.2357C161.409 83.5774 161.135 83.8683 160.805 84.0853L112.445 112.005C111.789 112.365 111.31 112.07 111.31 111.349V110.896C111.331 110.502 111.445 110.118 111.642 109.776C111.84 109.434 112.114 109.144 112.445 108.928Z" fill="#E0E0E0"/>
<path d="M112.445 116.61L160.805 88.6903C161.461 88.3295 161.94 88.6182 161.94 89.3463V89.799C161.918 90.1928 161.804 90.576 161.606 90.9178C161.409 91.2595 161.135 91.5504 160.805 91.767L112.445 119.686C111.789 120.047 111.31 119.752 111.31 119.03V118.578C111.331 118.184 111.445 117.8 111.642 117.458C111.84 117.116 112.114 116.826 112.445 116.61Z" fill="#E0E0E0"/>
<path d="M112.445 124.351L160.805 96.4315C161.461 96.0641 161.94 96.3593 161.94 97.0875V97.5401C161.917 97.9339 161.803 98.3169 161.606 98.6585C161.409 99.0002 161.135 99.2911 160.805 99.5081L112.445 127.427C111.789 127.788 111.31 127.493 111.31 126.771V126.319C111.331 125.925 111.445 125.541 111.642 125.199C111.84 124.857 112.114 124.567 112.445 124.351Z" fill="#E0E0E0"/>
<path d="M112.445 132.033L160.805 104.113C161.461 103.752 161.94 104.041 161.94 104.769V105.222C161.918 105.616 161.804 105.999 161.606 106.341C161.409 106.682 161.135 106.973 160.805 107.19L112.445 135.135C111.789 135.496 111.31 135.201 111.31 134.479V134.027C111.327 133.628 111.439 133.239 111.637 132.893C111.834 132.546 112.111 132.251 112.445 132.033Z" fill="#E0E0E0"/>
<path d="M112.445 139.728L160.805 111.808C161.461 111.447 161.94 111.743 161.94 112.464V112.917C161.919 113.311 161.805 113.695 161.608 114.037C161.411 114.378 161.136 114.669 160.805 114.885L112.445 142.804C111.789 143.165 111.31 142.876 111.31 142.148V141.696C111.332 141.302 111.447 140.919 111.644 140.577C111.841 140.235 112.115 139.944 112.445 139.728Z" fill="#E0E0E0"/>
<path d="M112.445 147.396L160.805 119.476C161.461 119.115 161.94 119.411 161.94 120.132V120.585C161.919 120.979 161.805 121.363 161.608 121.704C161.411 122.046 161.136 122.337 160.805 122.553L112.445 150.472C111.789 150.84 111.31 150.544 111.31 149.816V149.364C111.333 148.97 111.447 148.587 111.644 148.245C111.841 147.904 112.116 147.613 112.445 147.396Z" fill="#E0E0E0"/>
<path d="M112.445 155.084L160.805 127.165C161.461 126.798 161.94 127.093 161.94 127.821V128.274C161.917 128.667 161.803 129.05 161.606 129.392C161.409 129.734 161.135 130.025 160.805 130.242L112.445 158.161C111.789 158.522 111.31 158.226 111.31 157.505V157.052C111.331 156.658 111.445 156.275 111.642 155.933C111.84 155.591 112.114 155.3 112.445 155.084Z" fill="#E0E0E0"/>
<path d="M112.445 162.799L160.805 134.88C161.461 134.519 161.94 134.814 161.94 135.536V135.988C161.919 136.382 161.805 136.766 161.608 137.108C161.411 137.45 161.136 137.74 160.805 137.956L112.445 165.876C111.789 166.236 111.31 165.941 111.31 165.22V164.767C111.331 164.373 111.445 163.989 111.642 163.647C111.84 163.305 112.114 163.015 112.445 162.799Z" fill="#E0E0E0"/>
<path d="M112.445 170.481L160.805 142.561C161.461 142.2 161.94 142.496 161.94 143.217V143.663C161.919 144.057 161.805 144.441 161.608 144.783C161.411 145.125 161.136 145.415 160.805 145.631L112.445 173.551C111.789 173.911 111.31 173.623 111.31 172.895V172.442C111.333 172.049 111.448 171.667 111.645 171.327C111.842 170.986 112.116 170.697 112.445 170.481Z" fill="#E0E0E0"/>
<path d="M112.445 178.162L160.805 150.223C161.461 149.863 161.94 150.158 161.94 150.879V151.339C161.917 151.732 161.803 152.115 161.606 152.457C161.409 152.799 161.135 153.09 160.805 153.307L112.445 181.219C111.789 181.587 111.31 181.291 111.31 180.563V180.111C111.336 179.72 111.452 179.341 111.649 179.003C111.846 178.665 112.118 178.377 112.445 178.162Z" fill="#E0E0E0"/>
<path d="M105.262 193.04C104.888 193.239 104.467 193.336 104.044 193.32C103.62 193.305 103.208 193.178 102.85 192.952C102.491 192.727 102.198 192.41 102.001 192.035C101.803 191.66 101.709 191.24 101.726 190.816V82.4123C101.742 81.9634 101.87 81.5258 102.1 81.1396L104.52 82.5369C104.288 82.9196 104.157 83.3554 104.14 83.803V192.207C104.14 192.968 104.632 193.309 105.262 193.04Z" fill="#E0E0E0"/>
<path d="M198.538 76.752L179.829 157.768L178.104 165.22C177.532 167.209 176.263 168.925 174.529 170.055L63.5206 234.12C62.7135 234.558 61.8144 234.798 60.8966 234.822C59.8992 234.891 58.9022 234.682 58.0167 234.218L58.5874 231.745L58.6465 231.502L59.2697 228.793L61.9855 217.038L79.1858 142.555C79.2092 142.459 79.2445 142.367 79.2908 142.28C79.3367 142.195 79.3892 142.109 79.4417 142.031V141.991C79.5605 141.831 79.7071 141.693 79.8746 141.584L174.699 86.8544L195.449 74.8758C195.625 74.7854 195.821 74.7383 196.019 74.7383C196.218 74.7383 196.413 74.7854 196.59 74.8758L198.119 75.7549C198.28 75.86 198.407 76.0112 198.482 76.189C198.556 76.3667 198.576 76.5628 198.538 76.752Z" fill="#37474F"/>
<path d="M198.558 76.5617C198.558 76.3321 198.374 76.26 198.119 76.4109L82.5642 143.126C82.3939 143.231 82.2467 143.369 82.1313 143.533L79.4679 141.991C79.5867 141.831 79.7333 141.693 79.9009 141.584L195.449 74.8758C195.625 74.7854 195.821 74.7383 196.019 74.7383C196.218 74.7383 196.413 74.7854 196.59 74.8758L198.119 75.7549C198.252 75.843 198.362 75.9627 198.439 76.1034C198.516 76.2441 198.557 76.4015 198.558 76.5617Z" fill="#455A64"/>
<path d="M82.1313 143.533C82.0563 143.634 81.9904 143.742 81.9345 143.854C81.8995 143.931 81.871 144.01 81.8492 144.091L65.4033 215.319L61.9396 230.328L61.5001 232.224L60.8966 234.848C59.8992 234.918 58.9022 234.709 58.0167 234.245L58.5874 231.771L58.6465 231.529L59.2697 228.819L61.9855 217.064L79.1858 142.582C79.2092 142.486 79.2445 142.393 79.2908 142.306C79.3367 142.221 79.3892 142.136 79.4417 142.057V142.018L82.1313 143.533Z" fill="#263238"/>
<path d="M62.0839 227.343C62.2215 227.422 62.3301 227.543 62.3939 227.688C62.4577 227.833 62.4732 227.995 62.4381 228.15L61.5 232.224L61.008 234.251C60.9683 234.42 60.8703 234.57 60.7312 234.674C60.5921 234.779 60.4207 234.831 60.2471 234.821C59.4595 234.804 58.6878 234.597 57.997 234.218C57.2062 233.681 56.553 232.965 56.0902 232.128C55.6275 231.292 55.3683 230.358 55.3336 229.403V224.732C55.3294 224.601 55.3606 224.47 55.4239 224.355C55.4873 224.239 55.5805 224.143 55.6938 224.076C55.8071 224.009 55.9364 223.974 56.0681 223.974C56.1997 223.974 56.329 224.009 56.4423 224.076L57.6296 224.732C57.7429 224.8 57.8364 224.896 57.9009 225.011C57.9653 225.126 57.9985 225.256 57.997 225.388V227.71C57.9897 227.896 58.0529 228.077 58.1739 228.218C58.2948 228.359 58.4645 228.448 58.6489 228.469C58.8334 228.49 59.0188 228.44 59.168 228.33C59.3172 228.219 59.4192 228.057 59.4533 227.874L59.6501 227.015C59.6767 226.903 59.7291 226.799 59.8031 226.71C59.8771 226.622 59.9707 226.552 60.0764 226.506C60.1821 226.46 60.297 226.44 60.412 226.446C60.5271 226.452 60.639 226.486 60.7391 226.543L62.0839 227.343Z" fill="#263238"/>
<path d="M86.592 210.031L80.2748 206.384L80.2092 206.345C77.0669 204.567 72.757 204.829 67.9879 207.584C63.5205 210.156 59.4599 214.453 56.3832 219.392C52.8343 225.113 50.6039 231.738 50.6039 237.675C50.6039 243.212 52.5719 247.102 55.6748 248.919L62.0904 252.58C65.2589 254.6 69.7328 254.423 74.6922 251.556C84.296 246.013 92.0828 232.532 92.0828 221.439C92.0828 215.719 89.9704 211.744 86.592 210.031Z" fill="#F3C262"/>
<path opacity="0.1" d="M61.9658 252.56L55.6748 248.965C52.5391 247.148 50.6039 243.258 50.6039 237.721C50.6039 231.785 52.8343 225.166 56.3832 219.445L63.0941 223.316C59.5452 229.036 57.3213 235.649 57.3213 241.579C57.3016 246.866 59.0728 250.651 61.9658 252.56Z" fill="#111B23"/>
<path opacity="0.4" d="M86.4608 209.96C83.3645 208.457 79.2448 208.838 74.6922 211.455C70.1395 214.073 66.1642 218.337 63.0744 223.309L56.3635 219.439C59.4336 214.466 63.5074 210.176 67.9682 207.631C72.7373 204.876 77.0472 204.613 80.1894 206.384L80.255 206.424L86.4608 209.96Z" fill="white"/>
<path d="M77.0932 233.32V239.44C77.0932 239.752 77.0214 240.059 76.8833 240.339C76.7877 240.605 76.611 240.834 76.3781 240.995L73.026 242.93C72.9511 242.985 72.8588 243.012 72.7661 243.005C72.6733 242.997 72.5863 242.957 72.5209 242.891C72.4441 242.801 72.3861 242.696 72.35 242.584C72.314 242.471 72.3007 242.353 72.3109 242.235V236.141L68.1847 238.515C68.1111 238.573 68.019 238.601 67.9259 238.595C67.8328 238.589 67.7451 238.549 67.6796 238.482C67.6029 238.392 67.5448 238.288 67.5088 238.175C67.4727 238.063 67.4594 237.944 67.4697 237.826V233.694C67.4735 233.38 67.5451 233.071 67.6796 232.788C67.7851 232.538 67.9605 232.324 68.1847 232.172L72.3109 229.79V223.696C72.3148 223.383 72.3864 223.074 72.5209 222.791C72.6241 222.54 72.8 222.325 73.026 222.174L76.3781 220.206C76.4527 220.151 76.5443 220.125 76.6367 220.131C76.729 220.137 76.8164 220.175 76.8833 220.239C76.9606 220.329 77.0191 220.433 77.0551 220.546C77.0912 220.658 77.1041 220.777 77.0932 220.895V226.976L81.1932 224.615C81.2667 224.557 81.3588 224.529 81.452 224.535C81.5451 224.541 81.6328 224.581 81.6983 224.647C81.775 224.737 81.8331 224.842 81.8691 224.954C81.9051 225.067 81.9184 225.186 81.9082 225.303V229.436C81.9044 229.75 81.8328 230.058 81.6983 230.341C81.5927 230.591 81.4173 230.805 81.1932 230.958L77.0932 233.32Z" fill="white"/>
<path d="M245.711 138.54L238.043 138.324C237.531 137.884 229.482 128.799 229.482 128.799C229.482 128.799 226.582 133.391 226.536 133.66C226.491 133.929 234.408 142.444 235.215 143.303C235.437 143.588 235.72 143.819 236.044 143.978C236.368 144.137 236.724 144.22 237.085 144.221C239.164 144.346 246.925 144.877 246.925 144.877L245.711 138.54Z" fill="#B16668"/>
<path d="M163.862 253.681C163.504 253.437 163.208 253.113 162.998 252.733C162.788 252.353 162.671 251.93 162.655 251.497V149.567C162.682 149.118 162.815 148.682 163.043 148.294C163.271 147.907 163.588 147.579 163.967 147.337L228.006 110.398C228.39 110.196 228.816 110.088 229.25 110.08C229.684 110.072 230.114 110.165 230.505 110.352C230.865 110.596 231.161 110.922 231.371 111.303C231.581 111.683 231.698 112.108 231.712 112.543V214.465C231.686 214.916 231.554 215.353 231.326 215.742C231.098 216.131 230.78 216.46 230.4 216.702L166.362 253.635C165.978 253.838 165.551 253.948 165.117 253.956C164.683 253.964 164.253 253.87 163.862 253.681Z" fill="#F3C262"/>
<path opacity="0.15" d="M166.001 253.78L166.132 253.741C166.105 253.76 166.073 253.774 166.04 253.78C165.963 253.811 165.884 253.837 165.804 253.859H165.673C165.575 253.88 165.477 253.896 165.378 253.905C165.264 253.911 165.15 253.911 165.036 253.905C164.628 253.914 164.224 253.819 163.862 253.629C163.599 253.46 163.375 253.236 163.206 252.973C162.879 252.526 162.694 251.991 162.675 251.438V149.568C162.674 149.345 162.707 149.124 162.773 148.912C162.806 148.802 162.845 148.695 162.891 148.59C162.937 148.482 162.99 148.377 163.049 148.275L165.463 149.673L165.404 149.771C165.207 150.13 165.097 150.53 165.082 150.939V252.894C165.081 253.025 165.099 253.155 165.135 253.281C165.177 253.434 165.264 253.571 165.384 253.675C165.463 253.733 165.552 253.776 165.647 253.8H165.797C165.856 253.809 165.916 253.809 165.975 253.8C165.985 253.796 165.995 253.789 166.001 253.78Z" fill="#111B23"/>
<path opacity="0.3" d="M231.666 112.267C231.561 111.611 231.01 111.395 230.4 111.762L166.355 148.695C165.977 148.937 165.664 149.268 165.443 149.659L163.029 148.256C163.244 147.862 163.558 147.532 163.941 147.298L227.98 110.359C228.364 110.157 228.79 110.048 229.224 110.041C229.658 110.033 230.087 110.126 230.479 110.313C230.806 110.534 231.081 110.823 231.286 111.161C231.491 111.498 231.62 111.875 231.666 112.267Z" fill="white"/>
<path d="M173.381 153.005L221.728 125.086C222.384 124.718 222.863 125.014 222.863 125.742V126.194C222.841 126.588 222.727 126.972 222.53 127.314C222.333 127.655 222.058 127.946 221.728 128.162L173.368 156.082C172.712 156.443 172.233 156.147 172.233 155.426V154.973C172.255 154.578 172.371 154.193 172.57 153.851C172.77 153.509 173.048 153.219 173.381 153.005Z" fill="#FAFAFA"/>
<path d="M173.381 162.405L221.728 134.479C222.384 134.112 222.863 134.407 222.863 135.135V135.588C222.842 135.982 222.728 136.366 222.531 136.708C222.334 137.05 222.059 137.341 221.728 137.556L173.368 165.475C172.712 165.836 172.233 165.541 172.233 164.819V164.367C172.256 163.972 172.372 163.589 172.572 163.248C172.771 162.907 173.048 162.619 173.381 162.405Z" fill="#FAFAFA"/>
<path d="M173.381 171.806L221.728 143.887C222.384 143.526 222.863 143.814 222.863 144.543V144.976C222.842 145.37 222.728 145.754 222.531 146.096C222.334 146.438 222.059 146.728 221.728 146.944L173.368 174.863C172.712 175.224 172.233 174.929 172.233 174.207V173.754C172.258 173.362 172.375 172.982 172.575 172.643C172.774 172.305 173.05 172.018 173.381 171.806Z" fill="#FAFAFA"/>
<path d="M173.381 181.206L221.728 153.287C222.384 152.926 222.863 153.215 222.863 153.943V154.396C222.842 154.79 222.728 155.174 222.531 155.516C222.334 155.858 222.059 156.148 221.728 156.364L173.368 184.283C172.712 184.644 172.233 184.349 172.233 183.627V183.174C172.255 182.779 172.371 182.394 172.57 182.052C172.77 181.71 173.048 181.42 173.381 181.206Z" fill="#FAFAFA"/>
<path d="M173.381 190.607L221.728 162.687C222.384 162.327 222.863 162.615 222.863 163.343V163.796C222.842 164.19 222.728 164.574 222.531 164.916C222.334 165.258 222.059 165.549 221.728 165.764L173.368 193.683C172.712 194.044 172.233 193.749 172.233 193.027V192.575C172.255 192.179 172.371 191.795 172.57 191.453C172.77 191.111 173.048 190.821 173.381 190.607Z" fill="#FAFAFA"/>
<path d="M173.381 200.007L221.728 172.088C222.384 171.727 222.863 172.016 222.863 172.744V173.183C222.842 173.578 222.728 173.961 222.531 174.303C222.334 174.645 222.059 174.936 221.728 175.151L173.368 203.071C172.712 203.431 172.233 203.136 172.233 202.415V201.962C172.257 201.569 172.374 201.187 172.573 200.847C172.773 200.508 173.049 200.22 173.381 200.007Z" fill="#FAFAFA"/>
<path d="M173.381 209.408L221.728 181.488C222.384 181.127 222.863 181.416 222.863 182.144V182.597C222.842 182.991 222.728 183.375 222.531 183.717C222.334 184.059 222.059 184.349 221.728 184.565L173.368 212.484C172.712 212.845 172.233 212.55 172.233 211.828V211.376C172.255 210.98 172.371 210.596 172.57 210.254C172.77 209.911 173.048 209.622 173.381 209.408Z" fill="#FAFAFA"/>
<path d="M173.381 218.808L221.728 190.895C222.384 190.534 222.863 190.83 222.863 191.551V192.004C222.842 192.398 222.728 192.782 222.531 193.124C222.334 193.466 222.059 193.756 221.728 193.972L173.368 221.891C172.712 222.252 172.233 221.957 172.233 221.235V220.783C172.254 220.386 172.369 220 172.569 219.657C172.768 219.314 173.047 219.023 173.381 218.808Z" fill="#FAFAFA"/>
<path d="M173.381 228.209L221.728 200.29C222.384 199.929 222.863 200.224 222.863 200.946V201.392C222.843 201.786 222.729 202.17 222.532 202.512C222.335 202.854 222.059 203.145 221.728 203.36L173.368 231.279C172.712 231.64 172.233 231.345 172.233 230.623V230.171C172.256 229.776 172.372 229.393 172.572 229.052C172.771 228.711 173.048 228.422 173.381 228.209Z" fill="#FAFAFA"/>
<path d="M173.381 237.609L221.728 209.69C222.384 209.329 222.863 209.625 222.863 210.346V210.799C222.843 211.193 222.729 211.577 222.532 211.919C222.335 212.261 222.059 212.552 221.728 212.767L173.374 240.686C172.718 241.047 172.239 240.752 172.239 240.03V239.577C172.261 239.183 172.376 238.799 172.574 238.457C172.773 238.115 173.049 237.825 173.381 237.609Z" fill="#FAFAFA"/>
<path d="M247.135 137.209H256.24C259.361 137.209 262.355 135.969 264.562 133.762C266.769 131.555 268.009 128.561 268.009 125.44C268.009 122.672 266.909 120.017 264.952 118.06C262.995 116.103 260.34 115.003 257.572 115.003C254.804 115.003 252.149 116.103 250.192 118.06C248.234 120.017 247.135 122.672 247.135 125.44V137.209Z" fill="#263238"/>
<path d="M265.68 119.116L268.206 117.758C268.127 117.586 268.015 117.432 267.875 117.305C267.735 117.178 267.571 117.081 267.392 117.02C267.213 116.958 267.024 116.934 266.836 116.948C266.648 116.962 266.464 117.015 266.297 117.102C265.95 117.29 265.692 117.606 265.576 117.983C265.461 118.36 265.498 118.767 265.68 119.116Z" fill="#263238"/>
<path d="M265.503 119.391L268.192 120.395C268.267 120.222 268.305 120.035 268.305 119.847C268.306 119.659 268.268 119.472 268.195 119.299C268.121 119.125 268.013 118.969 267.878 118.838C267.742 118.707 267.581 118.605 267.405 118.538C267.039 118.41 266.638 118.427 266.284 118.586C265.93 118.744 265.651 119.033 265.503 119.391Z" fill="#263238"/>
<path d="M256.496 145.888L243.816 145.343C242.72 143.802 242.72 139.728 243.875 138.416L257.906 138.796L256.496 145.888Z" fill="#F3C262"/>
<path d="M248.788 224.555C248.866 225.403 248.901 226.255 248.893 227.107V232.099H253.216V229.173C253.218 227.854 253.328 226.538 253.544 225.237L248.788 224.555Z" fill="#B16668"/>
<path d="M248.886 229.961V229.337C248.768 230.282 246.066 233.837 244.347 235.405C242.976 236.658 241.106 238.101 240.627 239.499C240.148 240.896 242.838 241.519 244.609 241.342C246.33 241.129 247.914 240.299 249.07 239.007C249.786 238.106 250.429 237.15 250.992 236.147C251.517 235.438 253.879 233.982 254.167 233.155C254.249 232.387 254.164 231.611 253.918 230.879C253.715 230.111 253.498 229.265 253.262 229.337V229.81C252.643 230.295 251.877 230.554 251.091 230.544C250.428 230.571 248.886 230.446 248.886 229.961Z" fill="#263238"/>
<path d="M253.216 229.809C252.597 230.294 251.831 230.554 251.045 230.544C250.389 230.544 248.867 230.446 248.867 229.96V229.337C248.749 230.282 246.046 233.837 244.327 235.405C243.999 235.707 243.638 236.015 243.278 236.336C242.549 237.15 242.759 237.858 244.472 238.003C246.184 238.147 247.692 237.117 248.991 235.523C250.29 233.929 253.216 229.809 253.216 229.809Z" fill="#B16668"/>
<path d="M262.059 231.915C262.144 232.965 262.144 234.06 262.164 234.539V239.531H266.507V236.605C266.506 235.287 266.614 233.97 266.828 232.669L262.059 231.915Z" fill="#B16668"/>
<path d="M262.157 237.386V236.763C262.033 237.708 259.336 241.263 257.611 242.831C256.24 244.084 254.371 245.527 253.898 246.918C253.426 248.309 256.102 248.945 257.88 248.768C259.599 248.555 261.181 247.725 262.334 246.433C263.052 245.532 263.697 244.576 264.263 243.572C264.788 242.864 267.149 241.408 267.432 240.581C267.52 239.813 267.435 239.035 267.182 238.305C266.985 237.537 266.762 236.691 266.526 236.763V237.235C265.907 237.721 265.141 237.98 264.355 237.97C263.712 237.996 262.151 237.872 262.157 237.386Z" fill="#263238"/>
<path d="M266.5 237.235C265.881 237.72 265.115 237.979 264.329 237.97C263.673 237.97 262.151 237.871 262.157 237.386V236.763C262.033 237.707 259.336 241.263 257.611 242.831C257.283 243.132 256.955 243.441 256.568 243.762C255.84 244.576 256.05 245.284 257.762 245.428C259.474 245.573 260.976 244.543 262.275 242.949C263.574 241.355 266.5 237.235 266.5 237.235Z" fill="#B16668"/>
<path d="M248.788 226.615C247.856 218.96 246.335 205.722 245.888 202.829C245.475 200.152 246.512 177.245 247.148 169.95L269.78 168.736C271.499 176.11 269.819 186.055 269.235 192.267C268.658 198.309 267.923 205.387 267.923 205.387C267.923 205.387 269.688 211.547 269.235 216.447C268.934 219.537 267.55 228.859 266.894 232.847C266.122 233.238 265.267 233.437 264.403 233.425C263.538 233.414 262.689 233.193 261.928 232.782C262 233.628 261.121 222.456 260.616 217.943C259.894 211.678 259.619 207.112 258.976 203.452C258.169 198.86 257.893 181.004 257.893 181.004L255.269 201.294C255.553 203.469 255.691 205.66 255.683 207.854C255.683 212.387 254.01 222.686 253.485 226.536C252.35 227.343 250.041 227.586 248.788 226.615Z" fill="#455A64"/>
<path d="M257.887 180.99C257.887 180.99 253.747 179.54 251.392 177.375C252.577 179.218 254.257 180.689 256.24 181.619L256.28 193.493L257.887 180.99Z" fill="#37474F"/>
<path d="M261.18 138.901C261.18 138.901 267.327 139.609 268.061 139.937C264.315 144.037 268.304 147.435 268.304 147.435L265.45 159.991C267.91 163.134 269.314 165.561 269.905 169.306C267.281 173.951 252.475 174.594 247.05 171.137C247.522 164.662 248.578 160.024 248.224 158.076C245.646 150.125 246.446 148.459 246.689 146.642C247.161 143.093 250.684 140.003 252.698 138.704H254.574L261.18 138.901Z" fill="#F0F0F0"/>
<path d="M250.592 120.113C249.49 120.769 248.125 123.538 248.263 129.35C248.375 134.276 249.975 135.49 250.776 135.844C251.576 136.198 253.124 135.982 254.626 135.726V138.685C254.626 138.685 252.547 141.099 252.658 142.457C252.77 143.815 255.656 144.129 257.605 142.804C259.01 141.714 260.221 140.395 261.186 138.901L261.154 132.105C261.154 132.105 262.033 132.964 263.535 131.652C264.775 130.57 265.188 128.74 264.191 127.762C263.942 127.529 263.642 127.358 263.315 127.263C262.988 127.168 262.643 127.152 262.308 127.216C261.974 127.28 261.659 127.422 261.39 127.631C261.121 127.84 260.905 128.11 260.76 128.418C260.76 128.418 259.927 126.103 256.463 124.968C253.36 123.984 251.661 122.796 250.592 120.113Z" fill="#B16668"/>
<path d="M254.069 128.11C254.068 128.273 254.127 128.429 254.235 128.55C254.342 128.672 254.491 128.749 254.653 128.766C254.82 128.767 254.981 128.703 255.103 128.588C255.225 128.474 255.299 128.317 255.309 128.15C255.321 128.064 255.314 127.977 255.291 127.893C255.267 127.81 255.226 127.732 255.171 127.666C255.116 127.599 255.047 127.545 254.97 127.506C254.892 127.467 254.807 127.445 254.721 127.441C254.634 127.437 254.548 127.451 254.467 127.482C254.386 127.513 254.313 127.561 254.252 127.622C254.19 127.683 254.142 127.756 254.111 127.837C254.079 127.918 254.065 128.004 254.069 128.091V128.11Z" fill="#263238"/>
<path d="M253.905 132.289L252.468 132.748C252.494 132.844 252.538 132.934 252.6 133.012C252.661 133.091 252.737 133.156 252.824 133.203C252.912 133.251 253.007 133.281 253.106 133.291C253.205 133.3 253.305 133.29 253.4 133.26C253.593 133.195 253.754 133.058 253.849 132.877C253.943 132.695 253.963 132.485 253.905 132.289Z" fill="#9A4A4D"/>
<path d="M248.991 126.207L250.244 125.342C250.192 125.257 250.123 125.184 250.041 125.127C249.959 125.07 249.867 125.03 249.769 125.009C249.672 124.989 249.571 124.989 249.473 125.009C249.376 125.029 249.283 125.068 249.201 125.125C249.035 125.245 248.922 125.424 248.883 125.625C248.844 125.826 248.882 126.034 248.991 126.207Z" fill="#263238"/>
<path d="M255.873 126.666L254.62 125.801C254.672 125.716 254.741 125.643 254.823 125.586C254.905 125.529 254.997 125.489 255.095 125.468C255.192 125.448 255.293 125.448 255.391 125.468C255.488 125.488 255.581 125.527 255.663 125.584C255.829 125.704 255.942 125.883 255.981 126.084C256.02 126.285 255.982 126.493 255.873 126.666Z" fill="#263238"/>
<path d="M249.28 127.663C249.279 127.826 249.338 127.982 249.446 128.103C249.554 128.225 249.703 128.302 249.864 128.319C250.03 128.32 250.19 128.257 250.312 128.144C250.434 128.03 250.508 127.875 250.52 127.709C250.532 127.623 250.526 127.536 250.502 127.453C250.478 127.37 250.438 127.292 250.382 127.225C250.327 127.159 250.258 127.104 250.181 127.066C250.103 127.027 250.019 127.005 249.932 127.001C249.846 126.997 249.759 127.011 249.678 127.042C249.598 127.073 249.524 127.12 249.463 127.182C249.401 127.243 249.354 127.316 249.322 127.397C249.291 127.477 249.276 127.564 249.28 127.65V127.663Z" fill="#263238"/>
<path d="M252.199 127.31L252.101 131.036L250.139 130.432L252.199 127.31Z" fill="#9A4A4D"/>
<path d="M254.6 135.726C256.181 135.523 259.441 134.585 259.953 133.299C259.748 133.95 259.347 134.523 258.805 134.939C257.834 135.772 254.6 136.717 254.6 136.717V135.726Z" fill="#9A4A4D"/>
<path d="M266.723 154.383L261.482 162.038L265.45 159.992L266.723 154.383Z" fill="#E0E0E0"/>
<path d="M264.296 141.611L251.996 154.331C251.996 154.331 239.919 153.143 235.819 151.969C234.507 151.595 233.483 149.824 233.195 148.335C233.158 147.944 233 147.575 232.742 147.28C232.484 146.984 232.14 146.777 231.758 146.688V149.673C231.653 150.427 231.286 150.814 230.21 150.841C226.064 150.933 224.142 149.673 223.65 151.923C223.329 153.36 223.952 154.993 226.687 155.748C230.531 156.797 232.657 156.272 234.992 156.856C236.796 157.302 249.385 159.697 251.858 160.235C253.17 160.523 254.161 160.431 255.584 159.028C257.008 157.624 267.648 147.653 267.648 147.653C270.928 144.373 269.957 141.007 268.133 140.004C266.992 139.38 265.746 140.115 264.296 141.611Z" fill="#B16668"/>
<path d="M268.061 139.938C268.855 140.259 269.826 141.106 269.905 143.297C269.983 145.488 268.363 147.482 266.454 149.765C264.545 152.048 263.968 152.651 263.968 152.651C263.968 152.651 259.14 150.893 258.32 147.305C258.32 147.305 261.96 143.447 263.049 142.214C264.138 140.981 266.146 139.072 268.061 139.938Z" fill="#F3C262"/>
<path d="M243.133 56.9273L247.692 59.5513C247.666 59.3512 247.653 59.1496 247.653 58.9478V57.6358C247.653 55.2873 249.306 54.3558 251.34 55.5103C252.214 56.0499 252.964 56.7701 253.537 57.6226C253.872 54.6641 256.161 53.5686 259.008 55.1889C262.052 56.9535 264.525 61.2306 264.525 64.7468V66.7148C264.546 67.5041 264.384 68.2874 264.053 69.0042L267.845 71.1887C268.439 71.5778 268.934 72.101 269.29 72.7163C269.645 73.3315 269.851 74.0217 269.892 74.7311C269.892 76.0431 268.973 76.5679 267.845 75.9119L243.133 61.6636C242.538 61.2757 242.042 60.7527 241.686 60.1372C241.331 59.5217 241.125 58.831 241.087 58.1212C241.087 56.8026 242.005 56.2713 243.133 56.9273Z" fill="#EBEBEB"/>
<path d="M223.617 70.1915L227.055 72.1595C227.055 72.002 227.055 71.8511 227.055 71.7003V70.7031C227.055 68.9319 228.301 68.2103 229.836 69.1025C230.499 69.5061 231.066 70.0502 231.496 70.6966C231.745 68.4662 233.464 67.6331 235.622 68.8598C236.836 69.649 237.846 70.7141 238.57 71.9682C239.294 73.2223 239.711 74.6298 239.788 76.0758V77.5649C239.802 78.1616 239.681 78.7538 239.433 79.2967L242.294 80.9433C242.743 81.2371 243.116 81.6325 243.384 82.0975C243.652 82.5624 243.806 83.084 243.835 83.6198C243.835 84.6038 243.146 85.0039 242.294 84.5119L223.643 73.7404C223.194 73.4484 222.819 73.0544 222.55 72.5906C222.281 72.1267 222.125 71.6059 222.095 71.0705C222.069 70.1193 222.764 69.7191 223.617 70.1915Z" fill="#EBEBEB"/>
</svg>
