<svg width="339" height="339" viewBox="0 0 339 339" fill="none" xmlns="http://www.w3.org/2000/svg">
<path d="M339 259.266H0V259.435H339V259.266Z" fill="#EBEBEB"/>
<path d="M88.3913 265.721H35.5684V265.89H88.3913V265.721Z" fill="#EBEBEB"/>
<path d="M305.032 270.881H279.336V271.05H305.032V270.881Z" fill="#EBEBEB"/>
<path d="M102.08 272.02H89.0693V272.189H102.08V272.02Z" fill="#EBEBEB"/>
<path d="M166.354 263.883H137.071V264.052H166.354V263.883Z" fill="#EBEBEB"/>
<path d="M176.68 263.883H172.389V264.052H176.68V263.883Z" fill="#EBEBEB"/>
<path d="M251.463 268.02H222.16V268.189H251.463V268.02Z" fill="#EBEBEB"/>
<path d="M160.686 229.027H29.7709C28.7453 229.026 27.7623 228.617 27.0378 227.891C26.3132 227.165 25.9062 226.182 25.9063 225.156V41.1265C25.9152 40.1068 26.3261 39.1319 27.0497 38.4133C27.7733 37.6948 28.7511 37.2908 29.7709 37.2891H160.686C161.713 37.2891 162.697 37.6969 163.423 38.423C164.149 39.149 164.557 40.1337 164.557 41.1604V225.156C164.557 226.183 164.149 227.168 163.423 227.894C162.697 228.62 161.713 229.027 160.686 229.027ZM29.7709 37.4247C28.7902 37.4265 27.8504 37.8173 27.1576 38.5113C26.4648 39.2054 26.0757 40.1459 26.0758 41.1265V225.156C26.0757 226.137 26.4648 227.077 27.1576 227.771C27.8504 228.465 28.7902 228.856 29.7709 228.858H160.686C161.667 228.856 162.608 228.466 163.302 227.772C163.995 227.078 164.386 226.137 164.388 225.156V41.1265C164.386 40.1453 163.995 39.2047 163.302 38.5109C162.608 37.817 161.667 37.4265 160.686 37.4247H29.7709Z" fill="#EBEBEB"/>
<path d="M307.344 229.027H176.422C175.396 229.026 174.412 228.617 173.687 227.892C172.961 227.166 172.553 226.182 172.551 225.156V41.1265C172.561 40.1062 172.974 39.1312 173.699 38.4129C174.423 37.6946 175.402 37.2908 176.422 37.2891H307.344C308.363 37.2926 309.339 37.6974 310.061 38.4157C310.783 39.134 311.193 40.108 311.202 41.1265V225.156C311.202 226.18 310.796 227.163 310.073 227.889C309.35 228.614 308.368 229.024 307.344 229.027ZM176.422 37.4247C175.441 37.4265 174.5 37.817 173.807 38.5109C173.113 39.2047 172.722 40.1453 172.72 41.1265V225.156C172.722 226.137 173.113 227.078 173.807 227.772C174.5 228.466 175.441 228.856 176.422 228.858H307.344C308.325 228.856 309.266 228.466 309.96 227.772C310.653 227.078 311.044 226.137 311.046 225.156V41.1265C311.044 40.1453 310.653 39.2047 309.96 38.5109C309.266 37.817 308.325 37.4265 307.344 37.4247H176.422Z" fill="#EBEBEB"/>
<path d="M90.0855 243.767H56.7685C56.0501 243.767 55.356 243.507 54.8131 243.037C54.2703 242.566 53.9151 241.916 53.8125 241.205L45.4731 184.205C45.4107 183.78 45.4407 183.346 45.561 182.934C45.6814 182.521 45.8892 182.14 46.1704 181.815C46.4516 181.49 46.7995 181.229 47.1905 181.051C47.5814 180.873 48.0062 180.781 48.4359 180.781H81.7461C82.4639 180.78 83.1579 181.038 83.7009 181.508C84.2439 181.977 84.5994 182.627 84.7021 183.337L93.0415 240.344C93.1038 240.768 93.074 241.201 92.954 241.613C92.8341 242.025 92.6268 242.407 92.3464 242.731C92.066 243.056 91.7189 243.317 91.3288 243.496C90.9386 243.674 90.5146 243.767 90.0855 243.767Z" fill="#F0F0F0"/>
<path d="M60.7356 243.767H45.0264C44.3075 243.768 43.6126 243.509 43.0695 243.038C42.5264 242.567 42.1716 241.916 42.0703 241.205L33.7309 184.205C33.6686 183.781 33.6984 183.348 33.8184 182.936C33.9383 182.523 34.1456 182.142 34.426 181.817C34.7065 181.492 35.0535 181.232 35.4437 181.053C35.8338 180.874 36.2578 180.782 36.687 180.781H52.3962C53.1144 180.782 53.8086 181.04 54.3524 181.509C54.8962 181.978 55.2535 182.627 55.3591 183.337L63.6917 240.344C63.754 240.768 63.7241 241.201 63.6042 241.613C63.4842 242.025 63.277 242.407 62.9966 242.731C62.7161 243.056 62.369 243.317 61.9789 243.496C61.5888 243.674 61.1647 243.767 60.7356 243.767Z" fill="#FAFAFA"/>
<path d="M259.552 166.332H97.6325C93.517 166.332 89.9033 169.417 89.5507 173.221L85.4827 217.229C85.1301 221.033 88.1947 224.118 92.2627 224.118H254.169C258.285 224.118 261.898 221.033 262.251 217.229L266.319 173.221C266.712 169.417 263.668 166.332 259.552 166.332Z" fill="#E0E0E0"/>
<path d="M248.562 166.332H86.6559C82.5404 166.332 78.9267 169.417 78.5741 173.221L74.5061 217.229C74.1536 221.033 77.2181 224.118 81.2861 224.118H243.193C247.308 224.118 250.928 221.033 251.274 217.229L255.342 173.221C255.722 169.417 252.678 166.332 248.562 166.332Z" fill="#E6E6E6"/>
<path d="M136.956 238.892V223.217C136.956 220.524 134.774 218.342 132.081 218.342H71.0951C68.4028 218.342 66.2203 220.524 66.2203 223.217V238.892C66.2203 241.584 68.4028 243.767 71.0951 243.767H132.081C134.774 243.767 136.956 241.584 136.956 238.892Z" fill="#EBEBEB"/>
<path d="M234.493 239.306V222.803C234.493 220.339 232.496 218.342 230.032 218.342H158.855C156.392 218.342 154.394 220.339 154.394 222.803V239.306C154.394 241.769 156.392 243.767 158.855 243.767H230.032C232.496 243.767 234.493 241.769 234.493 239.306Z" fill="#E0E0E0"/>
<path d="M217.049 239.3V222.797C217.049 220.333 215.051 218.336 212.588 218.336H141.411C138.947 218.336 136.95 220.333 136.95 222.797V239.3C136.95 241.764 138.947 243.761 141.411 243.761H212.588C215.051 243.761 217.049 241.764 217.049 239.3Z" fill="#EBEBEB"/>
<path d="M259.111 243.768H234.33C233.913 243.777 233.499 243.686 233.125 243.502C232.75 243.319 232.425 243.048 232.177 242.712C231.929 242.376 231.766 241.986 231.7 241.574C231.635 241.162 231.669 240.74 231.801 240.344L247.395 183.338C247.599 182.617 248.029 181.981 248.62 181.521C249.212 181.061 249.934 180.802 250.683 180.782H275.464C275.881 180.774 276.293 180.865 276.667 181.05C277.04 181.234 277.365 181.505 277.612 181.841C277.859 182.176 278.022 182.566 278.087 182.978C278.152 183.389 278.118 183.81 277.986 184.206L262.392 241.205C262.191 241.927 261.764 242.565 261.173 243.027C260.583 243.488 259.86 243.748 259.111 243.768Z" fill="#F0F0F0"/>
<path d="M238.29 243.768H222.581C222.164 243.776 221.752 243.684 221.378 243.5C221.004 243.316 220.68 243.045 220.433 242.709C220.186 242.374 220.023 241.984 219.958 241.572C219.893 241.161 219.927 240.74 220.059 240.344L235.653 183.338C235.856 182.617 236.285 181.98 236.877 181.52C237.469 181.06 238.192 180.801 238.941 180.782H254.657C255.074 180.773 255.487 180.864 255.862 181.047C256.237 181.231 256.562 181.502 256.809 181.838C257.057 182.174 257.221 182.564 257.286 182.976C257.352 183.388 257.317 183.81 257.186 184.206L241.592 241.205C241.388 241.929 240.957 242.569 240.363 243.03C239.768 243.491 239.042 243.75 238.29 243.768Z" fill="#FAFAFA"/>
<path d="M225.151 259.267H222.764L217.049 243.768H222.961L225.151 259.267Z" fill="#E0E0E0"/>
<path d="M255.403 259.267H253.016L247.301 243.768H253.206L255.403 259.267Z" fill="#E0E0E0"/>
<path d="M83.4414 259.267H85.828L91.5367 243.768H85.6313L83.4414 259.267Z" fill="#E0E0E0"/>
<path d="M53.1895 259.267H55.576L61.2848 243.768H55.3862L53.1895 259.267Z" fill="#E0E0E0"/>
<path d="M259.897 66.2188H79.1016V130.703H259.897V66.2188Z" fill="#E0E0E0"/>
<path d="M258.237 66.2188H77.4414V130.703H258.237V66.2188Z" fill="#F0F0F0"/>
<path d="M252.819 125.279V71.6426L82.8719 71.6426V125.279H252.819Z" fill="#FAFAFA"/>
<path d="M167.846 114.541C176.728 114.541 183.928 107.341 183.928 98.4591C183.928 89.5772 176.728 82.377 167.846 82.377C158.964 82.377 151.764 89.5772 151.764 98.4591C151.764 107.341 158.964 114.541 167.846 114.541Z" fill="#F0F0F0"/>
<path d="M110.453 125.279L121.721 71.6426H146.577L135.315 125.279H110.453Z" fill="white"/>
<path d="M145.804 125.279L157.072 71.6426H169.5L158.238 125.279H145.804Z" fill="white"/>
<path d="M221.699 125.279L232.968 71.6426H245.395L234.134 125.279H221.699Z" fill="white"/>
<path d="M299.866 170.691C295.648 188.997 305.968 207.859 301.744 226.138L297.567 225.962L293.391 225.792C300.394 207.622 292.896 188.855 299.866 170.691Z" fill="#F0F0F0"/>
<path d="M289.052 178.617C292.51 196.096 281.418 213.575 284.876 231.054H293.236C286.991 213.568 295.297 196.096 289.052 178.617Z" fill="#F0F0F0"/>
<path d="M296.774 164.074C291.242 182.712 301.52 202.829 295.988 221.467L291.445 221.04L286.902 220.619C295.465 202.273 288.211 182.441 296.774 164.074Z" fill="#E6E6E6"/>
<path d="M304.917 190.93C306.701 201.005 296.781 208.931 298.537 219.012L301.927 219.629L305.317 220.246C301.249 209.758 308.945 201.418 304.917 190.93Z" fill="#E6E6E6"/>
<path d="M294.944 264.352C307.544 264.352 317.758 252.914 317.758 238.805C317.758 224.696 307.544 213.258 294.944 213.258C282.343 213.258 272.129 224.696 272.129 238.805C272.129 252.914 282.343 264.352 294.944 264.352Z" fill="#E0E0E0"/>
<path d="M169.5 289.885C242.102 289.885 300.958 286.449 300.958 282.21C300.958 277.971 242.102 274.535 169.5 274.535C96.8985 274.535 38.043 277.971 38.043 282.21C38.043 286.449 96.8985 289.885 169.5 289.885Z" fill="#F5F5F5"/>
<path d="M260.217 186.172H113.701C113.331 186.172 112.965 186.097 112.626 185.951C112.286 185.805 111.98 185.591 111.726 185.323C111.472 185.054 111.276 184.737 111.149 184.389C111.022 184.042 110.968 183.673 110.989 183.304L115.938 93.4754C115.991 92.7041 116.332 91.9809 116.894 91.4495C117.455 90.9182 118.196 90.6175 118.969 90.6074H265.485C265.854 90.6068 266.22 90.6818 266.56 90.8277C266.9 90.9736 267.206 91.1875 267.46 91.4561C267.714 91.7246 267.91 92.0423 268.037 92.3896C268.164 92.7368 268.218 93.1063 268.197 93.4754L263.261 183.304C263.211 184.078 262.869 184.805 262.304 185.338C261.739 185.87 260.993 186.168 260.217 186.172Z" fill="#263238"/>
<path d="M198.58 105.883H184.417C183.307 105.896 182.206 105.68 181.183 105.248C180.161 104.816 179.239 104.177 178.475 103.372C177.711 102.567 177.121 101.612 176.744 100.568C176.366 99.5243 176.209 98.4136 176.281 97.3059L176.423 94.6888C176.574 92.4554 177.561 90.3608 179.187 88.8218C180.812 87.2828 182.958 86.4123 185.196 86.3833H199.353C200.463 86.3708 201.563 86.5875 202.585 87.0199C203.607 87.4523 204.529 88.0911 205.293 88.8962C206.056 89.7013 206.646 90.6555 207.024 91.6989C207.402 92.7423 207.56 93.8525 207.489 94.96L207.347 97.5771C207.192 99.8083 206.206 101.9 204.582 103.438C202.958 104.976 200.816 105.849 198.58 105.883Z" fill="#263238"/>
<path d="M211.476 279.375H206.94L194.444 88.3828H198.987L211.476 279.375Z" fill="#263238"/>
<path d="M177.413 279.375H181.956L194.444 88.3828H189.909L177.413 279.375Z" fill="#263238"/>
<path d="M259.437 186.172H112.922C112.552 186.172 112.186 186.097 111.846 185.951C111.507 185.805 111.201 185.591 110.947 185.323C110.693 185.054 110.496 184.737 110.369 184.389C110.243 184.042 110.188 183.673 110.21 183.304L115.139 93.4754C115.191 92.7041 115.532 91.9809 116.094 91.4495C116.655 90.9182 117.396 90.6175 118.169 90.6074H264.685C265.055 90.6068 265.421 90.6818 265.76 90.8277C266.1 90.9736 266.406 91.1875 266.66 91.4561C266.914 91.7246 267.11 92.0423 267.237 92.3896C267.364 92.7368 267.418 93.1063 267.397 93.4754L262.461 183.304C262.412 184.075 262.073 184.799 261.512 185.331C260.951 185.863 260.21 186.163 259.437 186.172Z" fill="#F3C262"/>
<path opacity="0.4" d="M115.26 183.418C114.964 183.422 114.67 183.364 114.397 183.248C114.124 183.133 113.878 182.962 113.674 182.747C113.471 182.532 113.314 182.277 113.213 181.998C113.113 181.719 113.071 181.422 113.091 181.127L117.789 95.6512C117.828 95.0352 118.099 94.4569 118.547 94.0319C118.994 93.607 119.586 93.3668 120.203 93.3595H262.386C262.683 93.3561 262.976 93.4139 263.249 93.5295C263.522 93.645 263.768 93.8158 263.972 94.031C264.176 94.2462 264.333 94.5012 264.433 94.7801C264.534 95.0589 264.576 95.3555 264.556 95.6512L259.857 181.127C259.818 181.744 259.546 182.323 259.097 182.748C258.648 183.173 258.055 183.413 257.437 183.418H115.26Z" fill="#263238"/>
<path opacity="0.1" d="M258.319 138.115H215.503C215.251 138.118 215.002 138.069 214.77 137.971C214.538 137.873 214.328 137.728 214.155 137.546C213.982 137.363 213.848 137.146 213.763 136.909C213.678 136.672 213.642 136.42 213.659 136.169L215.795 97.2585C215.797 97.2232 215.791 97.1879 215.779 97.1547C215.767 97.1215 215.749 97.091 215.725 97.0651C215.701 97.0392 215.672 97.0183 215.64 97.0038C215.607 96.9893 215.573 96.9813 215.537 96.9805C215.463 96.982 215.391 97.0114 215.337 97.0628C215.283 97.1143 215.251 97.1841 215.246 97.2585L213.11 136.169C213.075 136.688 212.846 137.176 212.47 137.536C212.094 137.896 211.597 138.102 211.076 138.115H166.586C166.334 138.118 166.084 138.069 165.852 137.971C165.62 137.873 165.411 137.728 165.237 137.546C165.064 137.363 164.931 137.146 164.845 136.909C164.76 136.672 164.725 136.42 164.741 136.169L166.877 97.2585C166.879 97.2232 166.874 97.1879 166.862 97.1547C166.85 97.1215 166.831 97.091 166.807 97.0651C166.783 97.0392 166.754 97.0183 166.722 97.0038C166.69 96.9893 166.655 96.9813 166.619 96.9805C166.545 96.982 166.474 97.0114 166.42 97.0628C166.366 97.1143 166.333 97.1841 166.328 97.2585L164.192 136.169C164.157 136.688 163.929 137.176 163.552 137.536C163.176 137.896 162.679 138.102 162.158 138.115H119.329C119.254 138.115 119.182 138.144 119.128 138.195C119.073 138.247 119.041 138.318 119.037 138.393C119.036 138.428 119.041 138.463 119.053 138.495C119.065 138.528 119.084 138.558 119.108 138.584C119.132 138.609 119.161 138.629 119.193 138.643C119.225 138.657 119.26 138.664 119.295 138.664H162.09C162.343 138.661 162.593 138.711 162.825 138.81C163.057 138.909 163.266 139.054 163.439 139.237C163.612 139.421 163.746 139.638 163.831 139.875C163.916 140.113 163.951 140.365 163.935 140.617L161.799 179.52C161.795 179.556 161.799 179.592 161.81 179.626C161.821 179.66 161.84 179.692 161.864 179.718C161.889 179.744 161.919 179.765 161.952 179.779C161.985 179.793 162.021 179.799 162.057 179.798C162.131 179.797 162.202 179.767 162.256 179.716C162.31 179.664 162.343 179.595 162.348 179.52L164.484 140.617C164.516 140.095 164.743 139.605 165.12 139.243C165.497 138.882 165.996 138.675 166.518 138.664H210.988C211.245 138.653 211.502 138.696 211.741 138.791C211.98 138.886 212.197 139.03 212.377 139.214C212.557 139.399 212.696 139.619 212.784 139.86C212.873 140.102 212.91 140.36 212.893 140.617L210.757 179.52C210.753 179.556 210.757 179.592 210.769 179.626C210.78 179.66 210.798 179.692 210.823 179.718C210.847 179.744 210.877 179.765 210.91 179.779C210.943 179.793 210.979 179.799 211.015 179.798C211.089 179.797 211.161 179.767 211.215 179.716C211.269 179.664 211.301 179.595 211.306 179.52L213.442 140.617C213.474 140.095 213.701 139.605 214.078 139.243C214.455 138.882 214.954 138.675 215.476 138.664H258.272C258.345 138.663 258.415 138.634 258.469 138.584C258.523 138.534 258.556 138.466 258.563 138.393C258.566 138.358 258.562 138.324 258.551 138.291C258.54 138.258 258.523 138.228 258.5 138.202C258.477 138.176 258.449 138.155 258.418 138.14C258.387 138.125 258.353 138.116 258.319 138.115Z" fill="white"/>
<path opacity="0.4" d="M188.519 104.031H171.332L170.369 121.517L187.536 121.978L188.519 104.031Z" fill="#263238"/>
<path d="M186.66 121.226L169.405 120.385C170.356 114.48 170.956 108.523 171.202 102.547L188.552 103.388C188.274 109.366 187.642 115.322 186.66 121.226Z" fill="white"/>
<path opacity="0.4" d="M209.246 115.713L192.031 117.028L192.411 134.453L209.632 133.599L209.246 115.713Z" fill="#263238"/>
<path d="M208.696 132.921L191.353 133.402C191.852 127.468 191.997 121.509 191.786 115.557L209.225 115.062C209.403 121.021 209.227 126.984 208.696 132.921Z" fill="#F3C262"/>
<path opacity="0.4" d="M158.978 147.506L127.248 146.299L124.394 174.524L156.056 176.477L158.978 147.506Z" fill="#263238"/>
<path d="M154.476 175.201L122.719 172.618C124.829 163.145 126.302 153.541 127.126 143.871L159.073 146.447C158.192 156.125 156.656 165.732 154.476 175.201Z" fill="white"/>
<g style="mix-blend-mode:multiply" opacity="0.3">
<path d="M126.319 107.983C126.088 107.985 125.859 107.938 125.647 107.848C125.434 107.757 125.242 107.624 125.083 107.456C124.925 107.288 124.802 107.089 124.723 106.872C124.644 106.655 124.61 106.424 124.624 106.193C124.66 105.714 124.874 105.264 125.224 104.934C125.574 104.604 126.035 104.417 126.516 104.41C126.747 104.409 126.975 104.455 127.187 104.546C127.4 104.636 127.591 104.77 127.749 104.938C127.908 105.106 128.03 105.305 128.108 105.522C128.186 105.739 128.219 105.97 128.204 106.2C128.17 106.679 127.958 107.128 127.609 107.459C127.26 107.789 126.8 107.976 126.319 107.983Z" fill="#263238"/>
<path opacity="0.8" d="M154.354 107.984H132.339C132.108 107.986 131.88 107.939 131.668 107.849C131.455 107.758 131.264 107.624 131.106 107.456C130.947 107.289 130.825 107.09 130.747 106.873C130.669 106.656 130.636 106.425 130.651 106.194C130.682 105.713 130.893 105.262 131.242 104.93C131.592 104.598 132.054 104.41 132.536 104.404H154.584C154.815 104.403 155.044 104.449 155.257 104.54C155.469 104.631 155.661 104.764 155.82 104.932C155.979 105.1 156.102 105.298 156.181 105.515C156.26 105.732 156.293 105.964 156.279 106.194C156.245 106.681 156.027 107.137 155.67 107.469C155.312 107.801 154.842 107.985 154.354 107.984Z" fill="#263238"/>
<path d="M125.892 115.789C125.66 115.791 125.431 115.746 125.218 115.655C125.005 115.565 124.813 115.432 124.654 115.264C124.495 115.096 124.372 114.897 124.293 114.679C124.215 114.461 124.182 114.23 124.197 113.999C124.23 113.514 124.445 113.059 124.8 112.727C125.155 112.395 125.623 112.21 126.109 112.209C126.34 112.208 126.568 112.254 126.78 112.345C126.993 112.435 127.184 112.569 127.342 112.737C127.501 112.905 127.623 113.103 127.701 113.321C127.779 113.538 127.812 113.769 127.797 113.999C127.765 114.483 127.55 114.936 127.196 115.269C126.843 115.601 126.377 115.787 125.892 115.789Z" fill="#263238"/>
<path opacity="0.8" d="M157.826 115.789H131.913C131.682 115.79 131.453 115.744 131.24 115.653C131.028 115.563 130.836 115.429 130.677 115.261C130.518 115.094 130.396 114.895 130.317 114.678C130.238 114.461 130.204 114.23 130.218 113.999C130.252 113.518 130.465 113.067 130.815 112.736C131.166 112.404 131.627 112.216 132.11 112.209H158.023C158.254 112.208 158.483 112.254 158.695 112.344C158.908 112.435 159.099 112.569 159.258 112.736C159.417 112.904 159.54 113.103 159.619 113.32C159.698 113.537 159.732 113.768 159.718 113.999C159.684 114.48 159.471 114.931 159.12 115.262C158.77 115.594 158.308 115.782 157.826 115.789Z" fill="#263238"/>
<path d="M125.431 123.585C125.201 123.587 124.972 123.542 124.76 123.452C124.548 123.362 124.356 123.229 124.198 123.062C124.039 122.894 123.917 122.696 123.839 122.479C123.761 122.262 123.728 122.032 123.743 121.802C123.774 121.321 123.985 120.869 124.334 120.537C124.684 120.205 125.146 120.018 125.628 120.012C125.859 120.009 126.088 120.055 126.301 120.145C126.514 120.236 126.706 120.369 126.866 120.537C127.025 120.705 127.147 120.904 127.226 121.122C127.305 121.339 127.338 121.571 127.323 121.802C127.289 122.282 127.075 122.732 126.725 123.062C126.374 123.393 125.913 123.579 125.431 123.585Z" fill="#263238"/>
<path opacity="0.8" d="M144.096 123.585H131.479C131.248 123.587 131.02 123.542 130.808 123.452C130.595 123.362 130.404 123.229 130.246 123.062C130.087 122.894 129.965 122.696 129.887 122.479C129.808 122.262 129.776 122.032 129.791 121.802C129.821 121.321 130.033 120.869 130.382 120.537C130.732 120.205 131.194 120.018 131.675 120.012H144.293C144.524 120.009 144.753 120.055 144.966 120.145C145.179 120.236 145.37 120.369 145.529 120.537C145.687 120.705 145.809 120.905 145.887 121.122C145.965 121.34 145.997 121.571 145.981 121.802C145.949 122.282 145.737 122.731 145.388 123.062C145.038 123.392 144.577 123.579 144.096 123.585Z" fill="#263238"/>
<path opacity="0.8" d="M155.778 131.388H143.16C142.93 131.39 142.701 131.344 142.489 131.253C142.277 131.162 142.085 131.029 141.927 130.861C141.769 130.693 141.647 130.494 141.568 130.277C141.49 130.06 141.457 129.829 141.472 129.599C141.505 129.118 141.716 128.667 142.065 128.336C142.415 128.004 142.876 127.816 143.357 127.809H155.975C156.205 127.807 156.434 127.853 156.646 127.944C156.859 128.035 157.05 128.168 157.208 128.336C157.367 128.504 157.489 128.703 157.567 128.92C157.645 129.137 157.678 129.368 157.663 129.599C157.631 130.079 157.419 130.53 157.07 130.861C156.721 131.193 156.26 131.381 155.778 131.388Z" fill="#263238"/>
<path d="M125.031 131.388C124.8 131.39 124.571 131.344 124.359 131.253C124.147 131.162 123.955 131.029 123.797 130.861C123.639 130.693 123.517 130.494 123.438 130.277C123.36 130.06 123.327 129.829 123.342 129.599C123.375 129.118 123.586 128.667 123.936 128.336C124.285 128.004 124.746 127.816 125.227 127.809C125.458 127.807 125.687 127.853 125.899 127.944C126.111 128.035 126.302 128.168 126.461 128.336C126.619 128.504 126.741 128.703 126.819 128.92C126.898 129.137 126.93 129.368 126.915 129.599C126.883 130.079 126.671 130.53 126.322 130.861C125.973 131.193 125.512 131.381 125.031 131.388Z" fill="#263238"/>
<path opacity="0.8" d="M136.875 131.389H131.051C130.82 131.39 130.592 131.344 130.379 131.253C130.167 131.162 129.976 131.029 129.818 130.861C129.659 130.693 129.537 130.494 129.459 130.277C129.381 130.06 129.348 129.829 129.363 129.599C129.395 129.118 129.607 128.667 129.956 128.336C130.305 128.004 130.766 127.816 131.248 127.809H137.072C137.303 127.806 137.532 127.852 137.746 127.942C137.959 128.033 138.151 128.166 138.31 128.334C138.469 128.502 138.592 128.701 138.67 128.919C138.749 129.136 138.782 129.368 138.767 129.599C138.734 130.08 138.522 130.532 138.171 130.864C137.82 131.195 137.358 131.383 136.875 131.389Z" fill="#263238"/>
</g>
<path d="M179.766 154.604H171.23L170.057 175.967H178.593L179.766 154.604Z" fill="#F3C262"/>
<path d="M192.722 159.01H184.179L183.25 175.967H191.786L192.722 159.01Z" fill="#F3C262"/>
<path d="M206.533 147.635H197.997L196.444 175.968H204.98L206.533 147.635Z" fill="#F3C262"/>
<path d="M173.135 166.659C172.288 166.659 171.434 166.66 170.572 166.592C168.801 166.562 167.05 166.208 165.406 165.548C165.273 165.487 165.168 165.376 165.116 165.239C165.064 165.102 165.068 164.949 165.128 164.815C165.158 164.749 165.201 164.69 165.254 164.64C165.307 164.591 165.37 164.552 165.438 164.527C165.506 164.502 165.578 164.49 165.651 164.493C165.723 164.496 165.795 164.513 165.86 164.544C167.373 165.143 168.98 165.464 170.606 165.493C180.851 166.022 189.821 163.351 198.852 157.1C201.67 155.141 204.15 152.737 206.195 149.981C206.233 149.917 206.285 149.861 206.346 149.818C206.407 149.775 206.476 149.744 206.55 149.729C206.623 149.713 206.698 149.713 206.772 149.727C206.845 149.742 206.915 149.772 206.976 149.814C207.038 149.857 207.09 149.912 207.13 149.975C207.169 150.039 207.196 150.109 207.207 150.183C207.218 150.257 207.214 150.333 207.195 150.405C207.176 150.478 207.142 150.546 207.096 150.604C204.992 153.468 202.423 155.959 199.496 157.974C191.021 163.88 182.58 166.659 173.135 166.659Z" fill="white"/>
<path d="M208.391 154.198C208.301 154.198 208.212 154.176 208.132 154.133C208.052 154.091 207.984 154.029 207.934 153.954C207.883 153.879 207.853 153.793 207.844 153.703C207.835 153.613 207.848 153.522 207.883 153.438C208.659 151.559 208.825 149.484 208.357 147.506C206.216 148.948 203.93 150.161 201.537 151.126C201.469 151.156 201.397 151.172 201.323 151.173C201.25 151.174 201.177 151.161 201.109 151.133C201.041 151.106 200.979 151.065 200.927 151.013C200.875 150.961 200.834 150.899 200.806 150.831C200.778 150.763 200.765 150.69 200.766 150.616C200.767 150.543 200.782 150.47 200.812 150.403C200.842 150.336 200.884 150.275 200.938 150.225C200.991 150.174 201.054 150.135 201.123 150.109C203.677 149.077 206.105 147.756 208.357 146.17C208.428 146.123 208.508 146.093 208.592 146.081C208.676 146.07 208.762 146.078 208.842 146.105C208.923 146.132 208.996 146.176 209.057 146.236C209.117 146.295 209.163 146.368 209.191 146.448C209.98 148.874 209.877 151.502 208.9 153.859C208.858 153.959 208.788 154.045 208.697 154.105C208.606 154.166 208.5 154.198 208.391 154.198Z" fill="white"/>
<path d="M253.349 133.138H221.591C221.329 133.14 221.068 133.089 220.827 132.986C220.585 132.883 220.367 132.731 220.187 132.54C220.007 132.349 219.868 132.123 219.78 131.876C219.691 131.629 219.655 131.366 219.672 131.104L221.15 104.255C221.186 103.719 221.422 103.217 221.812 102.848C222.201 102.478 222.715 102.269 223.252 102.262H255.016C255.278 102.26 255.538 102.313 255.779 102.416C256.019 102.519 256.236 102.671 256.416 102.862C256.595 103.053 256.733 103.279 256.822 103.525C256.91 103.772 256.946 104.034 256.928 104.296L255.45 131.145C255.415 131.68 255.179 132.183 254.789 132.552C254.4 132.921 253.885 133.131 253.349 133.138ZM223.252 102.818C222.854 102.822 222.473 102.977 222.185 103.251C221.897 103.526 221.724 103.899 221.7 104.296L220.222 131.145C220.209 131.33 220.236 131.516 220.298 131.691C220.361 131.865 220.459 132.025 220.586 132.161C220.713 132.296 220.867 132.404 221.037 132.478C221.208 132.551 221.392 132.589 221.578 132.589H253.335C253.733 132.584 254.114 132.429 254.402 132.155C254.69 131.881 254.864 131.508 254.888 131.111L256.366 104.262C256.379 104.075 256.353 103.888 256.29 103.712C256.227 103.535 256.128 103.374 256 103.238C255.871 103.103 255.716 102.997 255.545 102.924C255.374 102.852 255.189 102.816 255.003 102.818H223.252Z" fill="#F3C262"/>
<path d="M256.352 109.971H221.096C221.031 109.96 220.971 109.927 220.928 109.877C220.885 109.826 220.861 109.762 220.861 109.696C220.861 109.63 220.885 109.566 220.928 109.515C220.971 109.465 221.031 109.432 221.096 109.421H256.352C256.392 109.415 256.432 109.418 256.471 109.428C256.51 109.439 256.545 109.459 256.576 109.485C256.606 109.511 256.631 109.543 256.648 109.58C256.665 109.616 256.673 109.656 256.673 109.696C256.673 109.736 256.665 109.776 256.648 109.812C256.631 109.849 256.606 109.881 256.576 109.907C256.545 109.933 256.51 109.953 256.471 109.963C256.432 109.974 256.392 109.977 256.352 109.971Z" fill="#F3C262"/>
<path d="M228.175 133.139C228.102 133.134 228.035 133.1 227.987 133.046C227.939 132.991 227.914 132.92 227.917 132.848L229.165 109.68C229.167 109.644 229.176 109.609 229.191 109.576C229.207 109.543 229.229 109.514 229.256 109.49C229.283 109.466 229.315 109.448 229.35 109.436C229.384 109.424 229.42 109.42 229.456 109.423C229.529 109.428 229.597 109.461 229.645 109.516C229.693 109.57 229.718 109.642 229.714 109.714L228.446 132.888C228.44 132.956 228.408 133.019 228.358 133.065C228.308 133.111 228.243 133.138 228.175 133.139Z" fill="#F3C262"/>
<path d="M252.318 112.724H233.192C233.126 112.714 233.067 112.681 233.024 112.63C232.981 112.58 232.957 112.516 232.957 112.45C232.957 112.384 232.981 112.32 233.024 112.269C233.067 112.219 233.126 112.186 233.192 112.175H252.318C252.358 112.169 252.398 112.171 252.437 112.182C252.476 112.193 252.511 112.212 252.542 112.239C252.573 112.265 252.597 112.297 252.614 112.334C252.631 112.37 252.639 112.41 252.639 112.45C252.639 112.49 252.631 112.53 252.614 112.566C252.597 112.603 252.573 112.635 252.542 112.661C252.511 112.687 252.476 112.706 252.437 112.717C252.398 112.728 252.358 112.731 252.318 112.724Z" fill="#F3C262"/>
<path d="M249.437 116.099H233.009C232.969 116.106 232.929 116.103 232.89 116.092C232.851 116.081 232.815 116.062 232.785 116.036C232.754 116.01 232.73 115.978 232.713 115.941C232.696 115.905 232.688 115.865 232.688 115.825C232.688 115.785 232.696 115.745 232.713 115.709C232.73 115.672 232.754 115.64 232.785 115.614C232.815 115.587 232.851 115.568 232.89 115.557C232.929 115.546 232.969 115.544 233.009 115.55H249.437C249.476 115.544 249.517 115.546 249.556 115.557C249.594 115.568 249.63 115.587 249.661 115.614C249.691 115.64 249.716 115.672 249.732 115.709C249.749 115.745 249.758 115.785 249.758 115.825C249.758 115.865 249.749 115.905 249.732 115.941C249.716 115.978 249.691 116.01 249.661 116.036C249.63 116.062 249.594 116.081 249.556 116.092C249.517 116.103 249.476 116.106 249.437 116.099Z" fill="#F3C262"/>
<path d="M242.379 119.586H232.819C232.78 119.592 232.739 119.59 232.7 119.579C232.662 119.568 232.626 119.549 232.595 119.522C232.565 119.496 232.54 119.464 232.524 119.428C232.507 119.391 232.498 119.351 232.498 119.311C232.498 119.271 232.507 119.231 232.524 119.195C232.54 119.158 232.565 119.126 232.595 119.1C232.626 119.074 232.662 119.055 232.7 119.044C232.739 119.033 232.78 119.03 232.819 119.037H242.379C242.419 119.03 242.459 119.033 242.498 119.044C242.537 119.055 242.572 119.074 242.603 119.1C242.634 119.126 242.658 119.158 242.675 119.195C242.692 119.231 242.7 119.271 242.7 119.311C242.7 119.351 242.692 119.391 242.675 119.428C242.658 119.464 242.634 119.496 242.603 119.522C242.572 119.549 242.537 119.568 242.498 119.579C242.459 119.59 242.419 119.592 242.379 119.586Z" fill="#F3C262"/>
<path d="M244.115 126.392H232.446C232.407 126.399 232.366 126.396 232.327 126.385C232.289 126.374 232.253 126.355 232.222 126.329C232.192 126.303 232.167 126.271 232.151 126.234C232.134 126.198 232.125 126.158 232.125 126.118C232.125 126.078 232.134 126.038 232.151 126.001C232.167 125.965 232.192 125.933 232.222 125.907C232.253 125.88 232.289 125.861 232.327 125.85C232.366 125.839 232.407 125.837 232.446 125.843H244.115C244.154 125.837 244.195 125.839 244.234 125.85C244.272 125.861 244.308 125.88 244.339 125.907C244.369 125.933 244.394 125.965 244.41 126.001C244.427 126.038 244.436 126.078 244.436 126.118C244.436 126.158 244.427 126.198 244.41 126.234C244.394 126.271 244.369 126.303 244.339 126.329C244.308 126.355 244.272 126.374 244.234 126.385C244.195 126.396 244.154 126.399 244.115 126.392Z" fill="#F3C262"/>
<path d="M241.816 129.877H232.249C232.184 129.867 232.124 129.834 232.081 129.783C232.038 129.733 232.015 129.669 232.015 129.603C232.015 129.536 232.038 129.472 232.081 129.422C232.124 129.372 232.184 129.338 232.249 129.328H241.816C241.881 129.338 241.941 129.372 241.984 129.422C242.027 129.472 242.051 129.536 242.051 129.603C242.051 129.669 242.027 129.733 241.984 129.783C241.941 129.834 241.881 129.867 241.816 129.877Z" fill="#F3C262"/>
<path d="M247.409 129.877H244.352C244.312 129.883 244.271 129.881 244.233 129.87C244.194 129.859 244.158 129.84 244.128 129.814C244.097 129.787 244.073 129.755 244.056 129.719C244.039 129.682 244.03 129.642 244.03 129.602C244.03 129.562 244.039 129.522 244.056 129.486C244.073 129.449 244.097 129.417 244.128 129.391C244.158 129.365 244.194 129.346 244.233 129.335C244.271 129.324 244.312 129.321 244.352 129.328H247.409C247.449 129.321 247.49 129.324 247.528 129.335C247.567 129.346 247.603 129.365 247.633 129.391C247.664 129.417 247.688 129.449 247.705 129.486C247.722 129.522 247.731 129.562 247.731 129.602C247.731 129.642 247.722 129.682 247.705 129.719C247.688 129.755 247.664 129.787 247.633 129.814C247.603 129.84 247.567 129.859 247.528 129.87C247.49 129.881 247.449 129.883 247.409 129.877Z" fill="#F3C262"/>
<path d="M250.542 122.968H232.63C232.556 122.968 232.485 122.939 232.433 122.887C232.381 122.835 232.352 122.764 232.352 122.69C232.352 122.616 232.381 122.546 232.433 122.494C232.485 122.441 232.556 122.412 232.63 122.412H250.542C250.616 122.412 250.687 122.441 250.739 122.494C250.791 122.546 250.82 122.616 250.82 122.69C250.82 122.764 250.791 122.835 250.739 122.887C250.687 122.939 250.616 122.968 250.542 122.968Z" fill="#F3C262"/>
<path d="M233.843 172.21C229.694 172.21 226.297 170.983 224.188 168.705C221.931 166.271 220.995 162.44 221.619 158.196C221.841 155.841 222.718 153.595 224.149 151.711C225.581 149.828 227.511 148.382 229.721 147.538C232.308 146.37 235.12 145.785 237.959 145.822C240.797 145.859 243.593 146.519 246.149 147.755C248.379 148.874 249.776 150.291 250.305 151.965C250.349 152.105 250.336 152.256 250.269 152.386C250.235 152.45 250.189 152.507 250.134 152.553C250.079 152.6 250.015 152.635 249.946 152.657C249.806 152.701 249.655 152.688 249.525 152.62C249.396 152.553 249.298 152.437 249.254 152.298C248.82 150.942 247.607 149.721 245.654 148.738C243.244 147.576 240.608 146.955 237.933 146.921C235.257 146.888 232.607 147.44 230.168 148.541C228.129 149.312 226.347 150.642 225.028 152.378C223.709 154.114 222.906 156.187 222.71 158.359C222.134 162.271 222.968 165.769 224.995 167.953C227.809 170.997 232.453 171.214 235.002 171.078C239.708 170.814 243.749 169.173 246.393 166.454C249.485 163.268 250.352 158.508 248.427 155.376C248.185 154.924 247.846 154.532 247.434 154.228C247.023 153.923 246.549 153.713 246.047 153.613C245.908 153.592 245.782 153.518 245.695 153.407C245.609 153.296 245.569 153.156 245.582 153.015C245.596 152.875 245.664 152.746 245.77 152.654C245.877 152.562 246.015 152.514 246.156 152.521C246.829 152.626 247.47 152.886 248.026 153.28C248.583 153.674 249.04 154.192 249.363 154.793C251.559 158.345 250.63 163.681 247.2 167.22C244.359 170.142 240.06 171.899 235.077 172.176C234.65 172.21 234.243 172.21 233.843 172.21Z" fill="white"/>
<path d="M93.1034 114.812L91.144 118.202L89.232 121.68C87.9709 124.006 86.7641 126.352 85.6657 128.704C85.1166 129.891 84.5945 131.064 84.1199 132.243L84.0318 132.46V132.508C84.0082 132.537 83.9877 132.569 83.9707 132.603C83.9351 132.666 83.9034 132.732 83.8758 132.799C83.8329 133.055 83.8611 133.318 83.9572 133.559C84.3328 134.484 84.8882 135.325 85.5912 136.033C86.4216 136.924 87.307 137.762 88.2421 138.542L86.6488 141.932C85.9017 141.726 85.17 141.467 84.4589 141.159C83.7592 140.85 83.0798 140.497 82.4249 140.101C80.9023 139.219 79.5958 138.007 78.601 136.555C77.9893 135.621 77.5826 134.567 77.4077 133.464C77.3263 132.852 77.3263 132.232 77.4077 131.62C77.4348 131.315 77.487 131.014 77.5636 130.718L77.6721 130.277L77.7535 130.006C78.1942 128.65 78.6417 127.247 79.1705 125.938C80.2011 123.28 81.3672 120.704 82.6283 118.202C83.2656 116.954 83.9165 115.714 84.6081 114.493C85.2996 113.273 85.9641 112.08 86.7777 110.846L93.1034 114.812Z" fill="#FFC3BD"/>
<path d="M86.5135 138.177L90.0731 137.248L90.2764 142.997C90.2764 142.997 87.4899 143.411 85.7881 141.709L86.5135 138.177Z" fill="#FFC3BD"/>
<path d="M95.1234 136.277L94.3165 141.328L90.2757 142.996L90.0723 137.247L95.1234 136.277Z" fill="#FFC3BD"/>
<path d="M109.837 87.7057C109.918 88.0989 110.189 88.3837 110.447 88.3227C110.705 88.2617 110.854 87.9091 110.773 87.5159C110.691 87.1226 110.42 86.8379 110.162 86.8989C109.905 86.9599 109.783 87.3125 109.837 87.7057Z" fill="#263238"/>
<path d="M110.176 88.3848C110.889 89.4918 111.752 90.4956 112.739 91.368C112.51 91.6149 112.23 91.8085 111.918 91.9351C111.607 92.0616 111.271 92.118 110.935 92.1002L110.176 88.3848Z" fill="#ED847E"/>
<path d="M107.973 85.8148C107.914 85.8129 107.858 85.7887 107.817 85.747C107.794 85.7255 107.777 85.6997 107.764 85.6712C107.752 85.6426 107.746 85.6119 107.746 85.5809C107.746 85.5499 107.752 85.5192 107.764 85.4907C107.777 85.4621 107.794 85.4363 107.817 85.4148C108.067 85.1301 108.384 84.9104 108.738 84.7746C109.092 84.6388 109.474 84.5909 109.851 84.6351C109.881 84.64 109.91 84.651 109.937 84.6674C109.963 84.6838 109.985 84.7052 110.003 84.7305C110.021 84.7558 110.033 84.7844 110.04 84.8146C110.046 84.8448 110.046 84.876 110.041 84.9063C110.031 84.9683 109.996 85.0238 109.946 85.0606C109.895 85.0975 109.831 85.1127 109.769 85.1029C109.475 85.0758 109.178 85.1187 108.904 85.2283C108.629 85.3379 108.384 85.511 108.19 85.7335C108.164 85.765 108.13 85.7891 108.092 85.8034C108.054 85.8177 108.013 85.8216 107.973 85.8148Z" fill="#263238"/>
<path d="M98.6431 93.2383C99.3618 96.8859 100.074 103.564 97.5244 105.991C97.5244 105.991 98.5211 109.687 105.288 109.687C112.746 109.687 108.847 105.991 108.847 105.991C104.779 105.022 104.887 102.012 105.599 99.1776L98.6431 93.2383Z" fill="#FFC3BD"/>
<path d="M96.0522 106.67C95.5098 105.66 94.9063 104.501 96.1471 104.135C97.5031 103.735 106.276 102.996 108.853 103.748C108.06 105.152 109.395 106.881 109.395 106.881L96.0522 106.67Z" fill="#263238"/>
<path d="M73.998 276.543C74.199 276.614 74.4122 276.645 74.6252 276.633C74.8381 276.621 75.0467 276.568 75.2387 276.475C75.313 276.407 75.364 276.317 75.3847 276.219C75.4053 276.12 75.3946 276.018 75.354 275.926C75.3312 275.849 75.2922 275.779 75.2395 275.719C75.1868 275.66 75.1218 275.612 75.0489 275.58C74.3709 275.261 72.8318 275.892 72.764 275.919C72.7426 275.926 72.7238 275.94 72.7104 275.958C72.6971 275.976 72.6897 275.998 72.6895 276.021C72.6896 276.043 72.696 276.065 72.708 276.084C72.72 276.104 72.737 276.119 72.7573 276.129C73.1551 276.31 73.571 276.449 73.998 276.543ZM74.8048 275.749C74.8536 275.758 74.9013 275.772 74.9472 275.79C74.9894 275.809 75.0269 275.838 75.0573 275.873C75.0878 275.908 75.1103 275.949 75.1235 275.994C75.1913 276.21 75.1235 276.272 75.0828 276.299C74.8184 276.522 73.8217 276.299 73.1234 276.034C73.6555 275.815 74.2301 275.717 74.8048 275.749Z" fill="#F3C262"/>
<path d="M72.7842 276.143H72.8385C73.4012 275.98 74.6081 275.126 74.6216 274.563C74.624 274.474 74.5956 274.387 74.5412 274.316C74.4869 274.246 74.4099 274.197 74.3233 274.176C74.2384 274.146 74.1479 274.134 74.0579 274.141C73.9679 274.148 73.8804 274.174 73.8012 274.217C73.1232 274.563 72.7097 275.939 72.6961 276C72.6866 276.018 72.6816 276.038 72.6816 276.058C72.6816 276.078 72.6866 276.098 72.6961 276.115L72.7842 276.143ZM74.1945 274.38H74.2419C74.3911 274.434 74.3911 274.502 74.3911 274.536C74.3911 274.868 73.5843 275.539 73.0351 275.81C73.1933 275.263 73.5094 274.775 73.9436 274.407C74.0225 274.372 74.1101 274.363 74.1945 274.38Z" fill="#F3C262"/>
<path d="M110.772 277.377C111.41 277.377 112.027 277.289 112.237 277.004C112.289 276.928 112.317 276.838 112.317 276.746C112.317 276.654 112.289 276.564 112.237 276.489C112.197 276.419 112.143 276.359 112.079 276.311C112.015 276.264 111.942 276.229 111.864 276.211C111.037 275.987 109.294 276.977 109.22 277.024C109.198 277.036 109.181 277.054 109.171 277.076C109.162 277.098 109.159 277.123 109.165 277.146C109.169 277.169 109.179 277.19 109.195 277.207C109.211 277.224 109.231 277.236 109.253 277.241C109.755 277.329 110.263 277.374 110.772 277.377ZM111.559 276.414C111.635 276.403 111.713 276.403 111.789 276.414C111.837 276.423 111.882 276.443 111.922 276.471C111.962 276.499 111.995 276.535 112.02 276.577C112.101 276.726 112.074 276.8 112.02 276.841C111.789 277.16 110.528 277.167 109.606 277.038C110.21 276.705 110.873 276.493 111.559 276.414Z" fill="#F3C262"/>
<path d="M109.267 277.24H109.315C109.918 276.969 111.105 275.884 111.017 275.328C111.017 275.192 110.901 275.03 110.576 274.996C110.455 274.982 110.333 274.993 110.216 275.028C110.1 275.063 109.991 275.121 109.898 275.199C109.267 275.721 109.132 277.064 109.125 277.118C109.125 277.139 109.131 277.16 109.14 277.178C109.149 277.197 109.163 277.214 109.179 277.227C109.192 277.235 109.207 277.24 109.222 277.242C109.237 277.244 109.253 277.244 109.267 277.24ZM110.481 275.206H110.549C110.766 275.206 110.779 275.308 110.779 275.335C110.834 275.674 110.027 276.521 109.423 276.888C109.482 276.318 109.719 275.782 110.101 275.355C110.218 275.262 110.365 275.214 110.515 275.22L110.481 275.206Z" fill="#F3C262"/>
<path d="M103.789 277.125H108.772L109.267 265.586H104.284L103.789 277.125Z" fill="#FFC3BD"/>
<path d="M67.2305 274.821L72.0985 275.871L76.9869 265.132L72.1188 264.074L67.2305 274.821Z" fill="#FFC3BD"/>
<path d="M72.5465 275.383L67.1225 274.196C67.0265 274.177 66.9267 274.19 66.8393 274.234C66.7519 274.279 66.6821 274.351 66.6412 274.44L64.7428 278.563C64.6965 278.663 64.6737 278.772 64.6759 278.882C64.6782 278.992 64.7055 279.1 64.7558 279.198C64.8062 279.296 64.8782 279.382 64.9663 279.448C65.0545 279.514 65.1566 279.559 65.2648 279.58C67.1836 279.959 68.1328 280.047 70.5397 280.57C72.0177 280.888 75.3603 281.702 77.401 282.149C79.4418 282.597 80.113 280.624 79.3537 280.264C75.7806 278.63 74.289 277.193 73.3195 275.851C73.1312 275.602 72.8545 275.434 72.5465 275.383Z" fill="#263238"/>
<path d="M108.739 276.549H103.315C103.216 276.548 103.121 276.582 103.044 276.643C102.968 276.705 102.915 276.792 102.894 276.888L101.911 281.315C101.887 281.422 101.886 281.532 101.911 281.639C101.935 281.745 101.984 281.845 102.052 281.93C102.121 282.015 102.208 282.083 102.307 282.129C102.406 282.175 102.514 282.198 102.623 282.197C104.589 282.197 107.423 282.054 109.891 282.054C112.773 282.054 115.261 282.21 118.644 282.21C120.678 282.21 121.261 280.142 120.4 279.952C116.509 279.105 113.322 279.01 109.959 276.935C109.596 276.695 109.174 276.561 108.739 276.549Z" fill="#263238"/>
<path d="M88.6016 107.123C83.937 108.195 80.0859 120.114 80.0859 120.114L89.4966 127.253C91.9216 124.666 93.6339 121.493 94.4663 118.046C96.0393 111.802 93.3747 106.025 88.6016 107.123Z" fill="#F3C262"/>
<path opacity="0.2" d="M88.6016 107.123C83.937 108.195 80.0859 120.114 80.0859 120.114L89.4966 127.253C91.9216 124.666 93.6339 121.493 94.4663 118.046C96.0393 111.802 93.3747 106.025 88.6016 107.123Z" fill="#FAFAFA"/>
<path opacity="0.2" d="M92.6025 115.883C90.0667 118.391 89.2125 122.961 89.043 126.934L89.4565 127.253C91.885 124.667 93.5999 121.494 94.4331 118.046C94.528 117.673 94.6093 117.3 94.6771 116.934L92.6025 115.883Z" fill="black"/>
<path d="M116.508 107.374C116.508 107.374 121.81 113.361 116.8 150.427H90.1746C89.9916 146.359 92.5612 126.385 88.6152 107.116C91.5621 106.55 94.5424 106.174 97.5377 105.991C101.309 105.774 105.089 105.774 108.86 105.991C111.442 106.252 113.999 106.715 116.508 107.374Z" fill="#F3C262"/>
<path opacity="0.2" d="M116.508 107.374C116.508 107.374 121.81 113.361 116.8 150.427H90.1746C89.9916 146.359 92.5612 126.385 88.6152 107.116C91.5621 106.55 94.5424 106.174 97.5377 105.991C101.309 105.774 105.089 105.774 108.86 105.991C111.442 106.252 113.999 106.715 116.508 107.374Z" fill="#FAFAFA"/>
<path opacity="0.2" d="M118.834 118.703L118.732 118.615L112.677 120.066C112.332 124.134 116.542 129.056 118.711 131.294C118.98 127.102 119.02 122.899 118.834 118.703Z" fill="black"/>
<path opacity="0.2" d="M109.266 265.592L109.009 271.538H104.025L104.283 265.592H109.266Z" fill="black"/>
<path opacity="0.2" d="M72.112 264.074L76.9868 265.132L74.4647 270.671L69.5898 269.613L72.112 264.074Z" fill="black"/>
<path d="M96.5617 89.5363C97.8364 94.3162 98.3449 97.1706 101.308 99.1571C105.735 102.147 111.254 98.7164 111.43 93.6586C111.586 89.1024 109.464 82.058 104.338 81.0952C103.209 80.8751 102.042 80.9477 100.949 81.3063C99.8554 81.6649 98.872 82.2974 98.0924 83.1437C97.3128 83.9899 96.7628 85.0217 96.4948 86.1407C96.2269 87.2597 96.2499 88.4287 96.5617 89.5363Z" fill="#FFC3BD"/>
<path d="M98.7513 97.3269C100.785 98.4863 108.182 94.6149 106.664 88.7163C106.664 88.7163 109.484 85.3263 109.165 81.5838C108.847 77.8412 106.277 76.4174 103.545 77.2242C101.138 77.9022 101.206 79.2582 101.206 79.2582C101.206 79.2582 89.822 80.6142 92.2561 85.2314C87.6185 90.2689 96.2156 95.876 98.7513 97.3269Z" fill="#263238"/>
<path d="M92.575 85.597C92.575 85.597 91.219 83.2512 89.2393 84.5665C90.1749 84.5801 91.6936 84.7495 92.575 85.597Z" fill="#263238"/>
<path d="M108.799 84.0717C108.799 84.0717 111.281 78.4714 107.443 76.668C108.158 77.7464 108.646 78.9585 108.88 80.231C109.113 81.5035 109.085 82.81 108.799 84.0717Z" fill="#263238"/>
<path d="M104.684 89.7395C105.014 90.9274 105.729 91.9719 106.718 92.7092C108.013 93.6719 108.982 92.7092 108.894 91.2583C108.806 89.9362 108.033 87.8683 106.602 87.4547C105.172 87.0411 104.311 88.3022 104.684 89.7395Z" fill="#FFC3BD"/>
<path d="M107.355 150.428C107.355 150.428 101.701 188.484 98.5957 202.722C95.2057 218.316 76.9743 270.006 76.9743 270.006L68.0586 268.074C68.0586 268.074 80.805 225.97 83.6526 204.139C85.8425 187.372 90.1614 150.4 90.1614 150.4L107.355 150.428Z" fill="#263238"/>
<path d="M79.1096 267.057C79.1503 267.057 77.4485 270.284 77.4485 270.284L67.4209 268.108L68.2616 265.098L79.1096 267.057Z" fill="#F3C262"/>
<path opacity="0.3" d="M103.782 163.987C97.2465 165.268 97.9381 189.643 98.7246 202.179C100.609 193.317 103.369 176.266 105.254 164.163C104.798 163.939 104.279 163.876 103.782 163.987Z" fill="black"/>
<path d="M116.8 150.428C116.8 150.428 117.478 187.67 116.949 202.857C116.386 218.655 110.847 270.386 110.847 270.386H102.426C102.426 270.386 102.121 219.577 101.748 204.064C101.342 187.114 99.3008 150.428 99.3008 150.428H116.8Z" fill="#263238"/>
<path opacity="0.4" d="M163.642 124.176H146.455L145.492 141.655L162.659 142.116L163.642 124.176Z" fill="#263238"/>
<path d="M154.585 135.424L137.37 133.295C138.755 127.503 139.789 121.632 140.469 115.715L157.785 117.844C157.072 123.763 156.003 129.634 154.585 135.424Z" fill="#F3C262"/>
<path d="M112.487 267.023C112.528 267.023 112.013 270.529 112.013 270.529H101.748L101.47 267.403L112.487 267.023Z" fill="#F3C262"/>
<path d="M118.963 111.918C119.729 113.111 120.604 114.454 121.478 115.688C122.353 116.922 123.255 118.183 124.19 119.383C125.972 121.761 127.959 123.977 130.13 126.007C130.64 126.485 131.174 126.938 131.73 127.363L132.137 127.668C132.06 127.635 131.98 127.607 131.899 127.587C131.723 127.587 131.635 127.587 131.682 127.587C132.071 127.601 132.457 127.512 132.801 127.329C133.395 127.077 133.968 126.78 134.516 126.441C137.049 124.782 139.452 122.932 141.703 120.908L144.612 123.254C142.849 126.217 140.65 128.898 138.089 131.207C137.37 131.85 136.591 132.425 135.764 132.922C134.72 133.574 133.556 134.007 132.34 134.197C131.471 134.311 130.587 134.235 129.75 133.973C129.286 133.828 128.842 133.625 128.428 133.37L127.845 132.997C127.065 132.495 126.326 131.96 125.628 131.41C122.93 129.231 120.471 126.772 118.292 124.075C117.227 122.759 116.197 121.43 115.241 120.047C114.285 118.664 113.37 117.335 112.475 115.762L118.963 111.918Z" fill="#FFC3BD"/>
<path d="M109.158 114.907C107.565 121.586 119.647 128.128 119.647 128.128L127.498 118.935C125.144 115.456 122.458 112.213 119.478 109.253C114.013 103.985 110.392 109.836 109.158 114.907Z" fill="#F3C262"/>
<path opacity="0.2" d="M109.158 114.907C107.565 121.586 119.647 128.128 119.647 128.128L127.498 118.935C125.144 115.456 122.458 112.213 119.478 109.253C114.013 103.985 110.392 109.836 109.158 114.907Z" fill="#FAFAFA"/>
<path d="M140.875 122.297L142.733 116.344L147.608 118.778C147.608 118.778 146.896 123.117 143.343 123.87L140.875 122.297Z" fill="#FFC3BD"/>
<path d="M144.686 114.697L149.079 115.911L147.608 118.779L142.727 116.345L144.686 114.697Z" fill="#FFC3BD"/>
</svg>
