<svg xmlns="http://www.w3.org/2000/svg" width="24" height="24" viewBox="0 0 25 26" fill="none">
    <path d="M5.25 20.5H7.75C7.8875 20.5 8 20.3875 8 20.25V5.75C8 5.6125 7.8875 5.5 7.75 5.5H5.25C5.1125 5.5 5 5.6125 5 5.75V20.25C5 20.3875 5.1125 20.5 5.25 20.5ZM11.25 11.75H13.75C13.8875 11.75 14 11.6375 14 11.5V5.75C14 5.6125 13.8875 5.5 13.75 5.5H11.25C11.1125 5.5 11 5.6125 11 5.75V11.5C11 11.6375 11.1125 11.75 11.25 11.75ZM17.25 14H19.75C19.8875 14 20 13.8875 20 13.75V5.75C20 5.6125 19.8875 5.5 19.75 5.5H17.25C17.1125 5.5 17 5.6125 17 5.75V13.75C17 13.8875 17.1125 14 17.25 14ZM24 0.5H1C0.446875 0.5 0 0.946875 0 1.5V24.5C0 25.0531 0.446875 25.5 1 25.5H24C24.5531 25.5 25 25.0531 25 24.5V1.5C25 0.946875 24.5531 0.5 24 0.5ZM22.75 23.25H2.25V2.75H22.75V23.25Z" fill="#2A5578"/>
</svg>
