<svg width="63" height="26" viewBox="0 0 63 26" fill="none" xmlns="http://www.w3.org/2000/svg">
<path d="M1 12.5C0.723858 12.5 0.5 12.7239 0.5 13C0.5 13.2761 0.723858 13.5 1 13.5V12.5ZM11.5 13.5C11.7761 13.5 12 13.2761 12 13C12 12.7239 11.7761 12.5 11.5 12.5V13.5ZM52.5 12.5C52.2239 12.5 52 12.7239 52 13C52 13.2761 52.2239 13.5 52.5 13.5V12.5ZM58 15.2201C58 15.4962 58.3382 15.6915 58.5774 15.5534L62.4226 13.3333C62.6618 13.1953 62.6618 12.8047 62.4226 12.6667L58.5774 10.4466C58.3382 10.3085 58 10.5038 58 10.7799V15.2201ZM1 13.5H11.5V12.5H1V13.5ZM52.5 13.5H58.5V12.5H52.5V13.5Z" fill="#EA1F4D"/>
<path d="M17.453 16.5V9.22727H20.3223C20.8716 9.22727 21.3403 9.32552 21.7286 9.52202C22.1192 9.71615 22.4163 9.99195 22.6199 10.3494C22.8259 10.7045 22.9289 11.1224 22.9289 11.603C22.9289 12.0859 22.8247 12.5014 22.6164 12.8494C22.408 13.1951 22.1062 13.4602 21.7108 13.6449C21.3178 13.8295 20.842 13.9219 20.2833 13.9219H18.3621V12.6861H20.0347C20.3282 12.6861 20.5721 12.6458 20.7662 12.5653C20.9603 12.4848 21.1048 12.3641 21.1994 12.2031C21.2965 12.0421 21.345 11.8421 21.345 11.603C21.345 11.3615 21.2965 11.1579 21.1994 10.9922C21.1048 10.8265 20.9592 10.701 20.7627 10.6158C20.5685 10.5282 20.3235 10.4844 20.0276 10.4844H18.9906V16.5H17.453ZM21.3806 13.1903L23.1881 16.5H21.4906L19.7222 13.1903H21.3806ZM26.275 16.6065C25.7139 16.6065 25.231 16.4929 24.8261 16.2656C24.4237 16.036 24.1135 15.7116 23.8957 15.2926C23.6779 14.8712 23.569 14.3729 23.569 13.7976C23.569 13.2365 23.6779 12.7441 23.8957 12.3203C24.1135 11.8965 24.4201 11.5663 24.8155 11.3295C25.2132 11.0928 25.6796 10.9744 26.2146 10.9744C26.5745 10.9744 26.9095 11.0324 27.2196 11.1484C27.5321 11.2621 27.8044 11.4337 28.0364 11.6634C28.2707 11.893 28.453 12.1818 28.5832 12.5298C28.7134 12.8755 28.7785 13.2803 28.7785 13.7443V14.1598H24.1727V13.2223H27.3545C27.3545 13.0045 27.3072 12.8116 27.2125 12.6435C27.1178 12.4754 26.9864 12.344 26.8183 12.2493C26.6526 12.1522 26.4597 12.1037 26.2395 12.1037C26.0098 12.1037 25.8062 12.157 25.6287 12.2635C25.4535 12.3677 25.3162 12.5085 25.2168 12.6861C25.1173 12.8613 25.0664 13.0566 25.0641 13.272V14.1634C25.0641 14.4332 25.1138 14.6664 25.2132 14.8629C25.315 15.0594 25.4582 15.2109 25.6429 15.3175C25.8276 15.424 26.0465 15.4773 26.2999 15.4773C26.4679 15.4773 26.6218 15.4536 26.7615 15.4062C26.9012 15.3589 27.0207 15.2879 27.1202 15.1932C27.2196 15.0985 27.2954 14.9825 27.3474 14.8452L28.7466 14.9375C28.6756 15.2737 28.53 15.5672 28.3098 15.8182C28.092 16.0668 27.8103 16.2609 27.4646 16.4006C27.1214 16.5379 26.7248 16.6065 26.275 16.6065ZM29.6558 11.0455H31.1685V16.7699C31.1685 17.1913 31.0857 17.5322 30.92 17.7926C30.7542 18.053 30.5163 18.2436 30.2062 18.3643C29.8984 18.4851 29.5303 18.5455 29.1018 18.5455C29.0497 18.5455 29 18.5443 28.9526 18.5419C28.9029 18.5419 28.8508 18.5407 28.7964 18.5384V17.3558C28.8366 17.3582 28.8721 17.3594 28.9029 17.3594C28.9313 17.3617 28.9621 17.3629 28.9953 17.3629C29.2391 17.3629 29.4096 17.3108 29.5066 17.2067C29.606 17.1049 29.6558 16.951 29.6558 16.745V11.0455ZM30.4086 10.3423C30.1861 10.3423 29.9943 10.2678 29.8333 10.1186C29.6723 9.96709 29.5918 9.78598 29.5918 9.57528C29.5918 9.36695 29.6723 9.18821 29.8333 9.03906C29.9943 8.88755 30.1861 8.81179 30.4086 8.81179C30.6359 8.81179 30.8288 8.88755 30.9874 9.03906C31.1484 9.18821 31.2289 9.36695 31.2289 9.57528C31.2289 9.78598 31.1484 9.96709 30.9874 10.1186C30.8288 10.2678 30.6359 10.3423 30.4086 10.3423ZM34.7562 16.6065C34.1951 16.6065 33.7121 16.4929 33.3073 16.2656C32.9048 16.036 32.5947 15.7116 32.3769 15.2926C32.1591 14.8712 32.0502 14.3729 32.0502 13.7976C32.0502 13.2365 32.1591 12.7441 32.3769 12.3203C32.5947 11.8965 32.9013 11.5663 33.2967 11.3295C33.6944 11.0928 34.1608 10.9744 34.6958 10.9744C35.0556 10.9744 35.3906 11.0324 35.7008 11.1484C36.0133 11.2621 36.2855 11.4337 36.5175 11.6634C36.7519 11.893 36.9342 12.1818 37.0644 12.5298C37.1946 12.8755 37.2597 13.2803 37.2597 13.7443V14.1598H32.6539V13.2223H35.8357C35.8357 13.0045 35.7884 12.8116 35.6937 12.6435C35.599 12.4754 35.4676 12.344 35.2995 12.2493C35.1338 12.1522 34.9408 12.1037 34.7207 12.1037C34.491 12.1037 34.2874 12.157 34.1099 12.2635C33.9347 12.3677 33.7974 12.5085 33.6979 12.6861C33.5985 12.8613 33.5476 13.0566 33.5452 13.272V14.1634C33.5452 14.4332 33.5949 14.6664 33.6944 14.8629C33.7962 15.0594 33.9394 15.2109 34.1241 15.3175C34.3087 15.424 34.5277 15.4773 34.781 15.4773C34.9491 15.4773 35.103 15.4536 35.2427 15.4062C35.3824 15.3589 35.5019 15.2879 35.6013 15.1932C35.7008 15.0985 35.7765 14.9825 35.8286 14.8452L37.2278 14.9375C37.1567 15.2737 37.0111 15.5672 36.791 15.8182C36.5732 16.0668 36.2914 16.2609 35.9458 16.4006C35.6025 16.5379 35.206 16.6065 34.7562 16.6065ZM40.6014 16.6065C40.0427 16.6065 39.5621 16.4882 39.1597 16.2514C38.7596 16.0123 38.4518 15.6809 38.2364 15.2571C38.0233 14.8333 37.9168 14.3456 37.9168 13.794C37.9168 13.2353 38.0245 12.7453 38.2399 12.3239C38.4577 11.9001 38.7667 11.5698 39.1668 11.3331C39.5669 11.094 40.0427 10.9744 40.5943 10.9744C41.0702 10.9744 41.4868 11.0608 41.8443 11.2337C42.2018 11.4065 42.4847 11.6491 42.693 11.9616C42.9014 12.2741 43.0162 12.6411 43.0375 13.0625H41.6099C41.5697 12.7902 41.4632 12.5713 41.2903 12.4055C41.1199 12.2375 40.8962 12.1534 40.6192 12.1534C40.3848 12.1534 40.18 12.2173 40.0048 12.3452C39.832 12.4706 39.6971 12.6541 39.6 12.8956C39.5029 13.1371 39.4544 13.4295 39.4544 13.7727C39.4544 14.1207 39.5018 14.4167 39.5965 14.6605C39.6935 14.9044 39.8296 15.0902 40.0048 15.218C40.18 15.3459 40.3848 15.4098 40.6192 15.4098C40.792 15.4098 40.9471 15.3743 41.0844 15.3033C41.2241 15.2322 41.3389 15.1293 41.4288 14.9943C41.5212 14.857 41.5815 14.6925 41.6099 14.5007H43.0375C43.0138 14.9174 42.9002 15.2843 42.6966 15.6016C42.4954 15.9164 42.2172 16.1626 41.8621 16.3402C41.507 16.5178 41.0867 16.6065 40.6014 16.6065ZM46.7974 11.0455V12.1818H43.5126V11.0455H46.7974ZM44.2583 9.73864H45.7711V14.8239C45.7711 14.9635 45.7924 15.0724 45.835 15.1506C45.8776 15.2263 45.9368 15.2796 46.0126 15.3104C46.0907 15.3411 46.1806 15.3565 46.2824 15.3565C46.3535 15.3565 46.4245 15.3506 46.4955 15.3388C46.5665 15.3246 46.621 15.3139 46.6589 15.3068L46.8968 16.4325C46.821 16.4562 46.7145 16.4834 46.5772 16.5142C46.4399 16.5473 46.273 16.5675 46.0765 16.5746C45.7119 16.5888 45.3923 16.5402 45.1177 16.429C44.8454 16.3177 44.6335 16.1449 44.482 15.9105C44.3305 15.6761 44.2559 15.3802 44.2583 15.0227V9.73864Z" fill="#EA1F4D"/>
</svg>
