<svg width="24" height="24" viewBox="0 0 24 24" fill="none" xmlns="http://www.w3.org/2000/svg">
<path d="M21.6758 14.6649L20.1406 13.3524C20.2133 12.9071 20.2508 12.4524 20.2508 11.9978C20.2508 11.5431 20.2133 11.0884 20.1406 10.6431L21.6758 9.33057C21.7916 9.23144 21.8745 9.09942 21.9134 8.95205C21.9523 8.80468 21.9455 8.64895 21.8938 8.50557L21.8727 8.44463C21.45 7.26344 20.8172 6.16846 20.0047 5.2126L19.9625 5.16338C19.8639 5.04749 19.7326 4.96418 19.5857 4.92443C19.4389 4.88468 19.2834 4.89036 19.1398 4.94072L17.2344 5.61807C16.5313 5.0415 15.7461 4.58682 14.8977 4.26807L14.5297 2.27588C14.5019 2.12598 14.4292 1.98807 14.3212 1.88048C14.2132 1.77289 14.075 1.70071 13.925 1.67354L13.8617 1.66182C12.6406 1.4415 11.3563 1.4415 10.1352 1.66182L10.0719 1.67354C9.92187 1.70071 9.78368 1.77289 9.67568 1.88048C9.56767 1.98807 9.49495 2.12598 9.46719 2.27588L9.09688 4.27744C8.25521 4.59626 7.47141 5.0507 6.77657 5.62275L4.85704 4.94072C4.71352 4.88996 4.55795 4.88408 4.41101 4.92385C4.26407 4.96362 4.1327 5.04716 4.03438 5.16338L3.99219 5.2126C3.18066 6.16914 2.54792 7.26393 2.12422 8.44463L2.10313 8.50557C1.99766 8.79853 2.08438 9.12666 2.3211 9.33057L3.875 10.6571C3.80235 11.0978 3.76719 11.5478 3.76719 11.9954C3.76719 12.4454 3.80235 12.8954 3.875 13.3337L2.3211 14.6603C2.20531 14.7594 2.12243 14.8914 2.0835 15.0388C2.04456 15.1861 2.05141 15.3419 2.10313 15.4853L2.12422 15.5462C2.54844 16.7274 3.17657 17.8173 3.99219 18.7782L4.03438 18.8274C4.13294 18.9433 4.26431 19.0266 4.41117 19.0664C4.55802 19.1061 4.71347 19.1005 4.85704 19.0501L6.77657 18.3681C7.47501 18.9423 8.25547 19.397 9.09688 19.7134L9.46719 21.7149C9.49495 21.8648 9.56767 22.0027 9.67568 22.1103C9.78368 22.2179 9.92187 22.2901 10.0719 22.3173L10.1352 22.329C11.3675 22.5505 12.6294 22.5505 13.8617 22.329L13.925 22.3173C14.075 22.2901 14.2132 22.2179 14.3212 22.1103C14.4292 22.0027 14.5019 21.8648 14.5297 21.7149L14.8977 19.7228C15.7458 19.4048 16.5353 18.9487 17.2344 18.3728L19.1398 19.0501C19.2834 19.1009 19.4389 19.1067 19.5859 19.067C19.7328 19.0272 19.8642 18.9437 19.9625 18.8274L20.0047 18.7782C20.8203 17.8149 21.4484 16.7274 21.8727 15.5462L21.8938 15.4853C21.9992 15.197 21.9125 14.8688 21.6758 14.6649ZM18.4766 10.9196C18.5352 11.2735 18.5656 11.6368 18.5656 12.0001C18.5656 12.3634 18.5352 12.7267 18.4766 13.0806L18.3219 14.0204L20.0727 15.5181C19.8072 16.1295 19.4722 16.7083 19.0742 17.2431L16.8992 16.472L16.1633 17.0767C15.6031 17.536 14.9797 17.897 14.3047 18.1501L13.4117 18.4853L12.9922 20.7587C12.3302 20.8337 11.6619 20.8337 11 20.7587L10.5805 18.4806L9.69454 18.1407C9.02657 17.8876 8.40547 17.5267 7.85 17.0696L7.11407 16.4626L4.925 17.2407C4.52657 16.704 4.19375 16.1251 3.92657 15.5157L5.6961 14.004L5.54376 13.0665C5.4875 12.7173 5.45704 12.3563 5.45704 12.0001C5.45704 11.6415 5.48516 11.2829 5.54376 10.9337L5.6961 9.99619L3.92657 8.48447C4.19141 7.87275 4.52657 7.29619 4.925 6.75947L7.11407 7.5376L7.85 6.93057C8.40547 6.47354 9.02657 6.1126 9.69454 5.85947L10.5828 5.52432L11.0023 3.24619C11.6609 3.17119 12.3336 3.17119 12.9945 3.24619L13.4141 5.51963L14.307 5.85478C14.9797 6.10791 15.6055 6.46885 16.1656 6.92822L16.9016 7.53291L19.0766 6.76182C19.475 7.29853 19.8078 7.87744 20.075 8.48682L18.3242 9.98447L18.4766 10.9196ZM12.0008 7.64072C9.72266 7.64072 7.87579 9.4876 7.87579 11.7657C7.87579 14.0438 9.72266 15.8907 12.0008 15.8907C14.2789 15.8907 16.1258 14.0438 16.1258 11.7657C16.1258 9.4876 14.2789 7.64072 12.0008 7.64072ZM13.857 13.622C13.6136 13.8661 13.3242 14.0598 13.0057 14.1917C12.6871 14.3236 12.3456 14.3913 12.0008 14.3907C11.3 14.3907 10.6414 14.1165 10.1445 13.622C9.90037 13.3785 9.70676 13.0892 9.57482 12.7706C9.44289 12.452 9.37525 12.1105 9.37579 11.7657C9.37579 11.0649 9.65 10.4063 10.1445 9.90947C10.6414 9.4126 11.3 9.14072 12.0008 9.14072C12.7016 9.14072 13.3602 9.4126 13.857 9.90947C14.1012 10.1529 14.2948 10.4423 14.4267 10.7608C14.5587 11.0794 14.6263 11.4209 14.6258 11.7657C14.6258 12.4665 14.3516 13.1251 13.857 13.622Z" fill="#111B23"/>
</svg>
