<svg xmlns="http://www.w3.org/2000/svg" width="21" height="15" viewBox="0 0 21 15" fill="none">
    <path d="M18.5 2.5V12.5H2.5V2.5H18.5ZM18.5 0.5H2.5C1.4 0.5 0.51 1.4 0.51 2.5L0.5 12.5C0.5 13.6 1.4 14.5 2.5 14.5H18.5C19.6 14.5 20.5 13.6 20.5 12.5V2.5C20.5 1.4 19.6 0.5 18.5 0.5ZM9.5 3.5H11.5V5.5H9.5V3.5ZM9.5 6.5H11.5V8.5H9.5V6.5ZM6.5 3.5H8.5V5.5H6.5V3.5ZM6.5 6.5H8.5V8.5H6.5V6.5ZM3.5 6.5H5.5V8.5H3.5V6.5ZM3.5 3.5H5.5V5.5H3.5V3.5ZM6.5 9.5H14.5V11.5H6.5V9.5ZM12.5 6.5H14.5V8.5H12.5V6.5ZM12.5 3.5H14.5V5.5H12.5V3.5ZM15.5 6.5H17.5V8.5H15.5V6.5ZM15.5 3.5H17.5V5.5H15.5V3.5Z" fill="#2A5578"/>
</svg>
