<svg width="1440" height="1080" viewBox="0 0 1440 1080" fill="none" xmlns="http://www.w3.org/2000/svg">
<g clip-path="url(#clip0_160_10305)">
<rect width="1440" height="1080" fill="#F9FCFF"/>
<path opacity="0.28" fill-rule="evenodd" clip-rule="evenodd" d="M285.697 667.187L338.903 701.817L338.686 707.579C338.567 710.747 339.442 714.587 340.63 716.112C343.479 719.77 350.511 722.93 354.336 722.271C361.954 720.961 367.806 711.864 365.771 704.492C365.086 702.006 364.759 699.791 365.045 699.568C366.129 698.723 451.547 625.053 461.265 616.582C466.871 611.694 495.962 586.597 525.911 560.81C555.861 535.023 584.957 509.932 590.568 505.051C596.178 500.17 625.519 474.874 655.768 448.835C686.018 422.797 713.305 399.226 716.407 396.454C721.724 391.701 722.285 391.526 726.282 393.369C728.612 394.442 732.754 394.713 735.485 393.969C741.51 392.327 738.611 389.743 779.665 433.33C796.893 451.622 815.032 470.735 819.975 475.803C824.917 480.873 838.02 494.584 849.094 506.274C860.166 517.964 871.297 529.632 873.829 532.202C878.036 536.474 878.272 537.18 876.576 540.426C873.907 545.534 876.449 553.84 881.772 557.406C887.302 561.111 890.601 561.02 897.259 556.983L902.83 553.603L986.724 586.249L1070.62 618.892L1071.77 624.115C1073.19 630.563 1075.26 633.312 1080.52 635.738C1088.24 639.294 1097.69 633.876 1099.26 624.994C1099.91 621.318 1103.84 620.302 1259.32 583.583C1406.44 548.84 1418.87 546.15 1420.81 548.641C1423.61 552.233 1430.67 555.378 1434.46 554.725C1436.14 554.437 1439.06 552.995 1440.95 551.522L1444.39 548.845L1436.09 538.192C1429.41 529.618 1427.48 527.787 1426.16 528.81C1425.2 529.558 1423.1 528.789 1421.05 526.934C1414.59 521.093 1352.67 461.172 1351.37 459.504C1350.32 458.156 1351.52 456.909 1357.83 452.758C1363.58 448.977 1365.29 447.303 1364.47 446.258C1363.76 445.336 1360.46 446.693 1354.93 450.191C1349.69 453.497 1346.07 455.03 1345.41 454.216C1344.83 453.493 1338.28 447.09 1330.86 439.986C1321.31 430.846 1317.63 426.659 1318.27 425.663C1318.76 424.89 1319.33 422.301 1319.53 419.912L1319.91 415.568L1327.15 413.338C1335.73 410.694 1336.42 410.25 1334.94 408.349C1334.32 407.552 1330.27 408.128 1325.95 409.629C1315.57 413.232 1313.52 410.38 1319.46 400.615C1321.74 396.866 1323.07 393.11 1322.41 392.268C1320.89 390.314 1320.93 390.273 1316.14 398.394C1312.11 405.221 1312.08 405.241 1308.14 404.752C1304.2 404.262 1304.17 404.174 1297.16 377.362C1292.56 359.764 1289.14 349.467 1287.29 347.583C1285.12 345.374 1286.3 351.661 1292.34 374.549C1298.77 398.923 1299.83 404.802 1298.1 406.604C1296.74 408.02 1295.19 408.252 1293.79 407.254C1282.55 399.248 1082.21 250.427 1081.57 249.61C1081.11 249.016 1094.28 228.457 1110.84 203.924C1130.12 175.354 1140.53 158.788 1139.8 157.847C1139.17 157.038 1138.34 156.617 1137.97 156.91C1137.59 157.204 1124.15 177 1108.09 200.902C1092.04 224.804 1078.33 244.805 1077.61 245.349C1076.88 245.909 1060.98 234.928 1040.91 219.991L1005.5 193.645L1006.09 188.927C1006.41 186.333 1006.39 183.411 1006.04 182.434C1005.55 181.056 1016.59 173.799 1055.23 150.079C1110.61 116.076 1108.39 117.529 1107.26 116.083C1106.14 114.638 1102.98 116.033 1093.2 122.307C1088.57 125.273 1066.72 138.806 1044.64 152.38L1004.49 177.061L999.108 174.631C993.12 171.926 986.741 173.013 982.484 177.462C979.798 180.27 977.34 179.666 926.881 163.779C897.844 154.636 827.439 132.494 770.422 114.572L666.758 81.9872L665.321 76.7124C663.094 68.539 656.244 64.2474 648.656 66.2705C645.355 67.1504 641.896 67.0265 640.599 65.9791C639.35 64.9701 625.856 51.9681 610.613 37.0857C595.37 22.2025 567.418 -4.92586 548.497 -23.1993L514.096 -56.4249L515.909 -60.36C518.031 -64.9645 517.466 -67.4958 513.058 -73.1541C508.94 -78.4412 503.671 -80.047 498.207 -77.6838C494.319 -76.0029 493.313 -76.3163 487.862 -80.9172C484.54 -83.7203 435.49 -127.506 378.859 -178.22L275.895 -270.428L276.863 -276.517C278.114 -284.396 273.431 -291.137 265.61 -292.712C261.328 -293.574 259.564 -293.057 255.213 -289.668C250.863 -286.28 249.93 -284.695 249.719 -280.332C249.579 -277.443 250.024 -274.359 250.709 -273.48C252.401 -271.309 250.485 -269.264 230.051 -251.434C220.319 -242.94 188.88 -215.018 160.186 -189.383L108.018 -142.775L100.994 -144.116C94.1957 -145.413 93.7734 -145.282 87.8377 -140.069L81.7053 -134.683L-114.199 -153.109C-248.185 -165.711 -311.119 -170.966 -313.316 -169.735C-316.197 -168.119 -315.6 -167.856 -307.516 -167.181C-302.559 -166.767 -212.777 -158.334 -108.002 -148.44L82.5007 -130.452L85.5351 -125.331C87.2049 -122.514 88.5626 -120.103 88.5524 -119.973C88.5434 -119.844 62.8476 -77.8886 31.453 -26.7392L-25.628 66.2567L-30.2299 65.6846C-33.0424 65.3351 -36.1737 66.1581 -38.2815 67.8001C-40.5283 69.5504 -42.5299 70.0106 -44.0235 69.12C-45.2843 68.3688 -113.599 20.0305 -195.833 -38.298C-303.912 -114.956 -345.898 -144.072 -347.323 -143.351C-348.777 -142.616 -309.175 -113.891 -197.031 -34.3322C-113.285 25.0796 -44.8133 74.0796 -44.8734 74.5552C-44.9326 75.0319 -45.3135 75.3431 -45.7198 75.247C-46.1271 75.1498 -89.7821 64.3803 -142.733 51.3119C-209.31 34.8809 -238.382 28.3495 -236.982 30.1368C-235.681 31.7974 -219.246 36.589 -191.015 43.5363C-38.6444 81.0364 -45.8093 79.1006 -44.871 83.0293C-43.795 87.5372 -40.7671 85.1476 -95.7184 123.173C-119.739 139.796 -139.46 153.939 -139.542 154.603C-139.625 155.267 -139.092 155.884 -138.357 155.977C-137.621 156.067 -115.666 141.326 -89.5675 123.218C-63.4666 105.11 -41.6252 90.3548 -41.0288 90.429C-40.4332 90.502 -39.7019 91.4224 -39.4048 92.4721C-39.1077 93.5217 -50.1699 122.639 -63.9871 157.176C-85.2243 210.262 -90.4558 225.564 -86.2436 222.283C-85.8803 222 -74.102 192.956 -60.0712 157.742L-34.5603 93.7163L-28.9447 92.9904L-23.328 92.2636L-11.6145 106.074C-5.17258 113.671 12.8827 134.44 28.5098 152.229C44.1357 170.019 56.8699 184.99 56.8067 185.498C56.7436 186.007 34.5788 207.308 7.55207 232.832C-19.4746 258.357 -41.6489 279.727 -41.7215 280.32C-41.7962 280.914 -41.2312 281.477 -40.4673 281.572C-39.2725 281.72 16.878 229.834 42.952 204.486C60.5249 187.404 59.6943 187.903 63.5083 192.112C65.3513 194.145 81.008 211.949 98.3003 231.677C127.395 264.867 129.671 267.735 128.777 270.098C128.247 271.502 127.608 274.535 127.356 276.84L126.898 281.029L61.9412 305.18C4.74811 326.446 -7.16919 331.573 -0.61658 332.093C0.295038 332.165 29.7585 321.48 64.8598 308.346L128.68 284.468L131.178 287.675C132.798 289.755 135.813 291.149 139.755 291.639L145.833 292.394L178.167 358.218C195.95 394.422 210.446 424.481 210.38 425.019C210.314 425.556 176.144 422.053 134.447 417.234C81.8227 411.152 58.9643 409.145 59.7076 410.67C60.4108 412.112 71.9026 414.149 93.1498 416.597C152.51 423.435 205.985 429.735 210.045 430.366C214.043 430.988 214.169 431.215 239.884 483.699C254.087 512.689 283.308 572.157 304.82 615.851C326.332 659.544 343.86 695.993 343.772 696.846C343.684 697.7 342.587 698.149 341.333 697.845C340.08 697.542 313.86 680.837 283.067 660.725C252.272 640.615 226.729 624.093 226.304 624.011C225.878 623.93 227.096 625.819 229.01 628.209C231.079 630.793 254.081 646.609 285.697 667.187ZM299.294 595.831C273.744 543.886 245.201 485.904 235.866 466.979C226.532 448.056 218.939 432.215 218.993 431.778C219.047 431.341 250.141 434.59 288.091 438.998C332.016 444.098 357.427 447.766 358.016 449.087C359.089 451.493 364.38 458.2 366.971 460.439C368.062 461.382 365.566 504.2 360.488 571.627C355.946 631.937 352.063 684.262 351.861 687.904C351.495 694.514 348.829 696.992 346.814 692.597C346.229 691.319 324.845 647.775 299.294 595.831ZM364.277 576.924L372.972 461.328L378.024 458.378C381.548 456.321 383.721 453.965 385.206 450.594L387.336 445.76L452.477 433.788C620.724 402.862 717.552 385.245 718.575 385.372C723.145 385.94 721.21 387.669 577.016 511.938C558.638 527.777 505.332 573.772 458.559 614.149C359.335 699.805 361.393 698.119 358.642 695.997C357.522 695.136 356.376 694 356.094 693.474C355.812 692.95 359.494 640.502 364.277 576.924ZM181.876 357.105C164.304 321.485 149.828 291.433 149.707 290.324C149.586 289.213 150.113 288.382 150.879 288.477C151.948 288.61 358.633 438.584 359.785 440.062C361.816 442.67 345.756 441.462 286.32 434.534C238.049 428.907 215.359 425.594 214.737 424.081C214.236 422.862 199.448 392.723 181.876 357.105ZM-19.1382 86.324C-17.4583 84.1721 -15.5888 83.3643 -12.7366 83.5567C-10.519 83.7068 25.2717 85.1142 66.8001 86.6878L142.307 89.5459L144.896 94.1559C146.321 96.6895 147.425 99.3303 147.349 100.022C147.163 101.728 61.7487 181.861 60.3066 181.682C59.6771 181.604 47.8492 168.56 34.0217 152.698C20.1942 136.835 3.94214 118.378 -2.09427 111.683C-21.872 89.7456 -21.8439 89.7886 -19.1382 86.324ZM63.5851 184.845C64.1692 184.39 84.1372 165.579 107.96 143.041L151.274 102.065L155.306 102.567L159.337 103.069L156.487 127.349C154.921 140.703 150.698 176.888 147.106 207.759C140.747 262.39 140.465 263.921 136.57 265.112C132.928 266.223 132.145 265.806 127.868 260.491C125.284 257.277 111.065 240.967 96.2725 224.247C62.4962 186.07 62.3058 185.841 63.5851 184.845ZM-20.5548 70.0471C-20.2604 68.0754 105.989 -84.734 107.2 -84.5835C108.09 -84.4729 141.171 34.6814 149.273 66.9563C151.243 74.802 150.845 75.8979 143.183 83.7029C142.278 84.6255 106.006 84.0079 62.4831 82.3302C-15.2251 79.3332 -16.6087 79.2129 -18.6524 75.2644C-19.797 73.055 -20.653 70.7073 -20.5548 70.0471ZM154.609 280L155.309 275.52L201.036 261.547C226.188 253.862 248.178 247.205 249.905 246.755C252.834 245.992 253.353 246.468 257.605 253.811C260.112 258.141 275.329 284.268 291.418 311.87C356.705 423.875 363.085 434.936 362.963 435.914C362.893 436.475 362.025 436.435 361.034 435.827C357.461 433.634 155.9 286.761 154.918 285.634C154.364 285 154.225 282.465 154.609 280ZM154.343 181.966C159.524 137.653 164.6 100.747 165.622 99.9515C167.039 98.8475 167.913 99.341 169.311 102.032C170.83 104.957 213.981 179.191 242.905 228.639C247.019 235.673 250.331 241.706 250.263 242.042C250.195 242.38 228.512 249.235 202.078 257.276L154.015 271.895L150.294 268.571C148.246 266.742 146.2 264.636 145.747 263.89C145.292 263.144 149.162 226.279 154.343 181.966ZM40.9604 -34.6915C90.0663 -114.889 91.9715 -117.779 95.4078 -117.274C97.3671 -116.986 99.2121 -116.437 99.5091 -116.056C99.8061 -115.675 101.487 -109.856 103.245 -103.125L106.439 -90.8863L82.1104 -61.4544C68.7287 -45.2659 42.4885 -13.3989 23.7975 9.36193C5.10757 32.1218 -10.1264 50.2202 -10.0549 49.5789C-9.98453 48.9384 12.9726 11.0162 40.9604 -34.6915ZM348.319 402.249C339.715 387.406 331.465 373.156 329.988 370.582C328.509 368.008 317.527 349.19 305.582 328.765C274.089 274.911 257.289 245.74 257.369 245.049C257.407 244.716 284.207 236.281 316.921 226.304C349.636 216.327 386.862 204.94 399.645 200.998C412.427 197.056 423.451 193.866 424.14 193.909C424.831 193.952 426.983 195.674 428.923 197.737L432.453 201.486L404.671 310.361C389.391 370.242 376.13 422.098 375.203 425.595C373.804 430.869 372.957 432.049 370.236 432.517C368.433 432.827 366.283 432.216 365.459 431.158C364.636 430.101 356.922 417.091 348.319 402.249ZM453.473 343.32C492.608 292.229 525.034 249.763 525.532 248.95C526.1 248.023 538.255 255.298 558.082 268.433C575.488 279.963 618.951 308.621 654.667 332.12L719.608 374.843L717.887 378.137C716.379 381.024 712.683 382.074 688.067 386.61C602.466 402.384 437.532 432.596 426.615 434.502C419.637 435.72 407.528 437.995 399.706 439.556C386.922 442.108 385.324 442.082 383.901 439.302C382.392 436.352 385.575 431.96 453.473 343.32ZM407.12 317.172C428.041 235.203 437.106 202.181 438.809 201.75C440.121 201.417 442.974 200.124 445.147 198.875L449.099 196.604L485.718 220.935C505.858 234.317 522.278 245.735 522.208 246.307C522.136 246.878 491.15 287.733 453.347 337.094C415.545 386.454 383.293 428.59 381.676 430.727C379.89 433.088 378.556 434.099 378.278 433.303C378.025 432.581 391.004 380.323 407.12 317.172ZM244.248 223.619C240.284 216.671 222.057 185.359 203.746 154.037C173.989 103.136 168.676 93.1375 171.625 93.5933C172.503 93.7276 207.754 106.354 253.12 122.782C267.883 128.128 312.236 144.109 351.683 158.294C391.128 172.48 423.779 184.569 424.24 185.162C424.701 185.754 424.581 187.061 423.975 188.069C423.368 189.075 386.94 200.852 343.025 214.239C299.109 227.625 261.384 239.139 259.193 239.823C254.493 241.289 254.07 240.833 244.248 223.619ZM143.709 31.434C137.989 10.1244 128.376 -25.3614 122.348 -47.4223C116.32 -69.484 111.511 -88.5402 111.663 -89.77C111.975 -92.3048 253.039 -264.207 255.927 -265.571C256.955 -266.057 249.303 -237.135 238.922 -201.3C220.565 -137.935 200.549 -68.7653 172.76 27.351C165.289 53.1876 158.442 74.4065 157.54 74.504C155.311 74.7466 155.458 75.2033 143.709 31.434ZM171.088 84.8511C172.584 83.6192 363.106 -0.937951 364.317 -0.908002C365.021 -0.89044 380.413 38.6639 398.521 86.9911L431.444 174.859L428.364 177.789C425.519 180.495 424.289 180.35 412.289 175.896C405.141 173.244 382.173 164.953 361.247 157.47C340.321 149.988 316.095 141.292 307.411 138.147C298.729 135 264.606 122.712 231.584 110.837C178.817 91.863 168.141 87.277 171.088 84.8511ZM212.442 -95.4356C257.253 -250.455 263.159 -269.062 266.275 -265.062C267.297 -263.75 363.276 -7.14641 363.143 -6.08035C363.051 -5.33317 198.403 68.7254 173.582 79.1858C168.828 81.1885 168.22 81.0563 165.985 77.5275C163.708 73.9369 166.671 62.9077 212.442 -95.4356ZM106.24 -107.22C104.102 -115.268 104.026 -117.949 105.883 -119.818C110.924 -124.885 112.487 -129.361 110.907 -134.208C110.035 -136.887 109.597 -139.297 109.934 -139.563C110.27 -139.829 138.677 -165.201 173.059 -195.946C207.442 -226.691 237.181 -253.038 239.145 -254.494C242.272 -256.814 114.621 -100.084 111.04 -97.2073C109.221 -95.7451 109.366 -95.4424 106.24 -107.22ZM545.566 135.527C596.636 109.896 639.221 88.9816 640.198 89.0494C641.176 89.1163 641.924 89.5911 641.86 90.1037C641.744 91.0322 531.044 236.031 527.38 240.053C525.665 241.935 521.369 239.496 488.37 217.902L451.289 193.635L452.002 187.881L452.713 182.127L545.566 135.527ZM401.721 84.4984C383.857 36.9713 369.244 -2.2958 369.247 -2.76327C369.249 -3.23099 396.579 -15.7252 429.981 -30.5293L490.71 -57.445L494 -54.3309C495.812 -52.618 497.279 -51.0989 497.26 -50.9544C497.241 -50.8119 484.3 -0.418227 468.501 61.0289C441.744 165.102 437.206 180.081 434.727 172.519C434.437 171.634 419.585 132.025 401.721 84.4984ZM461.051 106.378C470.369 70.0051 482.608 22.2355 488.249 0.22254C502.441 -55.1584 500.509 -49.6461 506.422 -51.6183C509.172 -52.5352 511.529 -53.339 511.66 -53.4048C511.793 -53.4704 520.46 -45.2056 530.923 -35.0393C541.385 -24.8733 570.339 3.18078 595.267 27.3031C631.145 62.0229 640.361 71.5034 639.496 72.8046C638.156 74.8155 637.331 80.8533 638.097 83.0186C638.476 84.0896 607.914 100.014 544.718 131.681C493.05 157.572 450.682 178.819 450.569 178.898C450.105 179.22 446.181 175.814 445.183 174.221C444.593 173.281 451.733 142.75 461.051 106.378ZM542.704 226.803C549.953 217.347 575.953 183.339 600.481 151.229L645.078 92.8473L649.875 93.5811L654.671 94.3131L690.508 230.534C722.562 352.372 726.095 367.005 723.976 369.111C721.705 371.367 717.639 368.863 627.097 309.443C575.117 275.331 531.899 246.649 531.057 245.709C529.862 244.374 532.426 240.212 542.704 226.803ZM318.903 -136.482C292.562 -206.691 271.081 -264.947 271.17 -265.941C271.257 -266.935 271.841 -267.684 272.466 -267.607C273.442 -267.485 328.433 -218.536 459.497 -101.124L490.654 -73.2125L489.444 -66.8701L488.236 -60.5284L432.499 -35.7995C366.124 -6.34987 368.081 -7.18319 367.367 -8.10043C367.054 -8.5018 345.246 -66.2732 318.903 -136.482ZM825.147 433.928L906.62 478.565L906.214 482.942C905.965 485.636 906.991 488.905 908.881 491.438C911.953 495.555 911.953 495.557 903.172 514.01C895.289 530.577 894.067 532.442 891.241 532.233C889.51 532.105 886.378 532.527 884.28 533.174C880.68 534.281 879.994 533.826 872.001 525.046C867.344 519.931 859.93 512.067 855.526 507.57C845.718 497.556 841.997 493.665 821.458 471.946C812.554 462.53 793.229 442.314 778.513 427.02C763.797 411.727 749.939 396.982 747.716 394.253C744.306 390.065 756.375 396.249 825.147 433.928ZM745.244 379.262L744.684 373.34L777.72 348.682C795.89 335.12 811.103 324.041 811.529 324.063C812.188 324.097 842.056 368.427 851.228 382.987C852.904 385.646 866.704 406.517 881.895 429.369C906.959 467.072 911.467 474.839 908.04 474.413C906.677 474.245 747.298 386.984 746.421 385.927C746.08 385.519 745.55 382.519 745.244 379.262ZM693.863 227.939C672.128 145.34 659.553 94.9755 661.03 96.4483C662.902 98.3126 741.017 215.584 759.216 243.851C761.34 247.151 773.378 265.342 785.965 284.275C798.554 303.208 808.812 319.311 808.762 320.06C808.711 320.807 793.962 332.373 775.982 345.759L743.294 370.099L737.365 368.248C734.103 367.229 730.907 365.365 730.262 364.105C729.617 362.847 713.238 301.571 693.863 227.939ZM903.864 545.36C904.915 543.616 961.954 525.166 965.453 525.437C967.224 525.575 1070.1 611.541 1071.17 613.774C1072.03 615.571 905.531 550.827 903.841 548.706C903.216 547.922 903.227 546.416 903.864 545.36ZM906.654 515.576C915.054 498.147 915.724 497.167 918.967 497.57C920.852 497.804 924.076 497.155 926.128 496.127C928.18 495.099 929.995 494.432 930.16 494.644C930.325 494.856 937.358 500.766 945.788 507.779C954.218 514.791 961.067 520.921 961.007 521.4C960.911 522.178 951.712 525.151 913.795 536.655C903.559 539.761 902.281 539.798 900.138 537.046C897.977 534.272 898.539 532.416 906.654 515.576ZM880.146 419.92C823.412 334.403 815.81 322.688 816.123 321.256C816.303 320.439 853.533 292.146 898.858 258.383C983.589 195.268 983.336 195.439 986.578 199.396C986.887 199.775 972.34 260.759 954.25 334.914C921.507 469.137 921.34 469.745 917.194 470.084C913.495 470.386 912.647 469.795 909.592 464.772C907.701 461.665 894.449 441.481 880.146 419.92ZM933.583 486.827C934.772 483.342 937.247 482.755 983.362 474.99C1010.05 470.496 1084.52 457.886 1148.84 446.968C1213.16 436.05 1266.66 427.197 1267.73 427.294C1268.79 427.391 1265.42 428.79 1260.24 430.403C1250.72 433.365 1075.55 487.119 1013.8 506.031C995.395 511.665 977.273 517.233 973.524 518.404C966.902 520.472 966.533 520.382 960.488 515.231C957.065 512.315 950.212 506.601 945.259 502.532C933.259 492.678 932.113 491.136 933.583 486.827ZM958.525 334.483C975.713 264.333 990.067 205.507 990.42 203.76C990.879 201.488 991.732 200.601 993.403 200.651C994.69 200.688 997.329 199.756 999.27 198.581L1002.8 196.442L1038.76 223.117C1058.55 237.788 1074.68 250.056 1074.62 250.379C1074.57 250.699 1041.42 300.052 1000.96 360.049C960.504 420.046 927.099 469.786 926.73 470.584C924.153 476.133 931.055 446.596 958.525 334.483ZM959.851 428.111C1069.79 264.8 1077.92 252.95 1079.49 253.622C1080.4 254.01 1128.76 289.654 1186.97 332.832C1290.96 409.986 1292.77 411.401 1292.3 415.124C1291.84 418.845 1290.53 419.131 1219.38 431.138C1179.53 437.862 1103.62 450.719 1050.67 459.708C922.385 481.49 934.789 479.772 931.959 476.139C929.6 473.112 929.871 472.647 959.851 428.111ZM974.58 522.178C1001.94 513.622 1292.77 424.49 1293.32 424.493C1293.74 424.495 1294 425.131 1293.9 425.906C1293.8 426.681 1249.17 468.679 1194.71 519.234C1105.66 601.895 1095.44 611.065 1093.19 610.263C1087.94 608.389 1083.3 608.363 1079.65 610.19C1076.25 611.893 1075.23 611.545 1069.63 606.788C1066.21 603.874 1043.05 584.506 1018.18 563.749C993.301 542.991 972.419 525.427 971.773 524.716C970.887 523.745 971.581 523.116 974.58 522.178ZM794.815 290.895C770.061 253.423 762.946 242.68 747.975 220.174C698.445 145.706 662.483 90.8168 662.336 89.4627C661.91 85.5441 666.563 86.0889 686.103 92.2437C735.498 107.802 829.513 137.363 901.106 159.845L978.127 184.031L978.838 188.92C979.481 193.334 979.006 194.233 973.948 198.181C966.359 204.105 871.195 274.731 854.654 286.714C847.371 291.992 834.901 301.32 826.945 307.443L812.479 318.576L808.952 312.765C807.012 309.569 800.65 299.728 794.815 290.895ZM1196.08 555.01C1249.19 521.434 1304.56 486.381 1319.13 477.117C1333.69 467.852 1345.85 460.302 1346.14 460.337C1346.74 460.411 1418.19 529.084 1419.74 531.079C1420.29 531.782 1420.12 534.557 1419.37 537.244L1418.01 542.131L1265.29 578.229C1181.3 598.083 1109.58 615.073 1105.93 615.984C1102.27 616.896 1099.33 617.285 1099.4 616.851C1099.46 616.415 1142.96 588.588 1196.08 555.01ZM1140.42 574.34C1159 557.166 1201.24 517.993 1234.3 487.29C1267.36 456.588 1294.91 431.076 1295.52 430.595C1296.14 430.116 1298.65 430.551 1301.1 431.564C1303.91 432.724 1307.2 432.686 1310.03 431.459L1314.5 429.516L1328.17 442.64C1335.69 449.859 1341.76 456.407 1341.67 457.193C1341.52 458.382 1203.38 546.865 1175.68 563.515C1170.95 566.354 1153.72 577.27 1137.37 587.772C1121.03 598.273 1107.43 606.573 1107.15 606.216C1106.88 605.859 1121.85 591.516 1140.42 574.34Z" fill="url(#paint0_linear_160_10305)" fill-opacity="0.6"/>
<path d="M496.052 401V389.8H503.108V391.464H497.78V399.336H503.108V401H496.052ZM496.836 396.088V394.424H502.228V396.088H496.836ZM505.433 401V392.6H507.097V394.392L506.793 394.584C506.878 394.307 507.011 394.04 507.193 393.784C507.385 393.528 507.614 393.304 507.881 393.112C508.158 392.909 508.451 392.749 508.761 392.632C509.081 392.515 509.406 392.456 509.737 392.456C510.217 392.456 510.638 392.536 511.001 392.696C511.363 392.856 511.662 393.096 511.897 393.416C512.131 393.736 512.302 394.136 512.409 394.616L512.153 394.552L512.265 394.28C512.382 394.035 512.542 393.805 512.745 393.592C512.958 393.368 513.198 393.171 513.465 393C513.731 392.829 514.014 392.696 514.312 392.6C514.611 392.504 514.905 392.456 515.193 392.456C515.822 392.456 516.339 392.584 516.745 392.84C517.161 393.096 517.47 393.485 517.673 394.008C517.886 394.531 517.993 395.181 517.993 395.96V401H516.329V396.056C516.329 395.576 516.265 395.187 516.137 394.888C516.019 394.579 515.838 394.349 515.593 394.2C515.347 394.051 515.033 393.976 514.649 393.976C514.35 393.976 514.067 394.029 513.801 394.136C513.545 394.232 513.321 394.371 513.128 394.552C512.937 394.733 512.787 394.947 512.681 395.192C512.574 395.427 512.521 395.688 512.521 395.976V401H510.857V396.024C510.857 395.587 510.793 395.219 510.665 394.92C510.537 394.611 510.35 394.376 510.105 394.216C509.859 394.056 509.561 393.976 509.209 393.976C508.91 393.976 508.633 394.029 508.377 394.136C508.121 394.232 507.897 394.371 507.705 394.552C507.513 394.723 507.363 394.931 507.257 395.176C507.15 395.411 507.097 395.667 507.097 395.944V401H505.433ZM523.431 401.16C522.738 401.16 522.103 400.968 521.527 400.584C520.962 400.2 520.508 399.677 520.167 399.016C519.826 398.355 519.655 397.608 519.655 396.776C519.655 395.933 519.826 395.187 520.167 394.536C520.519 393.875 520.988 393.357 521.575 392.984C522.172 392.611 522.839 392.424 523.575 392.424C524.012 392.424 524.412 392.488 524.775 392.616C525.138 392.744 525.452 392.925 525.719 393.16C525.996 393.384 526.22 393.645 526.391 393.944C526.572 394.243 526.684 394.563 526.727 394.904L526.359 394.776V392.6H528.023V401H526.359V399L526.743 398.888C526.679 399.176 526.546 399.459 526.343 399.736C526.151 400.003 525.9 400.243 525.591 400.456C525.292 400.669 524.956 400.84 524.583 400.968C524.22 401.096 523.836 401.16 523.431 401.16ZM523.863 399.64C524.364 399.64 524.807 399.517 525.191 399.272C525.575 399.027 525.874 398.691 526.087 398.264C526.311 397.827 526.423 397.331 526.423 396.776C526.423 396.232 526.311 395.747 526.087 395.32C525.874 394.893 525.575 394.557 525.191 394.312C524.807 394.067 524.364 393.944 523.863 393.944C523.372 393.944 522.935 394.067 522.551 394.312C522.178 394.557 521.879 394.893 521.655 395.32C521.442 395.747 521.335 396.232 521.335 396.776C521.335 397.331 521.442 397.827 521.655 398.264C521.879 398.691 522.178 399.027 522.551 399.272C522.935 399.517 523.372 399.64 523.863 399.64ZM530.596 401V392.6H532.244V401H530.596ZM531.396 390.744C531.044 390.744 530.772 390.653 530.58 390.472C530.388 390.291 530.292 390.035 530.292 389.704C530.292 389.395 530.388 389.144 530.58 388.952C530.783 388.76 531.055 388.664 531.396 388.664C531.748 388.664 532.02 388.755 532.212 388.936C532.404 389.117 532.5 389.373 532.5 389.704C532.5 390.013 532.399 390.264 532.196 390.456C532.004 390.648 531.737 390.744 531.396 390.744ZM534.809 401V389.16H536.457V401H534.809ZM542.525 401L546.861 389.8H548.621L552.925 401H551.085L548.525 394.248C548.493 394.173 548.429 393.992 548.333 393.704C548.248 393.416 548.146 393.096 548.029 392.744C547.912 392.392 547.805 392.072 547.709 391.784C547.613 391.485 547.549 391.293 547.517 391.208L547.885 391.192C547.821 391.373 547.741 391.603 547.645 391.88C547.56 392.157 547.464 392.451 547.357 392.76C547.261 393.069 547.165 393.363 547.069 393.64C546.973 393.907 546.893 394.131 546.829 394.312L544.285 401H542.525ZM544.445 398.216L545.085 396.552H550.173L550.909 398.216H544.445ZM557.672 401.16C556.904 401.16 556.216 400.973 555.608 400.6C555.01 400.216 554.536 399.699 554.184 399.048C553.832 398.387 553.656 397.635 553.656 396.792C553.656 395.949 553.826 395.203 554.168 394.552C554.52 393.891 554.994 393.373 555.592 393C556.189 392.616 556.866 392.424 557.624 392.424C558.04 392.424 558.44 392.493 558.824 392.632C559.218 392.76 559.57 392.941 559.88 393.176C560.189 393.4 560.429 393.651 560.6 393.928C560.781 394.195 560.872 394.467 560.872 394.744L560.392 394.776V389.16H562.04V401H560.392V399H560.712C560.712 399.256 560.626 399.512 560.456 399.768C560.285 400.013 560.056 400.243 559.768 400.456C559.49 400.669 559.165 400.84 558.792 400.968C558.429 401.096 558.056 401.16 557.672 401.16ZM557.896 399.736C558.397 399.736 558.84 399.608 559.224 399.352C559.608 399.096 559.906 398.749 560.12 398.312C560.344 397.864 560.456 397.357 560.456 396.792C560.456 396.227 560.344 395.725 560.12 395.288C559.906 394.84 559.608 394.488 559.224 394.232C558.84 393.976 558.397 393.848 557.896 393.848C557.394 393.848 556.952 393.976 556.568 394.232C556.184 394.488 555.88 394.84 555.656 395.288C555.442 395.725 555.336 396.227 555.336 396.792C555.336 397.357 555.442 397.864 555.656 398.312C555.88 398.749 556.184 399.096 556.568 399.352C556.952 399.608 557.394 399.736 557.896 399.736ZM567.812 401.16C567.044 401.16 566.356 400.973 565.748 400.6C565.151 400.216 564.676 399.699 564.324 399.048C563.972 398.387 563.796 397.635 563.796 396.792C563.796 395.949 563.967 395.203 564.308 394.552C564.66 393.891 565.135 393.373 565.732 393C566.33 392.616 567.007 392.424 567.764 392.424C568.18 392.424 568.58 392.493 568.964 392.632C569.359 392.76 569.711 392.941 570.02 393.176C570.33 393.4 570.57 393.651 570.74 393.928C570.922 394.195 571.012 394.467 571.012 394.744L570.532 394.776V389.16H572.18V401H570.532V399H570.852C570.852 399.256 570.767 399.512 570.596 399.768C570.426 400.013 570.196 400.243 569.908 400.456C569.631 400.669 569.306 400.84 568.932 400.968C568.57 401.096 568.196 401.16 567.812 401.16ZM568.036 399.736C568.538 399.736 568.98 399.608 569.364 399.352C569.748 399.096 570.047 398.749 570.26 398.312C570.484 397.864 570.596 397.357 570.596 396.792C570.596 396.227 570.484 395.725 570.26 395.288C570.047 394.84 569.748 394.488 569.364 394.232C568.98 393.976 568.538 393.848 568.036 393.848C567.535 393.848 567.092 393.976 566.708 394.232C566.324 394.488 566.02 394.84 565.796 395.288C565.583 395.725 565.476 396.227 565.476 396.792C565.476 397.357 565.583 397.864 565.796 398.312C566.02 398.749 566.324 399.096 566.708 399.352C567.092 399.608 567.535 399.736 568.036 399.736ZM574.449 401V392.6H576.113V395.24L575.953 394.6C576.07 394.195 576.268 393.827 576.545 393.496C576.833 393.165 577.158 392.904 577.521 392.712C577.894 392.52 578.278 392.424 578.673 392.424C578.854 392.424 579.025 392.44 579.185 392.472C579.356 392.504 579.489 392.541 579.585 392.584L579.153 394.376C579.025 394.323 578.881 394.28 578.721 394.248C578.572 394.205 578.422 394.184 578.273 394.184C577.985 394.184 577.708 394.243 577.441 394.36C577.185 394.467 576.956 394.621 576.753 394.824C576.561 395.016 576.406 395.245 576.289 395.512C576.172 395.768 576.113 396.051 576.113 396.36V401H574.449ZM584.463 401.16C583.599 401.16 582.831 400.979 582.159 400.616C581.497 400.243 580.975 399.736 580.591 399.096C580.217 398.456 580.031 397.72 580.031 396.888C580.031 396.227 580.137 395.624 580.351 395.08C580.564 394.536 580.857 394.067 581.231 393.672C581.615 393.267 582.068 392.957 582.591 392.744C583.124 392.52 583.7 392.408 584.319 392.408C584.863 392.408 585.369 392.515 585.839 392.728C586.308 392.931 586.713 393.213 587.055 393.576C587.407 393.939 587.673 394.371 587.855 394.872C588.047 395.363 588.137 395.901 588.127 396.488L588.111 397.192H581.247L580.879 395.88H586.687L586.447 396.152V395.768C586.415 395.416 586.297 395.101 586.095 394.824C585.892 394.547 585.636 394.328 585.327 394.168C585.017 394.008 584.681 393.928 584.319 393.928C583.743 393.928 583.257 394.04 582.863 394.264C582.468 394.477 582.169 394.797 581.967 395.224C581.764 395.64 581.663 396.157 581.663 396.776C581.663 397.363 581.785 397.875 582.031 398.312C582.276 398.739 582.623 399.069 583.071 399.304C583.519 399.539 584.036 399.656 584.623 399.656C585.039 399.656 585.423 399.587 585.775 399.448C586.137 399.309 586.527 399.059 586.943 398.696L587.775 399.864C587.519 400.12 587.204 400.344 586.831 400.536C586.468 400.728 586.079 400.883 585.663 401C585.257 401.107 584.857 401.16 584.463 401.16ZM592.718 401.16C592.014 401.16 591.379 401.037 590.814 400.792C590.248 400.547 589.779 400.184 589.406 399.704L590.526 398.744C590.846 399.117 591.192 399.389 591.566 399.56C591.95 399.72 592.382 399.8 592.862 399.8C593.054 399.8 593.23 399.779 593.39 399.736C593.56 399.683 593.704 399.608 593.822 399.512C593.95 399.416 594.046 399.304 594.11 399.176C594.174 399.037 594.206 398.888 594.206 398.728C594.206 398.451 594.104 398.227 593.902 398.056C593.795 397.981 593.624 397.901 593.39 397.816C593.166 397.72 592.872 397.624 592.51 397.528C591.891 397.368 591.384 397.187 590.99 396.984C590.595 396.781 590.291 396.552 590.078 396.296C589.918 396.093 589.8 395.875 589.726 395.64C589.651 395.395 589.614 395.128 589.614 394.84C589.614 394.488 589.688 394.168 589.838 393.88C589.998 393.581 590.211 393.325 590.478 393.112C590.755 392.888 591.075 392.717 591.438 392.6C591.811 392.483 592.206 392.424 592.622 392.424C593.016 392.424 593.406 392.477 593.79 392.584C594.184 392.691 594.547 392.845 594.878 393.048C595.208 393.251 595.486 393.491 595.71 393.768L594.766 394.808C594.563 394.605 594.339 394.429 594.094 394.28C593.859 394.12 593.619 393.997 593.374 393.912C593.128 393.827 592.904 393.784 592.702 393.784C592.478 393.784 592.275 393.805 592.094 393.848C591.912 393.891 591.758 393.955 591.63 394.04C591.512 394.125 591.422 394.232 591.358 394.36C591.294 394.488 591.262 394.632 591.262 394.792C591.272 394.931 591.304 395.064 591.358 395.192C591.422 395.309 591.507 395.411 591.614 395.496C591.731 395.581 591.907 395.672 592.142 395.768C592.376 395.864 592.675 395.955 593.038 396.04C593.571 396.179 594.008 396.333 594.35 396.504C594.702 396.664 594.979 396.851 595.182 397.064C595.395 397.267 595.544 397.501 595.63 397.768C595.715 398.035 595.758 398.333 595.758 398.664C595.758 399.144 595.619 399.576 595.342 399.96C595.075 400.333 594.712 400.627 594.254 400.84C593.795 401.053 593.283 401.16 592.718 401.16ZM600.374 401.16C599.67 401.16 599.035 401.037 598.47 400.792C597.905 400.547 597.435 400.184 597.062 399.704L598.182 398.744C598.502 399.117 598.849 399.389 599.222 399.56C599.606 399.72 600.038 399.8 600.518 399.8C600.71 399.8 600.886 399.779 601.046 399.736C601.217 399.683 601.361 399.608 601.478 399.512C601.606 399.416 601.702 399.304 601.766 399.176C601.83 399.037 601.862 398.888 601.862 398.728C601.862 398.451 601.761 398.227 601.558 398.056C601.451 397.981 601.281 397.901 601.046 397.816C600.822 397.72 600.529 397.624 600.166 397.528C599.547 397.368 599.041 397.187 598.646 396.984C598.251 396.781 597.947 396.552 597.734 396.296C597.574 396.093 597.457 395.875 597.382 395.64C597.307 395.395 597.27 395.128 597.27 394.84C597.27 394.488 597.345 394.168 597.494 393.88C597.654 393.581 597.867 393.325 598.134 393.112C598.411 392.888 598.731 392.717 599.094 392.6C599.467 392.483 599.862 392.424 600.278 392.424C600.673 392.424 601.062 392.477 601.446 392.584C601.841 392.691 602.203 392.845 602.534 393.048C602.865 393.251 603.142 393.491 603.366 393.768L602.422 394.808C602.219 394.605 601.995 394.429 601.75 394.28C601.515 394.12 601.275 393.997 601.03 393.912C600.785 393.827 600.561 393.784 600.358 393.784C600.134 393.784 599.931 393.805 599.75 393.848C599.569 393.891 599.414 393.955 599.286 394.04C599.169 394.125 599.078 394.232 599.014 394.36C598.95 394.488 598.918 394.632 598.918 394.792C598.929 394.931 598.961 395.064 599.014 395.192C599.078 395.309 599.163 395.411 599.27 395.496C599.387 395.581 599.563 395.672 599.798 395.768C600.033 395.864 600.331 395.955 600.694 396.04C601.227 396.179 601.665 396.333 602.006 396.504C602.358 396.664 602.635 396.851 602.838 397.064C603.051 397.267 603.201 397.501 603.286 397.768C603.371 398.035 603.414 398.333 603.414 398.664C603.414 399.144 603.275 399.576 602.998 399.96C602.731 400.333 602.369 400.627 601.91 400.84C601.451 401.053 600.939 401.16 600.374 401.16Z" fill="#263238"/>
<rect x="490.5" y="409.5" width="459" height="51" rx="4.5" fill="white"/>
<path d="M507.568 441V429.8H514.624V431.464H509.296V439.336H514.624V441H507.568ZM508.352 436.088V434.424H513.744V436.088H508.352ZM516.948 441V432.6H518.612V434.392L518.308 434.584C518.393 434.307 518.527 434.04 518.708 433.784C518.9 433.528 519.129 433.304 519.396 433.112C519.673 432.909 519.967 432.749 520.276 432.632C520.596 432.515 520.921 432.456 521.252 432.456C521.732 432.456 522.153 432.536 522.516 432.696C522.879 432.856 523.177 433.096 523.412 433.416C523.647 433.736 523.817 434.136 523.924 434.616L523.668 434.552L523.78 434.28C523.897 434.035 524.057 433.805 524.26 433.592C524.473 433.368 524.713 433.171 524.98 433C525.247 432.829 525.529 432.696 525.828 432.6C526.127 432.504 526.42 432.456 526.708 432.456C527.337 432.456 527.855 432.584 528.26 432.84C528.676 433.096 528.985 433.485 529.188 434.008C529.401 434.531 529.508 435.181 529.508 435.96V441H527.844V436.056C527.844 435.576 527.78 435.187 527.652 434.888C527.535 434.579 527.353 434.349 527.108 434.2C526.863 434.051 526.548 433.976 526.164 433.976C525.865 433.976 525.583 434.029 525.316 434.136C525.06 434.232 524.836 434.371 524.644 434.552C524.452 434.733 524.303 434.947 524.196 435.192C524.089 435.427 524.036 435.688 524.036 435.976V441H522.372V436.024C522.372 435.587 522.308 435.219 522.18 434.92C522.052 434.611 521.865 434.376 521.62 434.216C521.375 434.056 521.076 433.976 520.724 433.976C520.425 433.976 520.148 434.029 519.892 434.136C519.636 434.232 519.412 434.371 519.22 434.552C519.028 434.723 518.879 434.931 518.772 435.176C518.665 435.411 518.612 435.667 518.612 435.944V441H516.948ZM534.947 441.16C534.253 441.16 533.619 440.968 533.043 440.584C532.477 440.2 532.024 439.677 531.683 439.016C531.341 438.355 531.171 437.608 531.171 436.776C531.171 435.933 531.341 435.187 531.683 434.536C532.035 433.875 532.504 433.357 533.091 432.984C533.688 432.611 534.355 432.424 535.091 432.424C535.528 432.424 535.928 432.488 536.291 432.616C536.653 432.744 536.968 432.925 537.235 433.16C537.512 433.384 537.736 433.645 537.907 433.944C538.088 434.243 538.2 434.563 538.243 434.904L537.875 434.776V432.6H539.539V441H537.875V439L538.259 438.888C538.195 439.176 538.061 439.459 537.859 439.736C537.667 440.003 537.416 440.243 537.107 440.456C536.808 440.669 536.472 440.84 536.099 440.968C535.736 441.096 535.352 441.16 534.947 441.16ZM535.379 439.64C535.88 439.64 536.323 439.517 536.707 439.272C537.091 439.027 537.389 438.691 537.603 438.264C537.827 437.827 537.939 437.331 537.939 436.776C537.939 436.232 537.827 435.747 537.603 435.32C537.389 434.893 537.091 434.557 536.707 434.312C536.323 434.067 535.88 433.944 535.379 433.944C534.888 433.944 534.451 434.067 534.067 434.312C533.693 434.557 533.395 434.893 533.171 435.32C532.957 435.747 532.851 436.232 532.851 436.776C532.851 437.331 532.957 437.827 533.171 438.264C533.395 438.691 533.693 439.027 534.067 439.272C534.451 439.517 534.888 439.64 535.379 439.64ZM542.112 441V432.6H543.76V441H542.112ZM542.912 430.744C542.56 430.744 542.288 430.653 542.096 430.472C541.904 430.291 541.808 430.035 541.808 429.704C541.808 429.395 541.904 429.144 542.096 428.952C542.298 428.76 542.57 428.664 542.912 428.664C543.264 428.664 543.536 428.755 543.728 428.936C543.92 429.117 544.016 429.373 544.016 429.704C544.016 430.013 543.914 430.264 543.712 430.456C543.52 430.648 543.253 430.744 542.912 430.744ZM546.325 441V429.16H547.973V441H546.325ZM554.041 441L558.377 429.8H560.137L564.441 441H562.601L560.041 434.248C560.009 434.173 559.945 433.992 559.849 433.704C559.763 433.416 559.662 433.096 559.545 432.744C559.427 432.392 559.321 432.072 559.225 431.784C559.129 431.485 559.065 431.293 559.033 431.208L559.401 431.192C559.337 431.373 559.257 431.603 559.161 431.88C559.075 432.157 558.979 432.451 558.873 432.76C558.777 433.069 558.681 433.363 558.585 433.64C558.489 433.907 558.409 434.131 558.345 434.312L555.801 441H554.041ZM555.961 438.216L556.601 436.552H561.689L562.425 438.216H555.961ZM569.187 441.16C568.419 441.16 567.731 440.973 567.123 440.6C566.526 440.216 566.051 439.699 565.699 439.048C565.347 438.387 565.171 437.635 565.171 436.792C565.171 435.949 565.342 435.203 565.683 434.552C566.035 433.891 566.51 433.373 567.107 433C567.705 432.616 568.382 432.424 569.139 432.424C569.555 432.424 569.955 432.493 570.339 432.632C570.734 432.76 571.086 432.941 571.395 433.176C571.705 433.4 571.945 433.651 572.115 433.928C572.297 434.195 572.387 434.467 572.387 434.744L571.907 434.776V429.16H573.555V441H571.907V439H572.227C572.227 439.256 572.142 439.512 571.971 439.768C571.801 440.013 571.571 440.243 571.283 440.456C571.006 440.669 570.681 440.84 570.307 440.968C569.945 441.096 569.571 441.16 569.187 441.16ZM569.411 439.736C569.913 439.736 570.355 439.608 570.739 439.352C571.123 439.096 571.422 438.749 571.635 438.312C571.859 437.864 571.971 437.357 571.971 436.792C571.971 436.227 571.859 435.725 571.635 435.288C571.422 434.84 571.123 434.488 570.739 434.232C570.355 433.976 569.913 433.848 569.411 433.848C568.91 433.848 568.467 433.976 568.083 434.232C567.699 434.488 567.395 434.84 567.171 435.288C566.958 435.725 566.851 436.227 566.851 436.792C566.851 437.357 566.958 437.864 567.171 438.312C567.395 438.749 567.699 439.096 568.083 439.352C568.467 439.608 568.91 439.736 569.411 439.736ZM579.328 441.16C578.56 441.16 577.872 440.973 577.264 440.6C576.667 440.216 576.192 439.699 575.84 439.048C575.488 438.387 575.312 437.635 575.312 436.792C575.312 435.949 575.483 435.203 575.824 434.552C576.176 433.891 576.651 433.373 577.248 433C577.845 432.616 578.523 432.424 579.28 432.424C579.696 432.424 580.096 432.493 580.48 432.632C580.875 432.76 581.227 432.941 581.536 433.176C581.845 433.4 582.085 433.651 582.256 433.928C582.437 434.195 582.528 434.467 582.528 434.744L582.048 434.776V429.16H583.696V441H582.048V439H582.368C582.368 439.256 582.283 439.512 582.112 439.768C581.941 440.013 581.712 440.243 581.424 440.456C581.147 440.669 580.821 440.84 580.448 440.968C580.085 441.096 579.712 441.16 579.328 441.16ZM579.552 439.736C580.053 439.736 580.496 439.608 580.88 439.352C581.264 439.096 581.563 438.749 581.776 438.312C582 437.864 582.112 437.357 582.112 436.792C582.112 436.227 582 435.725 581.776 435.288C581.563 434.84 581.264 434.488 580.88 434.232C580.496 433.976 580.053 433.848 579.552 433.848C579.051 433.848 578.608 433.976 578.224 434.232C577.84 434.488 577.536 434.84 577.312 435.288C577.099 435.725 576.992 436.227 576.992 436.792C576.992 437.357 577.099 437.864 577.312 438.312C577.536 438.749 577.84 439.096 578.224 439.352C578.608 439.608 579.051 439.736 579.552 439.736ZM585.965 441V432.6H587.629V435.24L587.469 434.6C587.586 434.195 587.783 433.827 588.061 433.496C588.349 433.165 588.674 432.904 589.036 432.712C589.41 432.52 589.794 432.424 590.189 432.424C590.37 432.424 590.541 432.44 590.701 432.472C590.871 432.504 591.005 432.541 591.101 432.584L590.669 434.376C590.541 434.323 590.397 434.28 590.237 434.248C590.087 434.205 589.938 434.184 589.789 434.184C589.501 434.184 589.223 434.243 588.957 434.36C588.701 434.467 588.471 434.621 588.269 434.824C588.077 435.016 587.922 435.245 587.805 435.512C587.687 435.768 587.629 436.051 587.629 436.36V441H585.965ZM595.978 441.16C595.114 441.16 594.346 440.979 593.674 440.616C593.013 440.243 592.49 439.736 592.106 439.096C591.733 438.456 591.546 437.72 591.546 436.888C591.546 436.227 591.653 435.624 591.866 435.08C592.08 434.536 592.373 434.067 592.746 433.672C593.13 433.267 593.584 432.957 594.106 432.744C594.64 432.52 595.216 432.408 595.834 432.408C596.378 432.408 596.885 432.515 597.354 432.728C597.824 432.931 598.229 433.213 598.57 433.576C598.922 433.939 599.189 434.371 599.37 434.872C599.562 435.363 599.653 435.901 599.642 436.488L599.626 437.192H592.762L592.394 435.88H598.202L597.962 436.152V435.768C597.93 435.416 597.813 435.101 597.61 434.824C597.408 434.547 597.152 434.328 596.842 434.168C596.533 434.008 596.197 433.928 595.834 433.928C595.258 433.928 594.773 434.04 594.378 434.264C593.984 434.477 593.685 434.797 593.482 435.224C593.28 435.64 593.178 436.157 593.178 436.776C593.178 437.363 593.301 437.875 593.546 438.312C593.792 438.739 594.138 439.069 594.586 439.304C595.034 439.539 595.552 439.656 596.138 439.656C596.554 439.656 596.938 439.587 597.29 439.448C597.653 439.309 598.042 439.059 598.458 438.696L599.29 439.864C599.034 440.12 598.72 440.344 598.346 440.536C597.984 440.728 597.594 440.883 597.178 441C596.773 441.107 596.373 441.16 595.978 441.16ZM604.233 441.16C603.529 441.16 602.895 441.037 602.329 440.792C601.764 440.547 601.295 440.184 600.921 439.704L602.041 438.744C602.361 439.117 602.708 439.389 603.081 439.56C603.465 439.72 603.897 439.8 604.377 439.8C604.569 439.8 604.745 439.779 604.905 439.736C605.076 439.683 605.22 439.608 605.337 439.512C605.465 439.416 605.561 439.304 605.625 439.176C605.689 439.037 605.721 438.888 605.721 438.728C605.721 438.451 605.62 438.227 605.417 438.056C605.311 437.981 605.14 437.901 604.905 437.816C604.681 437.72 604.388 437.624 604.025 437.528C603.407 437.368 602.9 437.187 602.505 436.984C602.111 436.781 601.807 436.552 601.593 436.296C601.433 436.093 601.316 435.875 601.241 435.64C601.167 435.395 601.129 435.128 601.129 434.84C601.129 434.488 601.204 434.168 601.353 433.88C601.513 433.581 601.727 433.325 601.993 433.112C602.271 432.888 602.591 432.717 602.953 432.6C603.327 432.483 603.721 432.424 604.137 432.424C604.532 432.424 604.921 432.477 605.305 432.584C605.7 432.691 606.063 432.845 606.393 433.048C606.724 433.251 607.001 433.491 607.225 433.768L606.281 434.808C606.079 434.605 605.855 434.429 605.609 434.28C605.375 434.12 605.135 433.997 604.889 433.912C604.644 433.827 604.42 433.784 604.217 433.784C603.993 433.784 603.791 433.805 603.609 433.848C603.428 433.891 603.273 433.955 603.145 434.04C603.028 434.125 602.937 434.232 602.873 434.36C602.809 434.488 602.777 434.632 602.777 434.792C602.788 434.931 602.82 435.064 602.873 435.192C602.937 435.309 603.023 435.411 603.129 435.496C603.247 435.581 603.423 435.672 603.657 435.768C603.892 435.864 604.191 435.955 604.553 436.04C605.087 436.179 605.524 436.333 605.865 436.504C606.217 436.664 606.495 436.851 606.697 437.064C606.911 437.267 607.06 437.501 607.145 437.768C607.231 438.035 607.273 438.333 607.273 438.664C607.273 439.144 607.135 439.576 606.857 439.96C606.591 440.333 606.228 440.627 605.769 440.84C605.311 441.053 604.799 441.16 604.233 441.16ZM611.89 441.16C611.186 441.16 610.551 441.037 609.986 440.792C609.42 440.547 608.951 440.184 608.578 439.704L609.698 438.744C610.018 439.117 610.364 439.389 610.738 439.56C611.122 439.72 611.554 439.8 612.034 439.8C612.226 439.8 612.402 439.779 612.562 439.736C612.732 439.683 612.876 439.608 612.994 439.512C613.122 439.416 613.218 439.304 613.282 439.176C613.346 439.037 613.378 438.888 613.378 438.728C613.378 438.451 613.276 438.227 613.074 438.056C612.967 437.981 612.796 437.901 612.562 437.816C612.338 437.72 612.044 437.624 611.682 437.528C611.063 437.368 610.556 437.187 610.162 436.984C609.767 436.781 609.463 436.552 609.25 436.296C609.09 436.093 608.972 435.875 608.898 435.64C608.823 435.395 608.786 435.128 608.786 434.84C608.786 434.488 608.86 434.168 609.01 433.88C609.17 433.581 609.383 433.325 609.65 433.112C609.927 432.888 610.247 432.717 610.61 432.6C610.983 432.483 611.378 432.424 611.794 432.424C612.188 432.424 612.578 432.477 612.962 432.584C613.356 432.691 613.719 432.845 614.05 433.048C614.38 433.251 614.658 433.491 614.882 433.768L613.938 434.808C613.735 434.605 613.511 434.429 613.266 434.28C613.031 434.12 612.791 433.997 612.546 433.912C612.3 433.827 612.076 433.784 611.874 433.784C611.65 433.784 611.447 433.805 611.266 433.848C611.084 433.891 610.93 433.955 610.802 434.04C610.684 434.125 610.594 434.232 610.53 434.36C610.466 434.488 610.434 434.632 610.434 434.792C610.444 434.931 610.476 435.064 610.53 435.192C610.594 435.309 610.679 435.411 610.786 435.496C610.903 435.581 611.079 435.672 611.314 435.768C611.548 435.864 611.847 435.955 612.21 436.04C612.743 436.179 613.18 436.333 613.522 436.504C613.874 436.664 614.151 436.851 614.354 437.064C614.567 437.267 614.716 437.501 614.802 437.768C614.887 438.035 614.93 438.333 614.93 438.664C614.93 439.144 614.791 439.576 614.514 439.96C614.247 440.333 613.884 440.627 613.426 440.84C612.967 441.053 612.455 441.16 611.89 441.16Z" fill="#D9D9D9"/>
<rect x="490.5" y="409.5" width="459" height="51" rx="4.5" stroke="#2A5578"/>
<path d="M496.052 509V497.8H500.612C501.22 497.8 501.77 497.955 502.26 498.264C502.762 498.563 503.162 498.973 503.46 499.496C503.759 500.019 503.908 500.6 503.908 501.24C503.908 501.88 503.759 502.461 503.46 502.984C503.162 503.507 502.762 503.928 502.26 504.248C501.77 504.557 501.22 504.712 500.612 504.712H497.78V509H496.052ZM497.78 503.048H500.58C500.868 503.048 501.13 502.968 501.364 502.808C501.599 502.637 501.786 502.419 501.924 502.152C502.074 501.875 502.148 501.571 502.148 501.24C502.148 500.909 502.074 500.611 501.924 500.344C501.786 500.077 501.599 499.864 501.364 499.704C501.13 499.544 500.868 499.464 500.58 499.464H497.78V503.048ZM508.853 509.16C508.159 509.16 507.525 508.968 506.949 508.584C506.383 508.2 505.93 507.677 505.589 507.016C505.247 506.355 505.077 505.608 505.077 504.776C505.077 503.933 505.247 503.187 505.589 502.536C505.941 501.875 506.41 501.357 506.997 500.984C507.594 500.611 508.261 500.424 508.997 500.424C509.434 500.424 509.834 500.488 510.197 500.616C510.559 500.744 510.874 500.925 511.141 501.16C511.418 501.384 511.642 501.645 511.813 501.944C511.994 502.243 512.106 502.563 512.149 502.904L511.781 502.776V500.6H513.445V509H511.781V507L512.165 506.888C512.101 507.176 511.967 507.459 511.765 507.736C511.573 508.003 511.322 508.243 511.013 508.456C510.714 508.669 510.378 508.84 510.005 508.968C509.642 509.096 509.258 509.16 508.853 509.16ZM509.285 507.64C509.786 507.64 510.229 507.517 510.613 507.272C510.997 507.027 511.295 506.691 511.509 506.264C511.733 505.827 511.845 505.331 511.845 504.776C511.845 504.232 511.733 503.747 511.509 503.32C511.295 502.893 510.997 502.557 510.613 502.312C510.229 502.067 509.786 501.944 509.285 501.944C508.794 501.944 508.357 502.067 507.973 502.312C507.599 502.557 507.301 502.893 507.077 503.32C506.863 503.747 506.757 504.232 506.757 504.776C506.757 505.331 506.863 505.827 507.077 506.264C507.301 506.691 507.599 507.027 507.973 507.272C508.357 507.517 508.794 507.64 509.285 507.64ZM518.546 509.16C517.842 509.16 517.207 509.037 516.642 508.792C516.076 508.547 515.607 508.184 515.234 507.704L516.354 506.744C516.674 507.117 517.02 507.389 517.394 507.56C517.778 507.72 518.21 507.8 518.69 507.8C518.882 507.8 519.058 507.779 519.218 507.736C519.388 507.683 519.532 507.608 519.65 507.512C519.778 507.416 519.874 507.304 519.938 507.176C520.002 507.037 520.034 506.888 520.034 506.728C520.034 506.451 519.932 506.227 519.73 506.056C519.623 505.981 519.452 505.901 519.218 505.816C518.994 505.72 518.7 505.624 518.338 505.528C517.719 505.368 517.212 505.187 516.818 504.984C516.423 504.781 516.119 504.552 515.906 504.296C515.746 504.093 515.628 503.875 515.554 503.64C515.479 503.395 515.442 503.128 515.442 502.84C515.442 502.488 515.516 502.168 515.666 501.88C515.826 501.581 516.039 501.325 516.306 501.112C516.583 500.888 516.903 500.717 517.266 500.6C517.639 500.483 518.034 500.424 518.45 500.424C518.844 500.424 519.234 500.477 519.618 500.584C520.012 500.691 520.375 500.845 520.706 501.048C521.036 501.251 521.314 501.491 521.538 501.768L520.594 502.808C520.391 502.605 520.167 502.429 519.922 502.28C519.687 502.12 519.447 501.997 519.202 501.912C518.956 501.827 518.732 501.784 518.53 501.784C518.306 501.784 518.103 501.805 517.922 501.848C517.74 501.891 517.586 501.955 517.458 502.04C517.34 502.125 517.25 502.232 517.186 502.36C517.122 502.488 517.09 502.632 517.09 502.792C517.1 502.931 517.132 503.064 517.186 503.192C517.25 503.309 517.335 503.411 517.442 503.496C517.559 503.581 517.735 503.672 517.97 503.768C518.204 503.864 518.503 503.955 518.866 504.04C519.399 504.179 519.836 504.333 520.178 504.504C520.53 504.664 520.807 504.851 521.01 505.064C521.223 505.267 521.372 505.501 521.458 505.768C521.543 506.035 521.586 506.333 521.586 506.664C521.586 507.144 521.447 507.576 521.17 507.96C520.903 508.333 520.54 508.627 520.082 508.84C519.623 509.053 519.111 509.16 518.546 509.16ZM526.202 509.16C525.498 509.16 524.863 509.037 524.298 508.792C523.733 508.547 523.263 508.184 522.89 507.704L524.01 506.744C524.33 507.117 524.677 507.389 525.05 507.56C525.434 507.72 525.866 507.8 526.346 507.8C526.538 507.8 526.714 507.779 526.874 507.736C527.045 507.683 527.189 507.608 527.306 507.512C527.434 507.416 527.53 507.304 527.594 507.176C527.658 507.037 527.69 506.888 527.69 506.728C527.69 506.451 527.589 506.227 527.386 506.056C527.279 505.981 527.109 505.901 526.874 505.816C526.65 505.72 526.357 505.624 525.994 505.528C525.375 505.368 524.869 505.187 524.474 504.984C524.079 504.781 523.775 504.552 523.562 504.296C523.402 504.093 523.285 503.875 523.21 503.64C523.135 503.395 523.098 503.128 523.098 502.84C523.098 502.488 523.173 502.168 523.322 501.88C523.482 501.581 523.695 501.325 523.962 501.112C524.239 500.888 524.559 500.717 524.922 500.6C525.295 500.483 525.69 500.424 526.106 500.424C526.501 500.424 526.89 500.477 527.274 500.584C527.669 500.691 528.031 500.845 528.362 501.048C528.693 501.251 528.97 501.491 529.194 501.768L528.25 502.808C528.047 502.605 527.823 502.429 527.578 502.28C527.343 502.12 527.103 501.997 526.858 501.912C526.613 501.827 526.389 501.784 526.186 501.784C525.962 501.784 525.759 501.805 525.578 501.848C525.397 501.891 525.242 501.955 525.114 502.04C524.997 502.125 524.906 502.232 524.842 502.36C524.778 502.488 524.746 502.632 524.746 502.792C524.757 502.931 524.789 503.064 524.842 503.192C524.906 503.309 524.991 503.411 525.098 503.496C525.215 503.581 525.391 503.672 525.626 503.768C525.861 503.864 526.159 503.955 526.522 504.04C527.055 504.179 527.493 504.333 527.834 504.504C528.186 504.664 528.463 504.851 528.666 505.064C528.879 505.267 529.029 505.501 529.114 505.768C529.199 506.035 529.242 506.333 529.242 506.664C529.242 507.144 529.103 507.576 528.826 507.96C528.559 508.333 528.197 508.627 527.738 508.84C527.279 509.053 526.767 509.16 526.202 509.16ZM533.122 509L530.258 500.6L531.922 500.584L533.97 506.872L533.602 506.84L535.826 501.928H536.818L539.058 506.856L538.626 506.888L540.69 500.6H542.354L539.522 509H538.386L536.05 503.656L536.418 503.704L534.242 509H533.122ZM547.397 509.16C546.575 509.16 545.839 508.973 545.189 508.6C544.549 508.216 544.042 507.699 543.669 507.048C543.295 506.387 543.109 505.635 543.109 504.792C543.109 503.949 543.295 503.203 543.669 502.552C544.042 501.891 544.549 501.373 545.189 501C545.839 500.616 546.575 500.424 547.397 500.424C548.207 500.424 548.933 500.616 549.573 501C550.223 501.373 550.735 501.891 551.109 502.552C551.482 503.203 551.669 503.949 551.669 504.792C551.669 505.635 551.482 506.387 551.109 507.048C550.735 507.699 550.223 508.216 549.573 508.6C548.933 508.973 548.207 509.16 547.397 509.16ZM547.397 507.656C547.898 507.656 548.346 507.533 548.741 507.288C549.135 507.032 549.445 506.691 549.669 506.264C549.893 505.827 549.999 505.336 549.989 504.792C549.999 504.237 549.893 503.747 549.669 503.32C549.445 502.883 549.135 502.541 548.741 502.296C548.346 502.051 547.898 501.928 547.397 501.928C546.895 501.928 546.442 502.056 546.037 502.312C545.642 502.557 545.333 502.899 545.109 503.336C544.885 503.763 544.778 504.248 544.789 504.792C544.778 505.336 544.885 505.827 545.109 506.264C545.333 506.691 545.642 507.032 546.037 507.288C546.442 507.533 546.895 507.656 547.397 507.656ZM553.465 509V500.6H555.129V503.24L554.969 502.6C555.086 502.195 555.283 501.827 555.561 501.496C555.849 501.165 556.174 500.904 556.536 500.712C556.91 500.52 557.294 500.424 557.689 500.424C557.87 500.424 558.041 500.44 558.201 500.472C558.371 500.504 558.505 500.541 558.601 500.584L558.169 502.376C558.041 502.323 557.897 502.28 557.737 502.248C557.587 502.205 557.438 502.184 557.289 502.184C557.001 502.184 556.723 502.243 556.457 502.36C556.201 502.467 555.971 502.621 555.769 502.824C555.577 503.016 555.422 503.245 555.305 503.512C555.187 503.768 555.129 504.051 555.129 504.36V509H553.465ZM563.062 509.16C562.294 509.16 561.606 508.973 560.998 508.6C560.401 508.216 559.926 507.699 559.574 507.048C559.222 506.387 559.046 505.635 559.046 504.792C559.046 503.949 559.217 503.203 559.558 502.552C559.91 501.891 560.385 501.373 560.982 501C561.58 500.616 562.257 500.424 563.014 500.424C563.43 500.424 563.83 500.493 564.214 500.632C564.609 500.76 564.961 500.941 565.27 501.176C565.58 501.4 565.82 501.651 565.99 501.928C566.172 502.195 566.262 502.467 566.262 502.744L565.782 502.776V497.16H567.43V509H565.782V507H566.102C566.102 507.256 566.017 507.512 565.846 507.768C565.676 508.013 565.446 508.243 565.158 508.456C564.881 508.669 564.556 508.84 564.182 508.968C563.82 509.096 563.446 509.16 563.062 509.16ZM563.286 507.736C563.788 507.736 564.23 507.608 564.614 507.352C564.998 507.096 565.297 506.749 565.51 506.312C565.734 505.864 565.846 505.357 565.846 504.792C565.846 504.227 565.734 503.725 565.51 503.288C565.297 502.84 564.998 502.488 564.614 502.232C564.23 501.976 563.788 501.848 563.286 501.848C562.785 501.848 562.342 501.976 561.958 502.232C561.574 502.488 561.27 502.84 561.046 503.288C560.833 503.725 560.726 504.227 560.726 504.792C560.726 505.357 560.833 505.864 561.046 506.312C561.27 506.749 561.574 507.096 561.958 507.352C562.342 507.608 562.785 507.736 563.286 507.736Z" fill="#263238"/>
<rect x="490.5" y="517.5" width="459" height="51" rx="4.5" fill="white"/>
<path d="M507.568 549V537.8H512.128C512.736 537.8 513.285 537.955 513.776 538.264C514.277 538.563 514.677 538.973 514.976 539.496C515.275 540.019 515.424 540.6 515.424 541.24C515.424 541.88 515.275 542.461 514.976 542.984C514.677 543.507 514.277 543.928 513.776 544.248C513.285 544.557 512.736 544.712 512.128 544.712H509.296V549H507.568ZM509.296 543.048H512.096C512.384 543.048 512.645 542.968 512.88 542.808C513.115 542.637 513.301 542.419 513.44 542.152C513.589 541.875 513.664 541.571 513.664 541.24C513.664 540.909 513.589 540.611 513.44 540.344C513.301 540.077 513.115 539.864 512.88 539.704C512.645 539.544 512.384 539.464 512.096 539.464H509.296V543.048ZM520.368 549.16C519.675 549.16 519.04 548.968 518.464 548.584C517.899 548.2 517.446 547.677 517.104 547.016C516.763 546.355 516.592 545.608 516.592 544.776C516.592 543.933 516.763 543.187 517.104 542.536C517.456 541.875 517.926 541.357 518.512 540.984C519.11 540.611 519.776 540.424 520.512 540.424C520.95 540.424 521.35 540.488 521.712 540.616C522.075 540.744 522.39 540.925 522.656 541.16C522.934 541.384 523.158 541.645 523.328 541.944C523.51 542.243 523.622 542.563 523.664 542.904L523.296 542.776V540.6H524.96V549H523.296V547L523.68 546.888C523.616 547.176 523.483 547.459 523.28 547.736C523.088 548.003 522.838 548.243 522.528 548.456C522.23 548.669 521.894 548.84 521.52 548.968C521.158 549.096 520.774 549.16 520.368 549.16ZM520.8 547.64C521.302 547.64 521.744 547.517 522.128 547.272C522.512 547.027 522.811 546.691 523.024 546.264C523.248 545.827 523.36 545.331 523.36 544.776C523.36 544.232 523.248 543.747 523.024 543.32C522.811 542.893 522.512 542.557 522.128 542.312C521.744 542.067 521.302 541.944 520.8 541.944C520.31 541.944 519.872 542.067 519.488 542.312C519.115 542.557 518.816 542.893 518.592 543.32C518.379 543.747 518.272 544.232 518.272 544.776C518.272 545.331 518.379 545.827 518.592 546.264C518.816 546.691 519.115 547.027 519.488 547.272C519.872 547.517 520.31 547.64 520.8 547.64ZM530.061 549.16C529.357 549.16 528.723 549.037 528.157 548.792C527.592 548.547 527.123 548.184 526.749 547.704L527.869 546.744C528.189 547.117 528.536 547.389 528.909 547.56C529.293 547.72 529.725 547.8 530.205 547.8C530.397 547.8 530.573 547.779 530.733 547.736C530.904 547.683 531.048 547.608 531.165 547.512C531.293 547.416 531.389 547.304 531.453 547.176C531.517 547.037 531.549 546.888 531.549 546.728C531.549 546.451 531.448 546.227 531.245 546.056C531.139 545.981 530.968 545.901 530.733 545.816C530.509 545.72 530.216 545.624 529.853 545.528C529.235 545.368 528.728 545.187 528.333 544.984C527.939 544.781 527.635 544.552 527.421 544.296C527.261 544.093 527.144 543.875 527.069 543.64C526.995 543.395 526.957 543.128 526.957 542.84C526.957 542.488 527.032 542.168 527.181 541.88C527.341 541.581 527.555 541.325 527.821 541.112C528.099 540.888 528.419 540.717 528.781 540.6C529.155 540.483 529.549 540.424 529.965 540.424C530.36 540.424 530.749 540.477 531.133 540.584C531.528 540.691 531.891 540.845 532.221 541.048C532.552 541.251 532.829 541.491 533.053 541.768L532.109 542.808C531.907 542.605 531.683 542.429 531.437 542.28C531.203 542.12 530.963 541.997 530.717 541.912C530.472 541.827 530.248 541.784 530.045 541.784C529.821 541.784 529.619 541.805 529.437 541.848C529.256 541.891 529.101 541.955 528.973 542.04C528.856 542.125 528.765 542.232 528.701 542.36C528.637 542.488 528.605 542.632 528.605 542.792C528.616 542.931 528.648 543.064 528.701 543.192C528.765 543.309 528.851 543.411 528.957 543.496C529.075 543.581 529.251 543.672 529.485 543.768C529.72 543.864 530.019 543.955 530.381 544.04C530.915 544.179 531.352 544.333 531.693 544.504C532.045 544.664 532.323 544.851 532.525 545.064C532.739 545.267 532.888 545.501 532.973 545.768C533.059 546.035 533.101 546.333 533.101 546.664C533.101 547.144 532.963 547.576 532.685 547.96C532.419 548.333 532.056 548.627 531.597 548.84C531.139 549.053 530.627 549.16 530.061 549.16ZM537.718 549.16C537.014 549.16 536.379 549.037 535.814 548.792C535.248 548.547 534.779 548.184 534.406 547.704L535.526 546.744C535.846 547.117 536.192 547.389 536.566 547.56C536.95 547.72 537.382 547.8 537.862 547.8C538.054 547.8 538.23 547.779 538.39 547.736C538.56 547.683 538.704 547.608 538.822 547.512C538.95 547.416 539.046 547.304 539.11 547.176C539.174 547.037 539.206 546.888 539.206 546.728C539.206 546.451 539.104 546.227 538.902 546.056C538.795 545.981 538.624 545.901 538.39 545.816C538.166 545.72 537.872 545.624 537.51 545.528C536.891 545.368 536.384 545.187 535.99 544.984C535.595 544.781 535.291 544.552 535.078 544.296C534.918 544.093 534.8 543.875 534.726 543.64C534.651 543.395 534.614 543.128 534.614 542.84C534.614 542.488 534.688 542.168 534.838 541.88C534.998 541.581 535.211 541.325 535.478 541.112C535.755 540.888 536.075 540.717 536.438 540.6C536.811 540.483 537.206 540.424 537.622 540.424C538.016 540.424 538.406 540.477 538.79 540.584C539.184 540.691 539.547 540.845 539.878 541.048C540.208 541.251 540.486 541.491 540.71 541.768L539.766 542.808C539.563 542.605 539.339 542.429 539.094 542.28C538.859 542.12 538.619 541.997 538.374 541.912C538.128 541.827 537.904 541.784 537.702 541.784C537.478 541.784 537.275 541.805 537.094 541.848C536.912 541.891 536.758 541.955 536.63 542.04C536.512 542.125 536.422 542.232 536.358 542.36C536.294 542.488 536.262 542.632 536.262 542.792C536.272 542.931 536.304 543.064 536.358 543.192C536.422 543.309 536.507 543.411 536.614 543.496C536.731 543.581 536.907 543.672 537.142 543.768C537.376 543.864 537.675 543.955 538.038 544.04C538.571 544.179 539.008 544.333 539.35 544.504C539.702 544.664 539.979 544.851 540.182 545.064C540.395 545.267 540.544 545.501 540.63 545.768C540.715 546.035 540.758 546.333 540.758 546.664C540.758 547.144 540.619 547.576 540.342 547.96C540.075 548.333 539.712 548.627 539.254 548.84C538.795 549.053 538.283 549.16 537.718 549.16ZM544.638 549L541.774 540.6L543.438 540.584L545.486 546.872L545.118 546.84L547.342 541.928H548.334L550.574 546.856L550.142 546.888L552.206 540.6H553.87L551.038 549H549.902L547.566 543.656L547.934 543.704L545.758 549H544.638ZM558.912 549.16C558.091 549.16 557.355 548.973 556.704 548.6C556.064 548.216 555.558 547.699 555.184 547.048C554.811 546.387 554.624 545.635 554.624 544.792C554.624 543.949 554.811 543.203 555.184 542.552C555.558 541.891 556.064 541.373 556.704 541C557.355 540.616 558.091 540.424 558.912 540.424C559.723 540.424 560.448 540.616 561.088 541C561.739 541.373 562.251 541.891 562.624 542.552C562.998 543.203 563.184 543.949 563.184 544.792C563.184 545.635 562.998 546.387 562.624 547.048C562.251 547.699 561.739 548.216 561.088 548.6C560.448 548.973 559.723 549.16 558.912 549.16ZM558.912 547.656C559.414 547.656 559.862 547.533 560.256 547.288C560.651 547.032 560.96 546.691 561.184 546.264C561.408 545.827 561.515 545.336 561.504 544.792C561.515 544.237 561.408 543.747 561.184 543.32C560.96 542.883 560.651 542.541 560.256 542.296C559.862 542.051 559.414 541.928 558.912 541.928C558.411 541.928 557.958 542.056 557.552 542.312C557.158 542.557 556.848 542.899 556.624 543.336C556.4 543.763 556.294 544.248 556.304 544.792C556.294 545.336 556.4 545.827 556.624 546.264C556.848 546.691 557.158 547.032 557.552 547.288C557.958 547.533 558.411 547.656 558.912 547.656ZM564.98 549V540.6H566.644V543.24L566.484 542.6C566.601 542.195 566.799 541.827 567.076 541.496C567.364 541.165 567.689 540.904 568.052 540.712C568.425 540.52 568.809 540.424 569.204 540.424C569.385 540.424 569.556 540.44 569.716 540.472C569.887 540.504 570.02 540.541 570.116 540.584L569.684 542.376C569.556 542.323 569.412 542.28 569.252 542.248C569.103 542.205 568.953 542.184 568.804 542.184C568.516 542.184 568.239 542.243 567.972 542.36C567.716 542.467 567.487 542.621 567.284 542.824C567.092 543.016 566.937 543.245 566.82 543.512C566.703 543.768 566.644 544.051 566.644 544.36V549H564.98ZM574.578 549.16C573.81 549.16 573.122 548.973 572.514 548.6C571.917 548.216 571.442 547.699 571.09 547.048C570.738 546.387 570.562 545.635 570.562 544.792C570.562 543.949 570.733 543.203 571.074 542.552C571.426 541.891 571.901 541.373 572.498 541C573.095 540.616 573.773 540.424 574.53 540.424C574.946 540.424 575.346 540.493 575.73 540.632C576.125 540.76 576.477 540.941 576.786 541.176C577.095 541.4 577.335 541.651 577.506 541.928C577.687 542.195 577.778 542.467 577.778 542.744L577.298 542.776V537.16H578.946V549H577.298V547H577.618C577.618 547.256 577.533 547.512 577.362 547.768C577.191 548.013 576.962 548.243 576.674 548.456C576.397 548.669 576.071 548.84 575.698 548.968C575.335 549.096 574.962 549.16 574.578 549.16ZM574.802 547.736C575.303 547.736 575.746 547.608 576.13 547.352C576.514 547.096 576.813 546.749 577.026 546.312C577.25 545.864 577.362 545.357 577.362 544.792C577.362 544.227 577.25 543.725 577.026 543.288C576.813 542.84 576.514 542.488 576.13 542.232C575.746 541.976 575.303 541.848 574.802 541.848C574.301 541.848 573.858 541.976 573.474 542.232C573.09 542.488 572.786 542.84 572.562 543.288C572.349 543.725 572.242 544.227 572.242 544.792C572.242 545.357 572.349 545.864 572.562 546.312C572.786 546.749 573.09 547.096 573.474 547.352C573.858 547.608 574.301 547.736 574.802 547.736Z" fill="#D9D9D9"/>
<path d="M935.714 542.135C936.109 542.652 936.109 543.349 935.714 543.865C934.47 545.489 931.485 548.833 928 548.833C924.515 548.833 921.53 545.489 920.286 543.865C920.094 543.618 919.989 543.313 919.989 543C919.989 542.687 920.094 542.382 920.286 542.135C921.53 540.511 924.515 537.167 928 537.167C931.485 537.167 934.47 540.511 935.714 542.135V542.135Z" stroke="#2A5578" stroke-width="2" stroke-linecap="round" stroke-linejoin="round"/>
<path d="M928 545.5C929.381 545.5 930.5 544.381 930.5 543C930.5 541.619 929.381 540.5 928 540.5C926.619 540.5 925.5 541.619 925.5 543C925.5 544.381 926.619 545.5 928 545.5Z" stroke="#2A5578" stroke-width="2" stroke-linecap="round" stroke-linejoin="round"/>
<rect x="490.5" y="517.5" width="459" height="51" rx="4.5" stroke="#2A5578"/>
<path d="M645.36 341.48C643.152 341.48 641.152 341.224 639.36 340.712C637.6 340.168 636.032 339.4 634.656 338.408C633.28 337.384 632.048 336.184 630.96 334.808L635.904 329.192C637.504 331.336 639.104 332.776 640.704 333.512C642.336 334.248 644.016 334.616 645.744 334.616C646.608 334.616 647.392 334.504 648.096 334.28C648.8 334.056 649.344 333.736 649.728 333.32C650.112 332.872 650.304 332.328 650.304 331.688C650.304 331.208 650.176 330.776 649.92 330.392C649.696 330.008 649.376 329.672 648.96 329.384C648.544 329.096 648.048 328.84 647.472 328.616C646.896 328.36 646.288 328.152 645.648 327.992C645.008 327.8 644.352 327.64 643.68 327.512C641.824 327.096 640.208 326.584 638.832 325.976C637.456 325.368 636.304 324.632 635.376 323.768C634.48 322.872 633.808 321.864 633.36 320.744C632.912 319.592 632.688 318.312 632.688 316.904C632.688 315.4 633.024 314.024 633.696 312.776C634.4 311.496 635.328 310.408 636.48 309.512C637.664 308.584 639.024 307.88 640.56 307.4C642.096 306.888 643.696 306.632 645.36 306.632C647.568 306.632 649.456 306.872 651.024 307.352C652.624 307.8 653.984 308.456 655.104 309.32C656.256 310.184 657.232 311.224 658.032 312.44L652.992 317.288C652.32 316.456 651.584 315.768 650.784 315.224C650.016 314.68 649.184 314.264 648.288 313.976C647.424 313.688 646.528 313.544 645.6 313.544C644.64 313.544 643.808 313.672 643.104 313.928C642.432 314.152 641.904 314.488 641.52 314.936C641.136 315.352 640.944 315.864 640.944 316.472C640.944 317.016 641.104 317.48 641.424 317.864C641.744 318.248 642.176 318.6 642.72 318.92C643.264 319.208 643.888 319.464 644.592 319.688C645.296 319.88 646.032 320.04 646.8 320.168C648.56 320.52 650.144 320.984 651.552 321.56C652.992 322.136 654.224 322.84 655.248 323.672C656.304 324.504 657.104 325.496 657.648 326.648C658.224 327.768 658.512 329.08 658.512 330.584C658.512 332.92 657.936 334.904 656.784 336.536C655.664 338.136 654.112 339.368 652.128 340.232C650.176 341.064 647.92 341.48 645.36 341.48ZM664.262 341V315.512H671.942V341H664.262ZM668.102 310.472C666.662 310.472 665.526 310.136 664.694 309.464C663.894 308.76 663.494 307.768 663.494 306.488C663.494 305.336 663.91 304.392 664.742 303.656C665.574 302.92 666.694 302.552 668.102 302.552C669.542 302.552 670.662 302.904 671.462 303.608C672.262 304.28 672.662 305.24 672.662 306.488C672.662 307.672 672.246 308.632 671.414 309.368C670.614 310.104 669.51 310.472 668.102 310.472ZM690.822 352.04C688.742 352.04 686.662 351.736 684.582 351.128C682.534 350.52 680.87 349.736 679.59 348.776L682.278 343.4C682.95 343.848 683.686 344.232 684.486 344.552C685.318 344.904 686.182 345.176 687.078 345.368C687.974 345.56 688.886 345.656 689.814 345.656C691.446 345.656 692.774 345.416 693.798 344.936C694.822 344.456 695.59 343.72 696.102 342.728C696.614 341.768 696.87 340.552 696.87 339.08V334.808L698.358 335.048C698.134 336.104 697.574 337.064 696.678 337.928C695.814 338.792 694.742 339.496 693.462 340.04C692.182 340.552 690.822 340.808 689.382 340.808C687.078 340.808 685.014 340.28 683.19 339.224C681.398 338.136 679.974 336.648 678.918 334.76C677.894 332.84 677.382 330.632 677.382 328.136C677.382 325.576 677.894 323.32 678.918 321.368C679.942 319.384 681.35 317.832 683.142 316.712C684.934 315.56 686.95 314.984 689.19 314.984C690.15 314.984 691.062 315.096 691.926 315.32C692.822 315.544 693.638 315.848 694.374 316.232C695.142 316.584 695.814 317.016 696.39 317.528C696.998 318.008 697.478 318.536 697.83 319.112C698.214 319.688 698.47 320.28 698.598 320.888L697.014 321.272L697.302 315.512H704.598V338.936C704.598 341.016 704.278 342.856 703.638 344.456C703.03 346.088 702.118 347.464 700.902 348.584C699.718 349.736 698.278 350.6 696.582 351.176C694.886 351.752 692.966 352.04 690.822 352.04ZM691.014 334.856C692.262 334.856 693.334 334.584 694.23 334.04C695.158 333.464 695.862 332.68 696.342 331.688C696.854 330.696 697.11 329.528 697.11 328.184C697.11 326.84 696.854 325.672 696.342 324.68C695.862 323.656 695.158 322.872 694.23 322.328C693.334 321.752 692.262 321.464 691.014 321.464C689.798 321.464 688.742 321.752 687.846 322.328C686.95 322.872 686.246 323.656 685.734 324.68C685.254 325.672 685.014 326.84 685.014 328.184C685.014 329.528 685.254 330.696 685.734 331.688C686.246 332.68 686.95 333.464 687.846 334.04C688.742 334.584 689.798 334.856 691.014 334.856ZM711.267 341V315.512H718.563L718.803 320.696L717.267 321.272C717.619 320.12 718.243 319.08 719.139 318.152C720.067 317.192 721.171 316.424 722.451 315.848C723.731 315.272 725.075 314.984 726.483 314.984C728.403 314.984 730.019 315.384 731.331 316.184C732.643 316.952 733.635 318.12 734.307 319.688C734.979 321.224 735.315 323.112 735.315 325.352V341H727.587V325.976C727.587 324.952 727.443 324.104 727.155 323.432C726.867 322.76 726.419 322.264 725.811 321.944C725.235 321.592 724.515 321.432 723.651 321.464C722.979 321.464 722.355 321.576 721.779 321.8C721.203 321.992 720.707 322.296 720.291 322.712C719.875 323.096 719.539 323.544 719.283 324.056C719.059 324.568 718.947 325.128 718.947 325.736V341H715.155C714.259 341 713.491 341 712.851 341C712.211 341 711.683 341 711.267 341ZM757.255 341V334.136H762.919V314.264H757.255V307.4H776.791V314.264H771.079V334.136H776.791V341H757.255ZM783.736 341V315.512H791.032L791.272 320.696L789.736 321.272C790.088 320.12 790.712 319.08 791.608 318.152C792.536 317.192 793.64 316.424 794.92 315.848C796.2 315.272 797.544 314.984 798.952 314.984C800.872 314.984 802.488 315.384 803.8 316.184C805.112 316.952 806.104 318.12 806.776 319.688C807.448 321.224 807.784 323.112 807.784 325.352V341H800.056V325.976C800.056 324.952 799.912 324.104 799.624 323.432C799.336 322.76 798.888 322.264 798.28 321.944C797.704 321.592 796.984 321.432 796.12 321.464C795.448 321.464 794.824 321.576 794.248 321.8C793.672 321.992 793.176 322.296 792.76 322.712C792.344 323.096 792.008 323.544 791.752 324.056C791.528 324.568 791.416 325.128 791.416 325.736V341H787.624C786.728 341 785.96 341 785.32 341C784.68 341 784.152 341 783.736 341Z" fill="#2A5578"/>
<rect x="490" y="637" width="460" height="52" rx="5" fill="#2A5578"/>
<path d="M688.4 670.7C687.48 670.7 686.647 670.593 685.9 670.38C685.167 670.153 684.513 669.833 683.94 669.42C683.367 668.993 682.853 668.493 682.4 667.92L684.46 665.58C685.127 666.473 685.793 667.073 686.46 667.38C687.14 667.687 687.84 667.84 688.56 667.84C688.92 667.84 689.247 667.793 689.54 667.7C689.833 667.607 690.06 667.473 690.22 667.3C690.38 667.113 690.46 666.887 690.46 666.62C690.46 666.42 690.407 666.24 690.3 666.08C690.207 665.92 690.073 665.78 689.9 665.66C689.727 665.54 689.52 665.433 689.28 665.34C689.04 665.233 688.787 665.147 688.52 665.08C688.253 665 687.98 664.933 687.7 664.88C686.927 664.707 686.253 664.493 685.68 664.24C685.107 663.987 684.627 663.68 684.24 663.32C683.867 662.947 683.587 662.527 683.4 662.06C683.213 661.58 683.12 661.047 683.12 660.46C683.12 659.833 683.26 659.26 683.54 658.74C683.833 658.207 684.22 657.753 684.7 657.38C685.193 656.993 685.76 656.7 686.4 656.5C687.04 656.287 687.707 656.18 688.4 656.18C689.32 656.18 690.107 656.28 690.76 656.48C691.427 656.667 691.993 656.94 692.46 657.3C692.94 657.66 693.347 658.093 693.68 658.6L691.58 660.62C691.3 660.273 690.993 659.987 690.66 659.76C690.34 659.533 689.993 659.36 689.62 659.24C689.26 659.12 688.887 659.06 688.5 659.06C688.1 659.06 687.753 659.113 687.46 659.22C687.18 659.313 686.96 659.453 686.8 659.64C686.64 659.813 686.56 660.027 686.56 660.28C686.56 660.507 686.627 660.7 686.76 660.86C686.893 661.02 687.073 661.167 687.3 661.3C687.527 661.42 687.787 661.527 688.08 661.62C688.373 661.7 688.68 661.767 689 661.82C689.733 661.967 690.393 662.16 690.98 662.4C691.58 662.64 692.093 662.933 692.52 663.28C692.96 663.627 693.293 664.04 693.52 664.52C693.76 664.987 693.88 665.533 693.88 666.16C693.88 667.133 693.64 667.96 693.16 668.64C692.693 669.307 692.047 669.82 691.22 670.18C690.407 670.527 689.467 670.7 688.4 670.7ZM696.276 670.5V659.88H699.476V670.5H696.276ZM697.876 657.78C697.276 657.78 696.802 657.64 696.456 657.36C696.122 657.067 695.956 656.653 695.956 656.12C695.956 655.64 696.129 655.247 696.476 654.94C696.822 654.633 697.289 654.48 697.876 654.48C698.476 654.48 698.942 654.627 699.276 654.92C699.609 655.2 699.776 655.6 699.776 656.12C699.776 656.613 699.602 657.013 699.256 657.32C698.922 657.627 698.462 657.78 697.876 657.78ZM707.343 675.1C706.476 675.1 705.609 674.973 704.743 674.72C703.889 674.467 703.196 674.14 702.663 673.74L703.783 671.5C704.063 671.687 704.369 671.847 704.703 671.98C705.049 672.127 705.409 672.24 705.783 672.32C706.156 672.4 706.536 672.44 706.923 672.44C707.603 672.44 708.156 672.34 708.583 672.14C709.009 671.94 709.329 671.633 709.543 671.22C709.756 670.82 709.863 670.313 709.863 669.7V667.92L710.483 668.02C710.389 668.46 710.156 668.86 709.783 669.22C709.423 669.58 708.976 669.873 708.443 670.1C707.909 670.313 707.343 670.42 706.743 670.42C705.783 670.42 704.923 670.2 704.163 669.76C703.416 669.307 702.823 668.687 702.382 667.9C701.956 667.1 701.743 666.18 701.743 665.14C701.743 664.073 701.956 663.133 702.382 662.32C702.809 661.493 703.396 660.847 704.143 660.38C704.889 659.9 705.729 659.66 706.663 659.66C707.063 659.66 707.443 659.707 707.803 659.8C708.176 659.893 708.516 660.02 708.823 660.18C709.143 660.327 709.423 660.507 709.663 660.72C709.916 660.92 710.116 661.14 710.263 661.38C710.423 661.62 710.529 661.867 710.583 662.12L709.923 662.28L710.043 659.88H713.083V669.64C713.083 670.507 712.949 671.273 712.683 671.94C712.429 672.62 712.049 673.193 711.543 673.66C711.049 674.14 710.449 674.5 709.743 674.74C709.036 674.98 708.236 675.1 707.343 675.1ZM707.423 667.94C707.943 667.94 708.389 667.827 708.763 667.6C709.149 667.36 709.443 667.033 709.643 666.62C709.856 666.207 709.963 665.72 709.963 665.16C709.963 664.6 709.856 664.113 709.643 663.7C709.443 663.273 709.149 662.947 708.763 662.72C708.389 662.48 707.943 662.36 707.423 662.36C706.916 662.36 706.476 662.48 706.103 662.72C705.729 662.947 705.436 663.273 705.223 663.7C705.023 664.113 704.923 664.6 704.923 665.16C704.923 665.72 705.023 666.207 705.223 666.62C705.436 667.033 705.729 667.36 706.103 667.6C706.476 667.827 706.916 667.94 707.423 667.94ZM715.861 670.5V659.88H718.901L719.001 662.04L718.361 662.28C718.508 661.8 718.768 661.367 719.141 660.98C719.528 660.58 719.988 660.26 720.521 660.02C721.055 659.78 721.615 659.66 722.201 659.66C723.001 659.66 723.675 659.827 724.221 660.16C724.768 660.48 725.181 660.967 725.461 661.62C725.741 662.26 725.881 663.047 725.881 663.98V670.5H722.661V664.24C722.661 663.813 722.601 663.46 722.481 663.18C722.361 662.9 722.175 662.693 721.921 662.56C721.681 662.413 721.381 662.347 721.021 662.36C720.741 662.36 720.481 662.407 720.241 662.5C720.001 662.58 719.795 662.707 719.621 662.88C719.448 663.04 719.308 663.227 719.201 663.44C719.108 663.653 719.061 663.887 719.061 664.14V670.5H717.481C717.108 670.5 716.788 670.5 716.521 670.5C716.255 670.5 716.035 670.5 715.861 670.5ZM735.023 670.5V667.64H737.383V659.36H735.023V656.5H743.163V659.36H740.783V667.64H743.163V670.5H735.023ZM746.057 670.5V659.88H749.097L749.197 662.04L748.557 662.28C748.703 661.8 748.963 661.367 749.337 660.98C749.723 660.58 750.183 660.26 750.717 660.02C751.25 659.78 751.81 659.66 752.397 659.66C753.197 659.66 753.87 659.827 754.417 660.16C754.963 660.48 755.377 660.967 755.657 661.62C755.937 662.26 756.077 663.047 756.077 663.98V670.5H752.857V664.24C752.857 663.813 752.797 663.46 752.677 663.18C752.557 662.9 752.37 662.693 752.117 662.56C751.877 662.413 751.577 662.347 751.217 662.36C750.937 662.36 750.677 662.407 750.437 662.5C750.197 662.58 749.99 662.707 749.817 662.88C749.643 663.04 749.503 663.227 749.397 663.44C749.303 663.653 749.257 663.887 749.257 664.14V670.5H747.677C747.303 670.5 746.983 670.5 746.717 670.5C746.45 670.5 746.23 670.5 746.057 670.5Z" fill="white"/>
<path d="M491.568 601V589.8H493.296V601H491.568ZM492.336 596.232V594.568H498.112V596.232H492.336ZM492.336 591.464V589.8H498.832V591.464H492.336ZM504.319 601.16C503.497 601.16 502.761 600.973 502.111 600.6C501.471 600.216 500.964 599.699 500.591 599.048C500.217 598.387 500.031 597.635 500.031 596.792C500.031 595.949 500.217 595.203 500.591 594.552C500.964 593.891 501.471 593.373 502.111 593C502.761 592.616 503.497 592.424 504.319 592.424C505.129 592.424 505.855 592.616 506.495 593C507.145 593.373 507.657 593.891 508.031 594.552C508.404 595.203 508.591 595.949 508.591 596.792C508.591 597.635 508.404 598.387 508.031 599.048C507.657 599.699 507.145 600.216 506.495 600.6C505.855 600.973 505.129 601.16 504.319 601.16ZM504.319 599.656C504.82 599.656 505.268 599.533 505.663 599.288C506.057 599.032 506.367 598.691 506.591 598.264C506.815 597.827 506.921 597.336 506.911 596.792C506.921 596.237 506.815 595.747 506.591 595.32C506.367 594.883 506.057 594.541 505.663 594.296C505.268 594.051 504.82 593.928 504.319 593.928C503.817 593.928 503.364 594.056 502.959 594.312C502.564 594.557 502.255 594.899 502.031 595.336C501.807 595.763 501.7 596.248 501.711 596.792C501.7 597.336 501.807 597.827 502.031 598.264C502.255 598.691 502.564 599.032 502.959 599.288C503.364 599.533 503.817 599.656 504.319 599.656ZM510.386 601V592.6H512.05V595.24L511.89 594.6C512.008 594.195 512.205 593.827 512.482 593.496C512.77 593.165 513.096 592.904 513.458 592.712C513.832 592.52 514.216 592.424 514.61 592.424C514.792 592.424 514.962 592.44 515.122 592.472C515.293 592.504 515.426 592.541 515.522 592.584L515.09 594.376C514.962 594.323 514.818 594.28 514.658 594.248C514.509 594.205 514.36 594.184 514.21 594.184C513.922 594.184 513.645 594.243 513.378 594.36C513.122 594.467 512.893 594.621 512.69 594.824C512.498 595.016 512.344 595.245 512.226 595.512C512.109 595.768 512.05 596.051 512.05 596.36V601H510.386ZM520.365 604.68C519.768 604.68 519.17 604.584 518.573 604.392C517.986 604.211 517.512 603.971 517.149 603.672L517.757 602.392C517.97 602.552 518.221 602.691 518.509 602.808C518.797 602.936 519.101 603.032 519.421 603.096C519.741 603.171 520.056 603.208 520.365 603.208C520.952 603.208 521.442 603.112 521.837 602.92C522.232 602.728 522.53 602.445 522.733 602.072C522.936 601.699 523.037 601.235 523.037 600.68V599.064L523.213 599.176C523.16 599.507 522.984 599.827 522.685 600.136C522.397 600.435 522.034 600.68 521.597 600.872C521.16 601.064 520.712 601.16 520.253 601.16C519.453 601.16 518.738 600.973 518.109 600.6C517.49 600.216 517 599.699 516.637 599.048C516.274 598.387 516.093 597.635 516.093 596.792C516.093 595.949 516.269 595.203 516.621 594.552C516.984 593.891 517.474 593.373 518.093 593C518.722 592.616 519.426 592.424 520.205 592.424C520.525 592.424 520.834 592.467 521.133 592.552C521.432 592.627 521.709 592.739 521.965 592.888C522.221 593.027 522.45 593.181 522.653 593.352C522.856 593.523 523.021 593.704 523.149 593.896C523.277 594.088 523.357 594.269 523.389 594.44L523.037 594.568V592.6H524.685V600.488C524.685 601.16 524.584 601.752 524.381 602.264C524.189 602.787 523.906 603.224 523.533 603.576C523.16 603.939 522.706 604.211 522.173 604.392C521.64 604.584 521.037 604.68 520.365 604.68ZM520.429 599.64C520.952 599.64 521.416 599.517 521.821 599.272C522.226 599.027 522.541 598.691 522.765 598.264C522.989 597.837 523.101 597.347 523.101 596.792C523.101 596.237 522.984 595.747 522.749 595.32C522.525 594.883 522.21 594.541 521.805 594.296C521.41 594.051 520.952 593.928 520.429 593.928C519.917 593.928 519.458 594.056 519.053 594.312C518.658 594.557 518.344 594.899 518.109 595.336C517.885 595.763 517.773 596.248 517.773 596.792C517.773 597.336 517.885 597.827 518.109 598.264C518.344 598.691 518.658 599.027 519.053 599.272C519.458 599.517 519.917 599.64 520.429 599.64ZM530.772 601.16C529.95 601.16 529.214 600.973 528.564 600.6C527.924 600.216 527.417 599.699 527.044 599.048C526.67 598.387 526.484 597.635 526.484 596.792C526.484 595.949 526.67 595.203 527.044 594.552C527.417 593.891 527.924 593.373 528.564 593C529.214 592.616 529.95 592.424 530.772 592.424C531.582 592.424 532.308 592.616 532.948 593C533.598 593.373 534.11 593.891 534.484 594.552C534.857 595.203 535.044 595.949 535.044 596.792C535.044 597.635 534.857 598.387 534.484 599.048C534.11 599.699 533.598 600.216 532.948 600.6C532.308 600.973 531.582 601.16 530.772 601.16ZM530.772 599.656C531.273 599.656 531.721 599.533 532.116 599.288C532.51 599.032 532.82 598.691 533.044 598.264C533.268 597.827 533.374 597.336 533.364 596.792C533.374 596.237 533.268 595.747 533.044 595.32C532.82 594.883 532.51 594.541 532.116 594.296C531.721 594.051 531.273 593.928 530.772 593.928C530.27 593.928 529.817 594.056 529.412 594.312C529.017 594.557 528.708 594.899 528.484 595.336C528.26 595.763 528.153 596.248 528.164 596.792C528.153 597.336 528.26 597.827 528.484 598.264C528.708 598.691 529.017 599.032 529.412 599.288C529.817 599.533 530.27 599.656 530.772 599.656ZM537.88 601V590.456H539.528V601H537.88ZM536.136 594.2V592.6H541.48V594.2H536.136ZM547.881 601V589.8H552.441C553.049 589.8 553.598 589.955 554.089 590.264C554.59 590.563 554.99 590.973 555.289 591.496C555.587 592.019 555.737 592.6 555.737 593.24C555.737 593.88 555.587 594.461 555.289 594.984C554.99 595.507 554.59 595.928 554.089 596.248C553.598 596.557 553.049 596.712 552.441 596.712H549.609V601H547.881ZM549.609 595.048H552.409C552.697 595.048 552.958 594.968 553.193 594.808C553.427 594.637 553.614 594.419 553.753 594.152C553.902 593.875 553.977 593.571 553.977 593.24C553.977 592.909 553.902 592.611 553.753 592.344C553.614 592.077 553.427 591.864 553.193 591.704C552.958 591.544 552.697 591.464 552.409 591.464H549.609V595.048ZM560.681 601.16C559.988 601.16 559.353 600.968 558.777 600.584C558.212 600.2 557.758 599.677 557.417 599.016C557.076 598.355 556.905 597.608 556.905 596.776C556.905 595.933 557.076 595.187 557.417 594.536C557.769 593.875 558.238 593.357 558.825 592.984C559.422 592.611 560.089 592.424 560.825 592.424C561.262 592.424 561.662 592.488 562.025 592.616C562.388 592.744 562.702 592.925 562.969 593.16C563.246 593.384 563.47 593.645 563.641 593.944C563.822 594.243 563.934 594.563 563.977 594.904L563.609 594.776V592.6H565.273V601H563.609V599L563.993 598.888C563.929 599.176 563.796 599.459 563.593 599.736C563.401 600.003 563.15 600.243 562.841 600.456C562.542 600.669 562.206 600.84 561.833 600.968C561.47 601.096 561.086 601.16 560.681 601.16ZM561.113 599.64C561.614 599.64 562.057 599.517 562.441 599.272C562.825 599.027 563.124 598.691 563.337 598.264C563.561 597.827 563.673 597.331 563.673 596.776C563.673 596.232 563.561 595.747 563.337 595.32C563.124 594.893 562.825 594.557 562.441 594.312C562.057 594.067 561.614 593.944 561.113 593.944C560.622 593.944 560.185 594.067 559.801 594.312C559.428 594.557 559.129 594.893 558.905 595.32C558.692 595.747 558.585 596.232 558.585 596.776C558.585 597.331 558.692 597.827 558.905 598.264C559.129 598.691 559.428 599.027 559.801 599.272C560.185 599.517 560.622 599.64 561.113 599.64ZM570.374 601.16C569.67 601.16 569.035 601.037 568.47 600.792C567.905 600.547 567.435 600.184 567.062 599.704L568.182 598.744C568.502 599.117 568.849 599.389 569.222 599.56C569.606 599.72 570.038 599.8 570.518 599.8C570.71 599.8 570.886 599.779 571.046 599.736C571.217 599.683 571.361 599.608 571.478 599.512C571.606 599.416 571.702 599.304 571.766 599.176C571.83 599.037 571.862 598.888 571.862 598.728C571.862 598.451 571.761 598.227 571.558 598.056C571.451 597.981 571.281 597.901 571.046 597.816C570.822 597.72 570.529 597.624 570.166 597.528C569.547 597.368 569.041 597.187 568.646 596.984C568.251 596.781 567.947 596.552 567.734 596.296C567.574 596.093 567.457 595.875 567.382 595.64C567.307 595.395 567.27 595.128 567.27 594.84C567.27 594.488 567.345 594.168 567.494 593.88C567.654 593.581 567.867 593.325 568.134 593.112C568.411 592.888 568.731 592.717 569.094 592.6C569.467 592.483 569.862 592.424 570.278 592.424C570.673 592.424 571.062 592.477 571.446 592.584C571.841 592.691 572.203 592.845 572.534 593.048C572.865 593.251 573.142 593.491 573.366 593.768L572.422 594.808C572.219 594.605 571.995 594.429 571.75 594.28C571.515 594.12 571.275 593.997 571.03 593.912C570.785 593.827 570.561 593.784 570.358 593.784C570.134 593.784 569.931 593.805 569.75 593.848C569.569 593.891 569.414 593.955 569.286 594.04C569.169 594.125 569.078 594.232 569.014 594.36C568.95 594.488 568.918 594.632 568.918 594.792C568.929 594.931 568.961 595.064 569.014 595.192C569.078 595.309 569.163 595.411 569.27 595.496C569.387 595.581 569.563 595.672 569.798 595.768C570.033 595.864 570.331 595.955 570.694 596.04C571.227 596.179 571.665 596.333 572.006 596.504C572.358 596.664 572.635 596.851 572.838 597.064C573.051 597.267 573.201 597.501 573.286 597.768C573.371 598.035 573.414 598.333 573.414 598.664C573.414 599.144 573.275 599.576 572.998 599.96C572.731 600.333 572.369 600.627 571.91 600.84C571.451 601.053 570.939 601.16 570.374 601.16ZM578.03 601.16C577.326 601.16 576.691 601.037 576.126 600.792C575.561 600.547 575.091 600.184 574.718 599.704L575.838 598.744C576.158 599.117 576.505 599.389 576.878 599.56C577.262 599.72 577.694 599.8 578.174 599.8C578.366 599.8 578.542 599.779 578.702 599.736C578.873 599.683 579.017 599.608 579.134 599.512C579.262 599.416 579.358 599.304 579.422 599.176C579.486 599.037 579.518 598.888 579.518 598.728C579.518 598.451 579.417 598.227 579.214 598.056C579.107 597.981 578.937 597.901 578.702 597.816C578.478 597.72 578.185 597.624 577.822 597.528C577.203 597.368 576.697 597.187 576.302 596.984C575.907 596.781 575.603 596.552 575.39 596.296C575.23 596.093 575.113 595.875 575.038 595.64C574.963 595.395 574.926 595.128 574.926 594.84C574.926 594.488 575.001 594.168 575.15 593.88C575.31 593.581 575.523 593.325 575.79 593.112C576.067 592.888 576.387 592.717 576.75 592.6C577.123 592.483 577.518 592.424 577.934 592.424C578.329 592.424 578.718 592.477 579.102 592.584C579.497 592.691 579.859 592.845 580.19 593.048C580.521 593.251 580.798 593.491 581.022 593.768L580.078 594.808C579.875 594.605 579.651 594.429 579.406 594.28C579.171 594.12 578.931 593.997 578.686 593.912C578.441 593.827 578.217 593.784 578.014 593.784C577.79 593.784 577.587 593.805 577.406 593.848C577.225 593.891 577.07 593.955 576.942 594.04C576.825 594.125 576.734 594.232 576.67 594.36C576.606 594.488 576.574 594.632 576.574 594.792C576.585 594.931 576.617 595.064 576.67 595.192C576.734 595.309 576.819 595.411 576.926 595.496C577.043 595.581 577.219 595.672 577.454 595.768C577.689 595.864 577.987 595.955 578.35 596.04C578.883 596.179 579.321 596.333 579.662 596.504C580.014 596.664 580.291 596.851 580.494 597.064C580.707 597.267 580.857 597.501 580.942 597.768C581.027 598.035 581.07 598.333 581.07 598.664C581.07 599.144 580.931 599.576 580.654 599.96C580.387 600.333 580.025 600.627 579.566 600.84C579.107 601.053 578.595 601.16 578.03 601.16ZM584.95 601L582.086 592.6L583.75 592.584L585.798 598.872L585.43 598.84L587.654 593.928H588.646L590.886 598.856L590.454 598.888L592.518 592.6H594.182L591.35 601H590.214L587.878 595.656L588.246 595.704L586.07 601H584.95ZM599.225 601.16C598.404 601.16 597.668 600.973 597.017 600.6C596.377 600.216 595.87 599.699 595.497 599.048C595.124 598.387 594.937 597.635 594.937 596.792C594.937 595.949 595.124 595.203 595.497 594.552C595.87 593.891 596.377 593.373 597.017 593C597.668 592.616 598.404 592.424 599.225 592.424C600.036 592.424 600.761 592.616 601.401 593C602.052 593.373 602.564 593.891 602.937 594.552C603.31 595.203 603.497 595.949 603.497 596.792C603.497 597.635 603.31 598.387 602.937 599.048C602.564 599.699 602.052 600.216 601.401 600.6C600.761 600.973 600.036 601.16 599.225 601.16ZM599.225 599.656C599.726 599.656 600.174 599.533 600.569 599.288C600.964 599.032 601.273 598.691 601.497 598.264C601.721 597.827 601.828 597.336 601.817 596.792C601.828 596.237 601.721 595.747 601.497 595.32C601.273 594.883 600.964 594.541 600.569 594.296C600.174 594.051 599.726 593.928 599.225 593.928C598.724 593.928 598.27 594.056 597.865 594.312C597.47 594.557 597.161 594.899 596.937 595.336C596.713 595.763 596.606 596.248 596.617 596.792C596.606 597.336 596.713 597.827 596.937 598.264C597.161 598.691 597.47 599.032 597.865 599.288C598.27 599.533 598.724 599.656 599.225 599.656ZM605.293 601V592.6H606.957V595.24L606.797 594.6C606.914 594.195 607.111 593.827 607.389 593.496C607.677 593.165 608.002 592.904 608.365 592.712C608.738 592.52 609.122 592.424 609.517 592.424C609.698 592.424 609.869 592.44 610.029 592.472C610.199 592.504 610.333 592.541 610.429 592.584L609.997 594.376C609.869 594.323 609.725 594.28 609.565 594.248C609.415 594.205 609.266 594.184 609.117 594.184C608.829 594.184 608.551 594.243 608.285 594.36C608.029 594.467 607.799 594.621 607.597 594.824C607.405 595.016 607.25 595.245 607.133 595.512C607.015 595.768 606.957 596.051 606.957 596.36V601H605.293ZM614.89 601.16C614.122 601.16 613.434 600.973 612.826 600.6C612.229 600.216 611.754 599.699 611.402 599.048C611.05 598.387 610.874 597.635 610.874 596.792C610.874 595.949 611.045 595.203 611.386 594.552C611.738 593.891 612.213 593.373 612.81 593C613.408 592.616 614.085 592.424 614.842 592.424C615.258 592.424 615.658 592.493 616.042 592.632C616.437 592.76 616.789 592.941 617.098 593.176C617.408 593.4 617.648 593.651 617.818 593.928C618 594.195 618.09 594.467 618.09 594.744L617.61 594.776V589.16H619.258V601H617.61V599H617.93C617.93 599.256 617.845 599.512 617.674 599.768C617.504 600.013 617.274 600.243 616.986 600.456C616.709 600.669 616.384 600.84 616.01 600.968C615.648 601.096 615.274 601.16 614.89 601.16ZM615.114 599.736C615.616 599.736 616.058 599.608 616.442 599.352C616.826 599.096 617.125 598.749 617.338 598.312C617.562 597.864 617.674 597.357 617.674 596.792C617.674 596.227 617.562 595.725 617.338 595.288C617.125 594.84 616.826 594.488 616.442 594.232C616.058 593.976 615.616 593.848 615.114 593.848C614.613 593.848 614.17 593.976 613.786 594.232C613.402 594.488 613.098 594.84 612.874 595.288C612.661 595.725 612.554 596.227 612.554 596.792C612.554 597.357 612.661 597.864 612.874 598.312C613.098 598.749 613.402 599.096 613.786 599.352C614.17 599.608 614.613 599.736 615.114 599.736ZM627.947 597.624L627.531 595.368C627.947 595.261 628.321 595.144 628.651 595.016C628.982 594.877 629.265 594.733 629.499 594.584C629.745 594.424 629.947 594.253 630.107 594.072C630.267 593.891 630.385 593.699 630.459 593.496C630.545 593.283 630.587 593.059 630.587 592.824C630.587 592.515 630.502 592.237 630.331 591.992C630.171 591.747 629.947 591.555 629.659 591.416C629.371 591.277 629.046 591.208 628.683 591.208C628.257 591.208 627.841 591.357 627.435 591.656C627.041 591.944 626.699 592.355 626.411 592.888L625.211 591.88C625.67 591.176 626.214 590.632 626.843 590.248C627.483 589.853 628.15 589.656 628.843 589.656C629.515 589.656 630.118 589.795 630.651 590.072C631.185 590.349 631.606 590.728 631.915 591.208C632.235 591.688 632.395 592.227 632.395 592.824C632.395 593.176 632.321 593.523 632.171 593.864C632.033 594.195 631.83 594.509 631.563 594.808C631.297 595.107 630.982 595.373 630.619 595.608C630.267 595.843 629.878 596.035 629.451 596.184L629.179 597.624H627.947ZM627.387 599.976C627.387 599.624 627.489 599.336 627.691 599.112C627.894 598.888 628.161 598.776 628.491 598.776C628.843 598.776 629.115 598.883 629.307 599.096C629.499 599.299 629.595 599.592 629.595 599.976C629.595 600.328 629.494 600.616 629.291 600.84C629.089 601.064 628.822 601.176 628.491 601.176C628.139 601.176 627.867 601.075 627.675 600.872C627.483 600.659 627.387 600.36 627.387 599.976Z" fill="#A2A2A2"/>
<g clip-path="url(#clip1_160_10305)">
<path d="M639.154 164.285V228.12L623 213.138V148L639.154 164.285Z" fill="#2A5578"/>
<path d="M663.709 188.386L646.908 171.45V193.597L664.355 211.184L703.771 171.45V148L663.709 188.386Z" fill="#2A5578"/>
<path d="M703.771 184.477L689.086 197.505V228.771L703.771 215.744V184.477Z" fill="#2A5578"/>
<path d="M711.514 211.414V195.43C711.557 193.453 712.502 191.498 714.35 189.564C716.584 187.287 719.291 186.127 722.471 186.084V191.176C720.408 191.176 718.797 192.078 717.637 193.883C717.164 194.656 716.928 195.365 716.928 196.01V200.393H731.365V196.01C731.365 194.076 730.377 192.658 728.4 191.756C727.498 191.326 726.574 191.111 725.629 191.111V186.084C728.594 186.084 731.236 187.137 733.557 189.242C735.49 191.09 736.479 193.131 736.521 195.365V205.613H716.928V211.414C716.928 212.617 717.615 213.734 718.99 214.766C720.107 215.539 721.289 215.926 722.535 215.926V220.953C718.625 220.953 715.553 219.363 713.318 216.184C712.115 214.508 711.514 212.918 711.514 211.414ZM725.629 220.953V215.861C728.207 215.861 730.141 214.744 731.43 212.51C731.688 212.037 731.881 211.586 732.01 211.156L736.586 212.832C735.812 215.797 734.051 218.031 731.301 219.535C729.539 220.481 727.648 220.953 725.629 220.953ZM741.678 211.414V195.43C741.721 193.453 742.666 191.498 744.514 189.564C746.748 187.287 749.455 186.127 752.635 186.084V191.176C750.572 191.176 748.961 192.078 747.801 193.883C747.328 194.656 747.092 195.365 747.092 196.01V200.393H761.529V196.01C761.529 194.076 760.541 192.658 758.564 191.756C757.662 191.326 756.738 191.111 755.793 191.111V186.084C758.758 186.084 761.4 187.137 763.721 189.242C765.654 191.09 766.643 193.131 766.686 195.365V205.613H747.092V211.414C747.092 212.617 747.779 213.734 749.154 214.766C750.271 215.539 751.453 215.926 752.699 215.926V220.953C748.789 220.953 745.717 219.363 743.482 216.184C742.279 214.508 741.678 212.918 741.678 211.414ZM755.793 220.953V215.861C758.371 215.861 760.305 214.744 761.594 212.51C761.852 212.037 762.045 211.586 762.174 211.156L766.75 212.832C765.977 215.797 764.215 218.031 761.465 219.535C759.703 220.481 757.812 220.953 755.793 220.953ZM770.424 191.691V186.471H774.678V175.32H780.156V186.471H784.281V191.756H780.156V210.254C780.156 213.305 781.402 215.002 783.895 215.346C784.367 215.432 784.84 215.475 785.312 215.475H786.215L787.439 220.953H785.119C779.834 220.91 776.59 218.934 775.387 215.023C774.957 213.562 774.742 211.758 774.742 209.609L774.678 191.691H770.424ZM790.404 220.953V175.449H795.947V220.953H790.404ZM797.559 203.486L810.707 186.148H817.217L803.939 203.486L817.281 220.953H810.836L797.559 203.486Z" fill="#2A5578"/>
</g>
</g>
<defs>
<linearGradient id="paint0_linear_160_10305" x1="796.014" y1="536.55" x2="1057.9" y2="-454.833" gradientUnits="userSpaceOnUse">
<stop stop-color="#2A5578" stop-opacity="0.7"/>
<stop offset="1" stop-color="#E1E8ED"/>
</linearGradient>
<clipPath id="clip0_160_10305">
<rect width="1440" height="1080" fill="white"/>
</clipPath>
<clipPath id="clip1_160_10305">
<rect width="195" height="81" fill="white" transform="translate(623 148)"/>
</clipPath>
</defs>
</svg>
