<svg width="33" height="18" viewBox="0 0 33 18" fill="none" xmlns="http://www.w3.org/2000/svg">
<path fill-rule="evenodd" clip-rule="evenodd" d="M1.21094 15.8385H3.94792C3.6875 15.7708 3.49219 15.5313 3.49219 15.25V0.606771C3.49219 0.273438 3.76563 0 4.09896 0H28.7448C29.0781 0 29.3516 0.273438 29.3516 0.606771V15.2474C29.3516 15.5286 29.1589 15.7682 28.8958 15.8359H31.7917C32.1823 15.8359 32.5026 16.1536 32.5026 16.5469C32.5026 16.9375 32.1849 17.2578 31.7917 17.2578H1.21094C0.820313 17.2578 0.5 16.9401 0.5 16.5469C0.5 16.1563 0.817708 15.8385 1.21094 15.8385ZM8.28906 2.85677H14.638V10.4714C14.625 10.6849 14.3516 10.6901 14.0547 10.6771H8.1875C7.77604 10.6771 7.4401 11.013 7.4401 11.4245C7.4401 11.8359 7.77604 12.1719 8.1875 12.1719H14.3255V11.3776H14.9089V12.388C14.9089 12.5729 14.7578 12.7214 14.5755 12.7214H8.21615C7.47656 12.9948 6.8724 12.3906 6.8724 11.651V4.27344C6.875 3.49479 7.51042 2.85677 8.28906 2.85677ZM17.8776 12.3151C17.6667 12.3151 17.4948 12.1302 17.4948 11.9036C17.4948 11.6771 17.6667 11.4922 17.8776 11.4922H25.5052C25.7161 11.4922 25.888 11.6771 25.888 11.9036C25.888 12.1302 25.7161 12.3151 25.5052 12.3151H17.8776ZM17.8229 3.32813H26.2266C26.4063 3.32813 26.5547 3.47656 26.5547 3.65625V4.82813C26.5547 5.00521 26.4063 5.15625 26.2266 5.15625H17.8229C17.6458 5.15625 17.4948 5.01042 17.4948 4.82813V3.65625C17.4948 3.47396 17.6432 3.32813 17.8229 3.32813ZM17.8776 7.71615C17.6667 7.71615 17.4948 7.53125 17.4948 7.30469C17.4948 7.07813 17.6667 6.89323 17.8776 6.89323H24.9818C25.1927 6.89323 25.3646 7.07813 25.3646 7.30469C25.3646 7.53125 25.1927 7.71615 24.9818 7.71615H17.8776ZM17.8776 10.0156C17.6667 10.0156 17.4948 9.83073 17.4948 9.60417C17.4948 9.37761 17.6667 9.19271 17.8776 9.19271H23.875C24.0859 9.19271 24.2578 9.37761 24.2578 9.60417C24.2578 9.83073 24.0859 10.0156 23.875 10.0156H17.8776ZM8.55208 3.96354H8.78906C8.90885 3.96354 9.00781 4.04427 9.00781 4.14063V9.70573C9.00781 9.80208 8.90885 9.88281 8.78906 9.88281H8.55208C8.43229 9.88281 8.33333 9.80208 8.33333 9.70573V4.14063C8.33333 4.04167 8.43229 3.96354 8.55208 3.96354ZM4.52865 0.950521H28.3958V15.0755H4.52865V0.950521ZM15.9036 16.1042H17.901C18.0885 16.1042 18.2422 16.2578 18.2422 16.4453C18.2422 16.6328 18.0885 16.7865 17.901 16.7865H15.9036C15.7161 16.7865 15.5625 16.6328 15.5625 16.4453C15.5625 16.2552 15.7161 16.1042 15.9036 16.1042Z" fill="#2A5578"/>
</svg>
