<svg width="500" height="500" viewBox="0 0 500 500" fill="none" xmlns="http://www.w3.org/2000/svg">
<path d="M106.119 275.131C106.119 275.131 97.0393 277.531 104.679 297.131C112.319 316.731 117.979 326.631 117.979 326.631C117.979 326.631 119.229 331.131 115.519 331.431C111.809 331.731 103.909 329.651 101.839 333.951C99.7693 338.251 102.609 343.101 109.039 347.611C115.469 352.121 129.179 362.531 130.419 363.471C131.659 364.411 132.729 366.551 130.229 367.161C127.729 367.771 109.499 367.841 110.049 376.491C110.599 385.141 130.569 394.771 132.729 395.871C134.889 396.971 135.329 397.971 135.029 399.181C134.729 400.391 128.589 399.851 123.399 400.081C118.209 400.311 112.239 401.491 112.979 406.451C113.719 411.411 124.979 422.831 154.479 428.741L168.339 430.591L177.089 419.591C194.369 394.941 194.649 378.921 191.759 374.821C188.869 370.721 183.759 373.981 179.809 377.391C175.859 380.801 171.809 385.391 170.809 384.771C169.809 384.151 169.369 383.061 170.179 380.771C170.989 378.481 178.809 357.771 173.239 351.101C167.669 344.431 154.419 356.991 152.189 358.261C149.959 359.531 149.269 357.261 149.509 355.721C149.749 354.181 152.509 337.191 154.049 329.491C155.589 321.791 154.459 316.381 149.829 314.631C145.369 312.951 141.089 319.911 138.189 322.251C135.289 324.591 133.099 320.471 133.099 320.471C133.099 320.471 130.369 309.401 122.379 289.941C114.389 270.481 105.969 275.161 105.969 275.161" fill="#EBEBEB"/>
<path d="M168.73 433.93C162.92 419.62 153 394 144.39 372.05C135.78 350.1 127.96 330.25 122.22 315.91C119.34 308.76 117.02 302.91 115.4 298.91L113.55 294.29L113.08 293.09C113.022 292.953 112.972 292.813 112.93 292.67C112.93 292.67 113 292.8 113.12 293.07C113.24 293.34 113.41 293.75 113.63 294.26L115.56 298.85C117.22 302.85 119.56 308.62 122.5 315.78C128.31 330.09 136.18 349.93 144.8 371.88C153.42 393.83 163.27 419.46 169.02 433.8" fill="#E0E0E0"/>
<path d="M112.77 337.311C113.096 337.399 113.411 337.523 113.71 337.681C114.31 337.941 115.16 338.341 116.2 338.841C118.29 339.841 121.14 341.331 124.26 343.021L132.26 347.361L134.68 348.651C134.988 348.792 135.279 348.966 135.55 349.171C135.223 349.077 134.906 348.957 134.6 348.811C134.01 348.551 133.16 348.141 132.12 347.631C130.04 346.631 127.21 345.081 124.12 343.401L116.12 339.121L113.7 337.831C113.367 337.701 113.054 337.526 112.77 337.311Z" fill="#E0E0E0"/>
<path d="M136.55 348.37C136.44 348.32 139.22 342.31 142.76 334.95C146.3 327.59 149.25 321.66 149.36 321.71C149.47 321.76 146.69 327.78 143.15 335.14C139.61 342.5 136.66 348.43 136.55 348.37Z" fill="#E0E0E0"/>
<path d="M148.26 382.67C148.448 382.382 148.666 382.114 148.91 381.87L150.79 379.78C152.37 378.02 154.54 375.57 156.79 372.78C159.04 369.99 161.09 367.41 162.52 365.52C163.2 364.64 163.76 363.89 164.22 363.29C164.408 363.002 164.63 362.737 164.88 362.5C164.743 362.817 164.569 363.116 164.36 363.39C163.99 363.94 163.46 364.74 162.77 365.71C161.4 367.64 159.44 370.27 157.13 373.06C154.82 375.85 152.61 378.28 150.97 379.99C150.15 380.84 149.48 381.53 148.97 381.99C148.758 382.241 148.52 382.469 148.26 382.67Z" fill="#E0E0E0"/>
<path d="M124.549 377.4C124.886 377.394 125.222 377.431 125.549 377.51L128.099 377.97C130.249 378.38 133.219 378.97 136.489 379.66C139.759 380.35 142.709 380.99 144.849 381.47L147.369 382.07C147.686 382.126 147.995 382.22 148.289 382.35C147.952 382.357 147.616 382.32 147.289 382.24L144.739 381.77C142.579 381.36 139.619 380.77 136.349 380.09C133.079 379.41 130.119 378.76 127.989 378.27L125.459 377.68C125.145 377.625 124.839 377.531 124.549 377.4Z" fill="#E0E0E0"/>
<path d="M131 409C131.411 409.016 131.819 409.069 132.22 409.16L135.49 409.74C138.25 410.25 142.06 410.98 146.25 411.81C150.44 412.64 154.25 413.43 157 414.02L160.24 414.73C160.643 414.799 161.038 414.906 161.42 415.05C161.013 415.041 160.607 414.991 160.21 414.9L156.94 414.32C154.18 413.81 150.37 413.08 146.17 412.24C141.97 411.4 138.17 410.62 135.43 410.04L132.18 409.32C131.778 409.247 131.383 409.14 131 409Z" fill="#E0E0E0"/>
<path d="M160.779 414.69C161.012 414.334 161.276 413.999 161.569 413.69L163.849 410.96C165.779 408.65 168.419 405.45 171.239 401.83C174.059 398.21 176.529 394.89 178.299 392.46L180.399 389.58C180.643 389.226 180.913 388.892 181.209 388.58C181.024 388.975 180.799 389.35 180.539 389.7C180.079 390.41 179.409 391.42 178.539 392.7C176.829 395.17 174.399 398.54 171.539 402.16C168.679 405.78 166.029 408.95 164.049 411.22C163.049 412.34 162.239 413.22 161.659 413.86C161.388 414.159 161.094 414.437 160.779 414.69Z" fill="#E0E0E0"/>
<path d="M435.849 410.77C434.104 411.826 432.085 412.34 430.048 412.248C428.011 412.156 426.046 411.462 424.403 410.253C422.761 409.045 421.513 407.376 420.819 405.458C420.125 403.541 420.015 401.46 420.503 399.48C420.991 397.5 422.056 395.709 423.563 394.334C425.069 392.959 426.949 392.062 428.966 391.755C430.982 391.449 433.044 391.748 434.891 392.614C436.737 393.48 438.285 394.874 439.339 396.62C440.04 397.778 440.506 399.063 440.709 400.401C440.913 401.739 440.851 403.104 440.527 404.419C440.203 405.733 439.623 406.97 438.82 408.06C438.018 409.15 437.008 410.071 435.849 410.77Z" fill="white"/>
<path d="M437 423.39C436.123 423.393 435.249 423.285 434.4 423.07C431.752 422.408 429.456 420.761 427.98 418.465C426.505 416.168 425.961 413.396 426.46 410.712C426.958 408.028 428.462 405.636 430.664 404.023C432.865 402.41 435.6 401.697 438.309 402.031C441.018 402.364 443.498 403.718 445.243 405.817C446.988 407.916 447.866 410.602 447.699 413.326C447.532 416.05 446.332 418.609 444.344 420.479C442.356 422.349 439.729 423.39 437 423.39ZM437 402.77C435.263 402.773 433.558 403.238 432.06 404.115C430.561 404.993 429.322 406.253 428.47 407.766C427.618 409.28 427.183 410.992 427.209 412.729C427.235 414.465 427.722 416.163 428.62 417.65C429.964 419.853 432.12 421.439 434.623 422.066C437.127 422.693 439.776 422.31 442 421C443.66 419.996 444.985 418.522 445.808 416.765C446.631 415.008 446.914 413.046 446.622 411.128C446.33 409.21 445.475 407.422 444.166 405.989C442.858 404.557 441.154 403.544 439.27 403.08C438.506 402.88 437.719 402.776 436.93 402.77H437Z" fill="white"/>
<path d="M367.59 335.246L366.438 335.942L371.559 344.413L372.712 343.717L367.59 335.246Z" fill="#EBEBEB"/>
<path d="M209.299 33.6104C208.539 44.4104 209.299 64.5304 205.369 74.6104C201.439 84.6904 196.189 95.0904 186.369 99.6104C174.249 105.17 160.009 102.81 147.079 106.07C126.819 111.17 112.159 129.76 105.909 149.7C99.6592 169.64 100.349 191 101.099 211.88L204.499 226.22C204.499 226.22 205.039 184.22 214.059 172.73C223.079 161.24 265.929 150.93 280.059 119.52C292.799 91.2503 296.639 46.4203 296.639 46.4203L209.299 33.6104Z" fill="#F5F5F5"/>
<path d="M234.558 61.9999L233.218 59.5299C233.032 59.5441 232.845 59.5441 232.658 59.5299L230.758 59.2999L230.478 61.5399L229.738 61.4499L230.608 54.3799L233.248 54.7099C235.048 54.9299 236.018 55.9799 235.838 57.4899C235.796 57.9878 235.586 58.4567 235.243 58.8199C234.899 59.1832 234.443 59.4193 233.948 59.4899L235.368 62.1199L234.558 61.9999ZM235.088 57.3599C235.228 56.2299 234.558 55.4899 233.148 55.3599L231.268 55.1299L230.838 58.6699L232.708 58.8999C234.128 58.9999 234.998 58.4799 235.088 57.3699V57.3599Z" fill="#E0E0E0"/>
<path d="M242.1 62.2907L242.02 62.9307L237.02 62.3207L237.89 55.2607L242.73 55.8507L242.65 56.5007L238.57 56.0007L238.26 58.5207L241.91 58.9707L241.83 59.6007L238.18 59.1507L237.85 61.7707L242.1 62.2907Z" fill="#E0E0E0"/>
<path d="M243.539 59.5407C243.593 59.0565 243.744 58.5882 243.984 58.1645C244.225 57.7408 244.549 57.3706 244.938 57.0767C245.326 56.7827 245.771 56.5712 246.244 56.4549C246.717 56.3387 247.209 56.3203 247.689 56.4007C248.169 56.4422 248.635 56.5838 249.057 56.8163C249.479 57.0488 249.848 57.3671 250.139 57.7507L249.609 58.1707C249.372 57.8568 249.072 57.5964 248.727 57.4069C248.382 57.2173 248.001 57.1027 247.609 57.0707C247.217 57.006 246.816 57.021 246.431 57.115C246.045 57.209 245.682 57.38 245.363 57.6176C245.045 57.8553 244.778 58.1549 244.578 58.4982C244.379 58.8416 244.25 59.2218 244.201 59.616C244.152 60.0102 244.183 60.4102 244.292 60.7922C244.401 61.1741 244.586 61.53 244.837 61.8387C245.087 62.1473 245.397 62.4022 245.748 62.5881C246.099 62.7741 246.484 62.8872 246.879 62.9207C247.267 62.9833 247.663 62.9631 248.043 62.8614C248.422 62.7597 248.775 62.5789 249.079 62.3307L249.489 62.8707C249.11 63.1718 248.673 63.3904 248.204 63.5126C247.736 63.6349 247.247 63.6581 246.769 63.5807C246.288 63.5378 245.82 63.3977 245.394 63.1691C244.969 62.9405 244.593 62.628 244.292 62.2505C243.99 61.873 243.768 61.4383 243.638 60.9726C243.509 60.5069 243.475 60.0198 243.539 59.5407Z" fill="#E0E0E0"/>
<path d="M256.06 64.0004L255.98 64.6504L251 64.0004L251.87 56.9404L256.71 57.5404L256.63 58.1804L252.53 57.6804L252.22 60.1904L255.87 60.6404L255.8 61.2804L252.15 60.8304L251.82 63.4504L256.06 64.0004Z" fill="#E0E0E0"/>
<path d="M258.608 57.8105L259.349 57.9105L258.479 65.0005L257.729 64.9005L258.608 57.8105Z" fill="#E0E0E0"/>
<path d="M266.879 61.2904C266.689 62.8004 265.489 63.5704 263.699 63.3504L261.799 63.1104L261.529 65.3404L260.779 65.2504L261.649 58.1904L264.289 58.5204C266.089 58.7404 267.069 59.7804 266.879 61.2904ZM266.129 61.2004C266.269 60.0704 265.609 59.3404 264.189 59.2004L262.319 58.9704L261.879 62.5004L263.759 62.7304C265.169 62.8704 265.999 62.3104 266.129 61.2004Z" fill="#E0E0E0"/>
<path d="M269.849 59.8602L267.369 59.5502L267.449 58.9102L273.159 59.6102L273.079 60.2602L270.599 60.0002L269.809 66.4202L269.059 66.3202L269.849 59.8602Z" fill="#E0E0E0"/>
<path d="M258.679 79.2503C258.679 79.4003 249.229 78.2503 237.629 76.6503C226.029 75.0503 216.629 73.6503 216.629 73.5303C216.629 73.4103 226.069 74.5303 237.629 76.1303C249.189 77.7303 258.689 79.1103 258.679 79.2503Z" fill="#E0E0E0"/>
<path d="M257.539 87.6702C257.539 87.8202 248.099 86.6702 236.539 85.0702C224.979 83.4702 215.539 82.0702 215.539 81.9502C215.539 81.8302 224.979 82.9502 236.539 84.5502C248.099 86.1502 257.559 87.5302 257.539 87.6702Z" fill="#E0E0E0"/>
<path d="M253.689 96.2607C253.689 96.4007 244.249 95.2607 232.689 93.6607C221.129 92.0607 211.689 90.6607 211.689 90.5307C211.689 90.4007 221.119 91.5307 232.689 93.1407C244.259 94.7507 253.709 96.1207 253.689 96.2607Z" fill="#E0E0E0"/>
<path d="M246.679 104.92C246.679 105.07 237.239 103.92 225.629 102.32C214.019 100.72 204.629 99.3202 204.629 99.2002C204.629 99.0802 214.069 100.2 225.679 101.8C237.289 103.4 246.699 104.78 246.679 104.92Z" fill="#E0E0E0"/>
<path d="M235.51 113.571C235.51 113.711 226.07 112.571 214.51 110.961C202.95 109.351 193.51 107.961 193.51 107.841C193.51 107.721 202.95 108.841 214.51 110.451C226.07 112.061 235.53 113.421 235.51 113.571Z" fill="#E0E0E0"/>
<path d="M277.51 82.0606C274.043 81.845 270.606 81.2856 267.25 80.3906C268.991 80.4139 270.726 80.6082 272.43 80.9706C274.155 81.1638 275.857 81.529 277.51 82.0606Z" fill="#E0E0E0"/>
<path d="M277.15 89.5702C275.419 89.5482 273.694 89.3573 272 89.0002C270.274 88.8069 268.573 88.4418 266.92 87.9102C268.659 87.9221 270.392 88.1165 272.09 88.4902C273.808 88.6843 275.502 89.046 277.15 89.5702Z" fill="#E0E0E0"/>
<path d="M274.6 100.001C272.858 99.9697 271.123 99.7687 269.42 99.4007C267.7 99.1833 266.001 98.8254 264.34 98.3307C264.34 98.1507 266.68 98.4207 269.51 98.8807C271.24 99.0826 272.945 99.4578 274.6 100.001Z" fill="#E0E0E0"/>
<path d="M270.92 108.751C269.178 108.72 267.443 108.519 265.74 108.151C264.021 107.932 262.322 107.574 260.66 107.081C260.66 106.901 263 107.171 265.83 107.631C267.56 107.831 269.266 108.206 270.92 108.751Z" fill="#E0E0E0"/>
<path d="M262.998 117.1C261.256 117.07 259.521 116.869 257.818 116.5C256.098 116.289 254.398 115.931 252.738 115.43C252.738 115.25 255.078 115.52 257.898 115.99C259.631 116.191 261.339 116.563 262.998 117.1Z" fill="#E0E0E0"/>
<path d="M225.998 124.131C225.998 124.271 211.838 122.391 194.418 119.921C176.998 117.451 162.878 115.341 162.898 115.201C162.918 115.061 177.058 116.941 194.488 119.411C211.918 121.881 225.998 124.001 225.998 124.131Z" fill="#E0E0E0"/>
<path d="M218.658 133C218.424 132.993 218.19 132.973 217.958 132.94L215.958 132.68L208.658 131.61L184.598 127.91C175.208 126.43 166.718 125.05 160.598 124.02L153.328 122.77C152.468 122.61 151.808 122.49 151.328 122.39C151.096 122.356 150.868 122.296 150.648 122.21C150.884 122.218 151.118 122.245 151.348 122.29L153.348 122.57L160.648 123.66L184.708 127.39L208.708 131.25L215.978 132.48L217.978 132.84C218.211 132.865 218.439 132.918 218.658 133Z" fill="#E0E0E0"/>
<path d="M205.46 141.061C204.587 141.081 203.715 141.004 202.86 140.831C201.17 140.611 198.72 140.271 195.69 139.831C189.64 138.961 181.29 137.691 172.08 136.251C162.87 134.811 154.52 133.461 148.49 132.461L141.35 131.261L139.42 130.901C139.191 130.873 138.967 130.819 138.75 130.741C138.978 130.734 139.206 130.754 139.43 130.801L141.38 131.051L148.55 132.051L172.16 135.681L195.75 139.421L205.46 141.061Z" fill="#E0E0E0"/>
<path d="M249.789 129.001C248.047 128.97 246.312 128.769 244.609 128.401C242.89 128.182 241.191 127.824 239.529 127.331C239.529 127.151 241.869 127.421 244.699 127.881C246.43 128.08 248.135 128.455 249.789 129.001Z" fill="#E0E0E0"/>
<path d="M239.6 134.66C237.858 134.629 236.123 134.428 234.42 134.06C232.7 133.841 231.001 133.483 229.34 132.99C229.34 132.81 231.68 133.08 234.51 133.54C236.24 133.739 237.946 134.114 239.6 134.66Z" fill="#E0E0E0"/>
<path d="M225.879 144.211C224.137 144.18 222.402 143.979 220.699 143.611C218.979 143.398 217.279 143.04 215.619 142.541C215.619 142.361 217.959 142.631 220.789 143.101C222.519 143.299 224.224 143.671 225.879 144.211Z" fill="#E0E0E0"/>
<path d="M199.66 159.291C199.66 159.441 182.15 156.861 160.66 153.551C139.17 150.241 121.66 147.431 121.66 147.291C121.66 147.151 139.16 149.721 160.66 153.041C182.16 156.361 199.68 159.151 199.66 159.291Z" fill="#E0E0E0"/>
<path d="M189.19 178.22C189.19 178.36 183.43 177.55 176.39 176.41C169.35 175.27 163.65 174.23 163.67 174.09C163.69 173.95 169.43 174.76 176.47 175.9C183.51 177.04 189.21 178.07 189.19 178.22Z" fill="#E0E0E0"/>
<path d="M465.41 463.75C465.41 463.9 368.96 464.01 250.01 464.01C131.06 464.01 34.5898 463.9 34.5898 463.75C34.5898 463.6 131.02 463.49 250.01 463.49C369 463.49 465.41 463.61 465.41 463.75Z" fill="#263238"/>
<path d="M141.491 124.521L141.571 128.521C141.571 128.521 143.201 159.521 143.101 164.181C143.001 168.841 127.451 195.431 127.451 195.431L137.001 211.001L159.801 170.001L154.341 126.001L154.201 124.911" fill="#FFBE9D"/>
<path d="M153.07 119.73L150 108.44L138 115.38C138 116.38 141.59 124.52 141.59 124.52L143.67 126.68C143.67 126.68 154.1 125.58 154.32 125.47C154.54 125.36 153.07 119.73 153.07 119.73Z" fill="#FFBE9D"/>
<path d="M150.371 109.24C150.371 109.24 150.441 109.33 150.491 109.48C150.951 110.7 152.291 116.21 151.681 116.62C151.071 117.03 149.011 117.13 148.681 116.44C148.351 115.75 147.211 109.44 147.211 109.44C147.211 109.44 147.091 108.44 148.671 107.77C149.651 107.39 150.371 109.24 150.371 109.24Z" fill="#FFBE9D"/>
<path d="M146.57 108.12C146.57 108.12 146.64 108.21 146.69 108.35C147.15 109.58 148.49 115.08 147.88 115.49C147.27 115.9 145.21 116 144.88 115.31C144.55 114.62 143.41 108.31 143.41 108.31C143.41 108.31 143.3 107.31 144.87 106.65C145.85 106.26 146.57 108.12 146.57 108.12Z" fill="#FFBE9D"/>
<path d="M143.1 108C143.158 108.07 143.199 108.152 143.22 108.24C143.68 109.46 145.01 114.97 144.4 115.38C143.79 115.79 141.74 115.89 141.4 115.2C141.06 114.51 139.93 108.2 139.93 108.2C139.93 108.2 139.81 107.2 141.39 106.54C142.38 106.11 143.1 108 143.1 108Z" fill="#FFBE9D"/>
<path d="M139.66 107.86C139.719 107.93 139.76 108.012 139.78 108.1C140.24 109.32 141.57 114.83 140.96 115.24C140.35 115.65 138.29 115.75 137.96 115.06C137.63 114.37 136.49 108.06 136.49 108.06C136.49 108.06 136.37 107.06 137.95 106.4C138.94 106 139.66 107.86 139.66 107.86Z" fill="#FFBE9D"/>
<path d="M148.251 114.84C148.226 113.912 148.081 112.991 147.821 112.1C147.679 111.199 147.423 110.318 147.061 109.48C147.085 110.409 147.23 111.329 147.491 112.22C147.632 113.122 147.888 114.003 148.251 114.84Z" fill="#EB996E"/>
<path d="M145 115.691C144.899 114.382 144.675 113.087 144.33 111.821C144.119 110.525 143.785 109.252 143.33 108.021C143.444 109.327 143.668 110.622 144 111.891C144.224 113.184 144.558 114.455 145 115.691Z" fill="#EB996E"/>
<g opacity="0.78">
<path d="M141.67 116.27C141.557 114.96 141.332 113.662 141 112.39C140.776 111.097 140.442 109.825 140 108.59C140.101 109.901 140.326 111.2 140.67 112.47C140.882 113.765 141.217 115.038 141.67 116.27Z" fill="#EB996E"/>
</g>
<path d="M144.271 123.42L140.631 120.48C139.036 119.195 138 117.342 137.741 115.31L137.541 113.76L148.541 111.54C148.541 111.54 148.541 115.63 145.441 115.68L149.311 117.68L144.271 123.42Z" fill="#FFBE9D"/>
<path d="M148.781 118.47C148.731 118.47 148.491 118.02 147.831 117.41C146.919 116.568 145.732 116.088 144.491 116.06H143.311L144.421 115.65L146.961 114.71C147.47 114.438 147.889 114.026 148.169 113.522C148.449 113.019 148.579 112.445 148.541 111.87C148.532 111.782 148.516 111.695 148.491 111.61L148.801 111.78C145.731 112.54 142.951 113.18 140.921 113.53C139.921 113.71 139.081 113.82 138.501 113.89C138.206 113.932 137.907 113.932 137.611 113.89C138.674 113.581 139.752 113.327 140.841 113.13C142.841 112.7 145.601 112 148.671 111.24L148.911 111.18L148.981 111.41C149.016 111.524 149.043 111.641 149.061 111.76C149.137 112.46 148.972 113.166 148.591 113.76C148.236 114.291 147.768 114.739 147.221 115.07L144.651 115.95L144.581 115.53C145.92 115.584 147.185 116.162 148.101 117.14C148.45 117.509 148.686 117.971 148.781 118.47Z" fill="#EB996E"/>
<path d="M148.111 113.38C148.201 113.38 148.381 113.88 148.941 114.38C149.083 114.518 149.265 114.608 149.46 114.636C149.656 114.665 149.856 114.631 150.031 114.54C150.226 114.377 150.375 114.166 150.461 113.927C150.547 113.687 150.568 113.43 150.521 113.18C150.391 111.94 150.321 110.78 150.211 109.98C150.101 109.18 149.961 108.67 150.041 108.64C150.121 108.61 150.351 109.08 150.571 109.91C150.8 110.978 150.957 112.061 151.041 113.15C151.096 113.491 151.054 113.841 150.92 114.159C150.785 114.478 150.564 114.752 150.281 114.95C150.021 115.083 149.724 115.127 149.437 115.074C149.15 115.022 148.888 114.876 148.691 114.66C148.454 114.402 148.277 114.094 148.171 113.76C148.101 113.53 148.081 113.4 148.111 113.38Z" fill="#EB996E"/>
<path d="M110.73 149.66C113.39 149.5 115.86 151.12 117.73 153.06C119.6 155 120.98 157.3 122.89 159.17C124.31 160.56 126.03 161.76 126.89 163.55C128.26 166.41 127.11 170.1 128.89 172.76C129.89 174.25 131.58 175.13 132.59 176.6C133.84 178.45 133.75 180.87 133.47 183.09C133.403 184.651 132.855 186.153 131.9 187.39C131.009 188.221 129.927 188.818 128.75 189.13C120.022 192.083 110.597 192.286 101.75 189.71" fill="#263238"/>
<path d="M92.3998 167.49C92.1707 165.664 92.3108 163.81 92.8118 162.038C93.3128 160.266 94.1644 158.613 95.3162 157.177C96.468 155.741 97.8965 154.551 99.517 153.677C101.137 152.803 102.917 152.264 104.75 152.09C108.299 151.816 111.819 152.905 114.595 155.134C117.37 157.363 119.192 160.566 119.69 164.09C120.544 169.109 121.132 174.17 121.45 179.25C121.36 186.31 117.23 189.05 115.56 189.88C114.958 190.099 114.334 190.254 113.7 190.34C113.7 190.34 113.7 190.34 113.7 190.39L115.27 198.49C115.98 203.8 113.02 208.49 107.72 209.3C102.42 210.11 98.2498 206 97.4398 200.69L92.3998 167.49Z" fill="#FFBE9D"/>
<path d="M118.47 168.26C118.36 168.42 117.47 167.92 116.23 168.1C114.99 168.28 114.23 169 114.1 168.87C113.97 168.74 114.1 168.54 114.47 168.2C114.935 167.768 115.521 167.489 116.15 167.4C116.771 167.312 117.404 167.42 117.96 167.71C118.37 167.94 118.53 168.18 118.47 168.26Z" fill="#263238"/>
<path d="M107.851 170.56C107.731 170.72 106.851 170.22 105.611 170.4C104.371 170.58 103.611 171.3 103.471 171.18C103.331 171.06 103.471 170.84 103.841 170.51C104.305 170.07 104.897 169.79 105.531 169.71C106.151 169.613 106.786 169.718 107.341 170.01C107.741 170.24 107.911 170.48 107.851 170.56Z" fill="#263238"/>
<path d="M112 176.2C112.603 175.917 113.237 175.705 113.89 175.57C114.19 175.49 114.47 175.39 114.49 175.18C114.467 174.859 114.349 174.553 114.15 174.3L112.91 172.11C111.79 170.262 110.817 168.33 110 166.33C111.272 168.078 112.4 169.928 113.37 171.86C113.79 172.63 114.19 173.37 114.58 174.07C114.822 174.414 114.939 174.831 114.91 175.25C114.879 175.364 114.824 175.469 114.748 175.559C114.672 175.649 114.577 175.721 114.47 175.77C114.309 175.836 114.142 175.883 113.97 175.91C113.33 176.096 112.667 176.193 112 176.2Z" fill="#263238"/>
<path d="M113.65 190.391C113.65 190.391 109.1 191.441 102.83 188.811C102.83 188.811 105.53 194.641 114.08 192.571L113.65 190.391Z" fill="#EB996E"/>
<path d="M111.89 179.15C111.625 178.906 111.304 178.732 110.954 178.642C110.605 178.553 110.239 178.553 109.89 178.64C109.631 178.703 109.387 178.816 109.172 178.974C108.957 179.132 108.776 179.332 108.64 179.56C108.511 179.784 108.453 180.041 108.472 180.297C108.492 180.554 108.589 180.799 108.75 181C108.975 181.185 109.25 181.3 109.539 181.33C109.829 181.36 110.121 181.305 110.38 181.17C110.912 180.883 111.384 180.496 111.77 180.03C111.889 179.915 111.988 179.78 112.06 179.631C112.095 179.559 112.106 179.478 112.094 179.4C112.081 179.321 112.045 179.248 111.99 179.19" fill="#EB996E"/>
<path d="M108.591 177.54C108.781 177.54 108.971 178.8 110.211 179.54C111.451 180.28 112.821 179.95 112.851 180.13C112.881 180.31 112.581 180.43 112.001 180.53C111.243 180.651 110.467 180.498 109.811 180.1C109.177 179.724 108.717 179.113 108.531 178.4C108.401 177.89 108.501 177.55 108.591 177.54Z" fill="#263238"/>
<path d="M107.001 166.67C106.931 167.02 105.711 167.03 104.331 167.41C102.951 167.79 101.881 168.33 101.651 168.06C101.551 167.94 101.651 167.6 102.111 167.22C102.664 166.747 103.318 166.405 104.024 166.222C104.729 166.038 105.466 166.017 106.181 166.16C106.761 166.29 107.051 166.51 107.001 166.67Z" fill="#263238"/>
<path d="M117.272 164.58C117.102 164.88 116.272 164.72 115.272 164.85C114.272 164.98 113.472 165.3 113.272 165.04C113.072 164.78 113.272 164.62 113.582 164.31C114.028 163.93 114.579 163.693 115.162 163.63C115.744 163.552 116.335 163.661 116.852 163.94C117.182 164.17 117.342 164.43 117.272 164.58Z" fill="#263238"/>
<path d="M121.07 162.55C119.61 164.78 114.98 163.4 112.18 161.87C110.722 162.804 108.956 163.131 107.26 162.782C105.564 162.432 104.071 161.434 103.1 160C101.5 162 98.2505 161.37 97.1005 159.07C95.9505 156.77 96.5805 153.61 98.2105 151.6C99.8482 149.723 102.105 148.495 104.57 148.14C107.4 147.59 110.329 147.882 112.995 148.978C115.66 150.075 117.947 151.928 119.57 154.31C121.11 156.64 122.04 159.77 121.12 162.56" fill="#263238"/>
<path d="M98.5916 151.43C93.3416 150.43 88.2816 155.66 87.7516 159.43C86.8416 165.93 87.7516 166.74 86.5316 169.85C85.7616 171.85 83.0916 173.95 82.0416 176.04C80.9016 178.28 80.9116 182.04 81.7016 184.46C82.3616 186.46 85.0716 192.09 85.0716 192.09C85.0716 192.09 92.8716 191.84 96.8616 190.82C97.8926 190.609 98.8589 190.157 99.6816 189.5C100.442 188.81 98.8716 186.43 99.0216 185.42C99.4316 182.54 101.582 180.87 101.022 178.03C100.202 174.26 97.2316 174.03 97.2916 170.2C97.2916 168.2 100.382 165.2 100.662 163.2C100.942 161.2 102.122 154.1 98.6617 151.48" fill="#263238"/>
<path d="M89.7102 192.3C89.7102 192.3 89.3302 191.86 88.7102 191.06C87.784 189.933 87.0044 188.693 86.3902 187.37C85.4636 185.421 85.0702 183.261 85.2502 181.11C85.3495 179.804 85.7064 178.531 86.3003 177.364C86.8941 176.197 87.7132 175.159 88.7102 174.31C89.7902 173.44 91.0202 172.78 92.0702 171.9C93.1136 171.06 93.8773 169.924 94.2602 168.64C94.5711 167.503 94.7885 166.343 94.9102 165.17C95.0137 164.17 95.2113 163.183 95.5002 162.22C95.6907 161.53 96.0229 160.887 96.4758 160.333C96.9286 159.779 97.4921 159.325 98.1302 159C98.6226 158.799 99.1482 158.69 99.6802 158.68C99.545 158.635 99.4027 158.614 99.2602 158.62C98.8496 158.614 98.4417 158.688 98.0602 158.84C97.3673 159.14 96.7486 159.589 96.2476 160.154C95.7466 160.719 95.3754 161.386 95.1602 162.11C94.835 163.085 94.6105 164.09 94.4902 165.11C94.3581 166.257 94.1307 167.391 93.8102 168.5C93.4444 169.689 92.7217 170.736 91.7402 171.5C90.7402 172.34 89.5002 172.99 88.3702 173.91C87.329 174.796 86.4758 175.882 85.861 177.103C85.2461 178.324 84.882 179.656 84.7902 181.02C84.6247 183.241 85.0599 185.465 86.0502 187.46C86.7027 188.793 87.5373 190.028 88.5302 191.13C88.8802 191.51 89.1802 191.8 89.3802 191.98C89.4745 192.102 89.5856 192.21 89.7102 192.3Z" fill="#455A64"/>
<path d="M127.87 188.9C127.87 188.9 127.95 188.81 128.07 188.62C128.233 188.335 128.38 188.041 128.51 187.74C128.963 186.615 129.194 185.413 129.19 184.2C129.199 182.382 128.689 180.599 127.72 179.06C127.113 178.19 126.445 177.365 125.72 176.59C124.975 175.793 124.439 174.825 124.16 173.77C123.69 171.58 124.41 169.37 124.26 167.33C124.221 165.52 123.725 163.748 122.82 162.18C122.196 161.139 121.366 160.238 120.38 159.53C120.11 159.344 119.83 159.174 119.54 159.02L119.23 158.88C119.55 159.16 119.884 159.424 120.23 159.67C121.152 160.409 121.923 161.319 122.5 162.35C123.332 163.886 123.775 165.603 123.79 167.35C123.809 168.387 123.745 169.423 123.6 170.45C123.44 171.586 123.463 172.741 123.67 173.87C123.967 174.992 124.537 176.023 125.33 176.87C126.049 177.629 126.717 178.434 127.33 179.28C128.28 180.744 128.8 182.445 128.83 184.19C128.864 185.371 128.688 186.55 128.31 187.67C128.06 188.47 127.83 188.88 127.87 188.9Z" fill="#455A64"/>
<path d="M105.66 148.92C106.79 148.905 107.919 148.969 109.04 149.11C111.728 149.561 114.189 150.89 116.04 152.89C117.792 154.977 118.956 157.494 119.41 160.18C119.566 161.303 119.622 162.438 119.58 163.57C119.688 163.278 119.752 162.971 119.77 162.66C119.868 161.823 119.868 160.977 119.77 160.14C119.404 157.35 118.241 154.725 116.42 152.58C114.504 150.503 111.921 149.162 109.12 148.79C108.28 148.687 107.43 148.687 106.59 148.79C106.275 148.785 105.961 148.828 105.66 148.92Z" fill="#455A64"/>
<path d="M113.201 159.29C113.279 159.034 113.316 158.767 113.311 158.5C113.334 157.766 113.257 157.032 113.081 156.32C112.805 155.13 112.29 154.009 111.568 153.025C110.845 152.04 109.93 151.213 108.877 150.594C107.825 149.975 106.657 149.576 105.446 149.422C104.235 149.268 103.004 149.363 101.831 149.7C101.129 149.891 100.456 150.177 99.8307 150.55C99.3907 150.83 99.1707 151.01 99.1907 151.04C100.067 150.622 100.981 150.287 101.921 150.04C104.208 149.455 106.633 149.799 108.668 150.996C110.702 152.193 112.181 154.146 112.781 156.43C113 157.37 113.14 158.326 113.201 159.29Z" fill="#455A64"/>
<path d="M90.5612 238.26C90.5612 238.26 94.0212 246.14 93.8212 249.87C93.6212 253.6 90.0512 265.72 90.0512 265.72L132.341 269.67L132.531 259.89L131.261 219.66L154.841 183.79L137.001 173.45L119.651 197L115.261 195.3L96.2612 197.7V201L95.7212 201.06C91.5543 201.946 87.5611 203.51 83.9012 205.69C80.5739 207.763 77.9368 210.777 76.3239 214.35C74.711 217.922 74.195 221.894 74.8412 225.76C75.6112 230.56 77.1112 236.39 79.9912 239.76C85.5312 246.22 90.5612 238.26 90.5612 238.26Z" fill="#F3C262"/>
<path d="M84.5598 219.481C84.5598 219.481 82.3998 207.201 82.9998 206.311C83.7398 205.261 92.6298 201.441 92.7598 201.831L94.7098 215.331L84.5598 219.481Z" fill="#FAFAFA"/>
<path d="M120.6 220.16L119.59 243.71H128.48V220.16H120.6Z" fill="#FAFAFA"/>
<path d="M105.891 231.941C106.057 231.922 106.225 231.922 106.391 231.941H107.921L113.771 231.851H113.941V232.031C114.001 237.681 114.031 246.131 114.031 255.581V255.841H104.611V255.581C104.941 248.791 105.241 242.891 105.451 238.581C105.571 236.581 105.661 234.911 105.731 233.711C105.731 233.181 105.791 232.711 105.821 232.421C105.804 232.281 105.804 232.14 105.821 232.001C105.832 232.16 105.832 232.321 105.821 232.481C105.821 232.841 105.821 233.281 105.821 233.821C105.821 235.041 105.741 236.701 105.681 238.761C105.531 242.991 105.321 248.831 105.081 255.561L104.831 255.301H113.721L113.461 255.561C113.461 246.111 113.461 237.661 113.551 232.011L113.721 232.181L108.001 232.001H106.431L105.891 231.941Z" fill="#FAFAFA"/>
<path d="M140.181 205.59L130.801 199.66L139.041 187.63L148.651 193.21L140.181 205.59Z" fill="#FAFAFA"/>
<g opacity="0.4">
<path d="M130.801 206.311H103.271V215.241H130.801V206.311Z" fill="white"/>
</g>
<path d="M130.401 230.6C130.353 230.329 130.353 230.051 130.401 229.78C130.471 229.25 130.561 228.49 130.641 227.56C130.858 225.118 130.858 222.662 130.641 220.22C130.412 217.778 129.964 215.361 129.301 213C128.801 211.19 128.391 210.09 128.471 210.06C128.551 210.03 128.641 210.3 128.851 210.79C129.157 211.475 129.428 212.176 129.661 212.89C130.428 215.254 130.931 217.695 131.161 220.17C131.394 222.644 131.344 225.137 131.011 227.6C130.914 228.343 130.777 229.081 130.601 229.81C130.577 230.082 130.509 230.349 130.401 230.6Z" fill="#263238"/>
<path d="M143.751 177.36C143.283 178.101 142.744 178.795 142.141 179.43C141.141 180.66 139.631 182.34 137.981 184.18L136.221 186.12L136.071 186.29L135.891 186.17C134.381 185.17 133.091 184.24 132.191 183.59C131.681 183.279 131.213 182.903 130.801 182.47C131.35 182.701 131.873 182.989 132.361 183.33C133.311 183.91 134.641 184.75 136.171 185.75H135.851L137.591 183.75C139.241 181.91 140.751 180.28 141.861 179.11C142.435 178.47 143.068 177.884 143.751 177.36Z" fill="#FAFAFA"/>
<path d="M153.471 185.87C152.511 185.527 151.584 185.099 150.701 184.59C149.011 183.74 146.701 182.52 144.171 181.16C141.641 179.8 139.361 178.53 137.721 177.6C136.812 177.135 135.942 176.597 135.121 175.99C136.084 176.334 137.014 176.763 137.901 177.27C139.581 178.13 141.901 179.34 144.421 180.7C146.941 182.06 149.231 183.33 150.871 184.26C151.782 184.722 152.652 185.261 153.471 185.87Z" fill="#263238"/>
<path d="M58.3508 431.12L53.8209 451.6L45.5609 466.78C45.4172 467.04 45.3291 467.327 45.3019 467.623C45.2748 467.919 45.3093 468.217 45.4033 468.499C45.4973 468.781 45.6486 469.041 45.8479 469.261C46.0471 469.481 46.2899 469.658 46.5609 469.78C46.8763 469.929 47.2234 469.999 47.572 469.983C47.9206 469.968 48.2601 469.867 48.5609 469.69C52.4009 467.47 66.4908 459.23 66.7408 457.69C67.0308 455.93 72.9608 436.39 72.9608 436.39L58.3508 431.12Z" fill="#F3C262"/>
<g opacity="0.6">
<path d="M46.5508 469.76L67.0008 456.32L66.7908 457.18C66.6066 457.907 66.1797 458.549 65.5808 459C63.9108 460.2 59.2408 463.43 48.5808 469.65C48.2781 469.823 47.9378 469.92 47.5894 469.932C47.241 469.944 46.8948 469.872 46.5808 469.72L46.5508 469.76Z" fill="white"/>
</g>
<g opacity="0.6">
<path d="M64.4713 448.72C64.1744 448.843 63.9334 449.071 63.7949 449.361C63.6564 449.651 63.6302 449.982 63.7213 450.29C63.8323 450.589 64.0542 450.834 64.341 450.974C64.6278 451.113 64.9574 451.137 65.2613 451.04C65.5754 450.91 65.8301 450.669 65.9761 450.362C66.1221 450.055 66.1489 449.705 66.0513 449.38C65.9004 449.08 65.6397 448.849 65.3233 448.735C65.0068 448.622 64.6588 448.634 64.3513 448.77" fill="white"/>
</g>
<path d="M53.3898 462C53.0587 461.251 52.5869 460.572 51.9998 460C51.3231 459.528 50.563 459.189 49.7598 459C49.7598 458.94 50.0498 458.85 50.5498 458.9C51.1917 458.985 51.7958 459.252 52.2898 459.67C52.7963 460.082 53.1688 460.636 53.3598 461.26C53.4898 461.68 53.4498 462 53.3898 462Z" fill="#263238"/>
<path d="M51.2698 464.37C51.1498 464.43 50.6598 463.61 49.6798 463.05C49.0562 462.763 48.4149 462.516 47.7598 462.31C48.1209 462.191 48.5052 462.159 48.8809 462.219C49.2566 462.278 49.6127 462.426 49.9198 462.65C50.9998 463.3 51.3898 464.34 51.2698 464.37Z" fill="#263238"/>
<path d="M57.0001 459.16C56.2787 458.373 55.5035 457.638 54.6801 456.96C53.7667 456.407 52.8142 455.923 51.8301 455.51C52.9495 455.564 54.0303 455.937 54.9459 456.583C55.8615 457.229 56.574 458.123 57.0001 459.16Z" fill="#263238"/>
<path d="M58.8498 453.05C58.7698 453.16 57.7598 452.41 56.3098 452C54.8598 451.59 53.6098 451.65 53.5898 451.52C54.5101 451.183 55.5196 451.183 56.4398 451.52C57.4002 451.726 58.2551 452.268 58.8498 453.05Z" fill="#263238"/>
<path d="M60.3398 447.07C59.5209 446.561 58.6359 446.168 57.7098 445.9C56.7576 445.77 55.7921 445.77 54.8398 445.9C54.8398 445.85 55.1098 445.65 55.6398 445.49C56.3484 445.299 57.0919 445.279 57.8098 445.43C58.5391 445.577 59.224 445.892 59.8098 446.35C60.1998 446.73 60.3798 447 60.3398 447.07Z" fill="#263238"/>
<path d="M58.0003 444.77C57.99 444.504 58.0449 444.24 58.1603 444C58.4016 443.309 58.7791 442.673 59.2703 442.13C59.5917 441.696 60.0495 441.382 60.5703 441.24C60.7451 441.211 60.9246 441.236 61.0852 441.311C61.2458 441.386 61.38 441.507 61.4703 441.66C61.6184 441.972 61.6503 442.326 61.5603 442.66C61.3536 443.337 60.9139 443.92 60.3191 444.304C59.7243 444.688 59.0127 444.85 58.3103 444.76C57.6172 444.663 56.9686 444.362 56.4469 443.895C55.9252 443.429 55.5539 442.818 55.3803 442.14C55.3407 441.969 55.3371 441.792 55.3698 441.62C55.4025 441.448 55.4708 441.284 55.5703 441.14C55.6884 440.997 55.851 440.897 56.0323 440.857C56.2136 440.817 56.403 440.839 56.5703 440.92C57.0394 441.148 57.4422 441.492 57.7403 441.92C58.1838 442.5 58.5222 443.153 58.7403 443.85C58.845 444.096 58.8928 444.363 58.8803 444.63C58.5437 443.73 58.0716 442.887 57.4803 442.13C57.226 441.76 56.8819 441.46 56.4803 441.26C56.3916 441.216 56.2905 441.204 56.1939 441.226C56.0974 441.247 56.0113 441.302 55.9503 441.38C55.8904 441.478 55.8523 441.587 55.8385 441.701C55.8247 441.815 55.8355 441.931 55.8703 442.04C56.0367 442.62 56.3667 443.139 56.8207 443.537C57.2747 443.934 57.8335 444.192 58.4303 444.28C59.0238 444.35 59.6236 444.216 60.1307 443.9C60.6379 443.583 61.0222 443.104 61.2203 442.54C61.3046 442.314 61.3046 442.066 61.2203 441.84C61.1749 441.753 61.1029 441.683 61.0147 441.639C60.9265 441.596 60.8269 441.582 60.7303 441.6C60.2931 441.721 59.9049 441.976 59.6203 442.33C58.9368 443.038 58.3879 443.865 58.0003 444.77Z" fill="#263238"/>
<g opacity="0.3">
<path d="M57.8209 433.34L57.2109 436.26L71.6809 440.5L72.9209 436.4L58.3509 431.12L57.8209 433.34Z" fill="black"/>
</g>
<path d="M124.651 438.7L123.421 455.07C123.421 455.07 139.651 461.81 139.721 464.86L107.891 463.63L108.751 438.04L124.651 438.7Z" fill="#F3C262"/>
<g opacity="0.6">
<path d="M113.631 453.311C113.322 453.393 113.054 453.587 112.879 453.854C112.703 454.122 112.633 454.444 112.681 454.761C112.742 455.079 112.924 455.361 113.189 455.547C113.453 455.734 113.78 455.81 114.101 455.761C114.428 455.673 114.712 455.467 114.897 455.183C115.081 454.898 115.154 454.555 115.101 454.221C114.993 453.902 114.766 453.637 114.469 453.48C114.171 453.324 113.824 453.288 113.501 453.381" fill="white"/>
</g>
<g opacity="0.6">
<path d="M107.891 463.63L108.081 461.05L138.531 463.2C138.531 463.2 139.921 463.87 139.721 464.86L107.891 463.63Z" fill="white"/>
</g>
<path d="M123.941 454.93C123.941 455.08 123.151 455.12 122.371 455.59C121.591 456.06 121.151 456.7 121.011 456.64C120.871 456.58 121.141 455.64 122.101 455.13C123.061 454.62 124.001 454.79 123.941 454.93Z" fill="#263238"/>
<path d="M127.231 456.44C127.231 456.59 126.581 456.83 126.021 457.44C125.461 458.05 125.291 458.76 125.131 458.75C124.971 458.74 124.921 457.85 125.621 457.08C126.321 456.31 127.231 456.29 127.231 456.44Z" fill="#263238"/>
<path d="M129.001 460.511C128.861 460.511 128.671 459.751 129.101 458.921C129.531 458.091 130.281 457.771 130.341 457.921C130.401 458.071 129.931 458.49 129.591 459.18C129.251 459.87 129.131 460.501 129.001 460.511Z" fill="#263238"/>
<path d="M123.811 451.17C123.741 451.31 123.031 451.06 122.151 451.09C121.271 451.12 120.581 451.37 120.501 451.23C120.421 451.09 121.101 450.56 122.141 450.55C123.181 450.54 123.891 451.05 123.811 451.17Z" fill="#263238"/>
<g opacity="0.3">
<path d="M124.401 441.94L124.191 444.86L108.551 444.11L108.651 440.74L124.401 441.94Z" fill="black"/>
</g>
<path d="M124 447.86C123.47 447.982 122.917 447.958 122.4 447.79C121.829 447.664 121.275 447.469 120.75 447.21C120.442 447.057 120.145 446.884 119.86 446.69C119.682 446.588 119.523 446.456 119.39 446.3C119.297 446.182 119.246 446.036 119.246 445.885C119.246 445.735 119.297 445.588 119.39 445.47C119.472 445.363 119.578 445.277 119.7 445.22C119.822 445.162 119.955 445.135 120.09 445.14C120.291 445.144 120.49 445.178 120.68 445.24C121.025 445.335 121.359 445.463 121.68 445.62C122.207 445.876 122.689 446.213 123.11 446.62C123.82 447.34 124.05 447.93 124 447.96C123.95 447.99 123.59 447.5 122.86 446.91C122.43 446.568 121.96 446.279 121.46 446.05C121.169 445.923 120.868 445.82 120.56 445.74C120.23 445.63 119.94 445.62 119.85 445.74C119.76 445.86 119.85 445.82 119.85 445.92C119.949 446.03 120.063 446.125 120.19 446.2C120.452 446.391 120.726 446.565 121.01 446.72C121.496 446.982 122.005 447.2 122.53 447.37C123.031 447.498 123.523 447.662 124 447.86Z" fill="#263238"/>
<path d="M123.78 448.071C123.498 447.606 123.372 447.062 123.42 446.521C123.419 445.928 123.517 445.34 123.71 444.781C123.823 444.449 123.971 444.131 124.15 443.831C124.241 443.63 124.38 443.455 124.554 443.32C124.728 443.186 124.933 443.097 125.15 443.061C125.292 443.069 125.428 443.118 125.543 443.201C125.658 443.285 125.748 443.399 125.8 443.531C125.876 443.719 125.923 443.918 125.94 444.121C125.991 444.479 125.991 444.842 125.94 445.201C125.824 445.793 125.567 446.349 125.19 446.821C124.54 447.621 123.88 447.821 123.87 447.731C123.86 447.641 124.38 447.371 124.87 446.591C125.156 446.141 125.346 445.637 125.43 445.111C125.475 444.806 125.475 444.496 125.43 444.191C125.43 443.851 125.28 443.571 125.15 443.601C125.02 443.631 124.72 443.841 124.58 444.101C124.409 444.369 124.265 444.654 124.15 444.951C123.954 445.457 123.83 445.989 123.78 446.531C123.73 447.461 123.87 448.051 123.78 448.071Z" fill="#263238"/>
<path d="M84.3198 229L92.5498 229.46C93.13 231.773 93.9095 234.031 94.8798 236.21C101.51 224.7 106.65 209.29 107.93 203.09C107.74 202.47 107.52 201.79 107.25 201.02C107.049 199.865 107.083 198.681 107.35 197.54C107.58 196.16 107.96 194.3 108.08 193.44C108.43 190.82 108.85 190.44 109.77 190.71C111.01 191.11 109.26 198.06 110.27 198.21C110.82 198.29 111.49 195.91 111.68 193.96C111.87 192.01 112.76 185.96 113.41 185.59C114.41 185 115.18 185.93 114.94 187.88C114.7 189.83 114.39 195.72 115.43 195.8C116.47 195.88 117.3 185.91 117.3 185.91C117.3 185.91 117.14 183.75 118.3 183.8C120.46 183.89 118.77 194.4 118.59 195.39C118.46 196.08 119.59 196.21 119.68 195.46C119.77 194.71 120.3 185.46 122.5 185.57C124.18 185.63 121.19 194.23 122.14 196.22C123.09 198.21 123.74 189.45 125.35 189.57C125.95 189.57 126.35 189.73 125.29 194.69C124.221 198.634 122.936 202.517 121.44 206.32C118.89 220.07 107.7 264.06 90.1598 256.01C80.3398 251.5 75.7598 229.19 75.7598 229.19L84.3198 229Z" fill="#FFBE9D"/>
<path d="M121.471 206.31C121.488 206.206 121.519 206.106 121.561 206.01C121.631 205.79 121.731 205.5 121.851 205.15C122.121 204.35 122.511 203.24 123.001 201.83C123.491 200.42 124.091 198.62 124.691 196.54C124.991 195.54 125.241 194.38 125.471 193.17C125.581 192.57 125.701 191.95 125.771 191.31C125.796 190.993 125.796 190.676 125.771 190.36C125.771 190.03 125.701 189.77 125.441 189.76C125.181 189.75 124.991 189.91 124.811 190.19C124.641 190.485 124.5 190.797 124.391 191.12C124.161 191.78 123.971 192.48 123.791 193.2C123.611 193.92 123.441 194.66 123.221 195.41C123.128 195.824 122.959 196.218 122.721 196.57C122.656 196.65 122.563 196.702 122.46 196.715C122.358 196.728 122.254 196.701 122.171 196.64C122.074 196.549 121.996 196.441 121.941 196.32C121.853 196.115 121.793 195.9 121.761 195.68C121.729 193.999 121.897 192.321 122.261 190.68C122.411 189.84 122.561 188.99 122.671 188.13C122.729 187.699 122.763 187.265 122.771 186.83C122.771 186.44 122.771 185.9 122.541 185.83C122.311 185.76 121.941 185.99 121.741 186.35C121.508 186.721 121.323 187.121 121.191 187.54C120.91 188.416 120.693 189.312 120.541 190.22C120.381 191.15 120.261 192.09 120.151 193.04C120.151 193.52 120.061 194.04 120.011 194.48L119.951 195.21C119.959 195.365 119.934 195.521 119.877 195.665C119.82 195.81 119.733 195.941 119.621 196.05C119.476 196.157 119.301 196.215 119.121 196.215C118.941 196.215 118.766 196.157 118.621 196.05C118.54 195.996 118.471 195.927 118.418 195.846C118.365 195.765 118.328 195.675 118.311 195.58C118.296 195.49 118.296 195.399 118.311 195.31V195.13C118.381 194.64 118.461 194.13 118.531 193.66C118.671 192.66 118.791 191.66 118.891 190.66C118.991 189.66 119.051 188.66 119.071 187.66C119.121 186.65 119.02 185.639 118.771 184.66C118.714 184.41 118.564 184.192 118.351 184.05C118.249 184.019 118.14 184.02 118.038 184.052C117.936 184.084 117.847 184.146 117.781 184.23C117.513 184.728 117.405 185.297 117.471 185.86C117.291 187.86 117.071 189.77 116.791 191.67C116.641 192.67 116.491 193.57 116.251 194.5C116.191 194.737 116.118 194.971 116.031 195.2C115.951 195.482 115.787 195.733 115.561 195.92C115.458 195.969 115.341 195.983 115.229 195.96C115.117 195.936 115.016 195.877 114.941 195.79C114.844 195.678 114.769 195.549 114.721 195.41C114.632 195.177 114.569 194.936 114.531 194.69C114.325 192.863 114.308 191.02 114.481 189.19C114.597 188.338 114.64 187.478 114.611 186.62C114.589 186.255 114.423 185.914 114.151 185.67C114.089 185.627 114.018 185.599 113.944 185.586C113.869 185.574 113.793 185.579 113.721 185.6C113.636 185.62 113.555 185.654 113.481 185.7C113.429 185.734 113.387 185.783 113.361 185.84C113.064 186.596 112.843 187.38 112.701 188.18C112.541 188.98 112.401 189.78 112.271 190.57C112.141 191.36 112.031 192.13 111.931 192.9C111.831 193.67 111.771 194.43 111.621 195.18C111.496 195.921 111.299 196.648 111.031 197.35C110.968 197.527 110.887 197.698 110.791 197.86C110.671 198.02 110.611 198.23 110.291 198.33C110.21 198.344 110.126 198.335 110.049 198.303C109.973 198.271 109.908 198.218 109.861 198.15C109.804 198.052 109.761 197.948 109.731 197.84C109.694 197.655 109.671 197.468 109.661 197.28C109.661 195.85 109.861 194.54 109.931 193.28C109.991 192.674 109.991 192.065 109.931 191.46C109.931 191.19 109.811 190.88 109.651 190.81C109.545 190.758 109.429 190.731 109.311 190.731C109.193 190.731 109.077 190.758 108.971 190.81C108.624 191.189 108.407 191.669 108.351 192.18C108.231 192.7 108.181 193.18 108.081 193.71C107.731 195.71 107.361 197.4 107.191 198.79C107.102 199.403 107.102 200.026 107.191 200.64C107.311 201.14 107.481 201.59 107.571 201.94L107.811 202.76C107.851 202.848 107.874 202.943 107.881 203.04C107.831 202.956 107.794 202.865 107.771 202.77L107.481 201.98C107.361 201.62 107.191 201.21 107.041 200.66C106.95 200.033 106.95 199.396 107.041 198.77C107.191 197.35 107.531 195.66 107.851 193.67C107.941 193.18 107.991 192.67 108.111 192.12C108.161 191.844 108.235 191.573 108.331 191.31C108.414 191.003 108.597 190.732 108.851 190.54C109.005 190.459 109.177 190.417 109.351 190.417C109.525 190.417 109.697 190.459 109.851 190.54C110.251 190.77 110.261 191.15 110.331 191.44C110.391 192.068 110.391 192.701 110.331 193.33C110.271 194.61 110.071 195.95 110.101 197.33C110.11 197.491 110.13 197.651 110.161 197.81C110.161 197.97 110.281 198.03 110.261 198C110.241 197.97 110.421 197.86 110.491 197.73C110.572 197.58 110.646 197.427 110.711 197.27C110.955 196.587 111.139 195.884 111.261 195.17C111.401 194.45 111.441 193.69 111.551 192.92C111.661 192.15 111.751 191.36 111.881 190.57C112.011 189.78 112.141 188.97 112.301 188.16C112.444 187.309 112.682 186.477 113.011 185.68C113.074 185.547 113.175 185.435 113.301 185.36C113.411 185.295 113.529 185.245 113.651 185.21C113.786 185.174 113.927 185.168 114.065 185.19C114.203 185.212 114.334 185.263 114.451 185.34C114.646 185.495 114.808 185.689 114.927 185.909C115.046 186.129 115.118 186.371 115.141 186.62C115.201 187.074 115.201 187.535 115.141 187.99C115.141 188.42 115.061 188.86 115.031 189.3C114.851 191.085 114.851 192.884 115.031 194.67C115.066 194.881 115.12 195.088 115.191 195.29C115.223 195.369 115.267 195.443 115.321 195.51C115.321 195.71 115.321 195.56 115.321 195.59C115.321 195.62 115.321 195.59 115.321 195.52C115.425 195.38 115.506 195.225 115.561 195.06C115.631 194.85 115.701 194.63 115.761 194.41C115.981 193.52 116.141 192.58 116.281 191.64C116.561 189.75 116.771 187.82 116.951 185.86C116.872 185.165 117.02 184.464 117.371 183.86C117.501 183.682 117.687 183.552 117.898 183.491C118.11 183.429 118.336 183.44 118.541 183.52C118.719 183.614 118.875 183.744 118.999 183.903C119.123 184.061 119.212 184.244 119.261 184.44C119.532 185.47 119.643 186.536 119.591 187.6C119.591 188.6 119.501 189.66 119.401 190.68C119.301 191.7 119.181 192.68 119.041 193.68C118.971 194.18 118.891 194.68 118.821 195.16C118.751 195.48 118.821 195.49 118.821 195.58C118.88 195.616 118.947 195.635 119.016 195.635C119.085 195.635 119.152 195.616 119.211 195.58C119.321 195.51 119.331 195.36 119.351 195.09L119.421 194.36C119.421 193.88 119.521 193.36 119.561 192.92C119.671 191.92 119.801 191 119.961 190.07C120.118 189.135 120.342 188.212 120.631 187.31C120.781 186.853 120.986 186.417 121.241 186.01C121.383 185.789 121.566 185.599 121.781 185.45C121.898 185.346 122.042 185.279 122.196 185.257C122.351 185.235 122.508 185.258 122.649 185.324C122.791 185.389 122.909 185.495 122.992 185.628C123.074 185.76 123.115 185.914 123.111 186.07C123.147 186.305 123.164 186.542 123.161 186.78C123.147 187.232 123.107 187.682 123.041 188.13C122.931 189.01 122.771 189.86 122.621 190.7C122.258 192.294 122.084 193.925 122.101 195.56C122.119 195.736 122.166 195.909 122.241 196.07C122.267 196.13 122.3 196.188 122.341 196.24C122.341 196.24 122.341 196.24 122.341 196.19C122.531 195.881 122.669 195.543 122.751 195.19C122.971 194.46 123.141 193.72 123.331 193C123.521 192.28 123.711 191.57 123.961 190.89C124.081 190.542 124.235 190.207 124.421 189.89C124.516 189.719 124.646 189.569 124.801 189.45C124.889 189.378 124.991 189.327 125.101 189.3C125.207 189.279 125.315 189.279 125.421 189.3C125.536 189.311 125.647 189.353 125.74 189.421C125.833 189.49 125.906 189.583 125.951 189.69C126.019 189.865 126.056 190.051 126.061 190.24C126.071 190.574 126.051 190.909 126.001 191.24C125.931 191.9 125.801 192.52 125.681 193.13C125.466 194.27 125.188 195.399 124.851 196.51C124.231 198.59 123.601 200.35 123.081 201.78C122.561 203.21 122.081 204.33 121.841 205.07C121.701 205.42 121.581 205.7 121.501 205.92C121.421 206.14 121.481 206.32 121.471 206.31Z" fill="#EB996E"/>
<path d="M75.7012 230C77.2912 235.62 80.4012 244.3 83.7012 253.46C83.8083 253.755 84.0001 254.011 84.2524 254.197C84.5048 254.383 84.8065 254.49 85.1196 254.505C85.4327 254.52 85.7432 254.442 86.0122 254.281C86.2811 254.12 86.4965 253.883 86.6312 253.6L94.8312 236.25C94.8312 236.25 92.8312 222 93.0212 222.5C93.2112 223 76.1012 224.35 76.1012 224.35L75.7012 230Z" fill="#F3C262"/>
<path d="M97.8813 231.33C97.8813 231.33 97.6613 231.16 97.2513 231.05C96.9735 230.965 96.6774 230.96 96.3965 231.034C96.1156 231.108 95.8609 231.259 95.6613 231.47L95.4513 231.71L95.3213 231.4C94.8813 230.28 94.3213 228.83 93.7613 227.23C92.8849 225.035 92.1664 222.779 91.6113 220.48C92.6566 222.604 93.5391 224.803 94.2513 227.06C94.8313 228.65 95.3313 230.12 95.7013 231.26L95.3613 231.2C95.6514 230.905 96.0384 230.724 96.4513 230.69C96.7517 230.663 97.0542 230.711 97.3313 230.83C97.7813 231 97.9013 231.31 97.8813 231.33Z" fill="#263238"/>
<path d="M86.25 247.83C86.561 246.971 86.9598 246.147 87.44 245.37C88.23 243.89 89.35 241.85 90.63 239.62C91.91 237.39 93.08 235.38 93.95 233.94C94.3802 233.134 94.8858 232.371 95.46 231.66C95.1428 232.516 94.7443 233.34 94.27 234.12C93.48 235.61 92.35 237.64 91.08 239.88C89.81 242.12 88.63 244.12 87.76 245.56C87.3272 246.361 86.8218 247.121 86.25 247.83Z" fill="#263238"/>
<path d="M80.7903 245.22C81.2345 244.843 81.7133 244.508 82.2203 244.22C83.1503 243.62 84.5003 242.78 86.1403 241.78L86.0503 242.05C85.1403 239.92 84.0503 237.43 82.9303 234.75C81.5103 231.38 80.2403 228.28 79.3103 225.97L79.5903 226.06C78.2903 226.77 77.2303 227.33 76.5003 227.71C76.1279 227.933 75.7322 228.114 75.3203 228.25C75.6477 227.966 76.0067 227.721 76.3903 227.52C77.1003 227.08 78.1203 226.47 79.3903 225.73L79.5703 225.62L79.6603 225.82C80.6603 228.1 81.9803 231.17 83.4003 234.55C84.5203 237.24 85.5503 239.74 86.4003 241.88L86.4703 242.06L86.3103 242.15C84.6503 243.15 83.3103 243.9 82.3103 244.43C81.8315 244.744 81.3222 245.009 80.7903 245.22Z" fill="#FAFAFA"/>
<path d="M125.281 442.82C126.746 442.778 128.142 442.189 129.195 441.169C130.248 440.15 130.881 438.773 130.971 437.31C132.681 409.63 140.381 283.72 138.841 279.77C137.101 275.33 132.531 259.89 132.531 259.89L91.7007 258C91.7007 258 81.5407 274 80.0807 280.18C78.7607 285.69 41.7707 402.25 37.1707 427C36.9431 428.229 37.1775 429.499 37.8291 430.566C38.4806 431.633 39.5033 432.421 40.7007 432.78L125.281 442.82Z" fill="#263238"/>
<path d="M99.7611 258.87C99.7611 258.87 99.7111 259.02 99.5811 259.31L99.0011 260.57L96.7211 265.39C96.2711 266.46 95.7811 267.65 95.2311 268.94C94.6811 270.23 94.0811 271.65 93.5411 273.2C93.0011 274.75 92.3411 276.39 91.7311 278.15C91.1211 279.91 90.5511 281.79 89.9111 283.76L88.1011 290C87.5111 292.18 86.9511 294.46 86.3311 296.82C85.7111 299.18 85.2211 301.64 84.6311 304.17C84.0411 306.7 83.5111 309.31 83.0011 312C81.9011 317.36 80.8211 323 79.6811 328.86C78.5411 334.72 77.3211 340.76 75.8911 346.92C75.2011 350 74.4011 353 73.6611 356C72.9211 359 72.0511 361.9 71.1711 364.75C69.4411 370.46 67.5411 375.9 65.6011 381.02C61.6811 391.27 57.6011 400.28 54.1011 407.77C50.6011 415.26 47.5311 421.24 45.4311 425.37L43.0011 430.14C42.7311 430.66 42.5111 431.07 42.3511 431.36C42.2831 431.501 42.2063 431.638 42.1211 431.77C42.1753 431.623 42.2388 431.479 42.3111 431.34C42.4511 431.04 42.6511 430.62 42.9111 430.09C43.4611 428.97 44.2511 427.36 45.2711 425.3C47.2711 421.15 50.2711 415.14 53.7811 407.63C57.2911 400.12 61.2811 391.11 65.1711 380.87C67.0911 375.75 68.9811 370.32 70.7111 364.62C71.5811 361.78 72.3611 358.85 73.1811 355.89C74.0011 352.93 74.7211 349.89 75.3911 346.8C76.8211 340.65 78.0211 334.59 79.1911 328.75C80.3611 322.91 81.4211 317.26 82.5411 311.9C83.0711 309.21 83.6711 306.6 84.2111 304.07C84.7511 301.54 85.3811 299.07 85.9311 296.71C86.4811 294.35 87.1311 292.07 87.7311 289.89C88.3311 287.71 88.9911 285.64 89.5811 283.65L91.4211 278C92.0411 276.24 92.6911 274.6 93.2711 273.06C93.8511 271.52 94.4411 270.06 95.0111 268.81C95.5811 267.56 96.0811 266.33 96.5411 265.27C97.5411 263.18 98.3611 261.57 98.9011 260.48L99.5311 259.25L99.7611 258.87Z" fill="#455A64"/>
<path d="M63.7109 435.24C63.7109 435.24 63.7109 435.09 63.8109 434.79C63.9109 434.49 64.0209 434.02 64.1709 433.46L65.5909 428.36C66.8209 423.9 68.5909 417.5 70.7909 409.6C72.9909 401.7 75.5209 392.23 78.2709 381.72C79.6309 376.46 81.0509 370.94 82.5309 365.22C84.0109 359.5 85.4409 353.54 86.9609 347.46C88.4809 341.38 89.8609 335.46 91.2509 329.66C92.6409 323.86 93.8809 318.35 95.1209 313.06C97.5309 302.47 99.6509 292.91 101.381 284.88C103.111 276.85 104.481 270.36 105.451 265.88C105.921 263.65 106.291 261.88 106.551 260.7C106.681 260.13 106.781 259.7 106.851 259.36C106.921 259.02 106.971 258.9 106.971 258.9C106.957 259.058 106.933 259.215 106.901 259.37C106.841 259.69 106.761 260.14 106.651 260.72C106.421 261.93 106.081 263.72 105.651 265.92L104.001 274.1C103.331 277.3 102.581 280.94 101.741 284.96C100.061 292.96 97.9809 302.56 95.5809 313.17C94.3709 318.46 93.1109 324.03 91.7409 329.78C90.3709 335.53 88.9309 341.49 87.4709 347.59C86.0109 353.69 84.4709 359.59 83.0209 365.34C81.5709 371.09 80.1109 376.59 78.7409 381.84C75.9509 392.35 73.3709 401.84 71.1509 409.7L68.1509 420.37C67.2409 423.5 66.4509 426.2 65.8109 428.37C65.1709 430.54 64.6509 432.26 64.3009 433.45C64.1309 434.01 63.9909 434.45 63.9009 434.76C63.8109 435.07 63.7109 435.24 63.7109 435.24Z" fill="#455A64"/>
<path d="M112.37 259C112.37 259 112.37 259.15 112.44 259.46L112.61 260.84C112.68 261.45 112.77 262.2 112.87 263.07C112.97 263.94 113 264.99 113.07 266.14C113.07 266.72 113.14 267.33 113.17 267.97C113.2 268.61 113.17 269.29 113.17 269.97V272.17C113.17 272.93 113.1 273.73 113.07 274.55C113.04 275.37 112.99 276.22 112.94 277.09C112.89 277.96 112.78 278.87 112.69 279.8C112.56 281.66 112.24 283.6 111.99 285.66C111.37 289.75 110.55 294.2 109.5 298.95C108.45 303.7 107.22 308.74 105.94 314.05C104.66 319.36 103.33 324.94 102.23 330.77C101.13 336.6 100.23 342.68 99.4105 348.93C98.5905 355.18 98.0005 361.27 97.3005 367.18C96.6005 373.09 96.0005 378.79 95.3005 384.18L94.2205 392.1C93.8005 394.65 93.4305 397.1 93.0105 399.54C92.5905 401.98 92.1605 404.24 91.6905 406.45C91.2205 408.66 90.7505 410.77 90.2805 412.78C89.8105 414.79 89.2805 416.69 88.7805 418.49C88.2805 420.29 87.7205 421.95 87.2405 423.49C86.9905 424.27 86.7705 425.03 86.5105 425.75C86.2505 426.47 85.9905 427.16 85.7505 427.82C85.2605 429.13 84.8105 430.34 84.4005 431.42C83.5205 433.56 82.7505 435.18 82.2705 436.3L81.6905 437.56C81.5605 437.84 81.4805 437.98 81.4805 437.98C81.4805 437.98 81.4805 437.82 81.6405 437.53C81.8005 437.24 81.9505 436.8 82.1705 436.25C82.6305 435.13 83.3605 433.49 84.1705 431.35L85.4605 427.73L86.2105 425.67C86.4605 424.95 86.6705 424.18 86.9105 423.4C87.3805 421.83 87.9105 420.16 88.4105 418.4L89.8705 412.7L91.2505 406.37C91.7005 404.16 92.0905 401.85 92.5405 399.46C92.9905 397.07 93.3105 394.58 93.7105 392.03C94.1105 389.48 94.4105 386.83 94.7705 384.12C95.4405 378.7 96.0905 373.01 96.7705 367.12C97.4505 361.23 98.0805 355.12 98.8805 348.83C99.6805 342.54 100.62 336.48 101.72 330.63C102.82 324.78 104.17 319.2 105.46 313.9C106.75 308.6 108.01 303.55 109.07 298.82C110.13 294.09 110.97 289.64 111.62 285.56C111.88 283.56 112.21 281.56 112.35 279.72C112.45 278.8 112.53 277.9 112.62 277.03C112.71 276.16 112.72 275.31 112.77 274.49C112.82 273.67 112.88 272.89 112.89 272.12C112.9 271.35 112.89 270.63 112.89 269.93C112.89 269.23 112.89 268.56 112.89 267.93C112.89 267.3 112.83 266.69 112.81 266.11C112.75 264.96 112.75 263.93 112.66 263.05C112.57 262.17 112.51 261.42 112.45 260.81C112.39 260.2 112.36 259.76 112.33 259.43C112.334 259.286 112.348 259.142 112.37 259Z" fill="#455A64"/>
<path d="M107.911 441.63C107.866 441.479 107.829 441.326 107.801 441.17C107.741 440.84 107.651 440.39 107.541 439.81C107.431 439.23 107.301 438.46 107.141 437.58C106.981 436.7 106.771 435.7 106.671 434.58C106.571 433.46 106.391 432.15 106.221 430.75C106.051 429.35 106.021 427.81 105.901 426.17C105.901 425.35 105.801 424.49 105.771 423.62C105.741 422.75 105.771 421.83 105.771 420.89C105.771 419.95 105.771 419 105.771 418.01C105.771 417.02 105.851 416.01 105.881 415.01C105.911 414.01 105.971 412.91 106.011 411.83C106.051 410.75 106.191 409.64 106.271 408.51C106.421 406.25 106.711 403.92 106.991 401.51C107.271 399.1 107.671 396.6 107.991 394.03C108.311 391.46 108.831 388.83 109.351 386.14C111.351 375.35 114.051 363.62 116.551 351.24C118.896 339.6 120.649 327.848 121.801 316.03C122.881 305.13 123.291 295.28 123.431 287.03C123.431 282.89 123.431 279.14 123.431 275.86C123.431 272.58 123.291 269.74 123.191 267.42C123.091 265.1 123.001 263.31 122.951 262.09C122.951 261.5 122.951 261.04 122.951 260.71C122.951 260.38 122.951 260.23 122.951 260.23C122.951 260.23 122.951 260.39 122.951 260.7C122.951 261.01 123.011 261.5 123.061 262.09C123.141 263.3 123.291 265.09 123.391 267.41C123.491 269.73 123.631 272.56 123.721 275.85C123.811 279.14 123.841 282.85 123.821 287.03C123.731 295.32 123.351 305.19 122.301 316.1C121.17 327.939 119.427 339.711 117.081 351.37C114.581 363.77 111.831 375.49 109.841 386.26C109.321 388.94 108.911 391.58 108.461 394.13C108.011 396.68 107.671 399.18 107.411 401.6C107.151 404.02 106.821 406.34 106.671 408.6C106.571 409.72 106.481 410.82 106.391 411.9C106.301 412.98 106.291 414.04 106.241 415.07C106.191 416.1 106.161 417.12 106.111 418.07V423.66C106.111 424.53 106.191 425.38 106.231 426.2C106.331 427.84 106.331 429.38 106.501 430.77C106.671 432.16 106.781 433.45 106.901 434.61C107.021 435.77 107.191 436.77 107.321 437.61L107.681 439.84C107.771 440.42 107.831 440.84 107.891 441.21C107.951 441.58 107.911 441.63 107.911 441.63Z" fill="#455A64"/>
<path d="M130.321 259.79C130.321 259.79 130.371 259.94 130.461 260.24L130.851 261.56L131.461 263.73C131.745 264.717 131.978 265.719 132.161 266.73C132.381 267.86 132.691 269.11 132.911 270.5C133.131 271.89 133.321 273.4 133.551 275.03C133.781 276.66 133.821 278.41 133.971 280.27C134.121 282.13 134.121 284.09 134.081 286.16C134.081 290.29 133.741 294.8 133.211 299.63C132.681 304.46 131.851 309.58 130.891 314.94L127.751 331.76C126.651 337.59 125.691 343.65 124.821 349.88C123.951 356.11 123.241 362.2 122.661 368.1C122.081 374 121.661 379.71 121.321 385.15C120.981 390.59 120.771 395.76 120.671 400.61C120.571 405.46 120.511 409.97 120.531 414.09C120.551 418.21 120.611 421.94 120.711 425.21C120.811 428.48 120.931 431.3 121.021 433.6C121.111 435.9 121.221 437.67 121.281 438.9C121.281 439.493 121.301 439.953 121.341 440.28C121.341 440.6 121.341 440.76 121.341 440.76C121.341 440.76 121.341 440.6 121.281 440.29L121.171 438.91C121.091 437.7 120.951 435.91 120.821 433.61C120.691 431.31 120.521 428.49 120.421 425.22C120.321 421.95 120.211 418.22 120.161 414.09C120.111 409.96 120.161 405.45 120.241 400.6C120.321 395.75 120.551 390.6 120.841 385.12C121.131 379.64 121.561 373.96 122.151 368.05C122.741 362.14 123.421 356.05 124.311 349.8C125.201 343.55 126.141 337.5 127.251 331.67L130.421 314.86C131.421 309.5 132.191 304.38 132.781 299.58C133.371 294.78 133.651 290.27 133.711 286.15C133.711 284.09 133.651 282.15 133.641 280.28C133.631 278.41 133.381 276.69 133.261 275.06C133.141 273.43 132.851 271.93 132.671 270.54C132.491 269.15 132.171 267.91 131.971 266.77C131.771 265.63 131.561 264.64 131.311 263.77C131.061 262.9 130.901 262.2 130.751 261.6C130.601 261 130.491 260.6 130.411 260.26C130.331 259.92 130.321 259.79 130.321 259.79Z" fill="#455A64"/>
<path d="M418.77 82.9497L318.723 97.0816C315.01 97.6061 312.425 101.041 312.95 104.755L326.255 198.949C326.779 202.663 330.215 205.248 333.928 204.723L433.975 190.591C437.688 190.067 440.273 186.631 439.748 182.918L426.443 88.7233C425.919 85.0101 422.483 82.4252 418.77 82.9497Z" fill="#F3C262"/>
<path d="M422.45 397.81C423.956 398.529 425.302 399.544 426.407 400.795C427.512 402.046 428.353 403.507 428.88 405.09C429.916 408.271 430.207 411.648 429.73 414.96C429.01 421.36 425.37 427.82 421.46 432.96C416.07 428.26 414.83 420.05 414.46 415.85C413.88 409.21 416.86 396.85 422.46 397.85" fill="#F3C262"/>
<path d="M427.719 443.5C427.351 441.67 427.474 439.776 428.075 438.009C428.675 436.243 429.733 434.666 431.139 433.44C432.563 432.237 434.213 431.331 435.992 430.775C437.771 430.219 439.644 430.023 441.499 430.2C443.219 430.33 445.069 430.83 446.049 432.2C446.47 432.889 446.698 433.678 446.71 434.485C446.723 435.292 446.518 436.088 446.119 436.79C445.304 438.183 444.135 439.336 442.729 440.13C438.059 443.06 432.999 445.04 427.729 443.46" fill="#F3C262"/>
<path d="M420.809 463.121C420.834 462.679 420.897 462.241 420.999 461.811C421.169 460.881 421.389 459.691 421.649 458.251C422.253 454.294 423.493 450.462 425.319 446.901C427.219 443.342 430.032 440.354 433.469 438.241C434.514 437.623 435.628 437.129 436.789 436.771C437.199 436.631 437.529 436.581 437.789 436.521C438.049 436.461 438.129 436.461 438.129 436.521C435.465 437.384 433 438.769 430.877 440.596C428.755 442.423 427.018 444.655 425.769 447.161C423.969 450.687 422.706 454.462 422.019 458.361C421.689 459.851 421.419 461.061 421.219 461.881C421.118 462.305 420.981 462.72 420.809 463.121Z" fill="#263238"/>
<path d="M420.999 407.42C421.045 407.61 421.068 407.804 421.069 408C421.069 408.42 421.129 409 421.169 409.65C421.239 411.08 421.329 413.15 421.409 415.72C421.569 420.85 421.699 427.94 421.669 435.72C421.639 443.5 421.449 450.64 421.229 455.77C421.129 458.34 421.029 460.41 420.939 461.84C420.889 462.52 420.858 463.06 420.828 463.49C420.798 463.92 420.828 463.49 420.828 463.49C420.898 462.92 420.729 463.86 420.729 463.49C420.729 463.12 420.729 462.49 420.729 461.83C420.729 460.34 420.808 458.28 420.868 455.76C420.998 450.63 421.138 443.55 421.178 435.76C421.218 427.97 421.128 420.85 421.048 415.76C421.048 413.24 420.979 411.17 420.949 409.68C420.949 409 420.949 408.46 420.949 408.03C420.951 407.826 420.968 407.622 420.999 407.42Z" fill="#263238"/>
<path d="M418.399 447.39C417.746 443.512 416.179 439.845 413.828 436.693C411.477 433.54 408.41 430.992 404.879 429.26C403.079 428.4 400.729 427.83 399.249 429.17C397.769 430.51 398.089 432.92 398.819 434.79C400.404 438.654 403.096 441.962 406.557 444.298C410.018 446.635 414.094 447.895 418.269 447.92" fill="#F3C262"/>
<path d="M405.749 435.33C406.148 435.457 406.534 435.625 406.899 435.83C407.344 436.032 407.774 436.263 408.189 436.52C408.754 436.823 409.301 437.157 409.829 437.52C410.486 437.957 411.117 438.431 411.719 438.94C412.42 439.508 413.088 440.115 413.719 440.76C415.17 442.241 416.448 443.881 417.529 445.65C418.577 447.438 419.416 449.34 420.029 451.32C420.295 452.183 420.508 453.062 420.669 453.95C420.822 454.72 420.929 455.498 420.989 456.28C421.089 457 421.049 457.65 421.079 458.22C421.112 458.71 421.112 459.201 421.079 459.69C421.071 460.107 421.024 460.522 420.939 460.93C420.829 460.93 421.009 459.15 420.699 456.32C420.616 455.547 420.493 454.78 420.329 454.02C420.179 453.2 419.919 452.34 419.659 451.44C419.034 449.503 418.196 447.642 417.159 445.89C416.101 444.151 414.857 442.531 413.449 441.06C412.836 440.416 412.188 439.805 411.509 439.23C410.889 438.67 410.249 438.23 409.679 437.79C407.329 436.16 405.699 435.42 405.749 435.33Z" fill="#263238"/>
<path d="M393.516 157.637L361.753 162.134L361.367 130.159L393.13 125.662L393.516 157.637Z" fill="white"/>
<path d="M372.548 125.253L361.325 126.843L361.363 130.157L373.233 128.476L372.548 125.253Z" fill="white"/>
<g opacity="0.2">
<path d="M393.514 157.638L361.751 162.135L361.365 130.16L393.128 125.663L393.514 157.638Z" fill="#111B23"/>
<path d="M372.548 125.254L361.325 126.844L361.363 130.158L373.233 128.477L372.548 125.254Z" fill="#111B23"/>
</g>
<path d="M371.644 128.318L362.466 129.618L362.441 127.689L371.62 126.389L371.644 128.318Z" fill="#D9D9D9"/>
<path d="M386.984 123.32L357.75 129.453L363.306 160.651L392.54 154.518L386.984 123.32Z" fill="white"/>
<path d="M368.948 155.938L366.756 143.755L364.609 131.565L366.8 143.741L368.948 155.938Z" fill="#C7C7C7"/>
<path d="M369.673 155.779L367.482 143.603L365.336 131.414L367.527 143.59L369.673 155.779Z" fill="#C7C7C7"/>
<path d="M370.401 155.636L368.209 143.453L366.062 131.264L368.254 143.44L370.401 155.636Z" fill="#C7C7C7"/>
<path d="M371.127 155.48L368.935 143.297L366.789 131.107L368.98 143.283L371.127 155.48Z" fill="#C7C7C7"/>
<path d="M371.85 155.329L369.658 143.146L367.512 130.957L369.703 143.133L371.85 155.329Z" fill="#C7C7C7"/>
<path d="M372.577 155.179L370.385 142.996L368.238 130.807L370.425 142.99L372.577 155.179Z" fill="#C7C7C7"/>
<path d="M373.304 155.022L371.112 142.839L368.961 130.65L371.152 142.826L373.304 155.022Z" fill="#C7C7C7"/>
<path d="M374.027 154.871L371.835 142.689L369.684 130.5L371.876 142.683L374.027 154.871Z" fill="#C7C7C7"/>
<path d="M374.749 154.722L372.556 142.539L370.41 130.35L372.601 142.526L374.749 154.722Z" fill="#C7C7C7"/>
<path d="M375.475 154.57L373.283 142.388L371.137 130.198L373.329 142.381L375.475 154.57Z" fill="#C7C7C7"/>
<path d="M376.202 154.414L374.01 142.231L371.863 130.042L374.054 142.218L376.202 154.414Z" fill="#C7C7C7"/>
<path d="M376.928 154.264L374.736 142.081L372.59 129.892L374.782 142.074L376.928 154.264Z" fill="#C7C7C7"/>
<path d="M377.651 154.113L375.459 141.931L373.312 129.741L375.505 141.924L377.651 154.113Z" fill="#C7C7C7"/>
<path d="M378.377 153.957L376.185 141.774L374.039 129.585L376.231 141.768L378.377 153.957Z" fill="#C7C7C7"/>
<path d="M379.104 153.806L376.912 141.623L374.766 129.434L376.958 141.616L379.104 153.806Z" fill="#C7C7C7"/>
<path d="M376.104 149.837L376.434 151.686L379.479 151.047L379.15 149.198L376.104 149.837Z" fill="white"/>
<path d="M373.874 146.752L374.203 148.601L378.87 147.622L378.541 145.773L373.874 146.752Z" fill="white"/>
<path d="M371.456 143.707L371.785 145.555L378.274 144.193L377.945 142.345L371.456 143.707Z" fill="white"/>
<path d="M370.061 140.444L370.391 142.292L377.66 140.767L377.331 138.919L370.061 140.444Z" fill="white"/>
<path d="M368.077 137.307L368.406 139.155L377.065 137.341L376.737 135.493L368.077 137.307Z" fill="white"/>
<path d="M366.087 134.17L366.416 136.019L376.45 133.916L376.121 132.068L366.087 134.17Z" fill="white"/>
<path d="M368.319 155.386L371.19 154.731L374.063 154.091C375.976 153.674 377.893 153.261 379.814 152.852L379.75 152.988L378.687 147.059L377.646 141.133L376.619 135.198L375.612 129.26L376.715 135.177L377.797 141.097L378.864 147.02L379.916 152.951L379.933 153.069L379.846 153.081C377.926 153.48 376.01 153.879 374.086 154.258L371.204 154.829L368.319 155.386Z" fill="#C7C7C7"/>
<path d="M379.772 149.073L380.102 150.921L380.222 150.896L379.893 149.047L379.772 149.073Z" fill="#C7C7C7"/>
<path d="M379.161 145.646L379.49 147.494L379.611 147.469L379.282 145.621L379.161 145.646Z" fill="#C7C7C7"/>
<path d="M378.544 142.213L378.873 144.062L378.994 144.036L378.665 142.188L378.544 142.213Z" fill="#C7C7C7"/>
<path d="M377.923 138.788L378.252 140.636L378.373 140.61L378.044 138.762L377.923 138.788Z" fill="#C7C7C7"/>
<path d="M377.319 135.359L377.648 137.207L377.769 137.182L377.44 135.334L377.319 135.359Z" fill="#C7C7C7"/>
<path d="M376.706 131.931L377.035 133.779L377.156 133.754L376.827 131.906L376.706 131.931Z" fill="#C7C7C7"/>
<path d="M376.806 151.401C376.632 150.5 376.421 149.608 376.173 148.73C375.93 147.854 375.655 146.99 375.35 146.143C374.748 144.449 374.006 142.839 373.14 141.345C372.283 139.842 371.274 138.501 370.148 137.366L369.941 137.155L369.72 136.953L369.285 136.554C368.986 136.313 368.695 136.05 368.381 135.847C367.763 135.405 367.126 135.022 366.475 134.701C367.807 135.269 369.077 136.128 370.234 137.241C370.814 137.797 371.361 138.416 371.871 139.09C372.378 139.746 372.85 140.448 373.284 141.19C374.157 142.707 374.894 144.348 375.481 146.075C376.076 147.79 376.521 149.579 376.806 151.401Z" fill="#111B23"/>
<path d="M367.305 133.95L367.397 134.199L366.534 134.703L367.048 135.876L366.879 135.999L366.251 134.573L367.305 133.95Z" fill="#111B23"/>
<path d="M385.33 153.041L380.805 127.629L380.055 127.786L384.58 153.198L385.33 153.041Z" fill="#DBDBDB"/>
<path d="M387.224 152.649L384.676 138.34L383.926 138.497L386.474 152.807L387.224 152.649Z" fill="#DBDBDB"/>
<path d="M365.796 151.38L363.248 137.07L362.498 137.228L365.046 151.537L365.796 151.38Z" fill="#DBDBDB"/>
<path d="M393.573 157.627L361.81 162.125L351.561 134.201L383.324 129.704L393.573 157.627Z" fill="#D9D9D9"/>
<path d="M361.724 129.727L350.5 131.316L351.563 134.203L363.427 132.523L361.724 129.727Z" fill="#D9D9D9"/>
<path d="M403.854 128.076C407.227 122.977 405.827 116.109 400.728 112.736C395.629 109.363 388.761 110.763 385.388 115.862C382.015 120.962 383.415 127.83 388.514 131.202C393.614 134.575 400.482 133.175 403.854 128.076Z" fill="#FAFAFA"/>
<path d="M399.977 117.027C399.661 117.734 399.268 118.405 398.807 119.027C398.027 120.207 396.927 121.807 395.687 123.567L394.357 125.437L394.217 125.637L394.017 125.507C392.443 124.562 390.946 123.495 389.537 122.317C391.188 123.12 392.776 124.046 394.287 125.087L393.947 125.147L395.267 123.267C396.507 121.507 397.657 119.937 398.507 118.807C398.928 118.16 399.421 117.563 399.977 117.027Z" fill="#F3C262"/>
<path d="M147 180.418V360.166C147 365.045 150.96 369 155.845 369H421.818C426.703 369 430.664 365.045 430.664 360.166V180.418C430.664 175.539 426.703 171.584 421.818 171.584L155.845 171.584C150.96 171.584 147 175.539 147 180.418Z" fill="#111B23"/>
<path d="M166 186V360H403V186L166 186Z" fill="white"/>
<path d="M423.815 272.054C424.773 267.983 422.245 263.906 418.169 262.949C414.093 261.992 410.012 264.517 409.054 268.588C408.095 272.659 410.623 276.735 414.699 277.692C418.775 278.649 422.856 276.125 423.815 272.054Z" fill="#2A5578"/>
<path d="M155.162 241.493V299.088C155.162 299.604 155.58 300.021 156.096 300.021H157.36C157.876 300.021 158.294 299.604 158.294 299.088V241.493C158.294 240.977 157.876 240.56 157.36 240.56H156.096C155.58 240.56 155.162 240.977 155.162 241.493Z" fill="#2A5578"/>
<path d="M330.456 216.55C330.456 216.665 309.886 216.757 284.506 216.757C259.127 216.757 238.557 216.665 238.557 216.55C238.557 216.436 259.119 216.352 284.506 216.352C309.894 216.352 330.456 216.443 330.456 216.55Z" fill="#111B23"/>
<path d="M307.862 211.043C307.862 211.158 297.707 211.25 285.178 211.25C272.649 211.25 262.486 211.158 262.486 211.043C262.486 210.929 272.641 210.837 285.178 210.837C297.715 210.837 307.862 210.929 307.862 211.043Z" fill="#111B23"/>
<path d="M403.301 177.811H166.406V189.613H403.301V177.811Z" fill="#E0E0E0"/>
<path d="M174.047 183.385C174.047 183.701 173.953 184.01 173.777 184.273C173.601 184.536 173.351 184.741 173.059 184.862C172.766 184.983 172.445 185.014 172.134 184.953C171.824 184.891 171.538 184.739 171.315 184.515C171.091 184.292 170.938 184.007 170.876 183.697C170.815 183.387 170.846 183.065 170.968 182.773C171.089 182.481 171.294 182.231 171.557 182.056C171.82 181.88 172.13 181.786 172.446 181.786C172.871 181.786 173.278 181.955 173.578 182.254C173.878 182.554 174.047 182.961 174.047 183.385Z" fill="white"/>
<path d="M179.363 183.385C179.363 183.701 179.269 184.01 179.094 184.273C178.918 184.536 178.668 184.741 178.375 184.862C178.083 184.983 177.761 185.014 177.45 184.953C177.14 184.891 176.855 184.739 176.631 184.515C176.407 184.292 176.255 184.007 176.193 183.697C176.131 183.387 176.163 183.065 176.284 182.773C176.405 182.481 176.61 182.231 176.873 182.056C177.137 181.88 177.446 181.786 177.763 181.786C178.187 181.786 178.594 181.955 178.894 182.254C179.195 182.554 179.363 182.961 179.363 183.385Z" fill="white"/>
<path d="M184.686 183.385C184.686 183.701 184.592 184.01 184.416 184.273C184.24 184.536 183.99 184.741 183.697 184.862C183.405 184.983 183.083 185.014 182.773 184.953C182.462 184.891 182.177 184.739 181.953 184.515C181.729 184.292 181.577 184.007 181.515 183.697C181.453 183.387 181.485 183.065 181.606 182.773C181.727 182.481 181.933 182.231 182.196 182.056C182.459 181.88 182.768 181.786 183.085 181.786C183.509 181.788 183.915 181.957 184.215 182.257C184.514 182.556 184.684 182.961 184.686 183.385Z" fill="white"/>
<path d="M377.168 225.859C377.168 225.974 336.066 226.066 285.368 226.066C234.67 226.066 193.561 225.974 193.561 225.859C193.561 225.744 234.663 225.66 285.368 225.66C336.074 225.66 377.168 225.752 377.168 225.859Z" fill="#E0E0E0"/>
<path d="M377.168 230.412C377.168 230.519 336.066 230.61 285.368 230.61C234.67 230.61 193.561 230.519 193.561 230.412C193.561 230.305 234.663 230.205 285.368 230.205C336.074 230.205 377.168 230.297 377.168 230.412Z" fill="#E0E0E0"/>
<path d="M238.281 334.141C238.281 333.672 238.208 333.255 238.062 332.891C237.927 332.526 237.682 332.193 237.328 331.891C236.974 331.589 236.474 331.297 235.828 331.016C235.193 330.724 234.38 330.427 233.391 330.125C232.307 329.792 231.307 329.422 230.391 329.016C229.484 328.599 228.693 328.12 228.016 327.578C227.339 327.026 226.812 326.396 226.438 325.688C226.062 324.969 225.875 324.141 225.875 323.203C225.875 322.276 226.068 321.432 226.453 320.672C226.849 319.911 227.406 319.255 228.125 318.703C228.854 318.141 229.714 317.708 230.703 317.406C231.693 317.094 232.786 316.938 233.984 316.938C235.672 316.938 237.125 317.25 238.344 317.875C239.573 318.5 240.516 319.339 241.172 320.391C241.839 321.443 242.172 322.604 242.172 323.875H238.281C238.281 323.125 238.12 322.464 237.797 321.891C237.484 321.307 237.005 320.849 236.359 320.516C235.724 320.182 234.917 320.016 233.938 320.016C233.01 320.016 232.24 320.156 231.625 320.438C231.01 320.719 230.552 321.099 230.25 321.578C229.948 322.057 229.797 322.599 229.797 323.203C229.797 323.63 229.896 324.021 230.094 324.375C230.292 324.719 230.594 325.042 231 325.344C231.406 325.635 231.917 325.911 232.531 326.172C233.146 326.432 233.87 326.682 234.703 326.922C235.964 327.297 237.062 327.714 238 328.172C238.938 328.62 239.719 329.13 240.344 329.703C240.969 330.276 241.438 330.927 241.75 331.656C242.062 332.375 242.219 333.193 242.219 334.109C242.219 335.068 242.026 335.932 241.641 336.703C241.255 337.464 240.703 338.115 239.984 338.656C239.276 339.188 238.422 339.599 237.422 339.891C236.432 340.172 235.328 340.312 234.109 340.312C233.016 340.312 231.938 340.167 230.875 339.875C229.823 339.583 228.865 339.141 228 338.547C227.135 337.943 226.448 337.193 225.938 336.297C225.427 335.391 225.172 334.333 225.172 333.125H229.094C229.094 333.865 229.219 334.495 229.469 335.016C229.729 335.536 230.089 335.964 230.547 336.297C231.005 336.62 231.536 336.859 232.141 337.016C232.755 337.172 233.411 337.25 234.109 337.25C235.026 337.25 235.792 337.12 236.406 336.859C237.031 336.599 237.5 336.234 237.812 335.766C238.125 335.297 238.281 334.755 238.281 334.141ZM255.484 336.016V323.094H259.266V340H255.703L255.484 336.016ZM256.016 332.5L257.281 332.469C257.281 333.604 257.156 334.651 256.906 335.609C256.656 336.557 256.271 337.385 255.75 338.094C255.229 338.792 254.562 339.339 253.75 339.734C252.938 340.12 251.964 340.312 250.828 340.312C250.005 340.312 249.25 340.193 248.562 339.953C247.875 339.714 247.281 339.344 246.781 338.844C246.292 338.344 245.911 337.693 245.641 336.891C245.37 336.089 245.234 335.13 245.234 334.016V323.094H249V334.047C249 334.661 249.073 335.177 249.219 335.594C249.365 336 249.562 336.328 249.812 336.578C250.062 336.828 250.354 337.005 250.688 337.109C251.021 337.214 251.375 337.266 251.75 337.266C252.823 337.266 253.667 337.057 254.281 336.641C254.906 336.214 255.349 335.641 255.609 334.922C255.88 334.203 256.016 333.396 256.016 332.5ZM270.031 337.312C270.646 337.312 271.198 337.193 271.688 336.953C272.188 336.703 272.589 336.359 272.891 335.922C273.203 335.484 273.375 334.979 273.406 334.406H276.953C276.932 335.5 276.609 336.495 275.984 337.391C275.359 338.286 274.531 339 273.5 339.531C272.469 340.052 271.328 340.312 270.078 340.312C268.786 340.312 267.661 340.094 266.703 339.656C265.745 339.208 264.948 338.594 264.312 337.812C263.677 337.031 263.198 336.13 262.875 335.109C262.562 334.089 262.406 332.995 262.406 331.828V331.281C262.406 330.115 262.562 329.021 262.875 328C263.198 326.969 263.677 326.062 264.312 325.281C264.948 324.5 265.745 323.891 266.703 323.453C267.661 323.005 268.781 322.781 270.062 322.781C271.417 322.781 272.604 323.052 273.625 323.594C274.646 324.125 275.448 324.87 276.031 325.828C276.625 326.776 276.932 327.88 276.953 329.141H273.406C273.375 328.516 273.219 327.953 272.938 327.453C272.667 326.943 272.281 326.536 271.781 326.234C271.292 325.932 270.703 325.781 270.016 325.781C269.255 325.781 268.625 325.938 268.125 326.25C267.625 326.552 267.234 326.969 266.953 327.5C266.672 328.021 266.469 328.609 266.344 329.266C266.229 329.911 266.172 330.583 266.172 331.281V331.828C266.172 332.526 266.229 333.203 266.344 333.859C266.458 334.516 266.656 335.104 266.938 335.625C267.229 336.135 267.625 336.547 268.125 336.859C268.625 337.161 269.26 337.312 270.031 337.312ZM286.75 337.312C287.365 337.312 287.917 337.193 288.406 336.953C288.906 336.703 289.307 336.359 289.609 335.922C289.922 335.484 290.094 334.979 290.125 334.406H293.672C293.651 335.5 293.328 336.495 292.703 337.391C292.078 338.286 291.25 339 290.219 339.531C289.188 340.052 288.047 340.312 286.797 340.312C285.505 340.312 284.38 340.094 283.422 339.656C282.464 339.208 281.667 338.594 281.031 337.812C280.396 337.031 279.917 336.13 279.594 335.109C279.281 334.089 279.125 332.995 279.125 331.828V331.281C279.125 330.115 279.281 329.021 279.594 328C279.917 326.969 280.396 326.062 281.031 325.281C281.667 324.5 282.464 323.891 283.422 323.453C284.38 323.005 285.5 322.781 286.781 322.781C288.135 322.781 289.323 323.052 290.344 323.594C291.365 324.125 292.167 324.87 292.75 325.828C293.344 326.776 293.651 327.88 293.672 329.141H290.125C290.094 328.516 289.938 327.953 289.656 327.453C289.385 326.943 289 326.536 288.5 326.234C288.01 325.932 287.422 325.781 286.734 325.781C285.974 325.781 285.344 325.938 284.844 326.25C284.344 326.552 283.953 326.969 283.672 327.5C283.391 328.021 283.188 328.609 283.062 329.266C282.948 329.911 282.891 330.583 282.891 331.281V331.828C282.891 332.526 282.948 333.203 283.062 333.859C283.177 334.516 283.375 335.104 283.656 335.625C283.948 336.135 284.344 336.547 284.844 336.859C285.344 337.161 285.979 337.312 286.75 337.312ZM304.016 340.312C302.766 340.312 301.635 340.109 300.625 339.703C299.625 339.286 298.771 338.708 298.062 337.969C297.365 337.229 296.828 336.359 296.453 335.359C296.078 334.359 295.891 333.281 295.891 332.125V331.5C295.891 330.177 296.083 328.979 296.469 327.906C296.854 326.833 297.391 325.917 298.078 325.156C298.766 324.385 299.578 323.797 300.516 323.391C301.453 322.984 302.469 322.781 303.562 322.781C304.771 322.781 305.828 322.984 306.734 323.391C307.641 323.797 308.391 324.37 308.984 325.109C309.589 325.839 310.036 326.708 310.328 327.719C310.63 328.729 310.781 329.844 310.781 331.062V332.672H297.719V329.969H307.062V329.672C307.042 328.995 306.906 328.359 306.656 327.766C306.417 327.172 306.047 326.693 305.547 326.328C305.047 325.964 304.38 325.781 303.547 325.781C302.922 325.781 302.365 325.917 301.875 326.188C301.396 326.448 300.995 326.828 300.672 327.328C300.349 327.828 300.099 328.432 299.922 329.141C299.755 329.839 299.672 330.625 299.672 331.5V332.125C299.672 332.865 299.771 333.552 299.969 334.188C300.177 334.812 300.479 335.359 300.875 335.828C301.271 336.297 301.75 336.667 302.312 336.938C302.875 337.198 303.516 337.328 304.234 337.328C305.141 337.328 305.948 337.146 306.656 336.781C307.365 336.417 307.979 335.901 308.5 335.234L310.484 337.156C310.12 337.688 309.646 338.198 309.062 338.688C308.479 339.167 307.766 339.557 306.922 339.859C306.089 340.161 305.12 340.312 304.016 340.312ZM323.203 335.422C323.203 335.047 323.109 334.708 322.922 334.406C322.734 334.094 322.375 333.812 321.844 333.562C321.323 333.312 320.552 333.083 319.531 332.875C318.635 332.677 317.812 332.443 317.062 332.172C316.323 331.891 315.688 331.552 315.156 331.156C314.625 330.76 314.214 330.292 313.922 329.75C313.63 329.208 313.484 328.583 313.484 327.875C313.484 327.188 313.635 326.536 313.938 325.922C314.24 325.307 314.672 324.766 315.234 324.297C315.797 323.828 316.479 323.458 317.281 323.188C318.094 322.917 319 322.781 320 322.781C321.417 322.781 322.63 323.021 323.641 323.5C324.661 323.969 325.443 324.609 325.984 325.422C326.526 326.224 326.797 327.13 326.797 328.141H323.031C323.031 327.693 322.917 327.276 322.688 326.891C322.469 326.495 322.135 326.177 321.688 325.938C321.24 325.688 320.677 325.562 320 325.562C319.354 325.562 318.818 325.667 318.391 325.875C317.974 326.073 317.661 326.333 317.453 326.656C317.255 326.979 317.156 327.333 317.156 327.719C317.156 328 317.208 328.255 317.312 328.484C317.427 328.703 317.615 328.906 317.875 329.094C318.135 329.271 318.49 329.438 318.938 329.594C319.396 329.75 319.969 329.901 320.656 330.047C321.948 330.318 323.057 330.667 323.984 331.094C324.922 331.51 325.641 332.052 326.141 332.719C326.641 333.375 326.891 334.208 326.891 335.219C326.891 335.969 326.729 336.656 326.406 337.281C326.094 337.896 325.635 338.432 325.031 338.891C324.427 339.339 323.703 339.688 322.859 339.938C322.026 340.188 321.089 340.312 320.047 340.312C318.516 340.312 317.219 340.042 316.156 339.5C315.094 338.948 314.286 338.245 313.734 337.391C313.193 336.526 312.922 335.63 312.922 334.703H316.562C316.604 335.401 316.797 335.958 317.141 336.375C317.495 336.781 317.932 337.078 318.453 337.266C318.984 337.443 319.531 337.531 320.094 337.531C320.771 337.531 321.339 337.443 321.797 337.266C322.255 337.078 322.604 336.828 322.844 336.516C323.083 336.193 323.203 335.828 323.203 335.422ZM339.672 335.422C339.672 335.047 339.578 334.708 339.391 334.406C339.203 334.094 338.844 333.812 338.312 333.562C337.792 333.312 337.021 333.083 336 332.875C335.104 332.677 334.281 332.443 333.531 332.172C332.792 331.891 332.156 331.552 331.625 331.156C331.094 330.76 330.682 330.292 330.391 329.75C330.099 329.208 329.953 328.583 329.953 327.875C329.953 327.188 330.104 326.536 330.406 325.922C330.708 325.307 331.141 324.766 331.703 324.297C332.266 323.828 332.948 323.458 333.75 323.188C334.562 322.917 335.469 322.781 336.469 322.781C337.885 322.781 339.099 323.021 340.109 323.5C341.13 323.969 341.911 324.609 342.453 325.422C342.995 326.224 343.266 327.13 343.266 328.141H339.5C339.5 327.693 339.385 327.276 339.156 326.891C338.938 326.495 338.604 326.177 338.156 325.938C337.708 325.688 337.146 325.562 336.469 325.562C335.823 325.562 335.286 325.667 334.859 325.875C334.443 326.073 334.13 326.333 333.922 326.656C333.724 326.979 333.625 327.333 333.625 327.719C333.625 328 333.677 328.255 333.781 328.484C333.896 328.703 334.083 328.906 334.344 329.094C334.604 329.271 334.958 329.438 335.406 329.594C335.865 329.75 336.438 329.901 337.125 330.047C338.417 330.318 339.526 330.667 340.453 331.094C341.391 331.51 342.109 332.052 342.609 332.719C343.109 333.375 343.359 334.208 343.359 335.219C343.359 335.969 343.198 336.656 342.875 337.281C342.562 337.896 342.104 338.432 341.5 338.891C340.896 339.339 340.172 339.688 339.328 339.938C338.495 340.188 337.557 340.312 336.516 340.312C334.984 340.312 333.688 340.042 332.625 339.5C331.562 338.948 330.755 338.245 330.203 337.391C329.661 336.526 329.391 335.63 329.391 334.703H333.031C333.073 335.401 333.266 335.958 333.609 336.375C333.964 336.781 334.401 337.078 334.922 337.266C335.453 337.443 336 337.531 336.562 337.531C337.24 337.531 337.807 337.443 338.266 337.266C338.724 337.078 339.073 336.828 339.312 336.516C339.552 336.193 339.672 335.828 339.672 335.422Z" fill="#F3C262"/>
<path d="M282.33 289.88C296.789 289.88 308.51 278.158 308.51 263.7C308.51 249.241 296.789 237.52 282.33 237.52C267.872 237.52 256.15 249.241 256.15 263.7C256.15 278.158 267.872 289.88 282.33 289.88Z" fill="#F3C262"/>
<path d="M295.221 252.65C295.551 252.92 290.661 259.5 284.301 267.34L280.441 272.02L279.911 272.66L279.351 272.08C274.351 266.95 270.981 263.15 271.221 262.91C271.461 262.67 275.271 266.06 280.391 271.03L279.311 271.14L283.091 266.41C289.451 258.52 294.881 252.38 295.221 252.65Z" fill="white"/>
<path d="M319.52 253.14C318.74 250.39 315.17 250.66 315.17 250.66L315.26 252.57C317.33 252.21 318.61 254.63 318.61 254.63L319.52 253.14Z" fill="#F3C262"/>
<path d="M243.68 258.92C242.91 256.17 239.33 256.43 239.33 256.43L239.43 258.35C241.5 257.99 242.78 260.41 242.78 260.41L243.68 258.92Z" fill="#E0E0E0"/>
<path d="M285.451 220.87C289.601 222.13 292.181 217.35 292.181 217.35L289.661 215.91C288.421 218.84 284.281 218.5 284.281 218.5L285.451 220.87Z" fill="#E0E0E0"/>
<path d="M262.441 226.02C260.511 226.23 260.281 228.65 260.281 228.65L261.571 228.8C261.571 227.38 263.341 226.8 263.341 226.8L262.441 226.02Z" fill="#F3C262"/>
<path d="M341.98 243.74C342.26 241.82 339.98 240.99 339.98 240.99L339.51 242.2C340.89 242.55 341.02 244.41 341.02 244.41L341.98 243.74Z" fill="#E0E0E0"/>
<path d="M273.7 200.75C273.98 198.83 271.7 198 271.7 198L271.23 199.22C272.61 199.57 272.74 201.42 272.74 201.42L273.7 200.75Z" fill="#F3C262"/>
<path d="M226.021 231.72C225.681 234.72 229.661 235.46 229.661 235.46L230.381 233.46C227.991 233.24 227.651 230.46 227.651 230.46L226.021 231.72Z" fill="#F3C262"/>
<path d="M314.781 220.81C316.721 220.92 317.341 218.57 317.341 218.57L316.091 218.21C315.861 219.61 314.021 219.9 314.021 219.9L314.781 220.81Z" fill="#F3C262"/>
<path d="M325.37 228.71C324.85 228.856 324.308 228.906 323.77 228.86C323.232 228.908 322.69 228.857 322.17 228.71C323.226 228.496 324.314 228.496 325.37 228.71Z" fill="#E0E0E0"/>
<path d="M327.07 224.36C327.27 225.431 327.27 226.53 327.07 227.6C326.857 226.531 326.857 225.43 327.07 224.36Z" fill="#E0E0E0"/>
<path d="M328.871 228.6C329.391 228.454 329.933 228.403 330.471 228.45C331.009 228.402 331.551 228.453 332.071 228.6C331.015 228.813 329.927 228.813 328.871 228.6Z" fill="#E0E0E0"/>
<path d="M327.182 232.96C326.968 231.887 326.968 230.783 327.182 229.71C327.381 230.784 327.381 231.886 327.182 232.96Z" fill="#E0E0E0"/>
<path d="M329.76 231.14C329.7 231.19 329.39 230.93 329.07 230.56C328.75 230.19 328.56 229.83 328.62 229.78C328.68 229.73 329 229.98 329.31 230.36C329.62 230.74 329.83 231.03 329.76 231.14Z" fill="#E0E0E0"/>
<path d="M329.61 226.14C329.67 226.21 329.46 226.52 329.13 226.85C328.8 227.18 328.49 227.4 328.43 227.34C328.37 227.28 328.58 226.96 328.91 226.63C329.24 226.3 329.55 226.14 329.61 226.14Z" fill="#E0E0E0"/>
<path d="M325.95 227.41C325.89 227.48 325.59 227.32 325.28 227.06C324.97 226.8 324.77 226.54 324.82 226.48C324.87 226.42 325.17 226.57 325.48 226.82C325.79 227.07 326 227.35 325.95 227.41Z" fill="#E0E0E0"/>
<path d="M325.8 229.59C325.87 229.64 325.68 229.95 325.38 230.28C325.08 230.61 324.79 230.82 324.73 230.76C324.67 230.7 324.85 230.39 325.15 230.07C325.45 229.75 325.74 229.53 325.8 229.59Z" fill="#E0E0E0"/>
<path d="M238.251 219.79C237.195 220.004 236.107 220.004 235.051 219.79C235.571 219.645 236.113 219.594 236.651 219.64C237.189 219.593 237.731 219.644 238.251 219.79Z" fill="#F3C262"/>
<path d="M239.951 215.44C240.164 216.513 240.164 217.618 239.951 218.69C239.738 217.618 239.738 216.513 239.951 215.44Z" fill="#F3C262"/>
<path d="M241.76 219.69C242.816 219.477 243.904 219.477 244.96 219.69C243.904 219.904 242.816 219.904 241.76 219.69Z" fill="#F3C262"/>
<path d="M240.06 224.04C239.847 222.97 239.847 221.869 240.06 220.8C240.274 221.869 240.274 222.97 240.06 224.04Z" fill="#F3C262"/>
<path d="M242.652 222.14C242.582 222.2 242.272 221.94 241.962 221.56C241.652 221.18 241.442 220.84 241.512 220.78C241.582 220.72 241.882 220.99 242.202 221.36C242.522 221.73 242.712 222.14 242.652 222.14Z" fill="#F3C262"/>
<path d="M242.501 217.24C242.561 217.3 242.341 217.62 242.021 217.95C241.701 218.28 241.381 218.49 241.321 218.43C241.261 218.37 241.471 218.06 241.801 217.73C242.131 217.4 242.441 217.14 242.501 217.24Z" fill="#F3C262"/>
<path d="M238.831 218.5C238.781 218.56 238.481 218.41 238.171 218.15C237.861 217.89 237.651 217.63 237.711 217.56C237.771 217.49 238.061 217.65 238.371 217.91C238.681 218.17 238.891 218.43 238.831 218.5Z" fill="#F3C262"/>
<path d="M238.69 220.67C238.75 220.73 238.56 221.04 238.27 221.37C237.98 221.7 237.68 221.91 237.61 221.85C237.54 221.79 237.74 221.48 238.03 221.16C238.32 220.84 238.62 220.61 238.69 220.67Z" fill="#F3C262"/>
<path d="M260.592 370.433C260.556 370.457 260.557 370.445 260.592 370.433V370.433Z" fill="#E0E0E0"/>
</svg>
