<svg width="20" height="14" viewBox="0 0 20 14" fill="none" xmlns="http://www.w3.org/2000/svg">
<path d="M12.4999 6.99967C14.3416 6.99967 15.8333 5.50801 15.8333 3.66634C15.8333 1.82467 14.3416 0.333008 12.4999 0.333008C10.6583 0.333008 9.16658 1.82467 9.16658 3.66634C9.16658 5.50801 10.6583 6.99967 12.4999 6.99967ZM12.4999 1.99967C13.4166 1.99967 14.1666 2.74967 14.1666 3.66634C14.1666 4.58301 13.4166 5.33301 12.4999 5.33301C11.5833 5.33301 10.8333 4.58301 10.8333 3.66634C10.8333 2.74967 11.5833 1.99967 12.4999 1.99967ZM12.4999 8.66634C10.2749 8.66634 5.83325 9.78301 5.83325 11.9997V13.6663H19.1666V11.9997C19.1666 9.78301 14.7249 8.66634 12.4999 8.66634ZM7.49992 11.9997C7.68325 11.3997 10.2583 10.333 12.4999 10.333C14.7499 10.333 17.3333 11.408 17.4999 11.9997H7.49992ZM4.99992 9.49967V6.99967H7.49992V5.33301H4.99992V2.83301H3.33325V5.33301H0.833252V6.99967H3.33325V9.49967H4.99992Z" fill="#2A5578"/>
</svg>
