<svg xmlns="http://www.w3.org/2000/svg" width="24" height="24" viewBox="0 0 31 22" fill="none">
    <path d="M21.7267 12.5068C23.5533 13.7468 24.8333 15.4268 24.8333 17.6668V21.6668H30.1667V17.6668C30.1667 14.7602 25.4067 13.0402 21.7267 12.5068ZM19.5 11.0002C22.4467 11.0002 24.8333 8.6135 24.8333 5.66683C24.8333 2.72016 22.4467 0.333496 19.5 0.333496C18.8733 0.333496 18.2867 0.466829 17.7267 0.653496C18.874 2.07245 19.5 3.84203 19.5 5.66683C19.5 7.49162 18.874 9.26121 17.7267 10.6802C18.2867 10.8668 18.8733 11.0002 19.5 11.0002ZM11.5 11.0002C14.4467 11.0002 16.8333 8.6135 16.8333 5.66683C16.8333 2.72016 14.4467 0.333496 11.5 0.333496C8.55333 0.333496 6.16666 2.72016 6.16666 5.66683C6.16666 8.6135 8.55333 11.0002 11.5 11.0002ZM11.5 3.00016C12.9667 3.00016 14.1667 4.20016 14.1667 5.66683C14.1667 7.1335 12.9667 8.3335 11.5 8.3335C10.0333 8.3335 8.83333 7.1335 8.83333 5.66683C8.83333 4.20016 10.0333 3.00016 11.5 3.00016ZM11.5 12.3335C7.93999 12.3335 0.833328 14.1202 0.833328 17.6668V21.6668H22.1667V17.6668C22.1667 14.1202 15.06 12.3335 11.5 12.3335ZM19.5 19.0002H3.49999V17.6802C3.76666 16.7202 7.89999 15.0002 11.5 15.0002C15.1 15.0002 19.2333 16.7202 19.5 17.6668V19.0002Z" fill="#2A5578"/>
</svg>
