<svg width="20" height="20" viewBox="0 0 20 20" fill="none" xmlns="http://www.w3.org/2000/svg">
<path d="M16.5455 5.5H12.1818V6.82667H16.5455V16.18H3.45455V6.82667H7.81818V5.5H3.45455C2.65455 5.5 2 6.1 2 6.83333V16.1667C2 16.9 2.65455 17.5 3.45455 17.5H16.5455C17.3455 17.5 18 16.9 18 16.1667V6.83333C18 6.1 17.3455 5.5 16.5455 5.5ZM16.5455 5.5H12.1818V6.82667H16.5455V16.18H3.45455V6.82667H7.81818V5.5H3.45455C2.65455 5.5 2 6.1 2 6.83333V16.1667C2 16.9 2.65455 17.5 3.45455 17.5H16.5455C17.3455 17.5 18 16.9 18 16.1667V6.83333C18 6.1 17.3455 5.5 16.5455 5.5Z" fill="#263238"/>
<path d="M9.32595 10.2143V3.74589H7.02148V2.61719H12.9707V3.74589H10.5957V10.2143H9.32595Z" fill="#263238"/>
</svg>
