<svg width="13" height="11" viewBox="0 0 13 11" fill="none" xmlns="http://www.w3.org/2000/svg">
<path d="M4.89435 0.294922L3.86094 1.42433H2.07082C1.44964 1.42433 0.941406 1.93257 0.941406 2.55375V9.33022C0.941406 9.95139 1.44964 10.4596 2.07082 10.4596H11.1061C11.7273 10.4596 12.2355 9.95139 12.2355 9.33022V2.55375C12.2355 1.93257 11.7273 1.42433 11.1061 1.42433H9.31599L8.28258 0.294922H4.89435ZM6.58846 8.76551C5.02988 8.76551 3.76494 7.50057 3.76494 5.94198C3.76494 4.38339 5.02988 3.11845 6.58846 3.11845C8.14705 3.11845 9.41199 4.38339 9.41199 5.94198C9.41199 7.50057 8.14705 8.76551 6.58846 8.76551Z" fill="#263238"/>
</svg>
