<svg width="24" height="20" viewBox="0 0 24 20" fill="none" xmlns="http://www.w3.org/2000/svg">
<path d="M3.07833 19.8927C2.53685 19.895 2.00455 19.7636 1.53666 19.5123C1.06877 19.2609 0.682325 18.8988 0.417348 18.4633C0.14398 18.0291 0 17.5359 0 17.0339C0 16.5318 0.14398 16.0387 0.417348 15.6045L9.39492 1.41753C9.66781 0.984063 10.06 0.62473 10.5318 0.37583C11.0036 0.12693 11.5382 -0.00269908 12.0818 4.26041e-05C12.6237 0.00268371 13.1553 0.137381 13.6226 0.390498C14.0899 0.643615 14.4763 1.00615 14.7427 1.44136L23.5782 15.7355C23.8544 16.1667 24 16.6582 24 17.159C24 17.6597 23.8544 18.1512 23.5782 18.5824C23.3064 19.0167 22.9144 19.3767 22.4424 19.6257C21.9704 19.8748 21.4352 20.0039 20.8914 19.9999L3.07833 19.9165V19.8927ZM12.1205 0.833864C11.7387 0.826607 11.3619 0.91465 11.0299 1.08869C10.6979 1.26273 10.4231 1.5163 10.2346 1.82254L1.25697 16.0095C1.06409 16.3127 0.961242 16.6574 0.958753 17.0089C0.956263 17.3605 1.05421 17.7064 1.24278 18.0119C1.43135 18.3174 1.70386 18.5717 2.03289 18.7492C2.36192 18.9268 2.73587 19.0213 3.11708 19.0232L20.9431 19.0946C21.3227 19.0945 21.6956 19.0025 22.0246 18.8279C22.3536 18.6533 22.6273 18.4022 22.8181 18.0996C23.009 17.7971 23.1104 17.4536 23.1124 17.1035C23.1143 16.7535 23.0166 16.4091 22.829 16.1048L13.9935 1.81062C13.7969 1.51092 13.5175 1.26478 13.1838 1.09734C12.8502 0.929907 12.4744 0.847207 12.0947 0.857692L12.1205 0.833864Z" fill="#F3C262"/>
<path d="M11.0001 13.997C10.9999 13.865 11.0263 13.7342 11.0777 13.6129C11.1291 13.4915 11.2045 13.3821 11.2992 13.2914C11.3938 13.2006 11.5058 13.1305 11.6282 13.0852C11.7506 13.0399 11.8808 13.0204 12.0109 13.028C12.1405 13.0219 12.2699 13.0428 12.3912 13.0896C12.5124 13.1364 12.6229 13.208 12.7157 13.3C12.8085 13.3919 12.8815 13.5022 12.9304 13.6241C12.9793 13.7459 13.0029 13.8767 12.9997 14.0082C13.0012 14.1397 12.9766 14.2702 12.9273 14.3919C12.878 14.5136 12.805 14.624 12.7128 14.7165C12.6205 14.809 12.5108 14.8817 12.3902 14.9303C12.2696 14.9789 12.1406 15.0024 12.0109 14.9994C11.8788 15.004 11.7472 14.9813 11.624 14.9328C11.5008 14.8843 11.3885 14.811 11.294 14.7173C11.1995 14.6236 11.1248 14.5115 11.0743 14.3877C11.0237 14.2639 10.9985 14.131 11.0001 13.997V13.997ZM11.0879 6H12.9448L12.6262 11.9588H11.3736L11.0879 6Z" fill="#F3C262"/>
</svg>
