<svg width="28" height="25" viewBox="0 0 28 25" fill="none" xmlns="http://www.w3.org/2000/svg">
<path d="M27.5932 20.4961L16.5971 1.49609C16.3333 1.04107 15.9546 0.663352 15.4989 0.40078C15.0431 0.138208 14.5264 0 14.0005 0C13.4745 0 12.9578 0.138208 12.502 0.40078C12.0463 0.663352 11.6676 1.04107 11.4038 1.49609V1.49707L0.407689 20.4961C0.143682 20.952 0.00441756 21.4695 0.00390766 21.9963C0.00339775 22.5232 0.141661 23.0409 0.404784 23.4974C0.667908 23.9538 1.04661 24.3329 1.50279 24.5965C1.95897 24.8602 2.47653 24.999 3.00339 24.999H24.9975C25.5244 24.999 26.042 24.8602 26.4981 24.5965C26.9543 24.3329 27.333 23.9538 27.5961 23.4974C27.8593 23.0409 27.9975 22.5232 27.997 21.9963C27.9965 21.4695 27.8572 20.952 27.5932 20.4961V20.4961ZM12.9995 10C12.9995 9.73478 13.1048 9.48043 13.2924 9.29289C13.4799 9.10535 13.7343 9 13.9995 9C14.2647 9 14.5191 9.10535 14.7066 9.29289C14.8941 9.48043 14.9995 9.73478 14.9995 10V15C14.9995 15.2652 14.8941 15.5196 14.7066 15.7071C14.5191 15.8946 14.2647 16 13.9995 16C13.7343 16 13.4799 15.8946 13.2924 15.7071C13.1048 15.5196 12.9995 15.2652 12.9995 15V10ZM14.0002 21.0004C13.7035 21.0004 13.4135 20.9124 13.1669 20.7476C12.9202 20.5827 12.7279 20.3485 12.6144 20.0744C12.5009 19.8003 12.4712 19.4987 12.529 19.2077C12.5869 18.9168 12.7298 18.6495 12.9396 18.4397C13.1493 18.2299 13.4166 18.0871 13.7076 18.0292C13.9986 17.9713 14.3002 18.001 14.5742 18.1145C14.8483 18.2281 15.0826 18.4203 15.2474 18.667C15.4122 18.9137 15.5002 19.2037 15.5002 19.5004C15.5002 19.8982 15.3422 20.2797 15.0609 20.561C14.7796 20.8423 14.398 21.0003 14.0002 21.0004V21.0004Z" fill="#F3C262"/>
</svg>
