<svg width="28" height="36" viewBox="0 0 28 36" fill="none" xmlns="http://www.w3.org/2000/svg">
<path d="M14.7539 20.4375L14.7656 20.3828C14.9922 19.4492 15.2773 18.2852 15.0547 17.2305C14.9062 16.3984 14.293 16.0742 13.7695 16.0508C13.1523 16.0234 12.6016 16.375 12.4648 16.8867C12.207 17.8242 12.4375 19.1055 12.8594 20.7383C12.3281 22.0039 11.4805 23.8438 10.8594 24.9375C9.70312 25.5352 8.15234 26.457 7.92188 27.6211C7.875 27.8359 7.92969 28.1094 8.05859 28.3555C8.20312 28.6289 8.43359 28.8398 8.70312 28.9414C8.82031 28.9844 8.96094 29.0195 9.125 29.0195C9.8125 29.0195 10.9258 28.4648 12.4102 25.918C12.6367 25.8438 12.8711 25.7656 13.0977 25.6875C14.1602 25.3281 15.2617 24.9531 16.2578 24.7852C17.3594 25.375 18.6133 25.7539 19.4648 25.7539C20.3086 25.7539 20.6406 25.2539 20.7656 24.9531C20.9844 24.4258 20.8789 23.7617 20.5234 23.4062C20.0078 22.8984 18.7539 22.7656 16.8008 23.0078C15.8398 22.4219 15.2109 21.625 14.7539 20.4375ZM10.4688 26.3711C9.92578 27.1602 9.51562 27.5547 9.29297 27.7266C9.55469 27.2461 10.0664 26.7383 10.4688 26.3711ZM13.8906 17.1719C14.0938 17.5195 14.0664 18.5703 13.9102 19.1016C13.7188 18.3242 13.6914 17.2227 13.8047 17.0938C13.8359 17.0977 13.8633 17.1211 13.8906 17.1719ZM13.8281 21.8789C14.2461 22.6016 14.7734 23.2227 15.3555 23.6836C14.5117 23.875 13.7422 24.1914 13.0547 24.4727C12.8906 24.5391 12.7305 24.6055 12.5742 24.668C13.0938 23.7266 13.5273 22.6602 13.8281 21.8789ZM19.9062 24.4375C19.9102 24.4453 19.9141 24.457 19.8906 24.4727H19.8828L19.875 24.4844C19.8438 24.5039 19.5234 24.6914 18.1445 24.1484C19.7305 24.0742 19.9023 24.4336 19.9062 24.4375ZM27.3828 9.27344L18.9766 0.867188C18.7422 0.632813 18.4258 0.5 18.0938 0.5H1.5C0.808594 0.5 0.25 1.05859 0.25 1.75V34.25C0.25 34.9414 0.808594 35.5 1.5 35.5H26.5C27.1914 35.5 27.75 34.9414 27.75 34.25V10.1602C27.75 9.82812 27.6172 9.50781 27.3828 9.27344ZM24.8672 10.7344H17.5156V3.38281L24.8672 10.7344ZM24.9375 32.6875H3.0625V3.3125H14.8594V11.75C14.8594 12.1851 15.0322 12.6024 15.3399 12.9101C15.6476 13.2178 16.0649 13.3906 16.5 13.3906H24.9375V32.6875Z" fill="#E04040"/>
</svg>
