<svg width="28" height="36" viewBox="0 0 28 36" fill="none" xmlns="http://www.w3.org/2000/svg">
<path d="M27.3828 9.27344L18.9766 0.867188C18.7422 0.632813 18.4258 0.5 18.0938 0.5H1.5C0.808594 0.5 0.25 1.05859 0.25 1.75V34.25C0.25 34.9414 0.808594 35.5 1.5 35.5H26.5C27.1914 35.5 27.75 34.9414 27.75 34.25V10.1602C27.75 9.82812 27.6172 9.50781 27.3828 9.27344ZM24.8672 10.7344H17.5156V3.38281L24.8672 10.7344ZM24.9375 32.6875H3.0625V3.3125H14.8594V11.75C14.8594 12.1851 15.0322 12.6024 15.3399 12.9101C15.6476 13.2178 16.0649 13.3906 16.5 13.3906H24.9375V32.6875ZM14.6289 16.4375H13.3711C13.1562 16.4375 12.9687 16.582 12.918 16.793L10.9766 24.5625L9.17578 16.8008C9.125 16.5898 8.9375 16.4375 8.71875 16.4375H7.33594C7.26408 16.4376 7.19322 16.4542 7.12879 16.486C7.06436 16.5178 7.0081 16.564 6.96432 16.621C6.92055 16.678 6.89044 16.7442 6.87631 16.8147C6.86218 16.8851 6.8644 16.9579 6.88281 17.0273L9.78125 27.8086C9.83594 28.0117 10.0234 28.1562 10.2344 28.1562H11.4844C11.6953 28.1562 11.8828 28.0156 11.9375 27.8086L14 20.1133L16.0625 27.8086C16.1172 28.0117 16.3047 28.1562 16.5156 28.1562H17.7578C17.9688 28.1562 18.1562 28.0156 18.2109 27.8086L21.1172 17.0273C21.1354 16.9579 21.1375 16.8852 21.1233 16.8148C21.1091 16.7444 21.079 16.6782 21.0353 16.6213C20.9915 16.5644 20.9353 16.5182 20.871 16.4863C20.8067 16.4545 20.7359 16.4378 20.6641 16.4375H19.2734C19.0547 16.4375 18.8672 16.5898 18.8164 16.8008L17.0273 24.5781L15.082 16.793C15.0313 16.582 14.8437 16.4375 14.6289 16.4375Z" fill="#365598"/>
</svg>
