<svg width="200" height="200" viewBox="0 0 200 200" fill="none" xmlns="http://www.w3.org/2000/svg">
<path d="M108.223 25.9634C108.223 25.9634 79.8231 22.6139 57.6591 42.5759C35.4951 62.5378 29.5431 93.9354 24.0271 119.233C18.5111 144.53 30.6351 166.408 52.8591 172.759C75.0831 179.111 84.5791 160.567 111.911 153.829C139.243 147.091 147.583 149.297 166.711 129.246C185.839 109.196 181.215 72.6521 156.711 50.1944C132.207 27.7367 108.223 25.9634 108.223 25.9634Z" fill="#EBEBEB"/>
<path opacity="0.7" d="M108.223 25.9634C108.223 25.9634 79.8231 22.6139 57.6591 42.5759C35.4951 62.5378 29.5431 93.9354 24.0271 119.233C18.5111 144.53 30.6351 166.408 52.8591 172.759C75.0831 179.111 84.5791 160.567 111.911 153.829C139.243 147.091 147.583 149.297 166.711 129.246C185.839 109.196 181.215 72.6521 156.711 50.1944C132.207 27.7367 108.223 25.9634 108.223 25.9634Z" fill="white"/>
<path d="M26.4922 148.919C38.2242 145.442 62.9122 138.55 76.5362 138.032C94.8402 137.333 125.788 151.26 145.088 153.694C164.388 156.128 177.368 155.437 177.368 155.437" stroke="#263238" stroke-width="1.20355" stroke-linecap="round" stroke-linejoin="round"/>
<path d="M19.9648 150.908C19.9648 150.908 20.9808 150.588 22.7648 150.043" stroke="#263238" stroke-width="1.20355" stroke-linecap="round" stroke-linejoin="round"/>
<path d="M172.158 129.212C165.413 127.659 158.485 126.974 151.554 127.176C137.238 127.674 121.762 129.66 102.594 132.241C83.4261 134.822 56.1581 120.55 37.6021 125.847C19.0461 131.144 20.4541 132.735 20.4541 132.735" stroke="#263238" stroke-width="1.20355" stroke-linecap="round" stroke-linejoin="round"/>
<path d="M177.434 130.649C177.434 130.649 176.714 130.398 175.406 130.035" stroke="#263238" stroke-width="1.20355" stroke-linecap="round" stroke-linejoin="round"/>
<path d="M114.842 42.1808C114.62 41.304 114.099 40.5247 113.364 39.9675C112.629 39.4103 111.721 39.1074 110.786 39.1074C109.852 39.1074 108.944 39.4103 108.209 39.9675C107.473 40.5247 106.953 41.304 106.73 42.1808H114.842Z" stroke="#263238" stroke-width="1.20355" stroke-linecap="round" stroke-linejoin="round"/>
<path d="M155.824 42.1813C155.578 41.183 155.02 40.2819 154.225 39.6005C153.431 38.919 152.439 38.4901 151.384 38.372C151.519 37.6634 151.587 36.9445 151.588 36.224C151.584 33.296 150.446 30.4752 148.398 28.3164C146.35 26.1577 143.54 24.8172 140.52 24.5585C137.5 24.2999 134.489 25.1419 132.08 26.9189C129.67 28.6958 128.037 31.2792 127.5 34.161C126.206 33.1825 124.623 32.6265 122.981 32.5733C121.338 32.5201 119.721 32.9724 118.362 33.8649C117.003 34.7574 115.973 36.0439 115.42 37.5388C114.868 39.0336 114.821 40.6593 115.288 42.1813H155.824Z" stroke="#263238" stroke-width="1.20355" stroke-linecap="round" stroke-linejoin="round"/>
<path d="M42.6591 51.5883C42.5468 51.1424 42.2827 50.7458 41.9092 50.4622C41.5356 50.1786 41.0742 50.0244 40.5991 50.0244C40.1239 50.0244 39.6625 50.1786 39.289 50.4622C38.9154 50.7458 38.6513 51.1424 38.5391 51.5883H42.6591Z" stroke="#263238" stroke-width="1.20355" stroke-linecap="round" stroke-linejoin="round"/>
<path d="M63.4643 51.5882C63.3384 51.0818 63.0545 50.625 62.651 50.2795C62.2475 49.934 61.7439 49.7166 61.2083 49.6566C61.3761 48.8789 61.3811 48.0767 61.223 47.2972C61.0648 46.5176 60.7468 45.7765 60.2876 45.1175C59.8283 44.4585 59.2372 43.8949 58.549 43.46C57.8608 43.0251 57.0894 42.7275 56.2803 42.585C55.4712 42.4424 54.6407 42.4576 53.8378 42.6298C53.0349 42.802 52.2758 43.1277 51.6052 43.5876C50.9346 44.0475 50.3661 44.6323 49.9332 45.3077C49.5002 45.9831 49.2116 46.7353 49.0843 47.5201C48.4272 47.0236 47.6239 46.7415 46.7901 46.7146C45.9563 46.6877 45.1353 46.9173 44.4454 47.3704C43.7555 47.8235 43.2326 48.4766 42.952 49.2354C42.6714 49.9942 42.6477 50.8194 42.8843 51.5921L63.4643 51.5882Z" stroke="#263238" stroke-width="1.20355" stroke-linecap="round" stroke-linejoin="round"/>
<path d="M61.3656 57.8778C61.2932 57.5978 61.1258 57.3492 60.8903 57.1716C60.6547 56.9939 60.3645 56.8975 60.0656 56.8975C59.7668 56.8975 59.4765 56.9939 59.241 57.1716C59.0054 57.3492 58.8381 57.5978 58.7656 57.8778H61.3656Z" stroke="#263238" stroke-width="1.20355" stroke-linecap="round" stroke-linejoin="round"/>
<path d="M74.4976 57.8781C74.4175 57.5586 74.2382 57.2704 73.9837 57.0522C73.7291 56.8339 73.4115 56.6962 73.0736 56.6573C73.1174 56.4305 73.1388 56.2003 73.1376 55.9696C73.1385 55.0305 72.775 54.1251 72.1188 53.432C71.4627 52.739 70.5614 52.3085 69.5929 52.2256C68.6243 52.1427 67.6588 52.4133 66.8866 52.9841C66.1144 53.5548 65.5917 54.3843 65.4216 55.309C65.0065 54.9972 64.4998 54.8205 63.9742 54.8041C63.4486 54.7878 62.9312 54.9328 62.4963 55.2181C62.0613 55.5035 61.7311 55.9146 61.5531 56.3925C61.3751 56.8704 61.3585 57.3905 61.5056 57.8781H74.4976Z" stroke="#263238" stroke-width="1.20355" stroke-linecap="round" stroke-linejoin="round"/>
<path d="M137.333 163.276H136.933C130.601 157.647 113.077 153.617 92.4493 153.617C66.4893 153.617 45.4453 160.026 45.4453 167.912C45.4453 175.797 66.4893 182.206 92.4493 182.206C109.721 182.206 124.817 179.37 132.989 175.144C134.393 175.21 135.841 175.244 137.321 175.244C150.497 175.244 161.181 172.54 161.181 169.248C161.181 165.957 150.509 163.276 137.333 163.276Z" fill="#EBEBEB"/>
<path opacity="0.5" d="M137.333 163.276H136.933C130.601 157.647 113.077 153.617 92.4493 153.617C66.4893 153.617 45.4453 160.026 45.4453 167.912C45.4453 175.797 66.4893 182.206 92.4493 182.206C109.721 182.206 124.817 179.37 132.989 175.144C134.393 175.21 135.841 175.244 137.321 175.244C150.497 175.244 161.181 172.54 161.181 169.248C161.181 165.957 150.509 163.276 137.333 163.276Z" fill="white"/>
<path d="M122.803 105.564C122.803 105.564 124.143 116.949 130.303 119.797C136.463 122.644 139.951 118.251 139.951 114.233C139.951 110.216 146.915 106.472 152.007 106.472C157.099 106.472 158.571 113.071 156.407 118.502C154.243 123.934 151.603 130.405 141.567 133.512C131.531 136.618 125.627 132.476 125.627 132.476C125.627 132.476 127.103 135.324 125.627 135.71C124.151 136.096 120.003 131.7 120.003 131.7C120.003 131.7 121.879 135.582 119.735 134.288C117.591 132.994 115.315 125.36 115.315 125.36C115.315 125.36 115.447 128.064 113.715 128.335C111.983 128.605 111.035 122.771 111.035 122.771L122.155 102.979L122.803 105.564Z" fill="white"/>
<path d="M146.751 125.009C145.902 125.009 145.088 125.334 144.488 125.914C143.888 126.494 143.551 127.28 143.551 128.099C143.551 128.919 143.888 129.705 144.488 130.285C145.088 130.865 145.902 131.19 146.751 131.19H146.903C147.924 130.591 148.885 129.901 149.775 129.131C149.895 128.798 149.958 128.448 149.959 128.096C149.958 127.689 149.875 127.287 149.713 126.912C149.552 126.537 149.315 126.197 149.017 125.91C148.719 125.623 148.366 125.396 147.977 125.241C147.588 125.087 147.171 125.008 146.751 125.009Z" fill="#EBEBEB"/>
<path d="M139.711 116.104C138.815 119.438 135.519 122.2 130.315 119.797C130.088 119.691 129.868 119.574 129.655 119.445C129.358 120.528 129.371 121.668 129.693 122.744C130.015 123.82 130.634 124.791 131.483 125.554C132.332 126.317 133.38 126.842 134.514 127.074C135.649 127.307 136.827 127.237 137.924 126.872C139.02 126.508 139.994 125.863 140.74 125.006C141.486 124.148 141.977 123.111 142.161 122.006C142.344 120.9 142.213 119.766 141.782 118.727C141.35 117.687 140.634 116.781 139.711 116.104Z" fill="#EBEBEB"/>
<path d="M127.636 133.311C127.646 132.742 127.539 132.176 127.322 131.647C127.105 131.118 126.783 130.635 126.373 130.226C125.962 129.817 125.473 129.49 124.932 129.263C124.391 129.037 123.81 128.916 123.22 128.907C122.631 128.898 122.045 129.001 121.497 129.21C120.949 129.42 120.449 129.731 120.026 130.127C119.602 130.523 119.264 130.996 119.029 131.518C118.795 132.041 118.67 132.603 118.66 133.172C118.94 133.609 119.305 133.988 119.736 134.288C121.88 135.583 120.004 131.7 120.004 131.7C120.004 131.7 124.156 136.1 125.628 135.71C127.1 135.32 125.628 132.477 125.628 132.477C126.256 132.878 126.926 133.212 127.628 133.473C127.628 133.419 127.636 133.365 127.636 133.311Z" fill="#EBEBEB"/>
<path opacity="0.2" d="M155.763 112.375C153.311 115.389 149.299 128.084 139.051 130.885C128.803 133.685 119.451 127.226 119.451 127.226C119.451 127.226 121.011 125.719 124.131 120.554C124.999 119.115 125.741 117.608 126.347 116.049C123.547 111.664 122.823 105.564 122.823 105.564L122.155 102.979L111.035 122.771C111.035 122.771 111.975 128.594 113.715 128.335C115.455 128.076 115.315 125.36 115.315 125.36C115.315 125.36 117.591 132.994 119.735 134.288C121.879 135.582 120.003 131.7 120.003 131.7C120.003 131.7 124.155 136.1 125.627 135.71C127.099 135.32 125.627 132.476 125.627 132.476C125.627 132.476 131.523 136.618 141.567 133.512C151.611 130.405 154.295 123.938 156.439 118.502C157.258 116.447 157.549 114.231 157.287 112.043C156.619 111.892 156.087 111.973 155.763 112.375Z" fill="black"/>
<path d="M122.803 105.564C122.803 105.564 124.143 116.949 130.303 119.797C136.463 122.644 139.951 118.251 139.951 114.233C139.951 110.216 146.915 106.472 152.007 106.472C157.099 106.472 158.571 113.071 156.407 118.502C154.243 123.934 151.603 130.405 141.567 133.512C131.531 136.618 125.627 132.476 125.627 132.476C125.627 132.476 127.103 135.324 125.627 135.71C124.151 136.096 120.003 131.7 120.003 131.7C120.003 131.7 121.879 135.582 119.735 134.288C117.591 132.994 115.315 125.36 115.315 125.36C115.315 125.36 115.447 128.064 113.715 128.335C111.983 128.605 111.035 122.771 111.035 122.771L122.155 102.979L122.803 105.564Z" stroke="#263238" stroke-width="1.20355" stroke-linecap="round" stroke-linejoin="round"/>
<path d="M153.291 122.512C152.867 122.512 152.46 122.35 152.16 122.06C151.86 121.77 151.691 121.377 151.691 120.967V96.6279H154.891V120.967C154.891 121.377 154.723 121.77 154.423 122.06C154.123 122.35 153.716 122.512 153.291 122.512Z" fill="white" stroke="#263238" stroke-width="1.20355" stroke-linecap="round" stroke-linejoin="round"/>
<path d="M175.702 53.7705H131.465V98.3014H175.702V53.7705Z" fill="#263238" stroke="#263238" stroke-width="1.20355" stroke-linecap="round" stroke-linejoin="round"/>
<path d="M145.942 65.764V65.564H145.742H143.542V62.4444H146.186H146.386V62.2444V62.0088V61.8088H146.186H143.086H142.886V62.0088V69.8553V70.0553H143.086H146.186H146.386V69.8553V69.6196V69.4196H146.186H143.542V66.188H145.742H145.942V65.988V65.764Z" fill="#EA1F4D" stroke="#EA1F4D" stroke-width="0.4"/>
<path d="M148.354 65.7996H147.554V62.4444H148.702C149.177 62.4444 149.47 62.5805 149.649 62.7906C149.834 63.0069 149.93 63.3378 149.93 63.7898V64.5084C149.93 65.0802 149.777 65.3782 149.545 65.5473C149.297 65.7282 148.91 65.7996 148.354 65.7996ZM149.755 66.1177C149.945 66.0186 150.105 65.8887 150.233 65.7238C150.481 65.4042 150.586 64.9817 150.586 64.4736V63.7705C150.586 63.2068 150.463 62.7103 150.15 62.3536C149.833 61.9918 149.352 61.8088 148.714 61.8088H147.098H146.898V62.0088V69.8553V70.0553H147.098H147.354H147.554V69.8553V66.4353H148.354C148.872 66.4353 149.263 66.5101 149.523 66.6926C149.767 66.8639 149.93 67.1568 149.93 67.6918V68.9168C149.904 69.2742 149.98 69.6313 150.149 69.9492L150.206 70.0553H150.326H150.606H150.957L150.778 69.753C150.63 69.5058 150.564 69.2225 150.585 68.9393L150.586 68.9317V68.9242V67.6918C150.586 67.2333 150.484 66.8261 150.238 66.512C150.11 66.3482 149.949 66.2167 149.755 66.1177Z" fill="#EA1F4D" stroke="#EA1F4D" stroke-width="0.4"/>
<path d="M152.764 65.7996H151.964V62.4444H153.112C153.587 62.4444 153.88 62.5805 154.059 62.7906C154.244 63.0069 154.34 63.3378 154.34 63.7898V64.5084C154.34 65.0802 154.188 65.3782 153.956 65.5473C153.707 65.7282 153.32 65.7996 152.764 65.7996ZM154.162 66.1172C154.351 66.0183 154.511 65.8884 154.639 65.7238C154.887 65.4042 154.992 64.9817 154.992 64.4736V63.7705C154.992 63.2067 154.869 62.7103 154.556 62.3536C154.239 61.9918 153.758 61.8088 153.12 61.8088H151.508H151.308V62.0088V69.8553V70.0553H151.508H151.764H151.964V69.8553V66.4353H152.764C153.282 66.4353 153.673 66.5101 153.933 66.6926C154.177 66.8639 154.34 67.1568 154.34 67.6918V68.9168C154.314 69.2742 154.39 69.6313 154.559 69.9492L154.616 70.0553H154.736H155.016H155.369L155.187 69.7523C155.039 69.5054 154.971 69.2221 154.991 68.9385L154.992 68.9314V68.9242V67.6918C154.992 67.2337 154.891 66.8264 154.646 66.5122C154.518 66.3481 154.356 66.2163 154.162 66.1172Z" fill="#EA1F4D" stroke="#EA1F4D" stroke-width="0.4"/>
<path d="M157.63 61.7512C157.025 61.7512 156.533 61.9363 156.196 62.3249C155.864 62.7084 155.71 63.2594 155.71 63.9369V67.9278C155.71 68.6038 155.858 69.1551 156.188 69.5392C156.523 69.9289 157.015 70.1136 157.63 70.1136C158.245 70.1136 158.742 69.9291 159.081 69.5405C159.417 69.1567 159.57 68.6053 159.57 67.9278V63.9369C159.57 63.2579 159.411 62.7068 159.073 62.3236C158.732 61.9361 158.236 61.7512 157.63 61.7512ZM157.63 69.4895C157.191 69.4895 156.888 69.3565 156.69 69.1205C156.487 68.8781 156.366 68.4945 156.366 67.9394V63.9253C156.366 63.3716 156.485 62.9891 156.687 62.7474C156.884 62.5123 157.186 62.3791 157.63 62.3791C158.075 62.3791 158.383 62.5118 158.585 62.7476C158.791 62.9891 158.914 63.3712 158.914 63.9253V67.9394C158.914 68.4908 158.79 68.8743 158.582 69.1177C158.378 69.3556 158.069 69.4895 157.63 69.4895Z" fill="#EA1F4D" stroke="#EA1F4D" stroke-width="0.4"/>
<path d="M161.541 65.7996H160.741V62.4444H161.889C162.364 62.4444 162.657 62.5805 162.837 62.7906C163.021 63.0069 163.117 63.3378 163.117 63.7898V64.5084C163.117 65.0802 162.965 65.3782 162.733 65.5473C162.485 65.7282 162.098 65.7996 161.541 65.7996ZM162.939 66.1172C163.129 66.0183 163.288 65.8884 163.416 65.7238C163.664 65.4042 163.769 64.9817 163.769 64.4736V63.7705C163.769 63.2067 163.646 62.7103 163.334 62.3536C163.016 61.9918 162.535 61.8088 161.897 61.8088H160.285H160.085V62.0088V69.8553V70.0553H160.285H160.541H160.741V69.8553V66.4353H161.541C162.059 66.4353 162.451 66.5101 162.71 66.6926C162.954 66.8639 163.117 67.1568 163.117 67.6918V68.9168C163.091 69.2742 163.167 69.6313 163.337 69.9492L163.393 70.0553H163.513H163.793H164.147L163.965 69.7523C163.816 69.5054 163.748 69.2221 163.769 68.9385L163.769 68.9314V68.9242V67.6918C163.769 67.2337 163.668 66.8264 163.423 66.5122C163.295 66.3481 163.134 66.2163 162.939 66.1172Z" fill="#EA1F4D" stroke="#EA1F4D" stroke-width="0.4"/>
<path d="M152.474 113.994C152.474 113.994 158.142 110.996 160.498 112.958C162.854 114.921 161.886 118.023 160.07 118.753C158.254 119.483 154.294 120.407 152.154 119.684C150.014 118.962 148.194 115.956 152.474 113.994Z" fill="white" stroke="#263238" stroke-width="1.20355" stroke-linecap="round" stroke-linejoin="round"/>
<path d="M150.002 106.082C150.002 106.082 157.102 102.331 160.05 104.792C162.998 107.253 161.79 111.128 159.514 112.036C157.238 112.943 152.282 114.106 149.602 113.195C146.922 112.283 144.65 108.543 150.002 106.082Z" fill="white" stroke="#263238" stroke-width="1.20355" stroke-linecap="round" stroke-linejoin="round"/>
<path d="M136.945 87.4525L142.629 74.4678H146.041V87.4525H147.521V90.1955H146.041V93.6725H142.973V90.1955H136.945V87.4525ZM142.973 87.4525V80.2358L139.817 87.4564L142.973 87.4525Z" fill="#EA1F4D"/>
<path d="M148.684 79.0772C148.684 75.9865 150.36 74.2441 153.428 74.2441C156.496 74.2441 158.176 76.002 158.176 79.0772V89.0678C158.176 92.1585 156.5 93.9009 153.428 93.9009C150.356 93.9009 148.684 92.1431 148.684 89.0678V79.0772ZM151.808 89.261C151.808 90.6325 152.436 91.1541 153.428 91.1541C154.42 91.1541 155.048 90.6325 155.048 89.261V78.8879C155.048 77.5164 154.424 76.9949 153.428 76.9949C152.432 76.9949 151.808 77.5164 151.808 78.8879V89.261Z" fill="#EA1F4D"/>
<path d="M140.361 116.552C140.361 116.552 138.889 109.308 141.433 105.035C143.977 100.763 150.273 103.49 152.285 108.014C154.297 112.538 153.085 117.325 149.201 117.325C145.317 117.325 144.649 111.371 144.649 111.371" fill="white"/>
<path d="M140.361 116.552C140.361 116.552 138.889 109.308 141.433 105.035C143.977 100.763 150.273 103.49 152.285 108.014C154.297 112.538 153.085 117.325 149.201 117.325C145.317 117.325 144.649 111.371 144.649 111.371" stroke="#263238" stroke-width="1.20355" stroke-linecap="round" stroke-linejoin="round"/>
<path d="M151.15 115.647C151.15 115.647 151.55 118.116 150.47 119.87C150.378 120.023 150.232 120.139 150.058 120.196C149.885 120.253 149.696 120.249 149.526 120.183V120.183C149.401 120.136 149.29 120.056 149.207 119.954C149.124 119.851 149.071 119.729 149.054 119.6C148.954 118.827 148.678 117.243 148.034 116.204C147.871 115.942 147.785 115.642 147.785 115.336C147.785 115.031 147.871 114.731 148.034 114.469C148.144 114.293 148.292 114.143 148.469 114.029C148.647 113.916 148.848 113.842 149.058 113.812C150.506 113.577 151.026 114.141 151.15 115.647Z" fill="white" stroke="#263238" stroke-width="1.20355" stroke-linecap="round" stroke-linejoin="round"/>
<path d="M81.3563 127.141V154.474C81.3563 154.474 73.0683 160.215 69.3163 161.722C65.5643 163.228 59.6203 159.608 56.0243 162.494C52.4283 165.38 53.6803 169.866 58.0563 170.329C58.0563 170.329 58.0563 172.748 60.2483 173.806C60.9301 174.113 61.6685 174.284 62.4201 174.311C63.1717 174.338 63.9211 174.218 64.6243 173.961C64.6243 173.961 64.9363 177.585 69.4723 177.283C74.0083 176.982 75.1003 173.505 77.6003 170.032C80.1003 166.558 81.6683 163.387 85.4203 162.935C89.1723 162.483 91.5163 161.725 91.5163 157.348C91.5163 154.644 88.7163 154.478 88.3923 151.762C88.0683 149.046 88.3923 128.195 88.3923 128.195L81.3563 127.141Z" fill="white"/>
<path d="M84.5208 157.724C85.654 157.724 86.5727 156.836 86.5727 155.742C86.5727 154.647 85.654 153.76 84.5208 153.76C83.3875 153.76 82.4688 154.647 82.4688 155.742C82.4688 156.836 83.3875 157.724 84.5208 157.724Z" fill="#EBEBEB"/>
<path d="M84.2635 133.55C84.2635 133.339 84.2203 133.129 84.1365 132.934C84.0527 132.739 83.9298 132.561 83.7749 132.411C83.62 132.262 83.4362 132.143 83.2338 132.062C83.0314 131.981 82.8145 131.939 82.5955 131.939C82.3605 131.94 82.1283 131.988 81.9145 132.082C81.7006 132.176 81.51 132.313 81.3555 132.484V134.617C81.51 134.788 81.7006 134.925 81.9145 135.019C82.1283 135.113 82.3605 135.161 82.5955 135.162C83.0379 135.162 83.4621 134.992 83.7749 134.69C84.0877 134.388 84.2635 133.978 84.2635 133.55V133.55Z" fill="#EBEBEB"/>
<path d="M87.0839 141.119C86.4208 141.144 85.7937 141.417 85.3339 141.879C84.874 142.341 84.6172 142.957 84.6172 143.597C84.6172 144.238 84.874 144.854 85.3339 145.316C85.7937 145.778 86.4208 146.051 87.0839 146.076C87.4915 146.074 87.8924 145.976 88.2519 145.79C88.2519 144.426 88.2519 142.927 88.2519 141.405C87.892 141.22 87.4913 141.122 87.0839 141.119Z" fill="#EBEBEB"/>
<path opacity="0.2" d="M91.5162 157.345C91.5162 154.641 88.7162 154.475 88.3922 151.759C88.0682 149.043 88.3922 128.192 88.3922 128.192L81.3562 127.134V135.907C82.8362 136.808 84.7603 137.65 86.6843 137.546V153.254C86.6843 153.254 88.0242 156.696 87.1322 159.493C86.2402 162.29 79.3322 162.29 77.1042 164.875C74.8762 167.46 73.3162 172.837 71.1042 175.206C70.3682 175.979 69.5474 176.674 68.6562 177.276C68.9334 177.292 69.2111 177.292 69.4883 177.276C74.0203 176.971 75.1162 173.498 77.6162 170.025C80.1162 166.552 81.6842 163.38 85.4362 162.928C89.1882 162.476 91.5162 161.722 91.5162 157.345Z" fill="black"/>
<path d="M81.3563 127.141V154.474C81.3563 154.474 73.0683 160.215 69.3163 161.722C65.5643 163.228 59.6203 159.608 56.0243 162.494C52.4283 165.38 53.6803 169.866 58.0563 170.329C58.0563 170.329 58.0563 172.748 60.2483 173.806C60.9301 174.113 61.6685 174.284 62.4201 174.311C63.1717 174.338 63.9211 174.218 64.6243 173.961C64.6243 173.961 64.9363 177.585 69.4723 177.283C74.0083 176.982 75.1003 173.505 77.6003 170.032C80.1003 166.558 81.6683 163.387 85.4203 162.935C89.1723 162.483 91.5163 161.725 91.5163 157.348C91.5163 154.644 88.7163 154.478 88.3923 151.762C88.0683 149.046 88.3923 128.195 88.3923 128.195L81.3563 127.141Z" stroke="#263238" stroke-width="1.20355" stroke-linecap="round" stroke-linejoin="round"/>
<path d="M64.6253 173.957C64.6253 173.957 64.4693 168.668 71.2013 166.389" stroke="#263238" stroke-width="1.20355" stroke-linecap="round" stroke-linejoin="round"/>
<path d="M58.0586 170.329C58.0586 170.329 58.0586 166.103 65.4106 164.441" stroke="#263238" stroke-width="1.20355" stroke-linecap="round" stroke-linejoin="round"/>
<path d="M65.3279 173.096C65.3279 173.096 63.1559 174.452 62.5279 176.388C62.4722 176.558 62.4819 176.742 62.5554 176.906C62.6289 177.07 62.7612 177.203 62.9279 177.28C63.0482 177.339 63.1826 177.365 63.3171 177.357C63.4516 177.348 63.5811 177.304 63.6919 177.23C64.3439 176.805 65.7679 175.94 66.9999 175.719C67.3127 175.662 67.6037 175.524 67.8418 175.32C68.0799 175.116 68.2562 174.854 68.3519 174.56C68.4125 174.367 68.4285 174.163 68.3988 173.962C68.3691 173.762 68.2944 173.571 68.1799 173.401C67.3639 172.184 66.5799 172.184 65.3279 173.096Z" fill="white" stroke="#263238" stroke-width="1.20355" stroke-linecap="round" stroke-linejoin="round"/>
<path d="M58.8605 170.515C58.8605 170.515 56.6885 171.875 56.0405 173.807C55.9839 173.977 55.9932 174.161 56.0668 174.326C56.1404 174.49 56.2732 174.622 56.4405 174.699V174.699C56.5607 174.757 56.6948 174.784 56.829 174.776C56.9632 174.767 57.0928 174.725 57.2045 174.653C57.8565 174.224 59.2805 173.362 60.5125 173.138C60.8255 173.082 61.1167 172.944 61.3548 172.74C61.593 172.536 61.7691 172.273 61.8645 171.979C61.9251 171.786 61.9411 171.582 61.9114 171.381C61.8816 171.181 61.807 170.99 61.6925 170.82C60.8925 169.611 60.1125 169.611 58.8605 170.515Z" fill="white" stroke="#263238" stroke-width="1.20355" stroke-linecap="round" stroke-linejoin="round"/>
<path d="M53.6996 166.219C53.6996 166.219 51.5276 167.575 50.8756 169.51C50.8198 169.68 50.8296 169.865 50.9031 170.029C50.9765 170.192 51.1088 170.325 51.2756 170.403C51.3961 170.46 51.5304 170.486 51.6646 170.477C51.7988 170.468 51.9282 170.425 52.0396 170.352C52.6916 169.924 54.1196 169.062 55.3476 168.838C55.6609 168.782 55.9525 168.645 56.1908 168.44C56.429 168.236 56.605 167.973 56.6996 167.679C56.761 167.485 56.7774 167.281 56.7477 167.081C56.7179 166.881 56.6428 166.689 56.5276 166.52C55.7316 165.311 54.9476 165.311 53.6996 166.219Z" fill="white" stroke="#263238" stroke-width="1.20355" stroke-linecap="round" stroke-linejoin="round"/>
<path d="M106 127.141V154.474C106 154.474 114.288 160.215 118.04 161.722C121.792 163.228 127.732 159.608 131.328 162.494C134.924 165.38 133.676 169.893 129.296 170.345C129.296 170.345 129.296 172.763 127.108 173.822C126.425 174.128 125.686 174.3 124.934 174.326C124.182 174.353 123.432 174.234 122.728 173.976C122.728 173.976 122.416 177.6 117.884 177.299C113.352 176.997 112.252 173.52 109.752 170.047C107.252 166.574 105.688 163.402 101.936 162.95C98.1839 162.498 95.8359 161.741 95.8359 157.364C95.8359 154.659 98.6359 154.493 98.9639 151.777C99.2919 149.061 98.9639 128.211 98.9639 128.211L106 127.141Z" fill="white"/>
<path d="M102.74 154.254C103.873 154.254 104.792 153.367 104.792 152.272C104.792 151.177 103.873 150.29 102.74 150.29C101.606 150.29 100.688 151.177 100.688 152.272C100.688 153.367 101.606 154.254 102.74 154.254Z" fill="#EBEBEB"/>
<path d="M99.0944 138.831C99.4062 139.019 99.7646 139.123 100.132 139.131C100.5 139.14 100.863 139.053 101.183 138.879C101.504 138.706 101.771 138.452 101.955 138.145C102.14 137.838 102.236 137.489 102.233 137.134C102.23 136.779 102.128 136.431 101.938 136.127C101.749 135.823 101.478 135.574 101.154 135.405C100.831 135.237 100.466 135.155 100.099 135.17C99.7317 135.184 99.3751 135.293 99.0664 135.486C99.0744 136.556 99.0864 137.684 99.0944 138.831Z" fill="#EBEBEB"/>
<path d="M106 141.478C105.354 141.652 104.785 142.027 104.379 142.543C103.973 143.06 103.754 143.69 103.754 144.338C103.754 144.987 103.973 145.617 104.379 146.134C104.785 146.65 105.354 147.024 106 147.199V141.478Z" fill="#EBEBEB"/>
<path opacity="0.2" d="M98.9766 128.199C98.9766 128.199 99.0366 132.159 99.0766 136.849C101.109 137.064 103.162 137.012 105.181 136.695C105.181 136.695 104.065 152.832 104.289 154.984C104.513 157.136 114.537 162.734 117.437 163.379C120.337 164.024 125.409 163.68 128.129 165.098C129.793 165.967 130.589 168.258 130.953 169.916C133.941 168.641 134.437 164.947 131.353 162.479C127.753 159.608 121.817 163.232 118.065 161.706C114.313 160.18 106.001 154.474 106.001 154.474V127.141L98.9766 128.199Z" fill="black"/>
<path d="M106 127.141V154.474C106 154.474 114.288 160.215 118.04 161.722C121.792 163.228 127.732 159.608 131.328 162.494C134.924 165.38 133.676 169.893 129.296 170.345C129.296 170.345 129.296 172.763 127.108 173.822C126.425 174.128 125.686 174.3 124.934 174.326C124.182 174.353 123.432 174.234 122.728 173.976C122.728 173.976 122.416 177.6 117.884 177.299C113.352 176.997 112.252 173.52 109.752 170.047C107.252 166.574 105.688 163.402 101.936 162.95C98.1839 162.498 95.8359 161.741 95.8359 157.364C95.8359 154.659 98.6359 154.493 98.9639 151.777C99.2919 149.061 98.9639 128.211 98.9639 128.211L106 127.141Z" stroke="#263238" stroke-width="1.20355" stroke-linecap="round" stroke-linejoin="round"/>
<path d="M122.74 173.957C122.74 173.957 122.896 168.668 116.176 166.404" stroke="#263238" stroke-width="1.20355" stroke-linecap="round" stroke-linejoin="round"/>
<path d="M129.309 170.329C129.309 170.329 129.309 166.103 121.961 164.441" stroke="#263238" stroke-width="1.20355" stroke-linecap="round" stroke-linejoin="round"/>
<path d="M122.039 173.096C122.039 173.096 124.211 174.452 124.859 176.388C124.915 176.556 124.908 176.738 124.838 176.901C124.769 177.065 124.641 177.199 124.479 177.28C124.359 177.339 124.224 177.365 124.09 177.357C123.955 177.348 123.826 177.304 123.715 177.23C123.063 176.805 121.635 175.94 120.407 175.719C120.094 175.663 119.802 175.526 119.564 175.322C119.325 175.117 119.149 174.854 119.055 174.56C118.994 174.367 118.977 174.163 119.006 173.963C119.035 173.763 119.109 173.571 119.223 173.401C120.003 172.184 120.803 172.184 122.039 173.096Z" fill="white" stroke="#263238" stroke-width="1.20355" stroke-linecap="round" stroke-linejoin="round"/>
<path d="M128.507 170.515C128.507 170.515 130.679 171.875 131.327 173.807C131.386 173.975 131.379 174.157 131.309 174.321C131.24 174.485 131.111 174.619 130.947 174.699V174.699C130.827 174.758 130.693 174.784 130.559 174.776C130.425 174.768 130.295 174.725 130.183 174.653C129.531 174.224 128.103 173.362 126.875 173.138C126.562 173.083 126.27 172.946 126.032 172.741C125.793 172.537 125.618 172.273 125.523 171.979C125.462 171.786 125.446 171.582 125.475 171.381C125.505 171.181 125.58 170.989 125.695 170.82C126.475 169.611 127.255 169.611 128.507 170.515Z" fill="white" stroke="#263238" stroke-width="1.20355" stroke-linecap="round" stroke-linejoin="round"/>
<path d="M133.67 166.219C133.67 166.219 135.842 167.575 136.49 169.51C136.545 169.681 136.534 169.864 136.461 170.028C136.388 170.192 136.256 170.325 136.09 170.403V170.403C135.969 170.461 135.834 170.487 135.699 170.478C135.564 170.469 135.434 170.426 135.322 170.352C134.67 169.924 133.246 169.062 132.014 168.838C131.701 168.783 131.409 168.645 131.172 168.441C130.934 168.237 130.759 167.973 130.666 167.679C130.603 167.486 130.586 167.282 130.615 167.081C130.644 166.881 130.719 166.689 130.834 166.52C131.638 165.311 132.402 165.311 133.67 166.219Z" fill="white" stroke="#263238" stroke-width="1.20355" stroke-linecap="round" stroke-linejoin="round"/>
<path d="M53.8887 141.729C53.8887 141.729 53.8047 138.395 54.7327 137.34C55.6607 136.286 56.7327 141.161 56.6647 141.81C56.5967 142.459 55.4047 143.595 53.8887 141.729Z" fill="white" stroke="#263238" stroke-width="1.20355" stroke-linecap="round" stroke-linejoin="round"/>
<path d="M59.9512 140.589C59.9512 140.589 59.8672 137.259 60.7912 136.205C61.7152 135.15 62.8112 140.022 62.7272 140.671C62.6432 141.32 61.4632 142.459 59.9512 140.589Z" fill="white" stroke="#263238" stroke-width="1.20355" stroke-linecap="round" stroke-linejoin="round"/>
<path d="M53.3796 145.086C53.3796 145.086 52.2836 140.249 54.9476 139.944C57.6116 139.639 59.8036 148.718 59.8036 148.718C59.8036 148.718 57.9236 139.036 61.2116 138.735C64.4996 138.434 64.8116 147.509 64.8116 148.266C64.8116 149.023 62.0116 152.349 57.7636 153.257C53.5156 154.165 53.3796 145.086 53.3796 145.086Z" fill="white" stroke="#263238" stroke-width="1.20355" stroke-linecap="round" stroke-linejoin="round"/>
<path d="M49.9356 144.004C49.9356 144.004 49.8516 140.67 50.7756 139.616C51.6996 138.561 52.7956 143.436 52.7116 144.085C52.6276 144.735 51.4476 145.874 49.9356 144.004Z" fill="white" stroke="#263238" stroke-width="1.20355" stroke-linecap="round" stroke-linejoin="round"/>
<path d="M66.0706 100.167C66.0706 100.167 62.1546 103.343 59.9626 109.996C57.7706 116.649 56.9866 119.677 59.1626 119.225C61.3386 118.773 62.1386 116.2 62.1386 116.2C62.1386 116.2 59.4746 123.761 60.8866 124.368C62.2986 124.974 64.1746 123.595 64.1746 123.595C64.1746 123.595 63.5626 130.267 64.8026 132.233C66.0426 134.2 66.5226 134.2 66.5226 134.2V146.3C66.5226 146.3 62.7666 145.392 59.6346 146.902C56.5026 148.413 56.1866 150.685 56.1866 150.685C56.1866 150.685 54.7786 143.425 51.6466 142.367C48.5146 141.308 48.5146 147.961 50.2346 151.743C51.9546 155.526 57.2826 157.191 57.7546 157.191C58.2266 157.191 56.8146 158.4 56.8146 158.4L61.0426 157.341C61.0426 157.341 59.0066 159.609 60.4146 159.609C61.8226 159.609 66.4026 157.341 66.4026 157.341C66.4026 157.341 64.8386 159.157 66.7146 159.157C68.5906 159.157 71.2586 156.453 71.2586 156.453C71.2586 156.453 71.2586 157.813 72.9786 156.151C74.6986 154.49 78.4626 154.788 79.2426 144.948C80.0226 135.108 79.2426 122.714 79.2426 122.714C79.2426 122.714 75.4666 93.6615 66.0706 100.167Z" fill="white"/>
<path d="M76.6734 124.586C77.7037 122.202 76.5374 119.462 74.0684 118.467C71.5995 117.472 68.7629 118.598 67.7326 120.983C66.7024 123.368 67.8687 126.107 70.3376 127.102C72.8065 128.098 75.6432 126.971 76.6734 124.586Z" fill="#EBEBEB"/>
<path d="M64.4719 153.509C63.2793 153.513 62.1302 153.941 61.2445 154.713C60.3589 155.484 59.7989 156.544 59.6719 157.689L61.0719 157.341C61.0719 157.341 59.0359 159.609 60.4439 159.609C61.8519 159.609 66.3999 157.341 66.3999 157.341C66.3999 157.341 64.8359 159.157 66.7119 159.157C67.5319 159.157 68.4959 158.639 69.3279 158.056C69.2934 156.836 68.7661 155.677 67.8587 154.827C66.9513 153.978 65.7357 153.504 64.4719 153.509Z" fill="#EBEBEB"/>
<path d="M78.7639 144.015C80.0383 141.017 78.555 137.588 75.4507 136.358C72.3464 135.127 68.7968 136.559 67.5224 139.558C66.248 142.556 67.7313 145.984 70.8356 147.215C73.9399 148.446 77.4895 147.013 78.7639 144.015Z" fill="#EBEBEB"/>
<path d="M59.1774 119.226C61.0774 118.839 61.9174 116.85 62.1094 116.328C61.5582 117.922 61.1014 119.544 60.7414 121.188C61.8063 120.781 62.6996 120.041 63.2791 119.087C63.8585 118.133 64.0908 117.019 63.939 115.923C63.7872 114.826 63.2601 113.81 62.4414 113.037C61.6228 112.263 60.5597 111.776 59.4214 111.653C57.6574 117.147 57.1774 119.643 59.1774 119.226Z" fill="#EBEBEB"/>
<path opacity="0.2" d="M66.0689 100.167C66.0689 100.167 64.0209 101.836 62.0689 105.275C62.089 109.556 62.9622 113.794 64.6409 117.757C69.0969 127.872 75.1129 130.669 75.1129 130.669C75.1129 130.669 76.4489 142.718 73.9969 149.174C71.6889 155.259 65.0289 157.901 56.7969 156.928C57.1101 157.049 57.436 157.137 57.7689 157.191C58.2369 157.191 56.8289 158.4 56.8289 158.4L61.0569 157.341C61.0569 157.341 59.0209 159.609 60.4289 159.609C61.8369 159.609 66.4009 157.341 66.4009 157.341C66.4009 157.341 64.8369 159.157 66.7129 159.157C68.5889 159.157 71.2569 156.453 71.2569 156.453C71.2569 156.453 71.2569 157.813 72.9769 156.151C74.6969 154.49 78.4609 154.788 79.2409 144.948C80.0209 135.108 79.2409 122.714 79.2409 122.714C79.2409 122.714 75.4649 93.6615 66.0689 100.167Z" fill="black"/>
<path d="M66.0706 100.167C66.0706 100.167 62.1546 103.343 59.9626 109.996C57.7706 116.649 56.9866 119.677 59.1626 119.225C61.3386 118.773 62.1386 116.2 62.1386 116.2C62.1386 116.2 59.4746 123.761 60.8866 124.368C62.2986 124.974 64.1746 123.595 64.1746 123.595C64.1746 123.595 63.5626 130.267 64.8026 132.233C66.0426 134.2 66.5226 134.2 66.5226 134.2V146.3C66.5226 146.3 62.7666 145.392 59.6346 146.902C56.5026 148.413 56.1866 150.685 56.1866 150.685C56.1866 150.685 54.7786 143.425 51.6466 142.367C48.5146 141.308 48.5146 147.961 50.2346 151.743C51.9546 155.526 57.2826 157.191 57.7546 157.191C58.2266 157.191 56.8146 158.4 56.8146 158.4L61.0426 157.341C61.0426 157.341 59.0066 159.609 60.4146 159.609C61.8226 159.609 66.4026 157.341 66.4026 157.341C66.4026 157.341 64.8386 159.157 66.7146 159.157C68.5906 159.157 71.2586 156.453 71.2586 156.453C71.2586 156.453 71.2586 157.813 72.9786 156.151C74.6986 154.49 78.4626 154.788 79.2426 144.948C80.0226 135.108 79.2426 122.714 79.2426 122.714C79.2426 122.714 75.4666 93.6615 66.0706 100.167Z" stroke="#263238" stroke-width="1.20355" stroke-linecap="round" stroke-linejoin="round"/>
<path d="M68.6335 85.1735C68.6335 85.1735 64.1535 91.8262 56.0575 93.8236C47.9615 95.8209 40.8975 95.1564 41.0695 95.6548C41.2415 96.1532 43.9975 97.8183 43.9975 97.8183C43.9975 97.8183 41.4135 97.6483 41.7615 98.4828C42.1095 99.3172 44.5175 103.142 52.6135 105.135C60.7095 107.129 65.7055 96.8177 67.2535 92.3246C68.8015 87.8315 70.0015 84.5051 68.6335 85.1735Z" fill="white"/>
<path d="M44.5273 95.346C44.6276 96.4833 44.977 97.587 45.5525 98.5839C46.128 99.5808 46.9164 100.448 47.8654 101.128C48.8144 101.809 49.9023 102.286 51.0569 102.529C52.2115 102.773 53.4065 102.776 54.5626 102.539C55.7187 102.302 56.8094 101.831 57.7624 101.156C58.7155 100.481 59.509 99.6182 60.0905 98.6245C60.6719 97.6308 61.028 96.5291 61.135 95.3924C61.2421 94.2557 61.0977 93.1099 60.7113 92.0312C59.2448 92.8151 57.6818 93.4173 56.0593 93.8238C52.2796 94.7121 48.4152 95.2222 44.5273 95.346V95.346Z" fill="#EBEBEB"/>
<path d="M68.6335 85.1735C68.6335 85.1735 64.1535 91.8262 56.0575 93.8236C47.9615 95.8209 40.8975 95.1564 41.0695 95.6548C41.2415 96.1532 43.9975 97.8183 43.9975 97.8183C43.9975 97.8183 41.4135 97.6483 41.7615 98.4828C42.1095 99.3172 44.5175 103.142 52.6135 105.135C60.7095 107.129 65.7055 96.8177 67.2535 92.3246C68.8015 87.8315 70.0015 84.5051 68.6335 85.1735Z" stroke="#263238" stroke-width="1.20355" stroke-linecap="round" stroke-linejoin="round"/>
<path d="M118.962 84.5241C118.962 84.5241 123.442 91.1807 131.538 93.1781C139.634 95.1754 146.698 94.5071 146.526 95.0054C146.354 95.5038 143.594 97.1689 143.594 97.1689C143.594 97.1689 146.178 97.0028 145.834 97.8334C145.49 98.664 143.078 102.493 134.982 104.49C126.886 106.487 121.89 96.1722 120.342 91.6791C118.794 87.186 117.602 83.8596 118.962 84.5241Z" fill="white"/>
<path d="M136.594 94.1436C135.944 95.7312 135.937 97.4968 136.575 99.089C137.212 100.681 138.447 101.983 140.034 102.736C144.154 100.777 145.578 98.4628 145.834 97.8369C146.178 97.0063 143.594 97.1724 143.594 97.1724C143.594 97.1724 146.354 95.5073 146.526 95.0089C146.658 94.6149 142.354 94.9394 136.594 94.1436Z" fill="#EBEBEB"/>
<path opacity="0.2" d="M129.022 97.3119C129.218 95.7202 128.906 93.8078 128.494 92.1543C124.68 90.4598 121.394 87.8289 118.962 84.5241C117.586 83.8596 118.79 87.186 120.342 91.6791C121.894 96.1722 126.886 106.487 134.982 104.49C129.134 104.575 128.578 100.97 129.022 97.3119Z" fill="black"/>
<path d="M118.962 84.5241C118.962 84.5241 123.442 91.1807 131.538 93.1781C139.634 95.1754 146.698 94.5071 146.526 95.0054C146.354 95.5038 143.594 97.1689 143.594 97.1689C143.594 97.1689 146.178 97.0028 145.834 97.8334C145.49 98.664 143.078 102.493 134.982 104.49C126.886 106.487 121.89 96.1722 120.342 91.6791C118.794 87.186 117.602 83.8596 118.962 84.5241Z" stroke="#263238" stroke-width="1.20355" stroke-linecap="round" stroke-linejoin="round"/>
<path d="M75.8648 76.5199C75.8648 76.5199 70.3528 77.5205 67.4248 76.5199C64.4968 75.5193 66.5648 73.5258 65.3568 72.0307C64.1488 70.5356 60.5568 73.1897 60.1888 78.0189C59.8208 82.8481 65.5288 85.5061 71.3888 86.0044L78.2768 76.5199H75.8648Z" fill="#EBEBEB" stroke="#263238" stroke-width="1.20355" stroke-linecap="round" stroke-linejoin="round"/>
<path d="M69.2628 76.8868C68.6592 76.8357 68.0634 76.719 67.4868 76.5391C66.2384 77.3296 65.2495 78.4479 64.6366 79.7626C64.0237 81.0773 63.8121 82.5337 64.0268 83.9606C64.4567 84.1981 64.9001 84.4122 65.3548 84.6019C65.0828 83.5704 64.3108 79.2705 69.2628 76.8868Z" fill="#263238"/>
<path d="M65.7579 74.1279C63.2299 74.6804 61.4019 75.6733 60.2939 77.1336C60.2499 77.4195 60.2139 77.7131 60.1899 78.0183C60.1443 78.6502 60.2092 79.2849 60.3819 79.8959C60.4745 79.2808 60.6934 78.6897 61.0259 78.1574C61.8939 76.7936 63.5219 75.8394 65.8779 75.2947C65.7569 74.9175 65.7161 74.5207 65.7579 74.1279V74.1279Z" fill="#263238"/>
<path d="M112.932 76.5199C112.932 76.5199 118.448 77.5205 121.376 76.5199C124.304 75.5193 122.236 73.5258 123.44 72.0307C124.644 70.5356 128.264 73.1897 128.608 78.0189C128.952 82.8481 123.268 85.5061 117.408 86.0044L110.52 76.5199H112.932Z" fill="#EBEBEB" stroke="#263238" stroke-width="1.20355" stroke-linecap="round" stroke-linejoin="round"/>
<path d="M119.543 76.8868C120.147 76.8357 120.742 76.719 121.319 76.5391C122.567 77.3296 123.556 78.4479 124.169 79.7626C124.782 81.0773 124.994 82.5337 124.779 83.9606C124.349 84.1981 123.906 84.4122 123.451 84.6019C123.719 83.5704 124.495 79.2705 119.543 76.8868Z" fill="#263238"/>
<path d="M123.046 74.1279C125.57 74.6804 127.402 75.6733 128.51 77.1336C128.554 77.4195 128.59 77.7131 128.61 78.0183C128.657 78.6499 128.593 79.2847 128.422 79.8959C128.329 79.2808 128.11 78.6897 127.778 78.1574C126.91 76.7936 125.278 75.8394 122.926 75.2947C123.047 74.9175 123.088 74.5207 123.046 74.1279V74.1279Z" fill="#263238"/>
<path d="M94.2623 132.446C110.477 132.446 123.622 118.136 123.622 100.484C123.622 82.8321 110.477 68.5225 94.2623 68.5225C78.0473 68.5225 64.9023 82.8321 64.9023 100.484C64.9023 118.136 78.0473 132.446 94.2623 132.446Z" fill="white"/>
<path d="M80.1582 76.4271C80.8883 76.4285 81.6071 76.2527 82.2485 75.9157C82.8899 75.5788 83.4333 75.0916 83.8287 74.4988C84.2242 73.906 84.4591 73.2267 84.5118 72.5234C84.5644 71.8201 84.4332 71.1152 84.1302 70.4736C81.452 71.5525 78.9605 73.0209 76.7422 74.8276C77.1499 75.3257 77.6689 75.7283 78.2605 76.0053C78.852 76.2823 79.5008 76.4265 80.1582 76.4271V76.4271Z" fill="#EBEBEB"/>
<path d="M79.9041 122.034C79.9041 118.611 77.3761 115.853 74.2601 115.853C73.3779 115.868 72.5131 116.092 71.7407 116.504C70.9683 116.916 70.3118 117.504 69.8281 118.217C71.8687 121.578 74.554 124.532 77.7401 126.921C78.4361 126.299 78.9885 125.542 79.3614 124.7C79.7343 123.858 79.9192 122.95 79.9041 122.034V122.034Z" fill="#EBEBEB"/>
<path d="M96.3246 130.955C98.4498 130.955 100.173 129.512 100.173 127.733C100.173 125.953 98.4498 124.511 96.3246 124.511C94.1994 124.511 92.4766 125.953 92.4766 127.733C92.4766 129.512 94.1994 130.955 96.3246 130.955Z" fill="#EBEBEB"/>
<path d="M76.8225 97.4941C76.8225 91.7957 72.7825 87.1403 67.7025 86.8506C65.8407 91.1704 64.8888 95.8053 64.9025 100.484C64.9028 103.021 65.1803 105.55 65.7305 108.03C66.2152 108.112 66.7064 108.153 67.1985 108.153C72.5145 108.153 76.8225 103.382 76.8225 97.4941Z" fill="#EBEBEB"/>
<path d="M121.182 109.839C121.999 107.945 121.071 105.769 119.11 104.979C117.148 104.19 114.895 105.086 114.078 106.98C113.26 108.875 114.188 111.051 116.15 111.841C118.111 112.63 120.364 111.734 121.182 109.839Z" fill="#EBEBEB"/>
<path d="M119.422 115.092C119.423 115.512 119.548 115.923 119.782 116.278C120.357 115.18 120.871 114.053 121.322 112.901C120.79 112.994 120.308 113.264 119.961 113.664C119.613 114.064 119.423 114.57 119.422 115.092V115.092Z" fill="#EBEBEB"/>
<path d="M118.044 119.213C116.655 118.608 115.109 118.422 113.608 118.679C112.107 118.936 110.722 119.625 109.634 120.656C108.545 121.686 107.804 123.01 107.508 124.454C107.211 125.898 107.373 127.394 107.972 128.748C112.047 126.364 115.494 123.1 118.044 119.213V119.213Z" fill="#EBEBEB"/>
<path d="M116.229 79.29C115.006 80.6092 114.2 82.2388 113.906 83.9863C113.612 85.7338 113.841 87.5261 114.568 89.1514C115.295 90.7767 116.489 92.167 118.008 93.1579C119.527 94.1489 121.308 94.6991 123.141 94.7435C122.231 89.1094 119.852 83.7915 116.229 79.29Z" fill="#EBEBEB"/>
<path opacity="0.2" d="M110.403 73.7959C112.403 76.6123 115.455 81.9785 117.647 90.8565C121.215 105.275 118.315 111.298 118.315 111.298L116.535 106.994C116.535 106.994 117.203 112.375 115.203 115.605C113.203 118.835 111.739 121.335 111.019 122.772C110.299 124.209 110.299 120.767 110.299 120.767C110.299 120.767 108.643 125.383 107.355 125.874C106.067 126.365 102.279 128.3 102.279 128.3L102.499 125.719C102.499 125.719 96.9309 127.871 93.8109 127.871C90.6909 127.871 82.8909 127.01 78.6589 124.425C76.2589 122.961 72.7709 120.589 70.2109 118.816C75.5189 127.056 84.3069 132.446 94.2549 132.446C110.467 132.446 123.615 118.151 123.615 100.484C123.623 89.3305 118.371 79.5137 110.403 73.7959Z" fill="black"/>
<path d="M94.2623 132.446C110.477 132.446 123.622 118.136 123.622 100.484C123.622 82.8321 110.477 68.5225 94.2623 68.5225C78.0473 68.5225 64.9023 82.8321 64.9023 100.484C64.9023 118.136 78.0473 132.446 94.2623 132.446Z" stroke="#263238" stroke-width="1.20355" stroke-linecap="round" stroke-linejoin="round"/>
<path d="M92.3763 69.9127C92.3763 69.9127 92.2203 69.4607 89.5563 68.5528C86.8923 67.6449 83.9203 68.8542 85.4843 67.6449C87.0483 66.4357 92.3763 66.285 93.3163 67.1929C94.2563 68.1008 90.3403 65.8292 90.3403 64.3186C90.3403 62.808 94.8843 63.5459 96.2923 64.7706C97.0389 65.3681 97.6747 66.084 98.1723 66.8877C98.1723 66.8877 98.0163 61.2936 100.832 59.9337C103.648 58.5738 105.844 61.2974 104.592 62.808C103.34 64.3186 100.676 66.8916 100.676 66.8916C100.676 66.8916 107.096 64.6238 106.784 67.1968C106.472 69.7698 100.048 69.9011 100.048 69.9011" fill="white"/>
<path d="M92.3763 69.9127C92.3763 69.9127 92.2203 69.4607 89.5563 68.5528C86.8923 67.6449 83.9203 68.8542 85.4843 67.6449C87.0483 66.4357 92.3763 66.285 93.3163 67.1929C94.2563 68.1008 90.3403 65.8292 90.3403 64.3186C90.3403 62.808 94.8843 63.5459 96.2923 64.7706C97.0389 65.3681 97.6747 66.084 98.1723 66.8877C98.1723 66.8877 98.0163 61.2936 100.832 59.9337C103.648 58.5738 105.844 61.2974 104.592 62.808C103.34 64.3186 100.676 66.8916 100.676 66.8916C100.676 66.8916 107.096 64.6238 106.784 67.1968C106.472 69.7698 100.048 69.9011 100.048 69.9011" stroke="#263238" stroke-width="1.20355" stroke-linecap="round" stroke-linejoin="round"/>
<path d="M94.9622 100.206C99.502 100.206 103.182 96.5163 103.182 91.9652C103.182 87.414 99.502 83.7246 94.9622 83.7246C90.4224 83.7246 86.7422 87.414 86.7422 91.9652C86.7422 96.5163 90.4224 100.206 94.9622 100.206Z" fill="#263238" stroke="#263238" stroke-width="1.20355" stroke-linecap="round" stroke-linejoin="round"/>
<path d="M94.9622 99.105C99.502 99.105 103.182 95.5505 103.182 91.1658C103.182 86.7811 99.502 83.2266 94.9622 83.2266C90.4224 83.2266 86.7422 86.7811 86.7422 91.1658C86.7422 95.5505 90.4224 99.105 94.9622 99.105Z" fill="#EBEBEB" stroke="#263238" stroke-width="1.20355" stroke-linecap="round" stroke-linejoin="round"/>
<path d="M96.6158 95.0048C98.8118 94.1206 99.85 91.6843 98.9345 89.5633C98.019 87.4422 95.4966 86.4396 93.3005 87.3238C91.1045 88.208 90.0664 90.6442 90.9818 92.7653C91.8973 94.8863 94.4197 95.889 96.6158 95.0048Z" fill="#263238" stroke="#263238" stroke-width="1.20355" stroke-linecap="round" stroke-linejoin="round"/>
<path d="M85.0416 77.3306C85.0416 77.3306 80.4611 77.9471 79.8275 79.3836C79.1939 80.8201 82.6525 81.0729 82.6525 81.0729C82.6525 81.0729 78.5442 83.727 80.4409 84.6918C82.3377 85.6567 85.9698 83.4782 85.9698 83.4782C85.9698 83.4782 90.3913 86.8678 94.8144 86.8678C99.2375 86.8678 103.509 81.4373 103.509 81.4373C103.509 81.4373 107.298 84.6957 108.723 84.0915C110.147 83.4873 106.213 79.6278 106.213 79.6278C106.213 79.6278 109.845 80.2444 106.846 78.0588C106.037 77.4363 105.021 76.9946 103.907 76.7816C102.793 76.5686 101.624 76.5924 100.526 76.8504" fill="white"/>
<path d="M85.0416 77.3306C85.0416 77.3306 80.4611 77.9471 79.8275 79.3836C79.1939 80.8201 82.6525 81.0729 82.6525 81.0729C82.6525 81.0729 78.5442 83.727 80.4409 84.6918C82.3377 85.6567 85.9698 83.4782 85.9698 83.4782C85.9698 83.4782 90.3913 86.8678 94.8144 86.8678C99.2375 86.8678 103.509 81.4373 103.509 81.4373C103.509 81.4373 107.298 84.6957 108.723 84.0915C110.147 83.4873 106.213 79.6278 106.213 79.6278C106.213 79.6278 109.845 80.2444 106.846 78.0588C106.037 77.4363 105.021 76.9946 103.907 76.7816C102.793 76.5686 101.624 76.5924 100.526 76.8504" stroke="#263238" stroke-width="1.20355" stroke-linecap="round" stroke-linejoin="round"/>
<path d="M83.6013 101.226C81.4851 102.512 79.6715 104.213 78.2773 106.217C75.7693 109.694 76.5533 111.812 77.8053 111.962C79.0573 112.113 83.2853 106.82 83.2853 106.82C83.2853 106.82 81.2493 111.812 83.7573 111.51C86.2653 111.209 89.2373 105.611 89.2373 105.611C89.2373 105.611 89.0813 109.088 90.9613 108.937C92.8413 108.787 95.0333 102.737 95.0333 102.737C95.0333 102.737 96.1293 108.787 98.0093 108.787C99.8893 108.787 100.041 105.004 100.041 105.004C100.041 105.004 102.237 111.661 104.113 110.301C105.989 108.941 104.741 104.552 104.741 104.552C104.741 104.552 106.465 113.477 108.813 111.812C111.161 110.146 107.717 103.042 105.213 100.469" stroke="#263238" stroke-width="1.20355" stroke-linecap="round" stroke-linejoin="round"/>
<path d="M104.245 119.376C103.804 119.376 103.371 119.261 102.993 119.044C102.614 118.826 102.303 118.514 102.093 118.14C101.977 117.943 99.6328 113.975 94.9688 113.975C90.3048 113.975 86.7088 118.282 86.6768 118.325C86.2709 118.798 85.6904 119.101 85.0579 119.169C84.4254 119.236 83.7904 119.064 83.2871 118.688C82.7839 118.311 82.4518 117.761 82.361 117.153C82.2702 116.544 82.4279 115.926 82.8008 115.427C83.0048 115.176 87.8488 109.246 94.9688 109.246C102.621 109.246 106.253 115.621 106.401 115.895C106.598 116.255 106.696 116.658 106.685 117.066C106.674 117.473 106.555 117.871 106.338 118.221C106.121 118.57 105.814 118.86 105.448 119.062C105.081 119.263 104.667 119.37 104.245 119.372V119.376Z" fill="#263238"/>
<path d="M83.9492 114.195L87.6812 115.443L87.2532 111.599C86.0603 112.349 84.9528 113.219 83.9492 114.195V114.195Z" fill="white"/>
<path d="M102.827 111.915L102.559 116.2L106.215 115.574C105.309 114.177 104.163 112.94 102.827 111.915Z" fill="white"/>
<path d="M103.966 116.2L101.566 117.359C101.761 117.607 101.942 117.865 102.106 118.132C102.317 118.506 102.628 118.818 103.006 119.036C103.385 119.253 103.818 119.368 104.258 119.368C104.496 119.366 104.731 119.331 104.958 119.264L103.966 116.2Z" fill="white"/>
<path d="M86.6776 118.325C86.9287 118.034 87.1958 117.757 87.4776 117.494L84.4016 115.895L83.6016 118.966C84.1105 119.225 84.6979 119.303 85.2604 119.186C85.8229 119.069 86.3247 118.764 86.6776 118.325V118.325Z" fill="white"/>
<path d="M104.245 119.376C103.804 119.376 103.371 119.261 102.993 119.044C102.614 118.826 102.303 118.514 102.093 118.14C101.977 117.943 99.6328 113.975 94.9688 113.975C90.3048 113.975 86.7088 118.282 86.6768 118.325C86.2709 118.798 85.6904 119.101 85.0579 119.169C84.4254 119.236 83.7904 119.064 83.2871 118.688C82.7839 118.311 82.4518 117.761 82.361 117.153C82.2702 116.544 82.4279 115.926 82.8008 115.427C83.0048 115.176 87.8488 109.246 94.9688 109.246C102.621 109.246 106.253 115.621 106.401 115.895C106.598 116.255 106.696 116.658 106.685 117.066C106.674 117.473 106.555 117.871 106.338 118.221C106.121 118.57 105.814 118.86 105.448 119.062C105.081 119.263 104.667 119.37 104.245 119.372V119.376Z" stroke="#263238" stroke-width="1.20355" stroke-linecap="round" stroke-linejoin="round"/>
<path d="M93.8195 88.9518C93.8195 89.4103 93.6788 89.8584 93.4151 90.2396C93.1513 90.6208 92.7765 90.9179 92.338 91.0934C91.8994 91.2688 91.4169 91.3147 90.9513 91.2253C90.4858 91.1358 90.0581 90.9151 89.7225 90.5909C89.3868 90.2667 89.1583 89.8537 89.0656 89.404C88.973 88.9544 89.0206 88.4883 89.2022 88.0647C89.3839 87.6412 89.6915 87.2792 90.0862 87.0244C90.4808 86.7697 90.9449 86.6338 91.4195 86.6338C92.0561 86.6338 92.6665 86.878 93.1166 87.3127C93.5667 87.7474 93.8195 88.337 93.8195 88.9518V88.9518Z" fill="white"/>
<path d="M164.383 93.8481C162.584 93.8481 161.116 93.3678 159.555 92.3781L159.557 89.8877C160.092 90.2058 160.934 90.4813 161.395 90.6934C161.856 90.8878 162.309 91.0292 162.755 91.1176C163.216 91.2059 163.684 91.2501 164.16 91.2501C165.453 91.2501 166.449 90.9408 167.148 90.3223C167.846 89.686 168.195 88.7847 168.195 87.6182C168.195 86.8229 168.017 86.1778 167.66 85.683C167.319 85.1881 166.776 84.8258 166.033 84.596C165.29 84.3662 164.316 84.2514 163.112 84.2514H162.063V81.6534L166.679 76.8815V76.8285H159.5V74.2305H170.135V76.8285L164.45 81.9185V81.9715H165.475C167.14 81.9715 168.426 82.4664 169.333 83.4561C170.254 84.4458 170.715 85.8332 170.715 87.6182C170.715 89.5977 170.158 91.1353 169.043 92.231C167.943 93.3091 166.39 93.8481 164.383 93.8481Z" fill="#EA1F4D"/>
<path d="M57.8203 53.2949H59.3109L59.0019 151.262L57.8203 151.935V53.2949Z" fill="white" stroke="#263238"/>
<path d="M63.9567 150.951C63.9567 150.951 65.8296 149.705 65.8189 147.837C66.9802 147.837 66.1312 143.799 63.08 144.884C59.4753 146.378 57.2377 149.625 59.0703 151.562C60.9029 153.498 63.9567 150.951 63.9567 150.951Z" fill="white" stroke="#263238" stroke-width="1.20355" stroke-linecap="round" stroke-linejoin="round"/>
<path d="M59.1369 149.665C59.1369 149.665 57.4992 150.829 56.9793 152.335C56.9332 152.466 56.9342 152.603 56.9823 152.721C57.0303 152.839 57.1222 152.93 57.241 152.979V152.979C57.3281 153.015 57.4265 153.026 57.526 153.011C57.6254 152.996 57.7221 152.955 57.8061 152.892C58.3068 152.515 59.3668 151.778 60.2806 151.526C60.5112 151.462 60.7278 151.339 60.9072 151.171C61.0865 151.002 61.2219 150.794 61.2988 150.568C61.3504 150.416 61.3685 150.259 61.3516 150.108C61.3347 149.957 61.2833 149.816 61.2011 149.695C60.6562 148.843 60.0798 148.895 59.1369 149.665Z" fill="white" stroke="#263238" stroke-width="1.20355" stroke-linecap="round" stroke-linejoin="round"/>
<path d="M68.0858 52.4366C79.9651 47.1615 85.3056 33.2849 80.0141 21.4425C74.7226 9.59998 60.8029 4.27606 48.9235 9.55115C37.0442 14.8262 31.7037 28.7028 36.9952 40.5452C42.2867 52.3877 56.2064 57.7116 68.0858 52.4366Z" fill="#EA1F4D"/>
<path d="M79.6963 30.1156C79.6715 30.0034 79.6581 29.889 79.6562 29.7742C79.6562 29.5303 79.6162 29.1978 79.5851 28.7721C79.5851 28.5504 79.5539 28.3021 79.5406 28.0316C79.5272 27.7611 79.4516 27.4685 79.4027 27.1448C79.309 26.4091 79.1603 25.6813 78.9579 24.9677C78.4639 22.9953 77.6704 21.1098 76.605 19.3764C75.2158 17.0687 73.3948 15.0485 71.2409 13.4259C68.6378 11.4484 65.6039 10.1101 62.3852 9.51951C58.6905 8.84151 54.8811 9.15835 51.3502 10.4374C50.4108 10.776 49.4954 11.1774 48.6103 11.639C48.1655 11.8784 47.743 12.1578 47.3026 12.4194C46.8612 12.6851 46.4391 12.9814 46.0394 13.3062C45.201 13.9272 44.4046 14.6026 43.6554 15.3281C42.9153 16.0885 42.2287 16.8989 41.6005 17.7535C40.2959 19.5018 39.2821 21.4482 38.5982 23.5178C37.1572 27.8036 37.1572 32.4409 38.5982 36.7267C39.2815 38.7958 40.2936 40.742 41.596 42.491C42.2268 43.3462 42.9149 44.158 43.6554 44.9208C44.4043 45.6436 45.1991 46.3175 46.035 46.9383C46.4359 47.2635 46.8596 47.5598 47.3026 47.8251C47.7474 48.0823 48.17 48.3616 48.6103 48.6011C53.3821 51.1318 58.9462 51.7405 64.155 50.3017C69.3639 48.8629 73.8202 45.4862 76.605 40.8681C77.6687 39.1338 78.462 37.2486 78.9579 35.2768C79.1599 34.5631 79.3086 33.8354 79.4027 33.0997C79.4516 32.7805 79.5094 32.4878 79.5406 32.2129C79.5717 31.938 79.5717 31.6985 79.5851 31.4768C79.6162 31.0334 79.6384 30.7186 79.6562 30.4748C79.6581 30.3599 79.6715 30.2455 79.6963 30.1333C79.7051 30.247 79.7051 30.3611 79.6963 30.4748C79.6963 30.7186 79.6962 31.0556 79.6696 31.4813C79.6696 31.703 79.6696 31.9513 79.6384 32.2218C79.6073 32.4922 79.5628 32.7893 79.5228 33.1086C79.4383 33.8492 79.3001 34.5827 79.1091 35.3034C78.6358 37.3013 77.8556 39.2142 76.7963 40.9745C75.2594 43.5737 73.1842 45.8163 70.7091 47.5527C68.2341 49.2891 65.4161 50.4794 62.4431 51.0442C58.6886 51.7525 54.8124 51.4463 51.2167 50.1574C50.26 49.8156 49.3282 49.4082 48.4279 48.9381C47.9831 48.6942 47.5384 48.4104 47.0936 48.1488C46.6407 47.8855 46.2081 47.5891 45.7992 47.262C44.0509 46.0128 42.5211 44.4847 41.2713 42.7393C39.9391 40.9582 38.9043 38.9743 38.2068 36.8642C36.7332 32.4972 36.7332 27.7695 38.2068 23.4025C38.9055 21.2951 39.9387 19.3131 41.2669 17.5318C41.9111 16.6632 42.6125 15.8381 43.3663 15.062C44.1308 14.3248 44.9436 13.6389 45.7992 13.0091C46.2072 12.6829 46.6383 12.3866 47.0891 12.1223C47.5339 11.8562 47.9787 11.5725 48.4235 11.3286C49.3251 10.8625 50.2567 10.4566 51.2123 10.1137C54.8073 8.82177 58.6843 8.51552 62.4386 9.22686C65.4102 9.79548 68.2267 10.9873 70.7012 12.7234C73.1757 14.4594 75.2518 16.7 76.7918 19.2966C77.8497 21.0576 78.6298 22.9703 79.1047 24.9677C79.2969 25.6956 79.4352 26.4366 79.5183 27.1847C79.5584 27.5039 79.6117 27.801 79.634 28.0715C79.6562 28.342 79.634 28.5903 79.6651 28.812C79.6651 29.2554 79.6651 29.5746 79.6918 29.8229C79.6998 29.9203 79.7012 30.0181 79.6963 30.1156V30.1156Z" fill="white"/>
<path d="M70.767 27.4688H46.2461V32.5679H70.767V27.4688Z" fill="#FAFAFA"/>
</svg>
