<svg width="200" height="200" viewBox="0 0 200 200" fill="none" xmlns="http://www.w3.org/2000/svg">
<path d="M108.223 19.8078C108.223 19.8078 79.8231 16.3398 57.6591 37.0078C35.4951 57.6758 29.5431 90.1838 24.0271 116.376C18.5111 142.568 30.6351 165.22 52.8591 171.796C75.0831 178.372 84.5791 159.172 111.911 152.196C139.243 145.22 147.583 147.504 166.711 126.744C185.839 105.984 181.215 68.1478 156.711 44.8958C132.207 21.6438 108.223 19.8078 108.223 19.8078Z" fill="#2A5578"/>
<path opacity="0.7" d="M108.223 19.8078C108.223 19.8078 79.8231 16.3398 57.6591 37.0078C35.4951 57.6758 29.5431 90.1838 24.0271 116.376C18.5111 142.568 30.6351 165.22 52.8591 171.796C75.0831 178.372 84.5791 159.172 111.911 152.196C139.243 145.22 147.583 147.504 166.711 126.744C185.839 105.984 181.215 68.1478 156.711 44.8958C132.207 21.6438 108.223 19.8078 108.223 19.8078Z" fill="white"/>
<path d="M26.4922 147.112C38.2242 143.512 62.9122 136.376 76.5362 135.84C94.8402 135.116 125.788 149.536 145.088 152.056C164.388 154.576 177.368 153.86 177.368 153.86" stroke="#263238" stroke-width="1.20355" stroke-linecap="round" stroke-linejoin="round"/>
<path d="M19.9648 149.172C19.9648 149.172 20.9808 148.84 22.7648 148.276" stroke="#263238" stroke-width="1.20355" stroke-linecap="round" stroke-linejoin="round"/>
<path d="M172.158 126.708C165.413 125.1 158.485 124.391 151.554 124.6C137.238 125.116 121.762 127.172 102.594 129.844C83.4261 132.516 56.1581 117.74 37.6021 123.224C19.0461 128.708 20.4541 130.356 20.4541 130.356" stroke="#263238" stroke-width="1.20355" stroke-linecap="round" stroke-linejoin="round"/>
<path d="M177.434 128.196C177.434 128.196 176.714 127.936 175.406 127.56" stroke="#263238" stroke-width="1.20355" stroke-linecap="round" stroke-linejoin="round"/>
<path d="M114.842 36.6001C114.62 35.6923 114.099 34.8853 113.364 34.3084C112.629 33.7315 111.721 33.418 110.786 33.418C109.852 33.418 108.944 33.7315 108.209 34.3084C107.473 34.8853 106.953 35.6923 106.73 36.6001H114.842Z" stroke="#263238" stroke-width="1.20355" stroke-linecap="round" stroke-linejoin="round"/>
<path d="M155.824 36.6002C155.578 35.5665 155.02 34.6336 154.225 33.928C153.431 33.2225 152.439 32.7784 151.384 32.6562C151.519 31.9225 151.587 31.1781 151.588 30.4322C151.584 27.4006 150.446 24.48 148.398 22.2449C146.35 20.0098 143.54 18.6219 140.52 18.3541C137.5 18.0863 134.489 18.9581 132.08 20.7979C129.67 22.6377 128.037 25.3125 127.5 28.2962C126.206 27.2831 124.623 26.7074 122.981 26.6523C121.338 26.5972 119.721 27.0655 118.362 27.9896C117.003 28.9137 115.973 30.2457 115.42 31.7934C114.868 33.3411 114.821 35.0244 115.288 36.6002H155.824Z" stroke="#263238" stroke-width="1.20355" stroke-linecap="round" stroke-linejoin="round"/>
<path d="M42.6591 46.3399C42.5468 45.8782 42.2827 45.4676 41.9092 45.174C41.5356 44.8803 41.0742 44.7207 40.5991 44.7207C40.1239 44.7207 39.6625 44.8803 39.289 45.174C38.9154 45.4676 38.6513 45.8782 38.5391 46.3399H42.6591Z" stroke="#263238" stroke-width="1.20355" stroke-linecap="round" stroke-linejoin="round"/>
<path d="M63.4643 46.3398C63.3384 45.8155 63.0545 45.3425 62.651 44.9848C62.2475 44.6271 61.7439 44.4019 61.2083 44.3398C61.3761 43.5346 61.3811 42.704 61.223 41.8969C61.0648 41.0898 60.7468 40.3225 60.2876 39.6402C59.8283 38.9579 59.2372 38.3744 58.549 37.9241C57.8608 37.4737 57.0894 37.1657 56.2803 37.0181C55.4712 36.8704 54.6407 36.8862 53.8378 37.0645C53.0349 37.2428 52.2758 37.58 51.6052 38.0561C50.9346 38.5323 50.3661 39.1378 49.9332 39.8371C49.5002 40.5364 49.2116 41.3152 49.0843 42.1278C48.4272 41.6137 47.6239 41.3216 46.7901 41.2938C45.9563 41.2659 45.1353 41.5037 44.4454 41.9728C43.7555 42.4419 43.2326 43.118 42.952 43.9037C42.6714 44.6893 42.6477 45.5438 42.8843 46.3438L63.4643 46.3398Z" stroke="#263238" stroke-width="1.20355" stroke-linecap="round" stroke-linejoin="round"/>
<path d="M61.3656 52.852C61.2932 52.562 61.1258 52.3046 60.8903 52.1207C60.6547 51.9368 60.3645 51.8369 60.0656 51.8369C59.7668 51.8369 59.4765 51.9368 59.241 52.1207C59.0054 52.3046 58.8381 52.562 58.7656 52.852H61.3656Z" stroke="#263238" stroke-width="1.20355" stroke-linecap="round" stroke-linejoin="round"/>
<path d="M74.4976 52.852C74.4175 52.5212 74.2382 52.2228 73.9837 51.9968C73.7291 51.7709 73.4115 51.6282 73.0736 51.588C73.1174 51.3532 73.1388 51.1148 73.1376 50.876C73.1385 49.9036 72.775 48.9662 72.1188 48.2487C71.4627 47.5311 70.5614 47.0854 69.5929 46.9996C68.6243 46.9137 67.6588 47.1939 66.8866 47.7848C66.1144 48.3758 65.5917 49.2346 65.4216 50.192C65.0065 49.8692 64.4998 49.6862 63.9742 49.6693C63.4486 49.6524 62.9312 49.8025 62.4963 50.0979C62.0613 50.3934 61.7311 50.8191 61.5531 51.3139C61.3751 51.8087 61.3585 52.3471 61.5056 52.852H74.4976Z" stroke="#263238" stroke-width="1.20355" stroke-linecap="round" stroke-linejoin="round"/>
<path d="M137.333 161.976H136.933C130.601 156.148 113.077 151.976 92.4493 151.976C66.4893 151.976 45.4453 158.612 45.4453 166.776C45.4453 174.94 66.4893 181.576 92.4493 181.576C109.721 181.576 124.817 178.64 132.989 174.264C134.393 174.332 135.841 174.368 137.321 174.368C150.497 174.368 161.181 171.568 161.181 168.16C161.181 164.752 150.509 161.976 137.333 161.976Z" fill="#2A5578"/>
<path opacity="0.5" d="M137.333 161.976H136.933C130.601 156.148 113.077 151.976 92.4493 151.976C66.4893 151.976 45.4453 158.612 45.4453 166.776C45.4453 174.94 66.4893 181.576 92.4493 181.576C109.721 181.576 124.817 178.64 132.989 174.264C134.393 174.332 135.841 174.368 137.321 174.368C150.497 174.368 161.181 171.568 161.181 168.16C161.181 164.752 150.509 161.976 137.333 161.976Z" fill="white"/>
<path d="M122.803 102.224C122.803 102.224 124.143 114.012 130.303 116.96C136.463 119.908 139.951 115.36 139.951 111.2C139.951 107.04 146.915 103.164 152.007 103.164C157.099 103.164 158.571 109.996 156.407 115.62C154.243 121.244 151.603 127.944 141.567 131.16C131.531 134.376 125.627 130.088 125.627 130.088C125.627 130.088 127.103 133.036 125.627 133.436C124.151 133.836 120.003 129.284 120.003 129.284C120.003 129.284 121.879 133.304 119.735 131.964C117.591 130.624 115.315 122.72 115.315 122.72C115.315 122.72 115.447 125.52 113.715 125.8C111.983 126.08 111.035 120.04 111.035 120.04L122.155 99.5479L122.803 102.224Z" fill="white"/>
<path d="M146.751 122.355C145.902 122.355 145.088 122.693 144.488 123.293C143.888 123.893 143.551 124.707 143.551 125.555C143.551 126.404 143.888 127.218 144.488 127.818C145.088 128.418 145.902 128.755 146.751 128.755H146.903C147.924 128.135 148.885 127.421 149.775 126.623C149.895 126.279 149.958 125.917 149.959 125.551C149.958 125.131 149.875 124.715 149.713 124.326C149.552 123.938 149.315 123.585 149.017 123.288C148.719 122.992 148.366 122.756 147.977 122.596C147.588 122.436 147.171 122.354 146.751 122.355Z" fill="#2A5578"/>
<path d="M139.711 113.136C138.815 116.588 135.519 119.448 130.315 116.96C130.088 116.85 129.868 116.729 129.655 116.596C129.358 117.717 129.371 118.897 129.693 120.011C130.015 121.125 130.634 122.131 131.483 122.92C132.332 123.71 133.38 124.254 134.514 124.495C135.649 124.735 136.827 124.663 137.924 124.286C139.02 123.908 139.994 123.24 140.74 122.353C141.486 121.465 141.977 120.391 142.161 119.247C142.344 118.102 142.213 116.928 141.782 115.852C141.35 114.776 140.634 113.837 139.711 113.136Z" fill="#2A5578"/>
<path d="M127.636 130.952C127.646 130.363 127.539 129.777 127.322 129.229C127.105 128.681 126.783 128.181 126.373 127.758C125.962 127.334 125.473 126.996 124.932 126.761C124.391 126.527 123.81 126.402 123.22 126.392C122.631 126.383 122.045 126.489 121.497 126.706C120.949 126.923 120.449 127.246 120.026 127.656C119.602 128.066 119.264 128.555 119.029 129.096C118.795 129.637 118.67 130.219 118.66 130.808C118.94 131.26 119.305 131.653 119.736 131.964C121.88 133.304 120.004 129.284 120.004 129.284C120.004 129.284 124.156 133.84 125.628 133.436C127.1 133.032 125.628 130.088 125.628 130.088C126.256 130.504 126.926 130.85 127.628 131.12C127.628 131.064 127.636 131.008 127.636 130.952Z" fill="#2A5578"/>
<path opacity="0.2" d="M155.763 109.276C153.311 112.396 149.299 125.54 139.051 128.44C128.803 131.34 119.451 124.652 119.451 124.652C119.451 124.652 121.011 123.092 124.131 117.744C124.999 116.254 125.741 114.694 126.347 113.08C123.547 108.54 122.823 102.224 122.823 102.224L122.155 99.5479L111.035 120.04C111.035 120.04 111.975 126.068 113.715 125.8C115.455 125.532 115.315 122.72 115.315 122.72C115.315 122.72 117.591 130.624 119.735 131.964C121.879 133.304 120.003 129.284 120.003 129.284C120.003 129.284 124.155 133.84 125.627 133.436C127.099 133.032 125.627 130.088 125.627 130.088C125.627 130.088 131.523 134.376 141.567 131.16C151.611 127.944 154.295 121.248 156.439 115.62C157.258 113.492 157.549 111.197 157.287 108.932C156.619 108.776 156.087 108.86 155.763 109.276Z" fill="black"/>
<path d="M122.803 102.224C122.803 102.224 124.143 114.012 130.303 116.96C136.463 119.908 139.951 115.36 139.951 111.2C139.951 107.04 146.915 103.164 152.007 103.164C157.099 103.164 158.571 109.996 156.407 115.62C154.243 121.244 151.603 127.944 141.567 131.16C131.531 134.376 125.627 130.088 125.627 130.088C125.627 130.088 127.103 133.036 125.627 133.436C124.151 133.836 120.003 129.284 120.003 129.284C120.003 129.284 121.879 133.304 119.735 131.964C117.591 130.624 115.315 122.72 115.315 122.72C115.315 122.72 115.447 125.52 113.715 125.8C111.983 126.08 111.035 120.04 111.035 120.04L122.155 99.5479L122.803 102.224Z" stroke="#263238" stroke-width="1.20355" stroke-linecap="round" stroke-linejoin="round"/>
<path d="M153.291 119.772C152.867 119.772 152.46 119.603 152.16 119.303C151.86 119.003 151.691 118.596 151.691 118.172V92.9717H154.891V118.172C154.891 118.596 154.723 119.003 154.423 119.303C154.123 119.603 153.716 119.772 153.291 119.772Z" fill="white" stroke="#263238" stroke-width="1.20355" stroke-linecap="round" stroke-linejoin="round"/>
<path d="M175.532 51.7236H131.328V94.8556H175.532V51.7236Z" fill="white" stroke="#424242" stroke-width="1.20355" stroke-linecap="round" stroke-linejoin="round"/>
<path d="M145.942 61.0159V60.8159H145.742H143.542V57.5719H146.186H146.386V57.3719V57.1279V56.9279H146.186H143.086H142.886V57.1279V65.2519V65.4519H143.086H146.186H146.386V65.2519V65.0079V64.8079H146.186H143.542V61.4479H145.742H145.942V61.2479V61.0159Z" fill="#2A5578" stroke="#2A5578" stroke-width="0.4"/>
<path d="M148.354 61.0599H147.554V57.5719H148.702C149.174 57.5719 149.467 57.7117 149.647 57.9302C149.833 58.1561 149.93 58.5018 149.93 58.9719V59.7159C149.93 60.3116 149.776 60.6232 149.543 60.7993C149.295 60.9861 148.909 61.0599 148.354 61.0599ZM149.743 61.3822C149.939 61.2787 150.104 61.1417 150.235 60.9674C150.481 60.6385 150.586 60.2038 150.586 59.6799V58.9519C150.586 58.3705 150.463 57.8596 150.152 57.4922C149.836 57.1184 149.354 56.9279 148.714 56.9279H147.098H146.898V57.1279V65.2519V65.4519H147.098H147.354H147.554V65.2519V61.7039H148.354C148.871 61.7039 149.261 61.7812 149.52 61.9697C149.765 62.1477 149.93 62.4539 149.93 63.0119V64.2807C149.904 64.6482 149.979 65.0157 150.148 65.3434L150.204 65.4519H150.326H150.606H150.951L150.779 65.1523C150.631 64.8947 150.563 64.5988 150.585 64.3025L150.586 64.2952V64.2879V63.0119C150.586 62.5395 150.484 62.1207 150.24 61.7975C150.11 61.6243 149.944 61.4857 149.743 61.3822Z" fill="#2A5578" stroke="#2A5578" stroke-width="0.4"/>
<path d="M152.764 61.0599H151.964V57.5719H153.112C153.584 57.5719 153.877 57.7117 154.057 57.9302C154.243 58.1561 154.34 58.5018 154.34 58.9719V59.7159C154.34 60.3116 154.186 60.6232 153.953 60.7993C153.705 60.9861 153.32 61.0599 152.764 61.0599ZM154.15 61.3818C154.346 61.2783 154.51 61.1415 154.641 60.9674C154.887 60.6385 154.992 60.2038 154.992 59.6799V58.9519C154.992 58.3705 154.87 57.8596 154.558 57.4922C154.242 57.1184 153.76 56.9279 153.12 56.9279H151.508H151.308V57.1279V65.2519V65.4519H151.508H151.764H151.964V65.2519V61.7039H152.764C153.281 61.7039 153.671 61.7812 153.93 61.9697C154.175 62.1477 154.34 62.4539 154.34 63.0119V64.2807C154.314 64.6482 154.389 65.0157 154.558 65.3434L154.614 65.4519H154.736H155.016H155.363L155.189 65.1515C155.04 64.8944 154.971 64.5984 154.991 64.3018L154.992 64.3018V64.2879V63.0119C154.992 62.5399 154.892 62.121 154.648 61.7977C154.518 61.6241 154.351 61.4853 154.15 61.3818Z" fill="#2A5578" stroke="#2A5578" stroke-width="0.4"/>
<path d="M157.63 56.8674C157.022 56.8674 156.53 57.0601 156.194 57.4616C155.863 57.8568 155.71 58.4242 155.71 59.1234V63.2554C155.71 63.9531 155.858 64.5208 156.186 64.9165C156.52 65.3192 157.013 65.5114 157.63 65.5114C158.247 65.5114 158.745 65.3194 159.084 64.9179C159.417 64.5224 159.57 63.9545 159.57 63.2554V59.1234C159.57 58.4228 159.412 57.8552 159.075 57.4603C158.735 57.0599 158.238 56.8674 157.63 56.8674ZM157.63 64.8794C157.193 64.8794 156.891 64.7428 156.692 64.4975C156.487 64.2445 156.366 63.8443 156.366 63.2674V59.1114C156.366 58.5359 156.485 58.1369 156.689 57.8846C156.887 57.6402 157.189 57.5034 157.63 57.5034C158.072 57.5034 158.38 57.6397 158.582 57.8848C158.791 58.1367 158.914 58.5353 158.914 59.1114V63.2674C158.914 63.8406 158.789 64.2407 158.579 64.4946C158.375 64.7418 158.067 64.8794 157.63 64.8794Z" fill="#2A5578" stroke="#2A5578" stroke-width="0.4"/>
<path d="M161.541 61.0599H160.741V57.5719H161.889C162.362 57.5719 162.654 57.7117 162.834 57.9302C163.021 58.1561 163.117 58.5018 163.117 58.9719V59.7159C163.117 60.3116 162.964 60.6232 162.73 60.7993C162.483 60.9861 162.097 61.0599 161.541 61.0599ZM162.927 61.3818C163.123 61.2783 163.288 61.1415 163.418 60.9674C163.665 60.6385 163.769 60.2038 163.769 59.6799V58.9519C163.769 58.3705 163.647 57.8596 163.336 57.4922C163.019 57.1184 162.537 56.9279 161.897 56.9279H160.285H160.085V57.1279V65.2519V65.4519H160.285H160.541H160.741V65.2519V61.7039H161.541C162.058 61.7039 162.448 61.7812 162.707 61.9697C162.952 62.1477 163.117 62.4539 163.117 63.0119V64.2807C163.091 64.6482 163.167 65.0157 163.335 65.3434L163.391 65.4519H163.513H163.793H164.14L163.966 65.1515C163.817 64.8944 163.748 64.5984 163.769 64.3018L163.769 64.3018V64.2879V63.0119C163.769 62.5399 163.669 62.121 163.425 61.7977C163.295 61.6241 163.128 61.4853 162.927 61.3818Z" fill="#2A5578" stroke="#2A5578" stroke-width="0.4"/>
<path d="M152.474 110.951C152.474 110.951 158.142 107.847 160.498 109.879C162.854 111.911 161.886 115.123 160.07 115.879C158.254 116.635 154.294 117.591 152.154 116.843C150.014 116.095 148.194 112.983 152.474 110.951Z" fill="white" stroke="#263238" stroke-width="1.20355" stroke-linecap="round" stroke-linejoin="round"/>
<path d="M150.002 102.76C150.002 102.76 157.102 98.8759 160.05 101.424C162.998 103.972 161.79 107.984 159.514 108.924C157.238 109.864 152.282 111.068 149.602 110.124C146.922 109.18 144.65 105.308 150.002 102.76Z" fill="white" stroke="#263238" stroke-width="1.20355" stroke-linecap="round" stroke-linejoin="round"/>
<path d="M136.945 83.4713L142.629 70.0273H146.041V83.4713H147.521V86.3113H146.041V89.9113H142.973V86.3113H136.945V83.4713ZM142.973 83.4713V75.9993L139.817 83.4753L142.973 83.4713Z" fill="#2A5578"/>
<path d="M148.684 74.7999C148.684 71.5999 150.36 69.7959 153.428 69.7959C156.496 69.7959 158.176 71.6159 158.176 74.7999V85.1439C158.176 88.3439 156.5 90.1479 153.428 90.1479C150.356 90.1479 148.684 88.3279 148.684 85.1439V74.7999ZM151.808 85.3439C151.808 86.7639 152.436 87.3039 153.428 87.3039C154.42 87.3039 155.048 86.7639 155.048 85.3439V74.6039C155.048 73.1839 154.424 72.6439 153.428 72.6439C152.432 72.6439 151.808 73.1839 151.808 74.6039V85.3439Z" fill="#2A5578"/>
<path d="M159.457 83.4713L165.141 70.0273H168.549V83.4713H170.029V86.3113H168.549V89.9113H165.481V86.3113H159.457V83.4713ZM165.481 83.4713V75.9993L162.325 83.4753L165.481 83.4713Z" fill="#2A5578"/>
<path d="M140.361 113.599C140.361 113.599 138.889 106.099 141.433 101.675C143.977 97.2515 150.273 100.075 152.285 104.759C154.297 109.443 153.085 114.399 149.201 114.399C145.317 114.399 144.649 108.235 144.649 108.235" fill="white"/>
<path d="M140.361 113.599C140.361 113.599 138.889 106.099 141.433 101.675C143.977 97.2515 150.273 100.075 152.285 104.759C154.297 109.443 153.085 114.399 149.201 114.399C145.317 114.399 144.649 108.235 144.649 108.235" stroke="#263238" stroke-width="1.20355" stroke-linecap="round" stroke-linejoin="round"/>
<path d="M151.15 112.663C151.15 112.663 151.55 115.219 150.47 117.035C150.378 117.194 150.232 117.313 150.058 117.373C149.885 117.432 149.696 117.428 149.526 117.359V117.359C149.401 117.31 149.29 117.228 149.207 117.122C149.124 117.016 149.071 116.889 149.054 116.755C148.954 115.955 148.678 114.315 148.034 113.239C147.871 112.968 147.785 112.658 147.785 112.341C147.785 112.025 147.871 111.715 148.034 111.443C148.144 111.261 148.292 111.106 148.469 110.988C148.647 110.87 148.848 110.794 149.058 110.763C150.506 110.519 151.026 111.103 151.15 112.663Z" fill="white" stroke="#263238" stroke-width="1.20355" stroke-linecap="round" stroke-linejoin="round"/>
<path d="M81.3563 124.563V152.863C81.3563 152.863 73.0683 158.807 69.3163 160.367C65.5643 161.927 59.6203 158.179 56.0243 161.167C52.4283 164.155 53.6803 168.799 58.0563 169.279C58.0563 169.279 58.0563 171.783 60.2483 172.879C60.9301 173.197 61.6685 173.375 62.4201 173.402C63.1717 173.43 63.9211 173.306 64.6243 173.039C64.6243 173.039 64.9363 176.791 69.4723 176.479C74.0083 176.167 75.1003 172.567 77.6003 168.971C80.1003 165.375 81.6683 162.091 85.4203 161.623C89.1723 161.155 91.5163 160.371 91.5163 155.839C91.5163 153.039 88.7163 152.867 88.3923 150.055C88.0683 147.243 88.3923 125.655 88.3923 125.655L81.3563 124.563Z" fill="white"/>
<path d="M84.5208 156.228C85.654 156.228 86.5727 155.309 86.5727 154.176C86.5727 153.043 85.654 152.124 84.5208 152.124C83.3875 152.124 82.4688 153.043 82.4688 154.176C82.4688 155.309 83.3875 156.228 84.5208 156.228Z" fill="#2A5578"/>
<path d="M84.2635 131.199C84.2635 130.98 84.2203 130.763 84.1365 130.561C84.0527 130.359 83.9298 130.175 83.7749 130.02C83.62 129.865 83.4362 129.742 83.2338 129.658C83.0314 129.574 82.8145 129.531 82.5955 129.531C82.3605 129.531 82.1283 129.582 81.9145 129.679C81.7006 129.776 81.51 129.918 81.3555 130.095V132.303C81.51 132.48 81.7006 132.622 81.9145 132.719C82.1283 132.817 82.3605 132.867 82.5955 132.867C83.0379 132.867 83.4621 132.692 83.7749 132.379C84.0877 132.066 84.2635 131.642 84.2635 131.199V131.199Z" fill="#2A5578"/>
<path d="M87.0839 139.036C86.4208 139.062 85.7937 139.344 85.3339 139.822C84.874 140.301 84.6172 140.939 84.6172 141.602C84.6172 142.266 84.874 142.903 85.3339 143.382C85.7937 143.86 86.4208 144.142 87.0839 144.168C87.4915 144.166 87.8924 144.064 88.2519 143.872C88.2519 142.46 88.2519 140.908 88.2519 139.332C87.892 139.141 87.4913 139.04 87.0839 139.036Z" fill="#2A5578"/>
<path opacity="0.2" d="M91.5162 155.836C91.5162 153.036 88.7162 152.864 88.3922 150.052C88.0682 147.24 88.3922 125.652 88.3922 125.652L81.3562 124.556V133.64C82.8362 134.572 84.7603 135.444 86.6843 135.336V151.6C86.6843 151.6 88.0242 155.164 87.1322 158.06C86.2402 160.956 79.3322 160.956 77.1042 163.632C74.8762 166.308 73.3162 171.876 71.1042 174.328C70.3682 175.129 69.5474 175.848 68.6562 176.472C68.9334 176.487 69.2111 176.487 69.4883 176.472C74.0203 176.156 75.1162 172.56 77.6162 168.964C80.1162 165.368 81.6842 162.084 85.4362 161.616C89.1882 161.148 91.5162 160.368 91.5162 155.836Z" fill="black"/>
<path d="M81.3563 124.563V152.863C81.3563 152.863 73.0683 158.807 69.3163 160.367C65.5643 161.927 59.6203 158.179 56.0243 161.167C52.4283 164.155 53.6803 168.799 58.0563 169.279C58.0563 169.279 58.0563 171.783 60.2483 172.879C60.9301 173.197 61.6685 173.375 62.4201 173.402C63.1717 173.43 63.9211 173.306 64.6243 173.039C64.6243 173.039 64.9363 176.791 69.4723 176.479C74.0083 176.167 75.1003 172.567 77.6003 168.971C80.1003 165.375 81.6683 162.091 85.4203 161.623C89.1723 161.155 91.5163 160.371 91.5163 155.839C91.5163 153.039 88.7163 152.867 88.3923 150.055C88.0683 147.243 88.3923 125.655 88.3923 125.655L81.3563 124.563Z" stroke="#263238" stroke-width="1.20355" stroke-linecap="round" stroke-linejoin="round"/>
<path d="M64.6253 173.035C64.6253 173.035 64.4693 167.559 71.2013 165.199" stroke="#263238" stroke-width="1.20355" stroke-linecap="round" stroke-linejoin="round"/>
<path d="M58.0586 169.28C58.0586 169.28 58.0586 164.904 65.4106 163.184" stroke="#263238" stroke-width="1.20355" stroke-linecap="round" stroke-linejoin="round"/>
<path d="M65.3279 172.143C65.3279 172.143 63.1559 173.547 62.5279 175.551C62.4722 175.728 62.4819 175.918 62.5554 176.088C62.6289 176.258 62.7612 176.395 62.9279 176.475C63.0482 176.536 63.1826 176.564 63.3171 176.555C63.4516 176.545 63.5811 176.5 63.6919 176.423C64.3439 175.983 65.7679 175.087 66.9999 174.859C67.3127 174.8 67.6037 174.658 67.8418 174.446C68.0799 174.235 68.2562 173.963 68.3519 173.659C68.4125 173.459 68.4285 173.248 68.3988 173.04C68.3691 172.833 68.2944 172.635 68.1799 172.459C67.3639 171.199 66.5799 171.199 65.3279 172.143Z" fill="white" stroke="#263238" stroke-width="1.20355" stroke-linecap="round" stroke-linejoin="round"/>
<path d="M58.8605 169.471C58.8605 169.471 56.6885 170.879 56.0405 172.879C55.9839 173.056 55.9932 173.247 56.0668 173.417C56.1404 173.587 56.2732 173.724 56.4405 173.803V173.803C56.5607 173.864 56.6948 173.891 56.829 173.883C56.9632 173.874 57.0928 173.83 57.2045 173.755C57.8565 173.311 59.2805 172.419 60.5125 172.187C60.8255 172.129 61.1167 171.986 61.3548 171.775C61.593 171.563 61.7691 171.291 61.8645 170.987C61.9251 170.787 61.9411 170.576 61.9114 170.368C61.8816 170.161 61.807 169.963 61.6925 169.787C60.8925 168.535 60.1125 168.535 58.8605 169.471Z" fill="white" stroke="#263238" stroke-width="1.20355" stroke-linecap="round" stroke-linejoin="round"/>
<path d="M53.6996 165.024C53.6996 165.024 51.5276 166.428 50.8756 168.432C50.8198 168.608 50.8296 168.799 50.9031 168.968C50.9765 169.138 51.1088 169.276 51.2756 169.356C51.3961 169.415 51.5304 169.442 51.6646 169.433C51.7988 169.424 51.9282 169.379 52.0396 169.304C52.6916 168.86 54.1196 167.968 55.3476 167.736C55.6609 167.678 55.9525 167.536 56.1908 167.324C56.429 167.113 56.605 166.84 56.6996 166.536C56.761 166.335 56.7774 166.124 56.7477 165.916C56.7179 165.709 56.6428 165.511 56.5276 165.336C55.7316 164.084 54.9476 164.084 53.6996 165.024Z" fill="white" stroke="#263238" stroke-width="1.20355" stroke-linecap="round" stroke-linejoin="round"/>
<path d="M106 124.563V152.863C106 152.863 114.288 158.807 118.04 160.367C121.792 161.927 127.732 158.179 131.328 161.167C134.924 164.155 133.676 168.827 129.296 169.295C129.296 169.295 129.296 171.799 127.108 172.895C126.425 173.213 125.686 173.391 124.934 173.418C124.182 173.445 123.432 173.322 122.728 173.055C122.728 173.055 122.416 176.807 117.884 176.495C113.352 176.183 112.252 172.583 109.752 168.987C107.252 165.391 105.688 162.107 101.936 161.639C98.1839 161.171 95.8359 160.387 95.8359 155.855C95.8359 153.055 98.6359 152.883 98.9639 150.071C99.2919 147.259 98.9639 125.671 98.9639 125.671L106 124.563Z" fill="white"/>
<path d="M102.74 152.635C103.873 152.635 104.792 151.717 104.792 150.583C104.792 149.45 103.873 148.531 102.74 148.531C101.606 148.531 100.688 149.45 100.688 150.583C100.688 151.717 101.606 152.635 102.74 152.635Z" fill="#2A5578"/>
<path d="M99.0944 136.668C99.4062 136.862 99.7646 136.97 100.132 136.978C100.5 136.987 100.863 136.897 101.183 136.717C101.504 136.538 101.771 136.275 101.955 135.957C102.14 135.64 102.236 135.278 102.233 134.91C102.23 134.543 102.128 134.183 101.938 133.868C101.749 133.553 101.478 133.295 101.154 133.121C100.831 132.946 100.466 132.862 100.099 132.877C99.7317 132.891 99.3751 133.004 99.0664 133.204C99.0744 134.312 99.0864 135.48 99.0944 136.668Z" fill="#2A5578"/>
<path d="M106 139.407C105.354 139.588 104.785 139.976 104.379 140.51C103.973 141.045 103.754 141.698 103.754 142.369C103.754 143.04 103.973 143.693 104.379 144.228C104.785 144.763 105.354 145.15 106 145.331V139.407Z" fill="#2A5578"/>
<path opacity="0.2" d="M98.9766 125.659C98.9766 125.659 99.0366 129.759 99.0766 134.615C101.109 134.838 103.162 134.784 105.181 134.455C105.181 134.455 104.065 151.163 104.289 153.391C104.513 155.619 114.537 161.415 117.437 162.083C120.337 162.751 125.409 162.395 128.129 163.863C129.793 164.763 130.589 167.135 130.953 168.851C133.941 167.531 134.437 163.707 131.353 161.151C127.753 158.179 121.817 161.931 118.065 160.351C114.313 158.771 106.001 152.863 106.001 152.863V124.563L98.9766 125.659Z" fill="black"/>
<path d="M106 124.563V152.863C106 152.863 114.288 158.807 118.04 160.367C121.792 161.927 127.732 158.179 131.328 161.167C134.924 164.155 133.676 168.827 129.296 169.295C129.296 169.295 129.296 171.799 127.108 172.895C126.425 173.213 125.686 173.391 124.934 173.418C124.182 173.445 123.432 173.322 122.728 173.055C122.728 173.055 122.416 176.807 117.884 176.495C113.352 176.183 112.252 172.583 109.752 168.987C107.252 165.391 105.688 162.107 101.936 161.639C98.1839 161.171 95.8359 160.387 95.8359 155.855C95.8359 153.055 98.6359 152.883 98.9639 150.071C99.2919 147.259 98.9639 125.671 98.9639 125.671L106 124.563Z" stroke="#263238" stroke-width="1.20355" stroke-linecap="round" stroke-linejoin="round"/>
<path d="M122.74 173.036C122.74 173.036 122.896 167.56 116.176 165.216" stroke="#263238" stroke-width="1.20355" stroke-linecap="round" stroke-linejoin="round"/>
<path d="M129.309 169.28C129.309 169.28 129.309 164.904 121.961 163.184" stroke="#263238" stroke-width="1.20355" stroke-linecap="round" stroke-linejoin="round"/>
<path d="M122.039 172.143C122.039 172.143 124.211 173.547 124.859 175.551C124.915 175.726 124.908 175.914 124.838 176.083C124.769 176.252 124.641 176.391 124.479 176.475C124.359 176.536 124.224 176.564 124.09 176.555C123.955 176.545 123.826 176.5 123.715 176.423C123.063 175.983 121.635 175.087 120.407 174.859C120.094 174.802 119.802 174.659 119.564 174.448C119.325 174.236 119.149 173.964 119.055 173.659C118.994 173.459 118.977 173.248 119.006 173.041C119.035 172.834 119.109 172.635 119.223 172.459C120.003 171.199 120.803 171.199 122.039 172.143Z" fill="white" stroke="#263238" stroke-width="1.20355" stroke-linecap="round" stroke-linejoin="round"/>
<path d="M128.507 169.471C128.507 169.471 130.679 170.879 131.327 172.879C131.386 173.053 131.379 173.243 131.309 173.412C131.24 173.582 131.111 173.721 130.947 173.803V173.803C130.827 173.864 130.693 173.892 130.559 173.883C130.425 173.875 130.295 173.831 130.183 173.755C129.531 173.311 128.103 172.419 126.875 172.187C126.562 172.13 126.27 171.988 126.032 171.776C125.793 171.565 125.618 171.292 125.523 170.987C125.462 170.787 125.446 170.576 125.475 170.368C125.505 170.161 125.58 169.963 125.695 169.787C126.475 168.535 127.255 168.535 128.507 169.471Z" fill="white" stroke="#263238" stroke-width="1.20355" stroke-linecap="round" stroke-linejoin="round"/>
<path d="M133.67 165.024C133.67 165.024 135.842 166.428 136.49 168.432C136.545 168.608 136.534 168.798 136.461 168.968C136.388 169.137 136.256 169.275 136.09 169.356V169.356C135.969 169.416 135.834 169.443 135.699 169.433C135.564 169.424 135.434 169.38 135.322 169.304C134.67 168.86 133.246 167.968 132.014 167.736C131.701 167.678 131.409 167.536 131.172 167.325C130.934 167.113 130.759 166.84 130.666 166.536C130.603 166.336 130.586 166.124 130.615 165.917C130.644 165.709 130.719 165.511 130.834 165.336C131.638 164.084 132.402 164.084 133.67 165.024Z" fill="white" stroke="#263238" stroke-width="1.20355" stroke-linecap="round" stroke-linejoin="round"/>
<path d="M53.8887 139.668C53.8887 139.668 53.8047 136.216 54.7327 135.124C55.6607 134.032 56.7327 139.08 56.6647 139.752C56.5967 140.424 55.4047 141.6 53.8887 139.668Z" fill="white" stroke="#263238" stroke-width="1.20355" stroke-linecap="round" stroke-linejoin="round"/>
<path d="M59.9512 138.488C59.9512 138.488 59.8672 135.04 60.7912 133.948C61.7152 132.856 62.8112 137.9 62.7272 138.572C62.6432 139.244 61.4632 140.424 59.9512 138.488Z" fill="white" stroke="#263238" stroke-width="1.20355" stroke-linecap="round" stroke-linejoin="round"/>
<path d="M53.3796 143.143C53.3796 143.143 52.2836 138.135 54.9476 137.819C57.6116 137.503 59.8036 146.903 59.8036 146.903C59.8036 146.903 57.9236 136.879 61.2116 136.567C64.4996 136.255 64.8116 145.651 64.8116 146.435C64.8116 147.219 62.0116 150.663 57.7636 151.603C53.5156 152.543 53.3796 143.143 53.3796 143.143Z" fill="white" stroke="#263238" stroke-width="1.20355" stroke-linecap="round" stroke-linejoin="round"/>
<path d="M49.9356 142.023C49.9356 142.023 49.8516 138.571 50.7756 137.479C51.6996 136.387 52.7956 141.435 52.7116 142.107C52.6276 142.779 51.4476 143.959 49.9356 142.023Z" fill="white" stroke="#263238" stroke-width="1.20355" stroke-linecap="round" stroke-linejoin="round"/>
<path d="M66.0706 96.6356C66.0706 96.6356 62.1546 99.9236 59.9626 106.812C57.7706 113.7 56.9866 116.836 59.1626 116.368C61.3386 115.9 62.1386 113.236 62.1386 113.236C62.1386 113.236 59.4746 121.064 60.8866 121.692C62.2986 122.32 64.1746 120.892 64.1746 120.892C64.1746 120.892 63.5626 127.8 64.8026 129.836C66.0426 131.872 66.5226 131.872 66.5226 131.872V144.4C66.5226 144.4 62.7666 143.46 59.6346 145.024C56.5026 146.588 56.1866 148.94 56.1866 148.94C56.1866 148.94 54.7786 141.424 51.6466 140.328C48.5146 139.232 48.5146 146.12 50.2346 150.036C51.9546 153.952 57.2826 155.676 57.7546 155.676C58.2266 155.676 56.8146 156.928 56.8146 156.928L61.0426 155.832C61.0426 155.832 59.0066 158.18 60.4146 158.18C61.8226 158.18 66.4026 155.832 66.4026 155.832C66.4026 155.832 64.8386 157.712 66.7146 157.712C68.5906 157.712 71.2586 154.912 71.2586 154.912C71.2586 154.912 71.2586 156.32 72.9786 154.6C74.6986 152.88 78.4626 153.188 79.2426 143C80.0226 132.812 79.2426 119.98 79.2426 119.98C79.2426 119.98 75.4666 89.8996 66.0706 96.6356Z" fill="white"/>
<path d="M76.6734 121.919C77.7037 119.45 76.5374 116.613 74.0684 115.583C71.5995 114.553 68.7629 115.719 67.7326 118.188C66.7024 120.657 67.8687 123.493 70.3376 124.524C72.8065 125.554 75.6432 124.388 76.6734 121.919Z" fill="#2A5578"/>
<path d="M64.4719 151.863C63.2793 151.867 62.1302 152.311 61.2445 153.11C60.3589 153.908 59.7989 155.006 59.6719 156.191L61.0719 155.831C61.0719 155.831 59.0359 158.179 60.4439 158.179C61.8519 158.179 66.3999 155.831 66.3999 155.831C66.3999 155.831 64.8359 157.711 66.7119 157.711C67.5319 157.711 68.4959 157.175 69.3279 156.571C69.2934 155.308 68.7661 154.108 67.8587 153.228C66.9513 152.349 65.7357 151.859 64.4719 151.863Z" fill="#2A5578"/>
<path d="M78.7639 142.034C80.0383 138.93 78.555 135.38 75.4507 134.106C72.3464 132.832 68.7968 134.315 67.5224 137.419C66.248 140.524 67.7313 144.073 70.8356 145.348C73.9399 146.622 77.4895 145.139 78.7639 142.034Z" fill="#2A5578"/>
<path d="M59.1774 116.367C61.0774 115.967 61.9174 113.907 62.1094 113.367C61.5582 115.017 61.1014 116.697 60.7414 118.399C61.8063 117.978 62.6996 117.212 63.2791 116.224C63.8585 115.236 64.0908 114.083 63.939 112.948C63.7872 111.812 63.2601 110.76 62.4414 109.959C61.6228 109.158 60.5597 108.654 59.4214 108.527C57.6574 114.215 57.1774 116.799 59.1774 116.367Z" fill="#2A5578"/>
<path opacity="0.2" d="M66.0689 96.6356C66.0689 96.6356 64.0209 98.3636 62.0689 101.924C62.089 106.357 62.9622 110.745 64.6409 114.848C69.0969 125.32 75.1129 128.216 75.1129 128.216C75.1129 128.216 76.4489 140.692 73.9969 147.376C71.6889 153.676 65.0289 156.412 56.7969 155.404C57.1101 155.529 57.436 155.62 57.7689 155.676C58.2369 155.676 56.8289 156.928 56.8289 156.928L61.0569 155.832C61.0569 155.832 59.0209 158.18 60.4289 158.18C61.8369 158.18 66.4009 155.832 66.4009 155.832C66.4009 155.832 64.8369 157.712 66.7129 157.712C68.5889 157.712 71.2569 154.912 71.2569 154.912C71.2569 154.912 71.2569 156.32 72.9769 154.6C74.6969 152.88 78.4609 153.188 79.2409 143C80.0209 132.812 79.2409 119.98 79.2409 119.98C79.2409 119.98 75.4649 89.8996 66.0689 96.6356Z" fill="black"/>
<path d="M66.0706 96.6356C66.0706 96.6356 62.1546 99.9236 59.9626 106.812C57.7706 113.7 56.9866 116.836 59.1626 116.368C61.3386 115.9 62.1386 113.236 62.1386 113.236C62.1386 113.236 59.4746 121.064 60.8866 121.692C62.2986 122.32 64.1746 120.892 64.1746 120.892C64.1746 120.892 63.5626 127.8 64.8026 129.836C66.0426 131.872 66.5226 131.872 66.5226 131.872V144.4C66.5226 144.4 62.7666 143.46 59.6346 145.024C56.5026 146.588 56.1866 148.94 56.1866 148.94C56.1866 148.94 54.7786 141.424 51.6466 140.328C48.5146 139.232 48.5146 146.12 50.2346 150.036C51.9546 153.952 57.2826 155.676 57.7546 155.676C58.2266 155.676 56.8146 156.928 56.8146 156.928L61.0426 155.832C61.0426 155.832 59.0066 158.18 60.4146 158.18C61.8226 158.18 66.4026 155.832 66.4026 155.832C66.4026 155.832 64.8386 157.712 66.7146 157.712C68.5906 157.712 71.2586 154.912 71.2586 154.912C71.2586 154.912 71.2586 156.32 72.9786 154.6C74.6986 152.88 78.4626 153.188 79.2426 143C80.0226 132.812 79.2426 119.98 79.2426 119.98C79.2426 119.98 75.4666 89.8996 66.0706 96.6356Z" stroke="#263238" stroke-width="1.20355" stroke-linecap="round" stroke-linejoin="round"/>
<path d="M68.6335 81.1121C68.6335 81.1121 64.1535 88.0001 56.0575 90.0681C47.9615 92.1361 40.8975 91.4481 41.0695 91.9641C41.2415 92.4801 43.9975 94.2041 43.9975 94.2041C43.9975 94.2041 41.4135 94.0281 41.7615 94.8921C42.1095 95.7561 44.5175 99.7161 52.6135 101.78C60.7095 103.844 65.7055 93.1681 67.2535 88.5161C68.8015 83.8641 70.0015 80.4201 68.6335 81.1121Z" fill="white"/>
<path d="M44.5273 91.6439C44.6276 92.8214 44.977 93.9642 45.5525 94.9964C46.128 96.0285 46.9164 96.9265 47.8654 97.6308C48.8144 98.3351 49.9023 98.8296 51.0569 99.0814C52.2115 99.3332 53.4065 99.3367 54.5626 99.0915C55.7187 98.8464 56.8094 98.3582 57.7624 97.6594C58.7155 96.9606 59.509 96.0672 60.0905 95.0384C60.6719 94.0095 61.028 92.8688 61.135 91.6919C61.2421 90.515 61.0977 89.3288 60.7113 88.2119C59.2448 89.0235 57.6818 89.647 56.0593 90.0679C52.2796 90.9876 48.4152 91.5157 44.5273 91.6439V91.6439Z" fill="#2A5578"/>
<path d="M68.6335 81.1121C68.6335 81.1121 64.1535 88.0001 56.0575 90.0681C47.9615 92.1361 40.8975 91.4481 41.0695 91.9641C41.2415 92.4801 43.9975 94.2041 43.9975 94.2041C43.9975 94.2041 41.4135 94.0281 41.7615 94.8921C42.1095 95.7561 44.5175 99.7161 52.6135 101.78C60.7095 103.844 65.7055 93.1681 67.2535 88.5161C68.8015 83.8641 70.0015 80.4201 68.6335 81.1121Z" stroke="#263238" stroke-width="1.20355" stroke-linecap="round" stroke-linejoin="round"/>
<path d="M118.962 80.4392C118.962 80.4392 123.442 87.3312 131.538 89.3992C139.634 91.4672 146.698 90.7752 146.526 91.2912C146.354 91.8072 143.594 93.5312 143.594 93.5312C143.594 93.5312 146.178 93.3592 145.834 94.2192C145.49 95.0792 143.078 99.0432 134.982 101.111C126.886 103.179 121.89 92.4992 120.342 87.8472C118.794 83.1952 117.602 79.7512 118.962 80.4392Z" fill="white"/>
<path d="M136.594 90.3994C135.944 92.0432 135.937 93.8713 136.575 95.5198C137.212 97.1683 138.447 98.5163 140.034 99.2954C144.154 97.2674 145.578 94.8714 145.834 94.2234C146.178 93.3634 143.594 93.5354 143.594 93.5354C143.594 93.5354 146.354 91.8114 146.526 91.2954C146.658 90.8874 142.354 91.2234 136.594 90.3994Z" fill="#2A5578"/>
<path opacity="0.2" d="M129.022 93.6792C129.218 92.0312 128.906 90.0512 128.494 88.3392C124.68 86.5848 121.394 83.8609 118.962 80.4392C117.586 79.7512 118.79 83.1952 120.342 87.8472C121.894 92.4992 126.886 103.179 134.982 101.111C129.134 101.199 128.578 97.4672 129.022 93.6792Z" fill="black"/>
<path d="M118.962 80.4392C118.962 80.4392 123.442 87.3312 131.538 89.3992C139.634 91.4672 146.698 90.7752 146.526 91.2912C146.354 91.8072 143.594 93.5312 143.594 93.5312C143.594 93.5312 146.178 93.3592 145.834 94.2192C145.49 95.0792 143.078 99.0432 134.982 101.111C126.886 103.179 121.89 92.4992 120.342 87.8472C118.794 83.1952 117.602 79.7512 118.962 80.4392Z" stroke="#263238" stroke-width="1.20355" stroke-linecap="round" stroke-linejoin="round"/>
<path d="M75.8648 72.1514C75.8648 72.1514 70.3528 73.1874 67.4248 72.1514C64.4968 71.1154 66.5648 69.0514 65.3568 67.5034C64.1488 65.9554 60.5568 68.7034 60.1888 73.7034C59.8208 78.7034 65.5288 81.4554 71.3888 81.9714L78.2768 72.1514H75.8648Z" fill="#2A5578" stroke="#263238" stroke-width="1.20355" stroke-linecap="round" stroke-linejoin="round"/>
<path d="M69.2628 72.5319C68.6592 72.479 68.0634 72.3582 67.4868 72.1719C66.2384 72.9904 65.2495 74.1483 64.6366 75.5095C64.0237 76.8707 63.8121 78.3786 64.0268 79.8559C64.4567 80.1018 64.9001 80.3235 65.3548 80.5199C65.0828 79.4519 64.3108 74.9999 69.2628 72.5319Z" fill="#263238"/>
<path d="M65.7579 69.6758C63.2299 70.2478 61.4019 71.2758 60.2939 72.7878C60.2499 73.0838 60.2139 73.3878 60.1899 73.7038C60.1443 74.358 60.2092 75.0152 60.3819 75.6478C60.4745 75.0109 60.6934 74.3989 61.0259 73.8478C61.8939 72.4358 63.5219 71.4478 65.8779 70.8838C65.7569 70.4933 65.7161 70.0824 65.7579 69.6758V69.6758Z" fill="#263238"/>
<path d="M112.932 72.1514C112.932 72.1514 118.448 73.1874 121.376 72.1514C124.304 71.1154 122.236 69.0514 123.44 67.5034C124.644 65.9554 128.264 68.7034 128.608 73.7034C128.952 78.7034 123.268 81.4554 117.408 81.9714L110.52 72.1514H112.932Z" fill="#2A5578" stroke="#263238" stroke-width="1.20355" stroke-linecap="round" stroke-linejoin="round"/>
<path d="M119.543 72.5319C120.147 72.479 120.742 72.3582 121.319 72.1719C122.567 72.9904 123.556 74.1483 124.169 75.5095C124.782 76.8707 124.994 78.3786 124.779 79.8559C124.349 80.1018 123.906 80.3235 123.451 80.5199C123.719 79.4519 124.495 74.9999 119.543 72.5319Z" fill="#263238"/>
<path d="M123.046 69.6758C125.57 70.2478 127.402 71.2758 128.51 72.7878C128.554 73.0838 128.59 73.3878 128.61 73.7038C128.657 74.3577 128.593 75.0149 128.422 75.6478C128.329 75.0109 128.11 74.3989 127.778 73.8478C126.91 72.4358 125.278 71.4478 122.926 70.8838C123.047 70.4933 123.088 70.0824 123.046 69.6758V69.6758Z" fill="#263238"/>
<path d="M94.2623 130.056C110.477 130.056 123.622 115.24 123.622 96.9641C123.622 78.6879 110.477 63.8721 94.2623 63.8721C78.0473 63.8721 64.9023 78.6879 64.9023 96.9641C64.9023 115.24 78.0473 130.056 94.2623 130.056Z" fill="white"/>
<path d="M80.1582 72.0556C80.8883 72.0571 81.6071 71.8751 82.2485 71.5262C82.8899 71.1773 83.4333 70.6728 83.8287 70.0591C84.2242 69.4454 84.4591 68.7421 84.5118 68.0139C84.5644 67.2856 84.4332 66.5559 84.1302 65.8916C81.452 67.0087 78.9605 68.5289 76.7422 70.3996C77.1499 70.9153 77.6689 71.3321 78.2605 71.6189C78.852 71.9057 79.5008 72.055 80.1582 72.0556V72.0556Z" fill="#2A5578"/>
<path d="M79.9041 119.276C79.9041 115.732 77.3761 112.876 74.2601 112.876C73.3779 112.892 72.5131 113.124 71.7407 113.551C70.9683 113.977 70.3118 114.586 69.8281 115.324C71.8687 118.804 74.554 121.862 77.7401 124.336C78.4361 123.692 78.9885 122.908 79.3614 122.037C79.7343 121.165 79.9192 120.224 79.9041 119.276V119.276Z" fill="#2A5578"/>
<path d="M96.3246 128.512C98.4498 128.512 100.173 127.018 100.173 125.176C100.173 123.333 98.4498 121.84 96.3246 121.84C94.1994 121.84 92.4766 123.333 92.4766 125.176C92.4766 127.018 94.1994 128.512 96.3246 128.512Z" fill="#2A5578"/>
<path d="M76.8225 93.8677C76.8225 87.9677 72.7825 83.1477 67.7025 82.8477C65.8407 87.3203 64.8888 92.119 64.9025 96.9637C64.9028 99.5895 65.1803 102.208 65.7305 104.776C66.2152 104.861 66.7064 104.903 67.1985 104.904C72.5145 104.904 76.8225 99.9637 76.8225 93.8677Z" fill="#2A5578"/>
<path d="M121.182 106.65C121.999 104.688 121.071 102.436 119.11 101.618C117.148 100.801 114.895 101.728 114.078 103.69C113.26 105.652 114.188 107.905 116.15 108.722C118.111 109.54 120.364 108.612 121.182 106.65Z" fill="#2A5578"/>
<path d="M119.422 112.087C119.423 112.522 119.548 112.948 119.782 113.315C120.357 112.178 120.871 111.011 121.322 109.819C120.79 109.915 120.308 110.194 119.961 110.609C119.613 111.023 119.423 111.547 119.422 112.087V112.087Z" fill="#2A5578"/>
<path d="M118.044 116.355C116.655 115.728 115.109 115.536 113.608 115.802C112.107 116.069 110.722 116.782 109.634 117.849C108.545 118.916 107.804 120.286 107.508 121.781C107.211 123.276 107.373 124.826 107.972 126.227C112.047 123.758 115.494 120.38 118.044 116.355V116.355Z" fill="#2A5578"/>
<path d="M116.229 75.0195C115.006 76.3853 114.2 78.0726 113.906 79.8819C113.612 81.6912 113.841 83.5469 114.568 85.2297C115.295 86.9125 116.489 88.3519 118.008 89.3779C119.527 90.4039 121.308 90.9736 123.141 91.0195C122.231 85.1862 119.852 79.6802 116.229 75.0195Z" fill="#2A5578"/>
<path opacity="0.2" d="M110.403 69.332C112.403 72.248 115.455 77.804 117.647 86.996C121.215 101.924 118.315 108.16 118.315 108.16L116.535 103.704C116.535 103.704 117.203 109.276 115.203 112.62C113.203 115.964 111.739 118.552 111.019 120.04C110.299 121.528 110.299 117.964 110.299 117.964C110.299 117.964 108.643 122.744 107.355 123.252C106.067 123.76 102.279 125.764 102.279 125.764L102.499 123.092C102.499 123.092 96.9309 125.32 93.8109 125.32C90.6909 125.32 82.8909 124.428 78.6589 121.752C76.2589 120.236 72.7709 117.78 70.2109 115.944C75.5189 124.476 84.3069 130.056 94.2549 130.056C110.467 130.056 123.615 115.256 123.615 96.964C123.623 85.416 118.371 75.252 110.403 69.332Z" fill="black"/>
<path d="M94.2623 130.056C110.477 130.056 123.622 115.24 123.622 96.9641C123.622 78.6879 110.477 63.8721 94.2623 63.8721C78.0473 63.8721 64.9023 78.6879 64.9023 96.9641C64.9023 115.24 78.0473 130.056 94.2623 130.056Z" stroke="#263238" stroke-width="1.20355" stroke-linecap="round" stroke-linejoin="round"/>
<path d="M92.3763 65.3119C92.3763 65.3119 92.2203 64.8439 89.5563 63.9039C86.8923 62.9639 83.9203 64.2159 85.4843 62.9639C87.0483 61.7119 92.3763 61.5559 93.3163 62.4959C94.2563 63.4359 90.3403 61.0839 90.3403 59.5199C90.3403 57.9559 94.8843 58.7199 96.2923 59.9879C97.0389 60.6065 97.6747 61.3478 98.1723 62.1799C98.1723 62.1799 98.0163 56.3879 100.832 54.9799C103.648 53.5719 105.844 56.3919 104.592 57.9559C103.34 59.5199 100.676 62.1839 100.676 62.1839C100.676 62.1839 107.096 59.8359 106.784 62.4999C106.472 65.1639 100.048 65.2999 100.048 65.2999" fill="white"/>
<path d="M92.3763 65.3119C92.3763 65.3119 92.2203 64.8439 89.5563 63.9039C86.8923 62.9639 83.9203 64.2159 85.4843 62.9639C87.0483 61.7119 92.3763 61.5559 93.3163 62.4959C94.2563 63.4359 90.3403 61.0839 90.3403 59.5199C90.3403 57.9559 94.8843 58.7199 96.2923 59.9879C97.0389 60.6065 97.6747 61.3478 98.1723 62.1799C98.1723 62.1799 98.0163 56.3879 100.832 54.9799C103.648 53.5719 105.844 56.3919 104.592 57.9559C103.34 59.5199 100.676 62.1839 100.676 62.1839C100.676 62.1839 107.096 59.8359 106.784 62.4999C106.472 65.1639 100.048 65.2999 100.048 65.2999" stroke="#263238" stroke-width="1.20355" stroke-linecap="round" stroke-linejoin="round"/>
<path d="M94.9622 96.6753C99.502 96.6753 103.182 92.8554 103.182 88.1433C103.182 83.4312 99.502 79.6113 94.9622 79.6113C90.4224 79.6113 86.7422 83.4312 86.7422 88.1433C86.7422 92.8554 90.4224 96.6753 94.9622 96.6753Z" fill="#263238" stroke="#263238" stroke-width="1.20355" stroke-linecap="round" stroke-linejoin="round"/>
<path d="M94.9622 95.5357C99.502 95.5357 103.182 91.8555 103.182 87.3157C103.182 82.7759 99.502 79.0957 94.9622 79.0957C90.4224 79.0957 86.7422 82.7759 86.7422 87.3157C86.7422 91.8555 90.4224 95.5357 94.9622 95.5357Z" fill="#2A5578" stroke="#263238" stroke-width="1.20355" stroke-linecap="round" stroke-linejoin="round"/>
<path d="M96.6158 91.2911C98.8119 90.3756 99.85 87.8532 98.9345 85.6572C98.019 83.4611 95.4966 82.423 93.3005 83.3385C91.1045 84.254 90.0664 86.7763 90.9818 88.9724C91.8973 91.1685 94.4197 92.2066 96.6158 91.2911Z" fill="#263238" stroke="#263238" stroke-width="1.20355" stroke-linecap="round" stroke-linejoin="round"/>
<path d="M85.0183 72.36C85.0183 72.36 80.4783 73.16 79.8503 75.024C79.2223 76.888 82.6503 77.216 82.6503 77.216C82.6503 77.216 78.5783 80.66 80.4583 81.912C82.3383 83.164 85.9383 78.468 85.9383 78.468C85.9383 78.468 90.1663 81.756 94.5503 81.756C98.9343 81.756 103.322 78.312 103.322 78.312C103.322 78.312 107.078 82.54 108.49 81.756C109.902 80.972 106.002 75.964 106.002 75.964C106.002 75.964 109.602 76.764 106.63 73.928C105.828 73.1202 104.821 72.5471 103.717 72.2708C102.613 71.9944 101.454 72.0252 100.366 72.36" fill="white"/>
<path d="M85.0183 72.36C85.0183 72.36 80.4783 73.16 79.8503 75.024C79.2223 76.888 82.6503 77.216 82.6503 77.216C82.6503 77.216 78.5783 80.66 80.4583 81.912C82.3383 83.164 85.9383 78.468 85.9383 78.468C85.9383 78.468 90.1663 81.756 94.5503 81.756C98.9343 81.756 103.322 78.312 103.322 78.312C103.322 78.312 107.078 82.54 108.49 81.756C109.902 80.972 106.002 75.964 106.002 75.964C106.002 75.964 109.602 76.764 106.63 73.928C105.828 73.1202 104.821 72.5471 103.717 72.2708C102.613 71.9944 101.454 72.0252 100.366 72.36" stroke="#263238" stroke-width="1.20355" stroke-linecap="round" stroke-linejoin="round"/>
<path d="M83.6013 97.7313C81.4851 99.0631 79.6715 100.824 78.2773 102.899C75.7693 106.499 76.5533 108.691 77.8053 108.847C79.0573 109.003 83.2853 103.523 83.2853 103.523C83.2853 103.523 81.2493 108.691 83.7573 108.379C86.2653 108.067 89.2373 102.271 89.2373 102.271C89.2373 102.271 89.0813 105.871 90.9613 105.715C92.8413 105.559 95.0333 99.2953 95.0333 99.2953C95.0333 99.2953 96.1293 105.559 98.0093 105.559C99.8893 105.559 100.041 101.643 100.041 101.643C100.041 101.643 102.237 108.535 104.113 107.127C105.989 105.719 104.741 101.175 104.741 101.175C104.741 101.175 106.465 110.415 108.813 108.691C111.161 106.967 107.717 99.6113 105.213 96.9473" stroke="#263238" stroke-width="1.20355" stroke-linecap="round" stroke-linejoin="round"/>
<path d="M104.245 116.523C103.804 116.523 103.371 116.404 102.993 116.179C102.614 115.954 102.303 115.63 102.093 115.243C101.977 115.039 99.6328 110.931 94.9688 110.931C90.3048 110.931 86.7088 115.391 86.6768 115.435C86.2709 115.925 85.6904 116.239 85.0579 116.309C84.4254 116.379 83.7904 116.2 83.2871 115.811C82.7839 115.421 82.4518 114.851 82.361 114.221C82.2702 113.591 82.4279 112.951 82.8008 112.435C83.0048 112.175 87.8488 106.035 94.9688 106.035C102.621 106.035 106.253 112.635 106.401 112.919C106.598 113.292 106.696 113.71 106.685 114.131C106.674 114.553 106.555 114.965 106.338 115.327C106.121 115.689 105.814 115.989 105.448 116.198C105.081 116.407 104.667 116.517 104.245 116.519V116.523Z" fill="#263238"/>
<path d="M83.9492 111.16L87.6812 112.452L87.2532 108.472C86.0603 109.249 84.9528 110.15 83.9492 111.16V111.16Z" fill="white"/>
<path d="M102.827 108.8L102.559 113.236L106.215 112.588C105.309 111.142 104.163 109.861 102.827 108.8Z" fill="white"/>
<path d="M103.966 113.235L101.566 114.435C101.761 114.692 101.942 114.959 102.106 115.235C102.317 115.623 102.628 115.946 103.006 116.171C103.385 116.397 103.818 116.515 104.258 116.515C104.496 116.513 104.731 116.477 104.958 116.407L103.966 113.235Z" fill="white"/>
<path d="M86.6776 115.436C86.9287 115.135 87.1958 114.848 87.4776 114.576L84.4016 112.92L83.6016 116.1C84.1105 116.368 84.6979 116.449 85.2604 116.328C85.8229 116.206 86.3247 115.891 86.6776 115.436V115.436Z" fill="white"/>
<path d="M104.245 116.523C103.804 116.523 103.371 116.404 102.993 116.179C102.614 115.954 102.303 115.63 102.093 115.243C101.977 115.039 99.6328 110.931 94.9688 110.931C90.3048 110.931 86.7088 115.391 86.6768 115.435C86.2709 115.925 85.6904 116.239 85.0579 116.309C84.4254 116.379 83.7904 116.2 83.2871 115.811C82.7839 115.421 82.4518 114.851 82.361 114.221C82.2702 113.591 82.4279 112.951 82.8008 112.435C83.0048 112.175 87.8488 106.035 94.9688 106.035C102.621 106.035 106.253 112.635 106.401 112.919C106.598 113.292 106.696 113.71 106.685 114.131C106.674 114.553 106.555 114.965 106.338 115.327C106.121 115.689 105.814 115.989 105.448 116.198C105.081 116.407 104.667 116.517 104.245 116.519V116.523Z" stroke="#263238" stroke-width="1.20355" stroke-linecap="round" stroke-linejoin="round"/>
<path d="M93.8195 85.024C93.8195 85.4987 93.6788 85.9627 93.4151 86.3574C93.1513 86.7521 92.7765 87.0597 92.338 87.2413C91.8994 87.423 91.4169 87.4705 90.9513 87.3779C90.4858 87.2853 90.0581 87.0567 89.7225 86.7211C89.3868 86.3854 89.1583 85.9578 89.0656 85.4922C88.973 85.0267 89.0206 84.5441 89.2022 84.1056C89.3839 83.667 89.6915 83.2922 90.0862 83.0285C90.4808 82.7648 90.9449 82.624 91.4195 82.624C92.0561 82.624 92.6665 82.8769 93.1166 83.327C93.5667 83.7771 93.8195 84.3875 93.8195 85.024V85.024Z" fill="white"/>
</svg>
