<svg width="200" height="200" viewBox="0 0 200 200" fill="none" xmlns="http://www.w3.org/2000/svg">
<path d="M108.223 19.8078C108.223 19.8078 79.8231 16.3398 57.6591 37.0078C35.4951 57.6758 29.5431 90.1838 24.0271 116.376C18.5111 142.568 30.6351 165.22 52.8591 171.796C75.0831 178.372 84.5791 159.172 111.911 152.196C139.243 145.22 147.583 147.504 166.711 126.744C185.839 105.984 181.215 68.1478 156.711 44.8958C132.207 21.6438 108.223 19.8078 108.223 19.8078Z" fill="#68A395"/>
<path opacity="0.7" d="M108.223 19.8078C108.223 19.8078 79.8231 16.3398 57.6591 37.0078C35.4951 57.6758 29.5431 90.1838 24.0271 116.376C18.5111 142.568 30.6351 165.22 52.8591 171.796C75.0831 178.372 84.5791 159.172 111.911 152.196C139.243 145.22 147.583 147.504 166.711 126.744C185.839 105.984 181.215 68.1478 156.711 44.8958C132.207 21.6438 108.223 19.8078 108.223 19.8078Z" fill="white"/>
<path d="M26.4922 147.112C38.2242 143.512 62.9122 136.376 76.5362 135.84C94.8402 135.116 125.788 149.536 145.088 152.056C164.388 154.576 177.368 153.86 177.368 153.86" stroke="#263238" stroke-width="1.20355" stroke-linecap="round" stroke-linejoin="round"/>
<path d="M19.9648 149.172C19.9648 149.172 20.9808 148.84 22.7648 148.276" stroke="#263238" stroke-width="1.20355" stroke-linecap="round" stroke-linejoin="round"/>
<path d="M172.158 126.708C165.413 125.1 158.485 124.391 151.554 124.6C137.238 125.116 121.762 127.172 102.594 129.844C83.4261 132.516 56.1581 117.74 37.6021 123.224C19.0461 128.708 20.4541 130.356 20.4541 130.356" stroke="#263238" stroke-width="1.20355" stroke-linecap="round" stroke-linejoin="round"/>
<path d="M177.434 128.196C177.434 128.196 176.714 127.936 175.406 127.56" stroke="#263238" stroke-width="1.20355" stroke-linecap="round" stroke-linejoin="round"/>
<path d="M114.842 36.6001C114.62 35.6923 114.099 34.8853 113.364 34.3084C112.629 33.7315 111.721 33.418 110.786 33.418C109.852 33.418 108.944 33.7315 108.209 34.3084C107.473 34.8853 106.953 35.6923 106.73 36.6001H114.842Z" stroke="#263238" stroke-width="1.20355" stroke-linecap="round" stroke-linejoin="round"/>
<path d="M155.824 36.6002C155.578 35.5665 155.02 34.6336 154.225 33.928C153.431 33.2225 152.439 32.7784 151.384 32.6562C151.519 31.9225 151.587 31.1781 151.588 30.4322C151.584 27.4006 150.446 24.48 148.398 22.2449C146.35 20.0098 143.54 18.6219 140.52 18.3541C137.5 18.0863 134.489 18.9581 132.08 20.7979C129.67 22.6377 128.037 25.3125 127.5 28.2962C126.206 27.2831 124.623 26.7074 122.981 26.6523C121.338 26.5972 119.721 27.0655 118.362 27.9896C117.003 28.9137 115.973 30.2457 115.42 31.7934C114.868 33.3411 114.821 35.0244 115.288 36.6002H155.824Z" stroke="#263238" stroke-width="1.20355" stroke-linecap="round" stroke-linejoin="round"/>
<path d="M42.6591 46.3399C42.5468 45.8782 42.2827 45.4676 41.9092 45.174C41.5356 44.8803 41.0742 44.7207 40.5991 44.7207C40.1239 44.7207 39.6625 44.8803 39.289 45.174C38.9154 45.4676 38.6513 45.8782 38.5391 46.3399H42.6591Z" stroke="#263238" stroke-width="1.20355" stroke-linecap="round" stroke-linejoin="round"/>
<path d="M63.4643 46.3398C63.3384 45.8155 63.0545 45.3425 62.651 44.9848C62.2475 44.6271 61.7439 44.4019 61.2083 44.3398C61.3761 43.5346 61.3811 42.704 61.223 41.8969C61.0648 41.0898 60.7468 40.3225 60.2876 39.6402C59.8283 38.9579 59.2372 38.3744 58.549 37.9241C57.8608 37.4737 57.0894 37.1657 56.2803 37.0181C55.4712 36.8704 54.6407 36.8862 53.8378 37.0645C53.0349 37.2428 52.2758 37.58 51.6052 38.0561C50.9346 38.5323 50.3661 39.1378 49.9332 39.8371C49.5002 40.5364 49.2116 41.3152 49.0843 42.1278C48.4272 41.6137 47.6239 41.3216 46.7901 41.2938C45.9563 41.2659 45.1353 41.5037 44.4454 41.9728C43.7555 42.4419 43.2326 43.118 42.952 43.9037C42.6714 44.6893 42.6477 45.5438 42.8843 46.3438L63.4643 46.3398Z" stroke="#263238" stroke-width="1.20355" stroke-linecap="round" stroke-linejoin="round"/>
<path d="M61.3656 52.852C61.2932 52.562 61.1258 52.3046 60.8903 52.1207C60.6547 51.9368 60.3645 51.8369 60.0656 51.8369C59.7668 51.8369 59.4765 51.9368 59.241 52.1207C59.0054 52.3046 58.8381 52.562 58.7656 52.852H61.3656Z" stroke="#263238" stroke-width="1.20355" stroke-linecap="round" stroke-linejoin="round"/>
<path d="M74.4976 52.852C74.4175 52.5212 74.2382 52.2228 73.9837 51.9968C73.7291 51.7709 73.4115 51.6282 73.0736 51.588C73.1174 51.3532 73.1388 51.1148 73.1376 50.876C73.1385 49.9036 72.775 48.9662 72.1188 48.2487C71.4627 47.5311 70.5614 47.0854 69.5929 46.9996C68.6243 46.9137 67.6588 47.1939 66.8866 47.7848C66.1144 48.3758 65.5917 49.2346 65.4216 50.192C65.0065 49.8692 64.4998 49.6862 63.9742 49.6693C63.4486 49.6524 62.9312 49.8025 62.4963 50.0979C62.0613 50.3934 61.7311 50.8191 61.5531 51.3139C61.3751 51.8087 61.3585 52.3471 61.5056 52.852H74.4976Z" stroke="#263238" stroke-width="1.20355" stroke-linecap="round" stroke-linejoin="round"/>
<path d="M137.333 161.976H136.933C130.601 156.148 113.077 151.976 92.4493 151.976C66.4893 151.976 45.4453 158.612 45.4453 166.776C45.4453 174.94 66.4893 181.576 92.4493 181.576C109.721 181.576 124.817 178.64 132.989 174.264C134.393 174.332 135.841 174.368 137.321 174.368C150.497 174.368 161.181 171.568 161.181 168.16C161.181 164.752 150.509 161.976 137.333 161.976Z" fill="#68A395"/>
<path opacity="0.5" d="M137.333 161.976H136.933C130.601 156.148 113.077 151.976 92.4493 151.976C66.4893 151.976 45.4453 158.612 45.4453 166.776C45.4453 174.94 66.4893 181.576 92.4493 181.576C109.721 181.576 124.817 178.64 132.989 174.264C134.393 174.332 135.841 174.368 137.321 174.368C150.497 174.368 161.181 171.568 161.181 168.16C161.181 164.752 150.509 161.976 137.333 161.976Z" fill="white"/>
<path d="M122.803 102.224C122.803 102.224 124.143 114.012 130.303 116.96C136.463 119.908 139.951 115.36 139.951 111.2C139.951 107.04 146.915 103.164 152.007 103.164C157.099 103.164 158.571 109.996 156.407 115.62C154.243 121.244 151.603 127.944 141.567 131.16C131.531 134.376 125.627 130.088 125.627 130.088C125.627 130.088 127.103 133.036 125.627 133.436C124.151 133.836 120.003 129.284 120.003 129.284C120.003 129.284 121.879 133.304 119.735 131.964C117.591 130.624 115.315 122.72 115.315 122.72C115.315 122.72 115.447 125.52 113.715 125.8C111.983 126.08 111.035 120.04 111.035 120.04L122.155 99.5479L122.803 102.224Z" fill="white"/>
<path d="M146.751 122.355C145.902 122.355 145.088 122.693 144.488 123.293C143.888 123.893 143.551 124.707 143.551 125.555C143.551 126.404 143.888 127.218 144.488 127.818C145.088 128.418 145.902 128.755 146.751 128.755H146.903C147.924 128.135 148.885 127.421 149.775 126.623C149.895 126.279 149.958 125.917 149.959 125.551C149.958 125.131 149.875 124.715 149.713 124.326C149.552 123.938 149.315 123.585 149.017 123.288C148.719 122.992 148.366 122.756 147.977 122.596C147.588 122.436 147.171 122.354 146.751 122.355Z" fill="#68A395"/>
<path d="M139.711 113.136C138.815 116.588 135.519 119.448 130.315 116.96C130.088 116.85 129.868 116.729 129.655 116.596C129.358 117.717 129.371 118.897 129.693 120.011C130.015 121.125 130.634 122.131 131.483 122.92C132.332 123.71 133.38 124.254 134.514 124.495C135.649 124.735 136.827 124.663 137.924 124.286C139.02 123.908 139.994 123.24 140.74 122.353C141.486 121.465 141.977 120.391 142.161 119.247C142.344 118.102 142.213 116.928 141.782 115.852C141.35 114.776 140.634 113.837 139.711 113.136Z" fill="#68A395"/>
<path d="M127.636 130.952C127.646 130.363 127.539 129.777 127.322 129.229C127.105 128.681 126.783 128.181 126.373 127.758C125.962 127.334 125.473 126.996 124.932 126.761C124.391 126.527 123.81 126.402 123.22 126.392C122.631 126.383 122.045 126.489 121.497 126.706C120.949 126.923 120.449 127.246 120.026 127.656C119.602 128.066 119.264 128.555 119.029 129.096C118.795 129.637 118.67 130.219 118.66 130.808C118.94 131.26 119.305 131.653 119.736 131.964C121.88 133.304 120.004 129.284 120.004 129.284C120.004 129.284 124.156 133.84 125.628 133.436C127.1 133.032 125.628 130.088 125.628 130.088C126.256 130.504 126.926 130.85 127.628 131.12C127.628 131.064 127.636 131.008 127.636 130.952Z" fill="#68A395"/>
<path opacity="0.2" d="M155.763 109.276C153.311 112.396 149.299 125.54 139.051 128.44C128.803 131.34 119.451 124.652 119.451 124.652C119.451 124.652 121.011 123.092 124.131 117.744C124.999 116.254 125.741 114.694 126.347 113.08C123.547 108.54 122.823 102.224 122.823 102.224L122.155 99.5479L111.035 120.04C111.035 120.04 111.975 126.068 113.715 125.8C115.455 125.532 115.315 122.72 115.315 122.72C115.315 122.72 117.591 130.624 119.735 131.964C121.879 133.304 120.003 129.284 120.003 129.284C120.003 129.284 124.155 133.84 125.627 133.436C127.099 133.032 125.627 130.088 125.627 130.088C125.627 130.088 131.523 134.376 141.567 131.16C151.611 127.944 154.295 121.248 156.439 115.62C157.258 113.492 157.549 111.197 157.287 108.932C156.619 108.776 156.087 108.86 155.763 109.276Z" fill="black"/>
<path d="M122.803 102.224C122.803 102.224 124.143 114.012 130.303 116.96C136.463 119.908 139.951 115.36 139.951 111.2C139.951 107.04 146.915 103.164 152.007 103.164C157.099 103.164 158.571 109.996 156.407 115.62C154.243 121.244 151.603 127.944 141.567 131.16C131.531 134.376 125.627 130.088 125.627 130.088C125.627 130.088 127.103 133.036 125.627 133.436C124.151 133.836 120.003 129.284 120.003 129.284C120.003 129.284 121.879 133.304 119.735 131.964C117.591 130.624 115.315 122.72 115.315 122.72C115.315 122.72 115.447 125.52 113.715 125.8C111.983 126.08 111.035 120.04 111.035 120.04L122.155 99.5479L122.803 102.224Z" stroke="#263238" stroke-width="1.20355" stroke-linecap="round" stroke-linejoin="round"/>
<path d="M153.291 119.772C152.867 119.772 152.46 119.603 152.16 119.303C151.86 119.003 151.691 118.596 151.691 118.172V92.9717H154.891V118.172C154.891 118.596 154.723 119.003 154.423 119.303C154.123 119.603 153.716 119.772 153.291 119.772Z" fill="white" stroke="#263238" stroke-width="1.20355" stroke-linecap="round" stroke-linejoin="round"/>
<path d="M152.474 110.952C152.474 110.952 158.142 107.848 160.498 109.88C162.854 111.912 161.886 115.124 160.07 115.88C158.254 116.636 154.294 117.592 152.154 116.844C150.014 116.096 148.194 112.984 152.474 110.952Z" fill="white" stroke="#263238" stroke-width="1.20355" stroke-linecap="round" stroke-linejoin="round"/>
<path d="M150.002 102.76C150.002 102.76 157.102 98.8759 160.05 101.424C162.998 103.972 161.79 107.984 159.514 108.924C157.238 109.864 152.282 111.068 149.602 110.124C146.922 109.18 144.65 105.308 150.002 102.76Z" fill="white" stroke="#263238" stroke-width="1.20355" stroke-linecap="round" stroke-linejoin="round"/>
<path d="M140.361 113.599C140.361 113.599 138.889 106.099 141.433 101.675C143.977 97.2515 150.273 100.075 152.285 104.759C154.297 109.443 153.085 114.399 149.201 114.399C145.317 114.399 144.649 108.235 144.649 108.235" fill="white"/>
<path d="M140.361 113.599C140.361 113.599 138.889 106.099 141.433 101.675C143.977 97.2515 150.273 100.075 152.285 104.759C154.297 109.443 153.085 114.399 149.201 114.399C145.317 114.399 144.649 108.235 144.649 108.235" stroke="#263238" stroke-width="1.20355" stroke-linecap="round" stroke-linejoin="round"/>
<path d="M151.15 112.664C151.15 112.664 151.55 115.22 150.47 117.036C150.378 117.195 150.232 117.314 150.058 117.374C149.885 117.433 149.696 117.429 149.526 117.36V117.36C149.401 117.311 149.29 117.229 149.207 117.123C149.124 117.017 149.071 116.89 149.054 116.756C148.954 115.956 148.678 114.316 148.034 113.24C147.871 112.969 147.785 112.659 147.785 112.342C147.785 112.026 147.871 111.716 148.034 111.444C148.144 111.262 148.292 111.107 148.469 110.989C148.647 110.871 148.848 110.795 149.058 110.764C150.506 110.52 151.026 111.104 151.15 112.664Z" fill="white" stroke="#263238" stroke-width="1.20355" stroke-linecap="round" stroke-linejoin="round"/>
<path d="M81.3563 124.563V152.863C81.3563 152.863 73.0683 158.807 69.3163 160.367C65.5643 161.927 59.6203 158.179 56.0243 161.167C52.4283 164.155 53.6803 168.799 58.0563 169.279C58.0563 169.279 58.0563 171.783 60.2483 172.879C60.9301 173.197 61.6685 173.375 62.4201 173.402C63.1717 173.43 63.9211 173.306 64.6243 173.039C64.6243 173.039 64.9363 176.791 69.4723 176.479C74.0083 176.167 75.1003 172.567 77.6003 168.971C80.1003 165.375 81.6683 162.091 85.4203 161.623C89.1723 161.155 91.5163 160.371 91.5163 155.839C91.5163 153.039 88.7163 152.867 88.3923 150.055C88.0683 147.243 88.3923 125.655 88.3923 125.655L81.3563 124.563Z" fill="white"/>
<path d="M84.5208 156.228C85.654 156.228 86.5727 155.309 86.5727 154.176C86.5727 153.043 85.654 152.124 84.5208 152.124C83.3875 152.124 82.4688 153.043 82.4688 154.176C82.4688 155.309 83.3875 156.228 84.5208 156.228Z" fill="#68A395"/>
<path d="M84.2635 131.199C84.2635 130.98 84.2203 130.763 84.1365 130.561C84.0527 130.359 83.9298 130.175 83.7749 130.02C83.62 129.865 83.4362 129.742 83.2338 129.658C83.0314 129.574 82.8145 129.531 82.5955 129.531C82.3605 129.531 82.1283 129.582 81.9145 129.679C81.7006 129.776 81.51 129.918 81.3555 130.095V132.303C81.51 132.48 81.7006 132.622 81.9145 132.719C82.1283 132.817 82.3605 132.867 82.5955 132.867C83.0379 132.867 83.4621 132.692 83.7749 132.379C84.0877 132.066 84.2635 131.642 84.2635 131.199V131.199Z" fill="#68A395"/>
<path d="M87.0839 139.036C86.4208 139.062 85.7937 139.344 85.3339 139.822C84.874 140.301 84.6172 140.939 84.6172 141.602C84.6172 142.266 84.874 142.903 85.3339 143.382C85.7937 143.86 86.4208 144.142 87.0839 144.168C87.4915 144.166 87.8924 144.064 88.2519 143.872C88.2519 142.46 88.2519 140.908 88.2519 139.332C87.892 139.141 87.4913 139.04 87.0839 139.036Z" fill="#68A395"/>
<path opacity="0.2" d="M91.5162 155.836C91.5162 153.036 88.7162 152.864 88.3922 150.052C88.0682 147.24 88.3922 125.652 88.3922 125.652L81.3562 124.556V133.64C82.8362 134.572 84.7603 135.444 86.6843 135.336V151.6C86.6843 151.6 88.0242 155.164 87.1322 158.06C86.2402 160.956 79.3322 160.956 77.1042 163.632C74.8762 166.308 73.3162 171.876 71.1042 174.328C70.3682 175.129 69.5474 175.848 68.6562 176.472C68.9334 176.488 69.2111 176.488 69.4883 176.472C74.0203 176.156 75.1162 172.56 77.6162 168.964C80.1162 165.368 81.6842 162.084 85.4362 161.616C89.1882 161.148 91.5162 160.368 91.5162 155.836Z" fill="black"/>
<path d="M81.3563 124.563V152.863C81.3563 152.863 73.0683 158.807 69.3163 160.367C65.5643 161.927 59.6203 158.179 56.0243 161.167C52.4283 164.155 53.6803 168.799 58.0563 169.279C58.0563 169.279 58.0563 171.783 60.2483 172.879C60.9301 173.197 61.6685 173.375 62.4201 173.402C63.1717 173.43 63.9211 173.306 64.6243 173.039C64.6243 173.039 64.9363 176.791 69.4723 176.479C74.0083 176.167 75.1003 172.567 77.6003 168.971C80.1003 165.375 81.6683 162.091 85.4203 161.623C89.1723 161.155 91.5163 160.371 91.5163 155.839C91.5163 153.039 88.7163 152.867 88.3923 150.055C88.0683 147.243 88.3923 125.655 88.3923 125.655L81.3563 124.563Z" stroke="#263238" stroke-width="1.20355" stroke-linecap="round" stroke-linejoin="round"/>
<path d="M64.6253 173.036C64.6253 173.036 64.4693 167.56 71.2013 165.2" stroke="#263238" stroke-width="1.20355" stroke-linecap="round" stroke-linejoin="round"/>
<path d="M58.0586 169.28C58.0586 169.28 58.0586 164.904 65.4106 163.184" stroke="#263238" stroke-width="1.20355" stroke-linecap="round" stroke-linejoin="round"/>
<path d="M65.3279 172.143C65.3279 172.143 63.1559 173.547 62.5279 175.551C62.4722 175.728 62.4819 175.918 62.5554 176.088C62.6289 176.258 62.7612 176.395 62.9279 176.475C63.0482 176.536 63.1826 176.564 63.3171 176.555C63.4516 176.545 63.5811 176.5 63.6919 176.423C64.3439 175.983 65.7679 175.087 66.9999 174.859C67.3127 174.8 67.6037 174.658 67.8418 174.446C68.0799 174.235 68.2562 173.963 68.3519 173.659C68.4125 173.459 68.4285 173.248 68.3988 173.04C68.3691 172.833 68.2944 172.635 68.1799 172.459C67.3639 171.199 66.5799 171.199 65.3279 172.143Z" fill="white" stroke="#263238" stroke-width="1.20355" stroke-linecap="round" stroke-linejoin="round"/>
<path d="M58.8605 169.471C58.8605 169.471 56.6885 170.879 56.0405 172.879C55.9839 173.056 55.9932 173.247 56.0668 173.417C56.1404 173.587 56.2732 173.724 56.4405 173.803V173.803C56.5607 173.864 56.6948 173.891 56.829 173.883C56.9632 173.874 57.0928 173.83 57.2045 173.755C57.8565 173.311 59.2805 172.419 60.5125 172.187C60.8255 172.129 61.1167 171.986 61.3548 171.775C61.593 171.563 61.7691 171.291 61.8645 170.987C61.9251 170.787 61.9411 170.576 61.9114 170.368C61.8816 170.161 61.807 169.963 61.6925 169.787C60.8925 168.535 60.1125 168.535 58.8605 169.471Z" fill="white" stroke="#263238" stroke-width="1.20355" stroke-linecap="round" stroke-linejoin="round"/>
<path d="M53.6996 165.024C53.6996 165.024 51.5276 166.428 50.8756 168.432C50.8198 168.608 50.8296 168.799 50.9031 168.968C50.9765 169.138 51.1088 169.276 51.2756 169.356C51.3961 169.415 51.5304 169.442 51.6646 169.433C51.7988 169.424 51.9282 169.379 52.0396 169.304C52.6916 168.86 54.1196 167.968 55.3476 167.736C55.6609 167.678 55.9525 167.536 56.1908 167.324C56.429 167.113 56.605 166.84 56.6996 166.536C56.761 166.335 56.7774 166.124 56.7477 165.916C56.7179 165.709 56.6428 165.511 56.5276 165.336C55.7316 164.084 54.9476 164.084 53.6996 165.024Z" fill="white" stroke="#263238" stroke-width="1.20355" stroke-linecap="round" stroke-linejoin="round"/>
<path d="M106 124.563V152.863C106 152.863 114.288 158.807 118.04 160.367C121.792 161.927 127.732 158.179 131.328 161.167C134.924 164.155 133.676 168.827 129.296 169.295C129.296 169.295 129.296 171.799 127.108 172.895C126.425 173.213 125.686 173.391 124.934 173.418C124.182 173.445 123.432 173.322 122.728 173.055C122.728 173.055 122.416 176.807 117.884 176.495C113.352 176.183 112.252 172.583 109.752 168.987C107.252 165.391 105.688 162.107 101.936 161.639C98.1839 161.171 95.8359 160.387 95.8359 155.855C95.8359 153.055 98.6359 152.883 98.9639 150.071C99.2919 147.259 98.9639 125.671 98.9639 125.671L106 124.563Z" fill="white"/>
<path d="M102.74 152.635C103.873 152.635 104.792 151.717 104.792 150.583C104.792 149.45 103.873 148.531 102.74 148.531C101.606 148.531 100.688 149.45 100.688 150.583C100.688 151.717 101.606 152.635 102.74 152.635Z" fill="#68A395"/>
<path d="M99.0944 136.668C99.4062 136.862 99.7646 136.97 100.132 136.978C100.5 136.987 100.863 136.897 101.183 136.717C101.504 136.538 101.771 136.275 101.955 135.957C102.14 135.64 102.236 135.278 102.233 134.91C102.23 134.543 102.128 134.183 101.938 133.868C101.749 133.553 101.478 133.295 101.154 133.121C100.831 132.946 100.466 132.862 100.099 132.877C99.7317 132.891 99.3751 133.004 99.0664 133.204C99.0744 134.312 99.0864 135.48 99.0944 136.668Z" fill="#68A395"/>
<path d="M106 139.407C105.354 139.588 104.785 139.976 104.379 140.51C103.973 141.045 103.754 141.698 103.754 142.369C103.754 143.04 103.973 143.693 104.379 144.228C104.785 144.763 105.354 145.15 106 145.331V139.407Z" fill="#68A395"/>
<path opacity="0.2" d="M98.9766 125.659C98.9766 125.659 99.0366 129.759 99.0766 134.615C101.109 134.838 103.162 134.784 105.181 134.455C105.181 134.455 104.065 151.163 104.289 153.391C104.513 155.619 114.537 161.415 117.437 162.083C120.337 162.751 125.409 162.395 128.129 163.863C129.793 164.763 130.589 167.135 130.953 168.851C133.941 167.531 134.437 163.707 131.353 161.151C127.753 158.179 121.817 161.931 118.065 160.351C114.313 158.771 106.001 152.863 106.001 152.863V124.563L98.9766 125.659Z" fill="black"/>
<path d="M106 124.563V152.863C106 152.863 114.288 158.807 118.04 160.367C121.792 161.927 127.732 158.179 131.328 161.167C134.924 164.155 133.676 168.827 129.296 169.295C129.296 169.295 129.296 171.799 127.108 172.895C126.425 173.213 125.686 173.391 124.934 173.418C124.182 173.445 123.432 173.322 122.728 173.055C122.728 173.055 122.416 176.807 117.884 176.495C113.352 176.183 112.252 172.583 109.752 168.987C107.252 165.391 105.688 162.107 101.936 161.639C98.1839 161.171 95.8359 160.387 95.8359 155.855C95.8359 153.055 98.6359 152.883 98.9639 150.071C99.2919 147.259 98.9639 125.671 98.9639 125.671L106 124.563Z" stroke="#263238" stroke-width="1.20355" stroke-linecap="round" stroke-linejoin="round"/>
<path d="M122.74 173.036C122.74 173.036 122.896 167.56 116.176 165.216" stroke="#263238" stroke-width="1.20355" stroke-linecap="round" stroke-linejoin="round"/>
<path d="M129.309 169.28C129.309 169.28 129.309 164.904 121.961 163.184" stroke="#263238" stroke-width="1.20355" stroke-linecap="round" stroke-linejoin="round"/>
<path d="M122.039 172.143C122.039 172.143 124.211 173.547 124.859 175.551C124.915 175.726 124.908 175.914 124.838 176.083C124.769 176.252 124.641 176.391 124.479 176.475C124.359 176.536 124.224 176.564 124.09 176.555C123.955 176.545 123.826 176.5 123.715 176.423C123.063 175.983 121.635 175.087 120.407 174.859C120.094 174.802 119.802 174.659 119.564 174.448C119.325 174.236 119.149 173.964 119.055 173.659C118.994 173.459 118.977 173.248 119.006 173.041C119.035 172.834 119.109 172.635 119.223 172.459C120.003 171.199 120.803 171.199 122.039 172.143Z" fill="white" stroke="#263238" stroke-width="1.20355" stroke-linecap="round" stroke-linejoin="round"/>
<path d="M128.507 169.471C128.507 169.471 130.679 170.879 131.327 172.879C131.386 173.053 131.379 173.243 131.309 173.412C131.24 173.582 131.111 173.721 130.947 173.803V173.803C130.827 173.864 130.693 173.892 130.559 173.883C130.425 173.875 130.295 173.831 130.183 173.755C129.531 173.311 128.103 172.419 126.875 172.187C126.562 172.13 126.27 171.988 126.032 171.776C125.793 171.565 125.618 171.292 125.523 170.987C125.462 170.787 125.446 170.576 125.475 170.368C125.505 170.161 125.58 169.963 125.695 169.787C126.475 168.535 127.255 168.535 128.507 169.471Z" fill="white" stroke="#263238" stroke-width="1.20355" stroke-linecap="round" stroke-linejoin="round"/>
<path d="M133.67 165.024C133.67 165.024 135.842 166.428 136.49 168.432C136.545 168.608 136.534 168.798 136.461 168.968C136.388 169.137 136.256 169.275 136.09 169.356V169.356C135.969 169.416 135.834 169.443 135.699 169.433C135.564 169.424 135.434 169.38 135.322 169.304C134.67 168.86 133.246 167.968 132.014 167.736C131.701 167.678 131.409 167.536 131.172 167.325C130.934 167.113 130.759 166.84 130.666 166.536C130.603 166.336 130.586 166.124 130.615 165.917C130.644 165.709 130.719 165.511 130.834 165.336C131.638 164.084 132.402 164.084 133.67 165.024Z" fill="white" stroke="#263238" stroke-width="1.20355" stroke-linecap="round" stroke-linejoin="round"/>
<path d="M53.8887 139.668C53.8887 139.668 53.8047 136.216 54.7327 135.124C55.6607 134.032 56.7327 139.08 56.6647 139.752C56.5967 140.424 55.4047 141.6 53.8887 139.668Z" fill="white" stroke="#263238" stroke-width="1.20355" stroke-linecap="round" stroke-linejoin="round"/>
<path d="M59.9512 138.488C59.9512 138.488 59.8672 135.04 60.7912 133.948C61.7152 132.856 62.8112 137.9 62.7272 138.572C62.6432 139.244 61.4632 140.424 59.9512 138.488Z" fill="white" stroke="#263238" stroke-width="1.20355" stroke-linecap="round" stroke-linejoin="round"/>
<path d="M53.3796 143.144C53.3796 143.144 52.2836 138.136 54.9476 137.82C57.6116 137.504 59.8036 146.904 59.8036 146.904C59.8036 146.904 57.9236 136.88 61.2116 136.568C64.4996 136.256 64.8116 145.652 64.8116 146.436C64.8116 147.22 62.0116 150.664 57.7636 151.604C53.5156 152.544 53.3796 143.144 53.3796 143.144Z" fill="white" stroke="#263238" stroke-width="1.20355" stroke-linecap="round" stroke-linejoin="round"/>
<path d="M49.9356 142.024C49.9356 142.024 49.8516 138.572 50.7756 137.48C51.6996 136.388 52.7956 141.436 52.7116 142.108C52.6276 142.78 51.4476 143.96 49.9356 142.024Z" fill="white" stroke="#263238" stroke-width="1.20355" stroke-linecap="round" stroke-linejoin="round"/>
<path d="M66.0706 96.6356C66.0706 96.6356 62.1546 99.9236 59.9626 106.812C57.7706 113.7 56.9866 116.836 59.1626 116.368C61.3386 115.9 62.1386 113.236 62.1386 113.236C62.1386 113.236 59.4746 121.064 60.8866 121.692C62.2986 122.32 64.1746 120.892 64.1746 120.892C64.1746 120.892 63.5626 127.8 64.8026 129.836C66.0426 131.872 66.5226 131.872 66.5226 131.872V144.4C66.5226 144.4 62.7666 143.46 59.6346 145.024C56.5026 146.588 56.1866 148.94 56.1866 148.94C56.1866 148.94 54.7786 141.424 51.6466 140.328C48.5146 139.232 48.5146 146.12 50.2346 150.036C51.9546 153.952 57.2826 155.676 57.7546 155.676C58.2266 155.676 56.8146 156.928 56.8146 156.928L61.0426 155.832C61.0426 155.832 59.0066 158.18 60.4146 158.18C61.8226 158.18 66.4026 155.832 66.4026 155.832C66.4026 155.832 64.8386 157.712 66.7146 157.712C68.5906 157.712 71.2586 154.912 71.2586 154.912C71.2586 154.912 71.2586 156.32 72.9786 154.6C74.6986 152.88 78.4626 153.188 79.2426 143C80.0226 132.812 79.2426 119.98 79.2426 119.98C79.2426 119.98 75.4666 89.8996 66.0706 96.6356Z" fill="white"/>
<path d="M76.6734 121.919C77.7037 119.45 76.5374 116.613 74.0684 115.583C71.5995 114.553 68.7629 115.719 67.7326 118.188C66.7024 120.657 67.8687 123.493 70.3376 124.524C72.8065 125.554 75.6432 124.388 76.6734 121.919Z" fill="#68A395"/>
<path d="M64.4719 151.863C63.2793 151.867 62.1302 152.311 61.2445 153.11C60.3589 153.908 59.7989 155.006 59.6719 156.191L61.0719 155.831C61.0719 155.831 59.0359 158.179 60.4439 158.179C61.8519 158.179 66.3999 155.831 66.3999 155.831C66.3999 155.831 64.8359 157.711 66.7119 157.711C67.5319 157.711 68.4959 157.175 69.3279 156.571C69.2934 155.308 68.7661 154.108 67.8587 153.228C66.9513 152.349 65.7357 151.859 64.4719 151.863Z" fill="#68A395"/>
<path d="M78.7639 142.034C80.0383 138.93 78.555 135.38 75.4507 134.106C72.3464 132.832 68.7968 134.315 67.5224 137.419C66.248 140.524 67.7313 144.073 70.8356 145.348C73.9399 146.622 77.4895 145.139 78.7639 142.034Z" fill="#68A395"/>
<path d="M59.1774 116.367C61.0774 115.967 61.9174 113.907 62.1094 113.367C61.5582 115.017 61.1014 116.697 60.7414 118.399C61.8063 117.978 62.6996 117.212 63.2791 116.224C63.8585 115.236 64.0908 114.083 63.939 112.948C63.7872 111.812 63.2601 110.76 62.4414 109.959C61.6228 109.158 60.5597 108.654 59.4214 108.527C57.6574 114.215 57.1774 116.799 59.1774 116.367Z" fill="#68A395"/>
<path opacity="0.2" d="M66.0689 96.6356C66.0689 96.6356 64.0209 98.3636 62.0689 101.924C62.089 106.357 62.9622 110.745 64.6409 114.848C69.0969 125.32 75.1129 128.216 75.1129 128.216C75.1129 128.216 76.4489 140.692 73.9969 147.376C71.6889 153.676 65.0289 156.412 56.7969 155.404C57.1101 155.529 57.436 155.62 57.7689 155.676C58.2369 155.676 56.8289 156.928 56.8289 156.928L61.0569 155.832C61.0569 155.832 59.0209 158.18 60.4289 158.18C61.8369 158.18 66.4009 155.832 66.4009 155.832C66.4009 155.832 64.8369 157.712 66.7129 157.712C68.5889 157.712 71.2569 154.912 71.2569 154.912C71.2569 154.912 71.2569 156.32 72.9769 154.6C74.6969 152.88 78.4609 153.188 79.2409 143C80.0209 132.812 79.2409 119.98 79.2409 119.98C79.2409 119.98 75.4649 89.8996 66.0689 96.6356Z" fill="black"/>
<path d="M66.0706 96.6356C66.0706 96.6356 62.1546 99.9236 59.9626 106.812C57.7706 113.7 56.9866 116.836 59.1626 116.368C61.3386 115.9 62.1386 113.236 62.1386 113.236C62.1386 113.236 59.4746 121.064 60.8866 121.692C62.2986 122.32 64.1746 120.892 64.1746 120.892C64.1746 120.892 63.5626 127.8 64.8026 129.836C66.0426 131.872 66.5226 131.872 66.5226 131.872V144.4C66.5226 144.4 62.7666 143.46 59.6346 145.024C56.5026 146.588 56.1866 148.94 56.1866 148.94C56.1866 148.94 54.7786 141.424 51.6466 140.328C48.5146 139.232 48.5146 146.12 50.2346 150.036C51.9546 153.952 57.2826 155.676 57.7546 155.676C58.2266 155.676 56.8146 156.928 56.8146 156.928L61.0426 155.832C61.0426 155.832 59.0066 158.18 60.4146 158.18C61.8226 158.18 66.4026 155.832 66.4026 155.832C66.4026 155.832 64.8386 157.712 66.7146 157.712C68.5906 157.712 71.2586 154.912 71.2586 154.912C71.2586 154.912 71.2586 156.32 72.9786 154.6C74.6986 152.88 78.4626 153.188 79.2426 143C80.0226 132.812 79.2426 119.98 79.2426 119.98C79.2426 119.98 75.4666 89.8996 66.0706 96.6356Z" stroke="#263238" stroke-width="1.20355" stroke-linecap="round" stroke-linejoin="round"/>
<path d="M68.6335 81.1121C68.6335 81.1121 64.1535 88.0001 56.0575 90.0681C47.9615 92.1361 40.8975 91.4481 41.0695 91.9641C41.2415 92.4801 43.9975 94.2041 43.9975 94.2041C43.9975 94.2041 41.4135 94.0281 41.7615 94.8921C42.1095 95.7561 44.5175 99.7161 52.6135 101.78C60.7095 103.844 65.7055 93.1681 67.2535 88.5161C68.8015 83.8641 70.0015 80.4201 68.6335 81.1121Z" fill="white"/>
<path d="M44.5273 91.6439C44.6276 92.8214 44.977 93.9642 45.5525 94.9964C46.128 96.0285 46.9164 96.9265 47.8654 97.6308C48.8144 98.3351 49.9023 98.8296 51.0569 99.0814C52.2115 99.3332 53.4065 99.3367 54.5626 99.0915C55.7187 98.8464 56.8094 98.3582 57.7624 97.6594C58.7155 96.9606 59.509 96.0672 60.0905 95.0384C60.6719 94.0095 61.028 92.8688 61.135 91.6919C61.2421 90.515 61.0977 89.3288 60.7113 88.2119C59.2448 89.0235 57.6818 89.647 56.0593 90.0679C52.2796 90.9876 48.4152 91.5157 44.5273 91.6439V91.6439Z" fill="#68A395"/>
<path d="M68.6335 81.1121C68.6335 81.1121 64.1535 88.0001 56.0575 90.0681C47.9615 92.1361 40.8975 91.4481 41.0695 91.9641C41.2415 92.4801 43.9975 94.2041 43.9975 94.2041C43.9975 94.2041 41.4135 94.0281 41.7615 94.8921C42.1095 95.7561 44.5175 99.7161 52.6135 101.78C60.7095 103.844 65.7055 93.1681 67.2535 88.5161C68.8015 83.8641 70.0015 80.4201 68.6335 81.1121Z" stroke="#263238" stroke-width="1.20355" stroke-linecap="round" stroke-linejoin="round"/>
<path d="M118.962 80.4402C118.962 80.4402 123.442 87.3322 131.538 89.4002C139.634 91.4682 146.698 90.7762 146.526 91.2922C146.354 91.8082 143.594 93.5322 143.594 93.5322C143.594 93.5322 146.178 93.3602 145.834 94.2202C145.49 95.0802 143.078 99.0442 134.982 101.112C126.886 103.18 121.89 92.5002 120.342 87.8482C118.794 83.1962 117.602 79.7522 118.962 80.4402Z" fill="white"/>
<path d="M136.594 90.4004C135.944 92.0442 135.937 93.8723 136.575 95.5208C137.212 97.1692 138.447 98.5172 140.034 99.2964C144.154 97.2684 145.578 94.8724 145.834 94.2244C146.178 93.3644 143.594 93.5364 143.594 93.5364C143.594 93.5364 146.354 91.8124 146.526 91.2964C146.658 90.8884 142.354 91.2244 136.594 90.4004Z" fill="#68A395"/>
<path opacity="0.2" d="M129.022 93.6802C129.218 92.0322 128.906 90.0522 128.494 88.3402C124.68 86.5858 121.394 83.8618 118.962 80.4402C117.586 79.7522 118.79 83.1962 120.342 87.8482C121.894 92.5002 126.886 103.18 134.982 101.112C129.134 101.2 128.578 97.4682 129.022 93.6802Z" fill="black"/>
<path d="M118.962 80.4402C118.962 80.4402 123.442 87.3322 131.538 89.4002C139.634 91.4682 146.698 90.7762 146.526 91.2922C146.354 91.8082 143.594 93.5322 143.594 93.5322C143.594 93.5322 146.178 93.3602 145.834 94.2202C145.49 95.0802 143.078 99.0442 134.982 101.112C126.886 103.18 121.89 92.5002 120.342 87.8482C118.794 83.1962 117.602 79.7522 118.962 80.4402Z" stroke="#263238" stroke-width="1.20355" stroke-linecap="round" stroke-linejoin="round"/>
<path d="M75.8648 72.1524C75.8648 72.1524 70.3528 73.1884 67.4248 72.1524C64.4968 71.1164 66.5648 69.0524 65.3568 67.5044C64.1488 65.9564 60.5568 68.7044 60.1888 73.7044C59.8208 78.7044 65.5288 81.4564 71.3888 81.9724L78.2768 72.1524H75.8648Z" fill="#68A395" stroke="#263238" stroke-width="1.20355" stroke-linecap="round" stroke-linejoin="round"/>
<path d="M69.2628 72.5319C68.6592 72.479 68.0634 72.3582 67.4868 72.1719C66.2384 72.9904 65.2495 74.1483 64.6366 75.5095C64.0237 76.8707 63.8121 78.3786 64.0268 79.8559C64.4567 80.1018 64.9001 80.3235 65.3548 80.5199C65.0828 79.4519 64.3108 74.9999 69.2628 72.5319Z" fill="#263238"/>
<path d="M65.7579 69.6758C63.2299 70.2478 61.4019 71.2758 60.2939 72.7878C60.2499 73.0838 60.2139 73.3878 60.1899 73.7038C60.1443 74.358 60.2092 75.0152 60.3819 75.6478C60.4745 75.0108 60.6934 74.3989 61.0259 73.8478C61.8939 72.4358 63.5219 71.4478 65.8779 70.8838C65.7569 70.4933 65.7161 70.0824 65.7579 69.6758V69.6758Z" fill="#263238"/>
<path d="M112.932 72.1524C112.932 72.1524 118.448 73.1884 121.376 72.1524C124.304 71.1164 122.236 69.0524 123.44 67.5044C124.644 65.9564 128.264 68.7044 128.608 73.7044C128.952 78.7044 123.268 81.4564 117.408 81.9724L110.52 72.1524H112.932Z" fill="#68A395" stroke="#263238" stroke-width="1.20355" stroke-linecap="round" stroke-linejoin="round"/>
<path d="M119.543 72.5319C120.147 72.479 120.742 72.3582 121.319 72.1719C122.567 72.9904 123.556 74.1483 124.169 75.5095C124.782 76.8707 124.994 78.3786 124.779 79.8559C124.349 80.1018 123.906 80.3235 123.451 80.5199C123.719 79.4519 124.495 74.9999 119.543 72.5319Z" fill="#263238"/>
<path d="M123.046 69.6758C125.57 70.2478 127.402 71.2758 128.51 72.7878C128.554 73.0838 128.59 73.3878 128.61 73.7038C128.657 74.3577 128.593 75.0149 128.422 75.6478C128.329 75.0108 128.11 74.3989 127.778 73.8478C126.91 72.4358 125.278 71.4478 122.926 70.8838C123.047 70.4933 123.088 70.0824 123.046 69.6758V69.6758Z" fill="#263238"/>
<path d="M94.2623 130.056C110.477 130.056 123.622 115.24 123.622 96.9641C123.622 78.6879 110.477 63.8721 94.2623 63.8721C78.0473 63.8721 64.9023 78.6879 64.9023 96.9641C64.9023 115.24 78.0473 130.056 94.2623 130.056Z" fill="white"/>
<path d="M80.1582 72.0556C80.8883 72.0571 81.6071 71.8751 82.2485 71.5262C82.8899 71.1773 83.4333 70.6728 83.8287 70.0591C84.2242 69.4454 84.4591 68.7421 84.5118 68.0139C84.5644 67.2856 84.4332 66.5559 84.1302 65.8916C81.452 67.0087 78.9605 68.5289 76.7422 70.3996C77.1499 70.9153 77.6689 71.3321 78.2605 71.6189C78.852 71.9057 79.5008 72.055 80.1582 72.0556V72.0556Z" fill="#68A395"/>
<path d="M79.9041 119.276C79.9041 115.732 77.3761 112.876 74.2601 112.876C73.3779 112.892 72.5131 113.124 71.7407 113.551C70.9683 113.977 70.3118 114.586 69.8281 115.324C71.8687 118.804 74.554 121.862 77.7401 124.336C78.4361 123.692 78.9885 122.908 79.3614 122.037C79.7343 121.165 79.9192 120.224 79.9041 119.276V119.276Z" fill="#68A395"/>
<path d="M96.3246 128.512C98.4498 128.512 100.173 127.018 100.173 125.176C100.173 123.333 98.4498 121.84 96.3246 121.84C94.1994 121.84 92.4766 123.333 92.4766 125.176C92.4766 127.018 94.1994 128.512 96.3246 128.512Z" fill="#68A395"/>
<path d="M76.8225 93.8677C76.8225 87.9677 72.7825 83.1477 67.7025 82.8477C65.8407 87.3203 64.8888 92.119 64.9025 96.9637C64.9028 99.5895 65.1803 102.208 65.7305 104.776C66.2152 104.861 66.7064 104.903 67.1985 104.904C72.5145 104.904 76.8225 99.9637 76.8225 93.8677Z" fill="#68A395"/>
<path d="M121.182 106.65C121.999 104.688 121.071 102.436 119.11 101.618C117.148 100.801 114.895 101.728 114.078 103.69C113.26 105.652 114.188 107.905 116.15 108.722C118.111 109.54 120.364 108.612 121.182 106.65Z" fill="#68A395"/>
<path d="M119.422 112.087C119.423 112.522 119.548 112.948 119.782 113.315C120.357 112.178 120.871 111.011 121.322 109.819C120.79 109.915 120.308 110.194 119.961 110.609C119.613 111.023 119.423 111.547 119.422 112.087V112.087Z" fill="#68A395"/>
<path d="M118.044 116.355C116.655 115.728 115.109 115.536 113.608 115.802C112.107 116.069 110.722 116.782 109.634 117.849C108.545 118.916 107.804 120.286 107.508 121.781C107.211 123.276 107.373 124.826 107.972 126.227C112.047 123.758 115.494 120.38 118.044 116.355V116.355Z" fill="#68A395"/>
<path d="M116.229 75.0195C115.006 76.3853 114.2 78.0726 113.906 79.8819C113.612 81.6912 113.841 83.5469 114.568 85.2297C115.295 86.9125 116.489 88.3519 118.008 89.3779C119.527 90.4039 121.308 90.9736 123.141 91.0195C122.231 85.1862 119.852 79.6802 116.229 75.0195Z" fill="#68A395"/>
<path opacity="0.2" d="M110.403 69.332C112.403 72.248 115.455 77.804 117.647 86.996C121.215 101.924 118.315 108.16 118.315 108.16L116.535 103.704C116.535 103.704 117.203 109.276 115.203 112.62C113.203 115.964 111.739 118.552 111.019 120.04C110.299 121.528 110.299 117.964 110.299 117.964C110.299 117.964 108.643 122.744 107.355 123.252C106.067 123.76 102.279 125.764 102.279 125.764L102.499 123.092C102.499 123.092 96.9309 125.32 93.8109 125.32C90.6909 125.32 82.8909 124.428 78.6589 121.752C76.2589 120.236 72.7709 117.78 70.2109 115.944C75.5189 124.476 84.3069 130.056 94.2549 130.056C110.467 130.056 123.615 115.256 123.615 96.964C123.623 85.416 118.371 75.252 110.403 69.332Z" fill="black"/>
<path d="M94.2623 130.056C110.477 130.056 123.622 115.24 123.622 96.9641C123.622 78.6879 110.477 63.8721 94.2623 63.8721C78.0473 63.8721 64.9023 78.6879 64.9023 96.9641C64.9023 115.24 78.0473 130.056 94.2623 130.056Z" stroke="#263238" stroke-width="1.20355" stroke-linecap="round" stroke-linejoin="round"/>
<path d="M92.3763 65.3119C92.3763 65.3119 92.2203 64.8439 89.5563 63.9039C86.8923 62.9639 83.9203 64.2159 85.4843 62.9639C87.0483 61.7119 92.3763 61.5559 93.3163 62.4959C94.2563 63.4359 90.3403 61.0839 90.3403 59.5199C90.3403 57.9559 94.8843 58.7199 96.2923 59.9879C97.0389 60.6065 97.6747 61.3478 98.1723 62.1799C98.1723 62.1799 98.0163 56.3879 100.832 54.9799C103.648 53.5719 105.844 56.3919 104.592 57.9559C103.34 59.5199 100.676 62.1839 100.676 62.1839C100.676 62.1839 107.096 59.8359 106.784 62.4999C106.472 65.1639 100.048 65.2999 100.048 65.2999" fill="white"/>
<path d="M92.3763 65.3119C92.3763 65.3119 92.2203 64.8439 89.5563 63.9039C86.8923 62.9639 83.9203 64.2159 85.4843 62.9639C87.0483 61.7119 92.3763 61.5559 93.3163 62.4959C94.2563 63.4359 90.3403 61.0839 90.3403 59.5199C90.3403 57.9559 94.8843 58.7199 96.2923 59.9879C97.0389 60.6065 97.6747 61.3478 98.1723 62.1799C98.1723 62.1799 98.0163 56.3879 100.832 54.9799C103.648 53.5719 105.844 56.3919 104.592 57.9559C103.34 59.5199 100.676 62.1839 100.676 62.1839C100.676 62.1839 107.096 59.8359 106.784 62.4999C106.472 65.1639 100.048 65.2999 100.048 65.2999" stroke="#263238" stroke-width="1.20355" stroke-linecap="round" stroke-linejoin="round"/>
<path d="M94.9622 96.6763C99.502 96.6763 103.182 92.8564 103.182 88.1443C103.182 83.4322 99.502 79.6123 94.9622 79.6123C90.4224 79.6123 86.7422 83.4322 86.7422 88.1443C86.7422 92.8564 90.4224 96.6763 94.9622 96.6763Z" fill="#263238" stroke="#263238" stroke-width="1.20355" stroke-linecap="round" stroke-linejoin="round"/>
<path d="M94.9622 95.5357C99.502 95.5357 103.182 91.8555 103.182 87.3157C103.182 82.7759 99.502 79.0957 94.9622 79.0957C90.4224 79.0957 86.7422 82.7759 86.7422 87.3157C86.7422 91.8555 90.4224 95.5357 94.9622 95.5357Z" fill="#68A395" stroke="#263238" stroke-width="1.20355" stroke-linecap="round" stroke-linejoin="round"/>
<path d="M96.6158 91.2911C98.8119 90.3756 99.85 87.8532 98.9345 85.6572C98.019 83.4611 95.4966 82.423 93.3005 83.3385C91.1045 84.254 90.0664 86.7763 90.9818 88.9724C91.8973 91.1685 94.4197 92.2066 96.6158 91.2911Z" fill="#263238" stroke="#263238" stroke-width="1.20355" stroke-linecap="round" stroke-linejoin="round"/>
<path d="M85.0416 71.1482C85.0416 71.1482 80.4611 71.4957 79.8275 72.3054C79.1939 73.1151 82.6525 73.2576 82.6525 73.2576C82.6525 73.2576 78.5442 74.7536 80.4409 75.2975C82.3377 75.8414 85.9698 73.1784 85.9698 73.1784C85.9698 73.1784 90.2802 73.2576 94.7033 73.2576C99.1263 73.2576 103.509 73.1107 103.509 73.1107C103.509 73.1107 107.298 74.9472 108.723 74.6067C110.147 74.2661 106.213 72.0907 106.213 72.0907C106.213 72.0907 109.845 72.4382 106.846 71.2063C106.037 70.8554 105.021 70.6065 103.907 70.4864C102.793 70.3663 101.624 70.3798 100.526 70.5252" fill="white"/>
<path d="M85.0416 71.1482C85.0416 71.1482 80.4611 71.4957 79.8275 72.3054C79.1939 73.1151 82.6525 73.2576 82.6525 73.2576C82.6525 73.2576 78.5442 74.7536 80.4409 75.2975C82.3377 75.8414 85.9698 73.1784 85.9698 73.1784C85.9698 73.1784 90.2802 73.2576 94.7033 73.2576C99.1263 73.2576 103.509 73.1107 103.509 73.1107C103.509 73.1107 107.298 74.9472 108.723 74.6067C110.147 74.2661 106.213 72.0907 106.213 72.0907C106.213 72.0907 109.845 72.4382 106.846 71.2063C106.037 70.8554 105.021 70.6065 103.907 70.4864C102.793 70.3663 101.624 70.3798 100.526 70.5252" stroke="#263238" stroke-width="1.20355" stroke-linecap="round" stroke-linejoin="round"/>
<path d="M83.6013 97.7322C81.4851 99.0641 79.6715 100.825 78.2773 102.9C75.7693 106.5 76.5533 108.692 77.8053 108.848C79.0573 109.004 83.2853 103.524 83.2853 103.524C83.2853 103.524 81.2493 108.692 83.7573 108.38C86.2653 108.068 89.2373 102.272 89.2373 102.272C89.2373 102.272 89.0813 105.872 90.9613 105.716C92.8413 105.56 95.0333 99.2962 95.0333 99.2962C95.0333 99.2962 96.1293 105.56 98.0093 105.56C99.8893 105.56 100.041 101.644 100.041 101.644C100.041 101.644 102.237 108.536 104.113 107.128C105.989 105.72 104.741 101.176 104.741 101.176C104.741 101.176 106.465 110.416 108.813 108.692C111.161 106.968 107.717 99.6122 105.213 96.9482" stroke="#263238" stroke-width="1.20355" stroke-linecap="round" stroke-linejoin="round"/>
<path d="M93.8234 85.024C93.8234 85.4987 93.6827 85.9627 93.419 86.3574C93.1553 86.7521 92.7804 87.0597 92.3419 87.2413C91.9033 87.423 91.4208 87.4705 90.9552 87.3779C90.4897 87.2853 90.062 87.0567 89.7264 86.7211C89.3907 86.3854 89.1622 85.9578 89.0696 85.4922C88.9769 85.0267 89.0245 84.5441 89.2061 84.1056C89.3878 83.667 89.6954 83.2922 90.0901 83.0285C90.4848 82.7648 90.9488 82.624 91.4234 82.624C92.06 82.624 92.6704 82.8769 93.1205 83.327C93.5706 83.7771 93.8234 84.3875 93.8234 85.024V85.024Z" fill="white"/>
<path d="M41.041 67.1343L29.4896 64.2994H29.5706C26.5861 66.1937 23.1362 67.2265 19.6018 67.2838C17.5083 67.2955 15.4249 66.993 13.4211 66.3866C9.90744 65.248 6.79196 63.1297 4.441 60.281C2.09005 57.4323 0.601386 53.9715 0.150064 50.3056C-0.200281 47.527 0.0646067 44.7054 0.925966 42.0406C1.78733 39.3757 3.22409 36.9329 5.13449 34.8851C6.13848 33.7923 7.26061 32.8144 8.48028 31.9692C9.10333 31.5829 9.72639 31.1841 10.3494 30.8477L11.3276 30.3742L11.8198 30.1374L12.3307 29.9505C14.9743 28.9393 17.8059 28.5141 20.6298 28.7044C24.4055 28.9586 28.0225 30.3199 31.0288 32.6182C34.0352 34.9165 36.2975 38.0497 37.5332 41.6265C38.216 43.6338 38.5756 45.7369 38.5987 47.857C38.6163 51.3836 37.6589 54.8465 35.8323 57.8632V57.7573C39.0473 63.558 40.6672 66.4801 41.0286 67.1031C40.6547 66.4801 38.9787 63.5704 35.6516 57.8383V57.7822V57.7324C37.4291 54.7405 38.3515 51.3182 38.3183 47.8383C38.2865 45.7484 37.9227 43.6769 37.2404 41.7013C36.4876 39.5283 35.343 37.5116 33.8635 35.7511C31.3042 32.7188 27.8621 30.5612 24.0175 29.5794C20.173 28.5976 16.1178 28.8406 12.418 30.2745L11.9195 30.4551L11.4398 30.6919L10.4741 31.153C9.851 31.4832 9.22795 31.8819 8.60489 32.2558C7.40951 33.0842 6.31029 34.0434 5.32764 35.1156C3.17291 37.4664 1.64376 40.3212 0.880801 43.4175C0.117839 46.5138 0.145548 49.7522 0.961378 52.8349C1.77721 55.9177 3.35497 58.7459 5.54961 61.0595C7.74425 63.3731 10.4853 65.0978 13.5208 66.0751C15.4889 66.6798 17.5366 66.9865 19.5955 66.9847C23.077 66.9414 26.4799 65.9436 29.4336 64.1H29.4709H29.5145L41.041 67.1343Z" fill="#263238"/>
<path d="M17.7086 39.3894L18.3317 49.0342C18.3541 49.4163 18.5164 49.7768 18.7876 50.0468C19.0588 50.3169 19.4199 50.4776 19.8021 50.4984V50.4984C20.2027 50.5217 20.5971 50.3907 20.9041 50.1323C21.2112 49.8739 21.4077 49.5077 21.4532 49.109L22.5186 39.4143C22.5351 39.241 22.5152 39.0661 22.46 38.901C22.4048 38.7359 22.3157 38.5842 22.1983 38.4556C22.0809 38.327 21.9378 38.2245 21.7784 38.1546C21.6189 38.0847 21.4466 38.049 21.2725 38.0498L18.9173 38.081C18.7515 38.0857 18.5883 38.1236 18.4372 38.1923C18.2862 38.261 18.1504 38.3591 18.0378 38.481C17.9252 38.6029 17.8381 38.746 17.7816 38.902C17.7251 39.058 17.7003 39.2237 17.7086 39.3894Z" fill="#68A395"/>
<path d="M22.3415 55.9257C22.1953 56.3684 21.921 56.7577 21.5534 57.0444C21.1858 57.3311 20.7413 57.5022 20.2764 57.5361C19.8114 57.57 19.3468 57.4651 18.9415 57.2348C18.5362 57.0044 18.2084 56.659 17.9995 56.2422C17.7907 55.8254 17.7102 55.356 17.7684 54.8934C17.8265 54.4309 18.0207 53.996 18.3262 53.6438C18.6317 53.2917 19.0348 53.0381 19.4845 52.9153C19.9342 52.7924 20.4103 52.8058 20.8524 52.9537C21.1459 53.0502 21.4175 53.2038 21.6514 53.4056C21.8853 53.6075 22.077 53.8536 22.2154 54.1298C22.3538 54.4061 22.4362 54.707 22.4578 55.0152C22.4795 55.3234 22.4399 55.6328 22.3415 55.9257V55.9257Z" fill="#68A395"/>
<path d="M140.274 42.6372C140.239 42.6372 139.74 42.0123 138.898 41.0033C138.055 39.9943 136.851 38.6241 135.515 37.122C134.179 35.62 132.993 34.2211 132.19 33.172C131.789 32.6446 131.474 32.2146 131.273 31.905C131.152 31.7534 131.054 31.5855 130.98 31.4062C131.015 31.4062 131.514 32.0254 132.356 33.0401C133.199 34.0549 134.403 35.4193 135.739 36.9214C137.075 38.4234 138.261 39.8165 139.064 40.8714C139.465 41.3988 139.781 41.8288 139.981 42.1384C140.103 42.289 140.202 42.4572 140.274 42.6372V42.6372Z" fill="#263238"/>
<path d="M151.252 36.6459C151.178 36.6745 148.776 29.7663 145.886 21.1668C142.997 12.5674 140.726 5.63618 140.807 5.60751C140.887 5.57885 143.283 12.4871 146.173 21.0866C149.062 29.686 151.333 36.6229 151.252 36.6459Z" fill="#263238"/>
<path d="M160.766 38.4465C160.685 38.4178 161.861 34.5939 163.38 29.9043C164.899 25.2148 166.195 21.4253 166.281 21.4711C166.367 21.517 165.191 25.3237 163.666 30.019C162.142 34.7143 160.846 38.4694 160.766 38.4465Z" fill="#263238"/>
<path d="M176.875 37.9648C176.921 38.0336 175.459 39.1573 173.727 40.6192C171.996 42.0811 170.632 43.3252 170.574 43.2679C170.801 42.9301 171.07 42.6237 171.377 42.3563C171.904 41.8289 172.661 41.1237 173.532 40.3899C174.404 39.6561 175.252 39.0312 175.826 38.6012C176.143 38.3398 176.496 38.1254 176.875 37.9648V37.9648Z" fill="#263238"/>
<path d="M168.206 14.9297C168.28 14.9297 168.206 15.3826 168.045 15.8871C167.885 16.3916 167.678 16.77 167.598 16.7413C167.518 16.7127 167.598 16.2942 167.758 15.7896C167.919 15.2851 168.125 14.9068 168.206 14.9297Z" fill="#263238"/>
<path d="M128.197 28.3503C128.134 28.4019 127.911 28.2012 127.699 27.9088C127.486 27.6164 127.378 27.3355 127.446 27.2954C127.515 27.2553 127.733 27.4444 127.945 27.7368C128.157 28.0292 128.266 28.3503 128.197 28.3503Z" fill="#263238"/>
<path d="M118.146 48.1299H189.017C189.317 48.1299 189.606 48.2493 189.819 48.462C190.031 48.6746 190.151 48.9631 190.151 49.2638V92.3344H117.012V49.2638C117.012 49.1149 117.041 48.9674 117.098 48.8299C117.155 48.6923 117.239 48.5673 117.344 48.462C117.449 48.3567 117.574 48.2732 117.712 48.2162C117.849 48.1592 117.997 48.1299 118.146 48.1299Z" fill="white" stroke="#263238"/>
<path d="M146.563 67.9942C146.563 70.2874 144.889 72.2653 141.202 72.2653C139.465 72.294 137.757 71.8137 136.289 70.8836L137.47 68.5904C138.539 69.35 139.822 69.7514 141.133 69.737C142.624 69.737 143.541 69.1121 143.541 68.063C143.541 67.0138 142.882 66.3889 140.543 66.3889H137.246L137.912 59.1367H145.771V61.5274H140.394L140.193 63.9754H141.242C145.049 63.9983 146.563 65.7124 146.563 67.9942Z" fill="#68A395"/>
<path d="M147.773 65.6148C147.773 61.3667 150.13 58.9531 153.294 58.9531C156.459 58.9531 158.815 61.3667 158.815 65.6148C158.815 69.863 156.482 72.2823 153.294 72.2823C150.107 72.2823 147.773 69.8515 147.773 65.6148ZM155.8 65.6148C155.8 62.691 154.768 61.4756 153.277 61.4756C151.787 61.4756 150.778 62.691 150.778 65.6148C150.778 68.5387 151.804 69.7598 153.277 69.7598C154.75 69.7598 155.817 68.5272 155.817 65.6148H155.8Z" fill="#68A395"/>
<path d="M160.27 65.6148C160.27 61.3667 162.626 58.9531 165.79 58.9531C168.955 58.9531 171.311 61.3667 171.311 65.6148C171.311 69.863 168.972 72.2823 165.79 72.2823C162.609 72.2823 160.27 69.8515 160.27 65.6148ZM168.296 65.6148C168.296 62.691 167.264 61.4756 165.773 61.4756C164.283 61.4756 163.268 62.691 163.268 65.6148C163.268 68.5387 164.3 69.7598 165.773 69.7598C167.247 69.7598 168.313 68.5272 168.313 65.6148H168.296Z" fill="#68A395"/>
<path d="M127.504 75.3955H128.049V79.2022H127.504V75.3955Z" fill="#263238"/>
<path d="M132.463 75.3955V79.2022H132.021L129.728 76.3644V79.2022H129.184V75.3955H129.631L131.924 78.262V75.3955H132.463Z" fill="#263238"/>
<path d="M134.358 75.8713H133.051V75.3955H136.204V75.8713H134.897V79.2022H134.358V75.8713Z" fill="#263238"/>
<path d="M139.556 78.7321V79.2022H136.793V75.3955H139.482V75.8713H137.338V77.0179H139.247V77.4766H137.338V78.7092L139.556 78.7321Z" fill="#263238"/>
<path d="M142.987 79.2022L142.161 78.0556H141.926H140.969V79.2022H140.43V75.3955H141.915C142.901 75.3955 143.503 75.8943 143.503 76.7256C143.515 76.9896 143.439 77.2503 143.288 77.4671C143.137 77.6838 142.918 77.8443 142.666 77.9238L143.566 79.2022H142.987ZM142.987 76.7256C142.987 76.1809 142.62 75.8713 141.926 75.8713H140.969V77.5912H141.897C142.602 77.5855 142.969 77.2702 142.969 76.7256H142.987Z" fill="#263238"/>
<path d="M147.672 75.3955V79.2022H147.225L144.932 76.3644V79.2022H144.41V75.3955H144.857L147.151 78.262V75.3955H147.672Z" fill="#263238"/>
<path d="M151.234 78.2271H149.211L148.792 79.1788H148.219L149.939 75.3721H150.478L152.197 79.1788H151.624L151.234 78.2271ZM151.039 77.7914L150.22 75.9339L149.4 77.7971L151.039 77.7914Z" fill="#263238"/>
<path d="M152.789 75.3955H153.334V78.7321H155.392V79.2022H152.789V75.3955Z" fill="#263238"/>
<path d="M157.129 78.8004L157.335 78.3762C157.69 78.6631 158.134 78.8172 158.591 78.8119C159.25 78.8119 159.531 78.5596 159.531 78.2386C159.531 77.3098 157.238 77.8946 157.238 76.4785C157.238 75.9052 157.691 75.395 158.694 75.395C159.126 75.3861 159.552 75.5015 159.921 75.7275L159.737 76.1632C159.426 75.9636 159.064 75.8563 158.694 75.8536C158.046 75.8536 157.771 76.1288 157.771 76.4613C157.771 77.3901 160.064 76.8053 160.064 78.1812C160.064 78.7545 159.594 79.2648 158.591 79.2648C158.065 79.2824 157.548 79.1184 157.129 78.8004V78.8004Z" fill="#263238"/>
<path d="M163.624 78.7321V79.2022H160.855V75.3955H163.544V75.8713H161.4V77.0179H163.326V77.4766H161.417V78.7092L163.624 78.7321Z" fill="#263238"/>
<path d="M167.049 79.2022L166.23 78.0556H165.989H165.049V79.2022H164.504V75.3955H165.989C166.981 75.3955 167.577 75.8943 167.577 76.7256C167.589 76.9896 167.514 77.2503 167.362 77.4671C167.211 77.6838 166.992 77.8443 166.74 77.9238L167.64 79.2022H167.049ZM167.049 76.7256C167.049 76.1809 166.688 75.8713 165.989 75.8713H165.049V77.5912H165.972C166.671 77.5855 167.032 77.2702 167.032 76.7256H167.049Z" fill="#263238"/>
<path d="M171.76 75.3955L170.092 79.2022H169.553L167.879 75.3955H168.452L169.828 78.5257L171.21 75.3955H171.76Z" fill="#263238"/>
<path d="M175.009 78.7321V79.2022H172.246V75.3955H174.929V75.8713H172.785V77.0179H174.7V77.4766H172.785V78.7092L175.009 78.7321Z" fill="#263238"/>
<path d="M178.432 79.2022L177.612 78.0556H177.372H176.431V79.2022H175.887V75.3955H177.372C178.363 75.3955 178.96 75.8943 178.96 76.7256C178.972 76.9896 178.896 77.2503 178.745 77.4671C178.594 77.6838 178.375 77.8443 178.123 77.9238L179.028 79.2022H178.432ZM178.432 76.7256C178.432 76.1809 178.071 75.8713 177.372 75.8713H176.449V77.5912H177.372C178.054 77.5855 178.415 77.2702 178.415 76.7256H178.432Z" fill="#263238"/>
<path d="M147.343 85.2955V86.0522H144.207V81.999H147.274V82.75H145.142V83.6329H147.028V84.361H145.142V85.2955H147.343Z" fill="#263238"/>
<path d="M150.675 86.0522L149.896 84.9056H149.03V86.0522H148.09V81.999H149.844C150.928 81.999 151.61 82.5723 151.61 83.4667C151.62 83.7403 151.545 84.0104 151.395 84.2395C151.245 84.4686 151.028 84.6453 150.773 84.7451L151.684 86.0522H150.675ZM149.793 82.7615H149.03V84.1718H149.793C150.366 84.1718 150.658 83.9081 150.658 83.4667C150.658 83.0252 150.366 82.7615 149.793 82.7615Z" fill="#263238"/>
<path d="M154.927 86.0522L154.148 84.9056H153.282V86.0522H152.348V81.999H154.102C155.185 81.999 155.862 82.5723 155.862 83.4667C155.872 83.7403 155.798 84.0104 155.648 84.2395C155.498 84.4686 155.28 84.6453 155.025 84.7451L155.936 86.0522H154.927ZM154.05 82.7615H153.282V84.1718H154.05C154.624 84.1718 154.91 83.9081 154.91 83.4667C154.91 83.0252 154.624 82.7615 154.05 82.7615V82.7615Z" fill="#263238"/>
<path d="M156.343 84.0234C156.318 83.5787 156.427 83.1366 156.656 82.7545C156.885 82.3724 157.223 82.0677 157.627 81.88C158.031 81.6923 158.482 81.6302 158.921 81.7017C159.361 81.7732 159.769 81.9751 160.093 82.2811C160.416 82.5872 160.641 82.9833 160.736 83.4183C160.832 83.8533 160.795 84.307 160.631 84.7208C160.466 85.1345 160.18 85.4893 159.812 85.739C159.443 85.9888 159.007 86.1221 158.562 86.1217C158.277 86.1381 157.991 86.0959 157.722 85.9979C157.453 85.8998 157.208 85.7478 157 85.5513C156.792 85.3548 156.627 85.1179 156.514 84.8552C156.401 84.5924 156.343 84.3094 156.343 84.0234V84.0234ZM159.829 84.0234C159.823 83.7741 159.744 83.532 159.602 83.3275C159.459 83.1229 159.259 82.965 159.027 82.8735C158.795 82.782 158.542 82.7609 158.298 82.813C158.054 82.8651 157.831 82.9879 157.657 83.1662C157.482 83.3445 157.364 83.5703 157.318 83.8152C157.271 84.0602 157.298 84.3134 157.395 84.5433C157.491 84.7731 157.654 84.9693 157.861 85.1073C158.069 85.2453 158.313 85.319 158.562 85.319C158.732 85.3231 158.901 85.2922 159.059 85.2282C159.216 85.1642 159.359 85.0684 159.477 84.9469C159.596 84.8253 159.689 84.6806 159.749 84.5217C159.81 84.3628 159.837 84.1932 159.829 84.0234Z" fill="#263238"/>
<path d="M164.074 86.0522L163.288 84.9056H162.428V86.0522H161.488V81.999H163.243C164.326 81.999 165.003 82.5723 165.003 83.4667C165.014 83.7398 164.941 84.0098 164.792 84.239C164.643 84.4681 164.426 84.6451 164.171 84.7451L165.077 86.0522H164.074ZM163.191 82.7615H162.428V84.1718H163.191C163.764 84.1718 164.057 83.9081 164.057 83.4667C164.057 83.0252 163.764 82.7615 163.191 82.7615Z" fill="#263238"/>
<path d="M124.167 70.9462C123.927 70.9473 123.69 70.884 123.483 70.7631C123.275 70.6421 123.104 70.4678 122.986 70.2582C122.865 70.0492 122.801 69.8119 122.801 69.5702C122.801 69.3286 122.865 69.0913 122.986 68.8823L126.97 62.0543C127.092 61.8457 127.266 61.6727 127.475 61.553C127.684 61.4332 127.922 61.3708 128.163 61.3721V61.3721C128.403 61.3734 128.639 61.4382 128.847 61.56C129.054 61.6818 129.226 61.8563 129.344 62.0658L133.265 68.9454C133.388 69.1529 133.452 69.3895 133.452 69.6305C133.452 69.8714 133.388 70.108 133.265 70.3155C133.145 70.5246 132.971 70.6978 132.761 70.8177C132.552 70.9375 132.314 70.9997 132.073 70.9978L124.167 70.9576V70.9462ZM128.18 61.7734C128.011 61.7699 127.843 61.8123 127.696 61.896C127.549 61.9798 127.427 62.1018 127.343 62.2492L123.359 69.0772C123.273 69.2231 123.227 69.3891 123.226 69.5582C123.225 69.7274 123.269 69.8939 123.352 70.041C123.436 70.188 123.557 70.3104 123.703 70.3958C123.849 70.4813 124.015 70.5267 124.184 70.5277L132.09 70.5621C132.259 70.563 132.425 70.5195 132.572 70.4359C132.719 70.3522 132.841 70.2315 132.926 70.0857C133.012 69.9399 133.057 69.7742 133.058 69.6052C133.06 69.4363 133.016 69.27 132.933 69.1231L129.011 62.2435C128.924 62.0993 128.8 61.9808 128.652 61.9002C128.504 61.8196 128.337 61.7798 128.169 61.7849L128.18 61.7734Z" fill="#68A395"/>
<path d="M127.57 68.7501C127.57 68.6821 127.584 68.6148 127.611 68.5523C127.638 68.4899 127.677 68.4336 127.726 68.3869C127.776 68.3401 127.834 68.304 127.898 68.2807C127.962 68.2574 128.03 68.2474 128.098 68.2513C128.165 68.2481 128.233 68.2589 128.296 68.283C128.359 68.3071 128.417 68.3439 128.466 68.3913C128.514 68.4386 128.552 68.4954 128.578 68.5581C128.603 68.6208 128.615 68.6881 128.614 68.7558C128.615 68.8235 128.602 68.8907 128.576 68.9533C128.55 69.016 128.512 69.0728 128.464 69.1204C128.416 69.168 128.359 69.2054 128.296 69.2305C128.233 69.2555 128.165 69.2676 128.098 69.266C128.029 69.2684 127.96 69.2567 127.896 69.2317C127.832 69.2068 127.773 69.1691 127.724 69.1208C127.674 69.0726 127.635 69.0149 127.609 68.9512C127.583 68.8874 127.57 68.819 127.57 68.7501V68.7501ZM127.616 64.6338H128.585L128.419 67.7009H127.782L127.616 64.6338Z" fill="#68A395"/>
<path d="M174.632 70.9462C174.392 70.9473 174.155 70.884 173.948 70.7631C173.74 70.6421 173.568 70.4678 173.451 70.2582C173.33 70.0492 173.266 69.8119 173.266 69.5702C173.266 69.3286 173.33 69.0913 173.451 68.8823L177.435 62.0543C177.556 61.8457 177.73 61.6727 177.94 61.553C178.149 61.4332 178.387 61.3708 178.628 61.3721V61.3721C178.868 61.3734 179.104 61.4382 179.312 61.56C179.519 61.6818 179.69 61.8563 179.809 62.0658L183.73 68.9454C183.853 69.1529 183.917 69.3895 183.917 69.6305C183.917 69.8714 183.853 70.108 183.73 70.3155C183.609 70.5246 183.435 70.6978 183.226 70.8177C183.016 70.9375 182.779 70.9997 182.538 70.9978L174.632 70.9576V70.9462ZM178.645 61.7734C178.475 61.7699 178.308 61.8123 178.161 61.896C178.014 61.9798 177.892 62.1018 177.808 62.2492L173.823 69.0772C173.738 69.2231 173.692 69.3891 173.691 69.5582C173.69 69.7274 173.734 69.8939 173.817 70.041C173.901 70.188 174.022 70.3104 174.168 70.3958C174.314 70.4813 174.48 70.5267 174.649 70.5277V70.5277L182.561 70.5621C182.729 70.562 182.895 70.5177 183.041 70.4337C183.187 70.3497 183.308 70.2288 183.393 70.0832C183.477 69.9376 183.522 69.7723 183.523 69.6038C183.524 69.4353 183.481 69.2696 183.398 69.1231L179.476 62.2435C179.389 62.0993 179.265 61.9808 179.117 61.9002C178.969 61.8196 178.802 61.7798 178.633 61.7849L178.645 61.7734Z" fill="#68A395"/>
<path d="M178.039 68.7501C178.039 68.6821 178.053 68.6148 178.08 68.5523C178.106 68.4899 178.146 68.4336 178.195 68.3869C178.245 68.3401 178.303 68.304 178.367 68.2807C178.431 68.2574 178.499 68.2474 178.567 68.2513C178.634 68.2481 178.702 68.2589 178.765 68.283C178.828 68.3071 178.886 68.3439 178.934 68.3913C178.983 68.4386 179.021 68.4954 179.046 68.5581C179.072 68.6208 179.084 68.6881 179.083 68.7558C179.083 68.8235 179.07 68.8907 179.045 68.9533C179.019 69.016 178.981 69.0728 178.933 69.1204C178.885 69.168 178.827 69.2054 178.764 69.2305C178.702 69.2555 178.634 69.2676 178.567 69.266C178.498 69.2684 178.429 69.2567 178.365 69.2317C178.3 69.2068 178.242 69.1691 178.192 69.1208C178.143 69.0726 178.104 69.0149 178.078 68.9512C178.051 68.8874 178.038 68.819 178.039 68.7501V68.7501ZM178.085 64.6338H179.054L178.888 67.7009H178.234L178.085 64.6338Z" fill="#68A395"/>
</svg>
