<svg width="321" height="368" viewBox="0 0 321 368" fill="none" xmlns="http://www.w3.org/2000/svg">
<path d="M173.699 31.7919C173.699 31.7919 128.117 26.2257 92.5438 59.3979C56.9706 92.57 47.4177 144.745 38.5645 186.783C29.7113 228.822 49.1703 265.178 84.8398 275.733C120.509 286.287 135.75 255.471 179.618 244.275C223.486 233.078 236.872 236.744 267.572 203.424C298.273 170.104 290.851 109.378 251.522 72.0581C212.193 34.7386 173.699 31.7919 173.699 31.7919Z" fill="#68A395"/>
<path opacity="0.7" d="M173.699 31.7919C173.699 31.7919 128.117 26.2257 92.5438 59.3979C56.9706 92.57 47.4177 144.745 38.5645 186.783C29.7113 228.822 49.1703 265.178 84.8398 275.733C120.509 286.287 135.75 255.471 179.618 244.275C223.486 233.078 236.872 236.744 267.572 203.424C298.273 170.104 290.851 109.378 251.522 72.0581C212.193 34.7386 173.699 31.7919 173.699 31.7919Z" fill="white"/>
<path d="M42.5195 236.115C61.3494 230.337 100.974 218.883 122.84 218.023C152.218 216.861 201.89 240.005 232.866 244.05C263.843 248.094 284.675 246.945 284.675 246.945" stroke="#263238" stroke-width="1.20355" stroke-linecap="round" stroke-linejoin="round"/>
<path d="M32.042 239.421C32.042 239.421 33.6727 238.888 36.536 237.983" stroke="#263238" stroke-width="1.20355" stroke-linecap="round" stroke-linejoin="round"/>
<path d="M276.31 203.366C265.484 200.786 254.365 199.648 243.241 199.983C220.264 200.811 195.425 204.111 164.66 208.4C133.895 212.688 90.1303 188.973 60.3479 197.774C30.5655 206.576 32.8254 209.221 32.8254 209.221" stroke="#263238" stroke-width="1.20355" stroke-linecap="round" stroke-linejoin="round"/>
<path d="M284.778 205.755C284.778 205.755 283.623 205.337 281.523 204.734" stroke="#263238" stroke-width="1.20355" stroke-linecap="round" stroke-linejoin="round"/>
<path d="M184.324 58.743C183.967 57.286 183.132 55.9909 181.952 55.0649C180.771 54.139 179.315 53.6357 177.815 53.6357C176.314 53.6357 174.858 54.139 173.677 55.0649C172.497 55.9909 171.662 57.286 171.305 58.743H184.324Z" stroke="#263238" stroke-width="1.20355" stroke-linecap="round" stroke-linejoin="round"/>
<path d="M250.097 58.7431C249.703 57.0841 248.807 55.5868 247.532 54.4543C246.257 53.3218 244.665 52.6091 242.971 52.4129C243.188 51.2354 243.298 50.0407 243.299 48.8434C243.293 43.9777 241.467 39.2902 238.179 35.7029C234.892 32.1155 230.382 29.8879 225.535 29.4582C220.688 29.0284 215.856 30.4275 211.989 33.3805C208.122 36.3334 205.499 40.6264 204.637 45.4151C202.56 43.7891 200.021 42.8653 197.385 42.7768C194.748 42.6884 192.152 43.44 189.971 44.9231C187.79 46.4063 186.137 48.5442 185.25 51.0282C184.363 53.5123 184.288 56.2139 185.037 58.7431H250.097Z" stroke="#263238" stroke-width="1.20355" stroke-linecap="round" stroke-linejoin="round"/>
<path d="M68.469 74.3758C68.2889 73.6348 67.865 72.9757 67.2654 72.5044C66.6659 72.0332 65.9254 71.777 65.1627 71.777C64.4001 71.777 63.6596 72.0332 63.06 72.5044C62.4605 72.9757 62.0366 73.6348 61.8564 74.3758H68.469Z" stroke="#263238" stroke-width="1.20355" stroke-linecap="round" stroke-linejoin="round"/>
<path d="M101.86 74.3758C101.658 73.5343 101.202 72.7751 100.554 72.201C99.9067 71.6269 99.0984 71.2655 98.2387 71.1658C98.5081 69.8735 98.5161 68.5404 98.2623 67.245C98.0085 65.9496 97.4981 64.7181 96.761 63.623C96.024 62.5279 95.0752 61.5913 93.9706 60.8686C92.866 60.1458 91.628 59.6514 90.3294 59.4144C89.0307 59.1775 87.6979 59.2029 86.4092 59.489C85.1205 59.7751 83.9022 60.3163 82.8259 61.0805C81.7496 61.8448 80.8371 62.8167 80.1422 63.939C79.4473 65.0614 78.984 66.3114 78.7797 67.6155C77.7252 66.7904 76.4358 66.3216 75.0976 66.2769C73.7594 66.2322 72.4416 66.6138 71.3343 67.3667C70.2271 68.1197 69.3878 69.2049 68.9374 70.4659C68.487 71.7268 68.449 73.0982 68.8287 74.3822L101.86 74.3758Z" stroke="#263238" stroke-width="1.20355" stroke-linecap="round" stroke-linejoin="round"/>
<path d="M98.4953 84.8275C98.3789 84.3622 98.1104 83.9491 97.7324 83.6539C97.3543 83.3587 96.8884 83.1984 96.4088 83.1984C95.9291 83.1984 95.4632 83.3587 95.0852 83.6539C94.7071 83.9491 94.4386 84.3622 94.3223 84.8275H98.4953Z" stroke="#263238" stroke-width="1.20355" stroke-linecap="round" stroke-linejoin="round"/>
<path d="M119.572 84.8275C119.444 84.2966 119.156 83.8177 118.747 83.455C118.339 83.0924 117.829 82.8634 117.287 82.7988C117.357 82.422 117.391 82.0394 117.389 81.6561C117.391 80.0954 116.807 78.5909 115.754 77.4392C114.701 76.2875 113.255 75.5722 111.7 75.4344C110.146 75.2966 108.596 75.7463 107.357 76.6948C106.117 77.6433 105.278 79.0217 105.005 80.5582C104.339 80.0402 103.526 79.7465 102.682 79.7193C101.839 79.6922 101.008 79.9331 100.31 80.4073C99.6119 80.8815 99.0819 81.5647 98.7963 82.3589C98.5106 83.153 98.4839 84.0173 98.72 84.8275H119.572Z" stroke="#263238" stroke-width="1.20355" stroke-linecap="round" stroke-linejoin="round"/>
<path d="M220.418 259.972H219.776C209.613 250.618 181.487 243.922 148.379 243.922C106.713 243.922 72.9375 254.572 72.9375 267.676C72.9375 280.779 106.713 291.43 148.379 291.43C176.1 291.43 200.33 286.717 213.446 279.694C215.699 279.803 218.023 279.861 220.398 279.861C241.546 279.861 258.694 275.367 258.694 269.897C258.694 264.427 241.565 259.972 220.418 259.972Z" fill="#68A395"/>
<path opacity="0.5" d="M220.418 259.972H219.776C209.613 250.618 181.487 243.922 148.379 243.922C106.713 243.922 72.9375 254.572 72.9375 267.676C72.9375 280.779 106.713 291.43 148.379 291.43C176.1 291.43 200.33 286.717 213.446 279.694C215.699 279.803 218.023 279.861 220.398 279.861C241.546 279.861 258.694 275.367 258.694 269.897C258.694 264.427 241.565 259.972 220.418 259.972Z" fill="white"/>
<path d="M197.094 164.07C197.094 164.07 199.244 182.989 209.131 187.721C219.018 192.452 224.616 185.153 224.616 178.476C224.616 171.799 235.793 165.578 243.966 165.578C252.139 165.578 254.501 176.544 251.028 185.57C247.555 194.597 243.318 205.35 227.21 210.512C211.102 215.674 201.626 208.791 201.626 208.791C201.626 208.791 203.995 213.523 201.626 214.165C199.257 214.807 192.6 207.501 192.6 207.501C192.6 207.501 195.611 213.953 192.17 211.802C188.728 209.652 185.075 196.966 185.075 196.966C185.075 196.966 185.287 201.46 182.507 201.909C179.728 202.359 178.206 192.664 178.206 192.664L196.054 159.775L197.094 164.07Z" fill="white"/>
<path d="M235.531 196.381C234.168 196.381 232.862 196.923 231.899 197.886C230.936 198.849 230.395 200.155 230.395 201.517C230.395 202.88 230.936 204.186 231.899 205.149C232.862 206.112 234.168 206.653 235.531 206.653H235.774C237.413 205.657 238.956 204.512 240.384 203.232C240.578 202.679 240.677 202.097 240.679 201.511C240.679 200.836 240.545 200.168 240.285 199.545C240.026 198.921 239.646 198.355 239.168 197.879C238.69 197.403 238.123 197.025 237.498 196.768C236.874 196.511 236.206 196.38 235.531 196.381Z" fill="#68A395"/>
<path d="M224.231 181.583C222.793 187.124 217.503 191.714 209.15 187.721C208.787 187.545 208.434 187.35 208.091 187.137C207.615 188.936 207.636 190.831 208.153 192.619C208.67 194.406 209.663 196.02 211.026 197.288C212.389 198.555 214.07 199.429 215.891 199.814C217.712 200.2 219.603 200.084 221.363 199.479C223.123 198.873 224.685 197.801 225.883 196.376C227.081 194.952 227.869 193.229 228.164 191.391C228.458 189.553 228.248 187.67 227.555 185.943C226.863 184.215 225.714 182.709 224.231 181.583Z" fill="#68A395"/>
<path d="M204.849 210.178C204.864 209.232 204.693 208.293 204.345 207.413C203.997 206.533 203.479 205.73 202.821 205.051C202.163 204.371 201.377 203.828 200.509 203.452C199.641 203.076 198.707 202.875 197.761 202.859C196.815 202.844 195.876 203.015 194.996 203.363C194.116 203.711 193.313 204.229 192.634 204.887C191.954 205.546 191.411 206.331 191.035 207.199C190.659 208.067 190.458 209.001 190.442 209.947C190.891 210.673 191.478 211.303 192.169 211.802C195.61 213.953 192.599 207.501 192.599 207.501C192.599 207.501 199.263 214.813 201.626 214.165C203.989 213.517 201.626 208.791 201.626 208.791C202.633 209.458 203.709 210.013 204.836 210.448C204.836 210.358 204.849 210.268 204.849 210.178Z" fill="#68A395"/>
<path opacity="0.2" d="M249.994 175.388C246.059 180.396 239.62 201.492 223.172 206.146C206.724 210.801 191.714 200.067 191.714 200.067C191.714 200.067 194.218 197.563 199.225 188.979C200.618 186.588 201.808 184.084 202.782 181.494C198.288 174.207 197.126 164.07 197.126 164.07L196.054 159.775L178.206 192.664C178.206 192.664 179.715 202.339 182.507 201.909C185.3 201.479 185.075 196.966 185.075 196.966C185.075 196.966 188.728 209.652 192.17 211.802C195.611 213.953 192.6 207.501 192.6 207.501C192.6 207.501 199.264 214.813 201.626 214.165C203.989 213.516 201.626 208.791 201.626 208.791C201.626 208.791 211.089 215.674 227.21 210.512C243.331 205.35 247.638 194.603 251.079 185.57C252.394 182.155 252.861 178.471 252.441 174.836C251.368 174.586 250.515 174.72 249.994 175.388Z" fill="black"/>
<path d="M197.094 164.07C197.094 164.07 199.244 182.989 209.131 187.721C219.018 192.452 224.616 185.153 224.616 178.476C224.616 171.799 235.793 165.578 243.966 165.578C252.139 165.578 254.501 176.544 251.028 185.57C247.555 194.597 243.318 205.35 227.21 210.512C211.102 215.674 201.626 208.791 201.626 208.791C201.626 208.791 203.995 213.523 201.626 214.165C199.257 214.807 192.6 207.501 192.6 207.501C192.6 207.501 195.611 213.953 192.17 211.802C188.728 209.652 185.075 196.966 185.075 196.966C185.075 196.966 185.287 201.46 182.507 201.909C179.728 202.359 178.206 192.664 178.206 192.664L196.054 159.775L197.094 164.07Z" stroke="#263238" stroke-width="1.20355" stroke-linecap="round" stroke-linejoin="round"/>
<path d="M246.027 192.234C245.346 192.234 244.693 191.964 244.211 191.482C243.73 191 243.459 190.347 243.459 189.666V149.22H248.595V189.666C248.595 190.347 248.324 191 247.843 191.482C247.361 191.964 246.708 192.234 246.027 192.234Z" fill="white" stroke="#263238" stroke-width="1.20355" stroke-linecap="round" stroke-linejoin="round"/>
<path d="M244.718 178.078C244.718 178.078 253.815 173.096 257.596 176.357C261.378 179.619 259.824 184.774 256.909 185.987C253.995 187.201 247.639 188.735 244.204 187.535C240.769 186.334 237.848 181.339 244.718 178.078Z" fill="white" stroke="#263238" stroke-width="1.20355" stroke-linecap="round" stroke-linejoin="round"/>
<path d="M240.75 164.93C240.75 164.93 252.146 158.696 256.877 162.786C261.609 166.875 259.67 173.314 256.017 174.823C252.364 176.332 244.409 178.264 240.108 176.749C235.807 175.234 232.16 169.019 240.75 164.93Z" fill="white" stroke="#263238" stroke-width="1.20355" stroke-linecap="round" stroke-linejoin="round"/>
<path d="M225.278 182.328C225.278 182.328 222.915 170.291 226.998 163.19C231.081 156.089 241.186 160.622 244.416 168.14C247.645 175.658 245.7 183.612 239.466 183.612C233.232 183.612 232.16 173.719 232.16 173.719" fill="white"/>
<path d="M225.278 182.328C225.278 182.328 222.915 170.291 226.998 163.19C231.081 156.089 241.186 160.622 244.416 168.14C247.645 175.658 245.7 183.612 239.466 183.612C233.232 183.612 232.16 173.719 232.16 173.719" stroke="#263238" stroke-width="1.20355" stroke-linecap="round" stroke-linejoin="round"/>
<path d="M242.592 180.826C242.592 180.826 243.234 184.928 241.501 187.843C241.353 188.097 241.118 188.289 240.84 188.384C240.562 188.48 240.259 188.472 239.986 188.363C239.784 188.284 239.607 188.152 239.474 187.982C239.341 187.811 239.256 187.608 239.228 187.393C239.068 186.109 238.625 183.477 237.591 181.75C237.33 181.315 237.191 180.817 237.191 180.309C237.191 179.801 237.33 179.303 237.591 178.868C237.767 178.575 238.005 178.325 238.29 178.137C238.574 177.948 238.897 177.825 239.235 177.776C241.559 177.385 242.393 178.322 242.592 180.826Z" fill="white" stroke="#263238" stroke-width="1.20355" stroke-linecap="round" stroke-linejoin="round"/>
<path d="M130.577 199.925V245.347C130.577 245.347 117.274 254.887 111.253 257.391C105.231 259.895 95.6905 253.879 89.9189 258.675C84.1473 263.47 86.1568 270.924 93.1802 271.694C93.1802 271.694 93.1802 275.713 96.6984 277.472C97.7926 277.982 98.9779 278.267 100.184 278.311C101.39 278.356 102.593 278.158 103.722 277.729C103.722 277.729 104.223 283.751 111.503 283.25C118.783 282.75 120.536 276.972 124.548 271.2C128.561 265.429 131.078 260.158 137.099 259.407C143.121 258.655 146.884 257.397 146.884 250.123C146.884 245.629 142.39 245.353 141.87 240.84C141.35 236.327 141.87 201.678 141.87 201.678L130.577 199.925Z" fill="white"/>
<path d="M135.654 250.746C137.473 250.746 138.947 249.272 138.947 247.453C138.947 245.634 137.473 244.159 135.654 244.159C133.835 244.159 132.36 245.634 132.36 247.453C132.36 249.272 133.835 250.746 135.654 250.746Z" fill="#68A395"/>
<path d="M135.244 210.576C135.244 210.225 135.174 209.876 135.04 209.552C134.905 209.227 134.708 208.932 134.459 208.683C134.211 208.434 133.916 208.237 133.591 208.103C133.266 207.968 132.918 207.899 132.566 207.899C132.189 207.899 131.817 207.98 131.473 208.136C131.13 208.292 130.824 208.52 130.576 208.804V212.348C130.824 212.632 131.13 212.86 131.473 213.016C131.817 213.172 132.189 213.253 132.566 213.253C133.276 213.253 133.957 212.971 134.459 212.469C134.961 211.967 135.244 211.286 135.244 210.576Z" fill="#68A395"/>
<path d="M139.77 223.153C138.705 223.195 137.699 223.647 136.961 224.415C136.223 225.183 135.811 226.206 135.811 227.271C135.811 228.336 136.223 229.36 136.961 230.128C137.699 230.895 138.705 231.348 139.77 231.39C140.424 231.386 141.067 231.223 141.644 230.915C141.644 228.648 141.644 226.157 141.644 223.628C141.067 223.321 140.424 223.158 139.77 223.153Z" fill="#68A395"/>
<path opacity="0.2" d="M146.883 250.117C146.883 245.623 142.389 245.347 141.869 240.834C141.349 236.32 141.869 201.672 141.869 201.672L130.576 199.912V214.492C132.951 215.988 136.039 217.388 139.127 217.214V243.318C139.127 243.318 141.278 249.038 139.846 253.686C138.415 258.334 127.327 258.334 123.751 262.629C120.175 266.924 117.672 275.861 114.121 279.797C112.94 281.082 111.623 282.236 110.192 283.238C110.637 283.263 111.083 283.263 111.528 283.238C118.802 282.73 120.561 276.959 124.573 271.187C128.586 265.416 131.102 260.145 137.124 259.394C143.146 258.643 146.883 257.391 146.883 250.117Z" fill="black"/>
<path d="M130.577 199.925V245.347C130.577 245.347 117.274 254.887 111.253 257.391C105.231 259.895 95.6905 253.879 89.9189 258.675C84.1473 263.47 86.1568 270.924 93.1802 271.694C93.1802 271.694 93.1802 275.713 96.6984 277.472C97.7926 277.982 98.9779 278.267 100.184 278.311C101.39 278.356 102.593 278.158 103.722 277.729C103.722 277.729 104.223 283.751 111.503 283.25C118.783 282.75 120.536 276.972 124.548 271.2C128.561 265.429 131.078 260.158 137.099 259.407C143.121 258.655 146.884 257.397 146.884 250.123C146.884 245.629 142.39 245.353 141.87 240.84C141.35 236.327 141.87 201.678 141.87 201.678L130.577 199.925Z" stroke="#263238" stroke-width="1.20355" stroke-linecap="round" stroke-linejoin="round"/>
<path d="M103.721 277.723C103.721 277.723 103.471 268.934 114.276 265.146" stroke="#263238" stroke-width="1.20355" stroke-linecap="round" stroke-linejoin="round"/>
<path d="M93.1797 271.694C93.1797 271.694 93.1797 264.671 104.98 261.91" stroke="#263238" stroke-width="1.20355" stroke-linecap="round" stroke-linejoin="round"/>
<path d="M104.851 276.291C104.851 276.291 101.365 278.545 100.357 281.761C100.268 282.044 100.283 282.35 100.401 282.622C100.519 282.895 100.732 283.116 100.999 283.244C101.192 283.342 101.408 283.386 101.624 283.371C101.84 283.356 102.047 283.284 102.225 283.161C103.272 282.454 105.557 281.016 107.535 280.65C108.037 280.556 108.504 280.326 108.886 279.987C109.268 279.648 109.551 279.212 109.705 278.724C109.802 278.403 109.828 278.063 109.78 277.731C109.732 277.398 109.612 277.08 109.429 276.798C108.119 274.776 106.861 274.776 104.851 276.291Z" fill="white" stroke="#263238" stroke-width="1.20355" stroke-linecap="round" stroke-linejoin="round"/>
<path d="M94.4706 272.003C94.4706 272.003 90.9846 274.262 89.9445 277.472C89.8536 277.756 89.8686 278.062 89.9867 278.335C90.1048 278.608 90.3179 278.828 90.5865 278.956C90.7794 279.052 90.9946 279.096 91.21 279.083C91.4255 279.069 91.6334 278.999 91.8127 278.878C92.8592 278.166 95.1447 276.734 97.1221 276.362C97.6244 276.268 98.0917 276.039 98.4739 275.7C98.8562 275.36 99.139 274.923 99.292 274.436C99.3892 274.114 99.4149 273.775 99.3672 273.442C99.3195 273.11 99.1996 272.791 99.016 272.51C97.732 270.5 96.4801 270.5 94.4706 272.003Z" fill="white" stroke="#263238" stroke-width="1.20355" stroke-linecap="round" stroke-linejoin="round"/>
<path d="M86.1885 264.864C86.1885 264.864 82.7025 267.117 81.656 270.333C81.5665 270.617 81.5821 270.922 81.7001 271.195C81.818 271.467 82.0303 271.688 82.298 271.816C82.4915 271.912 82.707 271.955 82.9224 271.94C83.1378 271.926 83.3455 271.854 83.5242 271.733C84.5707 271.02 86.8626 269.589 88.8336 269.216C89.3364 269.124 89.8044 268.895 90.1869 268.556C90.5693 268.216 90.8517 267.779 91.0035 267.29C91.1021 266.969 91.1284 266.629 91.0807 266.297C91.033 265.964 90.9124 265.645 90.7275 265.364C89.4499 263.355 88.1916 263.355 86.1885 264.864Z" fill="white" stroke="#263238" stroke-width="1.20355" stroke-linecap="round" stroke-linejoin="round"/>
<path d="M170.13 199.925V245.347C170.13 245.347 183.432 254.887 189.454 257.391C195.476 259.895 205.009 253.879 210.781 258.675C216.553 263.47 214.55 270.969 207.52 271.72C207.52 271.72 207.52 275.739 204.008 277.498C202.913 278.008 201.726 278.293 200.519 278.337C199.312 278.381 198.108 278.183 196.978 277.755C196.978 277.755 196.477 283.777 189.203 283.276C181.93 282.775 180.164 276.997 176.152 271.226C172.139 265.454 169.629 260.183 163.607 259.432C157.585 258.681 153.816 257.423 153.816 250.149C153.816 245.655 158.31 245.379 158.837 240.866C159.363 236.352 158.837 201.704 158.837 201.704L170.13 199.925Z" fill="white"/>
<path d="M164.898 244.981C166.717 244.981 168.191 243.506 168.191 241.687C168.191 239.868 166.717 238.394 164.898 238.394C163.079 238.394 161.604 239.868 161.604 241.687C161.604 243.506 163.079 244.981 164.898 244.981Z" fill="#68A395"/>
<path d="M159.043 219.352C159.543 219.665 160.119 219.837 160.708 219.851C161.298 219.865 161.881 219.72 162.396 219.432C162.91 219.143 163.338 218.722 163.635 218.212C163.931 217.702 164.085 217.121 164.08 216.531C164.075 215.942 163.912 215.364 163.607 214.858C163.303 214.353 162.868 213.939 162.349 213.659C161.83 213.379 161.245 213.244 160.655 213.267C160.066 213.291 159.493 213.472 158.998 213.793C159.011 215.571 159.03 217.446 159.043 219.352Z" fill="#68A395"/>
<path d="M170.13 223.75C169.092 224.04 168.179 224.662 167.528 225.521C166.877 226.379 166.524 227.427 166.524 228.504C166.524 229.581 166.877 230.629 167.528 231.487C168.179 232.345 169.092 232.967 170.13 233.258V223.75Z" fill="#68A395"/>
<path opacity="0.2" d="M158.856 201.684C158.856 201.684 158.953 208.265 159.017 216.059C162.279 216.416 165.575 216.33 168.814 215.802C168.814 215.802 167.023 242.618 167.382 246.194C167.742 249.77 183.83 259.073 188.485 260.145C193.139 261.217 201.28 260.646 205.645 263.002C208.316 264.446 209.594 268.253 210.178 271.008C214.974 268.889 215.77 262.751 210.82 258.649C205.042 253.879 195.515 259.901 189.493 257.365C183.471 254.829 170.13 245.347 170.13 245.347V199.925L158.856 201.684Z" fill="black"/>
<path d="M170.13 199.925V245.347C170.13 245.347 183.432 254.887 189.454 257.391C195.476 259.895 205.009 253.879 210.781 258.675C216.553 263.47 214.55 270.969 207.52 271.72C207.52 271.72 207.52 275.739 204.008 277.498C202.913 278.008 201.726 278.293 200.519 278.337C199.312 278.381 198.108 278.183 196.978 277.755C196.978 277.755 196.477 283.777 189.203 283.276C181.93 282.775 180.164 276.997 176.152 271.226C172.139 265.454 169.629 260.183 163.607 259.432C157.585 258.681 153.816 257.423 153.816 250.149C153.816 245.655 158.31 245.379 158.837 240.866C159.363 236.352 158.837 201.704 158.837 201.704L170.13 199.925Z" stroke="#263238" stroke-width="1.20355" stroke-linecap="round" stroke-linejoin="round"/>
<path d="M196.998 277.723C196.998 277.723 197.248 268.934 186.463 265.172" stroke="#263238" stroke-width="1.20355" stroke-linecap="round" stroke-linejoin="round"/>
<path d="M207.54 271.694C207.54 271.694 207.54 264.671 195.746 261.91" stroke="#263238" stroke-width="1.20355" stroke-linecap="round" stroke-linejoin="round"/>
<path d="M195.867 276.291C195.867 276.291 199.353 278.545 200.393 281.761C200.484 282.04 200.472 282.343 200.361 282.614C200.249 282.886 200.045 283.109 199.784 283.244C199.591 283.342 199.375 283.386 199.159 283.371C198.943 283.356 198.735 283.284 198.557 283.161C197.511 282.454 195.219 281.016 193.248 280.65C192.745 280.558 192.277 280.329 191.895 279.99C191.512 279.65 191.23 279.213 191.078 278.724C190.98 278.403 190.953 278.064 191 277.732C191.046 277.399 191.165 277.08 191.348 276.798C192.6 274.776 193.884 274.776 195.867 276.291Z" fill="white" stroke="#263238" stroke-width="1.20355" stroke-linecap="round" stroke-linejoin="round"/>
<path d="M206.249 272.003C206.249 272.003 209.735 274.262 210.775 277.472C210.868 277.752 210.858 278.055 210.746 278.327C210.634 278.6 210.428 278.823 210.165 278.956C209.972 279.053 209.757 279.097 209.542 279.084C209.326 279.07 209.118 278.999 208.939 278.878C207.893 278.166 205.601 276.734 203.63 276.362C203.126 276.27 202.658 276.041 202.276 275.702C201.893 275.362 201.611 274.924 201.46 274.436C201.361 274.114 201.335 273.775 201.382 273.442C201.43 273.109 201.551 272.791 201.736 272.51C202.988 270.5 204.24 270.5 206.249 272.003Z" fill="white" stroke="#263238" stroke-width="1.20355" stroke-linecap="round" stroke-linejoin="round"/>
<path d="M214.537 264.864C214.537 264.864 218.023 267.117 219.063 270.333C219.151 270.617 219.135 270.922 219.017 271.194C218.899 271.466 218.688 271.687 218.421 271.816C218.226 271.913 218.01 271.956 217.793 271.941C217.577 271.927 217.368 271.855 217.188 271.733C216.142 271.02 213.856 269.589 211.879 269.216C211.376 269.125 210.909 268.896 210.527 268.557C210.146 268.217 209.865 267.779 209.715 267.29C209.615 266.969 209.588 266.63 209.634 266.297C209.681 265.964 209.801 265.646 209.985 265.364C211.275 263.355 212.502 263.355 214.537 264.864Z" fill="white" stroke="#263238" stroke-width="1.20355" stroke-linecap="round" stroke-linejoin="round"/>
<path d="M86.4905 224.167C86.4905 224.167 86.3557 218.627 87.8451 216.874C89.3345 215.121 91.0551 223.223 90.946 224.302C90.8368 225.381 88.9237 227.268 86.4905 224.167Z" fill="white" stroke="#263238" stroke-width="1.20355" stroke-linecap="round" stroke-linejoin="round"/>
<path d="M96.2161 222.273C96.2161 222.273 96.0813 216.739 97.5643 214.987C99.0473 213.234 100.806 221.33 100.672 222.408C100.537 223.487 98.6428 225.381 96.2161 222.273Z" fill="white" stroke="#263238" stroke-width="1.20355" stroke-linecap="round" stroke-linejoin="round"/>
<path d="M85.6748 229.746C85.6748 229.746 83.9158 221.708 88.1915 221.201C92.4672 220.694 95.9854 235.781 95.9854 235.781C95.9854 235.781 92.968 219.693 98.2452 219.192C103.522 218.691 104.023 233.772 104.023 235.03C104.023 236.288 99.5292 241.816 92.7112 243.325C85.8931 244.833 85.6748 229.746 85.6748 229.746Z" fill="white" stroke="#263238" stroke-width="1.20355" stroke-linecap="round" stroke-linejoin="round"/>
<path d="M80.1477 227.949C80.1477 227.949 80.0129 222.408 81.4959 220.655C82.9789 218.903 84.738 227.005 84.6032 228.083C84.4684 229.162 82.5745 231.056 80.1477 227.949Z" fill="white" stroke="#263238" stroke-width="1.20355" stroke-linecap="round" stroke-linejoin="round"/>
<path d="M106.039 155.101C106.039 155.101 99.754 160.378 96.2358 171.433C92.7176 182.489 91.4593 187.522 94.9518 186.771C98.4443 186.02 99.7283 181.744 99.7283 181.744C99.7283 181.744 95.4526 194.308 97.7188 195.316C99.9851 196.324 102.996 194.032 102.996 194.032C102.996 194.032 102.014 205.119 104.004 208.387C105.994 211.655 106.765 211.655 106.765 211.655V231.762C106.765 231.762 100.736 230.253 95.7094 232.764C90.6825 235.274 90.1753 239.049 90.1753 239.049C90.1753 239.049 87.9155 226.986 82.8886 225.227C77.8618 223.467 77.8618 234.523 80.6224 240.808C83.383 247.093 91.9344 249.86 92.692 249.86C93.4495 249.86 91.1833 251.87 91.1833 251.87L97.9692 250.11C97.9692 250.11 94.7014 253.879 96.9613 253.879C99.2211 253.879 106.572 250.11 106.572 250.11C106.572 250.11 104.062 253.128 107.073 253.128C110.084 253.128 114.366 248.634 114.366 248.634C114.366 248.634 114.366 250.894 117.126 248.133C119.887 245.372 125.928 245.867 127.18 229.515C128.432 213.163 127.18 192.568 127.18 192.568C127.18 192.568 121.12 144.29 106.039 155.101Z" fill="white"/>
<path d="M123.059 195.68C124.712 191.717 122.841 187.165 118.878 185.511C114.915 183.857 110.362 185.729 108.709 189.692C107.055 193.655 108.927 198.207 112.89 199.861C116.852 201.515 121.405 199.643 123.059 195.68Z" fill="#68A395"/>
<path d="M103.477 243.742C101.563 243.748 99.7191 244.461 98.2976 245.742C96.8761 247.024 95.9773 248.785 95.7734 250.688L98.0204 250.11C98.0204 250.11 94.7527 253.879 97.0125 253.879C99.2723 253.879 106.572 250.11 106.572 250.11C106.572 250.11 104.062 253.128 107.073 253.128C108.389 253.128 109.936 252.268 111.271 251.298C111.216 249.27 110.37 247.345 108.913 245.933C107.457 244.521 105.506 243.734 103.477 243.742Z" fill="#68A395"/>
<path d="M126.414 227.965C128.46 222.983 126.079 217.286 121.097 215.24C116.114 213.195 110.417 215.576 108.372 220.558C106.326 225.54 108.707 231.238 113.689 233.283C118.672 235.328 124.369 232.948 126.414 227.965Z" fill="#68A395"/>
<path d="M94.9771 186.771C98.0266 186.129 99.3748 182.822 99.683 181.956C98.7982 184.604 98.0651 187.3 97.4873 190.032C99.1965 189.355 100.63 188.126 101.56 186.541C102.49 184.955 102.863 183.104 102.62 181.282C102.376 179.46 101.53 177.772 100.216 176.486C98.9019 175.2 97.1957 174.391 95.3687 174.188C92.5375 183.317 91.7671 187.464 94.9771 186.771Z" fill="#68A395"/>
<path opacity="0.2" d="M106.039 155.101C106.039 155.101 102.752 157.874 99.6188 163.588C99.651 170.703 101.053 177.746 103.747 184.331C110.899 201.139 120.554 205.787 120.554 205.787C120.554 205.787 122.699 225.811 118.763 236.539C115.059 246.65 104.37 251.041 91.1572 249.423C91.6599 249.625 92.183 249.771 92.7173 249.86C93.4684 249.86 91.2086 251.87 91.2086 251.87L97.9945 250.11C97.9945 250.11 94.7267 253.879 96.9866 253.879C99.2464 253.879 106.572 250.11 106.572 250.11C106.572 250.11 104.061 253.128 107.072 253.128C110.083 253.128 114.366 248.634 114.366 248.634C114.366 248.634 114.366 250.894 117.126 248.133C119.887 245.372 125.928 245.867 127.18 229.515C128.432 213.163 127.18 192.568 127.18 192.568C127.18 192.568 121.119 144.29 106.039 155.101Z" fill="black"/>
<path d="M106.039 155.101C106.039 155.101 99.754 160.378 96.2358 171.433C92.7176 182.489 91.4593 187.522 94.9518 186.771C98.4443 186.02 99.7283 181.744 99.7283 181.744C99.7283 181.744 95.4526 194.308 97.7188 195.316C99.9851 196.324 102.996 194.032 102.996 194.032C102.996 194.032 102.014 205.119 104.004 208.387C105.994 211.655 106.765 211.655 106.765 211.655V231.762C106.765 231.762 100.736 230.253 95.7094 232.764C90.6825 235.274 90.1753 239.049 90.1753 239.049C90.1753 239.049 87.9155 226.986 82.8886 225.227C77.8618 223.467 77.8618 234.523 80.6224 240.808C83.383 247.093 91.9344 249.86 92.692 249.86C93.4495 249.86 91.1833 251.87 91.1833 251.87L97.9692 250.11C97.9692 250.11 94.7014 253.879 96.9613 253.879C99.2211 253.879 106.572 250.11 106.572 250.11C106.572 250.11 104.062 253.128 107.073 253.128C110.084 253.128 114.366 248.634 114.366 248.634C114.366 248.634 114.366 250.894 117.126 248.133C119.887 245.372 125.928 245.867 127.18 229.515C128.432 213.163 127.18 192.568 127.18 192.568C127.18 192.568 121.12 144.29 106.039 155.101Z" stroke="#263238" stroke-width="1.20355" stroke-linecap="round" stroke-linejoin="round"/>
<path d="M110.154 130.185C110.154 130.185 102.964 141.24 89.9699 144.559C76.9758 147.878 65.6381 146.774 65.9141 147.602C66.1902 148.43 70.6136 151.198 70.6136 151.198C70.6136 151.198 66.4662 150.915 67.0248 152.302C67.5833 153.688 71.4482 160.044 84.4422 163.357C97.4363 166.67 105.455 149.535 107.939 142.068C110.424 134.602 112.35 129.074 110.154 130.185Z" fill="white"/>
<path d="M71.4609 147.089C71.6218 148.979 72.1827 150.813 73.1064 152.469C74.0301 154.126 75.2954 155.567 76.8185 156.698C78.3417 157.828 80.0877 158.622 81.9409 159.026C83.7941 159.43 85.712 159.436 87.5675 159.042C89.423 158.649 91.1736 157.865 92.7032 156.744C94.2329 155.622 95.5065 154.188 96.4398 152.537C97.373 150.885 97.9445 149.055 98.1163 147.166C98.2881 145.277 98.0563 143.373 97.4363 141.58C95.0824 142.883 92.5738 143.884 89.9698 144.559C83.9033 146.035 77.701 146.883 71.4609 147.089Z" fill="#68A395"/>
<path d="M110.154 130.185C110.154 130.185 102.964 141.24 89.9699 144.559C76.9758 147.878 65.6381 146.774 65.9141 147.602C66.1902 148.43 70.6136 151.198 70.6136 151.198C70.6136 151.198 66.4662 150.915 67.0248 152.302C67.5833 153.688 71.4482 160.044 84.4422 163.357C97.4363 166.67 105.455 149.535 107.939 142.068C110.424 134.602 112.35 129.074 110.154 130.185Z" stroke="#263238" stroke-width="1.20355" stroke-linecap="round" stroke-linejoin="round"/>
<path d="M190.931 129.106C190.931 129.106 198.121 140.168 211.115 143.487C224.109 146.806 235.447 145.696 235.171 146.524C234.895 147.352 230.465 150.119 230.465 150.119C230.465 150.119 234.612 149.843 234.06 151.223C233.508 152.604 229.637 158.966 216.643 162.285C203.649 165.604 195.63 148.463 193.146 140.996C190.661 133.53 188.748 128.002 190.931 129.106Z" fill="white"/>
<path d="M219.23 145.092C218.188 147.73 218.177 150.665 219.2 153.31C220.223 155.956 222.205 158.12 224.751 159.37C231.364 156.115 233.649 152.27 234.06 151.23C234.612 149.849 230.465 150.125 230.465 150.125C230.465 150.125 234.895 147.358 235.171 146.53C235.383 145.875 228.475 146.415 219.23 145.092Z" fill="#68A395"/>
<path opacity="0.2" d="M207.077 150.357C207.392 147.711 206.891 144.534 206.23 141.786C200.109 138.97 194.834 134.598 190.931 129.106C188.722 128.002 190.655 133.53 193.146 140.996C195.637 148.463 203.649 165.604 216.643 162.285C207.257 162.426 206.364 156.436 207.077 150.357Z" fill="black"/>
<path d="M190.931 129.106C190.931 129.106 198.121 140.168 211.115 143.487C224.109 146.806 235.447 145.696 235.171 146.524C234.895 147.352 230.465 150.119 230.465 150.119C230.465 150.119 234.612 149.843 234.06 151.223C233.508 152.604 229.637 158.966 216.643 162.285C203.649 165.604 195.63 148.463 193.146 140.996C190.661 133.53 188.748 128.002 190.931 129.106Z" stroke="#263238" stroke-width="1.20355" stroke-linecap="round" stroke-linejoin="round"/>
<path d="M121.761 115.804C121.761 115.804 112.915 117.467 108.215 115.804C103.516 114.141 106.835 110.829 104.896 108.344C102.957 105.859 97.192 110.27 96.6013 118.295C96.0107 126.32 105.172 130.737 114.577 131.565L125.633 115.804H121.761Z" fill="#68A395" stroke="#263238" stroke-width="1.20355" stroke-linecap="round" stroke-linejoin="round"/>
<path d="M111.163 116.414C110.194 116.329 109.237 116.135 108.312 115.836C106.308 117.15 104.721 119.008 103.737 121.193C102.754 123.378 102.414 125.798 102.759 128.169C103.449 128.564 104.16 128.92 104.89 129.235C104.454 127.521 103.215 120.375 111.163 116.414Z" fill="#263238"/>
<path d="M105.538 111.83C101.481 112.748 98.547 114.398 96.7687 116.825C96.6981 117.3 96.6403 117.788 96.6018 118.295C96.5286 119.345 96.6328 120.4 96.9099 121.415C97.0585 120.393 97.4099 119.411 97.9436 118.526C99.3367 116.26 101.95 114.674 105.731 113.769C105.537 113.142 105.471 112.483 105.538 111.83Z" fill="#263238"/>
<path d="M181.256 115.804C181.256 115.804 190.109 117.467 194.809 115.804C199.508 114.141 196.189 110.829 198.121 108.344C200.054 105.859 205.864 110.27 206.416 118.295C206.968 126.32 197.845 130.737 188.44 131.565L177.385 115.804H181.256Z" fill="#68A395" stroke="#263238" stroke-width="1.20355" stroke-linecap="round" stroke-linejoin="round"/>
<path d="M191.861 116.414C192.83 116.329 193.786 116.135 194.712 115.836C196.716 117.15 198.303 119.008 199.286 121.193C200.27 123.378 200.61 125.798 200.265 128.169C199.575 128.564 198.863 128.92 198.134 129.235C198.564 127.521 199.809 120.375 191.861 116.414Z" fill="#263238"/>
<path d="M197.486 111.83C201.537 112.748 204.477 114.398 206.255 116.825C206.326 117.3 206.384 117.788 206.416 118.295C206.491 119.345 206.389 120.399 206.114 121.415C205.966 120.393 205.614 119.411 205.08 118.526C203.687 116.26 201.068 114.674 197.293 113.769C197.487 113.142 197.553 112.483 197.486 111.83Z" fill="#263238"/>
<path d="M151.287 208.74C177.312 208.74 198.41 184.961 198.41 155.627C198.41 126.294 177.312 102.515 151.287 102.515C125.262 102.515 104.164 126.294 104.164 155.627C104.164 184.961 125.262 208.74 151.287 208.74Z" fill="white"/>
<path d="M128.651 115.65C129.822 115.652 130.976 115.36 132.006 114.8C133.035 114.24 133.907 113.431 134.542 112.446C135.177 111.461 135.554 110.332 135.638 109.163C135.723 107.994 135.512 106.823 135.026 105.757C130.727 107.55 126.728 109.99 123.168 112.992C123.822 113.82 124.655 114.489 125.605 114.949C126.554 115.409 127.596 115.649 128.651 115.65Z" fill="#68A395"/>
<path d="M128.239 191.438C128.239 185.75 124.182 181.166 119.181 181.166C117.765 181.192 116.377 181.564 115.137 182.249C113.897 182.934 112.844 183.911 112.067 185.095C115.342 190.68 119.652 195.589 124.766 199.559C125.883 198.526 126.77 197.268 127.368 195.869C127.967 194.47 128.264 192.96 128.239 191.438Z" fill="#68A395"/>
<path d="M154.6 206.262C158.011 206.262 160.776 203.865 160.776 200.908C160.776 197.95 158.011 195.553 154.6 195.553C151.189 195.553 148.424 197.95 148.424 200.908C148.424 203.865 151.189 206.262 154.6 206.262Z" fill="#68A395"/>
<path d="M123.296 150.658C123.296 141.189 116.812 133.453 108.658 132.971C105.67 140.15 104.142 147.852 104.164 155.627C104.165 159.842 104.61 164.045 105.493 168.166C106.271 168.302 107.06 168.371 107.849 168.371C116.382 168.371 123.296 160.442 123.296 150.658Z" fill="#68A395"/>
<path d="M194.492 171.174C195.804 168.026 194.315 164.41 191.167 163.098C188.018 161.786 184.402 163.275 183.09 166.423C181.778 169.572 183.267 173.188 186.416 174.5C189.564 175.812 193.18 174.323 194.492 171.174Z" fill="#68A395"/>
<path d="M191.669 179.901C191.671 180.6 191.872 181.283 192.247 181.872C193.17 180.047 193.996 178.174 194.718 176.261C193.864 176.415 193.091 176.863 192.534 177.528C191.976 178.194 191.67 179.033 191.669 179.901Z" fill="#68A395"/>
<path d="M189.454 186.751C187.224 185.745 184.743 185.436 182.334 185.864C179.926 186.291 177.703 187.436 175.956 189.148C174.209 190.861 173.02 193.061 172.544 195.46C172.068 197.859 172.327 200.347 173.289 202.596C179.828 198.633 185.361 193.21 189.454 186.751Z" fill="#68A395"/>
<path d="M186.546 120.407C184.584 122.599 183.29 125.307 182.818 128.211C182.346 131.115 182.715 134.094 183.882 136.794C185.048 139.495 186.964 141.806 189.402 143.452C191.84 145.099 194.699 146.013 197.64 146.087C196.18 136.725 192.362 127.888 186.546 120.407Z" fill="#68A395"/>
<path opacity="0.2" d="M177.192 111.278C180.402 115.958 185.3 124.876 188.818 139.629C194.545 163.588 189.891 173.597 189.891 173.597L187.034 166.445C187.034 166.445 188.106 175.388 184.896 180.755C181.686 186.122 179.336 190.276 178.18 192.664C177.025 195.053 177.025 189.332 177.025 189.332C177.025 189.332 174.367 197.004 172.3 197.82C170.232 198.635 164.153 201.851 164.153 201.851L164.506 197.563C164.506 197.563 155.569 201.139 150.562 201.139C145.554 201.139 133.035 199.707 126.243 195.412C122.391 192.979 116.792 189.037 112.684 186.09C121.203 199.784 135.308 208.74 151.274 208.74C177.294 208.74 198.397 184.986 198.397 155.627C198.41 137.093 189.98 120.78 177.192 111.278Z" fill="black"/>
<path d="M151.287 208.74C177.312 208.74 198.41 184.961 198.41 155.627C198.41 126.294 177.312 102.515 151.287 102.515C125.262 102.515 104.164 126.294 104.164 155.627C104.164 184.961 125.262 208.74 151.287 208.74Z" stroke="#263238" stroke-width="1.20355" stroke-linecap="round" stroke-linejoin="round"/>
<path d="M148.263 104.826C148.263 104.826 148.013 104.075 143.737 102.566C139.461 101.057 134.691 103.067 137.202 101.057C139.712 99.0478 148.263 98.7974 149.772 100.306C151.281 101.815 144.996 98.0399 144.996 95.5297C144.996 93.0194 152.289 94.2457 154.548 96.2808C155.747 97.2736 156.767 98.4634 157.566 99.799C157.566 99.799 157.315 90.5028 161.835 88.243C166.355 85.9831 169.879 90.5092 167.87 93.0194C165.861 95.5297 161.585 99.8054 161.585 99.8054C161.585 99.8054 171.889 96.0368 171.388 100.313C170.887 104.588 160.577 104.807 160.577 104.807" fill="white"/>
<path d="M148.263 104.826C148.263 104.826 148.013 104.075 143.737 102.566C139.461 101.057 134.691 103.067 137.202 101.057C139.712 99.0478 148.263 98.7974 149.772 100.306C151.281 101.815 144.996 98.0399 144.996 95.5297C144.996 93.0194 152.289 94.2457 154.548 96.2808C155.747 97.2736 156.767 98.4634 157.566 99.799C157.566 99.799 157.315 90.5028 161.835 88.243C166.355 85.9831 169.879 90.5092 167.87 93.0194C165.861 95.5297 161.585 99.8054 161.585 99.8054C161.585 99.8054 171.889 96.0368 171.388 100.313C170.887 104.588 160.577 104.807 160.577 104.807" stroke="#263238" stroke-width="1.20355" stroke-linecap="round" stroke-linejoin="round"/>
<path d="M152.411 155.165C159.697 155.165 165.604 149.034 165.604 141.471C165.604 133.908 159.697 127.777 152.411 127.777C145.125 127.777 139.218 133.908 139.218 141.471C139.218 149.034 145.125 155.165 152.411 155.165Z" fill="#263238" stroke="#263238" stroke-width="1.20355" stroke-linecap="round" stroke-linejoin="round"/>
<path d="M152.411 153.335C159.697 153.335 165.604 147.429 165.604 140.142C165.604 132.856 159.697 126.949 152.411 126.949C145.125 126.949 139.218 132.856 139.218 140.142C139.218 147.429 145.125 153.335 152.411 153.335Z" fill="#68A395" stroke="#263238" stroke-width="1.20355" stroke-linecap="round" stroke-linejoin="round"/>
<path d="M155.068 146.522C158.593 145.053 160.259 141.005 158.79 137.48C157.32 133.955 153.272 132.289 149.747 133.758C146.223 135.228 144.556 139.276 146.026 142.801C147.495 146.326 151.544 147.992 155.068 146.522Z" fill="#263238" stroke="#263238" stroke-width="1.20355" stroke-linecap="round" stroke-linejoin="round"/>
<path d="M136.492 114.193C136.492 114.193 129.14 114.751 128.123 116.05C127.107 117.35 132.657 117.578 132.657 117.578C132.657 117.578 126.064 119.98 129.108 120.853C132.152 121.725 137.982 117.451 137.982 117.451C137.982 117.451 144.9 117.578 151.999 117.578C159.098 117.578 166.132 117.343 166.132 117.343C166.132 117.343 172.214 120.29 174.5 119.744C176.787 119.197 170.471 115.706 170.471 115.706C170.471 115.706 176.301 116.263 171.488 114.286C170.19 113.723 168.558 113.323 166.771 113.131C164.983 112.938 163.107 112.96 161.345 113.193" fill="white"/>
<path d="M136.492 114.193C136.492 114.193 129.14 114.751 128.123 116.05C127.107 117.35 132.657 117.578 132.657 117.578C132.657 117.578 126.064 119.98 129.108 120.853C132.152 121.725 137.982 117.451 137.982 117.451C137.982 117.451 144.9 117.578 151.999 117.578C159.098 117.578 166.132 117.343 166.132 117.343C166.132 117.343 172.214 120.29 174.5 119.744C176.787 119.197 170.471 115.706 170.471 115.706C170.471 115.706 176.301 116.263 171.488 114.286C170.19 113.723 168.558 113.323 166.771 113.131C164.983 112.938 163.107 112.96 161.345 113.193" stroke="#263238" stroke-width="1.20355" stroke-linecap="round" stroke-linejoin="round"/>
<path d="M134.178 156.86C130.781 158.997 127.871 161.823 125.633 165.155C121.608 170.933 122.866 174.451 124.875 174.701C126.885 174.951 133.671 166.156 133.671 166.156C133.671 166.156 130.403 174.451 134.428 173.95C138.454 173.449 143.224 164.147 143.224 164.147C143.224 164.147 142.973 169.925 145.991 169.674C149.008 169.424 152.526 159.37 152.526 159.37C152.526 159.37 154.285 169.424 157.303 169.424C160.32 169.424 160.564 163.139 160.564 163.139C160.564 163.139 164.089 174.2 167.1 171.94C170.111 169.681 168.108 162.388 168.108 162.388C168.108 162.388 170.875 177.218 174.643 174.451C178.412 171.684 172.884 159.877 168.865 155.602" stroke="#263238" stroke-width="1.20355" stroke-linecap="round" stroke-linejoin="round"/>
<path d="M150.582 136.464C150.582 137.226 150.356 137.97 149.933 138.604C149.509 139.237 148.908 139.731 148.204 140.023C147.5 140.314 146.726 140.39 145.978 140.242C145.231 140.093 144.545 139.726 144.006 139.188C143.467 138.649 143.101 137.963 142.952 137.215C142.803 136.468 142.88 135.694 143.171 134.99C143.463 134.286 143.956 133.684 144.59 133.261C145.223 132.838 145.968 132.612 146.73 132.612C147.752 132.612 148.731 133.018 149.454 133.74C150.176 134.462 150.582 135.442 150.582 136.464Z" fill="white"/>
<path d="M65.8708 107.751L47.3308 103.201H47.4609C42.6707 106.241 37.1336 107.899 31.4609 107.991C28.1008 108.01 24.7569 107.524 21.5409 106.551C15.9014 104.723 10.9011 101.324 7.12781 96.7515C3.35453 92.1792 0.965225 86.6247 0.240853 80.741C-0.321451 76.2813 0.103694 71.7526 1.48618 67.4756C2.86866 63.1985 5.17466 59.2777 8.24085 55.991C9.85227 54.2372 11.6533 52.6676 13.6109 51.311C14.6109 50.691 15.6109 50.051 16.6109 49.511L18.1809 48.751L18.9709 48.371L19.7909 48.071C24.0337 46.448 28.5784 45.7656 33.1109 46.071C39.1708 46.479 44.976 48.6639 49.8012 52.3527C54.6264 56.0414 58.2575 61.0703 60.2409 66.811C61.3367 70.0328 61.9139 73.4081 61.9509 76.811C61.9792 82.4712 60.4426 88.0291 57.5108 92.871V92.701C62.6708 102.011 65.2709 106.701 65.8509 107.701C65.2509 106.701 62.5609 102.031 57.2209 92.831V92.741V92.661C60.0738 87.859 61.5542 82.3662 61.5009 76.781C61.4498 73.4267 60.8659 70.1019 59.7709 66.931C58.5625 63.4433 56.7256 60.2066 54.3509 57.381C50.2433 52.5141 44.7187 49.0511 38.5481 47.4753C32.3776 45.8995 25.869 46.2895 19.9309 48.591L19.1309 48.881L18.3609 49.261L16.8109 50.001C15.8109 50.531 14.8109 51.171 13.8109 51.771C11.8923 53.1006 10.128 54.6401 8.55085 56.361C5.09252 60.134 2.63824 64.7159 1.41369 69.6855C0.189132 74.655 0.233605 79.8527 1.54301 84.8005C2.85242 89.7484 5.38474 94.2877 8.90712 98.001C12.4295 101.714 16.8289 104.482 21.7009 106.051C24.8597 107.022 28.1462 107.514 31.4509 107.511C37.0387 107.441 42.5002 105.84 47.2409 102.881H47.3008H47.3708L65.8708 107.751Z" fill="#263238"/>
<path d="M28.4205 63.221L29.4205 78.7009C29.4565 79.3142 29.7169 79.8927 30.1522 80.3261C30.5875 80.7596 31.1671 81.0176 31.7805 81.0509C32.4235 81.0883 33.0565 80.8781 33.5493 80.4633C34.0421 80.0486 34.3575 79.4609 34.4305 78.8209L36.1405 63.2609C36.1671 62.9828 36.135 62.7021 36.0465 62.4371C35.9579 62.1721 35.8148 61.9286 35.6264 61.7222C35.438 61.5159 35.2084 61.3513 34.9524 61.2392C34.6965 61.127 34.4199 61.0697 34.1405 61.0709L30.3605 61.1209C30.0943 61.1286 29.8323 61.1893 29.5899 61.2996C29.3475 61.4098 29.1296 61.5674 28.9489 61.763C28.7682 61.9586 28.6284 62.1883 28.5376 62.4387C28.4469 62.689 28.4071 62.955 28.4205 63.221Z" fill="#68A395"/>
<path d="M35.8606 89.761C35.6259 90.4715 35.1857 91.0964 34.5957 91.5565C34.0056 92.0166 33.2923 92.2913 32.546 92.3457C31.7998 92.4001 31.0541 92.2318 30.4036 91.8621C29.7531 91.4924 29.2269 90.9379 28.8917 90.269C28.5565 89.6 28.4274 88.8466 28.5207 88.1042C28.6141 87.3618 28.9256 86.6638 29.4159 86.0986C29.9063 85.5334 30.5533 85.1264 31.2751 84.9293C31.9969 84.7321 32.761 84.7536 33.4706 84.991C33.9417 85.1458 34.3775 85.3923 34.7529 85.7163C35.1284 86.0402 35.436 86.4353 35.6582 86.8786C35.8803 87.322 36.0125 87.8049 36.0473 88.2996C36.082 88.7943 36.0186 89.2909 35.8606 89.761Z" fill="#68A395"/>
<path d="M225.138 68.4321C225.083 68.4321 224.282 67.4292 222.93 65.8097C221.577 64.1903 219.645 61.9911 217.501 59.5803C215.357 57.1696 213.452 54.9244 212.164 53.2405C211.52 52.394 211.014 51.7039 210.692 51.207C210.498 50.9637 210.34 50.6942 210.223 50.4065C210.278 50.4065 211.078 51.4002 212.431 53.0289C213.784 54.6575 215.716 56.8475 217.86 59.2583C220.004 61.669 221.908 63.905 223.197 65.5981C223.841 66.4446 224.347 67.1347 224.669 67.6316C224.865 67.8734 225.023 68.1432 225.138 68.4321Z" fill="#263238"/>
<path d="M242.76 58.8167C242.64 58.8627 238.785 47.775 234.147 33.9728C229.509 20.1707 225.866 9.04615 225.995 9.00014C226.123 8.95414 229.97 20.0419 234.607 33.844C239.245 47.6462 242.888 58.7799 242.76 58.8167Z" fill="#263238"/>
<path d="M258.026 61.7064C257.897 61.6604 259.783 55.5231 262.222 47.9963C264.66 40.4695 266.74 34.3874 266.878 34.461C267.016 34.5346 265.129 40.6444 262.682 48.1803C260.234 55.7163 258.155 61.7432 258.026 61.7064Z" fill="#263238"/>
<path d="M283.883 60.9333C283.956 61.0438 281.61 62.8472 278.831 65.1936C276.052 67.54 273.863 69.5367 273.771 69.4447C274.134 68.9026 274.567 68.4107 275.059 67.9816C275.905 67.1351 277.12 66.0033 278.518 64.8256C279.917 63.6478 281.279 62.6448 282.199 61.9547C282.708 61.5351 283.275 61.1911 283.883 60.9333Z" fill="#263238"/>
<path d="M269.969 23.962C270.089 23.962 269.969 24.689 269.712 25.4987C269.454 26.3084 269.123 26.9157 268.994 26.8697C268.865 26.8237 268.994 26.152 269.252 25.3423C269.509 24.5325 269.84 23.9252 269.969 23.962Z" fill="#263238"/>
<path d="M205.753 45.5027C205.652 45.5855 205.293 45.2634 204.952 44.7942C204.612 44.3249 204.437 43.874 204.548 43.8096C204.658 43.7452 205.008 44.0488 205.348 44.5181C205.689 44.9874 205.863 45.5027 205.753 45.5027Z" fill="#263238"/>
<path d="M189.622 76.9464H303.371C303.933 76.9464 304.473 77.17 304.871 77.5681C305.269 77.9661 305.493 78.5059 305.493 79.0688V148.5H187.5V79.0688C187.5 78.7901 187.555 78.5141 187.662 78.2566C187.768 77.9991 187.925 77.7651 188.122 77.5681C188.319 77.371 188.553 77.2146 188.81 77.108C189.068 77.0013 189.344 76.9464 189.622 76.9464Z" fill="white" stroke="#263238"/>
<path d="M235.234 109.13C235.234 112.811 232.547 115.985 226.631 115.985C223.842 116.031 221.101 115.261 218.745 113.768L220.641 110.087C222.357 111.306 224.415 111.95 226.52 111.927C228.913 111.927 230.385 110.924 230.385 109.241C230.385 107.557 229.327 106.554 225.573 106.554H220.282L221.349 94.9139H233.964V98.7509H225.333L225.011 102.68H226.695C232.805 102.717 235.234 105.468 235.234 109.13Z" fill="#68A395"/>
<path d="M237.177 105.311C237.177 98.4929 240.959 94.6191 246.038 94.6191C251.117 94.6191 254.899 98.4929 254.899 105.311C254.899 112.129 251.154 116.012 246.038 116.012C240.922 116.012 237.177 112.111 237.177 105.311ZM250.059 105.311C250.059 100.618 248.403 98.6678 246.01 98.6678C243.618 98.6678 241.998 100.618 241.998 105.311C241.998 110.004 243.645 111.964 246.01 111.964C248.375 111.964 250.086 109.986 250.086 105.311H250.059Z" fill="#68A395"/>
<path d="M257.232 105.311C257.232 98.4929 261.014 94.6191 266.093 94.6191C271.173 94.6191 274.954 98.4929 274.954 105.311C274.954 112.129 271.2 116.012 266.093 116.012C260.987 116.012 257.232 112.111 257.232 105.311ZM270.114 105.311C270.114 100.618 268.458 98.6678 266.066 98.6678C263.673 98.6678 262.045 100.618 262.045 105.311C262.045 110.004 263.701 111.964 266.066 111.964C268.431 111.964 270.142 109.986 270.142 105.311H270.114Z" fill="#68A395"/>
<path d="M204.641 121.01H205.515V127.119H204.641V121.01Z" fill="#263238"/>
<path d="M212.6 121.01V127.119H211.892L208.211 122.565V127.119H207.337V121.01H208.055L211.735 125.61V121.01H212.6Z" fill="#263238"/>
<path d="M215.646 121.773H213.548V121.01H218.609V121.773H216.511V127.119H215.646V121.773Z" fill="#263238"/>
<path d="M223.989 126.365V127.119H219.554V121.01H223.869V121.773H220.428V123.614H223.492V124.35H220.428V126.328L223.989 126.365Z" fill="#263238"/>
<path d="M229.492 127.119L228.167 125.279H227.789H226.253V127.119H225.388V121.01H227.771C229.354 121.01 230.32 121.81 230.32 123.144C230.339 123.568 230.218 123.987 229.975 124.334C229.732 124.682 229.381 124.94 228.976 125.067L230.421 127.119H229.492ZM229.492 123.144C229.492 122.27 228.903 121.773 227.789 121.773H226.253V124.534H227.743C228.875 124.524 229.464 124.018 229.464 123.144H229.492Z" fill="#263238"/>
<path d="M237.01 121.01V127.119H236.292L232.612 122.565V127.119H231.774V121.01H232.492L236.173 125.61V121.01H237.01Z" fill="#263238"/>
<path d="M242.732 125.555H239.483L238.812 127.082H237.892L240.652 120.973H241.517L244.277 127.082H243.357L242.732 125.555ZM242.419 124.856L241.103 121.874L239.787 124.865L242.419 124.856Z" fill="#263238"/>
<path d="M245.228 121.01H246.102V126.365H249.405V127.119H245.228V121.01Z" fill="#263238"/>
<path d="M252.193 126.475L252.525 125.794C253.094 126.255 253.807 126.502 254.54 126.493C255.598 126.493 256.049 126.089 256.049 125.573C256.049 124.083 252.368 125.021 252.368 122.749C252.368 121.828 253.095 121.009 254.705 121.009C255.399 120.995 256.083 121.18 256.674 121.543L256.38 122.242C255.88 121.922 255.299 121.75 254.705 121.746C253.666 121.746 253.224 122.187 253.224 122.721C253.224 124.212 256.904 123.273 256.904 125.481C256.904 126.401 256.15 127.22 254.54 127.22C253.695 127.249 252.867 126.985 252.193 126.475Z" fill="#263238"/>
<path d="M262.619 126.365V127.119H258.175V121.01H262.49V121.773H259.049V123.614H262.141V124.35H259.077V126.328L262.619 126.365Z" fill="#263238"/>
<path d="M268.112 127.119L266.796 125.279H266.41H264.901V127.119H264.026V121.01H266.41C268.001 121.01 268.958 121.81 268.958 123.144C268.978 123.568 268.857 123.987 268.614 124.334C268.371 124.682 268.02 124.94 267.615 125.067L269.06 127.119H268.112ZM268.112 123.144C268.112 122.27 267.532 121.773 266.41 121.773H264.901V124.534H266.382C267.505 124.524 268.084 124.018 268.084 123.144H268.112Z" fill="#263238"/>
<path d="M275.676 121.01L272.998 127.119H272.133L269.446 121.01H270.366L272.575 126.034L274.792 121.01H275.676Z" fill="#263238"/>
<path d="M280.89 126.365V127.119H276.455V121.01H280.761V121.773H277.32V123.614H280.393V124.35H277.32V126.328L280.89 126.365Z" fill="#263238"/>
<path d="M286.385 127.119L285.069 125.279H284.683H283.174V127.119H282.3V121.01H284.683C286.275 121.01 287.232 121.81 287.232 123.144C287.251 123.568 287.13 123.987 286.887 124.334C286.644 124.682 286.293 124.94 285.888 125.067L287.342 127.119H286.385ZM286.385 123.144C286.385 122.27 285.806 121.773 284.683 121.773H283.202V124.534H284.683C285.778 124.524 286.358 124.018 286.358 123.144H286.385Z" fill="#263238"/>
<path d="M236.484 136.9V138.115H231.451V131.609H236.374V132.815H232.951V134.232H235.978V135.4H232.951V136.9H236.484Z" fill="#263238"/>
<path d="M241.83 138.115L240.578 136.274H239.189V138.115H237.68V131.609H240.495C242.234 131.609 243.329 132.529 243.329 133.965C243.346 134.404 243.226 134.837 242.985 135.205C242.744 135.573 242.395 135.856 241.986 136.017L243.449 138.115H241.83ZM240.413 132.833H239.189V135.096H240.413C241.333 135.096 241.802 134.673 241.802 133.965C241.802 133.256 241.333 132.833 240.413 132.833Z" fill="#263238"/>
<path d="M248.66 138.115L247.409 136.274H246.019V138.115H244.52V131.609H247.335C249.074 131.609 250.16 132.529 250.16 133.965C250.177 134.404 250.057 134.837 249.816 135.205C249.575 135.573 249.226 135.856 248.817 136.017L250.28 138.115H248.66ZM247.252 132.833H246.019V135.096H247.252C248.173 135.096 248.633 134.673 248.633 133.965C248.633 133.256 248.173 132.833 247.252 132.833Z" fill="#263238"/>
<path d="M250.931 134.857C250.89 134.143 251.065 133.434 251.432 132.82C251.799 132.207 252.342 131.718 252.99 131.417C253.639 131.116 254.363 131.016 255.068 131.131C255.774 131.245 256.429 131.569 256.948 132.061C257.467 132.552 257.827 133.188 257.981 133.886C258.135 134.584 258.076 135.312 257.811 135.976C257.547 136.64 257.089 137.21 256.497 137.611C255.905 138.011 255.206 138.225 254.492 138.225C254.033 138.251 253.574 138.183 253.143 138.026C252.712 137.869 252.318 137.625 251.984 137.309C251.651 136.994 251.385 136.614 251.204 136.192C251.023 135.77 250.93 135.316 250.931 134.857ZM256.525 134.857C256.516 134.457 256.389 134.068 256.16 133.74C255.931 133.412 255.611 133.158 255.238 133.011C254.866 132.864 254.459 132.831 254.067 132.914C253.676 132.998 253.318 133.195 253.038 133.481C252.758 133.767 252.569 134.13 252.494 134.523C252.42 134.916 252.462 135.322 252.618 135.691C252.773 136.06 253.033 136.375 253.367 136.597C253.7 136.818 254.091 136.936 254.492 136.936C254.764 136.943 255.035 136.893 255.288 136.791C255.541 136.688 255.77 136.534 255.961 136.339C256.151 136.144 256.3 135.912 256.397 135.657C256.494 135.402 256.538 135.13 256.525 134.857Z" fill="#263238"/>
<path d="M263.334 138.115L262.074 136.274H260.694V138.115H259.185V131.609H262C263.739 131.609 264.825 132.529 264.825 133.965C264.844 134.403 264.726 134.836 264.486 135.204C264.247 135.572 263.899 135.856 263.491 136.017L264.945 138.115H263.334ZM261.917 132.833H260.694V135.096H261.917C262.838 135.096 263.307 134.673 263.307 133.965C263.307 133.256 262.838 132.833 261.917 132.833Z" fill="#263238"/>
<path d="M199.286 113.869C198.9 113.871 198.521 113.77 198.187 113.575C197.854 113.381 197.579 113.101 197.39 112.765C197.195 112.43 197.093 112.049 197.093 111.661C197.093 111.273 197.195 110.892 197.39 110.557L203.785 99.5978C203.979 99.263 204.259 98.9854 204.595 98.7931C204.931 98.6009 205.312 98.5007 205.699 98.5028C206.085 98.5049 206.464 98.6089 206.797 98.8045C207.129 99 207.405 99.28 207.594 99.6162L213.888 110.658C214.085 110.991 214.189 111.371 214.189 111.758C214.189 112.144 214.085 112.524 213.888 112.857C213.695 113.193 213.415 113.471 213.079 113.663C212.743 113.855 212.362 113.955 211.974 113.952L199.286 113.888V113.869ZM205.727 99.1469C205.455 99.1413 205.186 99.2093 204.95 99.3438C204.713 99.4782 204.517 99.6741 204.383 99.9107L197.988 110.87C197.851 111.104 197.777 111.37 197.776 111.642C197.774 111.913 197.844 112.18 197.978 112.416C198.112 112.652 198.306 112.849 198.541 112.986C198.775 113.123 199.042 113.196 199.313 113.198L212.002 113.253C212.273 113.254 212.54 113.184 212.776 113.05C213.011 112.916 213.207 112.722 213.344 112.488C213.482 112.254 213.555 111.988 213.556 111.717C213.558 111.446 213.489 111.179 213.355 110.943L207.061 99.9014C206.921 99.6699 206.722 99.4798 206.484 99.3505C206.246 99.2211 205.979 99.1572 205.708 99.1653L205.727 99.1469Z" fill="#68A395"/>
<path d="M204.749 110.345C204.749 110.235 204.771 110.127 204.814 110.027C204.857 109.927 204.92 109.837 205 109.762C205.079 109.687 205.173 109.629 205.275 109.591C205.378 109.554 205.487 109.538 205.596 109.544C205.704 109.539 205.813 109.556 205.914 109.595C206.016 109.634 206.108 109.693 206.186 109.769C206.264 109.845 206.325 109.936 206.366 110.036C206.407 110.137 206.426 110.245 206.424 110.354C206.425 110.462 206.404 110.57 206.363 110.671C206.322 110.771 206.261 110.863 206.183 110.939C206.106 111.015 206.014 111.075 205.913 111.116C205.812 111.156 205.704 111.175 205.596 111.173C205.485 111.176 205.375 111.158 205.272 111.118C205.168 111.078 205.074 111.017 204.995 110.94C204.916 110.862 204.854 110.77 204.811 110.667C204.769 110.565 204.748 110.455 204.749 110.345ZM204.823 103.738H206.378L206.111 108.661H205.09L204.823 103.738Z" fill="#68A395"/>
<path d="M280.284 113.869C279.898 113.871 279.519 113.77 279.185 113.575C278.852 113.381 278.577 113.101 278.388 112.765C278.193 112.43 278.091 112.049 278.091 111.661C278.091 111.273 278.193 110.892 278.388 110.557L284.783 99.5978C284.977 99.263 285.257 98.9854 285.593 98.7931C285.929 98.6009 286.31 98.5007 286.697 98.5028C287.083 98.5049 287.462 98.6089 287.795 98.8045C288.127 99 288.403 99.28 288.592 99.6162L294.886 110.658C295.083 110.991 295.187 111.371 295.187 111.758C295.187 112.144 295.083 112.524 294.886 112.857C294.693 113.193 294.413 113.471 294.077 113.663C293.741 113.855 293.36 113.955 292.972 113.952L280.284 113.888V113.869ZM286.725 99.1469C286.453 99.1413 286.184 99.2093 285.948 99.3438C285.711 99.4782 285.516 99.6741 285.381 99.9107L278.986 110.87C278.849 111.104 278.776 111.37 278.774 111.642C278.772 111.913 278.842 112.18 278.976 112.416C279.11 112.652 279.305 112.849 279.539 112.986C279.773 113.123 280.04 113.196 280.311 113.198L293.009 113.253C293.28 113.253 293.545 113.182 293.78 113.047C294.014 112.912 294.209 112.718 294.345 112.484C294.481 112.25 294.553 111.985 294.554 111.715C294.556 111.444 294.486 111.178 294.353 110.943L288.059 99.9014C287.919 99.6699 287.72 99.4798 287.482 99.3505C287.244 99.2211 286.977 99.1572 286.706 99.1653L286.725 99.1469Z" fill="#68A395"/>
<path d="M285.75 110.345C285.75 110.235 285.772 110.127 285.815 110.027C285.858 109.927 285.921 109.837 286.001 109.762C286.08 109.687 286.174 109.629 286.276 109.591C286.379 109.554 286.488 109.538 286.597 109.544C286.705 109.539 286.814 109.556 286.915 109.595C287.017 109.634 287.109 109.693 287.187 109.769C287.265 109.845 287.326 109.936 287.367 110.036C287.408 110.137 287.427 110.245 287.425 110.354C287.426 110.462 287.405 110.57 287.364 110.671C287.323 110.771 287.262 110.863 287.184 110.939C287.107 111.015 287.015 111.075 286.914 111.116C286.813 111.156 286.705 111.175 286.597 111.173C286.486 111.176 286.376 111.158 286.273 111.118C286.169 111.078 286.075 111.017 285.996 110.94C285.917 110.862 285.855 110.77 285.812 110.667C285.77 110.565 285.749 110.455 285.75 110.345ZM285.824 103.738H287.379L287.112 108.661H286.063L285.824 103.738Z" fill="#68A395"/>
<path d="M99.94 340.943L95.48 326.943H97.78L100.48 335.703C100.56 335.917 100.633 336.17 100.7 336.463C100.767 336.743 100.827 337.03 100.88 337.323C100.933 337.617 100.98 337.89 101.02 338.143C101.073 338.397 101.12 338.603 101.16 338.763L100.58 338.743C100.78 338.037 100.933 337.49 101.04 337.103C101.16 336.717 101.253 336.423 101.32 336.223C101.387 336.01 101.447 335.83 101.5 335.683L104.02 329.363H105.96L108.4 335.683C108.533 336.003 108.647 336.323 108.74 336.643C108.847 336.95 108.94 337.263 109.02 337.583C109.1 337.89 109.187 338.217 109.28 338.563L108.76 338.703C108.827 338.343 108.873 338.063 108.9 337.863C108.94 337.65 108.973 337.477 109 337.343C109.027 337.21 109.053 337.083 109.08 336.963C109.107 336.83 109.147 336.663 109.2 336.463C109.267 336.263 109.353 335.99 109.46 335.643L112.12 326.943H114.44L109.98 340.943H108.48L104.78 332.183L104.96 332.263L101.4 340.943H99.94ZM120.754 341.143C119.674 341.143 118.714 340.917 117.874 340.463C117.047 339.997 116.394 339.363 115.914 338.563C115.447 337.763 115.214 336.843 115.214 335.803C115.214 334.977 115.347 334.223 115.614 333.543C115.881 332.863 116.247 332.277 116.714 331.783C117.194 331.277 117.761 330.89 118.414 330.623C119.081 330.343 119.801 330.203 120.574 330.203C121.254 330.203 121.887 330.337 122.474 330.603C123.061 330.857 123.567 331.21 123.994 331.663C124.434 332.117 124.767 332.657 124.994 333.283C125.234 333.897 125.347 334.57 125.334 335.303L125.314 336.183H116.734L116.274 334.543H123.534L123.234 334.883V334.403C123.194 333.963 123.047 333.57 122.794 333.223C122.541 332.877 122.221 332.603 121.834 332.403C121.447 332.203 121.027 332.103 120.574 332.103C119.854 332.103 119.247 332.243 118.754 332.523C118.261 332.79 117.887 333.19 117.634 333.723C117.381 334.243 117.254 334.89 117.254 335.663C117.254 336.397 117.407 337.037 117.714 337.583C118.021 338.117 118.454 338.53 119.014 338.823C119.574 339.117 120.221 339.263 120.954 339.263C121.474 339.263 121.954 339.177 122.394 339.003C122.847 338.83 123.334 338.517 123.854 338.063L124.894 339.523C124.574 339.843 124.181 340.123 123.714 340.363C123.261 340.603 122.774 340.797 122.254 340.943C121.747 341.077 121.247 341.143 120.754 341.143ZM137.218 341.143C136.352 341.143 135.558 340.903 134.838 340.423C134.132 339.943 133.565 339.29 133.138 338.463C132.712 337.637 132.498 336.703 132.498 335.663C132.498 334.61 132.712 333.677 133.138 332.863C133.578 332.037 134.165 331.39 134.898 330.923C135.645 330.457 136.478 330.223 137.398 330.223C137.945 330.223 138.445 330.303 138.898 330.463C139.352 330.623 139.745 330.85 140.078 331.143C140.425 331.423 140.705 331.75 140.918 332.123C141.145 332.497 141.285 332.897 141.338 333.323L140.878 333.163V330.443H142.958V340.943H140.878V338.443L141.358 338.303C141.278 338.663 141.112 339.017 140.858 339.363C140.618 339.697 140.305 339.997 139.918 340.263C139.545 340.53 139.125 340.743 138.658 340.903C138.205 341.063 137.725 341.143 137.218 341.143ZM137.758 339.243C138.385 339.243 138.938 339.09 139.418 338.783C139.898 338.477 140.272 338.057 140.538 337.523C140.818 336.977 140.958 336.357 140.958 335.663C140.958 334.983 140.818 334.377 140.538 333.843C140.272 333.31 139.898 332.89 139.418 332.583C138.938 332.277 138.385 332.123 137.758 332.123C137.145 332.123 136.598 332.277 136.118 332.583C135.652 332.89 135.278 333.31 134.998 333.843C134.732 334.377 134.598 334.983 134.598 335.663C134.598 336.357 134.732 336.977 134.998 337.523C135.278 338.057 135.652 338.477 136.118 338.783C136.598 339.09 137.145 339.243 137.758 339.243ZM145.835 340.943V330.443H147.915V333.743L147.715 332.943C147.861 332.437 148.108 331.977 148.455 331.563C148.815 331.15 149.221 330.823 149.675 330.583C150.141 330.343 150.621 330.223 151.115 330.223C151.341 330.223 151.555 330.243 151.755 330.283C151.968 330.323 152.135 330.37 152.255 330.423L151.715 332.663C151.555 332.597 151.375 332.543 151.175 332.503C150.988 332.45 150.801 332.423 150.615 332.423C150.255 332.423 149.908 332.497 149.575 332.643C149.255 332.777 148.968 332.97 148.715 333.223C148.475 333.463 148.281 333.75 148.135 334.083C147.988 334.403 147.915 334.757 147.915 335.143V340.943H145.835ZM158.352 341.143C157.272 341.143 156.312 340.917 155.472 340.463C154.645 339.997 153.992 339.363 153.512 338.563C153.045 337.763 152.812 336.843 152.812 335.803C152.812 334.977 152.945 334.223 153.212 333.543C153.478 332.863 153.845 332.277 154.312 331.783C154.792 331.277 155.358 330.89 156.012 330.623C156.678 330.343 157.398 330.203 158.172 330.203C158.852 330.203 159.485 330.337 160.072 330.603C160.658 330.857 161.165 331.21 161.592 331.663C162.032 332.117 162.365 332.657 162.592 333.283C162.832 333.897 162.945 334.57 162.932 335.303L162.912 336.183H154.332L153.872 334.543H161.132L160.832 334.883V334.403C160.792 333.963 160.645 333.57 160.392 333.223C160.138 332.877 159.818 332.603 159.432 332.403C159.045 332.203 158.625 332.103 158.172 332.103C157.452 332.103 156.845 332.243 156.352 332.523C155.858 332.79 155.485 333.19 155.232 333.723C154.978 334.243 154.852 334.89 154.852 335.663C154.852 336.397 155.005 337.037 155.312 337.583C155.618 338.117 156.052 338.53 156.612 338.823C157.172 339.117 157.818 339.263 158.552 339.263C159.072 339.263 159.552 339.177 159.992 339.003C160.445 338.83 160.932 338.517 161.452 338.063L162.492 339.523C162.172 339.843 161.778 340.123 161.312 340.363C160.858 340.603 160.372 340.797 159.852 340.943C159.345 341.077 158.845 341.143 158.352 341.143ZM174.276 341.143C173.396 341.143 172.603 340.99 171.896 340.683C171.189 340.377 170.603 339.923 170.136 339.323L171.536 338.123C171.936 338.59 172.369 338.93 172.836 339.143C173.316 339.343 173.856 339.443 174.456 339.443C174.696 339.443 174.916 339.417 175.116 339.363C175.329 339.297 175.509 339.203 175.656 339.083C175.816 338.963 175.936 338.823 176.016 338.663C176.096 338.49 176.136 338.303 176.136 338.103C176.136 337.757 176.009 337.477 175.756 337.263C175.623 337.17 175.409 337.07 175.116 336.963C174.836 336.843 174.469 336.723 174.016 336.603C173.243 336.403 172.609 336.177 172.116 335.923C171.623 335.67 171.243 335.383 170.976 335.063C170.776 334.81 170.629 334.537 170.536 334.243C170.443 333.937 170.396 333.603 170.396 333.243C170.396 332.803 170.489 332.403 170.676 332.043C170.876 331.67 171.143 331.35 171.476 331.083C171.823 330.803 172.223 330.59 172.676 330.443C173.143 330.297 173.636 330.223 174.156 330.223C174.649 330.223 175.136 330.29 175.616 330.423C176.109 330.557 176.563 330.75 176.976 331.003C177.389 331.257 177.736 331.557 178.016 331.903L176.836 333.203C176.583 332.95 176.303 332.73 175.996 332.543C175.703 332.343 175.403 332.19 175.096 332.083C174.789 331.977 174.509 331.923 174.256 331.923C173.976 331.923 173.723 331.95 173.496 332.003C173.269 332.057 173.076 332.137 172.916 332.243C172.769 332.35 172.656 332.483 172.576 332.643C172.496 332.803 172.456 332.983 172.456 333.183C172.469 333.357 172.509 333.523 172.576 333.683C172.656 333.83 172.763 333.957 172.896 334.063C173.043 334.17 173.263 334.283 173.556 334.403C173.849 334.523 174.223 334.637 174.676 334.743C175.343 334.917 175.889 335.11 176.316 335.323C176.756 335.523 177.103 335.757 177.356 336.023C177.623 336.277 177.809 336.57 177.916 336.903C178.023 337.237 178.076 337.61 178.076 338.023C178.076 338.623 177.903 339.163 177.556 339.643C177.223 340.11 176.769 340.477 176.196 340.743C175.623 341.01 174.983 341.143 174.276 341.143ZM185.066 341.143C184.04 341.143 183.12 340.91 182.306 340.443C181.506 339.963 180.873 339.317 180.406 338.503C179.94 337.677 179.706 336.737 179.706 335.683C179.706 334.63 179.94 333.697 180.406 332.883C180.873 332.057 181.506 331.41 182.306 330.943C183.12 330.463 184.04 330.223 185.066 330.223C186.08 330.223 186.986 330.463 187.786 330.943C188.6 331.41 189.24 332.057 189.706 332.883C190.173 333.697 190.406 334.63 190.406 335.683C190.406 336.737 190.173 337.677 189.706 338.503C189.24 339.317 188.6 339.963 187.786 340.443C186.986 340.91 186.08 341.143 185.066 341.143ZM185.066 339.263C185.693 339.263 186.253 339.11 186.746 338.803C187.24 338.483 187.626 338.057 187.906 337.523C188.186 336.977 188.32 336.363 188.306 335.683C188.32 334.99 188.186 334.377 187.906 333.843C187.626 333.297 187.24 332.87 186.746 332.563C186.253 332.257 185.693 332.103 185.066 332.103C184.44 332.103 183.873 332.263 183.366 332.583C182.873 332.89 182.486 333.317 182.206 333.863C181.926 334.397 181.793 335.003 181.806 335.683C181.793 336.363 181.926 336.977 182.206 337.523C182.486 338.057 182.873 338.483 183.366 338.803C183.873 339.11 184.44 339.263 185.066 339.263ZM192.651 340.943V330.443H194.731V333.743L194.531 332.943C194.678 332.437 194.924 331.977 195.271 331.563C195.631 331.15 196.038 330.823 196.491 330.583C196.958 330.343 197.438 330.223 197.931 330.223C198.158 330.223 198.371 330.243 198.571 330.283C198.784 330.323 198.951 330.37 199.071 330.423L198.531 332.663C198.371 332.597 198.191 332.543 197.991 332.503C197.804 332.45 197.618 332.423 197.431 332.423C197.071 332.423 196.724 332.497 196.391 332.643C196.071 332.777 195.784 332.97 195.531 333.223C195.291 333.463 195.098 333.75 194.951 334.083C194.804 334.403 194.731 334.757 194.731 335.143V340.943H192.651ZM200.717 340.943V330.443H202.797V333.743L202.597 332.943C202.744 332.437 202.991 331.977 203.337 331.563C203.697 331.15 204.104 330.823 204.557 330.583C205.024 330.343 205.504 330.223 205.997 330.223C206.224 330.223 206.437 330.243 206.637 330.283C206.851 330.323 207.017 330.37 207.137 330.423L206.597 332.663C206.437 332.597 206.257 332.543 206.057 332.503C205.871 332.45 205.684 332.423 205.497 332.423C205.137 332.423 204.791 332.497 204.457 332.643C204.137 332.777 203.851 332.97 203.597 333.223C203.357 333.463 203.164 333.75 203.017 334.083C202.871 334.403 202.797 334.757 202.797 335.143V340.943H200.717ZM210.544 345.543L212.664 340.643L212.684 342.283L207.444 330.443H209.844L213.124 338.163C213.19 338.297 213.27 338.503 213.364 338.783C213.457 339.05 213.537 339.317 213.604 339.583L213.084 339.703C213.19 339.423 213.29 339.143 213.384 338.863C213.49 338.583 213.59 338.303 213.684 338.023L216.424 330.443H218.864L214.544 340.943L212.764 345.543H210.544ZM220.725 344.523L219.965 343.603C220.432 343.337 220.812 343.03 221.105 342.683C221.398 342.337 221.545 342.037 221.545 341.783C221.545 341.65 221.512 341.517 221.445 341.383C221.378 341.263 221.238 341.09 221.025 340.863C220.758 340.61 220.585 340.397 220.505 340.223C220.425 340.05 220.385 339.863 220.385 339.663C220.385 339.343 220.498 339.09 220.725 338.903C220.952 338.703 221.245 338.603 221.605 338.603C221.938 338.603 222.238 338.703 222.505 338.903C222.785 339.09 222.998 339.357 223.145 339.703C223.305 340.037 223.385 340.423 223.385 340.863C223.385 341.263 223.318 341.65 223.185 342.023C223.052 342.397 222.865 342.743 222.625 343.063C222.385 343.383 222.105 343.67 221.785 343.923C221.465 344.177 221.112 344.377 220.725 344.523Z" fill="#111B23"/>
<path d="M36.35 363.943L40.144 354.143H41.684L45.45 363.943H43.84L41.6 358.035C41.572 357.97 41.516 357.811 41.432 357.559C41.3573 357.307 41.2687 357.027 41.166 356.719C41.0633 356.411 40.97 356.131 40.886 355.879C40.802 355.618 40.746 355.45 40.718 355.375L41.04 355.361C40.984 355.52 40.914 355.721 40.83 355.963C40.7553 356.206 40.6713 356.463 40.578 356.733C40.494 357.004 40.41 357.261 40.326 357.503C40.242 357.737 40.172 357.933 40.116 358.091L37.89 363.943H36.35ZM38.03 361.507L38.59 360.051H43.042L43.686 361.507H38.03ZM46.8107 363.943V356.593H48.2527V358.105L48.0007 358.273C48.0941 357.947 48.2761 357.648 48.5467 357.377C48.8174 357.097 49.1394 356.873 49.5127 356.705C49.8861 356.528 50.2687 356.439 50.6607 356.439C51.2207 356.439 51.6874 356.551 52.0607 356.775C52.4341 356.99 52.7141 357.321 52.9007 357.769C53.0874 358.217 53.1807 358.782 53.1807 359.463V363.943H51.7387V359.561C51.7387 359.141 51.6827 358.796 51.5707 358.525C51.4587 358.245 51.2861 358.045 51.0527 357.923C50.8194 357.793 50.5301 357.737 50.1847 357.755C49.9047 357.755 49.6481 357.802 49.4147 357.895C49.1814 357.979 48.9761 358.101 48.7987 358.259C48.6307 358.418 48.4954 358.605 48.3927 358.819C48.2994 359.025 48.2527 359.249 48.2527 359.491V363.943H47.5387C47.4174 363.943 47.2961 363.943 47.1747 363.943C47.0534 363.943 46.9321 363.943 46.8107 363.943ZM59.2987 363.943V356.593H60.7407V363.943H59.2987ZM59.9987 354.969C59.6907 354.969 59.4527 354.89 59.2847 354.731C59.1167 354.573 59.0327 354.349 59.0327 354.059C59.0327 353.789 59.1167 353.569 59.2847 353.401C59.4621 353.233 59.7001 353.149 59.9987 353.149C60.3067 353.149 60.5447 353.229 60.7127 353.387C60.8807 353.546 60.9647 353.77 60.9647 354.059C60.9647 354.33 60.8761 354.549 60.6987 354.717C60.5307 354.885 60.2974 354.969 59.9987 354.969ZM62.9572 363.943V356.593H64.3992V358.105L64.1472 358.273C64.2406 357.947 64.4226 357.648 64.6932 357.377C64.9639 357.097 65.2859 356.873 65.6592 356.705C66.0326 356.528 66.4152 356.439 66.8072 356.439C67.3672 356.439 67.8339 356.551 68.2072 356.775C68.5806 356.99 68.8606 357.321 69.0472 357.769C69.2339 358.217 69.3272 358.782 69.3272 359.463V363.943H67.8852V359.561C67.8852 359.141 67.8292 358.796 67.7172 358.525C67.6052 358.245 67.4326 358.045 67.1992 357.923C66.9659 357.793 66.6766 357.737 66.3312 357.755C66.0512 357.755 65.7946 357.802 65.5612 357.895C65.3279 357.979 65.1226 358.101 64.9452 358.259C64.7772 358.418 64.6419 358.605 64.5392 358.819C64.4459 359.025 64.3992 359.249 64.3992 359.491V363.943H63.6852C63.5639 363.943 63.4426 363.943 63.3212 363.943C63.1999 363.943 63.0786 363.943 62.9572 363.943ZM72.1934 363.943V354.717H73.6354V363.943H72.1934ZM70.6674 357.993V356.593H75.3434V357.993H70.6674ZM80.0181 364.083C79.2621 364.083 78.5901 363.925 78.0021 363.607C77.4234 363.281 76.9661 362.837 76.6301 362.277C76.3034 361.717 76.1401 361.073 76.1401 360.345C76.1401 359.767 76.2334 359.239 76.4201 358.763C76.6067 358.287 76.8634 357.877 77.1901 357.531C77.5261 357.177 77.9227 356.906 78.3801 356.719C78.8467 356.523 79.3507 356.425 79.8921 356.425C80.3681 356.425 80.8114 356.519 81.2221 356.705C81.6327 356.883 81.9874 357.13 82.2861 357.447C82.5941 357.765 82.8274 358.143 82.9861 358.581C83.1541 359.011 83.2334 359.482 83.2241 359.995L83.2101 360.611H77.2041L76.8821 359.463H81.9641L81.7541 359.701V359.365C81.7261 359.057 81.6234 358.782 81.4461 358.539C81.2687 358.297 81.0447 358.105 80.7741 357.965C80.5034 357.825 80.2094 357.755 79.8921 357.755C79.3881 357.755 78.9634 357.853 78.6181 358.049C78.2727 358.236 78.0114 358.516 77.8341 358.889C77.6567 359.253 77.5681 359.706 77.5681 360.247C77.5681 360.761 77.6754 361.209 77.8901 361.591C78.1047 361.965 78.4081 362.254 78.8001 362.459C79.1921 362.665 79.6447 362.767 80.1581 362.767C80.5221 362.767 80.8581 362.707 81.1661 362.585C81.4834 362.464 81.8241 362.245 82.1881 361.927L82.9161 362.949C82.6921 363.173 82.4167 363.369 82.0901 363.537C81.7727 363.705 81.4321 363.841 81.0681 363.943C80.7134 364.037 80.3634 364.083 80.0181 364.083ZM84.7912 363.943V356.593H86.2472V358.903L86.1072 358.343C86.2099 357.989 86.3825 357.667 86.6252 357.377C86.8772 357.088 87.1619 356.859 87.4792 356.691C87.8059 356.523 88.1419 356.439 88.4872 356.439C88.6459 356.439 88.7952 356.453 88.9352 356.481C89.0845 356.509 89.2012 356.542 89.2852 356.579L88.9072 358.147C88.7952 358.101 88.6692 358.063 88.5292 358.035C88.3985 357.998 88.2679 357.979 88.1372 357.979C87.8852 357.979 87.6425 358.031 87.4092 358.133C87.1852 358.227 86.9845 358.362 86.8072 358.539C86.6392 358.707 86.5039 358.908 86.4012 359.141C86.2985 359.365 86.2472 359.613 86.2472 359.883V363.943H84.7912ZM90.4377 363.943V356.593H91.8797V358.105L91.6277 358.273C91.721 357.947 91.903 357.648 92.1737 357.377C92.4444 357.097 92.7664 356.873 93.1397 356.705C93.513 356.528 93.8957 356.439 94.2877 356.439C94.8477 356.439 95.3144 356.551 95.6877 356.775C96.061 356.99 96.341 357.321 96.5277 357.769C96.7144 358.217 96.8077 358.782 96.8077 359.463V363.943H95.3657V359.561C95.3657 359.141 95.3097 358.796 95.1977 358.525C95.0857 358.245 94.913 358.045 94.6797 357.923C94.4464 357.793 94.157 357.737 93.8117 357.755C93.5317 357.755 93.275 357.802 93.0417 357.895C92.8084 357.979 92.603 358.101 92.4257 358.259C92.2577 358.418 92.1224 358.605 92.0197 358.819C91.9264 359.025 91.8797 359.249 91.8797 359.491V363.943H91.1657C91.0444 363.943 90.923 363.943 90.8017 363.943C90.6804 363.943 90.559 363.943 90.4377 363.943ZM102.194 364.083C101.438 364.083 100.766 363.925 100.178 363.607C99.5992 363.281 99.1419 362.837 98.8059 362.277C98.4792 361.717 98.3159 361.073 98.3159 360.345C98.3159 359.767 98.4092 359.239 98.5959 358.763C98.7825 358.287 99.0392 357.877 99.3659 357.531C99.7019 357.177 100.099 356.906 100.556 356.719C101.023 356.523 101.527 356.425 102.068 356.425C102.544 356.425 102.987 356.519 103.398 356.705C103.809 356.883 104.163 357.13 104.462 357.447C104.77 357.765 105.003 358.143 105.162 358.581C105.33 359.011 105.409 359.482 105.4 359.995L105.386 360.611H99.3799L99.0579 359.463H104.14L103.93 359.701V359.365C103.902 359.057 103.799 358.782 103.622 358.539C103.445 358.297 103.221 358.105 102.95 357.965C102.679 357.825 102.385 357.755 102.068 357.755C101.564 357.755 101.139 357.853 100.794 358.049C100.449 358.236 100.187 358.516 100.01 358.889C99.8325 359.253 99.7439 359.706 99.7439 360.247C99.7439 360.761 99.8512 361.209 100.066 361.591C100.281 361.965 100.584 362.254 100.976 362.459C101.368 362.665 101.821 362.767 102.334 362.767C102.698 362.767 103.034 362.707 103.342 362.585C103.659 362.464 104 362.245 104.364 361.927L105.092 362.949C104.868 363.173 104.593 363.369 104.266 363.537C103.949 363.705 103.608 363.841 103.244 363.943C102.889 364.037 102.539 364.083 102.194 364.083ZM107.877 363.943V354.717H109.319V363.943H107.877ZM106.351 357.993V356.593H111.027V357.993H106.351ZM118.714 364.083C118.098 364.083 117.543 363.976 117.048 363.761C116.553 363.547 116.143 363.229 115.816 362.809L116.796 361.969C117.076 362.296 117.379 362.534 117.706 362.683C118.042 362.823 118.42 362.893 118.84 362.893C119.008 362.893 119.162 362.875 119.302 362.837C119.451 362.791 119.577 362.725 119.68 362.641C119.792 362.557 119.876 362.459 119.932 362.347C119.988 362.226 120.016 362.095 120.016 361.955C120.016 361.713 119.927 361.517 119.75 361.367C119.657 361.302 119.507 361.232 119.302 361.157C119.106 361.073 118.849 360.989 118.532 360.905C117.991 360.765 117.547 360.607 117.202 360.429C116.857 360.252 116.591 360.051 116.404 359.827C116.264 359.65 116.161 359.459 116.096 359.253C116.031 359.039 115.998 358.805 115.998 358.553C115.998 358.245 116.063 357.965 116.194 357.713C116.334 357.452 116.521 357.228 116.754 357.041C116.997 356.845 117.277 356.696 117.594 356.593C117.921 356.491 118.266 356.439 118.63 356.439C118.975 356.439 119.316 356.486 119.652 356.579C119.997 356.673 120.315 356.808 120.604 356.985C120.893 357.163 121.136 357.373 121.332 357.615L120.506 358.525C120.329 358.348 120.133 358.194 119.918 358.063C119.713 357.923 119.503 357.816 119.288 357.741C119.073 357.667 118.877 357.629 118.7 357.629C118.504 357.629 118.327 357.648 118.168 357.685C118.009 357.723 117.874 357.779 117.762 357.853C117.659 357.928 117.58 358.021 117.524 358.133C117.468 358.245 117.44 358.371 117.44 358.511C117.449 358.633 117.477 358.749 117.524 358.861C117.58 358.964 117.655 359.053 117.748 359.127C117.851 359.202 118.005 359.281 118.21 359.365C118.415 359.449 118.677 359.529 118.994 359.603C119.461 359.725 119.843 359.86 120.142 360.009C120.45 360.149 120.693 360.313 120.87 360.499C121.057 360.677 121.187 360.882 121.262 361.115C121.337 361.349 121.374 361.61 121.374 361.899C121.374 362.319 121.253 362.697 121.01 363.033C120.777 363.36 120.459 363.617 120.058 363.803C119.657 363.99 119.209 364.083 118.714 364.083ZM126.393 364.083C125.637 364.083 124.965 363.925 124.377 363.607C123.798 363.281 123.341 362.837 123.005 362.277C122.678 361.717 122.515 361.073 122.515 360.345C122.515 359.767 122.608 359.239 122.795 358.763C122.982 358.287 123.238 357.877 123.565 357.531C123.901 357.177 124.298 356.906 124.755 356.719C125.222 356.523 125.726 356.425 126.267 356.425C126.743 356.425 127.186 356.519 127.597 356.705C128.008 356.883 128.362 357.13 128.661 357.447C128.969 357.765 129.202 358.143 129.361 358.581C129.529 359.011 129.608 359.482 129.599 359.995L129.585 360.611H123.579L123.257 359.463H128.339L128.129 359.701V359.365C128.101 359.057 127.998 358.782 127.821 358.539C127.644 358.297 127.42 358.105 127.149 357.965C126.878 357.825 126.584 357.755 126.267 357.755C125.763 357.755 125.338 357.853 124.993 358.049C124.648 358.236 124.386 358.516 124.209 358.889C124.032 359.253 123.943 359.706 123.943 360.247C123.943 360.761 124.05 361.209 124.265 361.591C124.48 361.965 124.783 362.254 125.175 362.459C125.567 362.665 126.02 362.767 126.533 362.767C126.897 362.767 127.233 362.707 127.541 362.585C127.858 362.464 128.199 362.245 128.563 361.927L129.291 362.949C129.067 363.173 128.792 363.369 128.465 363.537C128.148 363.705 127.807 363.841 127.443 363.943C127.088 364.037 126.738 364.083 126.393 364.083ZM131.166 363.943V356.593H132.622V358.903L132.482 358.343C132.585 357.989 132.758 357.667 133 357.377C133.252 357.088 133.537 356.859 133.854 356.691C134.181 356.523 134.517 356.439 134.862 356.439C135.021 356.439 135.17 356.453 135.31 356.481C135.46 356.509 135.576 356.542 135.66 356.579L135.282 358.147C135.17 358.101 135.044 358.063 134.904 358.035C134.774 357.998 134.643 357.979 134.512 357.979C134.26 357.979 134.018 358.031 133.784 358.133C133.56 358.227 133.36 358.362 133.182 358.539C133.014 358.707 132.879 358.908 132.776 359.141C132.674 359.365 132.622 359.613 132.622 359.883V363.943H131.166ZM139.918 363.943L136.81 356.593H138.364L140.604 362.095L140.338 362.221L142.732 356.593H144.216L140.954 363.943H139.918ZM148.76 364.083C148.004 364.083 147.332 363.925 146.744 363.607C146.166 363.281 145.708 362.837 145.372 362.277C145.046 361.717 144.882 361.073 144.882 360.345C144.882 359.767 144.976 359.239 145.162 358.763C145.349 358.287 145.606 357.877 145.932 357.531C146.268 357.177 146.665 356.906 147.122 356.719C147.589 356.523 148.093 356.425 148.634 356.425C149.11 356.425 149.554 356.519 149.964 356.705C150.375 356.883 150.73 357.13 151.028 357.447C151.336 357.765 151.57 358.143 151.728 358.581C151.896 359.011 151.976 359.482 151.966 359.995L151.952 360.611H145.946L145.624 359.463H150.706L150.496 359.701V359.365C150.468 359.057 150.366 358.782 150.188 358.539C150.011 358.297 149.787 358.105 149.516 357.965C149.246 357.825 148.952 357.755 148.634 357.755C148.13 357.755 147.706 357.853 147.36 358.049C147.015 358.236 146.754 358.516 146.576 358.889C146.399 359.253 146.31 359.706 146.31 360.247C146.31 360.761 146.418 361.209 146.632 361.591C146.847 361.965 147.15 362.254 147.542 362.459C147.934 362.665 148.387 362.767 148.9 362.767C149.264 362.767 149.6 362.707 149.908 362.585C150.226 362.464 150.566 362.245 150.93 361.927L151.658 362.949C151.434 363.173 151.159 363.369 150.832 363.537C150.515 363.705 150.174 363.841 149.81 363.943C149.456 364.037 149.106 364.083 148.76 364.083ZM153.533 363.943V356.593H154.989V358.903L154.849 358.343C154.952 357.989 155.125 357.667 155.367 357.377C155.619 357.088 155.904 356.859 156.221 356.691C156.548 356.523 156.884 356.439 157.229 356.439C157.388 356.439 157.537 356.453 157.677 356.481C157.827 356.509 157.943 356.542 158.027 356.579L157.649 358.147C157.537 358.101 157.411 358.063 157.271 358.035C157.141 357.998 157.01 357.979 156.879 357.979C156.627 357.979 156.385 358.031 156.151 358.133C155.927 358.227 155.727 358.362 155.549 358.539C155.381 358.707 155.246 358.908 155.143 359.141C155.041 359.365 154.989 359.613 154.989 359.883V363.943H153.533ZM166.534 364.083C165.778 364.083 165.106 363.925 164.518 363.607C163.939 363.281 163.482 362.837 163.146 362.277C162.819 361.717 162.656 361.073 162.656 360.345C162.656 359.767 162.749 359.239 162.936 358.763C163.122 358.287 163.379 357.877 163.706 357.531C164.042 357.177 164.438 356.906 164.896 356.719C165.362 356.523 165.866 356.425 166.408 356.425C166.884 356.425 167.327 356.519 167.738 356.705C168.148 356.883 168.503 357.13 168.802 357.447C169.11 357.765 169.343 358.143 169.502 358.581C169.67 359.011 169.749 359.482 169.74 359.995L169.726 360.611H163.72L163.398 359.463H168.48L168.27 359.701V359.365C168.242 359.057 168.139 358.782 167.962 358.539C167.784 358.297 167.56 358.105 167.29 357.965C167.019 357.825 166.725 357.755 166.408 357.755C165.904 357.755 165.479 357.853 165.134 358.049C164.788 358.236 164.527 358.516 164.35 358.889C164.172 359.253 164.084 359.706 164.084 360.247C164.084 360.761 164.191 361.209 164.406 361.591C164.62 361.965 164.924 362.254 165.316 362.459C165.708 362.665 166.16 362.767 166.674 362.767C167.038 362.767 167.374 362.707 167.682 362.585C167.999 362.464 168.34 362.245 168.704 361.927L169.432 362.949C169.208 363.173 168.932 363.369 168.606 363.537C168.288 363.705 167.948 363.841 167.584 363.943C167.229 364.037 166.879 364.083 166.534 364.083ZM171.307 363.943V356.593H172.763V358.903L172.623 358.343C172.725 357.989 172.898 357.667 173.141 357.377C173.393 357.088 173.677 356.859 173.995 356.691C174.321 356.523 174.657 356.439 175.003 356.439C175.161 356.439 175.311 356.453 175.451 356.481C175.6 356.509 175.717 356.542 175.801 356.579L175.423 358.147C175.311 358.101 175.185 358.063 175.045 358.035C174.914 357.998 174.783 357.979 174.653 357.979C174.401 357.979 174.158 358.031 173.925 358.133C173.701 358.227 173.5 358.362 173.323 358.539C173.155 358.707 173.019 358.908 172.917 359.141C172.814 359.365 172.763 359.613 172.763 359.883V363.943H171.307ZM176.953 363.943V356.593H178.409V358.903L178.269 358.343C178.372 357.989 178.545 357.667 178.787 357.377C179.039 357.088 179.324 356.859 179.641 356.691C179.968 356.523 180.304 356.439 180.649 356.439C180.808 356.439 180.957 356.453 181.097 356.481C181.247 356.509 181.363 356.542 181.447 356.579L181.069 358.147C180.957 358.101 180.831 358.063 180.691 358.035C180.561 357.998 180.43 357.979 180.299 357.979C180.047 357.979 179.805 358.031 179.571 358.133C179.347 358.227 179.147 358.362 178.969 358.539C178.801 358.707 178.666 358.908 178.563 359.141C178.461 359.365 178.409 359.613 178.409 359.883V363.943H176.953ZM185.589 364.083C184.871 364.083 184.227 363.92 183.657 363.593C183.097 363.257 182.654 362.805 182.327 362.235C182.001 361.657 181.837 360.999 181.837 360.261C181.837 359.524 182.001 358.871 182.327 358.301C182.654 357.723 183.097 357.27 183.657 356.943C184.227 356.607 184.871 356.439 185.589 356.439C186.299 356.439 186.933 356.607 187.493 356.943C188.063 357.27 188.511 357.723 188.837 358.301C189.164 358.871 189.327 359.524 189.327 360.261C189.327 360.999 189.164 361.657 188.837 362.235C188.511 362.805 188.063 363.257 187.493 363.593C186.933 363.92 186.299 364.083 185.589 364.083ZM185.589 362.767C186.028 362.767 186.42 362.66 186.765 362.445C187.111 362.221 187.381 361.923 187.577 361.549C187.773 361.167 187.867 360.737 187.857 360.261C187.867 359.776 187.773 359.347 187.577 358.973C187.381 358.591 187.111 358.292 186.765 358.077C186.42 357.863 186.028 357.755 185.589 357.755C185.151 357.755 184.754 357.867 184.399 358.091C184.054 358.306 183.783 358.605 183.587 358.987C183.391 359.361 183.298 359.785 183.307 360.261C183.298 360.737 183.391 361.167 183.587 361.549C183.783 361.923 184.054 362.221 184.399 362.445C184.754 362.66 185.151 362.767 185.589 362.767ZM190.899 363.943V356.593H192.355V358.903L192.215 358.343C192.317 357.989 192.49 357.667 192.733 357.377C192.985 357.088 193.269 356.859 193.587 356.691C193.913 356.523 194.249 356.439 194.595 356.439C194.753 356.439 194.903 356.453 195.043 356.481C195.192 356.509 195.309 356.542 195.393 356.579L195.015 358.147C194.903 358.101 194.777 358.063 194.637 358.035C194.506 357.998 194.375 357.979 194.245 357.979C193.993 357.979 193.75 358.031 193.517 358.133C193.293 358.227 193.092 358.362 192.915 358.539C192.747 358.707 192.611 358.908 192.509 359.141C192.406 359.365 192.355 359.613 192.355 359.883V363.943H190.899ZM200.469 363.943V353.583H201.911V358.105L201.659 358.273C201.752 357.947 201.934 357.648 202.205 357.377C202.476 357.097 202.798 356.873 203.171 356.705C203.544 356.528 203.927 356.439 204.319 356.439C204.879 356.439 205.346 356.551 205.719 356.775C206.092 356.99 206.372 357.321 206.559 357.769C206.746 358.217 206.839 358.782 206.839 359.463V363.943H205.397V359.561C205.397 359.141 205.341 358.796 205.229 358.525C205.117 358.245 204.944 358.045 204.711 357.923C204.478 357.793 204.188 357.737 203.843 357.755C203.563 357.755 203.306 357.802 203.073 357.895C202.84 357.979 202.634 358.101 202.457 358.259C202.289 358.418 202.154 358.605 202.051 358.819C201.958 359.025 201.911 359.249 201.911 359.491V363.943H201.197C201.076 363.943 200.954 363.943 200.833 363.943C200.712 363.943 200.59 363.943 200.469 363.943ZM211.623 364.083C211.016 364.083 210.461 363.915 209.957 363.579C209.462 363.243 209.066 362.786 208.767 362.207C208.468 361.629 208.319 360.975 208.319 360.247C208.319 359.51 208.468 358.857 208.767 358.287C209.075 357.709 209.486 357.256 209.999 356.929C210.522 356.603 211.105 356.439 211.749 356.439C212.132 356.439 212.482 356.495 212.799 356.607C213.116 356.719 213.392 356.878 213.625 357.083C213.868 357.279 214.064 357.508 214.213 357.769C214.372 358.031 214.47 358.311 214.507 358.609L214.185 358.497V356.593H215.641V363.943H214.185V362.193L214.521 362.095C214.465 362.347 214.348 362.595 214.171 362.837C214.003 363.071 213.784 363.281 213.513 363.467C213.252 363.654 212.958 363.803 212.631 363.915C212.314 364.027 211.978 364.083 211.623 364.083ZM212.001 362.753C212.44 362.753 212.827 362.646 213.163 362.431C213.499 362.217 213.76 361.923 213.947 361.549C214.143 361.167 214.241 360.733 214.241 360.247C214.241 359.771 214.143 359.347 213.947 358.973C213.76 358.6 213.499 358.306 213.163 358.091C212.827 357.877 212.44 357.769 212.001 357.769C211.572 357.769 211.189 357.877 210.853 358.091C210.526 358.306 210.265 358.6 210.069 358.973C209.882 359.347 209.789 359.771 209.789 360.247C209.789 360.733 209.882 361.167 210.069 361.549C210.265 361.923 210.526 362.217 210.853 362.431C211.189 362.646 211.572 362.753 212.001 362.753ZM220.104 364.083C219.488 364.083 218.933 363.976 218.438 363.761C217.944 363.547 217.533 363.229 217.206 362.809L218.186 361.969C218.466 362.296 218.77 362.534 219.096 362.683C219.432 362.823 219.81 362.893 220.23 362.893C220.398 362.893 220.552 362.875 220.692 362.837C220.842 362.791 220.968 362.725 221.07 362.641C221.182 362.557 221.266 362.459 221.322 362.347C221.378 362.226 221.406 362.095 221.406 361.955C221.406 361.713 221.318 361.517 221.14 361.367C221.047 361.302 220.898 361.232 220.692 361.157C220.496 361.073 220.24 360.989 219.922 360.905C219.381 360.765 218.938 360.607 218.592 360.429C218.247 360.252 217.981 360.051 217.794 359.827C217.654 359.65 217.552 359.459 217.486 359.253C217.421 359.039 217.388 358.805 217.388 358.553C217.388 358.245 217.454 357.965 217.584 357.713C217.724 357.452 217.911 357.228 218.144 357.041C218.387 356.845 218.667 356.696 218.984 356.593C219.311 356.491 219.656 356.439 220.02 356.439C220.366 356.439 220.706 356.486 221.042 356.579C221.388 356.673 221.705 356.808 221.994 356.985C222.284 357.163 222.526 357.373 222.722 357.615L221.896 358.525C221.719 358.348 221.523 358.194 221.308 358.063C221.103 357.923 220.893 357.816 220.678 357.741C220.464 357.667 220.268 357.629 220.09 357.629C219.894 357.629 219.717 357.648 219.558 357.685C219.4 357.723 219.264 357.779 219.152 357.853C219.05 357.928 218.97 358.021 218.914 358.133C218.858 358.245 218.83 358.371 218.83 358.511C218.84 358.633 218.868 358.749 218.914 358.861C218.97 358.964 219.045 359.053 219.138 359.127C219.241 359.202 219.395 359.281 219.6 359.365C219.806 359.449 220.067 359.529 220.384 359.603C220.851 359.725 221.234 359.86 221.532 360.009C221.84 360.149 222.083 360.313 222.26 360.499C222.447 360.677 222.578 360.882 222.652 361.115C222.727 361.349 222.764 361.61 222.764 361.899C222.764 362.319 222.643 362.697 222.4 363.033C222.167 363.36 221.85 363.617 221.448 363.803C221.047 363.99 220.599 364.083 220.104 364.083ZM231.582 364.083C230.863 364.083 230.219 363.92 229.65 363.593C229.09 363.257 228.646 362.805 228.32 362.235C227.993 361.657 227.83 360.999 227.83 360.261C227.83 359.524 227.993 358.871 228.32 358.301C228.646 357.723 229.09 357.27 229.65 356.943C230.219 356.607 230.863 356.439 231.582 356.439C232.291 356.439 232.926 356.607 233.486 356.943C234.055 357.27 234.503 357.723 234.83 358.301C235.156 358.871 235.32 359.524 235.32 360.261C235.32 360.999 235.156 361.657 234.83 362.235C234.503 362.805 234.055 363.257 233.486 363.593C232.926 363.92 232.291 364.083 231.582 364.083ZM231.582 362.767C232.02 362.767 232.412 362.66 232.758 362.445C233.103 362.221 233.374 361.923 233.57 361.549C233.766 361.167 233.859 360.737 233.85 360.261C233.859 359.776 233.766 359.347 233.57 358.973C233.374 358.591 233.103 358.292 232.758 358.077C232.412 357.863 232.02 357.755 231.582 357.755C231.143 357.755 230.746 357.867 230.392 358.091C230.046 358.306 229.776 358.605 229.58 358.987C229.384 359.361 229.29 359.785 229.3 360.261C229.29 360.737 229.384 361.167 229.58 361.549C229.776 361.923 230.046 362.221 230.392 362.445C230.746 362.66 231.143 362.767 231.582 362.767ZM240.013 364.083C239.331 364.083 238.72 363.915 238.179 363.579C237.647 363.243 237.222 362.786 236.905 362.207C236.597 361.629 236.443 360.98 236.443 360.261C236.443 359.543 236.597 358.894 236.905 358.315C237.222 357.737 237.647 357.279 238.179 356.943C238.72 356.607 239.331 356.439 240.013 356.439C240.666 356.439 241.259 356.575 241.791 356.845C242.332 357.107 242.743 357.466 243.023 357.923L242.225 358.903C242.075 358.689 241.884 358.493 241.651 358.315C241.417 358.138 241.17 357.998 240.909 357.895C240.647 357.793 240.395 357.741 240.153 357.741C239.705 357.741 239.303 357.853 238.949 358.077C238.603 358.292 238.328 358.591 238.123 358.973C237.917 359.356 237.815 359.785 237.815 360.261C237.815 360.737 237.922 361.167 238.137 361.549C238.351 361.923 238.636 362.221 238.991 362.445C239.345 362.669 239.737 362.781 240.167 362.781C240.419 362.781 240.661 362.739 240.895 362.655C241.137 362.571 241.371 362.445 241.595 362.277C241.819 362.109 242.029 361.904 242.225 361.661L243.023 362.641C242.724 363.061 242.295 363.407 241.735 363.677C241.184 363.948 240.61 364.083 240.013 364.083ZM247.505 364.083C246.824 364.083 246.212 363.915 245.671 363.579C245.139 363.243 244.714 362.786 244.397 362.207C244.089 361.629 243.935 360.98 243.935 360.261C243.935 359.543 244.089 358.894 244.397 358.315C244.714 357.737 245.139 357.279 245.671 356.943C246.212 356.607 246.824 356.439 247.505 356.439C248.158 356.439 248.751 356.575 249.283 356.845C249.824 357.107 250.235 357.466 250.515 357.923L249.717 358.903C249.568 358.689 249.376 358.493 249.143 358.315C248.91 358.138 248.662 357.998 248.401 357.895C248.14 357.793 247.888 357.741 247.645 357.741C247.197 357.741 246.796 357.853 246.441 358.077C246.096 358.292 245.82 358.591 245.615 358.973C245.41 359.356 245.307 359.785 245.307 360.261C245.307 360.737 245.414 361.167 245.629 361.549C245.844 361.923 246.128 362.221 246.483 362.445C246.838 362.669 247.23 362.781 247.659 362.781C247.911 362.781 248.154 362.739 248.387 362.655C248.63 362.571 248.863 362.445 249.087 362.277C249.311 362.109 249.521 361.904 249.717 361.661L250.515 362.641C250.216 363.061 249.787 363.407 249.227 363.677C248.676 363.948 248.102 364.083 247.505 364.083ZM254.451 364.083C253.929 364.083 253.471 363.962 253.079 363.719C252.697 363.477 252.398 363.136 252.183 362.697C251.978 362.259 251.875 361.736 251.875 361.129V356.593H253.317V360.737C253.317 361.167 253.383 361.54 253.513 361.857C253.653 362.165 253.849 362.403 254.101 362.571C254.363 362.739 254.675 362.823 255.039 362.823C255.31 362.823 255.557 362.781 255.781 362.697C256.005 362.604 256.197 362.478 256.355 362.319C256.523 362.161 256.654 361.969 256.747 361.745C256.841 361.521 256.887 361.279 256.887 361.017V356.593H258.329V363.943H256.887V362.403L257.139 362.235C257.027 362.581 256.836 362.893 256.565 363.173C256.304 363.453 255.991 363.677 255.627 363.845C255.263 364.004 254.871 364.083 254.451 364.083ZM260.352 363.943V356.593H261.808V358.903L261.668 358.343C261.77 357.989 261.943 357.667 262.186 357.377C262.438 357.088 262.722 356.859 263.04 356.691C263.366 356.523 263.702 356.439 264.048 356.439C264.206 356.439 264.356 356.453 264.496 356.481C264.645 356.509 264.762 356.542 264.846 356.579L264.468 358.147C264.356 358.101 264.23 358.063 264.09 358.035C263.959 357.998 263.828 357.979 263.698 357.979C263.446 357.979 263.203 358.031 262.97 358.133C262.746 358.227 262.545 358.362 262.368 358.539C262.2 358.707 262.064 358.908 261.962 359.141C261.859 359.365 261.808 359.613 261.808 359.883V363.943H260.352ZM269.114 364.083C268.358 364.083 267.686 363.925 267.098 363.607C266.519 363.281 266.062 362.837 265.726 362.277C265.399 361.717 265.236 361.073 265.236 360.345C265.236 359.767 265.329 359.239 265.516 358.763C265.702 358.287 265.959 357.877 266.286 357.531C266.622 357.177 267.018 356.906 267.476 356.719C267.942 356.523 268.446 356.425 268.988 356.425C269.464 356.425 269.907 356.519 270.318 356.705C270.728 356.883 271.083 357.13 271.382 357.447C271.69 357.765 271.923 358.143 272.082 358.581C272.25 359.011 272.329 359.482 272.32 359.995L272.306 360.611H266.3L265.978 359.463H271.06L270.85 359.701V359.365C270.822 359.057 270.719 358.782 270.542 358.539C270.364 358.297 270.14 358.105 269.87 357.965C269.599 357.825 269.305 357.755 268.988 357.755C268.484 357.755 268.059 357.853 267.714 358.049C267.368 358.236 267.107 358.516 266.93 358.889C266.752 359.253 266.664 359.706 266.664 360.247C266.664 360.761 266.771 361.209 266.986 361.591C267.2 361.965 267.504 362.254 267.896 362.459C268.288 362.665 268.74 362.767 269.254 362.767C269.618 362.767 269.954 362.707 270.262 362.585C270.579 362.464 270.92 362.245 271.284 361.927L272.012 362.949C271.788 363.173 271.512 363.369 271.186 363.537C270.868 363.705 270.528 363.841 270.164 363.943C269.809 364.037 269.459 364.083 269.114 364.083ZM276.953 364.083C276.281 364.083 275.679 363.92 275.147 363.593C274.624 363.257 274.209 362.805 273.901 362.235C273.593 361.657 273.439 360.999 273.439 360.261C273.439 359.524 273.588 358.871 273.887 358.301C274.195 357.723 274.61 357.27 275.133 356.943C275.656 356.607 276.248 356.439 276.911 356.439C277.275 356.439 277.625 356.5 277.961 356.621C278.306 356.733 278.614 356.892 278.885 357.097C279.156 357.293 279.366 357.513 279.515 357.755C279.674 357.989 279.753 358.227 279.753 358.469L279.333 358.497V353.583H280.775V363.943H279.333V362.193H279.613C279.613 362.417 279.538 362.641 279.389 362.865C279.24 363.08 279.039 363.281 278.787 363.467C278.544 363.654 278.26 363.803 277.933 363.915C277.616 364.027 277.289 364.083 276.953 364.083ZM277.149 362.837C277.588 362.837 277.975 362.725 278.311 362.501C278.647 362.277 278.908 361.974 279.095 361.591C279.291 361.199 279.389 360.756 279.389 360.261C279.389 359.767 279.291 359.328 279.095 358.945C278.908 358.553 278.647 358.245 278.311 358.021C277.975 357.797 277.588 357.685 277.149 357.685C276.71 357.685 276.323 357.797 275.987 358.021C275.651 358.245 275.385 358.553 275.189 358.945C275.002 359.328 274.909 359.767 274.909 360.261C274.909 360.756 275.002 361.199 275.189 361.591C275.385 361.974 275.651 362.277 275.987 362.501C276.323 362.725 276.71 362.837 277.149 362.837ZM283.348 364.097C283.04 364.097 282.802 364.009 282.634 363.831C282.466 363.645 282.382 363.383 282.382 363.047C282.382 362.739 282.471 362.487 282.648 362.291C282.825 362.095 283.059 361.997 283.348 361.997C283.656 361.997 283.894 362.091 284.062 362.277C284.23 362.455 284.314 362.711 284.314 363.047C284.314 363.355 284.225 363.607 284.048 363.803C283.871 363.999 283.637 364.097 283.348 364.097Z" fill="#111B23"/>
<path d="M174.164 174.833C173.456 174.833 172.762 174.643 172.154 174.281C171.546 173.919 171.047 173.4 170.71 172.779C170.524 172.451 166.761 177 159.276 177C151.79 177 146.018 173.016 145.967 173.087C145.316 173.874 144.384 174.377 143.369 174.489C142.354 174.601 141.334 174.315 140.527 173.69C139.719 173.064 139.186 172.15 139.04 171.139C138.895 170.128 139.148 169.1 139.746 168.272C140.073 167.855 147.848 156.5 159.276 156.5C171.557 156.5 177.386 168.593 177.624 169.049C177.941 169.647 178.098 170.317 178.081 170.994C178.063 171.671 177.871 172.332 177.523 172.913C177.175 173.494 176.683 173.976 176.094 174.311C175.506 174.646 174.841 174.824 174.164 174.827V174.833Z" fill="#263238"/>
<path d="M141.59 166.223L147.58 168.297L146.893 161.909C144.978 163.157 143.201 164.603 141.59 166.223Z" fill="white"/>
<path d="M171.886 162.436L171.456 169.555L177.324 168.515C175.87 166.195 174.031 164.139 171.886 162.436Z" fill="white"/>
<path d="M173.715 169.555L169.863 171.481C170.176 171.893 170.466 172.321 170.73 172.765C171.067 173.387 171.567 173.906 172.174 174.268C172.782 174.629 173.477 174.82 174.184 174.82C174.565 174.816 174.943 174.758 175.307 174.646L173.715 169.555Z" fill="white"/>
<path d="M145.968 173.086C146.371 172.604 146.8 172.143 147.252 171.706L142.315 169.048L141.031 174.152C141.848 174.583 142.791 174.713 143.694 174.518C144.597 174.323 145.402 173.816 145.968 173.086Z" fill="white"/>
<path d="M174.164 174.833C173.456 174.833 172.762 174.643 172.154 174.281C171.546 173.919 171.047 173.4 170.71 172.779C170.524 172.451 166.761 177.5 159.276 177.5C151.79 177.5 146.018 173.016 145.967 173.087C145.316 173.874 144.384 174.377 143.369 174.489C142.354 174.601 141.334 174.315 140.527 173.69C139.719 173.064 139.186 172.15 139.04 171.139C138.895 170.128 139.148 169.1 139.746 168.272C140.073 167.855 147.848 158 159.276 158C171.557 158 177.386 168.593 177.624 169.049C177.941 169.647 178.098 170.317 178.081 170.994C178.063 171.671 177.871 172.332 177.523 172.913C177.175 173.494 176.683 173.976 176.094 174.311C175.506 174.646 174.841 174.824 174.164 174.827V174.833Z" stroke="#263238" stroke-width="1.20355" stroke-linecap="round" stroke-linejoin="round"/>
</svg>
