<svg width="321" height="351" viewBox="0 0 321 351" fill="none" xmlns="http://www.w3.org/2000/svg">
<path d="M58.96 323V309H67.78V311.08H61.12V320.92H67.78V323H58.96ZM59.94 316.86V314.78H66.68V316.86H59.94ZM70.7252 323V312.5H72.8052V315.8L72.6052 315C72.7518 314.493 72.9985 314.033 73.3452 313.62C73.7052 313.207 74.1118 312.88 74.5652 312.64C75.0318 312.4 75.5118 312.28 76.0052 312.28C76.2318 312.28 76.4452 312.3 76.6452 312.34C76.8585 312.38 77.0252 312.427 77.1452 312.48L76.6052 314.72C76.4452 314.653 76.2652 314.6 76.0652 314.56C75.8785 314.507 75.6918 314.48 75.5052 314.48C75.1452 314.48 74.7985 314.553 74.4652 314.7C74.1452 314.833 73.8585 315.027 73.6052 315.28C73.3652 315.52 73.1718 315.807 73.0252 316.14C72.8785 316.46 72.8052 316.813 72.8052 317.2V323H70.7252ZM78.7916 323V312.5H80.8716V315.8L80.6716 315C80.8182 314.493 81.0649 314.033 81.4116 313.62C81.7716 313.207 82.1782 312.88 82.6316 312.64C83.0982 312.4 83.5782 312.28 84.0716 312.28C84.2982 312.28 84.5116 312.3 84.7116 312.34C84.9249 312.38 85.0916 312.427 85.2116 312.48L84.6716 314.72C84.5116 314.653 84.3316 314.6 84.1316 314.56C83.9449 314.507 83.7582 314.48 83.5716 314.48C83.2116 314.48 82.8649 314.553 82.5316 314.7C82.2116 314.833 81.9249 315.027 81.6716 315.28C81.4316 315.52 81.2382 315.807 81.0916 316.14C80.9449 316.46 80.8716 316.813 80.8716 317.2V323H78.7916ZM91.1288 323.2C90.1021 323.2 89.1821 322.967 88.3688 322.5C87.5688 322.02 86.9354 321.373 86.4688 320.56C86.0021 319.733 85.7688 318.793 85.7688 317.74C85.7688 316.687 86.0021 315.753 86.4688 314.94C86.9354 314.113 87.5688 313.467 88.3688 313C89.1821 312.52 90.1021 312.28 91.1288 312.28C92.1421 312.28 93.0488 312.52 93.8488 313C94.6621 313.467 95.3021 314.113 95.7688 314.94C96.2354 315.753 96.4688 316.687 96.4688 317.74C96.4688 318.793 96.2354 319.733 95.7688 320.56C95.3021 321.373 94.6621 322.02 93.8488 322.5C93.0488 322.967 92.1421 323.2 91.1288 323.2ZM91.1288 321.32C91.7554 321.32 92.3154 321.167 92.8088 320.86C93.3021 320.54 93.6888 320.113 93.9688 319.58C94.2488 319.033 94.3821 318.42 94.3688 317.74C94.3821 317.047 94.2488 316.433 93.9688 315.9C93.6888 315.353 93.3021 314.927 92.8088 314.62C92.3154 314.313 91.7554 314.16 91.1288 314.16C90.5021 314.16 89.9354 314.32 89.4288 314.64C88.9354 314.947 88.5488 315.373 88.2688 315.92C87.9888 316.453 87.8554 317.06 87.8688 317.74C87.8554 318.42 87.9888 319.033 88.2688 319.58C88.5488 320.113 88.9354 320.54 89.4288 320.86C89.9354 321.167 90.5021 321.32 91.1288 321.32ZM98.7134 323V312.5H100.793V315.8L100.593 315C100.74 314.493 100.987 314.033 101.333 313.62C101.693 313.207 102.1 312.88 102.553 312.64C103.02 312.4 103.5 312.28 103.993 312.28C104.22 312.28 104.433 312.3 104.633 312.34C104.847 312.38 105.013 312.427 105.133 312.48L104.593 314.72C104.433 314.653 104.253 314.6 104.053 314.56C103.867 314.507 103.68 314.48 103.493 314.48C103.133 314.48 102.787 314.553 102.453 314.7C102.133 314.833 101.847 315.027 101.593 315.28C101.353 315.52 101.16 315.807 101.013 316.14C100.867 316.46 100.793 316.813 100.793 317.2V323H98.7134ZM117.985 323V311.72L118.485 311.84L113.885 317.46L113.805 317.22H122.505V319.2H112.465L111.545 317.4L118.405 309H120.065V323H117.985ZM129.408 323.2C128.341 323.2 127.421 322.907 126.648 322.32C125.888 321.733 125.301 320.907 124.888 319.84C124.474 318.76 124.268 317.48 124.268 316C124.268 314.52 124.474 313.247 124.888 312.18C125.301 311.1 125.888 310.267 126.648 309.68C127.421 309.093 128.341 308.8 129.408 308.8C130.474 308.8 131.394 309.093 132.168 309.68C132.941 310.267 133.534 311.1 133.948 312.18C134.361 313.247 134.568 314.52 134.568 316C134.568 317.48 134.361 318.76 133.948 319.84C133.534 320.907 132.941 321.733 132.168 322.32C131.394 322.907 130.474 323.2 129.408 323.2ZM129.408 321.24C130.381 321.24 131.134 320.787 131.668 319.88C132.201 318.96 132.468 317.667 132.468 316C132.468 314.333 132.201 313.047 131.668 312.14C131.134 311.22 130.381 310.76 129.408 310.76C128.434 310.76 127.681 311.22 127.148 312.14C126.614 313.047 126.348 314.333 126.348 316C126.348 317.667 126.614 318.96 127.148 319.88C127.681 320.787 128.434 321.24 129.408 321.24ZM140.516 323.2C139.529 323.2 138.669 322.973 137.936 322.52C137.216 322.067 136.536 321.307 135.896 320.24L137.576 319.18C137.909 319.673 138.236 320.08 138.556 320.4C138.889 320.707 139.229 320.933 139.576 321.08C139.923 321.227 140.289 321.3 140.676 321.3C141.143 321.3 141.576 321.187 141.976 320.96C142.376 320.72 142.696 320.393 142.936 319.98C143.176 319.567 143.296 319.1 143.296 318.58C143.296 318.06 143.203 317.62 143.016 317.26C142.829 316.887 142.556 316.607 142.196 316.42C141.836 316.22 141.409 316.12 140.916 316.12C140.689 316.12 140.449 316.147 140.196 316.2C139.956 316.24 139.696 316.307 139.416 316.4C139.136 316.48 138.829 316.587 138.496 316.72L137.896 315.14L142.216 310.38L142.636 311H136.676V309H144.696L145.096 309.8L140.516 314.88L140.016 314.36C140.123 314.307 140.296 314.26 140.536 314.22C140.789 314.167 140.996 314.14 141.156 314.14C141.743 314.14 142.289 314.253 142.796 314.48C143.316 314.693 143.763 315 144.136 315.4C144.523 315.787 144.823 316.247 145.036 316.78C145.263 317.3 145.376 317.86 145.376 318.46C145.376 319.367 145.156 320.18 144.716 320.9C144.289 321.607 143.709 322.167 142.976 322.58C142.243 322.993 141.423 323.2 140.516 323.2ZM152.748 318.3V316.26H158.508V318.3H152.748ZM167.124 323V309H169.284V323H167.124ZM168.084 317.04V314.96H175.304V317.04H168.084ZM168.084 311.08V309H176.204V311.08H168.084ZM183.062 323.2C182.036 323.2 181.116 322.967 180.302 322.5C179.502 322.02 178.869 321.373 178.402 320.56C177.936 319.733 177.702 318.793 177.702 317.74C177.702 316.687 177.936 315.753 178.402 314.94C178.869 314.113 179.502 313.467 180.302 313C181.116 312.52 182.036 312.28 183.062 312.28C184.076 312.28 184.982 312.52 185.782 313C186.596 313.467 187.236 314.113 187.702 314.94C188.169 315.753 188.402 316.687 188.402 317.74C188.402 318.793 188.169 319.733 187.702 320.56C187.236 321.373 186.596 322.02 185.782 322.5C184.982 322.967 184.076 323.2 183.062 323.2ZM183.062 321.32C183.689 321.32 184.249 321.167 184.742 320.86C185.236 320.54 185.622 320.113 185.902 319.58C186.182 319.033 186.316 318.42 186.302 317.74C186.316 317.047 186.182 316.433 185.902 315.9C185.622 315.353 185.236 314.927 184.742 314.62C184.249 314.313 183.689 314.16 183.062 314.16C182.436 314.16 181.869 314.32 181.362 314.64C180.869 314.947 180.482 315.373 180.202 315.92C179.922 316.453 179.789 317.06 179.802 317.74C179.789 318.42 179.922 319.033 180.202 319.58C180.482 320.113 180.869 320.54 181.362 320.86C181.869 321.167 182.436 321.32 183.062 321.32ZM190.647 323V312.5H192.727V315.8L192.527 315C192.674 314.493 192.92 314.033 193.267 313.62C193.627 313.207 194.034 312.88 194.487 312.64C194.954 312.4 195.434 312.28 195.927 312.28C196.154 312.28 196.367 312.3 196.567 312.34C196.78 312.38 196.947 312.427 197.067 312.48L196.527 314.72C196.367 314.653 196.187 314.6 195.987 314.56C195.8 314.507 195.614 314.48 195.427 314.48C195.067 314.48 194.72 314.553 194.387 314.7C194.067 314.833 193.78 315.027 193.527 315.28C193.287 315.52 193.094 315.807 192.947 316.14C192.8 316.46 192.727 316.813 192.727 317.2V323H190.647ZM204.233 323.2C203.78 323.2 203.327 323.127 202.873 322.98C202.433 322.833 202.027 322.64 201.653 322.4C201.293 322.147 200.987 321.873 200.733 321.58C200.493 321.273 200.333 320.967 200.253 320.66L200.773 320.38V322.94H198.713V308.2H200.773V314.9L200.453 314.72C200.52 314.413 200.667 314.12 200.893 313.84C201.12 313.547 201.407 313.287 201.753 313.06C202.113 312.82 202.5 312.633 202.913 312.5C203.327 312.353 203.747 312.28 204.173 312.28C205.12 312.28 205.96 312.513 206.693 312.98C207.427 313.447 208.007 314.093 208.433 314.92C208.86 315.733 209.073 316.667 209.073 317.72C209.073 318.773 208.86 319.713 208.433 320.54C208.02 321.367 207.447 322.02 206.713 322.5C205.98 322.967 205.153 323.2 204.233 323.2ZM203.893 321.32C204.507 321.32 205.053 321.167 205.533 320.86C206.013 320.54 206.393 320.113 206.673 319.58C206.953 319.033 207.093 318.413 207.093 317.72C207.093 317.04 206.953 316.433 206.673 315.9C206.407 315.353 206.033 314.927 205.553 314.62C205.073 314.313 204.52 314.16 203.893 314.16C203.267 314.16 202.713 314.313 202.233 314.62C201.753 314.927 201.373 315.353 201.093 315.9C200.813 316.433 200.673 317.04 200.673 317.72C200.673 318.413 200.813 319.033 201.093 319.58C201.373 320.113 201.753 320.54 202.233 320.86C202.713 321.167 203.267 321.32 203.893 321.32ZM211.651 323V312.5H213.711V323H211.651ZM212.651 310.18C212.211 310.18 211.871 310.067 211.631 309.84C211.391 309.613 211.271 309.293 211.271 308.88C211.271 308.493 211.391 308.18 211.631 307.94C211.884 307.7 212.224 307.58 212.651 307.58C213.091 307.58 213.431 307.693 213.671 307.92C213.911 308.147 214.031 308.467 214.031 308.88C214.031 309.267 213.904 309.58 213.651 309.82C213.411 310.06 213.078 310.18 212.651 310.18ZM221.258 323.2C220.298 323.2 219.438 322.967 218.678 322.5C217.931 322.02 217.338 321.373 216.898 320.56C216.458 319.733 216.238 318.793 216.238 317.74C216.238 316.687 216.451 315.753 216.878 314.94C217.318 314.113 217.911 313.467 218.658 313C219.404 312.52 220.251 312.28 221.198 312.28C221.718 312.28 222.218 312.367 222.698 312.54C223.191 312.7 223.631 312.927 224.018 313.22C224.404 313.5 224.704 313.813 224.918 314.16C225.144 314.493 225.258 314.833 225.258 315.18L224.658 315.22V308.2H226.718V323H224.658V320.5H225.058C225.058 320.82 224.951 321.14 224.738 321.46C224.524 321.767 224.238 322.053 223.878 322.32C223.531 322.587 223.124 322.8 222.658 322.96C222.204 323.12 221.738 323.2 221.258 323.2ZM221.538 321.42C222.164 321.42 222.718 321.26 223.198 320.94C223.678 320.62 224.051 320.187 224.318 319.64C224.598 319.08 224.738 318.447 224.738 317.74C224.738 317.033 224.598 316.407 224.318 315.86C224.051 315.3 223.678 314.86 223.198 314.54C222.718 314.22 222.164 314.06 221.538 314.06C220.911 314.06 220.358 314.22 219.878 314.54C219.398 314.86 219.018 315.3 218.738 315.86C218.471 316.407 218.338 317.033 218.338 317.74C218.338 318.447 218.471 319.08 218.738 319.64C219.018 320.187 219.398 320.62 219.878 320.94C220.358 321.26 220.911 321.42 221.538 321.42ZM233.933 323.2C232.973 323.2 232.113 322.967 231.353 322.5C230.607 322.02 230.013 321.373 229.573 320.56C229.133 319.733 228.913 318.793 228.913 317.74C228.913 316.687 229.127 315.753 229.553 314.94C229.993 314.113 230.587 313.467 231.333 313C232.08 312.52 232.927 312.28 233.873 312.28C234.393 312.28 234.893 312.367 235.373 312.54C235.867 312.7 236.307 312.927 236.693 313.22C237.08 313.5 237.38 313.813 237.593 314.16C237.82 314.493 237.933 314.833 237.933 315.18L237.333 315.22V308.2H239.393V323H237.333V320.5H237.733C237.733 320.82 237.627 321.14 237.413 321.46C237.2 321.767 236.913 322.053 236.553 322.32C236.207 322.587 235.8 322.8 235.333 322.96C234.88 323.12 234.413 323.2 233.933 323.2ZM234.213 321.42C234.84 321.42 235.393 321.26 235.873 320.94C236.353 320.62 236.727 320.187 236.993 319.64C237.273 319.08 237.413 318.447 237.413 317.74C237.413 317.033 237.273 316.407 236.993 315.86C236.727 315.3 236.353 314.86 235.873 314.54C235.393 314.22 234.84 314.06 234.213 314.06C233.587 314.06 233.033 314.22 232.553 314.54C232.073 314.86 231.693 315.3 231.413 315.86C231.147 316.407 231.013 317.033 231.013 317.74C231.013 318.447 231.147 319.08 231.413 319.64C231.693 320.187 232.073 320.62 232.553 320.94C233.033 321.26 233.587 321.42 234.213 321.42ZM247.129 323.2C246.049 323.2 245.089 322.973 244.249 322.52C243.422 322.053 242.769 321.42 242.289 320.62C241.822 319.82 241.589 318.9 241.589 317.86C241.589 317.033 241.722 316.28 241.989 315.6C242.256 314.92 242.622 314.333 243.089 313.84C243.569 313.333 244.136 312.947 244.789 312.68C245.456 312.4 246.176 312.26 246.949 312.26C247.629 312.26 248.262 312.393 248.849 312.66C249.436 312.913 249.942 313.267 250.369 313.72C250.809 314.173 251.142 314.713 251.369 315.34C251.609 315.953 251.722 316.627 251.709 317.36L251.689 318.24H243.109L242.649 316.6H249.909L249.609 316.94V316.46C249.569 316.02 249.422 315.627 249.169 315.28C248.916 314.933 248.596 314.66 248.209 314.46C247.822 314.26 247.402 314.16 246.949 314.16C246.229 314.16 245.622 314.3 245.129 314.58C244.636 314.847 244.262 315.247 244.009 315.78C243.756 316.3 243.629 316.947 243.629 317.72C243.629 318.453 243.782 319.093 244.089 319.64C244.396 320.173 244.829 320.587 245.389 320.88C245.949 321.173 246.596 321.32 247.329 321.32C247.849 321.32 248.329 321.233 248.769 321.06C249.222 320.887 249.709 320.573 250.229 320.12L251.269 321.58C250.949 321.9 250.556 322.18 250.089 322.42C249.636 322.66 249.149 322.853 248.629 323C248.122 323.133 247.622 323.2 247.129 323.2ZM253.948 323V312.5H256.008V314.66L255.648 314.9C255.781 314.433 256.041 314.007 256.428 313.62C256.814 313.22 257.274 312.9 257.808 312.66C258.341 312.407 258.888 312.28 259.448 312.28C260.248 312.28 260.914 312.44 261.448 312.76C261.981 313.067 262.381 313.54 262.648 314.18C262.914 314.82 263.048 315.627 263.048 316.6V323H260.988V316.74C260.988 316.14 260.908 315.647 260.748 315.26C260.588 314.86 260.341 314.573 260.008 314.4C259.674 314.213 259.261 314.133 258.768 314.16C258.368 314.16 258.001 314.227 257.668 314.36C257.334 314.48 257.041 314.653 256.788 314.88C256.548 315.107 256.354 315.373 256.208 315.68C256.074 315.973 256.008 316.293 256.008 316.64V323H254.988C254.814 323 254.641 323 254.468 323C254.294 323 254.121 323 253.948 323Z" fill="#111B23"/>
<path d="M55.396 346.197C54.864 346.197 54.3693 346.127 53.912 345.987C53.464 345.847 53.0533 345.637 52.68 345.357C52.316 345.067 51.9893 344.713 51.7 344.293L52.736 343.103C53.1933 343.756 53.632 344.209 54.052 344.461C54.472 344.713 54.9713 344.839 55.55 344.839C55.9047 344.839 56.2267 344.783 56.516 344.671C56.8053 344.559 57.034 344.405 57.202 344.209C57.37 344.013 57.454 343.789 57.454 343.537C57.454 343.369 57.426 343.21 57.37 343.061C57.314 342.911 57.2253 342.776 57.104 342.655C56.992 342.533 56.8427 342.421 56.656 342.319C56.4787 342.216 56.2687 342.127 56.026 342.053C55.7833 341.969 55.5033 341.899 55.186 341.843C54.682 341.74 54.2433 341.605 53.87 341.437C53.4967 341.269 53.184 341.059 52.932 340.807C52.68 340.555 52.4933 340.27 52.372 339.953C52.2507 339.626 52.19 339.262 52.19 338.861C52.19 338.469 52.274 338.105 52.442 337.769C52.6193 337.433 52.8573 337.143 53.156 336.901C53.464 336.649 53.8233 336.457 54.234 336.327C54.6447 336.187 55.088 336.117 55.564 336.117C56.068 336.117 56.53 336.182 56.95 336.313C57.37 336.443 57.7433 336.639 58.07 336.901C58.3967 337.153 58.6673 337.465 58.882 337.839L57.818 338.889C57.6313 338.581 57.4213 338.324 57.188 338.119C56.9547 337.904 56.698 337.745 56.418 337.643C56.138 337.531 55.8393 337.475 55.522 337.475C55.158 337.475 54.8407 337.531 54.57 337.643C54.2993 337.755 54.0847 337.913 53.926 338.119C53.7767 338.315 53.702 338.548 53.702 338.819C53.702 339.015 53.7393 339.197 53.814 339.365C53.8887 339.523 54.0007 339.668 54.15 339.799C54.3087 339.92 54.5187 340.032 54.78 340.135C55.0413 340.228 55.354 340.312 55.718 340.387C56.2313 340.499 56.6887 340.643 57.09 340.821C57.4913 340.989 57.832 341.189 58.112 341.423C58.392 341.656 58.602 341.917 58.742 342.207C58.8913 342.496 58.966 342.809 58.966 343.145C58.966 343.77 58.8213 344.311 58.532 344.769C58.2427 345.226 57.832 345.581 57.3 345.833C56.768 346.075 56.1333 346.197 55.396 346.197ZM64.0483 346.197C63.3297 346.197 62.6857 346.033 62.1163 345.707C61.5563 345.371 61.113 344.918 60.7863 344.349C60.4597 343.77 60.2963 343.112 60.2963 342.375C60.2963 341.637 60.4597 340.984 60.7863 340.415C61.113 339.836 61.5563 339.383 62.1163 339.057C62.6857 338.721 63.3297 338.553 64.0483 338.553C64.7577 338.553 65.3923 338.721 65.9523 339.057C66.5217 339.383 66.9697 339.836 67.2963 340.415C67.623 340.984 67.7863 341.637 67.7863 342.375C67.7863 343.112 67.623 343.77 67.2963 344.349C66.9697 344.918 66.5217 345.371 65.9523 345.707C65.3923 346.033 64.7577 346.197 64.0483 346.197ZM64.0483 344.881C64.487 344.881 64.879 344.773 65.2243 344.559C65.5697 344.335 65.8403 344.036 66.0363 343.663C66.2323 343.28 66.3257 342.851 66.3163 342.375C66.3257 341.889 66.2323 341.46 66.0363 341.087C65.8403 340.704 65.5697 340.405 65.2243 340.191C64.879 339.976 64.487 339.869 64.0483 339.869C63.6097 339.869 63.213 339.981 62.8583 340.205C62.513 340.419 62.2423 340.718 62.0463 341.101C61.8503 341.474 61.757 341.899 61.7663 342.375C61.757 342.851 61.8503 343.28 62.0463 343.663C62.2423 344.036 62.513 344.335 62.8583 344.559C63.213 344.773 63.6097 344.881 64.0483 344.881ZM69.3576 346.057V338.707H70.8136V341.017L70.6736 340.457C70.7763 340.102 70.9489 339.78 71.1916 339.491C71.4436 339.201 71.7283 338.973 72.0456 338.805C72.3723 338.637 72.7083 338.553 73.0536 338.553C73.2123 338.553 73.3616 338.567 73.5016 338.595C73.6509 338.623 73.7676 338.655 73.8516 338.693L73.4736 340.261C73.3616 340.214 73.2356 340.177 73.0956 340.149C72.9649 340.111 72.8343 340.093 72.7036 340.093C72.4516 340.093 72.2089 340.144 71.9756 340.247C71.7516 340.34 71.5509 340.475 71.3736 340.653C71.2056 340.821 71.0703 341.021 70.9676 341.255C70.8649 341.479 70.8136 341.726 70.8136 341.997V346.057H69.3576ZM75.0041 346.057V338.707H76.4601V341.017L76.3201 340.457C76.4228 340.102 76.5954 339.78 76.8381 339.491C77.0901 339.201 77.3748 338.973 77.6921 338.805C78.0188 338.637 78.3548 338.553 78.7001 338.553C78.8588 338.553 79.0081 338.567 79.1481 338.595C79.2974 338.623 79.4141 338.655 79.4981 338.693L79.1201 340.261C79.0081 340.214 78.8821 340.177 78.7421 340.149C78.6114 340.111 78.4808 340.093 78.3501 340.093C78.0981 340.093 77.8554 340.144 77.6221 340.247C77.3981 340.34 77.1974 340.475 77.0201 340.653C76.8521 340.821 76.7168 341.021 76.6141 341.255C76.5114 341.479 76.4601 341.726 76.4601 341.997V346.057H75.0041ZM81.8826 349.277L83.3666 345.847L83.3806 346.995L79.7126 338.707H81.3926L83.6886 344.111C83.7352 344.204 83.7912 344.349 83.8566 344.545C83.9219 344.731 83.9779 344.918 84.0246 345.105L83.6606 345.189C83.7352 344.993 83.8052 344.797 83.8706 344.601C83.9452 344.405 84.0152 344.209 84.0806 344.013L85.9986 338.707H87.7066L84.6826 346.057L83.4366 349.277H81.8826ZM89.0093 348.563L88.4773 347.919C88.804 347.732 89.07 347.517 89.2753 347.275C89.4807 347.032 89.5833 346.822 89.5833 346.645C89.5833 346.551 89.56 346.458 89.5133 346.365C89.4667 346.281 89.3687 346.159 89.2193 346.001C89.0327 345.823 88.9113 345.674 88.8553 345.553C88.7993 345.431 88.7713 345.301 88.7713 345.161C88.7713 344.937 88.8507 344.759 89.0093 344.629C89.168 344.489 89.3733 344.419 89.6253 344.419C89.8587 344.419 90.0687 344.489 90.2553 344.629C90.4513 344.759 90.6007 344.946 90.7033 345.189C90.8153 345.422 90.8713 345.693 90.8713 346.001C90.8713 346.281 90.8247 346.551 90.7313 346.813C90.638 347.074 90.5073 347.317 90.3393 347.541C90.1713 347.765 89.9753 347.965 89.7513 348.143C89.5273 348.32 89.28 348.46 89.0093 348.563ZM97.6736 349.277L99.1576 345.847L99.1716 346.995L95.5036 338.707H97.1836L99.4796 344.111C99.5263 344.204 99.5823 344.349 99.6476 344.545C99.7129 344.731 99.7689 344.918 99.8156 345.105L99.4516 345.189C99.5263 344.993 99.5963 344.797 99.6616 344.601C99.7363 344.405 99.8063 344.209 99.8716 344.013L101.79 338.707H103.498L100.474 346.057L99.2276 349.277H97.6736ZM107.744 346.197C107.025 346.197 106.381 346.033 105.812 345.707C105.252 345.371 104.808 344.918 104.482 344.349C104.155 343.77 103.992 343.112 103.992 342.375C103.992 341.637 104.155 340.984 104.482 340.415C104.808 339.836 105.252 339.383 105.812 339.057C106.381 338.721 107.025 338.553 107.744 338.553C108.453 338.553 109.088 338.721 109.648 339.057C110.217 339.383 110.665 339.836 110.992 340.415C111.318 340.984 111.482 341.637 111.482 342.375C111.482 343.112 111.318 343.77 110.992 344.349C110.665 344.918 110.217 345.371 109.648 345.707C109.088 346.033 108.453 346.197 107.744 346.197ZM107.744 344.881C108.182 344.881 108.574 344.773 108.92 344.559C109.265 344.335 109.536 344.036 109.732 343.663C109.928 343.28 110.021 342.851 110.012 342.375C110.021 341.889 109.928 341.46 109.732 341.087C109.536 340.704 109.265 340.405 108.92 340.191C108.574 339.976 108.182 339.869 107.744 339.869C107.305 339.869 106.908 339.981 106.554 340.205C106.208 340.419 105.938 340.718 105.742 341.101C105.546 341.474 105.452 341.899 105.462 342.375C105.452 342.851 105.546 343.28 105.742 343.663C105.938 344.036 106.208 344.335 106.554 344.559C106.908 344.773 107.305 344.881 107.744 344.881ZM115.629 346.197C115.106 346.197 114.649 346.075 114.257 345.833C113.874 345.59 113.576 345.249 113.361 344.811C113.156 344.372 113.053 343.849 113.053 343.243V338.707H114.495V342.851C114.495 343.28 114.56 343.653 114.691 343.971C114.831 344.279 115.027 344.517 115.279 344.685C115.54 344.853 115.853 344.937 116.217 344.937C116.488 344.937 116.735 344.895 116.959 344.811C117.183 344.717 117.374 344.591 117.533 344.433C117.701 344.274 117.832 344.083 117.925 343.859C118.018 343.635 118.065 343.392 118.065 343.131V338.707H119.507V346.057H118.065V344.517L118.317 344.349C118.205 344.694 118.014 345.007 117.743 345.287C117.482 345.567 117.169 345.791 116.805 345.959C116.441 346.117 116.049 346.197 115.629 346.197ZM121.333 339.407L120.801 338.763C121.165 338.595 121.464 338.403 121.697 338.189C121.931 337.974 122.047 337.787 122.047 337.629C122.047 337.507 121.996 337.4 121.893 337.307C121.791 337.204 121.697 337.12 121.613 337.055C121.408 336.887 121.268 336.747 121.193 336.635C121.128 336.523 121.095 336.406 121.095 336.285C121.095 336.061 121.175 335.883 121.333 335.753C121.492 335.613 121.697 335.543 121.949 335.543C122.211 335.543 122.444 335.613 122.649 335.753C122.864 335.883 123.032 336.065 123.153 336.299C123.275 336.532 123.335 336.807 123.335 337.125C123.335 337.367 123.284 337.605 123.181 337.839C123.079 338.072 122.934 338.291 122.747 338.497C122.57 338.702 122.36 338.884 122.117 339.043C121.875 339.201 121.613 339.323 121.333 339.407ZM124.483 346.057V338.707H125.939V341.017L125.799 340.457C125.901 340.102 126.074 339.78 126.317 339.491C126.569 339.201 126.853 338.973 127.171 338.805C127.497 338.637 127.833 338.553 128.179 338.553C128.337 338.553 128.487 338.567 128.627 338.595C128.776 338.623 128.893 338.655 128.977 338.693L128.599 340.261C128.487 340.214 128.361 340.177 128.221 340.149C128.09 340.111 127.959 340.093 127.829 340.093C127.577 340.093 127.334 340.144 127.101 340.247C126.877 340.34 126.676 340.475 126.499 340.653C126.331 340.821 126.195 341.021 126.093 341.255C125.99 341.479 125.939 341.726 125.939 341.997V346.057H124.483ZM133.245 346.197C132.489 346.197 131.817 346.038 131.229 345.721C130.65 345.394 130.193 344.951 129.857 344.391C129.53 343.831 129.367 343.187 129.367 342.459C129.367 341.88 129.46 341.353 129.647 340.877C129.833 340.401 130.09 339.99 130.417 339.645C130.753 339.29 131.149 339.019 131.607 338.833C132.073 338.637 132.577 338.539 133.119 338.539C133.595 338.539 134.038 338.632 134.449 338.819C134.859 338.996 135.214 339.243 135.513 339.561C135.821 339.878 136.054 340.256 136.213 340.695C136.381 341.124 136.46 341.595 136.451 342.109L136.437 342.725H130.431L130.109 341.577H135.191L134.981 341.815V341.479C134.953 341.171 134.85 340.895 134.673 340.653C134.495 340.41 134.271 340.219 134.001 340.079C133.73 339.939 133.436 339.869 133.119 339.869C132.615 339.869 132.19 339.967 131.845 340.163C131.499 340.349 131.238 340.629 131.061 341.003C130.883 341.367 130.795 341.819 130.795 342.361C130.795 342.874 130.902 343.322 131.117 343.705C131.331 344.078 131.635 344.367 132.027 344.573C132.419 344.778 132.871 344.881 133.385 344.881C133.749 344.881 134.085 344.82 134.393 344.699C134.71 344.577 135.051 344.358 135.415 344.041L136.143 345.063C135.919 345.287 135.643 345.483 135.317 345.651C134.999 345.819 134.659 345.954 134.295 346.057C133.94 346.15 133.59 346.197 133.245 346.197ZM141.942 346.057V338.707H143.384V340.219L143.132 340.387C143.225 340.06 143.407 339.761 143.678 339.491C143.948 339.211 144.27 338.987 144.644 338.819C145.017 338.641 145.4 338.553 145.792 338.553C146.352 338.553 146.818 338.665 147.192 338.889C147.565 339.103 147.845 339.435 148.032 339.883C148.218 340.331 148.312 340.895 148.312 341.577V346.057H146.87V341.675C146.87 341.255 146.814 340.909 146.702 340.639C146.59 340.359 146.417 340.158 146.184 340.037C145.95 339.906 145.661 339.85 145.316 339.869C145.036 339.869 144.779 339.915 144.546 340.009C144.312 340.093 144.107 340.214 143.93 340.373C143.762 340.531 143.626 340.718 143.524 340.933C143.43 341.138 143.384 341.362 143.384 341.605V346.057H142.67C142.548 346.057 142.427 346.057 142.306 346.057C142.184 346.057 142.063 346.057 141.942 346.057ZM153.572 346.197C152.853 346.197 152.209 346.033 151.64 345.707C151.08 345.371 150.636 344.918 150.31 344.349C149.983 343.77 149.82 343.112 149.82 342.375C149.82 341.637 149.983 340.984 150.31 340.415C150.636 339.836 151.08 339.383 151.64 339.057C152.209 338.721 152.853 338.553 153.572 338.553C154.281 338.553 154.916 338.721 155.476 339.057C156.045 339.383 156.493 339.836 156.82 340.415C157.146 340.984 157.31 341.637 157.31 342.375C157.31 343.112 157.146 343.77 156.82 344.349C156.493 344.918 156.045 345.371 155.476 345.707C154.916 346.033 154.281 346.197 153.572 346.197ZM153.572 344.881C154.01 344.881 154.402 344.773 154.748 344.559C155.093 344.335 155.364 344.036 155.56 343.663C155.756 343.28 155.849 342.851 155.84 342.375C155.849 341.889 155.756 341.46 155.56 341.087C155.364 340.704 155.093 340.405 154.748 340.191C154.402 339.976 154.01 339.869 153.572 339.869C153.133 339.869 152.736 339.981 152.382 340.205C152.036 340.419 151.766 340.718 151.57 341.101C151.374 341.474 151.28 341.899 151.29 342.375C151.28 342.851 151.374 343.28 151.57 343.663C151.766 344.036 152.036 344.335 152.382 344.559C152.736 344.773 153.133 344.881 153.572 344.881ZM159.791 346.057V336.831H161.233V346.057H159.791ZM158.265 340.107V338.707H162.941V340.107H158.265ZM171.006 346.197C170.399 346.197 169.844 346.029 169.34 345.693C168.845 345.357 168.449 344.899 168.15 344.321C167.851 343.742 167.702 343.089 167.702 342.361C167.702 341.623 167.851 340.97 168.15 340.401C168.458 339.822 168.869 339.369 169.382 339.043C169.905 338.716 170.488 338.553 171.132 338.553C171.515 338.553 171.865 338.609 172.182 338.721C172.499 338.833 172.775 338.991 173.008 339.197C173.251 339.393 173.447 339.621 173.596 339.883C173.755 340.144 173.853 340.424 173.89 340.723L173.568 340.611V338.707H175.024V346.057H173.568V344.307L173.904 344.209C173.848 344.461 173.731 344.708 173.554 344.951C173.386 345.184 173.167 345.394 172.896 345.581C172.635 345.767 172.341 345.917 172.014 346.029C171.697 346.141 171.361 346.197 171.006 346.197ZM171.384 344.867C171.823 344.867 172.21 344.759 172.546 344.545C172.882 344.33 173.143 344.036 173.33 343.663C173.526 343.28 173.624 342.846 173.624 342.361C173.624 341.885 173.526 341.46 173.33 341.087C173.143 340.713 172.882 340.419 172.546 340.205C172.21 339.99 171.823 339.883 171.384 339.883C170.955 339.883 170.572 339.99 170.236 340.205C169.909 340.419 169.648 340.713 169.452 341.087C169.265 341.46 169.172 341.885 169.172 342.361C169.172 342.846 169.265 343.28 169.452 343.663C169.648 344.036 169.909 344.33 170.236 344.545C170.572 344.759 170.955 344.867 171.384 344.867ZM177.065 346.057V335.697H178.507V346.057H177.065ZM180.579 346.057V335.697H182.021V346.057H180.579ZM187.232 346.197C186.513 346.197 185.869 346.033 185.3 345.707C184.74 345.371 184.297 344.918 183.97 344.349C183.643 343.77 183.48 343.112 183.48 342.375C183.48 341.637 183.643 340.984 183.97 340.415C184.297 339.836 184.74 339.383 185.3 339.057C185.869 338.721 186.513 338.553 187.232 338.553C187.941 338.553 188.576 338.721 189.136 339.057C189.705 339.383 190.153 339.836 190.48 340.415C190.807 340.984 190.97 341.637 190.97 342.375C190.97 343.112 190.807 343.77 190.48 344.349C190.153 344.918 189.705 345.371 189.136 345.707C188.576 346.033 187.941 346.197 187.232 346.197ZM187.232 344.881C187.671 344.881 188.063 344.773 188.408 344.559C188.753 344.335 189.024 344.036 189.22 343.663C189.416 343.28 189.509 342.851 189.5 342.375C189.509 341.889 189.416 341.46 189.22 341.087C189.024 340.704 188.753 340.405 188.408 340.191C188.063 339.976 187.671 339.869 187.232 339.869C186.793 339.869 186.397 339.981 186.042 340.205C185.697 340.419 185.426 340.718 185.23 341.101C185.034 341.474 184.941 341.899 184.95 342.375C184.941 342.851 185.034 343.28 185.23 343.663C185.426 344.036 185.697 344.335 186.042 344.559C186.397 344.773 186.793 344.881 187.232 344.881ZM194.074 346.057L191.568 338.707L193.024 338.693L194.816 344.195L194.494 344.167L196.44 339.869H197.308L199.268 344.181L198.89 344.209L200.696 338.707H202.152L199.674 346.057H198.68L196.636 341.381L196.958 341.423L195.054 346.057H194.074ZM206.69 346.197C205.934 346.197 205.262 346.038 204.674 345.721C204.095 345.394 203.638 344.951 203.302 344.391C202.975 343.831 202.812 343.187 202.812 342.459C202.812 341.88 202.905 341.353 203.092 340.877C203.279 340.401 203.535 339.99 203.862 339.645C204.198 339.29 204.595 339.019 205.052 338.833C205.519 338.637 206.023 338.539 206.564 338.539C207.04 338.539 207.483 338.632 207.894 338.819C208.305 338.996 208.659 339.243 208.958 339.561C209.266 339.878 209.499 340.256 209.658 340.695C209.826 341.124 209.905 341.595 209.896 342.109L209.882 342.725H203.876L203.554 341.577H208.636L208.426 341.815V341.479C208.398 341.171 208.295 340.895 208.118 340.653C207.941 340.41 207.717 340.219 207.446 340.079C207.175 339.939 206.881 339.869 206.564 339.869C206.06 339.869 205.635 339.967 205.29 340.163C204.945 340.349 204.683 340.629 204.506 341.003C204.329 341.367 204.24 341.819 204.24 342.361C204.24 342.874 204.347 343.322 204.562 343.705C204.777 344.078 205.08 344.367 205.472 344.573C205.864 344.778 206.317 344.881 206.83 344.881C207.194 344.881 207.53 344.82 207.838 344.699C208.155 344.577 208.496 344.358 208.86 344.041L209.588 345.063C209.364 345.287 209.089 345.483 208.762 345.651C208.445 345.819 208.104 345.954 207.74 346.057C207.385 346.15 207.035 346.197 206.69 346.197ZM214.529 346.197C213.857 346.197 213.255 346.033 212.723 345.707C212.2 345.371 211.785 344.918 211.477 344.349C211.169 343.77 211.015 343.112 211.015 342.375C211.015 341.637 211.164 340.984 211.463 340.415C211.771 339.836 212.186 339.383 212.709 339.057C213.232 338.721 213.824 338.553 214.487 338.553C214.851 338.553 215.201 338.613 215.537 338.735C215.882 338.847 216.19 339.005 216.461 339.211C216.732 339.407 216.942 339.626 217.091 339.869C217.25 340.102 217.329 340.34 217.329 340.583L216.909 340.611V335.697H218.351V346.057H216.909V344.307H217.189C217.189 344.531 217.114 344.755 216.965 344.979C216.816 345.193 216.615 345.394 216.363 345.581C216.12 345.767 215.836 345.917 215.509 346.029C215.192 346.141 214.865 346.197 214.529 346.197ZM214.725 344.951C215.164 344.951 215.551 344.839 215.887 344.615C216.223 344.391 216.484 344.087 216.671 343.705C216.867 343.313 216.965 342.869 216.965 342.375C216.965 341.88 216.867 341.441 216.671 341.059C216.484 340.667 216.223 340.359 215.887 340.135C215.551 339.911 215.164 339.799 214.725 339.799C214.286 339.799 213.899 339.911 213.563 340.135C213.227 340.359 212.961 340.667 212.765 341.059C212.578 341.441 212.485 341.88 212.485 342.375C212.485 342.869 212.578 343.313 212.765 343.705C212.961 344.087 213.227 344.391 213.563 344.615C213.899 344.839 214.286 344.951 214.725 344.951ZM224.498 346.057V338.707H225.94V346.057H224.498ZM225.198 337.083C224.89 337.083 224.652 337.003 224.484 336.845C224.316 336.686 224.232 336.462 224.232 336.173C224.232 335.902 224.316 335.683 224.484 335.515C224.661 335.347 224.899 335.263 225.198 335.263C225.506 335.263 225.744 335.342 225.912 335.501C226.08 335.659 226.164 335.883 226.164 336.173C226.164 336.443 226.075 336.663 225.898 336.831C225.73 336.999 225.497 337.083 225.198 337.083ZM228.156 346.057V338.707H229.598V340.219L229.346 340.387C229.44 340.06 229.622 339.761 229.892 339.491C230.163 339.211 230.485 338.987 230.858 338.819C231.232 338.641 231.614 338.553 232.006 338.553C232.566 338.553 233.033 338.665 233.406 338.889C233.78 339.103 234.06 339.435 234.246 339.883C234.433 340.331 234.526 340.895 234.526 341.577V346.057H233.084V341.675C233.084 341.255 233.028 340.909 232.916 340.639C232.804 340.359 232.632 340.158 232.398 340.037C232.165 339.906 231.876 339.85 231.53 339.869C231.25 339.869 230.994 339.915 230.76 340.009C230.527 340.093 230.322 340.214 230.144 340.373C229.976 340.531 229.841 340.718 229.738 340.933C229.645 341.138 229.598 341.362 229.598 341.605V346.057H228.884C228.763 346.057 228.642 346.057 228.52 346.057C228.399 346.057 228.278 346.057 228.156 346.057ZM240.406 346.057V335.697H241.848V340.219L241.596 340.387C241.69 340.06 241.872 339.761 242.142 339.491C242.413 339.211 242.735 338.987 243.108 338.819C243.482 338.641 243.864 338.553 244.256 338.553C244.816 338.553 245.283 338.665 245.656 338.889C246.03 339.103 246.31 339.435 246.496 339.883C246.683 340.331 246.776 340.895 246.776 341.577V346.057H245.334V341.675C245.334 341.255 245.278 340.909 245.166 340.639C245.054 340.359 244.882 340.158 244.648 340.037C244.415 339.906 244.126 339.85 243.78 339.869C243.5 339.869 243.244 339.915 243.01 340.009C242.777 340.093 242.572 340.214 242.394 340.373C242.226 340.531 242.091 340.718 241.988 340.933C241.895 341.138 241.848 341.362 241.848 341.605V346.057H241.134C241.013 346.057 240.892 346.057 240.77 346.057C240.649 346.057 240.528 346.057 240.406 346.057ZM252.163 346.197C251.407 346.197 250.735 346.038 250.147 345.721C249.568 345.394 249.111 344.951 248.775 344.391C248.448 343.831 248.285 343.187 248.285 342.459C248.285 341.88 248.378 341.353 248.565 340.877C248.751 340.401 249.008 339.99 249.335 339.645C249.671 339.29 250.067 339.019 250.525 338.833C250.991 338.637 251.495 338.539 252.037 338.539C252.513 338.539 252.956 338.632 253.367 338.819C253.777 338.996 254.132 339.243 254.431 339.561C254.739 339.878 254.972 340.256 255.131 340.695C255.299 341.124 255.378 341.595 255.369 342.109L255.355 342.725H249.349L249.027 341.577H254.109L253.899 341.815V341.479C253.871 341.171 253.768 340.895 253.591 340.653C253.413 340.41 253.189 340.219 252.919 340.079C252.648 339.939 252.354 339.869 252.037 339.869C251.533 339.869 251.108 339.967 250.763 340.163C250.417 340.349 250.156 340.629 249.979 341.003C249.801 341.367 249.713 341.819 249.713 342.361C249.713 342.874 249.82 343.322 250.035 343.705C250.249 344.078 250.553 344.367 250.945 344.573C251.337 344.778 251.789 344.881 252.303 344.881C252.667 344.881 253.003 344.82 253.311 344.699C253.628 344.577 253.969 344.358 254.333 344.041L255.061 345.063C254.837 345.287 254.561 345.483 254.235 345.651C253.917 345.819 253.577 345.954 253.213 346.057C252.858 346.15 252.508 346.197 252.163 346.197ZM256.936 346.057V338.707H258.392V341.017L258.252 340.457C258.354 340.102 258.527 339.78 258.77 339.491C259.022 339.201 259.306 338.973 259.624 338.805C259.95 338.637 260.286 338.553 260.632 338.553C260.79 338.553 260.94 338.567 261.08 338.595C261.229 338.623 261.346 338.655 261.43 338.693L261.052 340.261C260.94 340.214 260.814 340.177 260.674 340.149C260.543 340.111 260.412 340.093 260.282 340.093C260.03 340.093 259.787 340.144 259.554 340.247C259.33 340.34 259.129 340.475 258.952 340.653C258.784 340.821 258.648 341.021 258.546 341.255C258.443 341.479 258.392 341.726 258.392 341.997V346.057H256.936ZM265.698 346.197C264.942 346.197 264.27 346.038 263.682 345.721C263.103 345.394 262.646 344.951 262.31 344.391C261.983 343.831 261.82 343.187 261.82 342.459C261.82 341.88 261.913 341.353 262.1 340.877C262.286 340.401 262.543 339.99 262.87 339.645C263.206 339.29 263.602 339.019 264.06 338.833C264.526 338.637 265.03 338.539 265.572 338.539C266.048 338.539 266.491 338.632 266.902 338.819C267.312 338.996 267.667 339.243 267.966 339.561C268.274 339.878 268.507 340.256 268.666 340.695C268.834 341.124 268.913 341.595 268.904 342.109L268.89 342.725H262.884L262.562 341.577H267.644L267.434 341.815V341.479C267.406 341.171 267.303 340.895 267.126 340.653C266.948 340.41 266.724 340.219 266.454 340.079C266.183 339.939 265.889 339.869 265.572 339.869C265.068 339.869 264.643 339.967 264.298 340.163C263.952 340.349 263.691 340.629 263.514 341.003C263.336 341.367 263.248 341.819 263.248 342.361C263.248 342.874 263.355 343.322 263.57 343.705C263.784 344.078 264.088 344.367 264.48 344.573C264.872 344.778 265.324 344.881 265.838 344.881C266.202 344.881 266.538 344.82 266.846 344.699C267.163 344.577 267.504 344.358 267.868 344.041L268.596 345.063C268.372 345.287 268.096 345.483 267.77 345.651C267.452 345.819 267.112 345.954 266.748 346.057C266.393 346.15 266.043 346.197 265.698 346.197Z" fill="#111B23"/>
<path d="M173.701 42.7919C173.701 42.7919 128.119 37.2257 92.5458 70.3979C56.9726 103.57 47.4196 155.745 38.5664 197.783C29.7132 239.822 49.1723 276.178 84.8418 286.733C120.511 297.287 135.752 266.471 179.62 255.275C223.488 244.078 236.874 247.744 267.574 214.424C298.275 181.104 290.853 120.378 251.524 83.0581C212.195 45.7386 173.701 42.7919 173.701 42.7919Z" fill="#EBEBEB"/>
<path opacity="0.7" d="M173.701 42.7919C173.701 42.7919 128.119 37.2257 92.5458 70.3979C56.9726 103.57 47.4196 155.745 38.5664 197.783C29.7132 239.822 49.1723 276.178 84.8418 286.733C120.511 297.287 135.752 266.471 179.62 255.275C223.488 244.078 236.874 247.744 267.574 214.424C298.275 181.104 290.853 120.378 251.524 83.0581C212.195 45.7386 173.701 42.7919 173.701 42.7919Z" fill="white"/>
<path d="M42.5195 247.114C61.3494 241.336 100.974 229.883 122.84 229.023C152.218 227.861 201.89 251.005 232.866 255.049C263.843 259.094 284.675 257.945 284.675 257.945" stroke="#263238" stroke-width="1.20355" stroke-linecap="round" stroke-linejoin="round"/>
<path d="M32.043 250.42C32.043 250.42 33.6736 249.888 36.537 248.982" stroke="#263238" stroke-width="1.20355" stroke-linecap="round" stroke-linejoin="round"/>
<path d="M276.309 214.366C265.484 211.786 254.364 210.648 243.24 210.983C220.263 211.811 195.424 215.111 164.659 219.399C133.894 223.688 90.1293 199.973 60.3469 208.774C30.5645 217.576 32.8244 220.221 32.8244 220.221" stroke="#263238" stroke-width="1.20355" stroke-linecap="round" stroke-linejoin="round"/>
<path d="M284.778 216.754C284.778 216.754 283.623 216.337 281.523 215.733" stroke="#263238" stroke-width="1.20355" stroke-linecap="round" stroke-linejoin="round"/>
<path d="M184.324 69.743C183.967 68.286 183.132 66.9909 181.952 66.0649C180.771 65.139 179.315 64.6357 177.815 64.6357C176.314 64.6357 174.858 65.139 173.677 66.0649C172.497 66.9909 171.662 68.286 171.305 69.743H184.324Z" stroke="#263238" stroke-width="1.20355" stroke-linecap="round" stroke-linejoin="round"/>
<path d="M250.095 69.7429C249.701 68.084 248.805 66.5866 247.53 65.4542C246.256 64.3217 244.663 63.609 242.969 63.4128C243.186 62.2353 243.296 61.0406 243.297 59.8433C243.291 54.9776 241.465 50.2901 238.177 46.7028C234.89 43.1154 230.38 40.8878 225.533 40.458C220.686 40.0283 215.854 41.4274 211.987 44.3803C208.12 47.3333 205.497 51.6262 204.635 56.415C202.559 54.789 200.019 53.8651 197.383 53.7767C194.746 53.6883 192.15 54.4399 189.969 55.923C187.788 57.4061 186.135 59.5441 185.248 62.0281C184.361 64.5122 184.286 67.2138 185.035 69.7429H250.095Z" stroke="#263238" stroke-width="1.20355" stroke-linecap="round" stroke-linejoin="round"/>
<path d="M68.4681 85.3752C68.2879 84.6341 67.864 83.9751 67.2645 83.5038C66.6649 83.0326 65.9244 82.7764 65.1618 82.7764C64.3991 82.7764 63.6586 83.0326 63.0591 83.5038C62.4595 83.9751 62.0356 84.6341 61.8555 85.3752H68.4681Z" stroke="#263238" stroke-width="1.20355" stroke-linecap="round" stroke-linejoin="round"/>
<path d="M101.857 85.3759C101.655 84.5344 101.199 83.7752 100.551 83.2011C99.9038 82.627 99.0955 82.2656 98.2358 82.1659C98.5052 80.8737 98.5132 79.5405 98.2594 78.2451C98.0056 76.9497 97.4952 75.7182 96.7581 74.6231C96.021 73.528 95.0723 72.5915 93.9677 71.8687C92.8631 71.1459 91.625 70.6515 90.3264 70.4146C89.0278 70.1776 87.6949 70.203 86.4063 70.4891C85.1176 70.7753 83.8992 71.3164 82.8229 72.0806C81.7466 72.8449 80.8342 73.8168 80.1393 74.9391C79.4444 76.0615 78.9811 77.3115 78.7768 78.6157C77.7223 77.7905 76.4329 77.3218 75.0947 77.277C73.7565 77.2323 72.4386 77.614 71.3314 78.3669C70.2242 79.1198 69.3848 80.205 68.9345 81.466C68.4841 82.7269 68.446 84.0984 68.8258 85.3823L101.857 85.3759Z" stroke="#263238" stroke-width="1.20355" stroke-linecap="round" stroke-linejoin="round"/>
<path d="M98.4933 95.8274C98.377 95.362 98.1085 94.9489 97.7304 94.6538C97.3524 94.3586 96.8865 94.1982 96.4068 94.1982C95.9272 94.1982 95.4613 94.3586 95.0832 94.6538C94.7052 94.9489 94.4366 95.362 94.3203 95.8274H98.4933Z" stroke="#263238" stroke-width="1.20355" stroke-linecap="round" stroke-linejoin="round"/>
<path d="M119.57 95.8277C119.442 95.2967 119.154 94.8178 118.745 94.4552C118.337 94.0925 117.827 93.8635 117.285 93.7989C117.355 93.4221 117.389 93.0395 117.387 92.6562C117.389 91.0956 116.805 89.591 115.752 88.4393C114.699 87.2876 113.253 86.5723 111.698 86.4345C110.144 86.2967 108.594 86.7464 107.355 87.6949C106.115 88.6434 105.276 90.0218 105.003 91.5584C104.337 91.0403 103.524 90.7466 102.68 90.7195C101.837 90.6923 101.006 90.9332 100.308 91.4074C99.6099 91.8816 99.08 92.5648 98.7943 93.359C98.5086 94.1531 98.4819 95.0174 98.718 95.8277H119.57Z" stroke="#263238" stroke-width="1.20355" stroke-linecap="round" stroke-linejoin="round"/>
<path d="M220.418 270.971H219.776C209.613 261.617 181.487 254.921 148.379 254.921C106.713 254.921 72.9375 265.572 72.9375 278.675C72.9375 291.778 106.713 302.429 148.379 302.429C176.1 302.429 200.33 297.717 213.446 290.693C215.699 290.802 218.023 290.86 220.398 290.86C241.546 290.86 258.694 286.366 258.694 280.896C258.694 275.426 241.565 270.971 220.418 270.971Z" fill="#EBEBEB"/>
<path opacity="0.5" d="M220.418 270.971H219.776C209.613 261.617 181.487 254.921 148.379 254.921C106.713 254.921 72.9375 265.572 72.9375 278.675C72.9375 291.778 106.713 302.429 148.379 302.429C176.1 302.429 200.33 297.717 213.446 290.693C215.699 290.802 218.023 290.86 220.398 290.86C241.546 290.86 258.694 286.366 258.694 280.896C258.694 275.426 241.565 270.971 220.418 270.971Z" fill="white"/>
<path d="M197.095 175.069C197.095 175.069 199.245 193.989 209.132 198.721C219.019 203.452 224.617 196.153 224.617 189.476C224.617 182.799 235.794 176.578 243.967 176.578C252.14 176.578 254.502 187.543 251.029 196.57C247.556 205.596 243.319 216.35 227.211 221.512C211.103 226.673 201.627 219.791 201.627 219.791C201.627 219.791 203.996 224.523 201.627 225.165C199.258 225.807 192.601 218.501 192.601 218.501C192.601 218.501 195.612 224.953 192.171 222.802C188.729 220.651 185.076 207.965 185.076 207.965C185.076 207.965 185.288 212.459 182.508 212.909C179.729 213.358 178.207 203.664 178.207 203.664L196.055 170.774L197.095 175.069Z" fill="white"/>
<path d="M235.531 207.381C234.168 207.381 232.862 207.922 231.899 208.885C230.936 209.848 230.395 211.155 230.395 212.517C230.395 213.879 230.936 215.185 231.899 216.149C232.862 217.112 234.168 217.653 235.531 217.653H235.774C237.413 216.657 238.956 215.511 240.384 214.231C240.578 213.678 240.677 213.096 240.679 212.51C240.679 211.835 240.545 211.167 240.285 210.544C240.026 209.921 239.646 209.355 239.168 208.878C238.69 208.402 238.123 208.024 237.498 207.768C236.874 207.511 236.206 207.379 235.531 207.381Z" fill="#EBEBEB"/>
<path d="M224.232 192.583C222.794 198.123 217.504 202.714 209.151 198.721C208.788 198.545 208.435 198.35 208.092 198.136C207.616 199.935 207.637 201.83 208.154 203.618C208.671 205.406 209.664 207.02 211.027 208.287C212.39 209.555 214.071 210.428 215.892 210.814C217.713 211.2 219.604 211.084 221.364 210.478C223.124 209.873 224.686 208.801 225.884 207.376C227.082 205.952 227.87 204.228 228.165 202.391C228.459 200.553 228.249 198.67 227.556 196.942C226.863 195.215 225.715 193.708 224.232 192.583Z" fill="#EBEBEB"/>
<path d="M204.852 221.178C204.867 220.232 204.696 219.293 204.348 218.413C204 217.533 203.482 216.73 202.824 216.051C202.166 215.371 201.38 214.828 200.512 214.452C199.644 214.076 198.71 213.875 197.764 213.859C196.818 213.844 195.878 214.015 194.999 214.363C194.119 214.711 193.316 215.229 192.637 215.887C191.957 216.546 191.414 217.331 191.038 218.199C190.662 219.067 190.46 220.001 190.445 220.947C190.894 221.673 191.481 222.303 192.172 222.802C195.613 224.953 192.602 218.501 192.602 218.501C192.602 218.501 199.266 225.813 201.629 225.165C203.992 224.517 201.629 219.791 201.629 219.791C202.636 220.458 203.712 221.013 204.839 221.448C204.839 221.358 204.852 221.268 204.852 221.178Z" fill="#EBEBEB"/>
<path opacity="0.2" d="M249.995 186.388C246.06 191.395 239.621 212.492 223.173 217.146C206.725 221.801 191.715 211.066 191.715 211.066C191.715 211.066 194.219 208.563 199.226 199.979C200.619 197.588 201.809 195.084 202.783 192.493C198.289 185.207 197.127 175.069 197.127 175.069L196.055 170.774L178.207 203.664C178.207 203.664 179.716 213.339 182.508 212.909C185.301 212.479 185.076 207.965 185.076 207.965C185.076 207.965 188.729 220.651 192.171 222.802C195.612 224.953 192.601 218.501 192.601 218.501C192.601 218.501 199.265 225.813 201.627 225.165C203.99 224.516 201.627 219.791 201.627 219.791C201.627 219.791 211.09 226.673 227.211 221.512C243.332 216.35 247.639 205.603 251.08 196.57C252.395 193.155 252.862 189.471 252.441 185.836C251.369 185.585 250.515 185.72 249.995 186.388Z" fill="black"/>
<path d="M197.095 175.069C197.095 175.069 199.245 193.989 209.132 198.721C219.019 203.452 224.617 196.153 224.617 189.476C224.617 182.799 235.794 176.578 243.967 176.578C252.14 176.578 254.502 187.543 251.029 196.57C247.556 205.596 243.319 216.35 227.211 221.512C211.103 226.673 201.627 219.791 201.627 219.791C201.627 219.791 203.996 224.523 201.627 225.165C199.258 225.807 192.601 218.501 192.601 218.501C192.601 218.501 195.612 224.953 192.171 222.802C188.729 220.651 185.076 207.965 185.076 207.965C185.076 207.965 185.288 212.459 182.508 212.909C179.729 213.358 178.207 203.664 178.207 203.664L196.055 170.774L197.095 175.069Z" stroke="#263238" stroke-width="1.20355" stroke-linecap="round" stroke-linejoin="round"/>
<path d="M246.029 203.234C245.348 203.234 244.695 202.963 244.213 202.482C243.731 202 243.461 201.347 243.461 200.666V160.22H248.597V200.666C248.597 201.347 248.326 202 247.845 202.482C247.363 202.963 246.71 203.234 246.029 203.234Z" fill="white" stroke="#263238" stroke-width="1.20355" stroke-linecap="round" stroke-linejoin="round"/>
<path d="M282 89H211V163H282V89Z" fill="#263238" stroke="#263238" stroke-width="1.20355" stroke-linecap="round" stroke-linejoin="round"/>
<path d="M234.115 108.931V108.731H233.915H230.263V103.282H234.628H234.828V103.082V102.69V102.49H234.628H229.652H229.452V102.69V115.729V115.929H229.652H234.628H234.828V115.729V115.338V115.138H234.628H230.263V109.503H233.915H234.115V109.303V108.931Z" fill="#EA1F4D" stroke="#EA1F4D" stroke-width="0.4"/>
<path d="M240.047 109.52C240.454 109.352 240.782 109.109 241.028 108.78C241.402 108.281 241.567 107.613 241.567 106.786V105.618C241.567 104.699 241.373 103.912 240.9 103.353C240.422 102.788 239.687 102.49 238.684 102.49H236.09H235.89V102.69V115.729V115.929H236.09H236.501H236.701V115.729V109.914H238.106C238.942 109.914 239.601 110.038 240.049 110.364C240.482 110.679 240.756 111.213 240.756 112.134V114.175C240.716 114.744 240.832 115.313 241.093 115.821L241.149 115.929H241.271H241.72H242.066L241.894 115.63C241.644 115.195 241.53 114.696 241.567 114.197L241.567 114.19V114.182V112.134C241.567 111.392 241.408 110.749 241.037 110.258C240.792 109.933 240.462 109.685 240.047 109.52ZM240.756 106.844C240.756 107.82 240.504 108.365 240.087 108.68C239.656 109.005 239.002 109.122 238.106 109.122H236.701V103.282H238.664C239.448 103.282 239.956 103.515 240.275 103.901C240.599 104.295 240.756 104.882 240.756 105.65V106.844Z" fill="#EA1F4D" stroke="#EA1F4D" stroke-width="0.4"/>
<path d="M247.124 109.52C247.53 109.352 247.857 109.109 248.104 108.78C248.478 108.281 248.643 107.613 248.643 106.786V105.618C248.643 104.699 248.449 103.912 247.976 103.353C247.497 102.788 246.762 102.49 245.759 102.49H243.172H242.972V102.69V115.729V115.929H243.172H243.583H243.783V115.729V109.914H245.188C246.024 109.914 246.683 110.038 247.131 110.364C247.564 110.679 247.838 111.213 247.838 112.134V114.175C247.798 114.744 247.914 115.313 248.175 115.821L248.231 115.929H248.353H248.802H249.15L248.975 115.629C248.724 115.195 248.608 114.696 248.642 114.196L248.643 114.196V114.182V112.134C248.643 111.392 248.485 110.749 248.115 110.258C247.87 109.932 247.54 109.685 247.124 109.52ZM247.838 106.844C247.838 107.82 247.586 108.365 247.169 108.68C246.738 109.005 246.084 109.122 245.188 109.122H243.783V103.282H245.746C246.53 103.282 247.038 103.515 247.357 103.901C247.681 104.295 247.838 104.882 247.838 105.65V106.844Z" fill="#EA1F4D" stroke="#EA1F4D" stroke-width="0.4"/>
<path d="M252.995 102.394C252.046 102.394 251.293 102.694 250.782 103.304C250.277 103.908 250.034 104.787 250.034 105.894V112.525C250.034 113.631 250.268 114.51 250.77 115.114C251.277 115.726 252.031 116.025 252.995 116.025C253.959 116.025 254.72 115.726 255.235 115.116C255.745 114.511 255.988 113.632 255.988 112.525V105.894C255.988 104.785 255.736 103.907 255.223 103.303C254.704 102.693 253.944 102.394 252.995 102.394ZM252.995 115.253C252.266 115.253 251.743 115.024 251.395 114.595C251.042 114.159 250.845 113.485 250.845 112.545V105.874C250.845 104.937 251.039 104.265 251.391 103.829C251.736 103.402 252.259 103.173 252.995 103.173C253.731 103.173 254.263 103.401 254.617 103.829C254.976 104.263 255.177 104.935 255.177 105.874V112.545C255.177 113.48 254.973 114.154 254.612 114.591C254.256 115.022 253.724 115.253 252.995 115.253Z" fill="#EA1F4D" stroke="#EA1F4D" stroke-width="0.4"/>
<path d="M261.21 109.52C261.616 109.352 261.943 109.109 262.19 108.78C262.564 108.281 262.729 107.613 262.729 106.786V105.618C262.729 104.699 262.535 103.912 262.062 103.353C261.583 102.788 260.848 102.49 259.845 102.49H257.258H257.058V102.69V115.729V115.929H257.258H257.669H257.869V115.729V109.914H259.274C260.11 109.914 260.769 110.038 261.217 110.364C261.65 110.679 261.924 111.213 261.924 112.134V114.175C261.884 114.744 262 115.313 262.261 115.821L262.317 115.929H262.439H262.888H263.235L263.061 115.629C262.809 115.195 262.693 114.696 262.728 114.196L262.729 114.196V114.182V112.134C262.729 111.392 262.571 110.749 262.201 110.258C261.956 109.932 261.626 109.685 261.21 109.52ZM261.924 106.844C261.924 107.82 261.672 108.365 261.255 108.68C260.824 109.005 260.17 109.122 259.274 109.122H257.869V103.282H259.832C260.616 103.282 261.124 103.515 261.443 103.901C261.767 104.295 261.924 104.882 261.924 105.65V106.844Z" fill="#EA1F4D" stroke="#EA1F4D" stroke-width="0.4"/>
<path d="M244.719 189.078C244.719 189.078 253.816 184.096 257.597 187.357C261.379 190.619 259.825 195.774 256.91 196.987C253.996 198.201 247.64 199.735 244.205 198.534C240.77 197.334 237.849 192.339 244.719 189.078Z" fill="white" stroke="#263238" stroke-width="1.20355" stroke-linecap="round" stroke-linejoin="round"/>
<path d="M240.75 175.929C240.75 175.929 252.146 169.695 256.877 173.785C261.609 177.874 259.67 184.314 256.017 185.822C252.364 187.331 244.409 189.264 240.108 187.748C235.807 186.233 232.16 180.019 240.75 175.929Z" fill="white" stroke="#263238" stroke-width="1.20355" stroke-linecap="round" stroke-linejoin="round"/>
<path d="M219.797 144.972L228.92 123.395H234.396V144.972H236.771V149.53H234.396V155.308H229.472V149.53H219.797V144.972ZM229.472 144.972V132.98L224.406 144.979L229.472 144.972Z" fill="#EA1F4D"/>
<path d="M238.641 131.054C238.641 125.918 241.331 123.022 246.255 123.022C251.179 123.022 253.875 125.944 253.875 131.054V147.656C253.875 152.792 251.185 155.687 246.255 155.687C241.324 155.687 238.641 152.766 238.641 147.656V131.054ZM243.655 147.977C243.655 150.256 244.663 151.123 246.255 151.123C247.847 151.123 248.855 150.256 248.855 147.977V130.739C248.855 128.46 247.853 127.593 246.255 127.593C244.656 127.593 243.655 128.46 243.655 130.739V147.977Z" fill="#EA1F4D"/>
<path d="M225.278 193.328C225.278 193.328 222.915 181.29 226.998 174.19C231.081 167.089 241.186 171.622 244.416 179.14C247.645 186.658 245.7 194.612 239.466 194.612C233.232 194.612 232.16 184.719 232.16 184.719" fill="white"/>
<path d="M225.278 193.328C225.278 193.328 222.915 181.29 226.998 174.19C231.081 167.089 241.186 171.622 244.416 179.14C247.645 186.658 245.7 194.612 239.466 194.612C233.232 194.612 232.16 184.719 232.16 184.719" stroke="#263238" stroke-width="1.20355" stroke-linecap="round" stroke-linejoin="round"/>
<path d="M242.592 191.826C242.592 191.826 243.234 195.928 241.501 198.843C241.353 199.097 241.118 199.289 240.84 199.384C240.562 199.48 240.259 199.472 239.986 199.363C239.784 199.284 239.607 199.152 239.474 198.982C239.341 198.811 239.256 198.608 239.228 198.393C239.068 197.109 238.625 194.477 237.591 192.75C237.33 192.315 237.191 191.817 237.191 191.309C237.191 190.801 237.33 190.303 237.591 189.868C237.767 189.575 238.005 189.325 238.29 189.137C238.574 188.948 238.897 188.825 239.235 188.776C241.559 188.385 242.393 189.322 242.592 191.826Z" fill="white" stroke="#263238" stroke-width="1.20355" stroke-linecap="round" stroke-linejoin="round"/>
<path d="M130.577 210.925V256.346C130.577 256.346 117.274 265.886 111.253 268.39C105.231 270.894 95.6905 264.878 89.9189 269.674C84.1473 274.47 86.1568 281.924 93.1802 282.694C93.1802 282.694 93.1802 286.713 96.6984 288.472C97.7926 288.982 98.9779 289.267 100.184 289.311C101.39 289.355 102.593 289.157 103.722 288.729C103.722 288.729 104.223 294.751 111.503 294.25C118.783 293.749 120.536 287.971 124.548 282.2C128.561 276.428 131.078 271.157 137.099 270.406C143.121 269.655 146.884 268.397 146.884 261.123C146.884 256.629 142.39 256.353 141.87 251.839C141.349 247.326 141.87 212.677 141.87 212.677L130.577 210.925Z" fill="white"/>
<path d="M135.657 261.746C137.476 261.746 138.95 260.272 138.95 258.453C138.95 256.634 137.476 255.159 135.657 255.159C133.838 255.159 132.363 256.634 132.363 258.453C132.363 260.272 133.838 261.746 135.657 261.746Z" fill="#EBEBEB"/>
<path d="M135.245 221.576C135.245 221.224 135.176 220.876 135.042 220.551C134.907 220.226 134.71 219.931 134.461 219.683C134.213 219.434 133.918 219.237 133.593 219.102C133.268 218.968 132.92 218.898 132.568 218.898C132.191 218.899 131.819 218.98 131.475 219.136C131.132 219.292 130.826 219.52 130.578 219.804V223.348C130.826 223.632 131.132 223.859 131.475 224.015C131.819 224.171 132.191 224.252 132.568 224.253C133.278 224.253 133.959 223.971 134.461 223.469C134.963 222.967 135.245 222.286 135.245 221.576Z" fill="#EBEBEB"/>
<path d="M139.772 234.152C138.707 234.194 137.701 234.647 136.963 235.414C136.225 236.182 135.812 237.206 135.812 238.271C135.812 239.336 136.225 240.359 136.963 241.127C137.701 241.895 138.707 242.347 139.772 242.389C140.426 242.386 141.069 242.223 141.646 241.914C141.646 239.648 141.646 237.157 141.646 234.627C141.069 234.321 140.425 234.158 139.772 234.152Z" fill="#EBEBEB"/>
<path opacity="0.2" d="M146.886 261.117C146.886 256.622 142.392 256.346 141.872 251.833C141.352 247.32 141.872 212.671 141.872 212.671L130.579 210.912V225.492C132.954 226.988 136.042 228.387 139.13 228.214V254.318C139.13 254.318 141.281 260.038 139.849 264.686C138.418 269.334 127.33 269.334 123.754 273.629C120.178 277.924 117.675 286.861 114.124 290.796C112.943 292.082 111.626 293.236 110.195 294.237C110.64 294.263 111.086 294.263 111.531 294.237C118.805 293.73 120.564 287.959 124.576 282.187C128.589 276.415 131.105 271.145 137.127 270.393C143.149 269.642 146.886 268.39 146.886 261.117Z" fill="black"/>
<path d="M130.577 210.925V256.346C130.577 256.346 117.274 265.886 111.253 268.39C105.231 270.894 95.6905 264.878 89.9189 269.674C84.1473 274.47 86.1568 281.924 93.1802 282.694C93.1802 282.694 93.1802 286.713 96.6984 288.472C97.7926 288.982 98.9779 289.267 100.184 289.311C101.39 289.355 102.593 289.157 103.722 288.729C103.722 288.729 104.223 294.751 111.503 294.25C118.783 293.749 120.536 287.971 124.548 282.2C128.561 276.428 131.078 271.157 137.099 270.406C143.121 269.655 146.884 268.397 146.884 261.123C146.884 256.629 142.39 256.353 141.87 251.839C141.349 247.326 141.87 212.677 141.87 212.677L130.577 210.925Z" stroke="#263238" stroke-width="1.20355" stroke-linecap="round" stroke-linejoin="round"/>
<path d="M103.723 288.722C103.723 288.722 103.473 279.933 114.278 276.146" stroke="#263238" stroke-width="1.20355" stroke-linecap="round" stroke-linejoin="round"/>
<path d="M93.1797 282.694C93.1797 282.694 93.1797 275.671 104.98 272.91" stroke="#263238" stroke-width="1.20355" stroke-linecap="round" stroke-linejoin="round"/>
<path d="M104.852 287.291C104.852 287.291 101.366 289.544 100.358 292.761C100.269 293.044 100.284 293.35 100.402 293.622C100.52 293.894 100.732 294.115 101 294.244C101.193 294.341 101.409 294.385 101.625 294.371C101.841 294.356 102.048 294.283 102.226 294.16C103.273 293.454 105.558 292.016 107.536 291.65C108.038 291.555 108.505 291.326 108.887 290.987C109.269 290.648 109.552 290.211 109.706 289.724C109.803 289.402 109.829 289.063 109.781 288.73C109.733 288.398 109.613 288.079 109.43 287.798C108.12 285.776 106.862 285.776 104.852 287.291Z" fill="white" stroke="#263238" stroke-width="1.20355" stroke-linecap="round" stroke-linejoin="round"/>
<path d="M94.4716 283.002C94.4716 283.002 90.9855 285.262 89.9455 288.472C89.8546 288.755 89.8695 289.061 89.9876 289.334C90.1057 289.607 90.3189 289.827 90.5875 289.955C90.7804 290.052 90.9956 290.095 91.211 290.082C91.4264 290.068 91.6344 289.998 91.8137 289.878C92.8602 289.165 95.1457 287.733 97.123 287.361C97.6254 287.267 98.0927 287.038 98.4749 286.699C98.8571 286.359 99.1399 285.923 99.293 285.435C99.3902 285.113 99.4159 284.774 99.3682 284.441C99.3205 284.109 99.2006 283.791 99.0169 283.509C97.7329 281.5 96.481 281.5 94.4716 283.002Z" fill="white" stroke="#263238" stroke-width="1.20355" stroke-linecap="round" stroke-linejoin="round"/>
<path d="M86.1876 275.863C86.1876 275.863 82.7015 278.116 81.655 281.333C81.5655 281.616 81.5812 281.922 81.6991 282.194C81.817 282.466 82.0294 282.687 82.297 282.816C82.4905 282.911 82.706 282.954 82.9214 282.94C83.1369 282.925 83.3445 282.853 83.5233 282.732C84.5697 282.02 86.8616 280.588 88.8326 280.216C89.3355 280.123 89.8034 279.894 90.1859 279.555C90.5683 279.215 90.8507 278.778 91.0026 278.29C91.1011 277.968 91.1274 277.629 91.0797 277.296C91.032 276.963 90.9114 276.644 90.7265 276.364C89.4489 274.354 88.1906 274.354 86.1876 275.863Z" fill="white" stroke="#263238" stroke-width="1.20355" stroke-linecap="round" stroke-linejoin="round"/>
<path d="M170.13 210.925V256.346C170.13 256.346 183.432 265.886 189.454 268.39C195.476 270.894 205.009 264.878 210.781 269.674C216.553 274.47 214.55 281.969 207.52 282.72C207.52 282.72 207.52 286.739 204.008 288.498C202.913 289.007 201.726 289.292 200.519 289.336C199.312 289.38 198.108 289.183 196.978 288.754C196.978 288.754 196.477 294.776 189.203 294.276C181.93 293.775 180.164 287.997 176.152 282.225C172.139 276.454 169.629 271.183 163.607 270.432C157.585 269.681 153.816 268.422 153.816 261.148C153.816 256.654 158.31 256.378 158.837 251.865C159.363 247.352 158.837 212.703 158.837 212.703L170.13 210.925Z" fill="white"/>
<path d="M164.899 255.98C166.718 255.98 168.192 254.506 168.192 252.687C168.192 250.868 166.718 249.394 164.899 249.394C163.08 249.394 161.605 250.868 161.605 252.687C161.605 254.506 163.08 255.98 164.899 255.98Z" fill="#EBEBEB"/>
<path d="M159.045 230.351C159.545 230.664 160.121 230.836 160.71 230.85C161.3 230.864 161.883 230.719 162.398 230.431C162.912 230.142 163.34 229.721 163.636 229.211C163.933 228.701 164.087 228.12 164.082 227.531C164.077 226.941 163.914 226.363 163.609 225.857C163.305 225.352 162.87 224.938 162.351 224.658C161.832 224.378 161.247 224.243 160.657 224.266C160.068 224.29 159.495 224.471 159 224.792C159.013 226.57 159.032 228.445 159.045 230.351Z" fill="#EBEBEB"/>
<path d="M170.133 234.749C169.095 235.04 168.182 235.661 167.531 236.52C166.88 237.378 166.527 238.426 166.527 239.503C166.527 240.58 166.88 241.628 167.531 242.486C168.182 243.345 169.095 243.966 170.133 244.257V234.749Z" fill="#EBEBEB"/>
<path opacity="0.2" d="M158.859 212.684C158.859 212.684 158.956 219.264 159.02 227.058C162.282 227.415 165.578 227.329 168.817 226.801C168.817 226.801 167.026 253.618 167.385 257.194C167.745 260.77 183.833 270.072 188.488 271.144C193.142 272.217 201.283 271.645 205.648 274.001C208.319 275.446 209.597 279.253 210.181 282.007C214.977 279.888 215.773 273.751 210.823 269.649C205.045 264.878 195.518 270.9 189.496 268.365C183.474 265.829 170.133 256.346 170.133 256.346V210.925L158.859 212.684Z" fill="black"/>
<path d="M170.13 210.925V256.346C170.13 256.346 183.432 265.886 189.454 268.39C195.476 270.894 205.009 264.878 210.781 269.674C216.553 274.47 214.55 281.969 207.52 282.72C207.52 282.72 207.52 286.739 204.008 288.498C202.913 289.007 201.726 289.292 200.519 289.336C199.312 289.38 198.108 289.183 196.978 288.754C196.978 288.754 196.477 294.776 189.203 294.276C181.93 293.775 180.164 287.997 176.152 282.225C172.139 276.454 169.629 271.183 163.607 270.432C157.585 269.681 153.816 268.422 153.816 261.148C153.816 256.654 158.31 256.378 158.837 251.865C159.363 247.352 158.837 212.703 158.837 212.703L170.13 210.925Z" stroke="#263238" stroke-width="1.20355" stroke-linecap="round" stroke-linejoin="round"/>
<path d="M197 288.722C197 288.722 197.25 279.933 186.465 276.171" stroke="#263238" stroke-width="1.20355" stroke-linecap="round" stroke-linejoin="round"/>
<path d="M207.54 282.694C207.54 282.694 207.54 275.671 195.746 272.91" stroke="#263238" stroke-width="1.20355" stroke-linecap="round" stroke-linejoin="round"/>
<path d="M195.87 287.291C195.87 287.291 199.356 289.544 200.396 292.761C200.487 293.04 200.475 293.342 200.364 293.614C200.252 293.886 200.047 294.109 199.787 294.244C199.594 294.341 199.378 294.385 199.162 294.371C198.946 294.356 198.738 294.283 198.56 294.16C197.514 293.454 195.222 292.016 193.251 291.65C192.748 291.557 192.28 291.329 191.898 290.989C191.515 290.65 191.233 290.212 191.081 289.724C190.983 289.403 190.956 289.064 191.003 288.731C191.049 288.398 191.168 288.08 191.351 287.798C192.603 285.776 193.887 285.776 195.87 287.291Z" fill="white" stroke="#263238" stroke-width="1.20355" stroke-linecap="round" stroke-linejoin="round"/>
<path d="M206.249 283.002C206.249 283.002 209.735 285.262 210.775 288.472C210.868 288.751 210.858 289.054 210.746 289.327C210.634 289.599 210.428 289.822 210.165 289.955C209.972 290.052 209.757 290.096 209.542 290.083C209.326 290.069 209.118 289.998 208.939 289.878C207.893 289.165 205.601 287.733 203.63 287.361C203.126 287.269 202.658 287.041 202.276 286.701C201.893 286.362 201.611 285.924 201.46 285.435C201.361 285.113 201.335 284.774 201.382 284.441C201.43 284.108 201.551 283.79 201.736 283.509C202.988 281.5 204.24 281.5 206.249 283.002Z" fill="white" stroke="#263238" stroke-width="1.20355" stroke-linecap="round" stroke-linejoin="round"/>
<path d="M214.538 275.863C214.538 275.863 218.024 278.116 219.064 281.333C219.152 281.616 219.136 281.921 219.018 282.193C218.9 282.465 218.689 282.686 218.422 282.816C218.227 282.912 218.011 282.955 217.794 282.94C217.578 282.926 217.369 282.854 217.189 282.732C216.143 282.02 213.857 280.588 211.88 280.216C211.377 280.124 210.91 279.895 210.528 279.556C210.146 279.216 209.866 278.778 209.716 278.29C209.616 277.968 209.589 277.629 209.635 277.296C209.682 276.963 209.802 276.645 209.986 276.364C211.276 274.354 212.503 274.354 214.538 275.863Z" fill="white" stroke="#263238" stroke-width="1.20355" stroke-linecap="round" stroke-linejoin="round"/>
<path d="M86.4914 235.166C86.4914 235.166 86.3566 229.626 87.8461 227.873C89.3355 226.121 91.0561 234.223 90.9469 235.301C90.8378 236.38 88.9246 238.267 86.4914 235.166Z" fill="white" stroke="#263238" stroke-width="1.20355" stroke-linecap="round" stroke-linejoin="round"/>
<path d="M96.218 233.272C96.218 233.272 96.0832 227.738 97.5662 225.986C99.0493 224.233 100.808 232.329 100.674 233.407C100.539 234.486 98.6448 236.38 96.218 233.272Z" fill="white" stroke="#263238" stroke-width="1.20355" stroke-linecap="round" stroke-linejoin="round"/>
<path d="M85.6748 240.745C85.6748 240.745 83.9158 232.708 88.1915 232.2C92.4672 231.693 95.9854 246.78 95.9854 246.78C95.9854 246.78 92.968 230.692 98.2452 230.191C103.522 229.69 104.023 244.771 104.023 246.029C104.023 247.287 99.5292 252.815 92.7112 254.324C85.8931 255.832 85.6748 240.745 85.6748 240.745Z" fill="white" stroke="#263238" stroke-width="1.20355" stroke-linecap="round" stroke-linejoin="round"/>
<path d="M80.1477 238.949C80.1477 238.949 80.0129 233.408 81.4959 231.655C82.9789 229.903 84.738 238.005 84.6032 239.083C84.4684 240.162 82.5745 242.056 80.1477 238.949Z" fill="white" stroke="#263238" stroke-width="1.20355" stroke-linecap="round" stroke-linejoin="round"/>
<path d="M106.04 166.101C106.04 166.101 99.7549 171.378 96.2368 182.433C92.7186 193.488 91.4603 198.522 94.9528 197.77C98.4452 197.019 99.7293 192.744 99.7293 192.744C99.7293 192.744 95.4535 205.308 97.7198 206.315C99.9861 207.323 102.997 205.031 102.997 205.031C102.997 205.031 102.015 216.119 104.005 219.387C105.995 222.654 106.766 222.654 106.766 222.654V242.762C106.766 242.762 100.737 241.253 95.7103 243.763C90.6835 246.274 90.1763 250.049 90.1763 250.049C90.1763 250.049 87.9165 237.985 82.8896 236.226C77.8627 234.467 77.8627 245.522 80.6233 251.808C83.3839 258.093 91.9354 260.86 92.6929 260.86C93.4505 260.86 91.1842 262.869 91.1842 262.869L97.9702 261.11C97.9702 261.11 94.7024 264.879 96.9622 264.879C99.2221 264.879 106.573 261.11 106.573 261.11C106.573 261.11 104.063 264.128 107.074 264.128C110.085 264.128 114.367 259.634 114.367 259.634C114.367 259.634 114.367 261.893 117.127 259.133C119.888 256.372 125.929 256.867 127.181 240.515C128.433 224.163 127.181 203.568 127.181 203.568C127.181 203.568 121.121 155.289 106.04 166.101Z" fill="white"/>
<path d="M123.063 206.679C124.716 202.717 122.844 198.164 118.882 196.51C114.919 194.857 110.366 196.729 108.713 200.691C107.059 204.654 108.931 209.207 112.894 210.86C116.856 212.514 121.409 210.642 123.063 206.679Z" fill="#EBEBEB"/>
<path d="M103.481 254.741C101.567 254.748 99.723 255.46 98.3015 256.742C96.88 258.024 95.9812 259.785 95.7773 261.688L98.0243 261.11C98.0243 261.11 94.7566 264.878 97.0164 264.878C99.2762 264.878 106.576 261.11 106.576 261.11C106.576 261.11 104.066 264.127 107.077 264.127C108.393 264.127 109.94 263.267 111.275 262.298C111.22 260.27 110.374 258.344 108.917 256.932C107.461 255.52 105.51 254.734 103.481 254.741Z" fill="#EBEBEB"/>
<path d="M126.418 238.965C128.464 233.983 126.083 228.285 121.1 226.24C116.118 224.195 110.421 226.575 108.375 231.558C106.33 236.54 108.711 242.237 113.693 244.283C118.676 246.328 124.373 243.947 126.418 238.965Z" fill="#EBEBEB"/>
<path d="M94.981 197.771C98.0305 197.129 99.3787 193.822 99.6869 192.956C98.8021 195.604 98.069 198.3 97.4912 201.032C99.2004 200.355 100.634 199.126 101.564 197.541C102.494 195.955 102.867 194.104 102.623 192.282C102.38 190.46 101.534 188.772 100.22 187.486C98.9058 186.2 97.1996 185.391 95.3726 185.188C92.5414 194.317 91.771 198.464 94.981 197.771Z" fill="#EBEBEB"/>
<path opacity="0.2" d="M106.042 166.101C106.042 166.101 102.755 168.874 99.6217 174.588C99.654 181.703 101.055 188.745 103.75 195.331C110.902 212.138 120.557 216.786 120.557 216.786C120.557 216.786 122.702 236.81 118.766 247.538C115.062 257.65 104.373 262.041 91.1602 260.423C91.6628 260.625 92.1859 260.771 92.7202 260.86C93.4714 260.86 91.2115 262.869 91.2115 262.869L97.9975 261.11C97.9975 261.11 94.7297 264.879 96.9895 264.879C99.2494 264.879 106.575 261.11 106.575 261.11C106.575 261.11 104.064 264.128 107.075 264.128C110.086 264.128 114.368 259.634 114.368 259.634C114.368 259.634 114.368 261.893 117.129 259.133C119.89 256.372 125.931 256.867 127.183 240.515C128.435 224.163 127.183 203.568 127.183 203.568C127.183 203.568 121.122 155.289 106.042 166.101Z" fill="black"/>
<path d="M106.04 166.101C106.04 166.101 99.7549 171.378 96.2368 182.433C92.7186 193.488 91.4603 198.522 94.9528 197.77C98.4452 197.019 99.7293 192.744 99.7293 192.744C99.7293 192.744 95.4535 205.308 97.7198 206.315C99.9861 207.323 102.997 205.031 102.997 205.031C102.997 205.031 102.015 216.119 104.005 219.387C105.995 222.654 106.766 222.654 106.766 222.654V242.762C106.766 242.762 100.737 241.253 95.7103 243.763C90.6835 246.274 90.1763 250.049 90.1763 250.049C90.1763 250.049 87.9165 237.985 82.8896 236.226C77.8627 234.467 77.8627 245.522 80.6233 251.808C83.3839 258.093 91.9354 260.86 92.6929 260.86C93.4505 260.86 91.1842 262.869 91.1842 262.869L97.9702 261.11C97.9702 261.11 94.7024 264.879 96.9622 264.879C99.2221 264.879 106.573 261.11 106.573 261.11C106.573 261.11 104.063 264.128 107.074 264.128C110.085 264.128 114.367 259.634 114.367 259.634C114.367 259.634 114.367 261.893 117.127 259.133C119.888 256.372 125.929 256.867 127.181 240.515C128.433 224.163 127.181 203.568 127.181 203.568C127.181 203.568 121.121 155.289 106.04 166.101Z" stroke="#263238" stroke-width="1.20355" stroke-linecap="round" stroke-linejoin="round"/>
<path d="M110.155 141.184C110.155 141.184 102.965 152.239 89.9708 155.559C76.9768 158.878 65.639 157.774 65.9151 158.602C66.1912 159.43 70.6145 162.197 70.6145 162.197C70.6145 162.197 66.4672 161.914 67.0258 163.301C67.5843 164.688 71.4491 171.044 84.4432 174.356C97.4373 177.669 105.456 160.534 107.94 153.068C110.425 145.601 112.351 140.074 110.155 141.184Z" fill="white"/>
<path d="M71.4609 158.088C71.6218 159.978 72.1827 161.812 73.1064 163.469C74.0301 165.126 75.2954 166.567 76.8185 167.697C78.3417 168.828 80.0877 169.621 81.9409 170.026C83.7941 170.43 85.712 170.435 87.5675 170.042C89.423 169.648 91.1736 168.865 92.7032 167.743C94.2329 166.622 95.5065 165.188 96.4398 163.537C97.373 161.885 97.9445 160.054 98.1163 158.165C98.2881 156.277 98.0563 154.373 97.4363 152.58C95.0824 153.883 92.5738 154.883 89.9698 155.559C83.9033 157.035 77.701 157.883 71.4609 158.088Z" fill="#EBEBEB"/>
<path d="M110.155 141.184C110.155 141.184 102.965 152.239 89.9708 155.559C76.9768 158.878 65.639 157.774 65.9151 158.602C66.1912 159.43 70.6145 162.197 70.6145 162.197C70.6145 162.197 66.4672 161.914 67.0258 163.301C67.5843 164.688 71.4491 171.044 84.4432 174.356C97.4373 177.669 105.456 160.534 107.94 153.068C110.425 145.601 112.351 140.074 110.155 141.184Z" stroke="#263238" stroke-width="1.20355" stroke-linecap="round" stroke-linejoin="round"/>
<path d="M190.931 140.106C190.931 140.106 198.121 151.167 211.115 154.486C224.109 157.806 235.447 156.695 235.171 157.523C234.895 158.351 230.465 161.118 230.465 161.118C230.465 161.118 234.612 160.842 234.06 162.222C233.508 163.603 229.637 169.965 216.643 173.284C203.649 176.603 195.63 159.462 193.146 151.995C190.661 144.529 188.748 139.001 190.931 140.106Z" fill="white"/>
<path d="M219.231 156.092C218.189 158.73 218.178 161.664 219.201 164.31C220.224 166.956 222.206 169.119 224.752 170.37C231.365 167.115 233.65 163.269 234.061 162.229C234.613 160.849 230.466 161.125 230.466 161.125C230.466 161.125 234.896 158.358 235.172 157.53C235.384 156.875 228.476 157.414 219.231 156.092Z" fill="#EBEBEB"/>
<path opacity="0.2" d="M207.078 161.356C207.393 158.711 206.892 155.533 206.231 152.785C200.11 149.969 194.835 145.597 190.932 140.106C188.723 139.001 190.656 144.529 193.147 151.995C195.638 159.462 203.65 176.603 216.644 173.284C207.258 173.425 206.365 167.436 207.078 161.356Z" fill="black"/>
<path d="M190.931 140.106C190.931 140.106 198.121 151.167 211.115 154.486C224.109 157.806 235.447 156.695 235.171 157.523C234.895 158.351 230.465 161.118 230.465 161.118C230.465 161.118 234.612 160.842 234.06 162.222C233.508 163.603 229.637 169.965 216.643 173.284C203.649 176.603 195.63 159.462 193.146 151.995C190.661 144.529 188.748 139.001 190.931 140.106Z" stroke="#263238" stroke-width="1.20355" stroke-linecap="round" stroke-linejoin="round"/>
<path d="M121.761 126.803C121.761 126.803 112.915 128.466 108.215 126.803C103.516 125.141 106.835 121.828 104.896 119.343C102.957 116.859 97.192 121.269 96.6013 129.294C96.0107 137.319 105.172 141.736 114.577 142.564L125.633 126.803H121.761Z" fill="#EBEBEB" stroke="#263238" stroke-width="1.20355" stroke-linecap="round" stroke-linejoin="round"/>
<path d="M111.163 127.414C110.195 127.329 109.238 127.135 108.313 126.836C106.309 128.15 104.722 130.008 103.738 132.193C102.755 134.378 102.415 136.798 102.76 139.169C103.45 139.564 104.161 139.919 104.891 140.234C104.455 138.52 103.216 131.375 111.163 127.414Z" fill="#263238"/>
<path d="M105.537 122.829C101.48 123.747 98.5461 125.397 96.7677 127.824C96.6971 128.299 96.6393 128.787 96.6008 129.294C96.5276 130.344 96.6318 131.399 96.909 132.414C97.0575 131.392 97.4089 130.41 97.9426 129.525C99.3357 127.259 101.949 125.673 105.73 124.768C105.536 124.141 105.47 123.482 105.537 122.829Z" fill="#263238"/>
<path d="M181.258 126.803C181.258 126.803 190.111 128.466 194.811 126.803C199.51 125.141 196.191 121.828 198.123 119.343C200.056 116.859 205.866 121.269 206.418 129.294C206.97 137.319 197.847 141.736 188.442 142.564L177.387 126.803H181.258Z" fill="#EBEBEB" stroke="#263238" stroke-width="1.20355" stroke-linecap="round" stroke-linejoin="round"/>
<path d="M191.863 127.414C192.832 127.329 193.788 127.135 194.714 126.836C196.718 128.15 198.305 130.008 199.288 132.193C200.272 134.378 200.612 136.798 200.267 139.169C199.577 139.564 198.865 139.919 198.136 140.234C198.566 138.52 199.811 131.375 191.863 127.414Z" fill="#263238"/>
<path d="M197.486 122.829C201.537 123.747 204.477 125.397 206.255 127.824C206.326 128.299 206.384 128.787 206.416 129.294C206.491 130.344 206.389 131.398 206.114 132.414C205.966 131.392 205.614 130.41 205.08 129.525C203.687 127.259 201.068 125.673 197.293 124.768C197.487 124.141 197.553 123.482 197.486 122.829Z" fill="#263238"/>
<path d="M151.287 219.739C177.312 219.739 198.41 195.96 198.41 166.626C198.41 137.293 177.312 113.514 151.287 113.514C125.262 113.514 104.164 137.293 104.164 166.626C104.164 195.96 125.262 219.739 151.287 219.739Z" fill="white"/>
<path d="M128.651 126.649C129.822 126.651 130.976 126.359 132.006 125.799C133.035 125.239 133.907 124.43 134.542 123.445C135.177 122.46 135.554 121.331 135.638 120.162C135.723 118.993 135.512 117.822 135.026 116.756C130.727 118.549 126.728 120.989 123.168 123.991C123.822 124.819 124.655 125.488 125.605 125.948C126.554 126.408 127.596 126.648 128.651 126.649Z" fill="#EBEBEB"/>
<path d="M128.238 202.437C128.238 196.749 124.181 192.165 119.18 192.165C117.764 192.191 116.376 192.563 115.136 193.248C113.896 193.933 112.843 194.91 112.066 196.094C115.342 201.679 119.651 206.588 124.765 210.558C125.882 209.525 126.769 208.267 127.367 206.868C127.966 205.469 128.263 203.959 128.238 202.437Z" fill="#EBEBEB"/>
<path d="M154.598 217.261C158.009 217.261 160.774 214.864 160.774 211.907C160.774 208.95 158.009 206.553 154.598 206.553C151.187 206.553 148.422 208.95 148.422 211.907C148.422 214.864 151.187 217.261 154.598 217.261Z" fill="#EBEBEB"/>
<path d="M123.296 161.658C123.296 152.188 116.812 144.452 108.658 143.971C105.67 151.149 104.142 158.851 104.164 166.627C104.165 170.841 104.61 175.044 105.493 179.165C106.271 179.302 107.06 179.37 107.849 179.371C116.382 179.371 123.296 171.442 123.296 161.658Z" fill="#EBEBEB"/>
<path d="M194.492 182.173C195.804 179.024 194.315 175.408 191.167 174.097C188.018 172.785 184.402 174.274 183.09 177.422C181.778 180.571 183.267 184.187 186.416 185.498C189.564 186.81 193.18 185.321 194.492 182.173Z" fill="#EBEBEB"/>
<path d="M191.668 190.901C191.67 191.599 191.871 192.283 192.246 192.872C193.17 191.047 193.995 189.174 194.717 187.261C193.863 187.414 193.09 187.863 192.533 188.528C191.975 189.193 191.669 190.033 191.668 190.901Z" fill="#EBEBEB"/>
<path d="M189.455 197.751C187.225 196.745 184.744 196.435 182.335 196.863C179.927 197.291 177.704 198.435 175.957 200.148C174.21 201.86 173.02 204.06 172.545 206.459C172.069 208.859 172.328 211.346 173.29 213.595C179.829 209.633 185.362 204.21 189.455 197.751Z" fill="#EBEBEB"/>
<path d="M186.545 131.406C184.583 133.598 183.289 136.306 182.817 139.21C182.345 142.114 182.714 145.093 183.881 147.794C185.047 150.494 186.963 152.805 189.401 154.451C191.839 156.098 194.698 157.012 197.639 157.086C196.179 147.724 192.361 138.887 186.545 131.406Z" fill="#EBEBEB"/>
<path opacity="0.2" d="M177.192 122.277C180.402 126.958 185.3 135.875 188.818 150.628C194.545 174.588 189.891 184.596 189.891 184.596L187.034 177.444C187.034 177.444 188.106 186.387 184.896 191.755C181.686 197.122 179.336 201.275 178.18 203.664C177.025 206.052 177.025 200.332 177.025 200.332C177.025 200.332 174.367 208.004 172.3 208.819C170.232 209.634 164.153 212.851 164.153 212.851L164.506 208.562C164.506 208.562 155.569 212.138 150.562 212.138C145.554 212.138 133.035 210.706 126.243 206.411C122.391 203.978 116.792 200.036 112.684 197.09C121.203 210.783 135.308 219.739 151.274 219.739C177.294 219.739 198.397 195.985 198.397 166.627C198.41 148.092 189.98 131.779 177.192 122.277Z" fill="black"/>
<path d="M151.287 219.739C177.312 219.739 198.41 195.96 198.41 166.626C198.41 137.293 177.312 113.514 151.287 113.514C125.262 113.514 104.164 137.293 104.164 166.626C104.164 195.96 125.262 219.739 151.287 219.739Z" stroke="#263238" stroke-width="1.20355" stroke-linecap="round" stroke-linejoin="round"/>
<path d="M148.265 115.825C148.265 115.825 148.015 115.074 143.739 113.565C139.463 112.057 134.693 114.066 137.204 112.057C139.714 110.047 148.265 109.797 149.774 111.306C151.283 112.814 144.997 109.039 144.997 106.529C144.997 104.019 152.291 105.245 154.55 107.28C155.749 108.273 156.769 109.463 157.568 110.798C157.568 110.798 157.317 101.502 161.837 99.2425C166.357 96.9826 169.881 101.509 167.872 104.019C165.862 106.529 161.587 110.805 161.587 110.805C161.587 110.805 171.891 107.036 171.39 111.312C170.889 115.588 160.579 115.806 160.579 115.806" fill="white"/>
<path d="M148.265 115.825C148.265 115.825 148.015 115.074 143.739 113.565C139.463 112.057 134.693 114.066 137.204 112.057C139.714 110.047 148.265 109.797 149.774 111.306C151.283 112.814 144.997 109.039 144.997 106.529C144.997 104.019 152.291 105.245 154.55 107.28C155.749 108.273 156.769 109.463 157.568 110.798C157.568 110.798 157.317 101.502 161.837 99.2425C166.357 96.9826 169.881 101.509 167.872 104.019C165.862 106.529 161.587 110.805 161.587 110.805C161.587 110.805 171.891 107.036 171.39 111.312C170.889 115.588 160.579 115.806 160.579 115.806" stroke="#263238" stroke-width="1.20355" stroke-linecap="round" stroke-linejoin="round"/>
<path d="M152.412 166.164C159.698 166.164 165.605 160.033 165.605 152.47C165.605 144.907 159.698 138.776 152.412 138.776C145.125 138.776 139.219 144.907 139.219 152.47C139.219 160.033 145.125 166.164 152.412 166.164Z" fill="#263238" stroke="#263238" stroke-width="1.20355" stroke-linecap="round" stroke-linejoin="round"/>
<path d="M152.412 164.334C159.698 164.334 165.605 158.428 165.605 151.141C165.605 143.855 159.698 137.948 152.412 137.948C145.125 137.948 139.219 143.855 139.219 151.141C139.219 158.428 145.125 164.334 152.412 164.334Z" fill="#EBEBEB" stroke="#263238" stroke-width="1.20355" stroke-linecap="round" stroke-linejoin="round"/>
<path d="M155.07 157.521C158.595 156.052 160.261 152.004 158.792 148.479C157.322 144.954 153.274 143.288 149.749 144.757C146.224 146.227 144.558 150.275 146.028 153.8C147.497 157.325 151.545 158.991 155.07 157.521Z" fill="#263238" stroke="#263238" stroke-width="1.20355" stroke-linecap="round" stroke-linejoin="round"/>
<path d="M136.493 128.151C136.493 128.151 129.141 129.176 128.124 131.563C127.107 133.95 132.658 134.37 132.658 134.37C132.658 134.37 126.065 138.781 129.109 140.384C132.153 141.987 137.983 138.367 137.983 138.367C137.983 138.367 145.079 144 152.178 144C159.277 144 166.133 134.976 166.133 134.976C166.133 134.976 172.215 140.39 174.501 139.386C176.788 138.382 170.472 131.969 170.472 131.969C170.472 131.969 176.302 132.993 171.489 129.362C170.191 128.327 168.559 127.593 166.772 127.239C164.984 126.885 163.107 126.925 161.346 127.353" fill="white"/>
<path d="M136.493 128.151C136.493 128.151 129.141 129.176 128.124 131.563C127.107 133.95 132.658 134.37 132.658 134.37C132.658 134.37 126.065 138.781 129.109 140.384C132.153 141.987 137.983 138.367 137.983 138.367C137.983 138.367 145.079 144 152.178 144C159.277 144 166.133 134.976 166.133 134.976C166.133 134.976 172.215 140.39 174.501 139.386C176.788 138.382 170.472 131.969 170.472 131.969C170.472 131.969 176.302 132.993 171.489 129.362C170.191 128.327 168.559 127.593 166.772 127.239C164.984 126.885 163.107 126.925 161.346 127.353" stroke="#263238" stroke-width="1.20355" stroke-linecap="round" stroke-linejoin="round"/>
<path d="M134.179 167.86C130.782 169.997 127.872 172.823 125.634 176.155C121.609 181.933 122.867 185.451 124.876 185.701C126.886 185.951 133.672 177.156 133.672 177.156C133.672 177.156 130.404 185.451 134.429 184.95C138.455 184.449 143.225 175.147 143.225 175.147C143.225 175.147 142.974 180.925 145.992 180.674C149.009 180.424 152.527 170.37 152.527 170.37C152.527 170.37 154.286 180.424 157.304 180.424C160.321 180.424 160.565 174.139 160.565 174.139C160.565 174.139 164.09 185.2 167.101 182.94C170.112 180.681 168.109 173.388 168.109 173.388C168.109 173.388 170.876 188.218 174.644 185.451C178.413 182.684 172.885 170.877 168.866 166.602" stroke="#263238" stroke-width="1.20355" stroke-linecap="round" stroke-linejoin="round"/>
<path d="M167.312 198.021C166.605 198.021 165.91 197.83 165.303 197.469C164.695 197.107 164.196 196.588 163.858 195.966C163.672 195.639 159.91 189.046 152.424 189.046C144.938 189.046 139.167 196.204 139.115 196.274C138.464 197.061 137.532 197.564 136.517 197.677C135.502 197.789 134.483 197.502 133.675 196.877C132.867 196.252 132.334 195.337 132.189 194.326C132.043 193.315 132.296 192.287 132.894 191.459C133.222 191.042 140.997 181.188 152.424 181.188C164.706 181.188 170.535 191.78 170.772 192.236C171.09 192.835 171.247 193.505 171.229 194.182C171.211 194.859 171.019 195.52 170.671 196.101C170.323 196.682 169.831 197.163 169.243 197.499C168.654 197.834 167.989 198.011 167.312 198.014V198.021Z" fill="#263238"/>
<path d="M134.738 189.411L140.728 191.485L140.041 185.097C138.127 186.344 136.349 187.79 134.738 189.411Z" fill="white"/>
<path d="M165.036 185.623L164.605 192.743L170.473 191.703C169.019 189.382 167.18 187.326 165.036 185.623Z" fill="white"/>
<path d="M166.864 192.743L163.012 194.669C163.325 195.08 163.614 195.509 163.878 195.953C164.216 196.575 164.715 197.094 165.323 197.455C165.931 197.817 166.625 198.008 167.332 198.008C167.713 198.004 168.092 197.945 168.456 197.834L166.864 192.743Z" fill="white"/>
<path d="M139.117 196.274C139.52 195.791 139.948 195.33 140.401 194.893L135.464 192.235L134.18 197.339C134.997 197.77 135.939 197.9 136.842 197.705C137.745 197.51 138.55 197.003 139.117 196.274Z" fill="white"/>
<path d="M167.312 198.021C166.605 198.021 165.91 197.83 165.303 197.469C164.695 197.107 164.196 196.588 163.858 195.966C163.672 195.639 159.91 189.046 152.424 189.046C144.938 189.046 139.167 196.204 139.115 196.274C138.464 197.061 137.532 197.564 136.517 197.677C135.502 197.789 134.483 197.502 133.675 196.877C132.867 196.252 132.334 195.337 132.189 194.326C132.043 193.315 132.296 192.287 132.894 191.459C133.222 191.042 140.997 181.188 152.424 181.188C164.706 181.188 170.535 191.78 170.772 192.236C171.09 192.835 171.247 193.505 171.229 194.182C171.211 194.859 171.019 195.52 170.671 196.101C170.323 196.682 169.831 197.163 169.243 197.499C168.654 197.834 167.989 198.011 167.312 198.014V198.021Z" stroke="#263238" stroke-width="1.20355" stroke-linecap="round" stroke-linejoin="round"/>
<path d="M150.583 147.463C150.583 148.225 150.357 148.97 149.934 149.603C149.51 150.237 148.909 150.731 148.205 151.022C147.501 151.314 146.727 151.39 145.979 151.241C145.232 151.093 144.546 150.726 144.007 150.187C143.468 149.648 143.102 148.962 142.953 148.215C142.804 147.468 142.881 146.693 143.172 145.989C143.464 145.285 143.957 144.684 144.591 144.261C145.224 143.837 145.969 143.611 146.731 143.611C147.753 143.611 148.732 144.017 149.455 144.74C150.177 145.462 150.583 146.442 150.583 147.463Z" fill="white"/>
<path d="M263.837 155.6C260.95 155.6 258.593 154.802 256.088 153.157L256.091 149.019C256.95 149.547 258.302 150.005 259.042 150.358C259.781 150.681 260.509 150.916 261.225 151.062C261.964 151.209 262.716 151.283 263.479 151.283C265.555 151.283 267.153 150.769 268.274 149.741C269.396 148.684 269.956 147.186 269.956 145.247C269.956 143.926 269.67 142.854 269.097 142.031C268.549 141.209 267.678 140.607 266.485 140.225C265.292 139.843 263.73 139.652 261.797 139.652H260.114V135.335L267.523 127.405V127.317H256V123H273.07V127.317L263.944 135.776V135.864H265.59C268.262 135.864 270.326 136.686 271.781 138.331C273.26 139.975 274 142.281 274 145.247C274 148.537 273.105 151.092 271.316 152.913C269.551 154.704 267.058 155.6 263.837 155.6Z" fill="#EA1F4D"/>
<path d="M92.5 245.138V85.5H95.4984L95.0009 243.709L92.5 245.138Z" fill="white" stroke="#263238"/>
<path d="M102.647 243.031C102.647 243.031 105.653 241.025 105.636 238.017C107.5 238.017 106.137 231.517 101.24 233.262C95.4548 235.669 91.8633 240.897 94.8046 244.014C97.7459 247.131 102.647 243.031 102.647 243.031Z" fill="white" stroke="#263238" stroke-width="1.20355" stroke-linecap="round" stroke-linejoin="round"/>
<path d="M94.9087 240.96C94.9087 240.96 92.2802 242.833 91.4457 245.259C91.3717 245.469 91.3734 245.689 91.4505 245.879C91.5276 246.07 91.675 246.217 91.8658 246.295C92.0056 246.354 92.1636 246.372 92.3231 246.347C92.4827 246.323 92.638 246.256 92.7728 246.155C93.5764 245.549 95.2776 244.362 96.7444 243.955C97.1145 243.853 97.4621 243.656 97.75 243.384C98.0378 243.112 98.2551 242.777 98.3785 242.413C98.4614 242.169 98.4903 241.916 98.4632 241.673C98.4361 241.43 98.3536 241.203 98.2217 241.008C97.3472 239.636 96.422 239.72 94.9087 240.96Z" fill="white" stroke="#263238" stroke-width="1.20355" stroke-linecap="round" stroke-linejoin="round"/>
<path d="M109.278 84.4235C128.344 75.9307 136.916 53.5895 128.423 34.5231C119.93 15.4568 97.5891 6.88526 78.5227 15.3781C59.4563 23.871 50.8848 46.2122 59.3777 65.2786C67.8706 84.3449 90.2118 92.9164 109.278 84.4235Z" fill="#EA1F4D"/>
<path d="M127.915 48.4864C127.875 48.3058 127.854 48.1216 127.851 47.9367C127.851 47.5441 127.787 47.0087 127.737 46.3234C127.737 45.9664 127.687 45.5666 127.665 45.1312C127.644 44.6957 127.523 44.2246 127.444 43.7034C127.294 42.5189 127.055 41.3472 126.73 40.1983C125.937 37.0227 124.664 33.987 122.954 31.1963C120.724 27.4809 117.801 24.2285 114.344 21.616C110.166 18.4323 105.297 16.2777 100.131 15.3267C94.201 14.2352 88.087 14.7453 82.4198 16.8045C80.9121 17.3497 79.4429 17.996 78.0223 18.7391C77.3084 19.1246 76.6302 19.5743 75.9235 19.9955C75.215 20.4233 74.5376 20.9004 73.8961 21.4233C72.5504 22.4231 71.2722 23.5105 70.0697 24.6786C68.8818 25.9028 67.7798 27.2075 66.7716 28.5835C64.6776 31.3983 63.0506 34.5318 61.9529 37.8639C59.6401 44.7641 59.6401 52.2302 61.9529 59.1303C63.0495 62.4615 64.6741 65.5948 66.7644 68.4108C67.7769 69.7877 68.8811 71.0947 70.0697 72.3228C71.2717 73.4864 72.5474 74.5714 73.8889 75.571C74.5325 76.0944 75.2124 76.5715 75.9235 76.9987C76.6374 77.4128 77.3155 77.8625 78.0223 78.248C85.6811 82.3225 94.6114 83.3025 102.972 80.986C111.332 78.6695 118.484 73.2331 122.954 65.798C124.661 63.0057 125.934 59.9705 126.73 56.796C127.054 55.6468 127.293 54.4752 127.444 53.2908C127.523 52.7768 127.615 52.3057 127.665 51.8631C127.715 51.4205 127.715 51.035 127.737 50.678C127.787 49.9641 127.822 49.4573 127.851 49.0646C127.854 48.8797 127.875 48.6956 127.915 48.515C127.929 48.6979 127.929 48.8817 127.915 49.0646C127.915 49.4573 127.915 49.9998 127.872 50.6852C127.872 51.0421 127.872 51.4419 127.822 51.8773C127.772 52.3128 127.701 52.7911 127.637 53.3051C127.501 54.4975 127.279 55.6785 126.973 56.8388C126.213 60.0553 124.961 63.1352 123.261 65.9693C120.794 70.1539 117.463 73.7645 113.491 76.5601C109.518 79.3557 104.996 81.2721 100.224 82.1815C94.198 83.3218 87.9767 82.8288 82.2056 80.7537C80.6701 80.2034 79.1745 79.5475 77.7296 78.7906C77.0157 78.3979 76.3018 77.941 75.588 77.5198C74.8612 77.0959 74.1668 76.6187 73.5106 76.0921C70.7044 74.0808 68.2491 71.6206 66.2433 68.8105C64.105 65.943 62.4441 62.7489 61.3247 59.3516C58.9595 52.3208 58.9595 44.7092 61.3247 37.6783C62.4462 34.2855 64.1044 31.0944 66.2361 28.2265C67.2701 26.828 68.3958 25.4997 69.6056 24.2502C70.8327 23.0632 72.1372 21.959 73.5106 20.945C74.1654 20.4199 74.8573 19.9427 75.5808 19.5172C76.2947 19.0889 77.0086 18.632 77.7224 18.2394C79.1695 17.489 80.6648 16.8355 82.1985 16.2833C87.9685 14.2034 94.1911 13.7103 100.217 14.8556C104.986 15.7711 109.507 17.6899 113.478 20.4849C117.45 23.28 120.782 26.8873 123.254 31.0678C124.952 33.9031 126.204 36.9825 126.966 40.1983C127.274 41.3702 127.496 42.5632 127.63 43.7677C127.694 44.2817 127.78 44.76 127.815 45.1954C127.851 45.6309 127.815 46.0307 127.865 46.3876C127.865 47.1015 127.865 47.6155 127.908 48.0152C127.921 48.172 127.923 48.3294 127.915 48.4864Z" fill="white"/>
<path d="M113.583 44.2246H74.2266V52.4342H113.583V44.2246Z" fill="#FAFAFA"/>
</svg>
