<svg width="280" height="187" viewBox="0 0 280 187" fill="none" xmlns="http://www.w3.org/2000/svg">
<path d="M183.284 0H182.911V14.0549H183.284V0Z" fill="#C7C7C7"/>
<path d="M195.746 26.2698L194.731 28.5101H171.461L170.449 26.2698L180.354 19.3994H185.842L195.746 26.2698Z" fill="#EBEBEB"/>
<path d="M186.528 12.7832L185.842 19.3993H180.354L179.667 12.7832H186.528Z" fill="#DBDBDB"/>
<path d="M195.746 26.2695L194.727 28.5098H171.461L170.445 26.2695H195.746Z" fill="#DBDBDB"/>
<path d="M97.089 0H96.7157V14.0549H97.089V0Z" fill="#C7C7C7"/>
<path d="M109.551 26.2698L108.535 28.5101H85.2693L84.2538 26.2698L94.1584 19.3994H99.6464L109.551 26.2698Z" fill="#EBEBEB"/>
<path d="M100.333 12.7832L99.6464 19.3993H94.1584L93.4714 12.7832H100.333Z" fill="#DBDBDB"/>
<path d="M109.551 26.2695L108.535 28.5098H85.2656L84.2538 26.2695H109.551Z" fill="#DBDBDB"/>
<path d="M53.9914 0H53.6181V14.0549H53.9914V0Z" fill="#C7C7C7"/>
<path d="M66.4533 26.2698L65.4379 28.5101H42.1717L41.1562 26.2698L51.0608 19.3994H56.5488L66.4533 26.2698Z" fill="#EBEBEB"/>
<path d="M57.2357 12.7832L56.5488 19.3993H51.0608L50.3738 12.7832H57.2357Z" fill="#DBDBDB"/>
<path d="M66.4533 26.2695L65.4379 28.5098H42.168L41.1562 26.2695H66.4533Z" fill="#DBDBDB"/>
<path d="M226.382 0H226.009V14.0549H226.382V0Z" fill="#C7C7C7"/>
<path d="M238.844 26.2698L237.825 28.5101H214.558L213.543 26.2698L223.451 19.3994H228.939L238.844 26.2698Z" fill="#EBEBEB"/>
<path d="M229.626 12.7832L228.939 19.3993H223.451L222.76 12.7832H229.626Z" fill="#DBDBDB"/>
<path d="M238.844 26.2695L237.825 28.5098H214.558L213.543 26.2695H238.844Z" fill="#DBDBDB"/>
<path d="M33.2796 78.7053C33.7992 76.5 32.4358 74.2903 30.2344 73.7698C28.033 73.2493 25.8273 74.6151 25.3077 76.8204C24.7881 79.0257 26.1515 81.2354 28.3529 81.7559C30.5542 82.2764 32.76 80.9106 33.2796 78.7053Z" fill="#EBEBEB"/>
<path d="M28 77.332C28 77.58 28.0734 77.8224 28.211 78.0285C28.3486 78.2346 28.5442 78.3952 28.7729 78.4899C29.0017 78.5846 29.2533 78.6092 29.496 78.5606C29.7387 78.5119 29.9616 78.3922 30.1363 78.2166C30.3111 78.041 30.4299 77.8174 30.4778 77.5741C30.5256 77.3309 30.5003 77.0788 30.4051 76.8499C30.3098 76.6211 30.1489 76.4257 29.9428 76.2884C29.7366 76.1512 29.4944 76.0784 29.2469 76.0791C28.9159 76.0801 28.5987 76.2125 28.365 76.4474C28.1313 76.6823 28 77.0004 28 77.332Z" fill="white"/>
<path d="M27.0816 80.7845V81.3006C27.4476 81.5275 27.847 81.6954 28.2651 81.798C28.7947 81.9291 29.3451 81.9523 29.8838 81.8662C30.4225 81.7801 30.9385 81.5865 31.4011 81.2968V80.7845C31.3779 80.2262 31.1402 79.6985 30.7377 79.3117C30.3352 78.925 29.7991 78.709 29.2413 78.709C28.6836 78.709 28.1474 78.925 27.7449 79.3117C27.3425 79.6985 27.1048 80.2262 27.0816 80.7845Z" fill="white"/>
<path d="M31.5679 78.168L31.5638 78.542L126.403 79.5867L126.407 79.2127L31.5679 78.168Z" fill="#EBEBEB"/>
<path d="M141.735 79.2791L141.5 79.5693L205.317 131.507L205.553 131.217L141.735 79.2791Z" fill="#EBEBEB"/>
<path d="M112.063 46.0141L111.751 46.2197L129.702 73.5433L130.014 73.3377L112.063 46.0141Z" fill="#EBEBEB"/>
<path d="M123.246 88.3927L99.5241 109.373L99.7712 109.653L123.493 88.6731L123.246 88.3927Z" fill="#EBEBEB"/>
<path d="M250.705 78.1699H154.183V78.5439H250.705V78.1699Z" fill="#EBEBEB"/>
<path d="M116.991 42.4617C118.223 37.2924 115.039 32.1012 109.879 30.8668C104.719 29.6325 99.5367 32.8224 98.3045 37.9917C97.0724 43.161 100.257 48.3522 105.417 49.5866C110.577 50.8209 115.759 47.631 116.991 42.4617Z" fill="#EBEBEB"/>
<path d="M104.757 38.8399C104.757 39.4393 104.935 40.0251 105.267 40.5234C105.6 41.0216 106.072 41.4099 106.625 41.6391C107.178 41.8683 107.786 41.9281 108.373 41.8109C108.959 41.6937 109.498 41.4048 109.921 40.9807C110.344 40.5567 110.631 40.0166 110.748 39.4287C110.864 38.8408 110.804 38.2315 110.574 37.6781C110.345 37.1246 109.956 36.6517 109.459 36.3193C108.961 35.9869 108.376 35.8098 107.778 35.8105C107.381 35.8105 106.988 35.8889 106.621 36.0412C106.254 36.1935 105.921 36.4167 105.641 36.6981C105.36 36.9794 105.138 37.3134 104.986 37.6809C104.835 38.0485 104.757 38.4423 104.757 38.8399Z" fill="white"/>
<path d="M102.558 47.1911V48.4402C103.443 48.9908 104.41 49.3961 105.422 49.6408C106.701 49.9564 108.031 50.0125 109.333 49.8056C110.634 49.5988 111.881 49.1333 113.001 48.4365V47.1911C113.001 45.8024 112.45 44.4706 111.47 43.4887C110.489 42.5067 109.16 41.9551 107.774 41.9551C106.388 41.9551 105.058 42.5067 104.078 43.4887C103.098 44.4706 102.547 45.8024 102.547 47.1911H102.558Z" fill="white"/>
<path d="M206.89 145.471C213.76 145.471 219.33 139.892 219.33 133.01C219.33 126.127 213.76 120.548 206.89 120.548C200.02 120.548 194.451 126.127 194.451 133.01C194.451 139.892 200.02 145.471 206.89 145.471Z" fill="#EBEBEB"/>
<path d="M203.134 131.206C203.134 131.982 203.364 132.741 203.794 133.386C204.225 134.031 204.836 134.534 205.552 134.831C206.268 135.128 207.055 135.206 207.815 135.054C208.574 134.903 209.272 134.529 209.82 133.981C210.368 133.432 210.741 132.733 210.892 131.972C211.043 131.211 210.965 130.422 210.669 129.705C210.372 128.988 209.87 128.375 209.226 127.944C208.582 127.513 207.825 127.283 207.051 127.283C206.012 127.283 205.016 127.697 204.281 128.432C203.547 129.168 203.134 130.166 203.134 131.206Z" fill="white"/>
<path d="M200.286 142.022V143.642C202.318 144.901 204.661 145.569 207.051 145.569C209.44 145.569 211.783 144.901 213.815 143.642V142.03C213.815 140.232 213.103 138.509 211.834 137.238C210.565 135.967 208.845 135.253 207.051 135.253C205.256 135.253 203.536 135.967 202.267 137.238C200.999 138.509 200.286 140.232 200.286 142.03V142.022Z" fill="white"/>
<path d="M247.012 86.158C251.313 86.158 254.8 82.6651 254.8 78.3563C254.8 74.0476 251.313 70.5547 247.012 70.5547C242.711 70.5547 239.224 74.0476 239.224 78.3563C239.224 82.6651 242.711 86.158 247.012 86.158Z" fill="#EBEBEB"/>
<path d="M244.235 75.974C244.235 76.5243 244.398 77.0623 244.703 77.5199C245.008 77.9775 245.442 78.3341 245.949 78.5447C246.457 78.7553 247.015 78.8104 247.554 78.7031C248.093 78.5957 248.588 78.3307 248.976 77.9415C249.365 77.5524 249.629 77.0566 249.736 76.5168C249.844 75.9771 249.789 75.4176 249.578 74.9091C249.368 74.4007 249.012 73.9661 248.555 73.6604C248.099 73.3546 247.562 73.1914 247.012 73.1914C246.276 73.1914 245.569 73.4846 245.048 74.0064C244.527 74.5282 244.235 75.236 244.235 75.974Z" fill="white"/>
<path d="M242.215 83.6451V84.7933C243.028 85.3 243.916 85.6725 244.847 85.8966C246.024 86.1842 247.246 86.2331 248.441 86.0404C249.637 85.8477 250.782 85.4173 251.81 84.7746V83.6301C251.81 82.3555 251.304 81.1331 250.404 80.2318C249.505 79.3306 248.285 78.8242 247.012 78.8242C245.74 78.8242 244.52 79.3306 243.62 80.2318C242.72 81.1331 242.215 82.3555 242.215 83.6301V83.6451Z" fill="white"/>
<path d="M102.528 113.686C102.95 109.398 99.8221 105.579 95.5418 105.156C91.2615 104.734 87.4496 107.867 87.0276 112.155C86.6057 116.443 89.7335 120.262 94.0138 120.684C98.2941 121.107 102.106 117.974 102.528 113.686Z" fill="#EBEBEB"/>
<path d="M92.0043 110.54C92.0035 111.09 92.1659 111.629 92.4708 112.087C92.7758 112.545 93.2095 112.902 93.7172 113.113C94.2249 113.324 94.7837 113.38 95.3228 113.273C95.862 113.165 96.3573 112.9 96.7459 112.511C97.1346 112.121 97.3992 111.625 97.5063 111.085C97.6133 110.545 97.558 109.985 97.3473 109.477C97.1366 108.968 96.78 108.534 96.3227 108.228C95.8654 107.923 95.3278 107.76 94.7781 107.761C94.0428 107.762 93.3378 108.055 92.8178 108.576C92.2978 109.097 92.0053 109.803 92.0043 110.54Z" fill="white"/>
<path d="M89.9733 118.214V119.359C91.4148 120.251 93.076 120.724 94.7707 120.724C96.4653 120.724 98.1265 120.251 99.568 119.359V118.218C99.568 116.943 99.0626 115.721 98.1629 114.82C97.2632 113.918 96.043 113.412 94.7707 113.412C93.4983 113.412 92.2781 113.918 91.3784 114.82C90.4788 115.721 89.9733 116.943 89.9733 118.218V118.214Z" fill="white"/>
<path d="M160.223 90.2186C161.637 79.0278 153.726 68.8083 142.556 67.3926C131.385 65.9769 121.184 73.9011 119.77 85.0919C118.357 96.2826 126.267 106.502 137.438 107.918C148.609 109.334 158.81 101.409 160.223 90.2186Z" fill="#EBEBEB"/>
<path d="M205.595 74.5856L208.015 72.2998L196.435 59.9935L194.015 62.2793L205.595 74.5856Z" fill="#DBDBDB"/>
<path d="M212.636 83.316L216.298 79.8565L206.998 69.9717L203.336 73.4312L212.636 83.316Z" fill="#C7C7C7"/>
<g opacity="0.3">
<path d="M182.187 64.9078C178.744 64.3114 175.615 62.5375 173.332 59.8886C171.049 57.2397 169.754 53.8796 169.667 50.381C169.58 46.8824 170.707 43.4619 172.855 40.7024C175.004 37.9429 178.041 36.0153 181.449 35.2479C184.858 34.4806 188.426 34.9211 191.547 36.4944C194.667 38.0677 197.147 40.6764 198.562 43.8758C199.978 47.0753 200.242 50.6675 199.31 54.0403C198.378 57.413 196.307 60.3576 193.45 62.3721C190.179 64.6783 186.128 65.5903 182.187 64.9078Z" fill="white"/>
</g>
<g opacity="0.1">
<path d="M197.12 41.3193C199.133 44.1794 200.094 47.6504 199.838 51.1406C199.583 54.6309 198.127 57.9244 195.719 60.4598C193.311 62.9953 190.1 64.6157 186.633 65.0451C183.166 65.4744 179.658 64.686 176.706 62.8143C173.754 60.9425 171.542 58.1032 170.446 54.7804C169.35 51.4575 169.438 47.8567 170.695 44.5915C171.952 41.3264 174.301 38.5991 177.341 36.8744C180.38 35.1497 183.923 34.5344 187.365 35.1333C191.306 35.8199 194.814 38.0446 197.12 41.3193Z" fill="white"/>
</g>
<path d="M181.754 67.4244C178.318 66.827 175.136 65.2224 172.61 62.8134C170.084 60.4044 168.328 57.2992 167.564 53.8905C166.8 50.4817 167.062 46.9226 168.317 43.6631C169.573 40.4036 171.764 37.5902 174.616 35.5785C177.467 33.5669 180.849 32.4475 184.336 32.3618C187.822 32.276 191.256 33.2279 194.202 35.097C197.148 36.9661 199.475 39.6684 200.888 42.8623C202.301 46.0562 202.738 49.5982 202.141 53.0403C201.335 57.6529 198.737 61.7572 194.915 64.4535C191.093 67.1499 186.36 68.2182 181.754 67.4244ZM182.101 65.4272C185.143 65.9602 188.275 65.5771 191.1 64.3265C193.926 63.0759 196.317 61.0139 197.972 58.4014C199.627 55.7889 200.472 52.7433 200.398 49.65C200.325 46.5566 199.338 43.5545 197.561 41.0235C195.785 38.4924 193.298 36.5461 190.417 35.4309C187.536 34.3156 184.39 34.0815 181.376 34.7582C178.362 35.4349 175.616 36.9919 173.486 39.2323C171.355 41.4727 169.936 44.2957 169.407 47.3443C168.705 51.4275 169.646 55.6234 172.025 59.0127C174.404 62.4021 178.027 64.7087 182.101 65.4272Z" fill="#C7C7C7"/>
<path d="M202.302 45.2725C201.128 40.9513 198.404 37.2161 194.651 34.7832C190.898 32.3504 186.38 31.3912 181.964 32.0896C177.549 32.788 173.546 35.0949 170.724 38.5677C167.901 42.0406 166.458 46.435 166.671 50.9082C166.883 55.3814 168.737 59.6186 171.876 62.807C175.015 65.9955 179.218 67.9109 183.68 68.1858C188.142 68.4607 192.548 67.0758 196.054 64.2967C199.559 61.5176 201.917 57.5399 202.675 53.1265C203.123 50.5125 202.995 47.8321 202.302 45.2725ZM176.086 37.6654C178.937 35.6587 182.395 34.7042 185.869 34.9644C189.344 35.2246 192.621 36.6835 195.143 39.0925C197.664 41.5015 199.274 44.7117 199.698 48.1763C200.122 51.641 199.335 55.1458 197.469 58.0938C195.603 61.0418 192.775 63.2508 189.466 64.3444C186.157 65.438 182.572 65.3488 179.322 64.0917C176.071 62.8347 173.356 60.4877 171.639 57.4504C169.922 54.4132 169.308 50.8735 169.904 47.4343C170.24 45.4778 170.959 43.6074 172.02 41.9307C173.081 40.2541 174.463 38.8044 176.086 37.6654Z" fill="#EBEBEB"/>
<path d="M174.201 56.6571C173.313 55.2999 172.719 53.7709 172.458 52.1691C172.315 51.3582 172.252 50.5352 172.271 49.7119C172.294 48.8798 172.398 48.0519 172.581 47.2398C172.974 45.6122 173.7 44.084 174.712 42.7518C175.713 41.436 176.948 40.3175 178.356 39.4531C177.238 40.5962 176.237 41.8492 175.37 43.1931C174.957 43.8551 174.599 44.5493 174.298 45.2688C173.991 45.9766 173.751 46.7116 173.581 47.4642C173.234 48.9699 173.122 50.5205 173.249 52.0607C173.382 53.6253 173.702 55.1684 174.201 56.6571Z" fill="#EBEBEB"/>
<path d="M196.399 47.1914C196.885 48.74 197.041 50.3733 196.859 51.9861C196.775 52.8044 196.611 53.6124 196.37 54.3984C196.118 55.1934 195.79 55.9624 195.391 56.6947C194.57 58.1561 193.454 59.4298 192.114 60.4347C190.793 61.4264 189.301 62.1644 187.712 62.6114C189.096 61.8193 190.398 60.8909 191.598 59.8401C192.174 59.3151 192.707 58.7448 193.193 58.1346C193.681 57.5386 194.113 56.8975 194.481 56.2198C195.227 54.8668 195.758 53.4056 196.056 51.8888C196.358 50.3424 196.473 48.7653 196.399 47.1914Z" fill="#EBEBEB"/>
<path d="M56.1141 126.018L54.0468 124.065L44.1542 134.578L46.2215 136.531L56.1141 126.018Z" fill="#DBDBDB"/>
<path d="M40.2117 144.001L37.0832 141.047L45.0277 132.605L48.1563 135.556L40.2117 144.001Z" fill="#C7C7C7"/>
<g opacity="0.3">
<path d="M66.2218 128.282C69.163 127.774 71.8372 126.259 73.7886 123.997C75.74 121.734 76.8477 118.864 76.9231 115.875C76.9985 112.886 76.0368 109.963 74.2019 107.605C72.3671 105.247 69.7726 103.599 66.8608 102.942C63.9489 102.286 60.9 102.661 58.2335 104.005C55.567 105.348 53.4481 107.576 52.2378 110.309C51.0276 113.042 50.801 116.111 51.5966 118.993C52.3922 121.875 54.1609 124.391 56.601 126.113C59.3947 128.084 62.8547 128.864 66.2218 128.282Z" fill="white"/>
</g>
<g opacity="0.1">
<path d="M53.48 108.127C51.758 110.57 50.9348 113.535 51.1508 116.517C51.3668 119.499 52.6086 122.314 54.6644 124.482C56.7203 126.65 59.463 128.036 62.4251 128.405C65.3871 128.774 68.3851 128.102 70.9081 126.504C73.431 124.906 75.3228 122.481 76.2608 119.643C77.1989 116.804 77.1252 113.727 76.0522 110.937C74.9793 108.147 72.9737 105.816 70.3771 104.341C67.7805 102.866 64.7538 102.339 61.8128 102.85C58.4476 103.435 55.4511 105.333 53.48 108.127Z" fill="white"/>
</g>
<path d="M49.1755 118.139C48.6664 115.2 49.0389 112.174 50.246 109.447C51.453 106.719 53.4404 104.411 55.9568 102.814C58.4732 101.218 61.4055 100.405 64.3831 100.478C67.3607 100.551 70.2498 101.507 72.6851 103.225C75.1204 104.943 76.9925 107.346 78.0647 110.13C79.1369 112.913 79.3611 115.953 78.7089 118.865C78.0566 121.776 76.5573 124.428 74.4004 126.486C72.2436 128.544 69.526 129.915 66.5915 130.425C62.6564 131.104 58.6132 130.192 55.3485 127.889C52.0837 125.586 49.8638 122.08 49.1755 118.139ZM77.1531 113.277C76.7014 110.674 75.4894 108.264 73.6703 106.351C71.8511 104.438 69.5066 103.108 66.9331 102.53C64.3596 101.952 61.6727 102.151 59.2123 103.102C56.7518 104.054 54.6282 105.715 53.11 107.875C51.5918 110.036 50.7473 112.599 50.6831 115.24C50.6189 117.881 51.338 120.483 52.7494 122.715C54.1609 124.946 56.2013 126.709 58.6126 127.779C61.024 128.85 63.698 129.18 66.2965 128.727C69.7803 128.117 72.8802 126.148 74.9156 123.25C76.9511 120.353 77.7558 116.765 77.1531 113.274V113.277Z" fill="#C7C7C7"/>
<path d="M48.7349 118.218C49.3427 121.765 51.1598 124.992 53.8766 127.348C56.5933 129.704 60.0416 131.042 63.6335 131.136C67.2254 131.23 70.7386 130.073 73.5742 127.862C76.4098 125.652 78.3923 122.524 79.1838 119.013C79.9752 115.502 79.5266 111.824 77.9143 108.608C76.3021 105.391 73.6261 102.834 70.3425 101.372C67.0589 99.9106 63.3709 99.6352 59.9073 100.593C56.4436 101.55 53.4188 103.682 51.3483 106.624C50.169 108.287 49.3309 110.168 48.8823 112.158C48.4337 114.149 48.3836 116.208 48.7349 118.218ZM76.7125 113.356C77.2253 116.301 76.7026 119.334 75.2334 121.937C73.7642 124.539 71.4394 126.551 68.6554 127.629C65.8714 128.707 62.8004 128.784 59.9659 127.847C57.1313 126.911 54.7087 125.019 53.1109 122.493C51.5131 119.968 50.839 116.965 51.2036 113.998C51.5681 111.03 52.9487 108.281 55.11 106.219C57.2713 104.157 60.0796 102.909 63.0562 102.689C66.0328 102.469 68.9935 103.29 71.4336 105.012C72.82 105.983 74.0005 107.221 74.9066 108.652C75.8127 110.084 76.4265 111.681 76.7125 113.352V113.356Z" fill="#EBEBEB"/>
<path d="M73.0426 121.232C73.8013 120.077 74.31 118.774 74.536 117.41C74.6587 116.718 74.7125 116.015 74.6965 115.312C74.6752 114.601 74.5865 113.893 74.4314 113.199C74.0977 111.803 73.4772 110.492 72.6096 109.35C71.7563 108.225 70.7017 107.269 69.4997 106.53C70.4573 107.508 71.3129 108.58 72.0533 109.732C72.4058 110.295 72.7117 110.887 72.968 111.501C73.2301 112.103 73.4351 112.73 73.5802 113.371C73.8781 114.657 73.9738 115.982 73.864 117.298C73.7489 118.638 73.4731 119.959 73.0426 121.232Z" fill="#EBEBEB"/>
<path d="M54.081 113.146C53.6725 114.467 53.5453 115.858 53.7077 117.231C53.7755 117.93 53.9143 118.62 54.1221 119.291C54.3381 119.969 54.6168 120.625 54.9546 121.251C55.6564 122.503 56.6113 123.595 57.7584 124.456C58.8853 125.307 60.16 125.941 61.5178 126.326C60.3345 125.647 59.2226 124.85 58.1989 123.948C57.7067 123.5 57.2511 123.013 56.8362 122.493C56.4184 121.983 56.0497 121.434 55.7349 120.855C55.0985 119.699 54.6451 118.451 54.3909 117.156C54.1272 115.837 54.0231 114.491 54.081 113.146Z" fill="#EBEBEB"/>
<path d="M140.187 0H139.813V14.0549H140.187V0Z" fill="#263238"/>
<path d="M152.649 26.2698L151.633 28.5101H128.367L127.352 26.2698L137.256 19.3994H142.744L152.649 26.2698Z" fill="#F3C262"/>
<path d="M143.431 12.7832L142.744 19.3993H137.256L136.569 12.7832H143.431Z" fill="#F3C262"/>
<path opacity="0.2" d="M152.649 26.2695L151.633 28.5098H128.363L127.352 26.2695H152.649Z" fill="black"/>
<path opacity="0.1" d="M137.256 19.3993L137.174 18.5878L142.878 18.1016L142.744 19.3993H137.256Z" fill="black"/>
<path opacity="0.2" d="M170.3 173.517H109.801L128.468 28.5098H151.633L170.3 173.517Z" fill="#F3C262"/>
<path d="M21.6757 173.555C97.4811 173.323 182.519 173.323 258.324 173.555C182.519 173.783 97.4811 173.783 21.6757 173.555Z" fill="#263238"/>
</svg>
