<svg width="41" height="41" viewBox="0 0 41 41" fill="none" xmlns="http://www.w3.org/2000/svg">
<path d="M32.1611 33.448L34.1599 31.6582L24.5968 22.0225L22.598 23.8123L32.1611 33.448Z" fill="#DBDBDB"/>
<path d="M37.9756 40.2839L41 37.5752L33.3202 29.8354L30.2958 32.5442L37.9756 40.2839Z" fill="#C7C7C7"/>
<g opacity="0.1">
<path d="M25.1624 7.4006C26.8248 9.64007 27.6181 12.3578 27.4072 15.0906C27.1962 17.8235 25.9941 20.4022 24.0056 22.3875C22.0171 24.3727 19.3654 25.6415 16.5023 25.9777C13.6392 26.3138 10.742 25.6965 8.30446 24.231C5.86689 22.7654 4.03982 20.5423 3.13464 17.9405C2.22946 15.3387 2.30218 12.5193 3.34042 9.96276C4.37866 7.40621 6.31815 5.27075 8.82835 3.92033C11.3386 2.56991 14.2641 2.08811 17.1064 2.55705C20.361 3.09465 23.2582 4.83656 25.1624 7.4006Z" fill="white"/>
</g>
<path d="M29.4417 10.4963C28.4726 7.11276 26.2227 4.18813 23.1233 2.28325C20.0239 0.378366 16.2933 -0.372668 12.6468 0.174174C9.00035 0.721016 5.69478 2.52724 3.36402 5.24645C1.03325 7.96567 -0.158621 11.4065 0.0169716 14.9089C0.192565 18.4114 1.72327 21.7291 4.31551 24.2256C6.90776 26.7222 10.3791 28.2219 14.0637 28.4371C17.7484 28.6524 21.387 27.568 24.2818 25.392C27.1766 23.216 29.1238 20.1015 29.75 16.6459C30.1197 14.5991 30.0145 12.5004 29.4417 10.4963ZM7.79263 4.53993C10.1471 2.96873 13.0021 2.22136 15.8715 2.42511C18.7409 2.62886 21.4473 3.77112 23.5296 5.65736C25.6119 7.5436 26.9414 10.0572 27.2916 12.7699C27.6419 15.4827 26.9913 18.2269 25.4505 20.5352C23.9098 22.8435 21.5743 24.5731 18.8418 25.4294C16.1092 26.2857 13.1486 26.2158 10.4643 25.2315C7.7799 24.2473 5.53774 22.4096 4.11969 20.0315C2.70164 17.6533 2.19538 14.8818 2.68714 12.1889C2.96465 10.657 3.55866 9.19245 4.43492 7.87966C5.31117 6.56687 6.45234 5.43182 7.79263 4.53993Z" fill="#EBEBEB"/>
<path d="M6.23584 19.4105C5.50226 18.3478 5.01176 17.1506 4.79607 15.8965C4.67821 15.2615 4.62658 14.6171 4.64192 13.9725C4.66118 13.321 4.74687 12.6727 4.89781 12.0368C5.22234 10.7624 5.82179 9.56584 6.65822 8.52278C7.48445 7.4925 8.50472 6.61674 9.66725 5.93994C8.74368 6.83494 7.91737 7.81602 7.20083 8.86833C6.86048 9.38667 6.56459 9.93017 6.316 10.4936C6.06255 11.0477 5.86437 11.6232 5.72407 12.2125C5.43695 13.3915 5.34438 14.6056 5.44967 15.8115C5.55982 17.0367 5.82374 18.2449 6.23584 19.4105Z" fill="#EBEBEB"/>
</svg>
