<svg width="1445" height="723" viewBox="0 0 1445 723" fill="none" xmlns="http://www.w3.org/2000/svg">
<path opacity="0.28" fill-rule="evenodd" clip-rule="evenodd" d="M15.0408 0L0 24.5039V32.5918C5.11475 24.1094 11.9148 12.9004 19.772 0H15.0408ZM31.49 0C28.8269 3.24023 26.2473 6.38086 23.7976 9.36328C14.5356 20.6426 6.12256 30.7754 0 38.0508V44.248C10.1357 31.8125 23.0234 16.1191 36.321 0H31.49ZM131.301 0C138.847 27.4277 146.044 54.0938 149.273 66.957C151.243 74.8027 150.845 75.8984 143.183 83.7031C142.278 84.625 106.006 84.0078 62.4832 82.3301C30.5427 81.0977 11.4968 80.3516 0 79.627V84.0996C14.396 84.6797 39.344 85.6484 66.8 86.6875L142.307 89.5469L144.896 94.1562C146.321 96.6895 147.425 99.3301 147.349 100.021C147.163 101.729 61.7488 181.861 60.3066 181.682C59.6772 181.605 47.8491 168.561 34.0217 152.697C21.5708 138.416 7.1543 122.029 0 114.02V119.566C8.20776 129.035 18.825 141.205 28.5098 152.23C44.1357 170.02 56.8699 184.99 56.8066 185.498C56.7437 186.008 34.5789 207.309 7.552 232.832L0 239.977V245.096C15.4011 230.783 31.8855 215.244 42.9519 204.486L44.8586 202.633C55.7085 192.078 58.7124 189.156 60.7678 189.717C61.6697 189.963 62.3889 190.879 63.5083 192.113C65.3513 194.145 81.0081 211.949 98.3003 231.678C127.395 264.867 129.671 267.736 128.777 270.098C128.248 271.502 127.608 274.535 127.356 276.84L126.898 281.029L61.9412 305.18C23.8555 319.34 5.84692 326.346 0 329.6V331.949C4.50293 330.637 32.248 320.549 64.8599 308.348L128.679 284.469L131.178 287.676C132.798 289.756 135.813 291.148 139.755 291.639L145.833 292.395L178.167 358.219C195.95 394.422 210.446 424.482 210.38 425.02C210.313 425.557 176.144 422.053 134.447 417.234C81.8228 411.152 58.9644 409.145 59.7075 410.67C60.4109 412.111 71.9026 414.148 93.1497 416.598C152.51 423.436 205.985 429.736 210.045 430.367C214.042 430.988 214.169 431.215 239.885 483.699C254.087 512.689 283.308 572.158 304.82 615.852C326.332 659.545 343.86 695.994 343.772 696.846C343.684 697.701 342.587 698.148 341.333 697.846C340.08 697.543 313.86 680.838 283.067 660.727C252.272 640.615 226.729 624.094 226.304 624.012C225.878 623.93 227.096 625.82 229.01 628.209C231.079 630.793 254.081 646.609 285.697 667.188L338.903 701.818L338.686 707.58C338.567 710.748 339.442 714.588 340.63 716.113C343.479 719.77 350.511 722.93 354.336 722.271C361.954 720.961 367.806 711.865 365.771 704.492C365.086 702.006 364.759 699.791 365.045 699.568C366.129 698.725 451.547 625.053 461.265 616.582C466.871 611.695 495.962 586.598 525.911 560.811C555.861 535.023 584.957 509.932 590.568 505.051C596.178 500.17 625.519 474.875 655.768 448.836C686.018 422.797 713.305 399.227 716.407 396.455C721.724 391.701 722.285 391.525 726.282 393.369C728.612 394.443 732.754 394.713 735.485 393.969C736.059 393.812 736.552 393.648 737.01 393.516C737.428 393.395 737.816 393.301 738.21 393.264C741.65 392.945 745.499 397.035 772.943 426.189L779.665 433.33C796.893 451.623 815.032 470.734 819.975 475.803C824.917 480.873 838.02 494.584 849.094 506.273C860.166 517.965 871.297 529.633 873.829 532.203C878.036 536.475 878.272 537.182 876.576 540.426C873.907 545.535 876.449 553.842 881.772 557.406C887.302 561.111 890.601 561.02 897.259 556.984L902.83 553.604L986.724 586.25L1070.62 618.893L1071.77 624.115C1073.19 630.564 1075.26 633.312 1080.52 635.738C1088.24 639.295 1097.69 633.877 1099.26 624.994C1099.91 621.318 1103.84 620.303 1259.32 583.584C1406.44 548.84 1418.87 546.15 1420.81 548.643C1423.61 552.232 1430.67 555.379 1434.46 554.725C1436.14 554.438 1439.06 552.996 1440.95 551.523L1444.39 548.846L1436.09 538.191C1429.41 529.619 1427.48 527.787 1426.16 528.811C1425.2 529.559 1423.1 528.789 1421.05 526.936C1414.59 521.094 1352.67 461.174 1351.37 459.504C1350.32 458.156 1351.52 456.91 1357.83 452.758C1363.58 448.977 1365.29 447.303 1364.47 446.258C1363.76 445.336 1360.46 446.693 1354.93 450.191C1349.69 453.498 1346.07 455.031 1345.41 454.217C1344.83 453.494 1338.28 447.09 1330.86 439.986C1321.31 430.846 1317.63 426.66 1318.27 425.664C1318.76 424.891 1319.33 422.303 1319.53 419.912L1319.91 415.568L1327.15 413.338C1335.73 410.695 1336.42 410.25 1334.94 408.35C1334.32 407.553 1330.27 408.129 1325.95 409.629C1315.57 413.232 1313.52 410.381 1319.46 400.615C1321.74 396.867 1323.07 393.109 1322.41 392.268L1322.38 392.227C1321.92 391.635 1321.6 391.227 1321.25 391.186C1320.45 391.094 1319.45 392.793 1316.23 398.236L1316.14 398.395C1312.11 405.221 1312.08 405.242 1308.14 404.752C1304.2 404.262 1304.17 404.174 1297.16 377.363C1292.56 359.764 1289.14 349.467 1287.29 347.584C1285.12 345.375 1286.3 351.662 1292.34 374.549C1298.77 398.924 1299.83 404.803 1298.1 406.604C1296.74 408.02 1295.19 408.252 1293.79 407.254C1282.55 399.248 1082.21 250.428 1081.57 249.611C1081.11 249.016 1094.28 228.457 1110.84 203.924C1130.12 175.355 1140.53 158.789 1139.8 157.848C1139.17 157.039 1138.34 156.617 1137.97 156.91C1137.59 157.205 1124.15 177 1108.09 200.902C1092.04 224.805 1078.33 244.805 1077.61 245.35C1076.88 245.91 1060.98 234.928 1040.91 219.992L1005.5 193.646L1006.09 188.928C1006.17 188.217 1006.24 187.482 1006.27 186.77C1006.37 184.879 1006.29 183.145 1006.04 182.436C1005.55 181.057 1016.59 173.799 1055.23 150.08L1061.55 146.199C1103.84 120.234 1107.98 117.695 1107.63 116.584C1107.57 116.41 1107.41 116.271 1107.26 116.084C1106.14 114.639 1102.98 116.033 1093.2 122.309C1088.57 125.273 1066.72 138.807 1044.64 152.381L1004.49 177.061L999.108 174.631C993.12 171.926 986.741 173.014 982.484 177.463C979.798 180.271 977.34 179.666 926.881 163.779C897.844 154.637 827.439 132.494 770.422 114.572L666.758 81.9883L665.321 76.7129C663.094 68.5391 656.244 64.248 648.656 66.2715C645.355 67.1504 641.896 67.0273 640.599 65.9805C639.35 64.9707 625.856 51.9688 610.613 37.0859C601.091 27.7891 586.608 13.7109 572.466 0H567.065C576.255 8.90039 586.037 18.3711 595.267 27.3027C631.145 62.0234 640.361 71.5039 639.496 72.8047C638.156 74.8164 637.331 80.8535 638.097 83.0195C638.476 84.0898 607.914 100.016 544.718 131.682C493.05 157.572 450.682 178.82 450.569 178.898C450.105 179.221 446.181 175.814 445.183 174.221C444.593 173.281 451.733 142.752 461.051 106.379L488.249 0.222656L488.306 0H484.187C479.668 17.5918 474.275 38.5723 468.501 61.0293C441.744 165.104 437.206 180.082 434.727 172.52C434.437 171.635 419.585 132.025 401.721 84.498C386.556 44.1523 373.734 9.75781 370.207 0H364.839C367.76 6.16211 382.012 42.9316 398.521 86.9922L431.444 174.859L428.364 177.789C425.519 180.496 424.289 180.35 412.289 175.896C405.141 173.244 382.173 164.953 361.247 157.471C340.321 149.988 316.095 141.293 307.411 138.146C298.729 135 264.606 122.713 231.584 110.838C178.817 91.8633 168.141 87.2773 171.088 84.8516C172.492 83.6953 340.474 9.10938 362.05 0H350.292C311.046 18.0391 194.178 70.5078 173.582 79.1855C168.828 81.1895 168.22 81.0566 165.985 77.5273C164.295 74.8613 165.492 68.0977 184.949 0H180.669C178.103 8.875 175.468 17.9844 172.76 27.3516C165.29 53.1875 158.442 74.4062 157.54 74.5039L157.462 74.5117C157.24 74.5371 157.04 74.5586 156.849 74.5293C155.21 74.2793 154.143 70.3047 144.079 32.8125L143.709 31.4336C141.365 22.7031 138.368 11.5918 135.232 0H131.301ZM299.294 595.83C273.744 543.887 245.201 485.904 235.866 466.979C226.531 448.057 218.939 432.215 218.993 431.779C219.047 431.342 250.141 434.59 288.091 438.998C332.016 444.098 357.427 447.766 358.016 449.088C359.089 451.494 364.38 458.199 366.971 460.439C368.062 461.383 365.566 504.199 360.488 571.627C355.946 631.938 352.063 684.262 351.861 687.904C351.495 694.516 348.829 696.992 346.814 692.598C346.229 691.32 324.844 647.775 299.294 595.83ZM364.277 576.924L372.972 461.328L378.024 458.379C381.548 456.322 383.721 453.965 385.206 450.594L387.336 445.762L452.477 433.789C620.724 402.863 717.552 385.246 718.575 385.373C723.145 385.941 721.21 387.67 577.016 511.938C558.638 527.777 505.332 573.771 458.559 614.15L452.765 619.152C367.432 692.818 361.711 697.756 359.298 696.473C359.126 696.381 358.971 696.258 358.806 696.127L358.642 695.998C357.522 695.137 356.376 694 356.094 693.475C355.812 692.949 359.494 640.502 364.277 576.924ZM181.876 357.105C164.304 321.484 149.828 291.434 149.707 290.324C149.586 289.213 150.113 288.383 150.879 288.479C151.948 288.611 358.633 438.584 359.785 440.062C361.816 442.67 345.756 441.463 286.32 434.535C238.049 428.908 215.359 425.596 214.737 424.082C214.236 422.863 199.448 392.725 181.876 357.105ZM63.5852 184.846C64.1692 184.391 84.1372 165.578 107.96 143.041L151.274 102.066L155.306 102.568L159.337 103.068L156.487 127.35C154.921 140.703 150.698 176.889 147.106 207.76C140.747 262.391 140.465 263.922 136.57 265.111C132.928 266.223 132.145 265.807 127.868 260.49C125.284 257.277 111.065 240.967 96.2725 224.248C62.4963 186.07 62.3059 185.842 63.5852 184.846ZM154.609 280L155.309 275.52L201.036 261.547C226.188 253.863 248.178 247.205 249.905 246.756C252.834 245.992 253.353 246.469 257.605 253.812C260.112 258.143 275.329 284.268 291.418 311.871C356.705 423.875 363.085 434.936 362.963 435.914C362.893 436.475 362.025 436.436 361.034 435.828C357.461 433.635 155.9 286.762 154.918 285.635C154.365 285 154.225 282.465 154.609 280ZM154.343 181.967C159.524 137.654 164.6 100.748 165.622 99.9512C167.039 98.8477 167.913 99.3418 169.311 102.033C170.831 104.957 213.981 179.191 242.905 228.639C247.019 235.674 250.331 241.707 250.263 242.043C250.195 242.381 228.512 249.234 202.078 257.275L154.015 271.896L150.294 268.57C148.246 266.742 146.2 264.637 145.747 263.891C145.292 263.145 149.162 226.279 154.343 181.967ZM348.319 402.25C339.714 387.406 331.465 373.156 329.988 370.582C328.509 368.008 317.527 349.191 305.582 328.766C274.089 274.912 257.29 245.74 257.369 245.049C257.407 244.717 284.207 236.281 316.921 226.305C349.636 216.328 386.862 204.941 399.645 200.998C412.427 197.057 423.451 193.867 424.14 193.91C424.831 193.953 426.983 195.674 428.923 197.736L432.453 201.486L404.671 310.361C389.391 370.242 376.13 422.098 375.203 425.596C373.804 430.869 372.957 432.049 370.236 432.518C368.433 432.828 366.283 432.217 365.459 431.158C364.636 430.102 356.922 417.092 348.319 402.25ZM453.473 343.32C492.608 292.23 525.034 249.764 525.532 248.951C526.1 248.023 538.255 255.299 558.083 268.434C575.488 279.963 618.951 308.621 654.667 332.119L719.608 374.844L717.887 378.139C716.379 381.023 712.682 382.074 688.067 386.611C602.466 402.385 437.532 432.596 426.615 434.502C419.637 435.721 407.528 437.996 399.706 439.557C386.922 442.107 385.324 442.082 383.901 439.303C382.392 436.352 385.575 431.961 453.473 343.32ZM407.12 317.174C428.041 235.203 437.106 202.182 438.809 201.75C440.121 201.418 442.974 200.125 445.147 198.875L449.099 196.604L485.718 220.936C505.858 234.316 522.278 245.736 522.208 246.307C522.136 246.879 491.15 287.732 453.347 337.094C415.545 386.455 383.293 428.59 381.676 430.729C379.89 433.088 378.556 434.1 378.278 433.303C378.025 432.582 391.004 380.324 407.12 317.174ZM244.248 223.619C240.284 216.672 222.057 185.359 203.746 154.037C173.99 103.137 168.676 93.1387 171.625 93.5938C172.503 93.7285 207.754 106.355 253.12 122.783C267.883 128.129 312.236 144.109 351.683 158.295C391.128 172.48 423.779 184.57 424.24 185.162C424.701 185.754 424.581 187.062 423.975 188.068C423.368 189.076 386.94 200.854 343.025 214.24C299.109 227.625 261.384 239.139 259.193 239.822C254.493 241.289 254.07 240.834 244.248 223.619ZM545.566 135.527C596.636 109.896 639.221 88.9824 640.198 89.0508C641.176 89.1172 641.924 89.5918 641.86 90.1035C641.744 91.0332 531.044 236.031 527.38 240.053C525.665 241.936 521.369 239.496 488.37 217.902L451.289 193.635L452.002 187.881L452.713 182.127L545.566 135.527ZM542.704 226.805C549.953 217.348 575.953 183.34 600.481 151.23L645.078 92.8477L649.875 93.582L654.671 94.3145L690.508 230.535C722.562 352.373 726.095 367.006 723.976 369.111C721.705 371.367 717.639 368.863 627.097 309.443C575.117 275.332 531.899 246.65 531.057 245.709C529.862 244.375 532.426 240.213 542.704 226.805ZM825.147 433.93L906.62 478.564L906.214 482.943C905.965 485.637 906.991 488.904 908.881 491.438C911.953 495.555 911.953 495.557 903.172 514.012C895.289 530.576 894.067 532.443 891.241 532.232C889.51 532.105 886.378 532.527 884.28 533.174C880.68 534.281 879.994 533.826 872.001 525.047C867.344 519.932 859.93 512.066 855.526 507.57C845.718 497.557 841.997 493.666 821.458 471.945C812.554 462.531 793.229 442.314 778.513 427.02C763.797 411.729 749.939 396.982 747.716 394.254C744.306 390.066 756.375 396.25 825.147 433.93ZM745.244 379.262L744.684 373.34L777.72 348.682C795.89 335.121 811.103 324.041 811.529 324.062C812.188 324.098 842.056 368.428 851.229 382.986C852.904 385.646 866.704 406.518 881.895 429.369C906.959 467.072 911.467 474.84 908.041 474.414C906.677 474.244 747.298 386.984 746.421 385.928C746.08 385.52 745.551 382.52 745.244 379.262ZM693.863 227.939C672.128 145.342 659.552 94.9766 661.03 96.4492C662.902 98.3125 741.017 215.584 759.216 243.852C761.34 247.152 773.378 265.342 785.965 284.275C798.554 303.209 808.812 319.311 808.762 320.061C808.711 320.807 793.962 332.373 775.982 345.76L743.294 370.1L737.365 368.248C734.103 367.23 730.907 365.365 730.262 364.105C729.617 362.848 713.238 301.572 693.863 227.939ZM903.864 545.361C904.916 543.617 961.954 525.166 965.453 525.438C967.224 525.576 1070.1 611.541 1071.17 613.773C1072.03 615.57 905.531 550.828 903.841 548.707C903.445 548.209 903.304 547.422 903.417 546.643C903.482 546.193 903.631 545.748 903.864 545.361ZM906.654 515.576C915.053 498.146 915.724 497.168 918.968 497.57C920.852 497.805 924.076 497.154 926.128 496.127C928.18 495.1 929.995 494.432 930.16 494.645C930.215 494.715 931.035 495.42 932.416 496.59C935.174 498.924 940.171 503.107 945.788 507.779C954.218 514.791 961.067 520.922 961.007 521.4C960.911 522.178 951.712 525.152 913.795 536.656C903.559 539.762 902.281 539.799 900.138 537.047C897.977 534.273 898.539 532.416 906.654 515.576ZM880.146 419.92C823.412 334.402 815.81 322.688 816.124 321.258C816.303 320.439 853.533 292.146 898.858 258.385L899.64 257.803C973.847 202.527 982.269 196.254 985.456 198.27C985.646 198.389 985.817 198.537 985.982 198.707C986.182 198.912 986.373 199.146 986.578 199.396C986.887 199.775 972.34 260.76 954.25 334.914C921.507 469.137 921.34 469.744 917.194 470.084C913.495 470.387 912.647 469.795 909.592 464.771C907.701 461.666 894.449 441.482 880.146 419.92ZM933.583 486.828C934.772 483.344 937.247 482.756 983.362 474.99C1010.05 470.496 1084.52 457.887 1148.84 446.969C1213.16 436.051 1266.66 427.197 1267.73 427.295C1268.79 427.393 1265.42 428.791 1260.24 430.402C1250.72 433.365 1075.55 487.119 1013.8 506.031C995.395 511.666 977.273 517.234 973.524 518.404C966.902 520.473 966.533 520.383 960.488 515.232C958.797 513.793 956.27 511.67 953.547 509.398C950.759 507.072 947.766 504.592 945.259 502.533C933.259 492.678 932.113 491.137 933.583 486.828ZM958.525 334.484C975.714 264.334 990.067 205.508 990.42 203.76C990.879 201.488 991.732 200.602 993.403 200.65C994.689 200.689 997.329 199.756 999.27 198.582L1002.8 196.441L1038.76 223.117C1058.55 237.789 1074.68 250.057 1074.62 250.379C1074.57 250.699 1041.42 300.053 1000.96 360.051C960.504 420.047 927.099 469.787 926.73 470.584C924.153 476.133 931.055 446.596 958.525 334.484ZM959.851 428.111C1069.79 264.801 1077.92 252.951 1079.49 253.623C1080.4 254.01 1128.76 289.654 1186.97 332.832C1290.96 409.986 1292.77 411.402 1292.3 415.125C1291.84 418.846 1290.53 419.131 1219.38 431.139C1179.53 437.863 1103.62 450.719 1050.67 459.709L1020.26 464.879C939.865 478.551 934.033 479.543 932.715 477.551C932.462 477.168 932.375 476.676 931.959 476.141C929.6 473.111 929.87 472.648 959.851 428.111ZM974.58 522.178C1001.94 513.623 1292.77 424.49 1293.32 424.494C1293.74 424.496 1294 425.131 1293.9 425.906C1293.8 426.682 1249.17 468.68 1194.71 519.234C1105.66 601.896 1095.44 611.064 1093.19 610.264C1087.94 608.389 1083.3 608.363 1079.65 610.189C1076.25 611.893 1075.23 611.545 1069.63 606.789C1066.21 603.875 1043.05 584.506 1018.18 563.75C993.301 542.992 972.419 525.428 971.773 524.717C970.887 523.746 971.581 523.117 974.58 522.178ZM794.815 290.895C770.061 253.424 762.946 242.68 747.975 220.174C698.445 145.707 662.483 90.8164 662.336 89.4629C661.91 85.5449 666.563 86.0898 686.103 92.2441C735.498 107.803 829.513 137.363 901.106 159.846L978.127 184.031L978.839 188.922C979.481 193.334 979.006 194.232 973.948 198.182C966.359 204.105 871.195 274.732 854.654 286.715C847.371 291.992 834.901 301.32 826.945 307.443L812.479 318.576L808.952 312.766C807.82 310.902 805.185 306.777 802.027 301.91C799.77 298.434 797.247 294.576 794.815 290.895ZM1196.08 555.01C1249.19 521.434 1304.56 486.381 1319.13 477.117C1333.69 467.852 1345.85 460.303 1346.14 460.338C1346.74 460.412 1418.19 529.084 1419.74 531.078C1420.29 531.781 1420.12 534.559 1419.37 537.244L1418.01 542.131L1265.29 578.229C1181.3 598.084 1109.58 615.072 1105.93 615.984C1102.27 616.896 1099.33 617.285 1099.4 616.852C1099.46 616.416 1142.96 588.588 1196.08 555.01ZM1140.42 574.342C1159 557.166 1201.24 517.994 1234.3 487.291C1267.36 456.588 1294.91 431.076 1295.52 430.596C1296.14 430.117 1298.65 430.551 1301.1 431.564C1303.91 432.725 1307.2 432.686 1310.03 431.459L1314.5 429.516L1328.17 442.641C1335.69 449.859 1341.76 456.408 1341.67 457.193C1341.52 458.383 1203.38 546.865 1175.68 563.516C1170.95 566.354 1153.72 577.27 1137.37 587.771C1121.03 598.273 1107.43 606.572 1107.15 606.217C1106.88 605.859 1121.85 591.516 1140.42 574.342Z" fill="url(#paint0_linear_807_13299)" fill-opacity="0.6"/>
<defs>
<linearGradient id="paint0_linear_807_13299" x1="796.014" y1="536.551" x2="1057.9" y2="-454.832" gradientUnits="userSpaceOnUse">
<stop stop-color="#2A5578" stop-opacity="0.7"/>
<stop offset="1" stop-color="#E1E8ED"/>
</linearGradient>
</defs>
</svg>
